<?xml version="1.0" encoding="UTF-8" standalone="no"?>
<!DOCTYPE svg PUBLIC "-//W3C//DTD SVG 1.1//EN" "http://www.w3.org/Graphics/SVG/1.1/DTD/svg11.dtd">
<svg width="100%" height="100%" viewBox="0 0 1032 1511" version="1.1" xmlns="http://www.w3.org/2000/svg" xmlns:xlink="http://www.w3.org/1999/xlink" xml:space="preserve" xmlns:serif="http://www.serif.com/" style="fill-rule:evenodd;clip-rule:evenodd;stroke-linejoin:round;stroke-miterlimit:2;">
    <g transform="matrix(1,0,0,1,-5155,-3403)">
        <g id="template_poddle" transform="matrix(1,0,0,1,-0.90437,-1576.28)">
            <rect x="5155.9" y="4980" width="1032" height="1509.99" style="fill:white;"/>
            <g transform="matrix(4.88266e-17,0.797399,-0.802942,4.9166e-17,10281.5,5739.8)">
                <path d="M666.962,5293.97L666.962,6187.9C666.962,6215.58 644.332,6238.05 616.459,6238.05L212.434,6238.05C184.56,6238.05 161.931,6215.58 161.931,6187.9L161.931,5293.97C161.931,5266.29 184.56,5243.82 212.434,5243.82L616.459,5243.82C644.332,5243.82 666.962,5266.29 666.962,5293.97Z" style="fill:rgb(137,103,95);"/>
            </g>
            <g transform="matrix(1,0,0,1,0.90437,-85.6178)">
                <path d="M5546.58,5283.97L5546.58,5862.06L5358.07,5862.06L5358.07,5283.97L5546.58,5283.97ZM5542.41,5288.14L5362.23,5288.14L5362.23,5857.89L5542.41,5857.89L5542.41,5288.14Z"/>
            </g>
            <g transform="matrix(0.827047,0,0,1,981.721,-85.6178)">
                <path d="M6070.15,5283.97L6070.15,5862.06L5671,5862.06L5671,5283.97L6070.15,5283.97ZM6065.12,5288.14L5676.04,5288.14L5676.04,5857.89L6065.12,5857.89L6065.12,5288.14Z"/>
            </g>
        </g>
    </g>
</svg>
