<?xml version="1.0" encoding="UTF-8" standalone="no"?>
<!DOCTYPE svg PUBLIC "-//W3C//DTD SVG 1.1//EN" "http://www.w3.org/Graphics/SVG/1.1/DTD/svg11.dtd">
<svg width="100%" height="100%" viewBox="0 0 60 60" version="1.1" xmlns="http://www.w3.org/2000/svg" xmlns:xlink="http://www.w3.org/1999/xlink" xml:space="preserve" xmlns:serif="http://www.serif.com/" style="fill-rule:evenodd;clip-rule:evenodd;stroke-linejoin:round;stroke-miterlimit:2;">
    <g transform="matrix(1,0,0,1,-449,0)">
        <g id="abrir" transform="matrix(1,0,0,1,-149.167,0.591448)">
            <rect x="598.785" y="0" width="59.167" height="59.167" style="fill:none;"/>
            <clipPath id="_clip1">
                <rect x="598.785" y="0" width="59.167" height="59.167"/>
            </clipPath>
            <g clip-path="url(#_clip1)">
                <g transform="matrix(1,0,0,1,131.615,0)">
                    <rect x="467.17" y="0" width="59.167" height="59.167" style="fill:none;"/>
                    <g transform="matrix(0.841946,0,0,4.90123,78.4673,-86.2784)">
                        <path d="M495.572,23.852L484.477,23.852L484.477,23.427L495.572,23.427L495.572,21.521L498.046,21.521L498.046,23.427L509.141,23.427L509.141,23.852L498.046,23.852L498.046,25.758L495.572,25.758L495.572,23.852Z"/>
                    </g>
                </g>
            </g>
        </g>
    </g>
</svg>
