<?xml version="1.0" encoding="UTF-8" standalone="no"?>
<!DOCTYPE svg PUBLIC "-//W3C//DTD SVG 1.1//EN" "http://www.w3.org/Graphics/SVG/1.1/DTD/svg11.dtd">
<svg width="100%" height="100%" viewBox="0 0 60 119" version="1.1" xmlns="http://www.w3.org/2000/svg" xmlns:xlink="http://www.w3.org/1999/xlink" xml:space="preserve" xmlns:serif="http://www.serif.com/" style="fill-rule:evenodd;clip-rule:evenodd;stroke-linejoin:round;stroke-miterlimit:2;">
    <g transform="matrix(1,0,0,1,-212.952,-0.479781)">
        <g id="anterior" transform="matrix(-1,0,0,2,858.565,0.479781)">
            <rect x="586.446" y="0" width="59.167" height="59.167" style="fill:none;"/>
            <g transform="matrix(4.16667,0,0,2.08333,586.559,-30.5102)">
                <rect x="-0" y="14.645" width="14.173" height="14.173" style="fill:white;"/>
            </g>
            <g transform="matrix(4.16667,0,0,2.08333,586.559,-30.5104)">
                <path d="M6.31,23.704L8.282,21.732L6.31,19.76L5.89,20.18L7.443,21.732L5.89,23.284L6.31,23.704Z"/>
            </g>
            <g transform="matrix(4.16667,0,0,2.08333,586.559,28.6006)">
                <rect x="-0" y="0.472" width="14.173" height="14.173" style="fill:white;"/>
            </g>
            <g transform="matrix(4.16667,0,0,2.08333,586.559,28.6006)">
                <path d="M6.31,9.53L8.282,7.559L6.31,5.586L5.89,6.006L7.443,7.559L5.89,9.111L6.31,9.53Z" style="fill:rgb(187,189,192);"/>
            </g>
        </g>
    </g>
</svg>
