<?xml version="1.0" encoding="UTF-8" standalone="no"?>
<!DOCTYPE svg PUBLIC "-//W3C//DTD SVG 1.1//EN" "http://www.w3.org/Graphics/SVG/1.1/DTD/svg11.dtd">
<svg width="100%" height="100%" viewBox="0 0 63 10" version="1.1" xmlns="http://www.w3.org/2000/svg" xmlns:xlink="http://www.w3.org/1999/xlink" xml:space="preserve" xmlns:serif="http://www.serif.com/" style="fill-rule:evenodd;clip-rule:evenodd;stroke-linejoin:round;stroke-miterlimit:2;">
    <rect id="contato3" x="-0" y="-5.906" width="62.5" height="20.833" style="fill:none;"/>
    <clipPath id="_clip1">
        <rect x="-0" y="-5.906" width="62.5" height="20.833"/>
    </clipPath>
    <g clip-path="url(#_clip1)">
        <path d="M7.161,1.559C6.461,1.559 5.92,1.821 5.536,2.347C5.153,2.872 4.961,3.605 4.961,4.544C4.961,6.498 5.694,7.475 7.161,7.475C7.776,7.475 8.522,7.321 9.397,7.014L9.397,8.572C8.677,8.872 7.874,9.022 6.987,9.022C5.712,9.022 4.737,8.635 4.062,7.862C3.386,7.089 3.048,5.979 3.048,4.532C3.048,3.621 3.214,2.822 3.546,2.137C3.878,1.452 4.354,0.926 4.976,0.56C5.597,0.195 6.326,0.012 7.161,0.012C8.012,0.012 8.867,0.218 9.726,0.629L9.127,2.14C8.799,1.984 8.47,1.848 8.138,1.732C7.806,1.617 7.48,1.559 7.161,1.559Z" style="fill-rule:nonzero;"/>
        <path d="M18.97,4.508C18.97,5.959 18.61,7.074 17.891,7.853C17.172,8.632 16.141,9.022 14.798,9.022C13.455,9.022 12.424,8.632 11.705,7.853C10.985,7.074 10.626,5.955 10.626,4.496C10.626,3.037 10.986,1.923 11.708,1.154C12.429,0.385 13.463,-0 14.81,-0C16.157,-0 17.187,0.388 17.9,1.163C18.613,1.938 18.97,3.053 18.97,4.508ZM12.574,4.508C12.574,5.487 12.76,6.224 13.131,6.72C13.503,7.215 14.059,7.463 14.798,7.463C16.281,7.463 17.022,6.478 17.022,4.508C17.022,2.534 16.285,1.547 14.81,1.547C14.071,1.547 13.513,1.795 13.137,2.293C12.762,2.79 12.574,3.529 12.574,4.508Z" style="fill-rule:nonzero;"/>
        <path d="M28.561,8.902L26.2,8.902L22.387,2.272L22.333,2.272C22.409,3.443 22.447,4.278 22.447,4.778L22.447,8.902L20.786,8.902L20.786,0.138L23.13,0.138L26.937,6.702L26.979,6.702C26.919,5.563 26.889,4.758 26.889,4.286L26.889,0.138L28.561,0.138L28.561,8.902Z" style="fill-rule:nonzero;"/>
        <path d="M34.148,8.902L32.29,8.902L32.29,1.684L29.91,1.684L29.91,0.138L36.528,0.138L36.528,1.684L34.148,1.684L34.148,8.902Z" style="fill-rule:nonzero;"/>
        <path d="M42.385,8.902L41.75,6.816L38.554,6.816L37.919,8.902L35.917,8.902L39.01,0.102L41.282,0.102L44.387,8.902L42.385,8.902ZM41.306,5.257C40.718,3.367 40.388,2.298 40.314,2.05C40.24,1.802 40.187,1.607 40.155,1.463C40.023,1.974 39.645,3.239 39.022,5.257L41.306,5.257Z" style="fill-rule:nonzero;"/>
        <path d="M48.014,8.902L46.156,8.902L46.156,1.684L43.776,1.684L43.776,0.138L50.394,0.138L50.394,1.684L48.014,1.684L48.014,8.902Z" style="fill-rule:nonzero;"/>
        <path d="M59.452,4.508C59.452,5.959 59.092,7.074 58.373,7.853C57.653,8.632 56.622,9.022 55.279,9.022C53.937,9.022 52.905,8.632 52.186,7.853C51.467,7.074 51.107,5.955 51.107,4.496C51.107,3.037 51.468,1.923 52.189,1.154C52.91,0.385 53.945,-0 55.291,-0C56.638,-0 57.668,0.388 58.382,1.163C59.095,1.938 59.452,3.053 59.452,4.508ZM53.055,4.508C53.055,5.487 53.241,6.224 53.613,6.72C53.984,7.215 54.54,7.463 55.279,7.463C56.762,7.463 57.503,6.478 57.503,4.508C57.503,2.534 56.766,1.547 55.291,1.547C54.552,1.547 53.994,1.795 53.619,2.293C53.243,2.79 53.055,3.529 53.055,4.508Z" style="fill-rule:nonzero;"/>
        <rect x="-0" y="3.561" width="62.5" height="1.779"/>
    </g>
</svg>
