<?xml version="1.0" encoding="UTF-8" standalone="no"?>
<!DOCTYPE svg PUBLIC "-//W3C//DTD SVG 1.1//EN" "http://www.w3.org/Graphics/SVG/1.1/DTD/svg11.dtd">
<svg width="100%" height="100%" viewBox="0 0 61 10" version="1.1" xmlns="http://www.w3.org/2000/svg" xmlns:xlink="http://www.w3.org/1999/xlink" xml:space="preserve" xmlns:serif="http://www.serif.com/" style="fill-rule:evenodd;clip-rule:evenodd;stroke-linejoin:round;stroke-miterlimit:2;">
    <rect id="contato2" x="-0" y="-5.584" width="62.5" height="20.833" style="fill:none;"/>
    <path d="M4.406,1.67C3.657,1.67 3.077,1.951 2.665,2.515C2.254,3.078 2.049,3.862 2.049,4.868C2.049,6.962 2.835,8.009 4.406,8.009C5.065,8.009 5.864,7.844 6.802,7.515L6.802,9.185C6.031,9.506 5.17,9.666 4.22,9.666C2.854,9.666 1.809,9.252 1.085,8.423C0.362,7.595 0,6.406 0,4.856C0,3.879 0.178,3.024 0.533,2.29C0.888,1.555 1.399,0.992 2.065,0.601C2.731,0.209 3.511,0.013 4.406,0.013C5.318,0.013 6.234,0.233 7.155,0.674L6.513,2.293C6.162,2.126 5.808,1.98 5.453,1.856C5.098,1.732 4.749,1.67 4.406,1.67Z" style="fill-rule:nonzero;"/>
    <path d="M17.059,4.83C17.059,6.384 16.674,7.579 15.903,8.414C15.132,9.249 14.027,9.666 12.589,9.666C11.15,9.666 10.045,9.249 9.274,8.414C8.504,7.579 8.118,6.38 8.118,4.817C8.118,3.254 8.505,2.061 9.278,1.236C10.051,0.412 11.158,-0 12.601,-0C14.044,-0 15.148,0.415 15.912,1.246C16.677,2.077 17.059,3.271 17.059,4.83ZM10.206,4.83C10.206,5.879 10.405,6.669 10.803,7.2C11.201,7.731 11.796,7.996 12.589,7.996C14.177,7.996 14.971,6.941 14.971,4.83C14.971,2.715 14.181,1.657 12.601,1.657C11.809,1.657 11.212,1.924 10.81,2.457C10.407,2.99 10.206,3.781 10.206,4.83Z" style="fill-rule:nonzero;"/>
    <path d="M27.335,9.538L24.805,9.538L20.72,2.434L20.662,2.434C20.743,3.689 20.784,4.584 20.784,5.119L20.784,9.538L19.005,9.538L19.005,0.148L21.516,0.148L25.595,7.181L25.64,7.181C25.575,5.96 25.543,5.098 25.543,4.592L25.543,0.148L27.335,0.148L27.335,9.538Z" style="fill-rule:nonzero;"/>
    <path d="M33.321,9.538L31.33,9.538L31.33,1.805L28.78,1.805L28.78,0.148L35.871,0.148L35.871,1.805L33.321,1.805L33.321,9.538Z" style="fill-rule:nonzero;"/>
    <path d="M42.146,9.538L41.465,7.303L38.042,7.303L37.361,9.538L35.216,9.538L38.53,0.109L40.964,0.109L44.291,9.538L42.146,9.538ZM40.99,5.633C40.361,3.607 40.006,2.462 39.927,2.197C39.848,1.931 39.791,1.721 39.757,1.567C39.616,2.115 39.211,3.47 38.543,5.633L40.99,5.633Z" style="fill-rule:nonzero;"/>
    <path d="M48.177,9.538L46.186,9.538L46.186,1.805L43.636,1.805L43.636,0.148L50.727,0.148L50.727,1.805L48.177,1.805L48.177,9.538Z" style="fill-rule:nonzero;"/>
    <path d="M60.432,4.83C60.432,6.384 60.047,7.579 59.276,8.414C58.505,9.249 57.4,9.666 55.962,9.666C54.523,9.666 53.418,9.249 52.647,8.414C51.877,7.579 51.491,6.38 51.491,4.817C51.491,3.254 51.878,2.061 52.651,1.236C53.424,0.412 54.531,-0 55.974,-0C57.417,-0 58.521,0.415 59.285,1.246C60.05,2.077 60.432,3.271 60.432,4.83ZM53.579,4.83C53.579,5.879 53.778,6.669 54.176,7.2C54.574,7.731 55.169,7.996 55.962,7.996C57.55,7.996 58.344,6.941 58.344,4.83C58.344,2.715 57.554,1.657 55.974,1.657C55.182,1.657 54.585,1.924 54.183,2.457C53.78,2.99 53.579,3.781 53.579,4.83Z" style="fill-rule:nonzero;"/>
</svg>
