<?xml version="1.0" encoding="UTF-8" standalone="no"?>
<!DOCTYPE svg PUBLIC "-//W3C//DTD SVG 1.1//EN" "http://www.w3.org/Graphics/SVG/1.1/DTD/svg11.dtd">
<svg width="100%" height="100%" viewBox="0 0 56 10" version="1.1" xmlns="http://www.w3.org/2000/svg" xmlns:xlink="http://www.w3.org/1999/xlink" xml:space="preserve" xmlns:serif="http://www.serif.com/" style="fill-rule:evenodd;clip-rule:evenodd;stroke-linejoin:round;stroke-miterlimit:2;">
    <rect id="contato1" x="-0" y="-5.584" width="62.5" height="20.833" style="fill:none;"/>
    <path d="M5.023,1.657C4.457,1.657 3.949,1.83 3.497,2.177C3.045,2.524 2.683,3.035 2.409,3.709C2.135,4.384 1.997,5.108 1.997,5.883C1.997,6.598 2.144,7.129 2.437,7.476C2.731,7.823 3.199,7.996 3.841,7.996C4.466,7.996 5.19,7.832 6.012,7.502L6.012,9.172C5.16,9.501 4.303,9.666 3.443,9.666C2.355,9.666 1.509,9.346 0.906,8.706C0.302,8.066 0,7.159 0,5.986C0,4.864 0.223,3.831 0.668,2.887C1.113,1.943 1.708,1.226 2.453,0.735C3.199,0.245 4.055,-0 5.023,-0C5.558,-0 6.033,0.048 6.448,0.145C6.864,0.241 7.309,0.417 7.784,0.674L7.027,2.28C6.573,2.027 6.198,1.86 5.903,1.779C5.607,1.698 5.314,1.657 5.023,1.657Z" style="fill-rule:nonzero;"/>
    <path d="M16.192,3.513C16.192,4.725 15.98,5.809 15.556,6.766C15.132,7.723 14.552,8.446 13.815,8.934C13.079,9.422 12.231,9.666 11.272,9.666C10.176,9.666 9.321,9.35 8.706,8.719C8.092,8.087 7.784,7.211 7.784,6.089C7.784,4.954 7.996,3.91 8.42,2.958C8.844,2.005 9.429,1.274 10.174,0.764C10.919,0.255 11.779,-0 12.756,-0C13.847,-0 14.693,0.308 15.293,0.925C15.892,1.541 16.192,2.404 16.192,3.513ZM12.595,1.657C12.077,1.657 11.602,1.853 11.169,2.245C10.737,2.637 10.397,3.175 10.151,3.86C9.905,4.545 9.782,5.288 9.782,6.089C9.782,6.718 9.924,7.194 10.209,7.515C10.494,7.836 10.895,7.996 11.413,7.996C11.931,7.996 12.403,7.81 12.829,7.438C13.256,7.065 13.588,6.538 13.828,5.858C14.068,5.177 14.188,4.412 14.188,3.565C14.188,2.957 14.049,2.487 13.77,2.155C13.492,1.823 13.1,1.657 12.595,1.657Z" style="fill-rule:nonzero;"/>
    <path d="M24.606,9.538L22.409,9.538L20.123,2.434L20.084,2.434L20.058,2.64C19.921,3.565 19.78,4.391 19.634,5.119L18.703,9.538L16.937,9.538L18.921,0.148L21.214,0.148L23.398,7.065L23.424,7.065C23.475,6.74 23.559,6.275 23.674,5.671C23.79,5.068 24.175,3.226 24.83,0.148L26.59,0.148L24.606,9.538Z" style="fill-rule:nonzero;"/>
    <path d="M30.193,9.538L28.235,9.538L29.866,1.805L27.605,1.805L27.958,0.148L34.445,0.148L34.092,1.805L31.825,1.805L30.193,9.538Z" style="fill-rule:nonzero;"/>
    <path d="M37.997,7.303L34.959,7.303L33.854,9.538L31.799,9.538L36.719,0.109L39.115,0.109L40.059,9.538L38.151,9.538L37.997,7.303ZM37.901,5.633L37.734,3.385C37.691,2.824 37.67,2.282 37.67,1.76L37.67,1.529C37.481,2.042 37.248,2.586 36.969,3.16L35.762,5.633L37.901,5.633Z" style="fill-rule:nonzero;"/>
    <path d="M43.598,9.538L41.639,9.538L43.27,1.805L41.009,1.805L41.363,0.148L47.85,0.148L47.496,1.805L45.229,1.805L43.598,9.538Z" style="fill-rule:nonzero;"/>
    <path d="M55.846,3.513C55.846,4.725 55.634,5.809 55.21,6.766C54.786,7.723 54.206,8.446 53.47,8.934C52.733,9.422 51.885,9.666 50.926,9.666C49.83,9.666 48.975,9.35 48.36,8.719C47.746,8.087 47.439,7.211 47.439,6.089C47.439,4.954 47.651,3.91 48.074,2.958C48.498,2.005 49.083,1.274 49.828,0.764C50.573,0.255 51.434,-0 52.41,-0C53.502,-0 54.347,0.308 54.947,0.925C55.546,1.541 55.846,2.404 55.846,3.513ZM52.249,1.657C51.731,1.657 51.256,1.853 50.823,2.245C50.391,2.637 50.052,3.175 49.805,3.86C49.559,4.545 49.436,5.288 49.436,6.089C49.436,6.718 49.578,7.194 49.863,7.515C50.148,7.836 50.549,7.996 51.067,7.996C51.586,7.996 52.058,7.81 52.484,7.438C52.91,7.065 53.243,6.538 53.482,5.858C53.722,5.177 53.842,4.412 53.842,3.565C53.842,2.957 53.703,2.487 53.425,2.155C53.146,1.823 52.755,1.657 52.249,1.657Z" style="fill-rule:nonzero;"/>
</svg>
