<?xml version="1.0" encoding="UTF-8" standalone="no"?>
<!DOCTYPE svg PUBLIC "-//W3C//DTD SVG 1.1//EN" "http://www.w3.org/Graphics/SVG/1.1/DTD/svg11.dtd">
<svg width="100%" height="100%" viewBox="0 0 591 591" version="1.1" xmlns="http://www.w3.org/2000/svg" xmlns:xlink="http://www.w3.org/1999/xlink" xml:space="preserve" xmlns:serif="http://www.serif.com/" style="fill-rule:evenodd;clip-rule:evenodd;stroke-linejoin:round;stroke-miterlimit:2;">
    <rect id="cor1" x="-0" y="0" width="590.551" height="590.551"/>
    <path d="M216.656,288.733C217.259,288.733 217.698,288.908 217.975,289.258C218.251,289.607 218.316,290.084 218.17,290.686L217.511,293.176C217.267,294.201 216.673,294.714 215.729,294.714L213.458,294.714L212.677,298.718L214.728,298.718C215.297,298.718 215.717,298.893 215.985,299.243C216.254,299.593 216.315,300.069 216.168,300.671L215.558,303.186C215.314,304.211 214.72,304.724 213.776,304.724L211.456,304.724L210.724,308.435C210.48,309.46 209.878,309.973 208.918,309.973L205.866,309.973C205.28,309.973 204.853,309.798 204.584,309.448C204.316,309.098 204.247,308.622 204.377,308.02L205.011,304.724L202.277,304.724L201.52,308.435C201.276,309.46 200.674,309.973 199.714,309.973L196.662,309.973C196.076,309.973 195.649,309.798 195.381,309.448C195.112,309.098 195.043,308.622 195.173,308.02L195.808,304.724L193.513,304.724C192.943,304.724 192.524,304.549 192.256,304.199C191.987,303.849 191.926,303.373 192.073,302.771L192.707,300.28C192.952,299.239 193.537,298.718 194.465,298.718L197.077,298.718L197.859,294.714L195.515,294.714C194.913,294.714 194.486,294.543 194.233,294.201C193.981,293.86 193.928,293.388 194.075,292.785L194.66,290.271C194.905,289.245 195.507,288.733 196.467,288.733L199.128,288.733L199.86,285.022C200.056,283.996 200.658,283.484 201.667,283.484L204.67,283.484C205.256,283.484 205.683,283.659 205.951,284.009C206.22,284.358 206.289,284.835 206.159,285.437L205.524,288.733L208.307,288.733L209.064,285.022C209.259,283.996 209.861,283.484 210.871,283.484L213.873,283.484C214.459,283.484 214.886,283.659 215.155,284.009C215.424,284.358 215.493,284.835 215.363,285.437L214.728,288.733L216.656,288.733ZM206.257,298.718L207.062,294.714L204.279,294.714L203.473,298.718L206.257,298.718Z" style="fill:white;fill-rule:nonzero;"/>
    <path d="M236.26,313.586C234.356,313.586 232.651,313.301 231.145,312.732C229.64,312.162 228.362,311.356 227.313,310.315C226.263,309.273 225.392,307.991 224.7,306.469C224.009,304.948 223.504,303.263 223.187,301.416C222.869,299.568 222.711,297.522 222.711,295.276C222.711,293.029 222.869,290.983 223.187,289.135C223.504,287.288 224.009,285.604 224.7,284.082C225.392,282.56 226.263,281.278 227.313,280.237C228.362,279.195 229.64,278.389 231.145,277.82C232.651,277.25 234.356,276.965 236.26,276.965C238.62,276.965 240.67,277.396 242.412,278.259C244.153,279.122 245.557,280.371 246.623,282.007C247.689,283.642 248.478,285.559 248.991,287.756C249.504,289.953 249.76,292.46 249.76,295.276C249.76,298.091 249.504,300.598 248.991,302.795C248.478,304.992 247.689,306.909 246.623,308.545C245.557,310.18 244.153,311.43 242.412,312.292C240.67,313.155 238.62,313.586 236.26,313.586ZM236.26,305.871C237.773,305.871 238.892,305.045 239.617,303.393C240.341,301.741 240.703,299.035 240.703,295.276C240.703,291.516 240.341,288.81 239.617,287.158C238.892,285.506 237.773,284.68 236.26,284.68C234.779,284.68 233.656,285.514 232.891,287.182C232.126,288.851 231.744,291.548 231.744,295.276C231.744,299.035 232.114,301.741 232.854,303.393C233.595,305.045 234.73,305.871 236.26,305.871Z" style="fill:white;fill-rule:nonzero;"/>
    <path d="M266.019,313.586C264.115,313.586 262.41,313.301 260.905,312.732C259.399,312.162 258.122,311.356 257.072,310.315C256.022,309.273 255.151,307.991 254.46,306.469C253.768,304.948 253.263,303.263 252.946,301.416C252.629,299.568 252.47,297.522 252.47,295.276C252.47,293.029 252.629,290.983 252.946,289.135C253.263,287.288 253.768,285.604 254.46,284.082C255.151,282.56 256.022,281.278 257.072,280.237C258.122,279.195 259.399,278.389 260.905,277.82C262.41,277.25 264.115,276.965 266.019,276.965C268.379,276.965 270.43,277.396 272.171,278.259C273.913,279.122 275.316,280.371 276.382,282.007C277.448,283.642 278.238,285.559 278.75,287.756C279.263,289.953 279.519,292.46 279.519,295.276C279.519,298.091 279.263,300.598 278.75,302.795C278.238,304.992 277.448,306.909 276.382,308.545C275.316,310.18 273.913,311.43 272.171,312.292C270.43,313.155 268.379,313.586 266.019,313.586ZM266.019,305.871C267.533,305.871 268.652,305.045 269.376,303.393C270.1,301.741 270.462,299.035 270.462,295.276C270.462,291.516 270.1,288.81 269.376,287.158C268.652,285.506 267.533,284.68 266.019,284.68C264.538,284.68 263.415,285.514 262.65,287.182C261.885,288.851 261.503,291.548 261.503,295.276C261.503,299.035 261.873,301.741 262.613,303.393C263.354,305.045 264.489,305.871 266.019,305.871Z" style="fill:white;fill-rule:nonzero;"/>
    <path d="M295.778,313.586C293.874,313.586 292.169,313.301 290.664,312.732C289.158,312.162 287.881,311.356 286.831,310.315C285.781,309.273 284.91,307.991 284.219,306.469C283.527,304.948 283.023,303.263 282.705,301.416C282.388,299.568 282.229,297.522 282.229,295.276C282.229,293.029 282.388,290.983 282.705,289.135C283.023,287.288 283.527,285.604 284.219,284.082C284.91,282.56 285.781,281.278 286.831,280.237C287.881,279.195 289.158,278.389 290.664,277.82C292.169,277.25 293.874,276.965 295.778,276.965C298.138,276.965 300.189,277.396 301.93,278.259C303.672,279.122 305.075,280.371 306.141,282.007C307.207,283.642 307.997,285.559 308.509,287.756C309.022,289.953 309.278,292.46 309.278,295.276C309.278,298.091 309.022,300.598 308.509,302.795C307.997,304.992 307.207,306.909 306.141,308.545C305.075,310.18 303.672,311.43 301.93,312.292C300.189,313.155 298.138,313.586 295.778,313.586ZM295.778,305.871C297.292,305.871 298.411,305.045 299.135,303.393C299.859,301.741 300.221,299.035 300.221,295.276C300.221,291.516 299.859,288.81 299.135,287.158C298.411,285.506 297.292,284.68 295.778,284.68C294.297,284.68 293.174,285.514 292.409,287.182C291.644,288.851 291.262,291.548 291.262,295.276C291.262,299.035 291.632,301.741 292.373,303.393C293.113,305.045 294.248,305.871 295.778,305.871Z" style="fill:white;fill-rule:nonzero;"/>
    <path d="M325.537,313.586C323.633,313.586 321.928,313.301 320.423,312.732C318.917,312.162 317.64,311.356 316.59,310.315C315.54,309.273 314.67,307.991 313.978,306.469C313.286,304.948 312.782,303.263 312.464,301.416C312.147,299.568 311.988,297.522 311.988,295.276C311.988,293.029 312.147,290.983 312.464,289.135C312.782,287.288 313.286,285.604 313.978,284.082C314.67,282.56 315.54,281.278 316.59,280.237C317.64,279.195 318.917,278.389 320.423,277.82C321.928,277.25 323.633,276.965 325.537,276.965C327.897,276.965 329.948,277.396 331.689,278.259C333.431,279.122 334.835,280.371 335.901,282.007C336.967,283.642 337.756,285.559 338.269,287.756C338.781,289.953 339.038,292.46 339.038,295.276C339.038,298.091 338.781,300.598 338.269,302.795C337.756,304.992 336.967,306.909 335.901,308.545C334.835,310.18 333.431,311.43 331.689,312.292C329.948,313.155 327.897,313.586 325.537,313.586ZM325.537,305.871C327.051,305.871 328.17,305.045 328.894,303.393C329.618,301.741 329.981,299.035 329.981,295.276C329.981,291.516 329.618,288.81 328.894,287.158C328.17,285.506 327.051,284.68 325.537,284.68C324.056,284.68 322.933,285.514 322.168,287.182C321.403,288.851 321.021,291.548 321.021,295.276C321.021,299.035 321.391,301.741 322.132,303.393C322.872,305.045 324.008,305.871 325.537,305.871Z" style="fill:white;fill-rule:nonzero;"/>
    <path d="M355.297,313.586C353.392,313.586 351.688,313.301 350.182,312.732C348.677,312.162 347.399,311.356 346.349,310.315C345.3,309.273 344.429,307.991 343.737,306.469C343.045,304.948 342.541,303.263 342.224,301.416C341.906,299.568 341.747,297.522 341.747,295.276C341.747,293.029 341.906,290.983 342.224,289.135C342.541,287.288 343.045,285.604 343.737,284.082C344.429,282.56 345.3,281.278 346.349,280.237C347.399,279.195 348.677,278.389 350.182,277.82C351.688,277.25 353.392,276.965 355.297,276.965C357.656,276.965 359.707,277.396 361.449,278.259C363.19,279.122 364.594,280.371 365.66,282.007C366.726,283.642 367.515,285.559 368.028,287.756C368.541,289.953 368.797,292.46 368.797,295.276C368.797,298.091 368.541,300.598 368.028,302.795C367.515,304.992 366.726,306.909 365.66,308.545C364.594,310.18 363.19,311.43 361.449,312.292C359.707,313.155 357.656,313.586 355.297,313.586ZM355.297,305.871C356.81,305.871 357.929,305.045 358.653,303.393C359.378,301.741 359.74,299.035 359.74,295.276C359.74,291.516 359.378,288.81 358.653,287.158C357.929,285.506 356.81,284.68 355.297,284.68C353.816,284.68 352.693,285.514 351.928,287.182C351.163,288.851 350.78,291.548 350.78,295.276C350.78,299.035 351.15,301.741 351.891,303.393C352.632,305.045 353.767,305.871 355.297,305.871Z" style="fill:white;fill-rule:nonzero;"/>
    <path d="M385.056,313.586C383.152,313.586 381.447,313.301 379.941,312.732C378.436,312.162 377.158,311.356 376.108,310.315C375.059,309.273 374.188,307.991 373.496,306.469C372.805,304.948 372.3,303.263 371.983,301.416C371.665,299.568 371.507,297.522 371.507,295.276C371.507,293.029 371.665,290.983 371.983,289.135C372.3,287.288 372.805,285.604 373.496,284.082C374.188,282.56 375.059,281.278 376.108,280.237C377.158,279.195 378.436,278.389 379.941,277.82C381.447,277.25 383.152,276.965 385.056,276.965C387.416,276.965 389.466,277.396 391.208,278.259C392.949,279.122 394.353,280.371 395.419,282.007C396.485,283.642 397.274,285.559 397.787,287.756C398.3,289.953 398.556,292.46 398.556,295.276C398.556,298.091 398.3,300.598 397.787,302.795C397.274,304.992 396.485,306.909 395.419,308.545C394.353,310.18 392.949,311.43 391.208,312.292C389.466,313.155 387.416,313.586 385.056,313.586ZM385.056,305.871C386.569,305.871 387.688,305.045 388.413,303.393C389.137,301.741 389.499,299.035 389.499,295.276C389.499,291.516 389.137,288.81 388.413,287.158C387.688,285.506 386.569,284.68 385.056,284.68C383.575,284.68 382.452,285.514 381.687,287.182C380.922,288.851 380.539,291.548 380.539,295.276C380.539,299.035 380.91,301.741 381.65,303.393C382.391,305.045 383.526,305.871 385.056,305.871Z" style="fill:white;fill-rule:nonzero;"/>
</svg>
