<?xml version="1.0" encoding="UTF-8" standalone="no"?>
<!DOCTYPE svg PUBLIC "-//W3C//DTD SVG 1.1//EN" "http://www.w3.org/Graphics/SVG/1.1/DTD/svg11.dtd">
<svg width="100%" height="100%" viewBox="0 0 592 591" version="1.1" xmlns="http://www.w3.org/2000/svg" xmlns:xlink="http://www.w3.org/1999/xlink" xml:space="preserve" xmlns:serif="http://www.serif.com/" style="fill-rule:evenodd;clip-rule:evenodd;stroke-linejoin:round;stroke-miterlimit:2;">
    <rect id="cor1" x="0.709" y="0" width="590.551" height="590.551"/>
    <path d="M218.486,287.036L218.486,291.333L212.553,291.333L211.675,298.34L217.094,298.34L217.094,302.636L211.137,302.636L209.697,314.306L205.4,313.745L206.792,302.636L199.541,302.636L198.077,314.306L193.731,313.745L195.123,302.539L189.557,302.539L189.557,298.34L195.733,298.34L196.612,291.333L190.972,291.333L190.972,287.036L197.149,287.036L198.492,276.098L202.764,276.66L201.47,287.036L208.672,287.036L210.039,276.098L214.311,276.66L213.017,287.036L218.486,287.036ZM208.135,291.333L200.957,291.333L200.078,298.34L207.305,298.34L208.135,291.333Z" style="fill:white;fill-rule:nonzero;"/>
    <path d="M221.513,295.044C221.513,289.038 222.913,284.245 225.712,280.664C228.218,277.425 231.254,275.805 234.818,275.805C238.382,275.805 241.417,277.425 243.924,280.664C246.723,284.245 248.123,289.119 248.123,295.288C248.123,301.44 246.723,306.307 243.924,309.887C241.417,313.126 238.39,314.746 234.842,314.746C231.294,314.746 228.251,313.126 225.712,309.887C222.913,306.307 221.513,301.359 221.513,295.044ZM227.103,295.068C227.103,299.251 227.828,302.726 229.276,305.493C230.725,308.211 232.572,309.57 234.818,309.57C237.048,309.57 238.895,308.211 240.36,305.493C241.824,302.791 242.557,299.381 242.557,295.263C242.557,291.146 241.824,287.728 240.36,285.009C238.895,282.308 237.048,280.957 234.818,280.957C232.604,280.957 230.765,282.308 229.301,285.009C227.836,287.695 227.103,291.048 227.103,295.068Z" style="fill:white;fill-rule:nonzero;"/>
    <path d="M252.371,295.044C252.371,289.038 253.77,284.245 256.57,280.664C259.076,277.425 262.111,275.805 265.676,275.805C269.24,275.805 272.275,277.425 274.782,280.664C277.581,284.245 278.981,289.119 278.981,295.288C278.981,301.44 277.581,306.307 274.782,309.887C272.275,313.126 269.248,314.746 265.7,314.746C262.152,314.746 259.109,313.126 256.57,309.887C253.77,306.307 252.371,301.359 252.371,295.044ZM257.961,295.068C257.961,299.251 258.685,302.726 260.134,305.493C261.582,308.211 263.43,309.57 265.676,309.57C267.905,309.57 269.753,308.211 271.217,305.493C272.682,302.791 273.414,299.381 273.414,295.263C273.414,291.146 272.682,287.728 271.217,285.009C269.753,282.308 267.905,280.957 265.676,280.957C263.462,280.957 261.623,282.308 260.158,285.009C258.694,287.695 257.961,291.048 257.961,295.068Z" style="fill:white;fill-rule:nonzero;"/>
    <path d="M283.228,295.044C283.228,289.038 284.628,284.245 287.427,280.664C289.934,277.425 292.969,275.805 296.533,275.805C300.098,275.805 303.133,277.425 305.639,280.664C308.439,284.245 309.838,289.119 309.838,295.288C309.838,301.44 308.439,306.307 305.639,309.887C303.133,313.126 300.106,314.746 296.558,314.746C293.01,314.746 289.966,313.126 287.427,309.887C284.628,306.307 283.228,301.359 283.228,295.044ZM288.819,295.068C288.819,299.251 289.543,302.726 290.992,305.493C292.44,308.211 294.287,309.57 296.533,309.57C298.763,309.57 300.61,308.211 302.075,305.493C303.54,302.791 304.272,299.381 304.272,295.263C304.272,291.146 303.54,287.728 302.075,285.009C300.61,282.308 298.763,280.957 296.533,280.957C294.32,280.957 292.481,282.308 291.016,285.009C289.551,287.695 288.819,291.048 288.819,295.068Z" style="fill:white;fill-rule:nonzero;"/>
    <path d="M314.086,295.044C314.086,289.038 315.486,284.245 318.285,280.664C320.792,277.425 323.827,275.805 327.391,275.805C330.955,275.805 333.991,277.425 336.497,280.664C339.297,284.245 340.696,289.119 340.696,295.288C340.696,301.44 339.297,306.307 336.497,309.887C333.991,313.126 330.964,314.746 327.416,314.746C323.868,314.746 320.824,313.126 318.285,309.887C315.486,306.307 314.086,301.359 314.086,295.044ZM319.677,295.068C319.677,299.251 320.401,302.726 321.849,305.493C323.298,308.211 325.145,309.57 327.391,309.57C329.621,309.57 331.468,308.211 332.933,305.493C334.398,302.791 335.13,299.381 335.13,295.263C335.13,291.146 334.398,287.728 332.933,285.009C331.468,282.308 329.621,280.957 327.391,280.957C325.178,280.957 323.339,282.308 321.874,285.009C320.409,287.695 319.677,291.048 319.677,295.068Z" style="fill:white;fill-rule:nonzero;"/>
    <path d="M344.944,295.044C344.944,289.038 346.344,284.245 349.143,280.664C351.649,277.425 354.685,275.805 358.249,275.805C361.813,275.805 364.849,277.425 367.355,280.664C370.154,284.245 371.554,289.119 371.554,295.288C371.554,301.44 370.154,306.307 367.355,309.887C364.849,313.126 361.821,314.746 358.273,314.746C354.725,314.746 351.682,313.126 349.143,309.887C346.344,306.307 344.944,301.359 344.944,295.044ZM350.535,295.068C350.535,299.251 351.259,302.726 352.707,305.493C354.156,308.211 356.003,309.57 358.249,309.57C360.479,309.57 362.326,308.211 363.791,305.493C365.255,302.791 365.988,299.381 365.988,295.263C365.988,291.146 365.255,287.728 363.791,285.009C362.326,282.308 360.479,280.957 358.249,280.957C356.036,280.957 354.196,282.308 352.732,285.009C351.267,287.695 350.535,291.048 350.535,295.068Z" style="fill:white;fill-rule:nonzero;"/>
    <path d="M375.802,295.044C375.802,289.038 377.201,284.245 380.001,280.664C382.507,277.425 385.542,275.805 389.107,275.805C392.671,275.805 395.706,277.425 398.213,280.664C401.012,284.245 402.412,289.119 402.412,295.288C402.412,301.44 401.012,306.307 398.213,309.887C395.706,313.126 392.679,314.746 389.131,314.746C385.583,314.746 382.54,313.126 380.001,309.887C377.201,306.307 375.802,301.359 375.802,295.044ZM381.392,295.068C381.392,299.251 382.117,302.726 383.565,305.493C385.014,308.211 386.861,309.57 389.107,309.57C391.336,309.57 393.184,308.211 394.648,305.493C396.113,302.791 396.846,299.381 396.846,295.263C396.846,291.146 396.113,287.728 394.648,285.009C393.184,282.308 391.336,280.957 389.107,280.957C386.893,280.957 385.054,282.308 383.589,285.009C382.125,287.695 381.392,291.048 381.392,295.068Z" style="fill:white;fill-rule:nonzero;"/>
</svg>
