<?xml version="1.0" encoding="UTF-8" standalone="no"?>
<!DOCTYPE svg PUBLIC "-//W3C//DTD SVG 1.1//EN" "http://www.w3.org/Graphics/SVG/1.1/DTD/svg11.dtd">
<svg width="100%" height="100%" viewBox="0 0 591 591" version="1.1" xmlns="http://www.w3.org/2000/svg" xmlns:xlink="http://www.w3.org/1999/xlink" xml:space="preserve" xmlns:serif="http://www.serif.com/" style="fill-rule:evenodd;clip-rule:evenodd;stroke-linejoin:round;stroke-miterlimit:2;">
    <rect id="cor3" x="0.254" y="-0" width="590.551" height="590.551" style="fill:white;"/>
    <path d="M234.339,287.109L234.339,291.406L228.407,291.406L227.528,298.413L232.948,298.413L232.948,302.71L226.991,302.71L225.551,314.38L221.254,313.818L222.646,302.71L215.395,302.71L213.93,314.38L209.585,313.818L210.976,302.612L205.41,302.612L205.41,298.413L211.587,298.413L212.465,291.406L206.826,291.406L206.826,287.109L213.003,287.109L214.345,276.172L218.617,276.733L217.324,287.109L224.525,287.109L225.892,276.172L230.165,276.733L228.871,287.109L234.339,287.109ZM223.988,291.406L216.811,291.406L215.932,298.413L223.158,298.413L223.988,291.406Z" style="fill-rule:nonzero;"/>
    <path d="M258.581,281.86L245.447,281.86L245.447,290.918L258.117,290.918L258.117,296.264L245.447,296.264L245.447,314.209L239.759,314.209L239.759,276.513L258.581,276.513L258.581,281.86Z" style="fill-rule:nonzero;"/>
    <path d="M283.995,281.86L270.861,281.86L270.861,290.918L283.531,290.918L283.531,296.264L270.861,296.264L270.861,314.209L265.173,314.209L265.173,276.513L283.995,276.513L283.995,281.86Z" style="fill-rule:nonzero;"/>
    <path d="M309.409,281.86L296.275,281.86L296.275,290.918L308.945,290.918L308.945,296.264L296.275,296.264L296.275,314.209L290.586,314.209L290.586,276.513L309.409,276.513L309.409,281.86Z" style="fill-rule:nonzero;"/>
    <path d="M334.822,281.86L321.688,281.86L321.688,290.918L334.359,290.918L334.359,296.264L321.688,296.264L321.688,314.209L316,314.209L316,276.513L334.822,276.513L334.822,281.86Z" style="fill-rule:nonzero;"/>
    <path d="M360.236,281.86L347.102,281.86L347.102,290.918L359.772,290.918L359.772,296.264L347.102,296.264L347.102,314.209L341.414,314.209L341.414,276.513L360.236,276.513L360.236,281.86Z" style="fill-rule:nonzero;"/>
    <path d="M385.65,281.86L372.516,281.86L372.516,290.918L385.186,290.918L385.186,296.264L372.516,296.264L372.516,314.209L366.828,314.209L366.828,276.513L385.65,276.513L385.65,281.86Z" style="fill-rule:nonzero;"/>
</svg>
