<?xml version="1.0" encoding="UTF-8" standalone="no"?>
<!DOCTYPE svg PUBLIC "-//W3C//DTD SVG 1.1//EN" "http://www.w3.org/Graphics/SVG/1.1/DTD/svg11.dtd">
<svg width="100%" height="100%" viewBox="0 0 591 591" version="1.1" xmlns="http://www.w3.org/2000/svg" xmlns:xlink="http://www.w3.org/1999/xlink" xml:space="preserve" xmlns:serif="http://www.serif.com/" style="fill-rule:evenodd;clip-rule:evenodd;stroke-linejoin:round;stroke-miterlimit:2;">
    <rect id="cor2" x="-0" y="0" width="590.551" height="590.551" style="fill:white;"/>
    <path d="M229.68,288.781C230.282,288.781 230.722,288.956 230.998,289.306C231.275,289.656 231.34,290.132 231.193,290.735L230.534,293.225C230.29,294.25 229.696,294.763 228.752,294.763L226.482,294.763L225.701,298.767L227.751,298.767C228.321,298.767 228.74,298.942 229.009,299.292C229.277,299.642 229.338,300.118 229.192,300.72L228.581,303.235C228.337,304.26 227.743,304.773 226.799,304.773L224.48,304.773L223.748,308.484C223.503,309.509 222.901,310.022 221.941,310.022L218.889,310.022C218.304,310.022 217.876,309.847 217.608,309.497C217.339,309.147 217.27,308.671 217.4,308.069L218.035,304.773L215.301,304.773L214.544,308.484C214.3,309.509 213.698,310.022 212.737,310.022L209.686,310.022C209.1,310.022 208.673,309.847 208.404,309.497C208.136,309.147 208.066,308.671 208.197,308.069L208.831,304.773L206.537,304.773C205.967,304.773 205.548,304.598 205.279,304.248C205.011,303.898 204.95,303.422 205.096,302.82L205.731,300.329C205.975,299.288 206.561,298.767 207.489,298.767L210.101,298.767L210.882,294.763L208.538,294.763C207.936,294.763 207.509,294.592 207.257,294.25C207.004,293.908 206.952,293.436 207.098,292.834L207.684,290.32C207.928,289.294 208.53,288.781 209.491,288.781L212.152,288.781L212.884,285.071C213.079,284.045 213.681,283.532 214.69,283.532L217.693,283.532C218.279,283.532 218.706,283.707 218.975,284.057C219.243,284.407 219.313,284.883 219.182,285.486L218.548,288.781L221.331,288.781L222.088,285.071C222.283,284.045 222.885,283.532 223.894,283.532L226.897,283.532C227.483,283.532 227.91,283.707 228.179,284.057C228.447,284.407 228.516,284.883 228.386,285.486L227.751,288.781L229.68,288.781ZM219.28,298.767L220.086,294.763L217.303,294.763L216.497,298.767L219.28,298.767Z" style="fill-rule:nonzero;"/>
    <path d="M257.462,277.527C257.982,277.527 258.385,277.685 258.67,278.003C258.955,278.32 259.089,278.764 259.073,279.333L258.78,283.825C258.682,284.965 258.113,285.534 257.071,285.534L246.818,285.534L246.818,292.126L256.119,292.126C257.258,292.126 257.828,292.712 257.828,293.884L257.828,297.863C257.828,299.035 257.258,299.621 256.119,299.621L246.818,299.621L246.818,311.267C246.818,312.439 246.256,313.025 245.133,313.025L239.274,313.025C238.167,313.025 237.614,312.439 237.614,311.267L237.614,279.284C237.614,278.113 238.167,277.527 239.274,277.527L257.462,277.527Z" style="fill-rule:nonzero;"/>
    <path d="M282.753,277.527C283.274,277.527 283.677,277.685 283.962,278.003C284.247,278.32 284.381,278.764 284.365,279.333L284.072,283.825C283.974,284.965 283.404,285.534 282.363,285.534L272.109,285.534L272.109,292.126L281.411,292.126C282.55,292.126 283.12,292.712 283.12,293.884L283.12,297.863C283.12,299.035 282.55,299.621 281.411,299.621L272.109,299.621L272.109,311.267C272.109,312.439 271.548,313.025 270.425,313.025L264.566,313.025C263.459,313.025 262.906,312.439 262.906,311.267L262.906,279.284C262.906,278.113 263.459,277.527 264.566,277.527L282.753,277.527Z" style="fill-rule:nonzero;"/>
    <path d="M308.045,277.527C308.566,277.527 308.969,277.685 309.253,278.003C309.538,278.32 309.672,278.764 309.656,279.333L309.363,283.825C309.266,284.965 308.696,285.534 307.654,285.534L297.401,285.534L297.401,292.126L306.702,292.126C307.842,292.126 308.411,292.712 308.411,293.884L308.411,297.863C308.411,299.035 307.842,299.621 306.702,299.621L297.401,299.621L297.401,311.267C297.401,312.439 296.84,313.025 295.717,313.025L289.857,313.025C288.751,313.025 288.197,312.439 288.197,311.267L288.197,279.284C288.197,278.113 288.751,277.527 289.857,277.527L308.045,277.527Z" style="fill-rule:nonzero;"/>
    <path d="M333.337,277.527C333.857,277.527 334.26,277.685 334.545,278.003C334.83,278.32 334.964,278.764 334.948,279.333L334.655,283.825C334.557,284.965 333.988,285.534 332.946,285.534L322.693,285.534L322.693,292.126L331.994,292.126C333.133,292.126 333.703,292.712 333.703,293.884L333.703,297.863C333.703,299.035 333.133,299.621 331.994,299.621L322.693,299.621L322.693,311.267C322.693,312.439 322.131,313.025 321.008,313.025L315.149,313.025C314.042,313.025 313.489,312.439 313.489,311.267L313.489,279.284C313.489,278.113 314.042,277.527 315.149,277.527L333.337,277.527Z" style="fill-rule:nonzero;"/>
    <path d="M358.628,277.527C359.149,277.527 359.552,277.685 359.837,278.003C360.122,278.32 360.256,278.764 360.24,279.333L359.947,283.825C359.849,284.965 359.279,285.534 358.238,285.534L347.984,285.534L347.984,292.126L357.286,292.126C358.425,292.126 358.994,292.712 358.994,293.884L358.994,297.863C358.994,299.035 358.425,299.621 357.286,299.621L347.984,299.621L347.984,311.267C347.984,312.439 347.423,313.025 346.3,313.025L340.441,313.025C339.334,313.025 338.781,312.439 338.781,311.267L338.781,279.284C338.781,278.113 339.334,277.527 340.441,277.527L358.628,277.527Z" style="fill-rule:nonzero;"/>
    <path d="M383.92,277.527C384.441,277.527 384.844,277.685 385.128,278.003C385.413,278.32 385.547,278.764 385.531,279.333L385.238,283.825C385.141,284.965 384.571,285.534 383.529,285.534L373.276,285.534L373.276,292.126L382.577,292.126C383.717,292.126 384.286,292.712 384.286,293.884L384.286,297.863C384.286,299.035 383.717,299.621 382.577,299.621L373.276,299.621L373.276,311.267C373.276,312.439 372.714,313.025 371.591,313.025L365.732,313.025C364.626,313.025 364.072,312.439 364.072,311.267L364.072,279.284C364.072,278.113 364.626,277.527 365.732,277.527L383.92,277.527Z" style="fill-rule:nonzero;"/>
</svg>
