<?xml version="1.0" encoding="UTF-8" standalone="no"?>
<!DOCTYPE svg PUBLIC "-//W3C//DTD SVG 1.1//EN" "http://www.w3.org/Graphics/SVG/1.1/DTD/svg11.dtd">
<svg width="100%" height="100%" viewBox="0 0 592 591" version="1.1" xmlns="http://www.w3.org/2000/svg" xmlns:xlink="http://www.w3.org/1999/xlink" xml:space="preserve" xmlns:serif="http://www.serif.com/" style="fill-rule:evenodd;clip-rule:evenodd;stroke-linejoin:round;stroke-miterlimit:2;">
    <rect id="cor2" x="0.481" y="0" width="590.551" height="590.551" style="fill:rgb(105,152,205);"/>
    <path d="M213.706,287.036L213.706,291.333L207.773,291.333L206.894,298.34L212.314,298.34L212.314,302.636L206.357,302.636L204.917,314.306L200.62,313.745L202.012,302.636L194.761,302.636L193.297,314.306L188.951,313.745L190.343,302.539L184.776,302.539L184.776,298.34L190.953,298.34L191.832,291.333L186.192,291.333L186.192,287.036L192.369,287.036L193.712,276.098L197.984,276.66L196.69,287.036L203.892,287.036L205.259,276.098L209.531,276.66L208.237,287.036L213.706,287.036ZM203.355,291.333L196.177,291.333L195.298,298.34L202.525,298.34L203.355,291.333Z" style="fill:white;fill-rule:nonzero;"/>
    <path d="M234.237,275.122L238.411,278.247L229.403,290.503C229.891,290.438 230.306,290.389 230.648,290.356C230.99,290.324 231.258,290.307 231.454,290.307C234.513,290.307 237.158,291.479 239.388,293.823C241.601,296.134 242.708,298.917 242.708,302.173C242.708,305.623 241.471,308.585 238.997,311.059C236.54,313.517 233.586,314.746 230.135,314.746C226.718,314.746 223.723,313.533 221.152,311.108C218.629,308.683 217.368,305.81 217.368,302.49C217.368,299.511 218.596,296.354 221.054,293.017L234.237,275.122ZM237.166,302.539C237.166,300.537 236.475,298.844 235.091,297.461C233.692,296.061 232.007,295.361 230.038,295.361C228.052,295.361 226.368,296.053 224.984,297.436C223.601,298.82 222.909,300.496 222.909,302.466C222.909,304.435 223.601,306.111 224.984,307.495C226.368,308.878 228.06,309.57 230.062,309.57C232.015,309.57 233.683,308.878 235.067,307.495C236.467,306.095 237.166,304.443 237.166,302.539Z" style="fill:white;fill-rule:nonzero;"/>
    <path d="M256.697,315.429L252.522,312.329L261.53,300.049C261.042,300.114 260.627,300.162 260.285,300.195C259.943,300.228 259.667,300.244 259.455,300.244C256.412,300.244 253.775,299.08 251.545,296.753C249.332,294.441 248.225,291.658 248.225,288.403C248.225,284.936 249.454,281.974 251.912,279.516C254.386,277.042 257.348,275.805 260.798,275.805C264.232,275.805 267.219,277.026 269.757,279.467C272.296,281.893 273.566,284.757 273.566,288.061C273.566,290.991 272.329,294.157 269.855,297.558L256.697,315.429ZM253.767,287.988C253.767,290.022 254.459,291.731 255.842,293.115C257.242,294.515 258.926,295.215 260.896,295.215C262.865,295.215 264.541,294.523 265.925,293.139C267.324,291.74 268.024,290.055 268.024,288.086C268.024,286.116 267.324,284.432 265.925,283.032C264.541,281.648 262.857,280.957 260.871,280.957C258.918,280.957 257.25,281.648 255.867,283.032C254.467,284.432 253.767,286.084 253.767,287.988Z" style="fill:white;fill-rule:nonzero;"/>
    <path d="M287.554,315.429L283.38,312.329L292.388,300.049C291.9,300.114 291.485,300.162 291.143,300.195C290.801,300.228 290.525,300.244 290.313,300.244C287.27,300.244 284.633,299.08 282.403,296.753C280.19,294.441 279.083,291.658 279.083,288.403C279.083,284.936 280.312,281.974 282.769,279.516C285.243,277.042 288.205,275.805 291.656,275.805C295.09,275.805 298.076,277.026 300.615,279.467C303.154,281.893 304.424,284.757 304.424,288.061C304.424,290.991 303.187,294.157 300.713,297.558L287.554,315.429ZM284.625,287.988C284.625,290.022 285.317,291.731 286.7,293.115C288.1,294.515 289.784,295.215 291.753,295.215C293.723,295.215 295.399,294.523 296.782,293.139C298.182,291.74 298.882,290.055 298.882,288.086C298.882,286.116 298.182,284.432 296.782,283.032C295.399,281.648 293.715,280.957 291.729,280.957C289.776,280.957 288.108,281.648 286.724,283.032C285.325,284.432 284.625,286.084 284.625,287.988Z" style="fill:white;fill-rule:nonzero;"/>
    <path d="M315.873,294.531C313.106,292.578 311.723,289.917 311.723,286.548C311.723,283.488 312.773,280.932 314.872,278.882C316.988,276.831 319.617,275.805 322.758,275.805C325.882,275.805 328.486,276.831 330.57,278.882C332.653,280.916 333.695,283.48 333.695,286.572C333.695,289.811 332.319,292.456 329.569,294.507C331.082,295.32 332.27,296.509 333.133,298.071C334.012,299.634 334.451,301.391 334.451,303.344C334.451,306.681 333.361,309.415 331.18,311.548C328.999,313.68 326.208,314.746 322.806,314.746C319.324,314.746 316.451,313.672 314.189,311.523C311.91,309.375 310.771,306.673 310.771,303.418C310.771,299.186 312.472,296.224 315.873,294.531ZM317.069,286.523C317.069,288.134 317.615,289.485 318.705,290.576C319.812,291.683 321.146,292.236 322.709,292.236C324.255,292.236 325.581,291.683 326.688,290.576C327.795,289.469 328.348,288.143 328.348,286.596C328.348,285.05 327.795,283.724 326.688,282.617C325.581,281.51 324.255,280.957 322.709,280.957C321.163,280.957 319.836,281.51 318.73,282.617C317.623,283.724 317.069,285.026 317.069,286.523ZM316.361,303.222C316.361,304.964 316.964,306.461 318.168,307.715C319.389,308.952 320.87,309.57 322.611,309.57C324.336,309.57 325.809,308.96 327.03,307.739C328.25,306.502 328.861,305.021 328.861,303.296C328.861,301.554 328.25,300.073 327.03,298.852C325.809,297.632 324.336,297.021 322.611,297.021C320.902,297.021 319.429,297.632 318.192,298.852C316.972,300.073 316.361,301.53 316.361,303.222Z" style="fill:white;fill-rule:nonzero;"/>
    <path d="M370.411,278.467L370.411,285.205C367.124,282.454 363.722,281.079 360.207,281.079C356.333,281.079 353.07,282.47 350.417,285.254C347.748,288.021 346.414,291.406 346.414,295.41C346.414,299.365 347.748,302.702 350.417,305.42C353.086,308.138 356.358,309.497 360.231,309.497C362.233,309.497 363.934,309.171 365.334,308.52C366.115,308.195 366.924,307.755 367.763,307.202C368.601,306.648 369.484,305.981 370.411,305.2L370.411,312.06C367.156,313.899 363.739,314.819 360.158,314.819C354.771,314.819 350.173,312.939 346.365,309.179C342.573,305.387 340.677,300.814 340.677,295.459C340.677,290.657 342.263,286.377 345.437,282.617C349.343,278.011 354.397,275.708 360.597,275.708C363.983,275.708 367.254,276.627 370.411,278.467Z" style="fill:white;fill-rule:nonzero;"/>
    <path d="M377.589,314.135L377.589,276.44L385.499,276.44C389.291,276.44 392.285,276.814 394.482,277.563C396.842,278.296 398.983,279.541 400.903,281.299C404.793,284.847 406.738,289.51 406.738,295.288C406.738,301.082 404.711,305.77 400.659,309.35C398.624,311.141 396.492,312.386 394.263,313.086C392.179,313.786 389.226,314.135 385.401,314.135L377.589,314.135ZM383.277,308.789L385.84,308.789C388.395,308.789 390.519,308.52 392.212,307.983C393.905,307.413 395.435,306.51 396.802,305.273C399.601,302.718 401.001,299.389 401.001,295.288C401.001,291.154 399.617,287.801 396.85,285.229C394.36,282.934 390.69,281.787 385.84,281.787L383.277,281.787L383.277,308.789Z" style="fill:white;fill-rule:nonzero;"/>
</svg>
