<?xml version="1.0" encoding="UTF-8" standalone="no"?>
<!DOCTYPE svg PUBLIC "-//W3C//DTD SVG 1.1//EN" "http://www.w3.org/Graphics/SVG/1.1/DTD/svg11.dtd">
<svg width="100%" height="100%" viewBox="0 0 591 591" version="1.1" xmlns="http://www.w3.org/2000/svg" xmlns:xlink="http://www.w3.org/1999/xlink" xml:space="preserve" xmlns:serif="http://www.serif.com/" style="fill-rule:evenodd;clip-rule:evenodd;stroke-linejoin:round;stroke-miterlimit:2;">
    <rect id="cor4" x="0.027" y="0" width="590.551" height="590.551" style="fill:rgb(242,179,177);"/>
    <path d="M226.569,287.048L226.569,291.345L220.636,291.345L219.758,298.352L225.177,298.352L225.177,302.649L219.22,302.649L217.78,314.319L213.483,313.757L214.875,302.649L207.624,302.649L206.16,314.319L201.814,313.757L203.206,302.551L197.64,302.551L197.64,298.352L203.816,298.352L204.695,291.345L199.055,291.345L199.055,287.048L205.232,287.048L206.575,276.111L210.847,276.672L209.553,287.048L216.755,287.048L218.122,276.111L222.394,276.672L221.1,287.048L226.569,287.048ZM216.218,291.345L209.04,291.345L208.161,298.352L215.388,298.352L216.218,291.345Z" style="fill:rgb(230,104,100);fill-rule:nonzero;"/>
    <path d="M250.811,281.799L237.677,281.799L237.677,290.857L250.347,290.857L250.347,296.203L237.677,296.203L237.677,314.148L231.988,314.148L231.988,276.452L250.811,276.452L250.811,281.799Z" style="fill:rgb(230,104,100);fill-rule:nonzero;"/>
    <path d="M265.409,308.801L279.447,308.801L279.447,314.148L254.131,314.148L267.216,298.303C268.502,296.724 269.58,295.357 270.451,294.201C271.321,293.046 271.985,292.077 272.44,291.296C273.368,289.766 273.832,288.391 273.832,287.17C273.832,285.412 273.213,283.939 271.976,282.751C270.74,281.563 269.21,280.969 267.387,280.969C263.578,280.969 261.398,283.223 260.844,287.732L255.18,287.732C256.092,279.789 260.104,275.818 267.216,275.818C270.65,275.818 273.531,276.908 275.858,279.089C278.202,281.27 279.374,283.972 279.374,287.195C279.374,289.245 278.828,291.255 277.738,293.225C277.185,294.25 276.375,295.467 275.309,296.875C274.243,298.283 272.896,299.947 271.269,301.867L265.409,308.801Z" style="fill:rgb(230,104,100);fill-rule:nonzero;"/>
    <path d="M288.26,314.148L288.26,276.452L293.924,276.452C296.446,276.452 298.456,276.648 299.954,277.038C301.467,277.429 302.745,278.088 303.786,279.016C304.844,279.976 305.682,281.172 306.301,282.605C306.936,284.053 307.253,285.518 307.253,286.999C307.253,289.701 306.22,291.988 304.153,293.86C306.154,294.543 307.733,295.739 308.889,297.448C310.06,299.141 310.646,301.111 310.646,303.357C310.646,306.303 309.605,308.793 307.522,310.827C306.268,312.081 304.861,312.951 303.298,313.44C301.589,313.912 299.449,314.148 296.878,314.148L288.26,314.148ZM293.948,292.639L295.73,292.639C297.846,292.639 299.396,292.171 300.381,291.235C301.365,290.299 301.858,288.92 301.858,287.097C301.858,285.323 301.353,283.976 300.344,283.056C299.335,282.137 297.87,281.677 295.95,281.677L293.948,281.677L293.948,292.639ZM293.948,308.801L297.463,308.801C300.035,308.801 301.923,308.296 303.127,307.287C304.397,306.197 305.031,304.813 305.031,303.137C305.031,301.509 304.421,300.142 303.2,299.035C302.012,297.945 299.888,297.4 296.829,297.4L293.948,297.4L293.948,308.801Z" style="fill:rgb(230,104,100);fill-rule:nonzero;"/>
    <path d="M326.246,296.643L326.246,291.784C328.655,291.784 330.274,291.516 331.104,290.979C332.585,290.035 333.326,288.521 333.326,286.438C333.326,284.826 332.789,283.516 331.715,282.507C330.657,281.482 329.281,280.969 327.589,280.969C326.01,280.969 324.79,281.351 323.927,282.116C323.097,282.898 322.478,284.216 322.072,286.071L316.408,286.071C316.994,282.523 318.198,279.923 320.021,278.271C321.844,276.619 324.391,275.793 327.662,275.793C330.966,275.793 333.66,276.77 335.743,278.723C337.826,280.66 338.868,283.158 338.868,286.218C338.868,289.668 337.5,292.354 334.766,294.275C337.891,296.114 339.453,299.1 339.453,303.235C339.453,306.62 338.314,309.387 336.036,311.535C333.757,313.684 330.836,314.758 327.271,314.758C322.731,314.758 319.362,313.09 317.165,309.753C316.253,308.353 315.675,306.417 315.431,303.943L320.924,303.943C321.217,305.765 321.929,307.161 323.06,308.13C324.191,309.098 325.668,309.582 327.491,309.582C329.33,309.582 330.852,308.972 332.056,307.751C333.261,306.498 333.863,304.911 333.863,302.99C333.863,300.451 332.96,298.645 331.153,297.571C330.095,296.952 328.46,296.643 326.246,296.643Z" style="fill:rgb(230,104,100);fill-rule:nonzero;"/>
    <path d="M348.682,314.148L348.682,276.452L354.345,276.452C356.868,276.452 358.878,276.648 360.375,277.038C361.889,277.429 363.166,278.088 364.208,279.016C365.266,279.976 366.104,281.172 366.723,282.605C367.357,284.053 367.675,285.518 367.675,286.999C367.675,289.701 366.641,291.988 364.574,293.86C366.576,294.543 368.155,295.739 369.31,297.448C370.482,299.141 371.068,301.111 371.068,303.357C371.068,306.303 370.026,308.793 367.943,310.827C366.69,312.081 365.282,312.951 363.72,313.44C362.011,313.912 359.871,314.148 357.299,314.148L348.682,314.148ZM354.37,292.639L356.152,292.639C358.268,292.639 359.818,292.171 360.802,291.235C361.787,290.299 362.279,288.92 362.279,287.097C362.279,285.323 361.775,283.976 360.766,283.056C359.757,282.137 358.292,281.677 356.372,281.677L354.37,281.677L354.37,292.639ZM354.37,308.801L357.885,308.801C360.457,308.801 362.345,308.296 363.549,307.287C364.818,306.197 365.453,304.813 365.453,303.137C365.453,301.509 364.843,300.142 363.622,299.035C362.434,297.945 360.31,297.4 357.25,297.4L354.37,297.4L354.37,308.801Z" style="fill:rgb(230,104,100);fill-rule:nonzero;"/>
    <path d="M387.278,281.775L380.76,281.775L383.885,276.452L392.966,276.452L392.966,314.148L387.278,314.148L387.278,281.775Z" style="fill:rgb(230,104,100);fill-rule:nonzero;"/>
</svg>
