<?xml version="1.0" encoding="UTF-8" standalone="no"?>
<!DOCTYPE svg PUBLIC "-//W3C//DTD SVG 1.1//EN" "http://www.w3.org/Graphics/SVG/1.1/DTD/svg11.dtd">
<svg width="100%" height="100%" viewBox="0 0 592 591" version="1.1" xmlns="http://www.w3.org/2000/svg" xmlns:xlink="http://www.w3.org/1999/xlink" xml:space="preserve" xmlns:serif="http://www.serif.com/" style="fill-rule:evenodd;clip-rule:evenodd;stroke-linejoin:round;stroke-miterlimit:2;">
    <rect id="cor5" x="0.8" y="0" width="590.551" height="590.551" style="fill:rgb(196,179,175);"/>
    <path d="M216.746,288.086L216.746,292.383L210.814,292.383L209.935,299.389L215.355,299.389L215.355,303.686L209.398,303.686L207.958,315.356L203.661,314.795L205.053,303.686L197.802,303.686L196.337,315.356L191.992,314.795L193.383,303.589L187.817,303.589L187.817,299.389L193.994,299.389L194.873,292.383L189.233,292.383L189.233,288.086L195.41,288.086L196.752,277.148L201.025,277.71L199.731,288.086L206.933,288.086L208.3,277.148L212.572,277.71L211.278,288.086L216.746,288.086ZM206.395,292.383L199.218,292.383L198.339,299.389L205.565,299.389L206.395,292.383Z" style="fill:rgb(137,103,95);fill-rule:nonzero;"/>
    <path d="M250.021,279.516L250.021,286.255C246.734,283.504 243.332,282.129 239.817,282.129C235.943,282.129 232.68,283.52 230.027,286.303C227.358,289.07 226.023,292.456 226.023,296.46C226.023,300.415 227.358,303.751 230.027,306.469C232.696,309.188 235.967,310.547 239.841,310.547C241.843,310.547 243.544,310.221 244.943,309.57C245.724,309.245 246.534,308.805 247.372,308.252C248.211,307.698 249.093,307.031 250.021,306.25L250.021,313.11C246.766,314.949 243.348,315.869 239.768,315.869C234.381,315.869 229.783,313.989 225.975,310.229C222.182,306.437 220.286,301.863 220.286,296.509C220.286,291.707 221.873,287.426 225.047,283.667C228.953,279.061 234.006,276.758 240.207,276.758C243.592,276.758 246.864,277.677 250.021,279.516Z" style="fill:rgb(137,103,95);fill-rule:nonzero;"/>
    <path d="M277.339,304.663L281.343,304.663L281.343,309.839L277.339,309.839L277.339,315.185L271.651,315.185L271.651,309.839L253.146,309.839L277.339,274.682L277.339,304.663ZM271.651,304.663L271.651,292.041L262.96,304.663L271.651,304.663Z" style="fill:rgb(137,103,95);fill-rule:nonzero;"/>
    <path d="M288.056,315.185L288.056,277.49L293.72,277.49C296.243,277.49 298.253,277.685 299.75,278.076C301.264,278.467 302.541,279.126 303.583,280.053C304.641,281.014 305.479,282.21 306.097,283.642C306.732,285.091 307.049,286.556 307.049,288.037C307.049,290.739 306.016,293.025 303.949,294.897C305.951,295.581 307.53,296.777 308.685,298.486C309.857,300.179 310.443,302.148 310.443,304.394C310.443,307.34 309.401,309.83 307.318,311.865C306.065,313.118 304.657,313.989 303.095,314.477C301.386,314.949 299.245,315.185 296.674,315.185L288.056,315.185ZM293.744,293.676L295.527,293.676C297.642,293.676 299.193,293.209 300.177,292.273C301.162,291.337 301.654,289.957 301.654,288.134C301.654,286.36 301.15,285.014 300.141,284.094C299.132,283.174 297.667,282.715 295.746,282.715L293.744,282.715L293.744,293.676ZM293.744,309.839L297.26,309.839C299.831,309.839 301.719,309.334 302.924,308.325C304.193,307.234 304.828,305.851 304.828,304.175C304.828,302.547 304.218,301.18 302.997,300.073C301.809,298.982 299.685,298.437 296.625,298.437L293.744,298.437L293.744,309.839Z" style="fill:rgb(137,103,95);fill-rule:nonzero;"/>
    <path d="M326.043,297.68L326.043,292.822C328.451,292.822 330.071,292.553 330.901,292.016C332.382,291.072 333.122,289.559 333.122,287.475C333.122,285.864 332.585,284.554 331.511,283.545C330.453,282.519 329.078,282.007 327.385,282.007C325.807,282.007 324.586,282.389 323.723,283.154C322.893,283.935 322.275,285.254 321.868,287.109L316.204,287.109C316.79,283.561 317.994,280.961 319.817,279.309C321.64,277.657 324.187,276.831 327.459,276.831C330.762,276.831 333.456,277.807 335.539,279.76C337.622,281.697 338.664,284.196 338.664,287.256C338.664,290.706 337.297,293.392 334.563,295.312C337.687,297.151 339.25,300.138 339.25,304.272C339.25,307.658 338.111,310.425 335.832,312.573C333.554,314.721 330.632,315.796 327.068,315.796C322.527,315.796 319.158,314.127 316.961,310.791C316.05,309.391 315.472,307.454 315.228,304.98L320.721,304.98C321.014,306.803 321.726,308.199 322.857,309.167C323.988,310.136 325.465,310.62 327.288,310.62C329.127,310.62 330.648,310.009 331.853,308.789C333.057,307.536 333.659,305.949 333.659,304.028C333.659,301.489 332.756,299.682 330.95,298.608C329.892,297.99 328.256,297.68 326.043,297.68Z" style="fill:rgb(137,103,95);fill-rule:nonzero;"/>
    <path d="M370.62,306.03L354.483,306.03L350.284,315.185L344.157,315.185L362.808,275.122L380.8,315.185L374.575,315.185L370.62,306.03ZM368.301,300.683L362.711,287.866L356.852,300.683L368.301,300.683Z" style="fill:rgb(137,103,95);fill-rule:nonzero;"/>
    <path d="M404.334,282.837L391.2,282.837L391.2,291.894L403.871,291.894L403.871,297.241L391.2,297.241L391.2,315.185L385.512,315.185L385.512,277.49L404.334,277.49L404.334,282.837Z" style="fill:rgb(137,103,95);fill-rule:nonzero;"/>
</svg>
