<?xml version="1.0" encoding="UTF-8" standalone="no"?>
<!DOCTYPE svg PUBLIC "-//W3C//DTD SVG 1.1//EN" "http://www.w3.org/Graphics/SVG/1.1/DTD/svg11.dtd">
<svg width="100%" height="100%" viewBox="0 0 592 591" version="1.1" xmlns="http://www.w3.org/2000/svg" xmlns:xlink="http://www.w3.org/1999/xlink" xml:space="preserve" xmlns:serif="http://www.serif.com/" style="fill-rule:evenodd;clip-rule:evenodd;stroke-linejoin:round;stroke-miterlimit:2;">
    <rect id="cor6" x="0.573" y="-0" width="590.551" height="590.551" style="fill:rgb(171,211,183);"/>
    <path d="M212.857,287.561L212.857,291.858L206.925,291.858L206.046,298.864L211.466,298.864L211.466,303.161L205.509,303.161L204.069,314.831L199.772,314.27L201.164,303.161L193.913,303.161L192.448,314.831L188.103,314.27L189.494,303.064L183.928,303.064L183.928,298.864L190.105,298.864L190.984,291.858L185.344,291.858L185.344,287.561L191.521,287.561L192.863,276.623L197.136,277.185L195.842,287.561L203.044,287.561L204.411,276.623L208.683,277.185L207.389,287.561L212.857,287.561ZM202.506,291.858L195.329,291.858L194.45,298.864L201.676,298.864L202.506,291.858Z" style="fill:rgb(88,167,111);fill-rule:nonzero;"/>
    <path d="M240.42,305.505L224.283,305.505L220.084,314.66L213.956,314.66L232.607,274.597L250.6,314.66L244.374,314.66L240.42,305.505ZM238.1,300.158L232.51,287.341L226.651,300.158L238.1,300.158Z" style="fill:rgb(88,167,111);fill-rule:nonzero;"/>
    <path d="M255.311,314.66L255.311,276.965L260.975,276.965C263.498,276.965 265.508,277.16 267.005,277.551C268.519,277.942 269.796,278.601 270.838,279.529C271.896,280.489 272.734,281.685 273.352,283.117C273.987,284.566 274.304,286.031 274.304,287.512C274.304,290.214 273.271,292.501 271.204,294.372C273.206,295.056 274.785,296.252 275.94,297.961C277.112,299.654 277.698,301.623 277.698,303.869C277.698,306.815 276.656,309.306 274.573,311.34C273.32,312.593 271.912,313.464 270.35,313.952C268.641,314.424 266.501,314.66 263.929,314.66L255.311,314.66ZM261,293.152L262.782,293.152C264.897,293.152 266.448,292.684 267.432,291.748C268.417,290.812 268.909,289.432 268.909,287.61C268.909,285.835 268.405,284.489 267.396,283.569C266.387,282.649 264.922,282.19 263.001,282.19L261,282.19L261,293.152ZM261,309.314L264.515,309.314C267.086,309.314 268.974,308.809 270.179,307.8C271.448,306.71 272.083,305.326 272.083,303.65C272.083,302.022 271.473,300.655 270.252,299.548C269.064,298.458 266.94,297.912 263.88,297.912L261,297.912L261,309.314Z" style="fill:rgb(88,167,111);fill-rule:nonzero;"/>
    <path d="M284.875,314.66L284.875,276.965L292.785,276.965C296.577,276.965 299.572,277.339 301.769,278.088C304.129,278.821 306.269,280.066 308.189,281.823C312.079,285.372 314.024,290.035 314.024,295.813C314.024,301.607 311.998,306.294 307.945,309.875C305.911,311.666 303.779,312.911 301.549,313.611C299.466,314.31 296.512,314.66 292.687,314.66L284.875,314.66ZM290.563,309.314L293.127,309.314C295.682,309.314 297.806,309.045 299.499,308.508C301.191,307.938 302.721,307.035 304.088,305.798C306.887,303.243 308.287,299.914 308.287,295.813C308.287,291.679 306.904,288.326 304.137,285.754C301.647,283.459 297.977,282.312 293.127,282.312L290.563,282.312L290.563,309.314Z" style="fill:rgb(88,167,111);fill-rule:nonzero;"/>
    <path d="M329.599,297.155L329.599,292.297C332.008,292.297 333.628,292.029 334.458,291.491C335.939,290.547 336.679,289.034 336.679,286.95C336.679,285.339 336.142,284.029 335.068,283.02C334.01,281.994 332.635,281.482 330.942,281.482C329.363,281.482 328.143,281.864 327.28,282.629C326.45,283.41 325.832,284.729 325.425,286.584L319.761,286.584C320.347,283.036 321.551,280.436 323.374,278.784C325.197,277.132 327.744,276.306 331.015,276.306C334.319,276.306 337.013,277.282 339.096,279.236C341.179,281.172 342.221,283.671 342.221,286.731C342.221,290.181 340.854,292.867 338.12,294.787C341.244,296.627 342.807,299.613 342.807,303.747C342.807,307.133 341.668,309.9 339.389,312.048C337.11,314.196 334.189,315.271 330.625,315.271C326.084,315.271 322.715,313.602 320.518,310.266C319.607,308.866 319.029,306.929 318.785,304.455L324.277,304.455C324.57,306.278 325.282,307.674 326.414,308.642C327.545,309.611 329.022,310.095 330.845,310.095C332.684,310.095 334.205,309.485 335.41,308.264C336.614,307.011 337.216,305.424 337.216,303.503C337.216,300.964 336.313,299.157 334.506,298.083C333.449,297.465 331.813,297.155 329.599,297.155Z" style="fill:rgb(88,167,111);fill-rule:nonzero;"/>
    <path d="M352.035,314.66L352.035,276.965L357.699,276.965C360.221,276.965 362.231,277.16 363.729,277.551C365.242,277.942 366.52,278.601 367.561,279.529C368.619,280.489 369.457,281.685 370.076,283.117C370.711,284.566 371.028,286.031 371.028,287.512C371.028,290.214 369.995,292.501 367.928,294.372C369.929,295.056 371.508,296.252 372.664,297.961C373.835,299.654 374.421,301.623 374.421,303.869C374.421,306.815 373.38,309.306 371.297,311.34C370.043,312.593 368.636,313.464 367.073,313.952C365.364,314.424 363.224,314.66 360.653,314.66L352.035,314.66ZM357.723,293.152L359.505,293.152C361.621,293.152 363.171,292.684 364.156,291.748C365.14,290.812 365.633,289.432 365.633,287.61C365.633,285.835 365.128,284.489 364.119,283.569C363.11,282.649 361.645,282.19 359.725,282.19L357.723,282.19L357.723,293.152ZM357.723,309.314L361.238,309.314C363.81,309.314 365.698,308.809 366.902,307.8C368.172,306.71 368.806,305.326 368.806,303.65C368.806,302.022 368.196,300.655 366.975,299.548C365.787,298.458 363.663,297.912 360.604,297.912L357.723,297.912L357.723,309.314Z" style="fill:rgb(88,167,111);fill-rule:nonzero;"/>
    <path d="M398.273,282.287L379.67,282.287L379.67,276.965L407.769,276.965L383.991,315.954L379.475,313.098L398.273,282.287Z" style="fill:rgb(88,167,111);fill-rule:nonzero;"/>
</svg>
