<?xml version="1.0" encoding="UTF-8" standalone="no"?>
<!DOCTYPE svg PUBLIC "-//W3C//DTD SVG 1.1//EN" "http://www.w3.org/Graphics/SVG/1.1/DTD/svg11.dtd">
<svg width="100%" height="100%" viewBox="0 0 591 591" version="1.1" xmlns="http://www.w3.org/2000/svg" xmlns:xlink="http://www.w3.org/1999/xlink" xml:space="preserve" xmlns:serif="http://www.serif.com/" style="fill-rule:evenodd;clip-rule:evenodd;stroke-linejoin:round;stroke-miterlimit:2;">
    <rect id="cor7" x="0.346" y="-0" width="590.551" height="590.551" style="fill:rgb(245,209,128);"/>
    <path d="M220.003,287.036L220.003,291.333L214.071,291.333L213.192,298.34L218.612,298.34L218.612,302.636L212.655,302.636L211.215,314.306L206.918,313.745L208.309,302.636L201.059,302.636L199.594,314.306L195.249,313.745L196.64,302.539L191.074,302.539L191.074,298.34L197.25,298.34L198.129,291.333L192.49,291.333L192.49,287.036L198.666,287.036L200.009,276.098L204.281,276.66L202.987,287.036L210.189,287.036L211.556,276.098L215.829,276.66L214.535,287.036L220.003,287.036ZM209.652,291.333L202.475,291.333L201.596,298.34L208.822,298.34L209.652,291.333Z" style="fill:rgb(236,164,2);fill-rule:nonzero;"/>
    <path d="M244.245,281.787L231.111,281.787L231.111,290.844L243.781,290.844L243.781,296.191L231.111,296.191L231.111,314.135L225.423,314.135L225.423,276.44L244.245,276.44L244.245,281.787Z" style="fill:rgb(236,164,2);fill-rule:nonzero;"/>
    <path d="M272.613,281.762L260.992,281.762L259.137,288.012C259.414,287.98 259.678,287.955 259.93,287.939C260.183,287.923 260.415,287.915 260.626,287.915C264.288,287.915 267.291,289.152 269.634,291.626C271.994,294.083 273.174,297.233 273.174,301.074C273.174,305.045 271.84,308.317 269.171,310.888C266.501,313.46 263.141,314.746 259.088,314.746C254.092,314.746 250.153,312.402 247.272,307.715L251.569,304.077C252.757,306.095 253.953,307.519 255.158,308.349C256.362,309.163 257.835,309.57 259.576,309.57C261.855,309.57 263.767,308.772 265.313,307.177C266.859,305.534 267.633,303.54 267.633,301.196C267.633,298.787 266.868,296.818 265.338,295.288C263.808,293.709 261.896,292.92 259.601,292.92C257.046,292.92 254.84,294.035 252.985,296.264L251.105,296.264L257.037,276.44L272.613,276.44L272.613,281.762Z" style="fill:rgb(236,164,2);fill-rule:nonzero;"/>
    <path d="M281.694,314.135L281.694,276.44L289.604,276.44C293.396,276.44 296.391,276.814 298.588,277.563C300.948,278.296 303.088,279.541 305.009,281.299C308.898,284.847 310.843,289.51 310.843,295.288C310.843,301.082 308.817,305.77 304.764,309.35C302.73,311.141 300.598,312.386 298.368,313.086C296.285,313.786 293.331,314.135 289.506,314.135L281.694,314.135ZM287.383,308.789L289.946,308.789C292.501,308.789 294.625,308.52 296.318,307.983C298.01,307.413 299.54,306.51 300.907,305.273C303.707,302.718 305.106,299.389 305.106,295.288C305.106,291.154 303.723,287.801 300.956,285.229C298.466,282.934 294.796,281.787 289.946,281.787L287.383,281.787L287.383,308.789Z" style="fill:rgb(236,164,2);fill-rule:nonzero;"/>
    <path d="M327.029,281.762L320.511,281.762L323.636,276.44L332.717,276.44L332.717,314.135L327.029,314.135L327.029,281.762Z" style="fill:rgb(236,164,2);fill-rule:nonzero;"/>
    <path d="M349.269,294.531C346.502,292.578 345.119,289.917 345.119,286.548C345.119,283.488 346.168,280.932 348.268,278.882C350.384,276.831 353.012,275.805 356.153,275.805C359.278,275.805 361.882,276.831 363.965,278.882C366.048,280.916 367.09,283.48 367.09,286.572C367.09,289.811 365.715,292.456 362.964,294.507C364.478,295.32 365.666,296.509 366.529,298.071C367.407,299.634 367.847,301.391 367.847,303.344C367.847,306.681 366.756,309.415 364.576,311.548C362.395,313.68 359.604,314.746 356.202,314.746C352.719,314.746 349.847,313.672 347.584,311.523C345.306,309.375 344.166,306.673 344.166,303.418C344.166,299.186 345.867,296.224 349.269,294.531ZM350.465,286.523C350.465,288.134 351.01,289.485 352.101,290.576C353.207,291.683 354.542,292.236 356.104,292.236C357.65,292.236 358.977,291.683 360.084,290.576C361.19,289.469 361.744,288.143 361.744,286.596C361.744,285.05 361.19,283.724 360.084,282.617C358.977,281.51 357.65,280.957 356.104,280.957C354.558,280.957 353.232,281.51 352.125,282.617C351.018,283.724 350.465,285.026 350.465,286.523ZM349.757,303.222C349.757,304.964 350.359,306.461 351.564,307.715C352.784,308.952 354.265,309.57 356.007,309.57C357.732,309.57 359.205,308.96 360.425,307.739C361.646,306.502 362.256,305.021 362.256,303.296C362.256,301.554 361.646,300.073 360.425,298.852C359.205,297.632 357.732,297.021 356.007,297.021C354.298,297.021 352.825,297.632 351.588,298.852C350.367,300.073 349.757,301.53 349.757,303.222Z" style="fill:rgb(236,164,2);fill-rule:nonzero;"/>
    <path d="M373.559,295.044C373.559,289.038 374.959,284.245 377.758,280.664C380.265,277.425 383.3,275.805 386.864,275.805C390.429,275.805 393.464,277.425 395.97,280.664C398.77,284.245 400.169,289.119 400.169,295.288C400.169,301.44 398.77,306.307 395.97,309.887C393.464,313.126 390.437,314.746 386.889,314.746C383.341,314.746 380.297,313.126 377.758,309.887C374.959,306.307 373.559,301.359 373.559,295.044ZM379.15,295.068C379.15,299.251 379.874,302.726 381.323,305.493C382.771,308.211 384.618,309.57 386.864,309.57C389.094,309.57 390.941,308.211 392.406,305.493C393.871,302.791 394.603,299.381 394.603,295.263C394.603,291.146 393.871,287.728 392.406,285.009C390.941,282.308 389.094,280.957 386.864,280.957C384.651,280.957 382.812,282.308 381.347,285.009C379.882,287.695 379.15,291.048 379.15,295.068Z" style="fill:rgb(236,164,2);fill-rule:nonzero;"/>
</svg>
