<?xml version="1.0" encoding="UTF-8" standalone="no"?>
<!DOCTYPE svg PUBLIC "-//W3C//DTD SVG 1.1//EN" "http://www.w3.org/Graphics/SVG/1.1/DTD/svg11.dtd">
<svg width="100%" height="100%" viewBox="0 0 591 591" version="1.1" xmlns="http://www.w3.org/2000/svg" xmlns:xlink="http://www.w3.org/1999/xlink" xml:space="preserve" xmlns:serif="http://www.serif.com/" style="fill-rule:evenodd;clip-rule:evenodd;stroke-linejoin:round;stroke-miterlimit:2;">
    <rect id="cor8" x="0.119" y="0" width="590.551" height="590.551" style="fill:rgb(202,180,230);"/>
    <path d="M214.527,288.086L214.527,292.383L208.595,292.383L207.716,299.389L213.136,299.389L213.136,303.686L207.179,303.686L205.739,315.356L201.442,314.795L202.834,303.686L195.583,303.686L194.118,315.356L189.773,314.795L191.164,303.589L185.598,303.589L185.598,299.389L191.775,299.389L192.653,292.383L187.014,292.383L187.014,288.086L193.19,288.086L194.533,277.148L198.805,277.71L197.512,288.086L204.713,288.086L206.08,277.148L210.353,277.71L209.059,288.086L214.527,288.086ZM204.176,292.383L196.999,292.383L196.12,299.389L203.346,299.389L204.176,292.383Z" style="fill:rgb(150,105,205);fill-rule:nonzero;"/>
    <path d="M247.802,279.516L247.802,286.255C244.514,283.504 241.113,282.129 237.597,282.129C233.724,282.129 230.461,283.52 227.808,286.303C225.139,289.07 223.804,292.456 223.804,296.46C223.804,300.415 225.139,303.751 227.808,306.469C230.477,309.188 233.748,310.547 237.622,310.547C239.624,310.547 241.324,310.221 242.724,309.57C243.505,309.245 244.315,308.805 245.153,308.252C245.991,307.698 246.874,307.031 247.802,306.25L247.802,313.11C244.547,314.949 241.129,315.869 237.549,315.869C232.161,315.869 227.564,313.989 223.755,310.229C219.963,306.437 218.067,301.863 218.067,296.509C218.067,291.707 219.654,287.426 222.828,283.667C226.734,279.061 231.787,276.758 237.988,276.758C241.373,276.758 244.644,277.677 247.802,279.516Z" style="fill:rgb(150,105,205);fill-rule:nonzero;"/>
    <path d="M278.025,306.03L261.888,306.03L257.689,315.185L251.562,315.185L270.213,275.122L288.205,315.185L281.98,315.185L278.025,306.03ZM275.706,300.683L270.115,287.866L264.256,300.683L275.706,300.683Z" style="fill:rgb(150,105,205);fill-rule:nonzero;"/>
    <path d="M292.917,315.185L292.917,277.49L298.581,277.49C301.103,277.49 303.113,277.685 304.611,278.076C306.124,278.467 307.402,279.126 308.443,280.053C309.501,281.014 310.339,282.21 310.958,283.642C311.593,285.091 311.91,286.556 311.91,288.037C311.91,290.739 310.876,293.025 308.81,294.897C310.811,295.581 312.39,296.777 313.546,298.486C314.717,300.179 315.303,302.148 315.303,304.394C315.303,307.34 314.262,309.83 312.178,311.865C310.925,313.118 309.517,313.989 307.955,314.477C306.246,314.949 304.106,315.185 301.535,315.185L292.917,315.185ZM298.605,293.676L300.387,293.676C302.503,293.676 304.053,293.209 305.038,292.273C306.022,291.337 306.515,289.957 306.515,288.134C306.515,286.36 306.01,285.014 305.001,284.094C303.992,283.174 302.527,282.715 300.607,282.715L298.605,282.715L298.605,293.676ZM298.605,309.839L302.12,309.839C304.692,309.839 306.58,309.334 307.784,308.325C309.054,307.234 309.688,305.851 309.688,304.175C309.688,302.547 309.078,301.18 307.857,300.073C306.669,298.982 304.545,298.437 301.486,298.437L298.605,298.437L298.605,309.839Z" style="fill:rgb(150,105,205);fill-rule:nonzero;"/>
    <path d="M342.621,304.663L346.625,304.663L346.625,309.839L342.621,309.839L342.621,315.185L336.933,315.185L336.933,309.839L318.428,309.839L342.621,274.682L342.621,304.663ZM336.933,304.663L336.933,292.041L328.242,304.663L336.933,304.663Z" style="fill:rgb(150,105,205);fill-rule:nonzero;"/>
    <path d="M374.138,282.837L359.027,282.837L359.027,291.894L373.699,291.894L373.699,297.241L359.027,297.241L359.027,309.839L374.138,309.839L374.138,315.185L353.338,315.185L353.338,277.49L374.138,277.49L374.138,282.837Z" style="fill:rgb(150,105,205);fill-rule:nonzero;"/>
    <path d="M396.72,276.172L400.895,279.297L391.886,291.552C392.375,291.487 392.79,291.439 393.131,291.406C393.473,291.373 393.742,291.357 393.937,291.357C396.997,291.357 399.641,292.529 401.871,294.873C404.085,297.184 405.191,299.967 405.191,303.222C405.191,306.673 403.954,309.635 401.48,312.109C399.023,314.567 396.069,315.796 392.619,315.796C389.201,315.796 386.206,314.583 383.635,312.158C381.112,309.733 379.851,306.86 379.851,303.54C379.851,300.561 381.08,297.404 383.537,294.067L396.72,276.172ZM399.65,303.589C399.65,301.587 398.958,299.894 397.574,298.51C396.175,297.111 394.49,296.411 392.521,296.411C390.535,296.411 388.851,297.103 387.468,298.486C386.084,299.87 385.392,301.546 385.392,303.515C385.392,305.485 386.084,307.161 387.468,308.545C388.851,309.928 390.544,310.62 392.545,310.62C394.498,310.62 396.167,309.928 397.55,308.545C398.95,307.145 399.65,305.493 399.65,303.589Z" style="fill:rgb(150,105,205);fill-rule:nonzero;"/>
</svg>
