<?xml version="1.0" encoding="UTF-8" standalone="no"?>
<!DOCTYPE svg PUBLIC "-//W3C//DTD SVG 1.1//EN" "http://www.w3.org/Graphics/SVG/1.1/DTD/svg11.dtd">
<svg width="100%" height="100%" viewBox="0 0 592 591" version="1.1" xmlns="http://www.w3.org/2000/svg" xmlns:xlink="http://www.w3.org/1999/xlink" xml:space="preserve" xmlns:serif="http://www.serif.com/" style="fill-rule:evenodd;clip-rule:evenodd;stroke-linejoin:round;stroke-miterlimit:2;">
    <rect id="cor9" x="0.892" y="0" width="590.551" height="590.551" style="fill:rgb(248,248,248);"/>
    <path d="M227.568,287.036L227.568,291.333L221.635,291.333L220.756,298.34L226.176,298.34L226.176,302.636L220.219,302.636L218.779,314.306L214.482,313.745L215.874,302.636L208.623,302.636L207.159,314.306L202.813,313.745L204.205,302.539L198.638,302.539L198.638,298.34L204.815,298.34L205.694,291.333L200.054,291.333L200.054,287.036L206.231,287.036L207.574,276.098L211.846,276.66L210.552,287.036L217.754,287.036L219.121,276.098L223.393,276.66L222.099,287.036L227.568,287.036ZM217.217,291.333L210.039,291.333L209.16,298.34L216.387,298.34L217.217,291.333Z" style="fill-opacity:0.5;fill-rule:nonzero;"/>
    <path d="M251.81,281.787L238.675,281.787L238.675,290.844L251.346,290.844L251.346,296.191L238.675,296.191L238.675,314.135L232.987,314.135L232.987,276.44L251.81,276.44L251.81,281.787Z" style="fill-opacity:0.5;fill-rule:nonzero;"/>
    <path d="M262.576,294.531C259.809,292.578 258.425,289.917 258.425,286.548C258.425,283.488 259.475,280.932 261.575,278.882C263.69,276.831 266.319,275.805 269.46,275.805C272.585,275.805 275.189,276.831 277.272,278.882C279.355,280.916 280.397,283.48 280.397,286.572C280.397,289.811 279.022,292.456 276.271,294.507C277.785,295.32 278.973,296.509 279.835,298.071C280.714,299.634 281.154,301.391 281.154,303.344C281.154,306.681 280.063,309.415 277.882,311.548C275.702,313.68 272.91,314.746 269.509,314.746C266.026,314.746 263.153,313.672 260.891,311.523C258.613,309.375 257.473,306.673 257.473,303.418C257.473,299.186 259.174,296.224 262.576,294.531ZM263.772,286.523C263.772,288.134 264.317,289.485 265.407,290.576C266.514,291.683 267.849,292.236 269.411,292.236C270.957,292.236 272.284,291.683 273.39,290.576C274.497,289.469 275.051,288.143 275.051,286.596C275.051,285.05 274.497,283.724 273.39,282.617C272.284,281.51 270.957,280.957 269.411,280.957C267.865,280.957 266.539,281.51 265.432,282.617C264.325,283.724 263.772,285.026 263.772,286.523ZM263.064,303.222C263.064,304.964 263.666,306.461 264.87,307.715C266.091,308.952 267.572,309.57 269.314,309.57C271.039,309.57 272.512,308.96 273.732,307.739C274.953,306.502 275.563,305.021 275.563,303.296C275.563,301.554 274.953,300.073 273.732,298.852C272.512,297.632 271.039,297.021 269.314,297.021C267.605,297.021 266.132,297.632 264.895,298.852C263.674,300.073 263.064,301.53 263.064,303.222Z" style="fill-opacity:0.5;fill-rule:nonzero;"/>
    <path d="M308.081,281.787L294.947,281.787L294.947,290.844L307.617,290.844L307.617,296.191L294.947,296.191L294.947,314.135L289.259,314.135L289.259,276.44L308.081,276.44L308.081,281.787Z" style="fill-opacity:0.5;fill-rule:nonzero;"/>
    <path d="M318.847,294.531C316.08,292.578 314.697,289.917 314.697,286.548C314.697,283.488 315.747,280.932 317.846,278.882C319.962,276.831 322.59,275.805 325.731,275.805C328.856,275.805 331.46,276.831 333.544,278.882C335.627,280.916 336.668,283.48 336.668,286.572C336.668,289.811 335.293,292.456 332.543,294.507C334.056,295.32 335.244,296.509 336.107,298.071C336.986,299.634 337.425,301.391 337.425,303.344C337.425,306.681 336.335,309.415 334.154,311.548C331.973,313.68 329.182,314.746 325.78,314.746C322.297,314.746 319.425,313.672 317.163,311.523C314.884,309.375 313.745,306.673 313.745,303.418C313.745,299.186 315.446,296.224 318.847,294.531ZM320.043,286.523C320.043,288.134 320.589,289.485 321.679,290.576C322.786,291.683 324.12,292.236 325.683,292.236C327.229,292.236 328.555,291.683 329.662,290.576C330.769,289.469 331.322,288.143 331.322,286.596C331.322,285.05 330.769,283.724 329.662,282.617C328.555,281.51 327.229,280.957 325.683,280.957C324.137,280.957 322.81,281.51 321.703,282.617C320.597,283.724 320.043,285.026 320.043,286.523ZM319.335,303.222C319.335,304.964 319.938,306.461 321.142,307.715C322.363,308.952 323.844,309.57 325.585,309.57C327.31,309.57 328.783,308.96 330.004,307.739C331.224,306.502 331.835,305.021 331.835,303.296C331.835,301.554 331.224,300.073 330.004,298.852C328.783,297.632 327.31,297.021 325.585,297.021C323.876,297.021 322.403,297.632 321.166,298.852C319.946,300.073 319.335,301.53 319.335,303.222Z" style="fill-opacity:0.5;fill-rule:nonzero;"/>
    <path d="M364.353,281.787L351.218,281.787L351.218,290.844L363.889,290.844L363.889,296.191L351.218,296.191L351.218,314.135L345.53,314.135L345.53,276.44L364.353,276.44L364.353,281.787Z" style="fill-opacity:0.5;fill-rule:nonzero;"/>
    <path d="M375.119,294.531C372.352,292.578 370.968,289.917 370.968,286.548C370.968,283.488 372.018,280.932 374.118,278.882C376.233,276.831 378.862,275.805 382.003,275.805C385.128,275.805 387.732,276.831 389.815,278.882C391.898,280.916 392.94,283.48 392.94,286.572C392.94,289.811 391.565,292.456 388.814,294.507C390.328,295.32 391.516,296.509 392.378,298.071C393.257,299.634 393.697,301.391 393.697,303.344C393.697,306.681 392.606,309.415 390.425,311.548C388.245,313.68 385.453,314.746 382.052,314.746C378.569,314.746 375.696,313.672 373.434,311.523C371.156,309.375 370.016,306.673 370.016,303.418C370.016,299.186 371.717,296.224 375.119,294.531ZM376.315,286.523C376.315,288.134 376.86,289.485 377.95,290.576C379.057,291.683 380.392,292.236 381.954,292.236C383.5,292.236 384.827,291.683 385.933,290.576C387.04,289.469 387.594,288.143 387.594,286.596C387.594,285.05 387.04,283.724 385.933,282.617C384.827,281.51 383.5,280.957 381.954,280.957C380.408,280.957 379.082,281.51 377.975,282.617C376.868,283.724 376.315,285.026 376.315,286.523ZM375.607,303.222C375.607,304.964 376.209,306.461 377.413,307.715C378.634,308.952 380.115,309.57 381.857,309.57C383.582,309.57 385.055,308.96 386.275,307.739C387.496,306.502 388.106,305.021 388.106,303.296C388.106,301.554 387.496,300.073 386.275,298.852C385.055,297.632 383.582,297.021 381.857,297.021C380.148,297.021 378.675,297.632 377.438,298.852C376.217,300.073 375.607,301.53 375.607,303.222Z" style="fill-opacity:0.5;fill-rule:nonzero;"/>
</svg>
