<svg id="Camada_1" data-name="Camada 1" xmlns="http://www.w3.org/2000/svg" viewBox="0 0 28.347 28.346">
  <defs>
    <style>
      .cls-1 {
        fill: #fff;
        fill-rule: evenodd;
      }
    </style>
  </defs>
  <title>design</title>
  <path class="cls-1" d="M313.443,410.8l-1.632-.649.109-.7q.275-1.757.544-3.515l.631-4.073.02-.129,10.4-6.776,13.854,4.114,2.786,8.033-2.565,2.62-.021,4.015-9.047,9.564-14.654-6.829-.427-5.677Zm1.18.469.335,4.457,12.931,6.026v-10.3q-.395,2.2-.79,4.4l-.063.353-12.411-4.936Zm11.5,3.4,1.318-7.348-13.312-4.279-1.009,6.5,13,5.124Zm2.312-8.227.1-.088q2.179-1.884,4.366-3.76l3.149-2.72-11.922-3.54v8.726c1.435.461,2.872.917,4.305,1.383Zm.59,14.671,7.4-7.826.013-2.363-.327.333-3.983,4.071-.467.478-.336.344-.152-.456-1.478-4.439-.673-2.022v11.881Zm.517-14.007,2.319,6.914,6.957-7.129-2.081-6-7.2,6.215Zm-6.553-2.414v-8.038l-8.33,5.359,5.878,1.89Z" transform="translate(-311.811 -394.961)"/>
</svg>
