<?xml version="1.0" encoding="UTF-8" standalone="no"?>
<!DOCTYPE svg PUBLIC "-//W3C//DTD SVG 1.1//EN" "http://www.w3.org/Graphics/SVG/1.1/DTD/svg11.dtd">
<svg width="100%" height="100%" viewBox="0 0 4102 2658" version="1.1" xmlns="http://www.w3.org/2000/svg" xmlns:xlink="http://www.w3.org/1999/xlink" xml:space="preserve" xmlns:serif="http://www.serif.com/" style="fill-rule:evenodd;clip-rule:evenodd;stroke-linejoin:round;stroke-miterlimit:2;">
    <g transform="matrix(1,0,0,1,-8433.64,-7883)">
        <g id="EMBALAGEM">
        </g>
        <g id="TEMPLATE">
        </g>
        <g id="ILUSTRAÇÃO">
        </g>
        <g id="LOGO">
        </g>
        <g id="desktop1" transform="matrix(1.13849,0,0,1.04256,8457.55,-81.1005)">
            <rect x="-21" y="7639" width="3603" height="2549" style="fill:rgb(105,152,205);"/>
            <clipPath id="_clip1">
                <rect x="-21" y="7639" width="3603" height="2549"/>
            </clipPath>
            <g clip-path="url(#_clip1)">
                <g id="macbook" transform="matrix(3.46239,0,0,3.78097,-27281.8,-37067.2)">
                    <g>
                        <g id="desktop" transform="matrix(0.426024,0,0,0.426024,7043.7,11724.2)">
                            <path d="M4058.86,3074.79C3999.33,3074.66 3941.8,3074.42 3937.16,3073.97C3937.15,3073.43 3930.3,3067.34 3929.87,3066.97L4187.86,3066.97C4187.43,3067.34 4180.58,3073.43 4180.58,3073.97C4175.93,3074.42 4118.39,3074.66 4058.86,3074.79ZM4058.86,3066.94L3929.85,3066.95L3922.86,3058.97L4194.86,3058.97L4187.88,3066.95L4058.86,3066.94ZM665.546,3074.7C606.016,3074.57 548.477,3074.34 543.836,3073.89C543.831,3073.34 536.978,3067.25 536.551,3066.88L794.542,3066.88C794.113,3067.25 787.259,3073.34 787.255,3073.89C782.613,3074.34 725.076,3074.57 665.546,3074.7ZM334.205,2961.89C334.205,2961.89 534.661,2950.77 585.31,2950.89C574.322,2933.26 568.362,2912.77 568.362,2891.67L568.362,580.462C568.362,550.774 580.156,522.299 601.15,501.308C622.143,480.312 650.617,468.52 680.306,468.52L4044.11,468.52C4073.79,468.52 4102.27,480.312 4123.26,501.308C4144.26,522.299 4156.05,550.774 4156.05,580.462L4156.05,2891.67C4156.05,2912.77 4150.09,2933.26 4139.1,2950.89C4189.75,2950.77 4390.2,2961.89 4390.2,2961.89L4390.2,3002.24C4390.2,3019.86 4382.16,3035.61 4369.55,3046.01C4359.75,3054.08 4347.2,3058.93 4333.51,3058.93L801.501,3058.93L794.563,3066.86L665.546,3066.85L536.53,3066.86L529.592,3058.93L390.898,3058.93C377.213,3058.93 364.66,3054.08 354.865,3046.01C342.248,3035.61 334.205,3019.86 334.205,3002.24L334.205,2961.89ZM2139.38,547.929L698.449,547.929C685.919,547.929 673.902,552.904 665.042,561.766C656.182,570.624 651.205,582.641 651.205,595.17L651.205,2764.9L4073.2,2764.9L4073.2,595.17C4073.2,582.641 4068.23,570.624 4059.37,561.766C4050.51,552.904 4038.49,547.929 4025.96,547.929L2585.03,547.929C2578.99,548.266 2574.2,553.27 2574.2,559.387L2574.2,595.783C2574.2,601.979 2571.75,607.916 2567.36,612.295C2562.98,616.674 2557.05,619.137 2550.85,619.137L2173.56,619.137C2167.36,619.137 2161.43,616.674 2157.05,612.295C2152.66,607.916 2150.2,601.979 2150.2,595.783L2150.2,559.387C2150.2,553.27 2145.42,548.266 2139.38,547.929Z"/>
                        </g>
                        <path d="M7955.13,11957.6C7957.7,11957.7 7959.74,11959.9 7959.74,11962.5L7959.74,11978C7959.74,11980.6 7960.79,11983.1 7962.66,11985C7964.52,11986.9 7967.05,11987.9 7969.69,11987.9L8130.43,11987.9C8133.07,11987.9 8135.6,11986.9 8137.46,11985C8139.33,11983.1 8140.38,11980.6 8140.38,11978L8140.38,11962.5C8140.38,11959.9 8142.42,11957.7 8144.99,11957.6L8758.86,11957.6C8764.2,11957.6 8769.32,11959.7 8773.09,11963.5C8776.86,11967.3 8778.99,11972.4 8778.99,11977.7L8778.99,12902.1L7321.13,12902.1L7321.13,11977.7C7321.13,11972.4 7323.25,11967.3 7327.03,11963.5C7330.8,11959.7 7335.92,11957.6 7341.26,11957.6L7955.13,11957.6Z" style="fill:white;"/>
                    </g>
                </g>
                <g transform="matrix(0.878359,0,0,1.00751,-7428.76,-303.186)">
                    <rect x="9873.41" y="7883" width="456.745" height="323.382" style="fill:none;"/>
                </g>
            </g>
        </g>
    </g>
</svg>
