<?xml version="1.0" encoding="UTF-8" standalone="no"?>
<!DOCTYPE svg PUBLIC "-//W3C//DTD SVG 1.1//EN" "http://www.w3.org/Graphics/SVG/1.1/DTD/svg11.dtd">
<svg width="100%" height="100%" viewBox="0 0 3544 2658" version="1.1" xmlns="http://www.w3.org/2000/svg" xmlns:xlink="http://www.w3.org/1999/xlink" xml:space="preserve" xmlns:serif="http://www.serif.com/" style="fill-rule:evenodd;clip-rule:evenodd;stroke-linejoin:round;stroke-miterlimit:2;">
    <rect id="desktop1" x="0.661" y="0" width="3543.31" height="2657.48" style="fill:rgb(105,152,205);"/>
    <clipPath id="_clip1">
        <rect x="0.661" y="0" width="3543.31" height="2657.48"/>
    </clipPath>
    <g clip-path="url(#_clip1)">
        <g id="macbook">
            <path id="desktop" d="M3063.32,4120.38C2976.96,4120.2 2893.5,4119.86 2886.76,4119.21C2886.76,4118.41 2876.82,4109.59 2876.19,4109.04L3250.44,4109.04C3249.82,4109.59 3239.88,4118.41 3239.88,4119.21C3233.14,4119.86 3149.67,4120.2 3063.32,4120.38ZM3063.32,4109L2876.16,4109.01L2866.03,4097.43L3260.6,4097.43L3250.47,4109.01L3063.32,4109ZM-1859.11,4120.26C-1945.46,4120.07 -2028.93,4119.73 -2035.66,4119.08C-2035.67,4118.28 -2045.61,4109.46 -2046.23,4108.91L-1671.98,4108.91C-1672.6,4109.46 -1682.55,4118.28 -1682.55,4119.08C-1689.29,4119.73 -1772.75,4120.07 -1859.11,4120.26ZM-2339.76,3956.62C-2339.76,3956.62 -2048.97,3940.48 -1975.5,3940.65C-1991.44,3915.08 -2000.08,3885.36 -2000.08,3854.74L-2000.08,502.06C-2000.08,458.995 -1982.97,417.689 -1952.52,387.238C-1922.07,356.781 -1880.76,339.675 -1837.69,339.675L3041.91,339.675C3084.97,339.675 3126.28,356.781 3156.73,387.238C3187.19,417.689 3204.29,458.995 3204.29,502.06L3204.29,3854.74C3204.29,3885.36 3195.65,3915.08 3179.71,3940.65C3253.18,3940.48 3543.97,3956.62 3543.97,3956.62L3543.97,4015.14C3543.97,4040.71 3532.3,4063.55 3514,4078.63C3499.79,4090.35 3481.58,4097.38 3461.73,4097.38L-1661.89,4097.38L-1671.95,4108.88L-1859.11,4108.87L-2046.26,4108.88L-2056.32,4097.38L-2257.52,4097.38C-2277.37,4097.38 -2295.58,4090.35 -2309.79,4078.63C-2328.09,4063.55 -2339.76,4040.71 -2339.76,4015.14L-2339.76,3956.62ZM278.877,454.867L-1811.38,454.867C-1829.55,454.867 -1846.98,462.084 -1859.84,474.94C-1872.69,487.79 -1879.91,505.222 -1879.91,523.397L-1879.91,3670.86L3084.12,3670.86L3084.12,523.397C3084.12,505.222 3076.9,487.79 3064.05,474.94C3051.2,462.084 3033.77,454.867 3015.59,454.867L925.335,454.867C916.583,455.356 909.638,462.616 909.638,471.489L909.638,524.285C909.638,533.273 906.072,541.886 899.713,548.239C893.361,554.591 884.748,558.163 875.76,558.163L328.452,558.163C319.464,558.163 310.851,554.591 304.499,548.239C298.14,541.886 294.574,533.273 294.574,524.285L294.574,471.489C294.574,462.616 287.629,455.356 278.877,454.867Z"/>
            <path d="M278.877,454.867C287.629,455.356 294.574,462.616 294.574,471.489L294.574,524.285C294.574,533.273 298.14,541.886 304.499,548.239C310.851,554.591 319.464,558.163 328.452,558.163L875.76,558.163C884.748,558.163 893.361,554.591 899.713,548.239C906.072,541.886 909.638,533.273 909.638,524.285L909.638,471.489C909.638,462.616 916.583,455.356 925.335,454.867L3015.59,454.867C3033.77,454.867 3051.2,462.084 3064.05,474.94C3076.9,487.79 3084.12,505.222 3084.12,523.397L3084.12,3670.86L-1879.91,3670.86L-1879.91,523.397C-1879.91,505.222 -1872.69,487.79 -1859.84,474.94C-1846.98,462.084 -1829.55,454.867 -1811.38,454.867L278.877,454.867Z" style="fill:white;"/>
        </g>
    </g>
</svg>
