<?xml version="1.0" encoding="UTF-8" standalone="no"?>
<!DOCTYPE svg PUBLIC "-//W3C//DTD SVG 1.1//EN" "http://www.w3.org/Graphics/SVG/1.1/DTD/svg11.dtd">
<svg width="100%" height="100%" viewBox="0 0 60 119" version="1.1" xmlns="http://www.w3.org/2000/svg" xmlns:xlink="http://www.w3.org/1999/xlink" xml:space="preserve" xmlns:serif="http://www.serif.com/" style="fill-rule:evenodd;clip-rule:evenodd;stroke-linejoin:round;stroke-miterlimit:2;">
    <g transform="matrix(1,0,0,1,-769,0)">
        <g id="fechar" transform="matrix(1,0,0,2,170.382,0)">
            <rect x="598.785" y="0" width="59.167" height="59.167" style="fill:none;"/>
            <clipPath id="_clip1">
                <rect x="598.785" y="0" width="59.167" height="59.167"/>
            </clipPath>
            <g clip-path="url(#_clip1)">
                <g transform="matrix(1,0,0,0.5,131.615,-1.38516e-17)">
                    <rect x="467.17" y="0" width="59.167" height="59.167" style="fill:none;"/>
                </g>
                <g transform="matrix(1,0,0,0.537091,131.615,-4.38908)">
                    <rect x="467.17" y="63.253" width="59.167" height="55.081" style="fill:none;"/>
                </g>
                <g transform="matrix(4.16667,0,0,2.08333,595.608,-0.899062)">
                    <path d="M7.862,21.312L9.415,19.76L9.835,20.18L8.282,21.732L9.835,23.284L9.415,23.704L7.862,22.152L6.31,23.704L5.89,23.284L7.443,21.732L5.89,20.18L6.31,19.76L7.862,21.312Z" style="fill:rgb(237,28,37);"/>
                </g>
                <g transform="matrix(4.16667,0,0,2.08333,595.608,-30.4824)">
                    <path d="M7.862,21.312L9.415,19.76L9.835,20.18L8.282,21.732L9.835,23.284L9.415,23.704L7.862,22.152L6.31,23.704L5.89,23.284L7.443,21.732L5.89,20.18L6.31,19.76L7.862,21.312Z"/>
                </g>
            </g>
        </g>
    </g>
</svg>
