<?xml version="1.0" encoding="UTF-8" standalone="no"?>
<!DOCTYPE svg PUBLIC "-//W3C//DTD SVG 1.1//EN" "http://www.w3.org/Graphics/SVG/1.1/DTD/svg11.dtd">
<svg width="100%" height="100%" viewBox="0 0 60 119" version="1.1" xmlns="http://www.w3.org/2000/svg" xmlns:xlink="http://www.w3.org/1999/xlink" xml:space="preserve" xmlns:serif="http://www.serif.com/" style="fill-rule:evenodd;clip-rule:evenodd;stroke-linejoin:round;stroke-miterlimit:2;">
    <g transform="matrix(1,0,0,1,-421,0)">
        <g id="fechar" transform="matrix(1,0,0,1.99623,-177.012,0.223333)">
            <rect x="598.785" y="0" width="59.167" height="59.167" style="fill:none;"/>
            <clipPath id="_clip1">
                <rect x="598.785" y="0" width="59.167" height="59.167"/>
            </clipPath>
            <g clip-path="url(#_clip1)">
                <g transform="matrix(1,0,0,0.500945,131.615,-1.38778e-17)">
                    <rect x="467.17" y="0" width="59.167" height="59.167" style="fill:none;"/>
                </g>
                <g transform="matrix(4.16667,0,0,2.08727,539.787,-30.54)">
                    <path d="M20.84,21.732L19.287,23.284L19.708,23.704L21.259,22.152L22.812,23.704L23.232,23.284L21.679,21.732L23.232,20.18L22.812,19.76L21.259,21.312L19.708,19.76L19.287,20.18L20.84,21.732Z"/>
                </g>
                <g transform="matrix(1,0,0,0.538106,131.615,-4.39738)">
                    <rect x="467.17" y="63.253" width="59.167" height="55.081" style="fill:none;"/>
                </g>
                <g transform="matrix(4.16667,0,0,2.08727,539.787,28.6827)">
                    <path d="M20.84,7.558L19.287,9.111L19.708,9.53L21.259,7.978L22.812,9.53L23.232,9.111L21.679,7.558L23.232,6.006L22.812,5.586L21.259,7.139L19.708,5.586L19.287,6.006L20.84,7.558Z" style="fill:rgb(187,189,192);"/>
                </g>
            </g>
        </g>
    </g>
</svg>
