<?xml version="1.0" encoding="UTF-8" standalone="no"?>
<!DOCTYPE svg PUBLIC "-//W3C//DTD SVG 1.1//EN" "http://www.w3.org/Graphics/SVG/1.1/DTD/svg11.dtd">
<svg width="100%" height="100%" viewBox="0 0 61 60" version="1.1" xmlns="http://www.w3.org/2000/svg" xmlns:xlink="http://www.w3.org/1999/xlink" xml:space="preserve" xmlns:serif="http://www.serif.com/" style="fill-rule:evenodd;clip-rule:evenodd;stroke-linejoin:round;stroke-miterlimit:2;">
    <g transform="matrix(1,0,0,1,-354,-59)">
        <g id="fechar2" transform="matrix(1,0,0,1,-243.896,59.39)">
            <rect x="598.785" y="0" width="59.167" height="59.167" style="fill:none;"/>
            <clipPath id="_clip1">
                <rect x="598.785" y="0" width="59.167" height="59.167"/>
            </clipPath>
            <g clip-path="url(#_clip1)">
                <g transform="matrix(1,0,0,1.07418,131.615,-67.9448)">
                    <rect x="467.17" y="63.253" width="59.167" height="55.081" style="fill:none;"/>
                </g>
                <g transform="matrix(4.16667,0,0,4.16667,539.787,-1.90958)">
                    <path d="M20.84,7.558L19.287,9.111L19.708,9.53L21.259,7.978L22.812,9.53L23.232,9.111L21.679,7.558L23.232,6.006L22.812,5.586L21.259,7.139L19.708,5.586L19.287,6.006L20.84,7.558Z" style="fill:rgb(187,189,192);"/>
                </g>
            </g>
        </g>
    </g>
</svg>
