<?xml version="1.0" encoding="UTF-8" standalone="no"?>
<!DOCTYPE svg PUBLIC "-//W3C//DTD SVG 1.1//EN" "http://www.w3.org/Graphics/SVG/1.1/DTD/svg11.dtd">
<svg width="100%" height="100%" viewBox="0 0 60 119" version="1.1" xmlns="http://www.w3.org/2000/svg" xmlns:xlink="http://www.w3.org/1999/xlink" xml:space="preserve" xmlns:serif="http://www.serif.com/" style="fill-rule:evenodd;clip-rule:evenodd;stroke-linejoin:round;stroke-miterlimit:2;">
    <g transform="matrix(1,0,0,1,-331.285,-0.479781)">
        <g id="fechar" transform="matrix(1,0,0,2,-522.215,0.479781)">
            <rect x="853.5" y="0" width="59.167" height="59.167" style="fill:none;"/>
            <g transform="matrix(4.16667,0,0,2.08333,794.558,-30.5102)">
                <rect x="14.173" y="14.645" width="14.173" height="14.173" style="fill:white;"/>
            </g>
            <g transform="matrix(4.16667,0,0,2.08333,794.558,-30.5104)">
                <path d="M20.84,21.732L19.287,23.284L19.708,23.704L21.259,22.152L22.812,23.704L23.232,23.284L21.679,21.732L23.232,20.18L22.812,19.76L21.259,21.312L19.708,19.76L19.287,20.18L20.84,21.732Z"/>
            </g>
            <g transform="matrix(4.16667,0,0,2.08333,794.558,28.6565)">
                <rect x="14.173" y="0.472" width="14.173" height="14.173" style="fill:white;"/>
            </g>
            <g transform="matrix(4.16667,0,0,2.08333,794.558,28.6565)">
                <path d="M20.84,7.558L19.287,9.111L19.708,9.53L21.259,7.978L22.812,9.53L23.232,9.111L21.679,7.558L23.232,6.006L22.812,5.586L21.259,7.139L19.708,5.586L19.287,6.006L20.84,7.558Z" style="fill:rgb(187,189,192);"/>
            </g>
        </g>
    </g>
</svg>
