<?xml version="1.0" encoding="UTF-8" standalone="no"?>
<!DOCTYPE svg PUBLIC "-//W3C//DTD SVG 1.1//EN" "http://www.w3.org/Graphics/SVG/1.1/DTD/svg11.dtd">
<svg width="100%" height="100%" viewBox="0 0 1182 591" version="1.1" xmlns="http://www.w3.org/2000/svg" xmlns:xlink="http://www.w3.org/1999/xlink" xml:space="preserve" xmlns:serif="http://www.serif.com/" style="fill-rule:evenodd;clip-rule:evenodd;stroke-linejoin:round;stroke-miterlimit:2;">
    <rect id="font2" x="0.298" y="0" width="1181.1" height="590.551" style="fill:white;"/>
    <g transform="matrix(0.84585,0,0,0.84585,-2241.93,58.4306)">
        <g transform="matrix(57.8618,0,0,57.8648,2790.09,235.157)">
            <path d="M0.489,-0.28L0.401,-0.531L0.313,-0.28L0.489,-0.28ZM0.541,-0.131L0.261,-0.131L0.216,-0L0.007,-0L0.294,-0.754L0.508,-0.754L0.795,-0L0.586,-0L0.541,-0.131Z" style="fill:rgb(180,203,230);fill-rule:nonzero;"/>
        </g>
        <g transform="matrix(57.8618,0,0,57.8648,2836.49,235.157)">
            <path d="M0.275,-0.152L0.318,-0.152C0.367,-0.152 0.403,-0.158 0.424,-0.171C0.445,-0.184 0.456,-0.204 0.456,-0.232C0.456,-0.26 0.445,-0.28 0.424,-0.293C0.403,-0.306 0.367,-0.312 0.318,-0.312L0.275,-0.312L0.275,-0.152ZM0.275,-0.458L0.311,-0.458C0.372,-0.458 0.403,-0.482 0.403,-0.531C0.403,-0.58 0.372,-0.604 0.311,-0.604L0.275,-0.604L0.275,-0.458ZM0.079,-0.754L0.371,-0.754C0.44,-0.754 0.493,-0.737 0.529,-0.704C0.565,-0.671 0.583,-0.623 0.583,-0.56C0.583,-0.522 0.576,-0.491 0.563,-0.466C0.549,-0.44 0.528,-0.419 0.5,-0.402C0.528,-0.397 0.552,-0.389 0.572,-0.378C0.591,-0.367 0.607,-0.353 0.62,-0.337C0.632,-0.321 0.641,-0.303 0.646,-0.283C0.651,-0.263 0.654,-0.242 0.654,-0.219C0.654,-0.184 0.648,-0.152 0.636,-0.125C0.623,-0.098 0.606,-0.075 0.584,-0.056C0.561,-0.037 0.534,-0.023 0.502,-0.014C0.47,-0.005 0.434,-0 0.394,-0L0.079,-0L0.079,-0.754Z" style="fill:rgb(180,203,230);fill-rule:nonzero;"/>
        </g>
        <g transform="matrix(57.8618,0,0,57.8648,2876.53,235.157)">
            <path d="M0.622,-0.502C0.577,-0.557 0.521,-0.585 0.454,-0.585C0.425,-0.585 0.398,-0.58 0.373,-0.569C0.347,-0.558 0.326,-0.544 0.308,-0.526C0.29,-0.507 0.276,-0.485 0.266,-0.46C0.255,-0.435 0.25,-0.407 0.25,-0.378C0.25,-0.348 0.255,-0.32 0.266,-0.295C0.276,-0.27 0.29,-0.248 0.309,-0.229C0.327,-0.21 0.348,-0.196 0.373,-0.185C0.398,-0.174 0.424,-0.169 0.453,-0.169C0.516,-0.169 0.572,-0.196 0.622,-0.249L0.622,-0.017L0.602,-0.01C0.572,0.001 0.544,0.009 0.518,0.014C0.492,0.019 0.466,0.021 0.441,0.021C0.389,0.021 0.339,0.011 0.292,-0.009C0.244,-0.028 0.202,-0.056 0.166,-0.092C0.129,-0.127 0.1,-0.169 0.078,-0.219C0.056,-0.268 0.045,-0.321 0.045,-0.379C0.045,-0.437 0.056,-0.49 0.078,-0.539C0.099,-0.587 0.128,-0.628 0.165,-0.664C0.201,-0.699 0.243,-0.726 0.291,-0.746C0.339,-0.765 0.389,-0.775 0.442,-0.775C0.472,-0.775 0.501,-0.772 0.531,-0.766C0.56,-0.759 0.59,-0.749 0.622,-0.736L0.622,-0.502Z" style="fill:rgb(180,203,230);fill-rule:nonzero;"/>
        </g>
        <g transform="matrix(57.8618,0,0,57.8648,2915.13,235.157)">
            <path d="M0.275,-0.166L0.32,-0.166C0.354,-0.166 0.384,-0.171 0.411,-0.182C0.438,-0.193 0.46,-0.207 0.479,-0.226C0.497,-0.245 0.511,-0.267 0.521,-0.293C0.53,-0.318 0.535,-0.346 0.535,-0.377C0.535,-0.407 0.53,-0.435 0.52,-0.461C0.51,-0.487 0.496,-0.509 0.478,-0.528C0.459,-0.547 0.437,-0.561 0.41,-0.572C0.383,-0.583 0.353,-0.588 0.32,-0.588L0.275,-0.588L0.275,-0.166ZM0.079,-0.754L0.369,-0.754C0.42,-0.754 0.468,-0.744 0.514,-0.723C0.559,-0.702 0.598,-0.675 0.632,-0.641C0.665,-0.606 0.692,-0.566 0.711,-0.521C0.73,-0.475 0.74,-0.427 0.74,-0.377C0.74,-0.328 0.731,-0.28 0.712,-0.235C0.693,-0.189 0.666,-0.149 0.633,-0.114C0.599,-0.079 0.56,-0.052 0.515,-0.031C0.47,-0.01 0.421,-0 0.369,-0L0.079,-0L0.079,-0.754Z" style="fill:rgb(180,203,230);fill-rule:nonzero;"/>
        </g>
        <g transform="matrix(57.8618,0,0,57.8648,2960.61,235.157)">
            <path d="M0.508,-0.588L0.275,-0.588L0.275,-0.462L0.495,-0.462L0.495,-0.296L0.275,-0.296L0.275,-0.166L0.508,-0.166L0.508,-0L0.079,-0L0.079,-0.754L0.508,-0.754L0.508,-0.588Z" style="fill:rgb(180,203,230);fill-rule:nonzero;"/>
        </g>
        <g transform="matrix(57.8618,0,0,57.8648,2993.59,235.157)">
            <path d="M0.511,-0.588L0.275,-0.588L0.275,-0.462L0.49,-0.462L0.49,-0.296L0.275,-0.296L0.275,-0L0.079,-0L0.079,-0.754L0.511,-0.754L0.511,-0.588Z" style="fill:rgb(180,203,230);fill-rule:nonzero;"/>
        </g>
        <g transform="matrix(57.8618,0,0,57.8648,3025.35,235.157)">
            <path d="M0.446,-0.422L0.835,-0.422C0.835,-0.382 0.833,-0.346 0.83,-0.313C0.827,-0.28 0.82,-0.25 0.81,-0.222C0.796,-0.183 0.777,-0.148 0.753,-0.118C0.729,-0.087 0.701,-0.062 0.669,-0.042C0.636,-0.021 0.601,-0.006 0.562,0.005C0.523,0.016 0.483,0.021 0.44,0.021C0.381,0.021 0.328,0.011 0.28,-0.008C0.231,-0.027 0.19,-0.054 0.155,-0.09C0.12,-0.125 0.093,-0.167 0.074,-0.216C0.055,-0.265 0.045,-0.319 0.045,-0.378C0.045,-0.437 0.054,-0.491 0.074,-0.54C0.093,-0.588 0.12,-0.63 0.155,-0.665C0.19,-0.7 0.232,-0.727 0.281,-0.746C0.33,-0.765 0.385,-0.775 0.446,-0.775C0.525,-0.775 0.594,-0.758 0.653,-0.724C0.712,-0.69 0.759,-0.637 0.794,-0.566L0.608,-0.489C0.591,-0.53 0.568,-0.56 0.541,-0.578C0.513,-0.596 0.481,-0.605 0.446,-0.605C0.417,-0.605 0.39,-0.6 0.366,-0.589C0.342,-0.578 0.322,-0.562 0.305,-0.542C0.288,-0.521 0.274,-0.497 0.265,-0.468C0.255,-0.439 0.25,-0.407 0.25,-0.372C0.25,-0.34 0.254,-0.31 0.263,-0.283C0.271,-0.256 0.283,-0.232 0.3,-0.212C0.317,-0.192 0.337,-0.177 0.362,-0.166C0.387,-0.155 0.415,-0.149 0.448,-0.149C0.467,-0.149 0.486,-0.151 0.504,-0.156C0.522,-0.16 0.538,-0.167 0.553,-0.177C0.567,-0.186 0.579,-0.199 0.588,-0.214C0.597,-0.229 0.604,-0.248 0.607,-0.27L0.446,-0.27L0.446,-0.422Z" style="fill:rgb(180,203,230);fill-rule:nonzero;"/>
        </g>
        <g transform="matrix(57.8618,0,0,57.8648,3076.27,235.157)">
            <path d="M0.275,-0.463L0.558,-0.463L0.558,-0.754L0.754,-0.754L0.754,-0L0.558,-0L0.558,-0.311L0.275,-0.311L0.275,-0L0.079,-0L0.079,-0.754L0.275,-0.754L0.275,-0.463Z" style="fill:rgb(180,203,230);fill-rule:nonzero;"/>
        </g>
        <g transform="matrix(57.8618,0,0,57.8648,3124.47,235.157)">
            <path d="M0.776,-0.754L0.776,-0.185C0.776,-0.163 0.775,-0.143 0.773,-0.124C0.77,-0.105 0.766,-0.089 0.761,-0.076C0.75,-0.048 0.731,-0.022 0.704,0.003C0.657,0.046 0.599,0.067 0.53,0.067C0.449,0.067 0.384,0.03 0.333,-0.044L0.461,-0.175C0.464,-0.152 0.472,-0.134 0.483,-0.121C0.494,-0.108 0.508,-0.101 0.525,-0.101C0.562,-0.101 0.58,-0.13 0.58,-0.188L0.58,-0.754L0.776,-0.754ZM0.275,-0.754L0.275,-0L0.079,-0L0.079,-0.754L0.275,-0.754Z" style="fill:rgb(180,203,230);fill-rule:nonzero;"/>
        </g>
        <g transform="matrix(57.8618,0,0,57.8648,3173.94,235.157)">
            <path d="M0.275,-0.443L0.514,-0.754L0.756,-0.754L0.457,-0.397L0.784,-0L0.53,-0L0.275,-0.327L0.275,-0L0.079,-0L0.079,-0.754L0.275,-0.754L0.275,-0.443Z" style="fill:rgb(180,203,230);fill-rule:nonzero;"/>
        </g>
        <g transform="matrix(57.8618,0,0,57.8648,3219.77,235.157)">
            <path d="M0.275,-0.754L0.275,-0.166L0.51,-0.166L0.51,-0L0.079,-0L0.079,-0.754L0.275,-0.754Z" style="fill:rgb(180,203,230);fill-rule:nonzero;"/>
        </g>
        <g transform="matrix(57.8618,0,0,57.8648,3250.55,235.157)">
            <path d="M0.045,-0L0.173,-0.754L0.367,-0.754L0.518,-0.352L0.668,-0.754L0.862,-0.754L0.99,-0L0.795,-0L0.73,-0.434L0.552,-0L0.474,-0L0.305,-0.434L0.24,-0L0.045,-0Z" style="fill:rgb(180,203,230);fill-rule:nonzero;"/>
        </g>
        <g transform="matrix(57.8618,0,0,57.8648,3310.44,235.157)">
            <path d="M0.079,-0L0.079,-0.754L0.275,-0.754L0.637,-0.293L0.637,-0.754L0.832,-0.754L0.832,-0L0.637,-0L0.275,-0.461L0.275,-0L0.079,-0Z" style="fill:rgb(180,203,230);fill-rule:nonzero;"/>
        </g>
        <g transform="matrix(57.8618,0,0,57.8648,3363.67,235.157)">
            <path d="M0.25,-0.377C0.25,-0.347 0.256,-0.319 0.267,-0.294C0.278,-0.269 0.294,-0.247 0.313,-0.228C0.332,-0.209 0.355,-0.195 0.381,-0.185C0.406,-0.174 0.433,-0.169 0.462,-0.169C0.491,-0.169 0.518,-0.174 0.544,-0.185C0.569,-0.195 0.592,-0.209 0.612,-0.228C0.631,-0.247 0.647,-0.269 0.658,-0.294C0.669,-0.319 0.675,-0.347 0.675,-0.377C0.675,-0.407 0.669,-0.435 0.658,-0.46C0.647,-0.485 0.631,-0.507 0.612,-0.526C0.592,-0.545 0.569,-0.559 0.544,-0.57C0.518,-0.58 0.491,-0.585 0.462,-0.585C0.433,-0.585 0.406,-0.58 0.381,-0.57C0.355,-0.559 0.332,-0.545 0.313,-0.526C0.294,-0.507 0.278,-0.485 0.267,-0.46C0.256,-0.435 0.25,-0.407 0.25,-0.377ZM0.045,-0.377C0.045,-0.433 0.055,-0.485 0.076,-0.534C0.097,-0.582 0.125,-0.624 0.162,-0.66C0.199,-0.696 0.243,-0.724 0.294,-0.745C0.345,-0.765 0.401,-0.775 0.462,-0.775C0.523,-0.775 0.579,-0.765 0.63,-0.745C0.681,-0.724 0.725,-0.696 0.763,-0.66C0.8,-0.624 0.828,-0.582 0.849,-0.534C0.87,-0.485 0.88,-0.433 0.88,-0.377C0.88,-0.321 0.87,-0.269 0.849,-0.221C0.828,-0.172 0.8,-0.13 0.763,-0.094C0.725,-0.058 0.681,-0.03 0.63,-0.01C0.579,0.011 0.523,0.021 0.462,0.021C0.401,0.021 0.345,0.011 0.294,-0.01C0.243,-0.03 0.199,-0.058 0.162,-0.094C0.125,-0.13 0.097,-0.172 0.076,-0.221C0.055,-0.269 0.045,-0.321 0.045,-0.377Z" style="fill:rgb(180,203,230);fill-rule:nonzero;"/>
        </g>
        <g transform="matrix(57.8618,0,0,57.8648,3417.19,235.157)">
            <path d="M0.275,-0.408L0.34,-0.408C0.412,-0.408 0.448,-0.439 0.448,-0.502C0.448,-0.565 0.412,-0.596 0.34,-0.596L0.275,-0.596L0.275,-0.408ZM0.275,-0L0.079,-0L0.079,-0.754L0.391,-0.754C0.476,-0.754 0.541,-0.732 0.586,-0.688C0.631,-0.644 0.653,-0.582 0.653,-0.502C0.653,-0.422 0.631,-0.36 0.586,-0.316C0.541,-0.272 0.476,-0.25 0.391,-0.25L0.275,-0.25L0.275,-0Z" style="fill:rgb(180,203,230);fill-rule:nonzero;"/>
        </g>
        <g transform="matrix(57.8618,0,0,57.8648,3456.42,235.157)">
            <path d="M0.045,-0.377C0.045,-0.433 0.055,-0.485 0.076,-0.534C0.097,-0.582 0.125,-0.624 0.162,-0.66C0.199,-0.696 0.243,-0.724 0.294,-0.745C0.345,-0.765 0.401,-0.775 0.462,-0.775C0.523,-0.775 0.579,-0.765 0.63,-0.745C0.681,-0.724 0.725,-0.696 0.763,-0.66C0.8,-0.624 0.828,-0.582 0.849,-0.534C0.87,-0.485 0.88,-0.433 0.88,-0.377C0.88,-0.325 0.872,-0.277 0.855,-0.232C0.838,-0.187 0.813,-0.148 0.781,-0.113L0.909,0.021L0.729,0.049L0.66,-0.022C0.631,-0.009 0.6,0.002 0.567,0.01C0.534,0.017 0.499,0.021 0.462,0.021C0.401,0.021 0.345,0.011 0.294,-0.01C0.243,-0.03 0.199,-0.058 0.162,-0.094C0.125,-0.13 0.097,-0.172 0.076,-0.221C0.055,-0.269 0.045,-0.321 0.045,-0.377ZM0.25,-0.377C0.25,-0.347 0.256,-0.319 0.267,-0.294C0.278,-0.269 0.294,-0.247 0.313,-0.228C0.332,-0.209 0.355,-0.195 0.381,-0.185C0.406,-0.174 0.433,-0.169 0.462,-0.169C0.479,-0.169 0.497,-0.171 0.514,-0.175L0.402,-0.293L0.587,-0.316L0.639,-0.261C0.663,-0.294 0.675,-0.333 0.675,-0.377C0.675,-0.407 0.669,-0.435 0.658,-0.46C0.647,-0.485 0.631,-0.507 0.612,-0.526C0.592,-0.545 0.569,-0.559 0.544,-0.57C0.518,-0.58 0.491,-0.585 0.462,-0.585C0.433,-0.585 0.406,-0.58 0.381,-0.57C0.355,-0.559 0.332,-0.545 0.313,-0.526C0.294,-0.507 0.278,-0.485 0.267,-0.46C0.256,-0.435 0.25,-0.407 0.25,-0.377Z" style="fill:rgb(180,203,230);fill-rule:nonzero;"/>
        </g>
        <g transform="matrix(57.8618,0,0,57.8648,3509.95,235.157)">
            <path d="M0.275,-0.417L0.312,-0.417C0.351,-0.417 0.38,-0.425 0.401,-0.441C0.422,-0.457 0.432,-0.48 0.432,-0.51C0.432,-0.54 0.422,-0.563 0.401,-0.579C0.38,-0.595 0.351,-0.603 0.312,-0.603L0.275,-0.603L0.275,-0.417ZM0.706,-0L0.462,-0L0.275,-0.29L0.275,-0L0.079,-0L0.079,-0.754L0.384,-0.754C0.426,-0.754 0.463,-0.748 0.494,-0.736C0.525,-0.723 0.551,-0.706 0.572,-0.685C0.592,-0.664 0.607,-0.639 0.618,-0.611C0.628,-0.583 0.633,-0.553 0.633,-0.521C0.633,-0.464 0.619,-0.417 0.592,-0.382C0.564,-0.346 0.523,-0.322 0.469,-0.309L0.706,-0Z" style="fill:rgb(180,203,230);fill-rule:nonzero;"/>
        </g>
        <g transform="matrix(57.8618,0,0,57.8648,3550.97,235.157)">
            <path d="M0.493,-0.561C0.472,-0.578 0.45,-0.591 0.429,-0.6C0.408,-0.608 0.387,-0.612 0.367,-0.612C0.342,-0.612 0.321,-0.606 0.305,-0.594C0.289,-0.582 0.281,-0.566 0.281,-0.547C0.281,-0.534 0.285,-0.523 0.293,-0.514C0.301,-0.505 0.312,-0.498 0.325,-0.492C0.338,-0.485 0.352,-0.48 0.369,-0.475C0.385,-0.47 0.401,-0.465 0.417,-0.46C0.481,-0.439 0.528,-0.41 0.558,-0.375C0.587,-0.339 0.602,-0.292 0.602,-0.235C0.602,-0.196 0.596,-0.161 0.583,-0.13C0.57,-0.099 0.551,-0.072 0.526,-0.05C0.501,-0.027 0.47,-0.01 0.434,0.003C0.397,0.015 0.356,0.021 0.31,0.021C0.215,0.021 0.126,-0.007 0.045,-0.064L0.129,-0.222C0.158,-0.196 0.187,-0.177 0.216,-0.164C0.245,-0.151 0.273,-0.145 0.301,-0.145C0.333,-0.145 0.357,-0.152 0.373,-0.167C0.388,-0.182 0.396,-0.198 0.396,-0.217C0.396,-0.228 0.394,-0.238 0.39,-0.247C0.386,-0.255 0.379,-0.263 0.37,-0.27C0.361,-0.277 0.349,-0.283 0.334,-0.289C0.319,-0.295 0.3,-0.302 0.279,-0.309C0.254,-0.317 0.229,-0.326 0.205,-0.336C0.18,-0.345 0.159,-0.358 0.14,-0.374C0.121,-0.39 0.105,-0.41 0.094,-0.435C0.082,-0.459 0.076,-0.49 0.076,-0.527C0.076,-0.564 0.082,-0.598 0.095,-0.629C0.107,-0.659 0.124,-0.685 0.147,-0.707C0.169,-0.728 0.196,-0.745 0.229,-0.757C0.261,-0.769 0.297,-0.775 0.337,-0.775C0.374,-0.775 0.413,-0.77 0.454,-0.76C0.495,-0.749 0.534,-0.734 0.571,-0.714L0.493,-0.561Z" style="fill:rgb(180,203,230);fill-rule:nonzero;"/>
        </g>
        <g transform="matrix(57.8618,0,0,57.8648,3588.64,235.157)">
            <path d="M0.365,-0.588L0.365,-0L0.169,-0L0.169,-0.588L0.008,-0.588L0.008,-0.754L0.526,-0.754L0.526,-0.588L0.365,-0.588Z" style="fill:rgb(180,203,230);fill-rule:nonzero;"/>
        </g>
        <g transform="matrix(57.8618,0,0,57.8648,3619.54,235.157)">
            <path d="M0.275,-0.754L0.275,-0.344C0.275,-0.322 0.276,-0.3 0.278,-0.277C0.279,-0.254 0.284,-0.233 0.293,-0.214C0.301,-0.195 0.314,-0.18 0.332,-0.169C0.35,-0.157 0.375,-0.151 0.408,-0.151C0.441,-0.151 0.466,-0.157 0.484,-0.169C0.501,-0.18 0.514,-0.195 0.523,-0.214C0.532,-0.233 0.537,-0.254 0.539,-0.277C0.54,-0.3 0.541,-0.322 0.541,-0.344L0.541,-0.754L0.736,-0.754L0.736,-0.317C0.736,-0.2 0.709,-0.114 0.656,-0.06C0.602,-0.006 0.519,0.021 0.408,0.021C0.297,0.021 0.214,-0.006 0.16,-0.06C0.106,-0.114 0.079,-0.2 0.079,-0.317L0.079,-0.754L0.275,-0.754Z" style="fill:rgb(180,203,230);fill-rule:nonzero;"/>
        </g>
        <g transform="matrix(57.8618,0,0,57.8648,3666.69,235.157)">
            <path d="M0.213,-0.754L0.395,-0.295L0.578,-0.754L0.791,-0.754L0.473,-0L0.317,-0L0,-0.754L0.213,-0.754Z" style="fill:rgb(180,203,230);fill-rule:nonzero;"/>
        </g>
        <g transform="matrix(57.8618,0,0,57.8648,3712.46,235.157)">
            <path d="M0.205,-0.754L0.335,-0.267L0.495,-0.754L0.651,-0.754L0.811,-0.267L0.941,-0.754L1.146,-0.754L0.921,-0L0.721,-0L0.573,-0.437L0.425,-0L0.225,-0L0,-0.754L0.205,-0.754Z" style="fill:rgb(180,203,230);fill-rule:nonzero;"/>
        </g>
        <g transform="matrix(57.8618,0,0,57.8648,3778.77,235.157)">
            <path d="M0.295,-0.402L0.06,-0.754L0.302,-0.754L0.404,-0.559L0.53,-0.754L0.772,-0.754L0.523,-0.402L0.804,-0L0.565,-0L0.414,-0.246L0.237,-0L0,-0L0.295,-0.402Z" style="fill:rgb(180,203,230);fill-rule:nonzero;"/>
        </g>
        <g transform="matrix(57.8618,0,0,57.8648,3825.29,235.157)">
            <path d="M0.261,-0.362L-0.014,-0.754L0.22,-0.754L0.36,-0.548L0.499,-0.754L0.733,-0.754L0.457,-0.362L0.457,-0L0.261,-0L0.261,-0.362Z" style="fill:rgb(180,203,230);fill-rule:nonzero;"/>
        </g>
        <g transform="matrix(57.8618,0,0,57.8648,3867.13,235.157)">
            <path d="M0.344,-0.166L0.66,-0.166L0.66,-0L0.015,-0L0.372,-0.588L0.075,-0.588L0.075,-0.754L0.699,-0.754L0.344,-0.166Z" style="fill:rgb(180,203,230);fill-rule:nonzero;"/>
        </g>
        <g transform="matrix(57.8618,0,0,57.8648,2883.36,301.823)">
            <path d="M0.23,-0.258C0.23,-0.241 0.233,-0.226 0.239,-0.212C0.245,-0.197 0.253,-0.185 0.264,-0.174C0.274,-0.163 0.286,-0.155 0.301,-0.149C0.315,-0.143 0.33,-0.14 0.347,-0.14C0.363,-0.14 0.378,-0.143 0.393,-0.149C0.407,-0.155 0.419,-0.163 0.43,-0.174C0.44,-0.185 0.448,-0.197 0.455,-0.211C0.461,-0.225 0.464,-0.24 0.464,-0.256C0.464,-0.272 0.461,-0.287 0.455,-0.302C0.448,-0.316 0.44,-0.328 0.43,-0.339C0.419,-0.35 0.407,-0.358 0.393,-0.364C0.378,-0.37 0.363,-0.373 0.347,-0.373C0.33,-0.373 0.315,-0.37 0.301,-0.364C0.286,-0.358 0.274,-0.35 0.264,-0.339C0.253,-0.328 0.245,-0.316 0.239,-0.303C0.233,-0.289 0.23,-0.274 0.23,-0.258ZM0.458,-0.513L0.64,-0.513L0.64,-0L0.458,-0L0.458,-0.057C0.419,-0.008 0.367,0.016 0.301,0.016C0.264,0.016 0.229,0.009 0.198,-0.005C0.167,-0.018 0.139,-0.037 0.116,-0.062C0.093,-0.087 0.075,-0.116 0.062,-0.149C0.049,-0.182 0.042,-0.219 0.042,-0.258C0.042,-0.295 0.048,-0.329 0.061,-0.363C0.074,-0.396 0.091,-0.424 0.114,-0.449C0.137,-0.474 0.164,-0.493 0.195,-0.508C0.226,-0.522 0.261,-0.529 0.299,-0.529C0.363,-0.529 0.416,-0.507 0.458,-0.462L0.458,-0.513Z" style="fill:rgb(180,203,230);fill-rule:nonzero;"/>
        </g>
        <g transform="matrix(57.8618,0,0,57.8648,2923.92,301.823)">
            <path d="M0.471,-0.255C0.471,-0.271 0.468,-0.286 0.462,-0.301C0.456,-0.315 0.448,-0.327 0.437,-0.338C0.426,-0.349 0.414,-0.357 0.4,-0.364C0.386,-0.37 0.371,-0.373 0.354,-0.373C0.338,-0.373 0.323,-0.37 0.309,-0.364C0.295,-0.358 0.283,-0.35 0.273,-0.339C0.262,-0.328 0.254,-0.316 0.248,-0.302C0.241,-0.287 0.238,-0.272 0.238,-0.256C0.238,-0.24 0.241,-0.225 0.247,-0.211C0.253,-0.197 0.261,-0.185 0.272,-0.175C0.283,-0.164 0.295,-0.156 0.31,-0.15C0.324,-0.143 0.339,-0.14 0.355,-0.14C0.371,-0.14 0.386,-0.143 0.4,-0.149C0.414,-0.155 0.426,-0.163 0.437,-0.174C0.447,-0.185 0.455,-0.197 0.462,-0.211C0.468,-0.225 0.471,-0.24 0.471,-0.255ZM0.243,-0.83L0.243,-0.462C0.286,-0.507 0.339,-0.529 0.403,-0.529C0.441,-0.529 0.476,-0.522 0.508,-0.508C0.539,-0.493 0.566,-0.474 0.589,-0.45C0.611,-0.425 0.628,-0.397 0.641,-0.364C0.654,-0.331 0.66,-0.295 0.66,-0.258C0.66,-0.22 0.654,-0.184 0.641,-0.151C0.627,-0.118 0.609,-0.089 0.586,-0.064C0.563,-0.039 0.535,-0.02 0.504,-0.006C0.472,0.009 0.438,0.016 0.401,0.016C0.334,0.016 0.282,-0.008 0.243,-0.057L0.243,-0L0.062,-0L0.062,-0.83L0.243,-0.83Z" style="fill:rgb(180,203,230);fill-rule:nonzero;"/>
        </g>
        <g transform="matrix(57.8618,0,0,57.8648,2964.48,301.823)">
            <path d="M0.449,-0.347C0.418,-0.368 0.386,-0.379 0.354,-0.379C0.337,-0.379 0.321,-0.376 0.306,-0.37C0.291,-0.364 0.277,-0.356 0.266,-0.345C0.255,-0.334 0.246,-0.321 0.24,-0.306C0.233,-0.291 0.23,-0.274 0.23,-0.255C0.23,-0.237 0.233,-0.221 0.24,-0.206C0.246,-0.191 0.255,-0.178 0.266,-0.167C0.277,-0.156 0.29,-0.147 0.305,-0.141C0.32,-0.135 0.337,-0.132 0.354,-0.132C0.388,-0.132 0.42,-0.144 0.449,-0.167L0.449,-0.013C0.404,0.006 0.362,0.016 0.322,0.016C0.285,0.016 0.249,0.01 0.216,-0.003C0.182,-0.016 0.152,-0.034 0.127,-0.058C0.101,-0.081 0.08,-0.11 0.065,-0.143C0.05,-0.175 0.042,-0.212 0.042,-0.253C0.042,-0.294 0.049,-0.331 0.064,-0.365C0.079,-0.398 0.099,-0.427 0.124,-0.452C0.149,-0.476 0.18,-0.495 0.215,-0.509C0.25,-0.522 0.287,-0.529 0.327,-0.529C0.371,-0.529 0.412,-0.52 0.449,-0.501L0.449,-0.347Z" style="fill:rgb(180,203,230);fill-rule:nonzero;"/>
        </g>
        <g transform="matrix(57.8618,0,0,57.8648,2992.84,301.823)">
            <path d="M0.23,-0.258C0.23,-0.241 0.233,-0.226 0.239,-0.212C0.245,-0.197 0.253,-0.185 0.264,-0.174C0.274,-0.163 0.286,-0.155 0.301,-0.149C0.315,-0.143 0.33,-0.14 0.347,-0.14C0.363,-0.14 0.378,-0.143 0.393,-0.149C0.407,-0.155 0.419,-0.163 0.43,-0.174C0.44,-0.185 0.448,-0.197 0.455,-0.211C0.461,-0.225 0.464,-0.24 0.464,-0.256C0.464,-0.272 0.461,-0.287 0.455,-0.302C0.448,-0.316 0.44,-0.328 0.43,-0.339C0.419,-0.35 0.407,-0.358 0.393,-0.364C0.378,-0.37 0.363,-0.373 0.347,-0.373C0.331,-0.373 0.316,-0.37 0.302,-0.364C0.287,-0.358 0.275,-0.35 0.265,-0.339C0.254,-0.328 0.246,-0.316 0.24,-0.303C0.233,-0.289 0.23,-0.274 0.23,-0.258ZM0.458,-0.83L0.64,-0.83L0.64,-0L0.458,-0L0.458,-0.057C0.419,-0.008 0.367,0.016 0.301,0.016C0.264,0.016 0.229,0.009 0.198,-0.005C0.167,-0.019 0.139,-0.038 0.116,-0.063C0.093,-0.088 0.075,-0.117 0.062,-0.15C0.049,-0.183 0.042,-0.219 0.042,-0.258C0.042,-0.295 0.048,-0.329 0.061,-0.363C0.073,-0.396 0.09,-0.424 0.113,-0.449C0.136,-0.474 0.163,-0.493 0.195,-0.508C0.226,-0.522 0.261,-0.529 0.299,-0.529C0.363,-0.529 0.416,-0.507 0.458,-0.462L0.458,-0.83Z" style="fill:rgb(180,203,230);fill-rule:nonzero;"/>
        </g>
        <g transform="matrix(57.8618,0,0,57.8648,3033.4,301.823)">
            <path d="M0.437,-0.331C0.431,-0.356 0.419,-0.377 0.4,-0.392C0.381,-0.407 0.359,-0.415 0.332,-0.415C0.304,-0.415 0.281,-0.408 0.264,-0.393C0.246,-0.378 0.235,-0.358 0.23,-0.331L0.437,-0.331ZM0.225,-0.226C0.225,-0.148 0.262,-0.109 0.335,-0.109C0.374,-0.109 0.404,-0.125 0.424,-0.157L0.599,-0.157C0.564,-0.04 0.475,0.019 0.334,0.019C0.291,0.019 0.251,0.012 0.215,-0.001C0.179,-0.014 0.148,-0.032 0.123,-0.056C0.097,-0.08 0.077,-0.109 0.063,-0.142C0.049,-0.175 0.042,-0.213 0.042,-0.254C0.042,-0.297 0.049,-0.335 0.062,-0.37C0.075,-0.404 0.094,-0.433 0.119,-0.457C0.144,-0.481 0.173,-0.5 0.209,-0.513C0.244,-0.526 0.283,-0.532 0.327,-0.532C0.37,-0.532 0.409,-0.526 0.444,-0.513C0.479,-0.5 0.508,-0.481 0.532,-0.456C0.556,-0.431 0.574,-0.401 0.587,-0.366C0.6,-0.33 0.606,-0.29 0.606,-0.245L0.606,-0.226L0.225,-0.226Z" style="fill:rgb(180,203,230);fill-rule:nonzero;"/>
        </g>
        <g transform="matrix(57.8618,0,0,57.8648,3070.83,301.823)">
            <path d="M0.258,-0.362L0.258,-0L0.077,-0L0.077,-0.362L0.012,-0.362L0.012,-0.513L0.077,-0.513L0.077,-0.59C0.077,-0.633 0.081,-0.667 0.089,-0.692C0.096,-0.713 0.106,-0.733 0.121,-0.752C0.136,-0.77 0.153,-0.786 0.173,-0.799C0.192,-0.812 0.213,-0.823 0.236,-0.83C0.259,-0.837 0.281,-0.841 0.303,-0.841C0.318,-0.841 0.333,-0.839 0.346,-0.836C0.359,-0.833 0.372,-0.828 0.385,-0.822L0.385,-0.664C0.373,-0.67 0.362,-0.675 0.352,-0.678C0.341,-0.681 0.33,-0.682 0.319,-0.682C0.312,-0.682 0.304,-0.681 0.297,-0.679C0.289,-0.676 0.282,-0.671 0.275,-0.664C0.268,-0.657 0.264,-0.646 0.262,-0.633C0.259,-0.619 0.258,-0.6 0.258,-0.577L0.258,-0.513L0.385,-0.513L0.385,-0.362L0.258,-0.362Z" style="fill:rgb(180,203,230);fill-rule:nonzero;"/>
        </g>
        <g transform="matrix(57.8618,0,0,57.8648,3093.46,301.823)">
            <path d="M0.23,-0.259C0.23,-0.242 0.233,-0.227 0.239,-0.213C0.245,-0.198 0.253,-0.186 0.264,-0.175C0.274,-0.164 0.286,-0.156 0.301,-0.15C0.315,-0.144 0.33,-0.141 0.347,-0.141C0.363,-0.141 0.378,-0.144 0.393,-0.15C0.407,-0.156 0.419,-0.164 0.43,-0.175C0.44,-0.186 0.448,-0.198 0.455,-0.213C0.461,-0.227 0.464,-0.242 0.464,-0.258C0.464,-0.275 0.461,-0.29 0.455,-0.304C0.448,-0.318 0.44,-0.33 0.429,-0.341C0.418,-0.352 0.406,-0.36 0.392,-0.366C0.377,-0.372 0.362,-0.375 0.347,-0.375C0.331,-0.375 0.316,-0.372 0.302,-0.366C0.288,-0.359 0.276,-0.351 0.265,-0.341C0.254,-0.33 0.246,-0.318 0.24,-0.304C0.233,-0.29 0.23,-0.275 0.23,-0.259ZM0.636,-0.513L0.636,-0.035C0.636,-0.006 0.634,0.019 0.631,0.042C0.628,0.065 0.623,0.085 0.617,0.102C0.609,0.124 0.596,0.145 0.58,0.164C0.563,0.183 0.542,0.199 0.518,0.213C0.494,0.227 0.467,0.238 0.437,0.246C0.406,0.254 0.373,0.258 0.338,0.258C0.298,0.258 0.261,0.253 0.228,0.243C0.195,0.233 0.166,0.219 0.141,0.202C0.116,0.184 0.095,0.163 0.079,0.14C0.063,0.116 0.052,0.09 0.047,0.062L0.251,0.062C0.264,0.096 0.292,0.113 0.337,0.113C0.375,0.113 0.404,0.102 0.425,0.081C0.445,0.06 0.455,0.03 0.455,-0.008L0.455,-0.057C0.442,-0.044 0.429,-0.034 0.417,-0.026C0.404,-0.017 0.392,-0.01 0.379,-0.005C0.366,0 0.353,0.004 0.339,0.007C0.325,0.009 0.31,0.01 0.293,0.01C0.256,0.01 0.223,0.004 0.192,-0.009C0.161,-0.022 0.135,-0.039 0.113,-0.062C0.09,-0.085 0.073,-0.112 0.061,-0.144C0.048,-0.175 0.042,-0.21 0.042,-0.249C0.042,-0.288 0.049,-0.325 0.062,-0.359C0.075,-0.392 0.094,-0.422 0.117,-0.447C0.139,-0.471 0.167,-0.491 0.199,-0.506C0.23,-0.52 0.265,-0.527 0.302,-0.527C0.363,-0.527 0.414,-0.504 0.455,-0.459L0.455,-0.513L0.636,-0.513Z" style="fill:rgb(180,203,230);fill-rule:nonzero;"/>
        </g>
        <g transform="matrix(57.8618,0,0,57.8648,3133.79,301.823)">
            <path d="M0.062,-0.83L0.243,-0.83L0.243,-0.448C0.268,-0.478 0.293,-0.498 0.318,-0.509C0.343,-0.519 0.373,-0.524 0.407,-0.524C0.472,-0.524 0.521,-0.506 0.554,-0.471C0.587,-0.435 0.603,-0.387 0.603,-0.326L0.603,-0L0.422,-0L0.422,-0.259C0.422,-0.285 0.42,-0.306 0.416,-0.322C0.412,-0.338 0.405,-0.35 0.396,-0.359C0.38,-0.373 0.361,-0.38 0.338,-0.38C0.307,-0.38 0.284,-0.371 0.268,-0.353C0.251,-0.334 0.243,-0.308 0.243,-0.274L0.243,-0L0.062,-0L0.062,-0.83Z" style="fill:rgb(180,203,230);fill-rule:nonzero;"/>
        </g>
        <g transform="matrix(57.8618,0,0,57.8648,3172.21,301.823)">
            <path d="M0.243,-0.513L0.243,-0L0.062,-0L0.062,-0.513L0.243,-0.513ZM0.05,-0.71C0.05,-0.724 0.053,-0.737 0.058,-0.75C0.063,-0.762 0.071,-0.773 0.08,-0.782C0.089,-0.791 0.1,-0.799 0.113,-0.804C0.125,-0.809 0.138,-0.812 0.152,-0.812C0.166,-0.812 0.179,-0.809 0.192,-0.804C0.204,-0.799 0.215,-0.791 0.224,-0.782C0.233,-0.773 0.241,-0.762 0.246,-0.75C0.251,-0.737 0.254,-0.724 0.254,-0.71C0.254,-0.696 0.251,-0.683 0.246,-0.671C0.241,-0.658 0.233,-0.647 0.224,-0.638C0.215,-0.629 0.204,-0.621 0.192,-0.616C0.179,-0.611 0.166,-0.608 0.152,-0.608C0.138,-0.608 0.125,-0.611 0.113,-0.616C0.1,-0.621 0.089,-0.629 0.08,-0.638C0.071,-0.647 0.063,-0.658 0.058,-0.671C0.053,-0.683 0.05,-0.696 0.05,-0.71ZM0.566,-0.513L0.566,0.256L0.385,0.256L0.385,-0.513L0.566,-0.513ZM0.373,-0.71C0.373,-0.724 0.376,-0.737 0.381,-0.75C0.386,-0.762 0.394,-0.773 0.403,-0.782C0.412,-0.791 0.423,-0.799 0.436,-0.804C0.448,-0.809 0.461,-0.812 0.475,-0.812C0.489,-0.812 0.502,-0.809 0.515,-0.804C0.527,-0.799 0.538,-0.791 0.547,-0.782C0.556,-0.773 0.564,-0.762 0.569,-0.75C0.574,-0.737 0.577,-0.724 0.577,-0.71C0.577,-0.696 0.574,-0.683 0.569,-0.671C0.564,-0.658 0.556,-0.647 0.547,-0.638C0.538,-0.629 0.527,-0.621 0.515,-0.616C0.502,-0.611 0.489,-0.608 0.475,-0.608C0.461,-0.608 0.448,-0.611 0.436,-0.616C0.423,-0.621 0.412,-0.629 0.403,-0.638C0.394,-0.647 0.386,-0.658 0.381,-0.671C0.376,-0.683 0.373,-0.696 0.373,-0.71Z" style="fill:rgb(180,203,230);fill-rule:nonzero;"/>
        </g>
        <g transform="matrix(57.8618,0,0,57.8648,3208.49,301.823)">
            <path d="M0.243,-0.83L0.243,-0.328L0.433,-0.513L0.681,-0.513L0.424,-0.276L0.696,-0L0.442,-0L0.243,-0.209L0.243,-0L0.062,-0L0.062,-0.83L0.243,-0.83Z" style="fill:rgb(180,203,230);fill-rule:nonzero;"/>
        </g>
        <g transform="matrix(57.8618,0,0,57.8648,3248.87,301.823)">
            <rect x="0.062" y="-0.83" width="0.181" height="0.83" style="fill:rgb(180,203,230);fill-rule:nonzero;"/>
        </g>
        <g transform="matrix(57.8618,0,0,57.8648,3266.52,301.823)">
            <path d="M0.062,-0.513L0.243,-0.513L0.243,-0.45C0.292,-0.497 0.348,-0.521 0.409,-0.521C0.485,-0.521 0.543,-0.489 0.583,-0.425C0.624,-0.49 0.682,-0.522 0.757,-0.522C0.781,-0.522 0.804,-0.519 0.825,-0.512C0.846,-0.505 0.865,-0.494 0.88,-0.479C0.895,-0.464 0.908,-0.444 0.917,-0.42C0.926,-0.396 0.93,-0.367 0.93,-0.333L0.93,-0L0.749,-0L0.749,-0.253C0.749,-0.279 0.747,-0.3 0.744,-0.317C0.74,-0.334 0.735,-0.347 0.728,-0.356C0.721,-0.365 0.712,-0.372 0.703,-0.375C0.694,-0.378 0.684,-0.38 0.673,-0.38C0.615,-0.38 0.586,-0.338 0.586,-0.253L0.586,-0L0.405,-0L0.405,-0.253C0.405,-0.279 0.403,-0.301 0.4,-0.318C0.397,-0.335 0.392,-0.348 0.386,-0.358C0.379,-0.368 0.371,-0.375 0.361,-0.379C0.351,-0.382 0.339,-0.384 0.326,-0.384C0.315,-0.384 0.304,-0.382 0.294,-0.379C0.284,-0.376 0.275,-0.369 0.268,-0.36C0.26,-0.35 0.254,-0.337 0.25,-0.32C0.245,-0.303 0.243,-0.28 0.243,-0.253L0.243,-0L0.062,-0L0.062,-0.513Z" style="fill:rgb(180,203,230);fill-rule:nonzero;"/>
        </g>
        <g transform="matrix(57.8618,0,0,57.8648,3323.92,301.823)">
            <path d="M0.062,-0.513L0.243,-0.513L0.243,-0.448C0.268,-0.478 0.293,-0.498 0.318,-0.509C0.343,-0.519 0.373,-0.524 0.407,-0.524C0.443,-0.524 0.474,-0.518 0.5,-0.507C0.525,-0.495 0.547,-0.478 0.565,-0.457C0.58,-0.44 0.59,-0.42 0.595,-0.399C0.6,-0.378 0.603,-0.353 0.603,-0.326L0.603,-0L0.422,-0L0.422,-0.259C0.422,-0.284 0.42,-0.305 0.417,-0.321C0.413,-0.336 0.406,-0.349 0.397,-0.358C0.389,-0.366 0.38,-0.372 0.37,-0.375C0.36,-0.378 0.349,-0.38 0.338,-0.38C0.307,-0.38 0.284,-0.371 0.268,-0.353C0.251,-0.334 0.243,-0.308 0.243,-0.274L0.243,-0L0.062,-0L0.062,-0.513Z" style="fill:rgb(180,203,230);fill-rule:nonzero;"/>
        </g>
        <g transform="matrix(57.8618,0,0,57.8648,3362.34,301.823)">
            <path d="M0.233,-0.259C0.233,-0.242 0.236,-0.226 0.243,-0.212C0.249,-0.197 0.257,-0.185 0.268,-0.174C0.278,-0.163 0.29,-0.155 0.305,-0.149C0.319,-0.143 0.334,-0.14 0.35,-0.14C0.366,-0.14 0.381,-0.143 0.396,-0.149C0.41,-0.155 0.422,-0.163 0.433,-0.174C0.443,-0.185 0.451,-0.197 0.458,-0.212C0.464,-0.226 0.467,-0.241 0.467,-0.258C0.467,-0.274 0.464,-0.289 0.458,-0.304C0.451,-0.318 0.443,-0.33 0.433,-0.341C0.422,-0.352 0.41,-0.36 0.396,-0.366C0.381,-0.372 0.366,-0.375 0.35,-0.375C0.334,-0.375 0.319,-0.372 0.305,-0.366C0.29,-0.36 0.278,-0.352 0.268,-0.341C0.257,-0.33 0.249,-0.318 0.243,-0.304C0.236,-0.29 0.233,-0.275 0.233,-0.259ZM0.042,-0.261C0.042,-0.299 0.05,-0.335 0.065,-0.368C0.08,-0.401 0.102,-0.429 0.129,-0.454C0.156,-0.478 0.189,-0.497 0.227,-0.511C0.264,-0.525 0.305,-0.532 0.35,-0.532C0.394,-0.532 0.435,-0.525 0.473,-0.512C0.51,-0.498 0.543,-0.479 0.571,-0.455C0.598,-0.43 0.62,-0.401 0.635,-0.368C0.65,-0.334 0.658,-0.297 0.658,-0.256C0.658,-0.215 0.65,-0.178 0.635,-0.145C0.619,-0.111 0.597,-0.082 0.57,-0.058C0.543,-0.033 0.51,-0.014 0.472,-0.001C0.433,0.012 0.392,0.019 0.347,0.019C0.303,0.019 0.262,0.012 0.225,-0.001C0.188,-0.014 0.156,-0.033 0.129,-0.058C0.101,-0.083 0.08,-0.112 0.065,-0.147C0.05,-0.181 0.042,-0.219 0.042,-0.261Z" style="fill:rgb(180,203,230);fill-rule:nonzero;"/>
        </g>
        <g transform="matrix(57.8618,0,0,57.8648,3402.84,301.823)">
            <path d="M0.471,-0.255C0.471,-0.271 0.468,-0.286 0.463,-0.301C0.457,-0.315 0.449,-0.327 0.438,-0.338C0.427,-0.349 0.415,-0.357 0.401,-0.364C0.386,-0.37 0.371,-0.373 0.354,-0.373C0.338,-0.373 0.323,-0.37 0.309,-0.364C0.295,-0.358 0.283,-0.35 0.273,-0.339C0.262,-0.328 0.254,-0.316 0.248,-0.302C0.241,-0.287 0.238,-0.272 0.238,-0.256C0.238,-0.24 0.241,-0.225 0.247,-0.211C0.253,-0.197 0.261,-0.185 0.272,-0.175C0.283,-0.164 0.295,-0.156 0.31,-0.15C0.324,-0.143 0.339,-0.14 0.355,-0.14C0.371,-0.14 0.386,-0.143 0.4,-0.149C0.414,-0.155 0.426,-0.163 0.437,-0.174C0.447,-0.185 0.455,-0.197 0.462,-0.211C0.468,-0.225 0.471,-0.24 0.471,-0.255ZM0.243,0.256L0.062,0.256L0.062,-0.513L0.243,-0.513L0.243,-0.456C0.282,-0.505 0.334,-0.529 0.401,-0.529C0.438,-0.529 0.472,-0.522 0.504,-0.508C0.535,-0.493 0.563,-0.474 0.586,-0.449C0.609,-0.424 0.627,-0.395 0.641,-0.362C0.654,-0.329 0.66,-0.293 0.66,-0.255C0.66,-0.217 0.654,-0.182 0.641,-0.149C0.627,-0.116 0.61,-0.088 0.587,-0.063C0.564,-0.038 0.536,-0.019 0.505,-0.005C0.474,0.009 0.44,0.016 0.403,0.016C0.339,0.016 0.286,-0.006 0.243,-0.05L0.243,0.256Z" style="fill:rgb(180,203,230);fill-rule:nonzero;"/>
        </g>
        <g transform="matrix(57.8618,0,0,57.8648,3443.41,301.823)">
            <path d="M0.23,-0.258C0.23,-0.241 0.233,-0.226 0.239,-0.212C0.245,-0.197 0.253,-0.185 0.264,-0.174C0.274,-0.163 0.286,-0.155 0.301,-0.149C0.315,-0.143 0.33,-0.14 0.347,-0.14C0.363,-0.14 0.378,-0.143 0.393,-0.149C0.407,-0.155 0.419,-0.163 0.43,-0.174C0.44,-0.185 0.448,-0.197 0.455,-0.212C0.461,-0.226 0.464,-0.241 0.464,-0.257C0.464,-0.273 0.461,-0.288 0.455,-0.302C0.448,-0.316 0.44,-0.328 0.43,-0.339C0.419,-0.35 0.407,-0.358 0.393,-0.364C0.378,-0.37 0.363,-0.373 0.347,-0.373C0.331,-0.373 0.316,-0.37 0.302,-0.364C0.287,-0.358 0.275,-0.35 0.265,-0.339C0.254,-0.328 0.246,-0.316 0.24,-0.303C0.233,-0.289 0.23,-0.274 0.23,-0.258ZM0.458,0.256L0.458,-0.05C0.416,-0.006 0.363,0.016 0.299,0.016C0.262,0.016 0.228,0.009 0.197,-0.005C0.166,-0.019 0.138,-0.038 0.116,-0.063C0.093,-0.088 0.075,-0.117 0.062,-0.15C0.049,-0.183 0.042,-0.218 0.042,-0.255C0.042,-0.294 0.049,-0.33 0.062,-0.363C0.075,-0.396 0.094,-0.425 0.117,-0.45C0.14,-0.475 0.168,-0.494 0.199,-0.508C0.23,-0.522 0.264,-0.529 0.301,-0.529C0.367,-0.529 0.419,-0.505 0.458,-0.456L0.458,-0.513L0.64,-0.513L0.64,0.256L0.458,0.256Z" style="fill:rgb(180,203,230);fill-rule:nonzero;"/>
        </g>
        <g transform="matrix(57.8618,0,0,57.8648,3483.97,301.823)">
            <path d="M0.062,-0.513L0.243,-0.513L0.243,-0.429C0.262,-0.46 0.286,-0.483 0.314,-0.5C0.342,-0.516 0.375,-0.524 0.412,-0.524L0.428,-0.524C0.433,-0.524 0.44,-0.523 0.447,-0.522L0.447,-0.349C0.423,-0.361 0.397,-0.367 0.369,-0.367C0.327,-0.367 0.296,-0.355 0.275,-0.33C0.254,-0.305 0.243,-0.268 0.243,-0.22L0.243,-0L0.062,-0L0.062,-0.513Z" style="fill:rgb(180,203,230);fill-rule:nonzero;"/>
        </g>
        <g transform="matrix(57.8618,0,0,57.8648,3510.76,301.823)">
            <path d="M0.402,-0.381C0.369,-0.398 0.336,-0.407 0.304,-0.407C0.287,-0.407 0.274,-0.404 0.264,-0.397C0.253,-0.39 0.248,-0.381 0.248,-0.37C0.248,-0.364 0.249,-0.359 0.251,-0.356C0.252,-0.352 0.256,-0.348 0.262,-0.345C0.267,-0.342 0.276,-0.339 0.287,-0.336C0.298,-0.333 0.312,-0.33 0.33,-0.326C0.38,-0.316 0.417,-0.298 0.442,-0.273C0.467,-0.247 0.479,-0.214 0.479,-0.174C0.479,-0.144 0.473,-0.117 0.461,-0.093C0.449,-0.069 0.432,-0.049 0.411,-0.033C0.39,-0.016 0.364,-0.004 0.334,0.006C0.304,0.014 0.271,0.019 0.235,0.019C0.166,0.019 0.097,-0.001 0.03,-0.04L0.096,-0.168C0.147,-0.133 0.195,-0.116 0.24,-0.116C0.257,-0.116 0.27,-0.12 0.281,-0.127C0.292,-0.134 0.297,-0.144 0.297,-0.155C0.297,-0.162 0.296,-0.167 0.295,-0.172C0.293,-0.176 0.289,-0.18 0.284,-0.184C0.279,-0.187 0.271,-0.191 0.261,-0.194C0.25,-0.197 0.237,-0.2 0.22,-0.203C0.164,-0.214 0.125,-0.231 0.103,-0.254C0.08,-0.276 0.069,-0.307 0.069,-0.346C0.069,-0.375 0.074,-0.401 0.085,-0.424C0.096,-0.447 0.111,-0.466 0.131,-0.482C0.151,-0.498 0.175,-0.51 0.204,-0.519C0.232,-0.528 0.263,-0.532 0.298,-0.532C0.355,-0.532 0.41,-0.521 0.463,-0.499L0.402,-0.381Z" style="fill:rgb(180,203,230);fill-rule:nonzero;"/>
        </g>
        <g transform="matrix(57.8618,0,0,57.8648,3541.02,301.823)">
            <path d="M0.264,-0.362L0.264,-0L0.083,-0L0.083,-0.362L0.023,-0.362L0.023,-0.513L0.083,-0.513L0.083,-0.667L0.264,-0.667L0.264,-0.513L0.367,-0.513L0.367,-0.362L0.264,-0.362Z" style="fill:rgb(180,203,230);fill-rule:nonzero;"/>
        </g>
        <g transform="matrix(57.8618,0,0,57.8648,3562.6,301.823)">
            <path d="M0.243,-0.513L0.243,-0.224C0.243,-0.161 0.274,-0.129 0.335,-0.129C0.396,-0.129 0.427,-0.161 0.427,-0.224L0.427,-0.513L0.608,-0.513L0.608,-0.189C0.608,-0.12 0.585,-0.068 0.54,-0.033C0.494,0.002 0.426,0.019 0.335,0.019C0.244,0.019 0.176,0.002 0.131,-0.033C0.085,-0.068 0.062,-0.12 0.062,-0.189L0.062,-0.513L0.243,-0.513Z" style="fill:rgb(180,203,230);fill-rule:nonzero;"/>
        </g>
        <g transform="matrix(57.8618,0,0,57.8648,3601.31,301.823)">
            <path d="M0.204,-0.513L0.326,-0.25L0.45,-0.513L0.652,-0.513L0.385,-0L0.264,-0L0,-0.513L0.204,-0.513Z" style="fill:rgb(180,203,230);fill-rule:nonzero;"/>
        </g>
        <g transform="matrix(57.8618,0,0,57.8648,3639.04,301.823)">
            <path d="M0.202,-0.513L0.325,-0.243L0.453,-0.513L0.567,-0.513L0.695,-0.235L0.824,-0.513L1.025,-0.513L0.757,-0L0.636,-0L0.508,-0.281L0.386,-0L0.263,-0L0,-0.513L0.202,-0.513Z" style="fill:rgb(180,203,230);fill-rule:nonzero;"/>
        </g>
        <g transform="matrix(57.8618,0,0,57.8648,3698.35,301.823)">
            <path d="M0.256,-0.278L0.048,-0.513L0.284,-0.513L0.372,-0.407L0.462,-0.513L0.698,-0.513L0.485,-0.278L0.742,-0L0.502,-0L0.371,-0.152L0.239,-0L0,-0L0.256,-0.278Z" style="fill:rgb(180,203,230);fill-rule:nonzero;"/>
        </g>
        <g transform="matrix(57.8618,0,0,57.8648,3741.28,301.823)">
            <path d="M0.248,-0.07L0,-0.513L0.21,-0.513L0.347,-0.25L0.48,-0.513L0.688,-0.513L0.276,0.256L0.073,0.256L0.248,-0.07Z" style="fill:rgb(180,203,230);fill-rule:nonzero;"/>
        </g>
        <g transform="matrix(57.8618,0,0,57.8648,3781.09,301.823)">
            <path d="M0.326,-0.151L0.542,-0.151L0.542,-0L0.022,-0L0.264,-0.362L0.055,-0.362L0.055,-0.513L0.566,-0.513L0.326,-0.151Z" style="fill:rgb(180,203,230);fill-rule:nonzero;"/>
        </g>
        <g transform="matrix(57.8618,0,0,57.8648,3154.82,368.49)">
            <path d="M0.265,-0.588L0.155,-0.588L0.155,-0.754L0.461,-0.754L0.461,-0L0.265,-0L0.265,-0.588Z" style="fill:rgb(180,203,230);fill-rule:nonzero;"/>
        </g>
        <g transform="matrix(57.8618,0,0,57.8648,3190.23,368.49)">
            <path d="M0.635,-0L0.028,-0L0.215,-0.194C0.264,-0.245 0.303,-0.289 0.331,-0.325C0.359,-0.36 0.38,-0.39 0.394,-0.415C0.407,-0.44 0.416,-0.46 0.419,-0.475C0.422,-0.49 0.424,-0.503 0.424,-0.514C0.424,-0.525 0.422,-0.536 0.419,-0.547C0.415,-0.558 0.409,-0.567 0.402,-0.576C0.395,-0.584 0.386,-0.591 0.376,-0.596C0.365,-0.6 0.353,-0.603 0.339,-0.603C0.312,-0.603 0.292,-0.594 0.277,-0.577C0.262,-0.56 0.254,-0.538 0.254,-0.512C0.254,-0.505 0.255,-0.494 0.257,-0.48L0.043,-0.48C0.043,-0.524 0.05,-0.564 0.065,-0.6C0.079,-0.636 0.099,-0.667 0.125,-0.693C0.151,-0.719 0.182,-0.739 0.218,-0.753C0.253,-0.767 0.292,-0.774 0.335,-0.774C0.377,-0.774 0.416,-0.767 0.452,-0.754C0.487,-0.741 0.518,-0.722 0.544,-0.698C0.57,-0.674 0.59,-0.646 0.605,-0.613C0.62,-0.58 0.627,-0.544 0.627,-0.505C0.627,-0.464 0.618,-0.426 0.601,-0.391C0.583,-0.356 0.555,-0.32 0.516,-0.283L0.391,-0.166L0.635,-0.166L0.635,-0Z" style="fill:rgb(180,203,230);fill-rule:nonzero;"/>
        </g>
        <g transform="matrix(57.8618,0,0,57.8648,3229.58,368.49)">
            <path d="M0.299,-0.46C0.304,-0.459 0.309,-0.459 0.313,-0.459L0.322,-0.459C0.347,-0.459 0.367,-0.466 0.382,-0.481C0.397,-0.496 0.405,-0.515 0.405,-0.538C0.405,-0.561 0.398,-0.579 0.384,-0.593C0.369,-0.607 0.351,-0.614 0.328,-0.614C0.304,-0.614 0.285,-0.606 0.27,-0.59C0.255,-0.574 0.248,-0.553 0.248,-0.528L0.067,-0.528C0.072,-0.567 0.082,-0.602 0.097,-0.633C0.112,-0.664 0.131,-0.69 0.154,-0.711C0.177,-0.732 0.205,-0.748 0.236,-0.759C0.267,-0.77 0.302,-0.775 0.34,-0.775C0.377,-0.775 0.411,-0.77 0.442,-0.76C0.472,-0.749 0.498,-0.735 0.52,-0.716C0.541,-0.697 0.558,-0.674 0.57,-0.647C0.581,-0.619 0.587,-0.589 0.587,-0.556C0.587,-0.52 0.58,-0.491 0.567,-0.468C0.553,-0.444 0.533,-0.425 0.508,-0.408C0.547,-0.396 0.577,-0.375 0.599,-0.344C0.62,-0.313 0.631,-0.274 0.631,-0.229C0.631,-0.192 0.624,-0.158 0.609,-0.127C0.594,-0.096 0.574,-0.07 0.548,-0.048C0.521,-0.026 0.49,-0.009 0.454,0.003C0.417,0.015 0.377,0.021 0.334,0.021C0.276,0.021 0.224,0.01 0.177,-0.013C0.13,-0.036 0.093,-0.072 0.065,-0.121C0.052,-0.143 0.044,-0.165 0.04,-0.187C0.035,-0.209 0.033,-0.231 0.033,-0.254L0.227,-0.254C0.228,-0.219 0.239,-0.192 0.258,-0.174C0.277,-0.155 0.303,-0.146 0.336,-0.146C0.371,-0.146 0.396,-0.155 0.412,-0.174C0.428,-0.193 0.436,-0.216 0.436,-0.243C0.436,-0.276 0.426,-0.3 0.407,-0.317C0.388,-0.334 0.365,-0.342 0.338,-0.342C0.331,-0.342 0.325,-0.342 0.319,-0.341C0.313,-0.339 0.306,-0.338 0.299,-0.337L0.299,-0.46Z" style="fill:rgb(180,203,230);fill-rule:nonzero;"/>
        </g>
        <g transform="matrix(57.8618,0,0,57.8648,3269.85,368.49)">
            <path d="M0.378,-0.305L0.378,-0.602L0.205,-0.305L0.378,-0.305ZM0.56,-0.305L0.651,-0.305L0.651,-0.155L0.56,-0.155L0.56,-0L0.378,-0L0.378,-0.155L0.014,-0.155L0.014,-0.281L0.302,-0.754L0.56,-0.754L0.56,-0.305Z" style="fill:rgb(180,203,230);fill-rule:nonzero;"/>
        </g>
        <g transform="matrix(57.8618,0,0,57.8648,3309.2,368.49)">
            <path d="M0.56,-0.588L0.299,-0.588L0.286,-0.505C0.298,-0.506 0.309,-0.507 0.319,-0.509C0.329,-0.51 0.339,-0.51 0.35,-0.51C0.388,-0.51 0.423,-0.503 0.456,-0.49C0.489,-0.477 0.517,-0.458 0.54,-0.435C0.563,-0.412 0.582,-0.384 0.595,-0.351C0.608,-0.318 0.615,-0.283 0.615,-0.244C0.615,-0.203 0.608,-0.167 0.593,-0.134C0.578,-0.101 0.556,-0.074 0.529,-0.051C0.502,-0.028 0.468,-0.01 0.429,0.003C0.39,0.015 0.346,0.021 0.298,0.021C0.253,0.021 0.21,0.016 0.169,0.005C0.128,-0.007 0.089,-0.023 0.053,-0.046L0.082,-0.23C0.115,-0.201 0.149,-0.18 0.184,-0.165C0.219,-0.15 0.252,-0.142 0.283,-0.142C0.323,-0.142 0.355,-0.153 0.378,-0.175C0.401,-0.196 0.413,-0.223 0.413,-0.255C0.413,-0.292 0.397,-0.323 0.366,-0.346C0.335,-0.369 0.294,-0.38 0.243,-0.38C0.22,-0.38 0.197,-0.378 0.173,-0.373C0.149,-0.368 0.125,-0.36 0.102,-0.349L0.165,-0.754L0.56,-0.754L0.56,-0.588Z" style="fill:rgb(180,203,230);fill-rule:nonzero;"/>
        </g>
        <g transform="matrix(57.8618,0,0,57.8648,3348.54,368.49)">
            <path d="M0.539,-0.754L0.325,-0.508L0.329,-0.508C0.348,-0.519 0.363,-0.526 0.375,-0.529C0.387,-0.531 0.398,-0.532 0.407,-0.532C0.444,-0.532 0.477,-0.525 0.508,-0.511C0.539,-0.497 0.565,-0.478 0.588,-0.454C0.611,-0.429 0.628,-0.401 0.641,-0.368C0.654,-0.335 0.66,-0.3 0.66,-0.263C0.66,-0.223 0.653,-0.186 0.638,-0.152C0.623,-0.117 0.602,-0.087 0.575,-0.062C0.547,-0.036 0.513,-0.016 0.474,-0.001C0.435,0.014 0.39,0.021 0.341,0.021C0.291,0.021 0.246,0.014 0.207,-0.001C0.168,-0.016 0.134,-0.036 0.107,-0.061C0.079,-0.086 0.058,-0.116 0.043,-0.15C0.028,-0.183 0.021,-0.219 0.021,-0.257C0.021,-0.3 0.031,-0.346 0.05,-0.396C0.069,-0.445 0.098,-0.494 0.137,-0.542L0.312,-0.754L0.539,-0.754ZM0.215,-0.259C0.215,-0.242 0.218,-0.226 0.225,-0.211C0.232,-0.196 0.241,-0.182 0.252,-0.171C0.263,-0.16 0.277,-0.151 0.292,-0.144C0.307,-0.137 0.323,-0.134 0.34,-0.134C0.357,-0.134 0.374,-0.137 0.389,-0.144C0.404,-0.151 0.417,-0.16 0.428,-0.171C0.439,-0.182 0.448,-0.196 0.455,-0.211C0.462,-0.226 0.465,-0.242 0.465,-0.259C0.465,-0.276 0.462,-0.293 0.455,-0.308C0.448,-0.323 0.439,-0.336 0.428,-0.347C0.417,-0.358 0.404,-0.367 0.389,-0.374C0.374,-0.381 0.357,-0.384 0.34,-0.384C0.323,-0.384 0.307,-0.381 0.292,-0.374C0.277,-0.367 0.263,-0.358 0.252,-0.347C0.241,-0.336 0.232,-0.323 0.225,-0.308C0.218,-0.293 0.215,-0.276 0.215,-0.259Z" style="fill:rgb(180,203,230);fill-rule:nonzero;"/>
        </g>
        <g transform="matrix(57.8618,0,0,57.8648,3386.33,368.49)">
            <path d="M0.395,-0.588L0.08,-0.588L0.08,-0.754L0.699,-0.754L0.267,-0L0.051,-0L0.395,-0.588Z" style="fill:rgb(180,203,230);fill-rule:nonzero;"/>
        </g>
        <g transform="matrix(57.8618,0,0,57.8648,3425.67,368.49)">
            <path d="M0.25,-0.228C0.25,-0.215 0.252,-0.203 0.257,-0.192C0.262,-0.181 0.268,-0.171 0.276,-0.163C0.284,-0.154 0.294,-0.148 0.305,-0.143C0.316,-0.138 0.327,-0.135 0.34,-0.135C0.352,-0.135 0.364,-0.138 0.375,-0.143C0.386,-0.148 0.395,-0.154 0.404,-0.163C0.412,-0.171 0.418,-0.181 0.423,-0.192C0.428,-0.203 0.43,-0.214 0.43,-0.227C0.43,-0.252 0.421,-0.274 0.404,-0.292C0.386,-0.309 0.365,-0.318 0.34,-0.318C0.315,-0.318 0.293,-0.309 0.276,-0.292C0.259,-0.274 0.25,-0.253 0.25,-0.228ZM0.257,-0.562C0.257,-0.539 0.265,-0.519 0.281,-0.503C0.297,-0.486 0.317,-0.478 0.34,-0.478C0.352,-0.478 0.363,-0.48 0.373,-0.485C0.383,-0.49 0.392,-0.496 0.399,-0.504C0.406,-0.511 0.412,-0.52 0.417,-0.53C0.421,-0.54 0.423,-0.55 0.423,-0.561C0.423,-0.584 0.415,-0.603 0.399,-0.62C0.383,-0.636 0.363,-0.644 0.34,-0.644C0.317,-0.644 0.297,-0.636 0.281,-0.62C0.265,-0.604 0.257,-0.585 0.257,-0.562ZM0.201,-0.398C0.122,-0.431 0.083,-0.486 0.083,-0.564C0.083,-0.596 0.089,-0.625 0.102,-0.651C0.115,-0.676 0.132,-0.698 0.155,-0.717C0.177,-0.736 0.204,-0.75 0.236,-0.76C0.267,-0.77 0.302,-0.775 0.34,-0.775C0.378,-0.775 0.413,-0.77 0.445,-0.76C0.476,-0.75 0.503,-0.736 0.526,-0.717C0.548,-0.698 0.565,-0.676 0.578,-0.651C0.591,-0.625 0.597,-0.596 0.597,-0.564C0.597,-0.544 0.595,-0.526 0.591,-0.511C0.587,-0.495 0.58,-0.481 0.571,-0.468C0.561,-0.455 0.548,-0.442 0.533,-0.431C0.517,-0.42 0.497,-0.409 0.474,-0.398C0.577,-0.358 0.628,-0.293 0.628,-0.204C0.628,-0.172 0.621,-0.142 0.607,-0.115C0.592,-0.088 0.572,-0.064 0.547,-0.044C0.521,-0.024 0.491,-0.008 0.456,0.003C0.421,0.014 0.382,0.02 0.34,0.02C0.299,0.02 0.262,0.015 0.227,0.004C0.192,-0.008 0.161,-0.023 0.135,-0.043C0.109,-0.063 0.089,-0.087 0.074,-0.114C0.059,-0.141 0.052,-0.171 0.052,-0.204C0.052,-0.295 0.102,-0.36 0.201,-0.398Z" style="fill:rgb(180,203,230);fill-rule:nonzero;"/>
        </g>
        <g transform="matrix(57.8618,0,0,57.8648,3465.02,368.49)">
            <path d="M0.141,-0L0.355,-0.246L0.351,-0.246C0.332,-0.235 0.317,-0.228 0.305,-0.226C0.293,-0.223 0.282,-0.222 0.273,-0.222C0.236,-0.222 0.203,-0.229 0.172,-0.243C0.14,-0.257 0.114,-0.276 0.092,-0.301C0.069,-0.325 0.052,-0.353 0.039,-0.386C0.026,-0.419 0.02,-0.454 0.02,-0.491C0.02,-0.531 0.027,-0.568 0.042,-0.603C0.057,-0.637 0.078,-0.667 0.106,-0.693C0.133,-0.718 0.167,-0.738 0.206,-0.753C0.245,-0.768 0.29,-0.775 0.339,-0.775C0.389,-0.775 0.434,-0.768 0.473,-0.753C0.512,-0.738 0.546,-0.718 0.574,-0.693C0.601,-0.668 0.622,-0.638 0.637,-0.605C0.652,-0.571 0.659,-0.535 0.659,-0.497C0.659,-0.454 0.65,-0.408 0.631,-0.359C0.612,-0.309 0.582,-0.26 0.543,-0.212L0.368,-0L0.141,-0ZM0.465,-0.495C0.465,-0.512 0.462,-0.529 0.455,-0.544C0.448,-0.559 0.439,-0.572 0.428,-0.583C0.417,-0.594 0.404,-0.603 0.389,-0.61C0.374,-0.617 0.357,-0.62 0.34,-0.62C0.323,-0.62 0.307,-0.617 0.292,-0.61C0.277,-0.603 0.263,-0.594 0.252,-0.583C0.241,-0.572 0.232,-0.559 0.225,-0.544C0.218,-0.529 0.215,-0.512 0.215,-0.495C0.215,-0.478 0.218,-0.462 0.225,-0.447C0.232,-0.432 0.241,-0.418 0.252,-0.407C0.263,-0.396 0.277,-0.387 0.292,-0.38C0.307,-0.373 0.323,-0.37 0.34,-0.37C0.357,-0.37 0.374,-0.373 0.389,-0.38C0.404,-0.387 0.417,-0.396 0.428,-0.407C0.439,-0.418 0.448,-0.432 0.455,-0.447C0.462,-0.462 0.465,-0.478 0.465,-0.495Z" style="fill:rgb(180,203,230);fill-rule:nonzero;"/>
        </g>
        <g transform="matrix(57.8618,0,0,57.8648,3504.36,368.49)">
            <path d="M0.214,-0.378C0.214,-0.345 0.217,-0.314 0.223,-0.287C0.229,-0.26 0.238,-0.236 0.249,-0.216C0.26,-0.196 0.273,-0.181 0.288,-0.17C0.303,-0.159 0.321,-0.153 0.34,-0.153C0.359,-0.153 0.376,-0.159 0.392,-0.17C0.407,-0.181 0.42,-0.196 0.431,-0.216C0.442,-0.236 0.45,-0.26 0.456,-0.287C0.462,-0.314 0.465,-0.345 0.465,-0.378C0.465,-0.411 0.462,-0.441 0.456,-0.469C0.45,-0.496 0.442,-0.52 0.431,-0.54C0.42,-0.559 0.407,-0.575 0.392,-0.586C0.376,-0.596 0.359,-0.602 0.34,-0.602C0.321,-0.602 0.303,-0.596 0.288,-0.586C0.273,-0.575 0.26,-0.559 0.249,-0.54C0.238,-0.52 0.229,-0.496 0.223,-0.469C0.217,-0.441 0.214,-0.411 0.214,-0.378ZM0.02,-0.378C0.02,-0.438 0.028,-0.493 0.044,-0.542C0.059,-0.591 0.081,-0.632 0.11,-0.667C0.138,-0.702 0.171,-0.729 0.211,-0.748C0.25,-0.767 0.293,-0.776 0.34,-0.776C0.387,-0.776 0.43,-0.767 0.469,-0.748C0.508,-0.729 0.542,-0.702 0.57,-0.667C0.598,-0.632 0.62,-0.591 0.636,-0.542C0.651,-0.493 0.659,-0.438 0.659,-0.378C0.659,-0.318 0.651,-0.264 0.636,-0.215C0.62,-0.166 0.598,-0.124 0.57,-0.089C0.542,-0.054 0.508,-0.027 0.469,-0.008C0.43,0.012 0.387,0.021 0.34,0.021C0.293,0.021 0.25,0.012 0.211,-0.008C0.171,-0.027 0.138,-0.054 0.11,-0.089C0.081,-0.124 0.059,-0.166 0.044,-0.215C0.028,-0.264 0.02,-0.318 0.02,-0.378Z" style="fill:rgb(180,203,230);fill-rule:nonzero;"/>
        </g>
    </g>
</svg>
