<?xml version="1.0" encoding="UTF-8" standalone="no"?>
<!DOCTYPE svg PUBLIC "-//W3C//DTD SVG 1.1//EN" "http://www.w3.org/Graphics/SVG/1.1/DTD/svg11.dtd">
<svg width="100%" height="100%" viewBox="0 0 591 591" version="1.1" xmlns="http://www.w3.org/2000/svg" xmlns:xlink="http://www.w3.org/1999/xlink" xml:space="preserve" xmlns:serif="http://www.serif.com/" style="fill-rule:evenodd;clip-rule:evenodd;stroke-linejoin:round;stroke-miterlimit:2;">
    <g id="ILUSTRAÇÃO">
    </g>
    <rect id="font" x="0" y="0" width="590.551" height="590.551" style="fill:rgb(180,203,230);"/>
    <g transform="matrix(0.47092,0,0,0.47092,-1281.55,341.882)">
        <g transform="matrix(57.8618,0,0,57.8648,2846.55,235.157)">
            <path d="M0.533,-0.183L0.21,-0.183L0.126,-0L0.004,-0L0.377,-0.801L0.737,-0L0.612,-0L0.533,-0.183ZM0.487,-0.29L0.375,-0.546L0.258,-0.29L0.487,-0.29Z" style="fill-rule:nonzero;"/>
        </g>
        <g transform="matrix(57.8618,0,0,57.8648,2889.41,235.157)">
            <path d="M0.09,-0L0.09,-0.754L0.204,-0.754C0.254,-0.754 0.294,-0.75 0.324,-0.742C0.354,-0.734 0.38,-0.721 0.401,-0.703C0.422,-0.683 0.439,-0.66 0.451,-0.631C0.464,-0.602 0.47,-0.573 0.47,-0.543C0.47,-0.489 0.45,-0.443 0.408,-0.406C0.448,-0.392 0.48,-0.368 0.503,-0.334C0.526,-0.3 0.538,-0.261 0.538,-0.216C0.538,-0.157 0.517,-0.107 0.476,-0.066C0.451,-0.041 0.422,-0.024 0.391,-0.014C0.357,-0.005 0.314,-0 0.263,-0L0.09,-0ZM0.204,-0.43L0.24,-0.43C0.282,-0.43 0.313,-0.44 0.333,-0.458C0.352,-0.477 0.362,-0.505 0.362,-0.541C0.362,-0.576 0.352,-0.603 0.332,-0.622C0.312,-0.64 0.283,-0.649 0.244,-0.649L0.204,-0.649L0.204,-0.43ZM0.204,-0.107L0.274,-0.107C0.326,-0.107 0.364,-0.117 0.388,-0.137C0.413,-0.159 0.426,-0.187 0.426,-0.22C0.426,-0.253 0.414,-0.28 0.389,-0.302C0.365,-0.324 0.323,-0.335 0.262,-0.335L0.204,-0.335L0.204,-0.107Z" style="fill-rule:nonzero;"/>
        </g>
        <g transform="matrix(57.8618,0,0,57.8648,2923.62,235.157)">
            <path d="M0.647,-0.713L0.647,-0.579C0.582,-0.634 0.514,-0.661 0.443,-0.661C0.366,-0.661 0.301,-0.633 0.248,-0.578C0.194,-0.522 0.167,-0.455 0.167,-0.375C0.167,-0.295 0.194,-0.229 0.248,-0.174C0.301,-0.12 0.366,-0.093 0.444,-0.093C0.484,-0.093 0.518,-0.099 0.546,-0.112C0.562,-0.119 0.578,-0.128 0.594,-0.139C0.611,-0.15 0.629,-0.163 0.647,-0.179L0.647,-0.042C0.582,-0.005 0.514,0.014 0.442,0.014C0.335,0.014 0.243,-0.024 0.167,-0.099C0.091,-0.175 0.053,-0.266 0.053,-0.374C0.053,-0.47 0.084,-0.555 0.148,-0.63C0.226,-0.722 0.327,-0.769 0.451,-0.769C0.519,-0.769 0.584,-0.75 0.647,-0.713Z" style="fill-rule:nonzero;"/>
        </g>
        <g transform="matrix(57.8618,0,0,57.8648,2964.16,235.157)">
            <path d="M0.09,-0L0.09,-0.754L0.249,-0.754C0.324,-0.754 0.384,-0.746 0.428,-0.731C0.475,-0.717 0.518,-0.692 0.557,-0.657C0.634,-0.586 0.673,-0.493 0.673,-0.377C0.673,-0.261 0.633,-0.167 0.552,-0.096C0.511,-0.06 0.468,-0.035 0.424,-0.021C0.382,-0.007 0.323,-0 0.247,-0L0.09,-0ZM0.204,-0.107L0.255,-0.107C0.306,-0.107 0.349,-0.112 0.383,-0.123C0.417,-0.134 0.447,-0.153 0.475,-0.177C0.531,-0.228 0.559,-0.295 0.559,-0.377C0.559,-0.46 0.531,-0.527 0.476,-0.578C0.426,-0.624 0.352,-0.647 0.255,-0.647L0.204,-0.647L0.204,-0.107Z" style="fill-rule:nonzero;"/>
        </g>
        <g transform="matrix(57.8618,0,0,57.8648,3006.18,235.157)">
            <path d="M0.506,-0.647L0.204,-0.647L0.204,-0.466L0.498,-0.466L0.498,-0.359L0.204,-0.359L0.204,-0.107L0.506,-0.107L0.506,-0L0.09,-0L0.09,-0.754L0.506,-0.754L0.506,-0.647Z" style="fill-rule:nonzero;"/>
        </g>
        <g transform="matrix(57.8618,0,0,57.8648,3038.89,235.157)">
            <path d="M0.467,-0.647L0.204,-0.647L0.204,-0.466L0.458,-0.466L0.458,-0.359L0.204,-0.359L0.204,-0L0.09,-0L0.09,-0.754L0.467,-0.754L0.467,-0.647Z" style="fill-rule:nonzero;"/>
        </g>
        <g transform="matrix(57.8618,0,0,57.8648,3068.3,235.157)">
            <path d="M0.478,-0.393L0.79,-0.393L0.79,-0.368C0.79,-0.311 0.783,-0.261 0.77,-0.217C0.757,-0.177 0.735,-0.139 0.704,-0.104C0.634,-0.025 0.545,0.014 0.437,0.014C0.331,0.014 0.241,-0.024 0.166,-0.1C0.09,-0.177 0.053,-0.268 0.053,-0.375C0.053,-0.485 0.091,-0.578 0.167,-0.654C0.244,-0.73 0.337,-0.769 0.447,-0.769C0.506,-0.769 0.561,-0.757 0.612,-0.732C0.661,-0.708 0.709,-0.669 0.756,-0.615L0.675,-0.538C0.613,-0.62 0.538,-0.661 0.449,-0.661C0.369,-0.661 0.302,-0.634 0.248,-0.579C0.194,-0.525 0.167,-0.457 0.167,-0.375C0.167,-0.292 0.197,-0.222 0.257,-0.168C0.314,-0.118 0.375,-0.092 0.44,-0.092C0.496,-0.092 0.547,-0.111 0.591,-0.149C0.636,-0.187 0.661,-0.233 0.666,-0.286L0.478,-0.286L0.478,-0.393Z" style="fill-rule:nonzero;"/>
        </g>
        <g transform="matrix(57.8618,0,0,57.8648,3117.04,235.157)">
            <path d="M0.204,-0.459L0.529,-0.459L0.529,-0.754L0.643,-0.754L0.643,-0L0.529,-0L0.529,-0.352L0.204,-0.352L0.204,-0L0.09,-0L0.09,-0.754L0.204,-0.754L0.204,-0.459Z" style="fill-rule:nonzero;"/>
        </g>
        <g transform="matrix(57.8618,0,0,57.8648,3159.48,235.157)">
            <path d="M0.204,-0.754L0.204,-0L0.09,-0L0.09,-0.754L0.204,-0.754ZM0.635,-0.757L0.635,-0.27C0.635,-0.211 0.631,-0.168 0.623,-0.139C0.615,-0.107 0.601,-0.079 0.582,-0.057C0.543,-0.012 0.493,0.01 0.43,0.01C0.383,0.01 0.338,-0.002 0.297,-0.027L0.353,-0.124C0.38,-0.105 0.406,-0.096 0.43,-0.096C0.464,-0.096 0.487,-0.109 0.5,-0.135C0.514,-0.16 0.521,-0.205 0.521,-0.27L0.521,-0.757L0.635,-0.757Z" style="fill-rule:nonzero;"/>
        </g>
        <g transform="matrix(57.8618,0,0,57.8648,3201.29,235.157)">
            <path d="M0.204,-0.453L0.498,-0.754L0.649,-0.754L0.309,-0.413L0.651,-0L0.499,-0L0.228,-0.335L0.204,-0.312L0.204,-0L0.09,-0L0.09,-0.754L0.204,-0.754L0.204,-0.453Z" style="fill-rule:nonzero;"/>
        </g>
        <g transform="matrix(57.8618,0,0,57.8648,3239.63,235.157)">
            <path d="M0.204,-0.754L0.204,-0.107L0.426,-0.107L0.426,-0L0.09,-0L0.09,-0.754L0.204,-0.754Z" style="fill-rule:nonzero;"/>
        </g>
        <g transform="matrix(57.8618,0,0,57.8648,3265.28,235.157)">
            <path d="M0.064,-0L0.223,-0.811L0.481,-0.225L0.75,-0.811L0.892,-0L0.775,-0L0.703,-0.455L0.479,0.035L0.263,-0.456L0.182,-0L0.064,-0Z" style="fill-rule:nonzero;"/>
        </g>
        <g transform="matrix(57.8618,0,0,57.8648,3320.91,235.157)">
            <path d="M0.09,-0L0.09,-0.805L0.64,-0.23L0.64,-0.754L0.754,-0.754L0.754,0.046L0.204,-0.528L0.204,-0L0.09,-0Z" style="fill-rule:nonzero;"/>
        </g>
        <g transform="matrix(57.8618,0,0,57.8648,3370.16,235.157)">
            <path d="M0.053,-0.38C0.053,-0.486 0.092,-0.578 0.169,-0.654C0.247,-0.73 0.34,-0.768 0.449,-0.768C0.556,-0.768 0.648,-0.73 0.725,-0.653C0.802,-0.576 0.841,-0.484 0.841,-0.376C0.841,-0.268 0.802,-0.176 0.725,-0.1C0.647,-0.024 0.553,0.014 0.443,0.014C0.346,0.014 0.258,-0.02 0.181,-0.087C0.095,-0.162 0.053,-0.26 0.053,-0.38ZM0.167,-0.379C0.167,-0.296 0.195,-0.227 0.251,-0.173C0.307,-0.12 0.371,-0.093 0.444,-0.093C0.523,-0.093 0.59,-0.12 0.645,-0.175C0.699,-0.23 0.726,-0.298 0.726,-0.377C0.726,-0.457 0.699,-0.525 0.646,-0.579C0.592,-0.634 0.526,-0.661 0.447,-0.661C0.369,-0.661 0.303,-0.634 0.249,-0.579C0.194,-0.525 0.167,-0.458 0.167,-0.379Z" style="fill-rule:nonzero;"/>
        </g>
        <g transform="matrix(57.8618,0,0,57.8648,3421.86,235.157)">
            <path d="M0.204,-0.306L0.204,-0L0.09,-0L0.09,-0.754L0.219,-0.754C0.282,-0.754 0.33,-0.75 0.362,-0.741C0.395,-0.732 0.424,-0.715 0.448,-0.691C0.492,-0.649 0.513,-0.595 0.513,-0.531C0.513,-0.462 0.49,-0.407 0.444,-0.367C0.398,-0.326 0.335,-0.306 0.257,-0.306L0.204,-0.306ZM0.204,-0.412L0.247,-0.412C0.351,-0.412 0.403,-0.452 0.403,-0.532C0.403,-0.61 0.349,-0.649 0.242,-0.649L0.204,-0.649L0.204,-0.412Z" style="fill-rule:nonzero;"/>
        </g>
        <g transform="matrix(57.8618,0,0,57.8648,3453.11,235.157)">
            <path d="M0.857,0.014L0.714,0.014L0.655,-0.047C0.592,-0.007 0.522,0.014 0.445,0.014C0.345,0.014 0.257,-0.02 0.179,-0.088C0.095,-0.162 0.053,-0.258 0.053,-0.374C0.053,-0.487 0.093,-0.582 0.172,-0.658C0.25,-0.731 0.341,-0.768 0.447,-0.768C0.542,-0.768 0.628,-0.736 0.704,-0.671C0.795,-0.594 0.841,-0.493 0.841,-0.368C0.841,-0.271 0.805,-0.184 0.733,-0.108L0.857,0.014ZM0.544,-0.298L0.654,-0.189C0.702,-0.24 0.726,-0.302 0.726,-0.375C0.726,-0.457 0.699,-0.524 0.646,-0.579C0.592,-0.634 0.525,-0.661 0.445,-0.661C0.365,-0.661 0.298,-0.634 0.246,-0.579C0.194,-0.525 0.167,-0.456 0.167,-0.373C0.167,-0.291 0.194,-0.225 0.249,-0.173C0.305,-0.119 0.369,-0.093 0.441,-0.093C0.491,-0.093 0.535,-0.104 0.575,-0.126L0.397,-0.298L0.544,-0.298Z" style="fill-rule:nonzero;"/>
        </g>
        <g transform="matrix(57.8618,0,0,57.8648,3504.81,235.157)">
            <path d="M0.346,-0.321L0.579,-0L0.44,-0L0.225,-0.309L0.204,-0.309L0.204,-0L0.09,-0L0.09,-0.754L0.224,-0.754C0.323,-0.754 0.395,-0.735 0.439,-0.698C0.488,-0.656 0.513,-0.601 0.513,-0.533C0.513,-0.479 0.497,-0.433 0.467,-0.395C0.436,-0.357 0.396,-0.332 0.346,-0.321ZM0.204,-0.408L0.24,-0.408C0.348,-0.408 0.402,-0.449 0.402,-0.531C0.402,-0.608 0.349,-0.647 0.245,-0.647L0.204,-0.647L0.204,-0.408Z" style="fill-rule:nonzero;"/>
        </g>
        <g transform="matrix(57.8618,0,0,57.8648,3539.65,235.157)">
            <path d="M0.517,-0.642L0.424,-0.587C0.407,-0.617 0.391,-0.636 0.375,-0.646C0.359,-0.656 0.338,-0.661 0.312,-0.661C0.28,-0.661 0.254,-0.652 0.233,-0.634C0.213,-0.617 0.202,-0.595 0.202,-0.568C0.202,-0.531 0.229,-0.501 0.284,-0.479L0.359,-0.448C0.421,-0.424 0.465,-0.393 0.494,-0.358C0.522,-0.322 0.536,-0.278 0.536,-0.227C0.536,-0.157 0.513,-0.1 0.467,-0.055C0.42,-0.009 0.362,0.014 0.293,0.014C0.228,0.014 0.174,-0.006 0.131,-0.044C0.089,-0.083 0.063,-0.138 0.053,-0.208L0.168,-0.233C0.173,-0.189 0.182,-0.159 0.195,-0.142C0.219,-0.109 0.253,-0.093 0.298,-0.093C0.333,-0.093 0.363,-0.105 0.386,-0.128C0.41,-0.152 0.421,-0.182 0.421,-0.219C0.421,-0.233 0.419,-0.247 0.415,-0.259C0.411,-0.271 0.405,-0.282 0.396,-0.293C0.388,-0.303 0.376,-0.313 0.363,-0.322C0.349,-0.33 0.333,-0.339 0.314,-0.347L0.241,-0.377C0.138,-0.421 0.086,-0.485 0.086,-0.569C0.086,-0.625 0.108,-0.673 0.151,-0.711C0.195,-0.749 0.249,-0.769 0.313,-0.769C0.4,-0.769 0.468,-0.726 0.517,-0.642Z" style="fill-rule:nonzero;"/>
        </g>
        <g transform="matrix(57.8618,0,0,57.8648,3574.2,235.157)">
            <path d="M0.298,-0.647L0.298,-0L0.185,-0L0.185,-0.647L0.011,-0.647L0.011,-0.754L0.471,-0.754L0.471,-0.647L0.298,-0.647Z" style="fill-rule:nonzero;"/>
        </g>
        <g transform="matrix(57.8618,0,0,57.8648,3602.11,235.157)">
            <path d="M0.204,-0.754L0.204,-0.3C0.204,-0.235 0.215,-0.188 0.236,-0.158C0.267,-0.114 0.312,-0.093 0.369,-0.093C0.427,-0.093 0.471,-0.114 0.503,-0.158C0.524,-0.187 0.535,-0.234 0.535,-0.3L0.535,-0.754L0.648,-0.754L0.648,-0.269C0.648,-0.189 0.624,-0.124 0.574,-0.072C0.519,-0.015 0.45,0.014 0.369,0.014C0.288,0.014 0.22,-0.015 0.165,-0.072C0.115,-0.124 0.09,-0.189 0.09,-0.269L0.09,-0.754L0.204,-0.754Z" style="fill-rule:nonzero;"/>
        </g>
        <g transform="matrix(57.8618,0,0,57.8648,3644.86,235.157)">
            <path d="M0.128,-0.754L0.337,-0.231L0.548,-0.754L0.673,-0.754L0.334,0.057L0.004,-0.754L0.128,-0.754Z" style="fill-rule:nonzero;"/>
        </g>
        <g transform="matrix(57.8618,0,0,57.8648,3683.99,235.157)">
            <path d="M0.127,-0.754L0.324,-0.25L0.529,-0.791L0.725,-0.25L0.934,-0.754L1.057,-0.754L0.72,0.048L0.526,-0.486L0.324,0.048L0.004,-0.754L0.127,-0.754Z" style="fill-rule:nonzero;"/>
        </g>
        <g transform="matrix(57.8618,0,0,57.8648,3745.36,235.157)">
            <path d="M0.248,-0.394L0.041,-0.754L0.17,-0.754L0.314,-0.499L0.465,-0.754L0.596,-0.754L0.378,-0.394L0.606,-0L0.479,-0L0.312,-0.289L0.14,-0L0.011,-0L0.248,-0.394Z" style="fill-rule:nonzero;"/>
        </g>
        <g transform="matrix(57.8618,0,0,57.8648,3781.1,235.157)">
            <path d="M0.243,-0.326L-0.003,-0.754L0.127,-0.754L0.3,-0.453L0.473,-0.754L0.604,-0.754L0.356,-0.326L0.356,-0L0.243,-0L0.243,-0.326Z" style="fill-rule:nonzero;"/>
        </g>
        <g transform="matrix(57.8618,0,0,57.8648,3815.82,235.157)">
            <path d="M0.221,-0.107L0.583,-0.107L0.583,-0L0.034,-0L0.404,-0.647L0.094,-0.647L0.094,-0.754L0.591,-0.754L0.221,-0.107Z" style="fill-rule:nonzero;"/>
        </g>
        <g transform="matrix(57.8618,0,0,57.8648,2967.54,301.823)">
            <path d="M0.42,-0.476L0.53,-0.476L0.53,-0L0.42,-0L0.42,-0.05C0.375,-0.007 0.326,0.014 0.274,0.014C0.208,0.014 0.154,-0.01 0.111,-0.058C0.068,-0.106 0.047,-0.167 0.047,-0.239C0.047,-0.311 0.068,-0.37 0.111,-0.417C0.153,-0.465 0.207,-0.489 0.271,-0.489C0.326,-0.489 0.376,-0.466 0.42,-0.42L0.42,-0.476ZM0.159,-0.239C0.159,-0.194 0.171,-0.157 0.196,-0.128C0.221,-0.099 0.252,-0.084 0.291,-0.084C0.331,-0.084 0.364,-0.098 0.389,-0.126C0.414,-0.155 0.427,-0.192 0.427,-0.237C0.427,-0.281 0.414,-0.318 0.389,-0.347C0.364,-0.375 0.332,-0.39 0.292,-0.39C0.254,-0.39 0.222,-0.375 0.197,-0.347C0.172,-0.318 0.159,-0.282 0.159,-0.239Z" style="fill-rule:nonzero;"/>
        </g>
        <g transform="matrix(57.8618,0,0,57.8648,3002.24,301.823)">
            <path d="M0.179,-0.825L0.179,-0.42C0.223,-0.466 0.273,-0.489 0.329,-0.489C0.393,-0.489 0.446,-0.465 0.489,-0.417C0.531,-0.369 0.553,-0.31 0.553,-0.239C0.553,-0.166 0.531,-0.105 0.488,-0.058C0.446,-0.01 0.392,0.014 0.327,0.014C0.272,0.014 0.222,-0.007 0.179,-0.05L0.179,-0L0.069,-0L0.069,-0.825L0.179,-0.825ZM0.44,-0.234C0.44,-0.28 0.428,-0.317 0.403,-0.346C0.378,-0.375 0.347,-0.39 0.309,-0.39C0.269,-0.39 0.236,-0.375 0.21,-0.347C0.185,-0.319 0.173,-0.283 0.173,-0.238C0.173,-0.192 0.185,-0.155 0.21,-0.127C0.235,-0.099 0.267,-0.084 0.308,-0.084C0.346,-0.084 0.377,-0.099 0.402,-0.127C0.428,-0.156 0.44,-0.191 0.44,-0.234Z" style="fill-rule:nonzero;"/>
        </g>
        <g transform="matrix(57.8618,0,0,57.8648,3036.93,301.823)">
            <path d="M0.439,-0.455L0.439,-0.309C0.414,-0.34 0.392,-0.361 0.372,-0.372C0.353,-0.384 0.33,-0.39 0.303,-0.39C0.262,-0.39 0.228,-0.375 0.2,-0.346C0.173,-0.317 0.159,-0.281 0.159,-0.237C0.159,-0.193 0.172,-0.156 0.199,-0.127C0.225,-0.099 0.259,-0.084 0.301,-0.084C0.327,-0.084 0.35,-0.09 0.371,-0.102C0.39,-0.113 0.413,-0.134 0.439,-0.166L0.439,-0.021C0.395,0.002 0.35,0.014 0.306,0.014C0.232,0.014 0.171,-0.01 0.121,-0.058C0.072,-0.105 0.047,-0.165 0.047,-0.236C0.047,-0.307 0.072,-0.367 0.122,-0.416C0.172,-0.464 0.234,-0.489 0.307,-0.489C0.354,-0.489 0.398,-0.478 0.439,-0.455Z" style="fill-rule:nonzero;"/>
        </g>
        <g transform="matrix(57.8618,0,0,57.8648,3064.5,301.823)">
            <path d="M0.42,-0.825L0.53,-0.825L0.53,-0L0.42,-0L0.42,-0.05C0.377,-0.007 0.328,0.014 0.273,0.014C0.208,0.014 0.154,-0.01 0.111,-0.058C0.068,-0.106 0.047,-0.167 0.047,-0.239C0.047,-0.31 0.068,-0.369 0.111,-0.417C0.153,-0.465 0.206,-0.489 0.271,-0.489C0.326,-0.489 0.376,-0.466 0.42,-0.42L0.42,-0.825ZM0.159,-0.239C0.159,-0.194 0.171,-0.157 0.196,-0.128C0.221,-0.099 0.252,-0.084 0.291,-0.084C0.331,-0.084 0.364,-0.098 0.389,-0.126C0.414,-0.155 0.427,-0.192 0.427,-0.237C0.427,-0.281 0.414,-0.318 0.389,-0.347C0.364,-0.375 0.332,-0.39 0.292,-0.39C0.254,-0.39 0.222,-0.375 0.197,-0.347C0.172,-0.318 0.159,-0.282 0.159,-0.239Z" style="fill-rule:nonzero;"/>
        </g>
        <g transform="matrix(57.8618,0,0,57.8648,3099.2,301.823)">
            <path d="M0.502,-0.212L0.162,-0.212C0.165,-0.173 0.177,-0.142 0.2,-0.119C0.222,-0.096 0.251,-0.084 0.286,-0.084C0.313,-0.084 0.336,-0.091 0.354,-0.104C0.372,-0.117 0.392,-0.141 0.414,-0.176L0.507,-0.125C0.493,-0.1 0.477,-0.079 0.461,-0.062C0.445,-0.044 0.428,-0.03 0.41,-0.019C0.392,-0.008 0.372,0.001 0.351,0.006C0.33,0.011 0.307,0.014 0.282,0.014C0.211,0.014 0.154,-0.009 0.111,-0.055C0.068,-0.101 0.047,-0.161 0.047,-0.237C0.047,-0.313 0.068,-0.373 0.109,-0.42C0.151,-0.466 0.207,-0.489 0.276,-0.489C0.346,-0.489 0.402,-0.466 0.442,-0.422C0.483,-0.378 0.503,-0.316 0.503,-0.238L0.502,-0.212ZM0.39,-0.302C0.374,-0.36 0.337,-0.39 0.279,-0.39C0.265,-0.39 0.253,-0.388 0.241,-0.384C0.229,-0.379 0.219,-0.374 0.209,-0.366C0.2,-0.358 0.191,-0.349 0.185,-0.338C0.178,-0.328 0.173,-0.315 0.169,-0.302L0.39,-0.302Z" style="fill-rule:nonzero;"/>
        </g>
        <g transform="matrix(57.8618,0,0,57.8648,3131.21,301.823)">
            <path d="M0.183,-0.373L0.183,-0L0.073,-0L0.073,-0.373L0.034,-0.373L0.034,-0.476L0.073,-0.476L0.073,-0.659C0.073,-0.719 0.083,-0.761 0.104,-0.786C0.133,-0.821 0.174,-0.838 0.229,-0.838C0.249,-0.838 0.273,-0.832 0.303,-0.821L0.303,-0.708L0.292,-0.714C0.268,-0.726 0.248,-0.732 0.233,-0.732C0.213,-0.732 0.2,-0.725 0.193,-0.711C0.187,-0.698 0.183,-0.671 0.183,-0.632L0.183,-0.476L0.303,-0.476L0.303,-0.373L0.183,-0.373Z" style="fill-rule:nonzero;"/>
        </g>
        <g transform="matrix(57.8618,0,0,57.8648,3148.39,301.823)">
            <path d="M0.529,-0.011C0.529,0.011 0.529,0.031 0.527,0.048C0.526,0.065 0.524,0.08 0.521,0.093C0.513,0.129 0.498,0.16 0.475,0.186C0.432,0.235 0.373,0.26 0.298,0.26C0.234,0.26 0.182,0.243 0.141,0.208C0.099,0.173 0.074,0.125 0.068,0.063L0.178,0.063C0.182,0.086 0.189,0.104 0.199,0.117C0.222,0.146 0.255,0.161 0.299,0.161C0.379,0.161 0.419,0.112 0.419,0.013L0.419,-0.053C0.376,-0.009 0.326,0.014 0.269,0.014C0.204,0.014 0.151,-0.01 0.109,-0.057C0.068,-0.104 0.047,-0.164 0.047,-0.235C0.047,-0.304 0.066,-0.363 0.105,-0.412C0.147,-0.463 0.202,-0.489 0.27,-0.489C0.33,-0.489 0.38,-0.466 0.419,-0.422L0.419,-0.476L0.529,-0.476L0.529,-0.011ZM0.424,-0.237C0.424,-0.283 0.411,-0.32 0.387,-0.348C0.362,-0.376 0.33,-0.39 0.291,-0.39C0.249,-0.39 0.216,-0.375 0.192,-0.344C0.17,-0.316 0.159,-0.28 0.159,-0.236C0.159,-0.193 0.17,-0.158 0.192,-0.13C0.216,-0.1 0.249,-0.084 0.291,-0.084C0.333,-0.084 0.366,-0.1 0.39,-0.13C0.413,-0.158 0.424,-0.194 0.424,-0.237Z" style="fill-rule:nonzero;"/>
        </g>
        <g transform="matrix(57.8618,0,0,57.8648,3183.03,301.823)">
            <path d="M0.069,-0.825L0.179,-0.825L0.179,-0.436C0.218,-0.471 0.261,-0.489 0.309,-0.489C0.362,-0.489 0.405,-0.471 0.438,-0.437C0.465,-0.406 0.479,-0.358 0.479,-0.292L0.479,-0L0.369,-0L0.369,-0.281C0.369,-0.319 0.362,-0.347 0.348,-0.364C0.335,-0.381 0.313,-0.39 0.283,-0.39C0.245,-0.39 0.218,-0.378 0.202,-0.354C0.187,-0.33 0.179,-0.289 0.179,-0.23L0.179,-0L0.069,-0L0.069,-0.825Z" style="fill-rule:nonzero;"/>
        </g>
        <g transform="matrix(57.8618,0,0,57.8648,3214.75,301.823)">
            <path d="M0.179,-0.476L0.179,-0L0.069,-0L0.069,-0.476L0.179,-0.476ZM0.053,-0.673C0.053,-0.693 0.06,-0.709 0.074,-0.723C0.088,-0.737 0.104,-0.744 0.124,-0.744C0.144,-0.744 0.161,-0.737 0.175,-0.723C0.189,-0.709 0.196,-0.693 0.196,-0.673C0.196,-0.653 0.189,-0.636 0.175,-0.622C0.161,-0.608 0.144,-0.601 0.125,-0.601C0.105,-0.601 0.088,-0.608 0.074,-0.622C0.06,-0.636 0.053,-0.653 0.053,-0.673ZM0.417,-0.476L0.417,0.259L0.307,0.259L0.307,-0.476L0.417,-0.476ZM0.291,-0.673C0.291,-0.693 0.298,-0.709 0.312,-0.723C0.326,-0.737 0.342,-0.744 0.362,-0.744C0.382,-0.744 0.399,-0.737 0.413,-0.723C0.427,-0.709 0.434,-0.693 0.434,-0.673C0.434,-0.653 0.427,-0.636 0.413,-0.622C0.399,-0.608 0.382,-0.601 0.362,-0.601C0.342,-0.601 0.326,-0.608 0.312,-0.622C0.298,-0.636 0.291,-0.653 0.291,-0.673Z" style="fill-rule:nonzero;"/>
        </g>
        <g transform="matrix(57.8618,0,0,57.8648,3244.59,301.823)">
            <path d="M0.179,-0.825L0.179,-0.322L0.334,-0.476L0.481,-0.476L0.275,-0.276L0.497,-0L0.354,-0L0.197,-0.201L0.179,-0.183L0.179,-0L0.069,-0L0.069,-0.825L0.179,-0.825Z" style="fill-rule:nonzero;"/>
        </g>
        <g transform="matrix(57.8618,0,0,57.8648,3273.41,301.823)">
            <rect x="0.069" y="-0.825" width="0.11" height="0.825" style="fill-rule:nonzero;"/>
        </g>
        <g transform="matrix(57.8618,0,0,57.8648,3287.82,301.823)">
            <path d="M0.069,-0.476L0.179,-0.476L0.179,-0.432C0.2,-0.454 0.218,-0.469 0.233,-0.477C0.249,-0.485 0.269,-0.489 0.293,-0.489C0.347,-0.489 0.39,-0.465 0.421,-0.418C0.455,-0.465 0.502,-0.489 0.561,-0.489C0.668,-0.489 0.722,-0.424 0.722,-0.294L0.722,-0L0.611,-0L0.611,-0.264C0.611,-0.31 0.606,-0.342 0.595,-0.361C0.583,-0.38 0.565,-0.39 0.539,-0.39C0.508,-0.39 0.486,-0.378 0.472,-0.355C0.459,-0.333 0.452,-0.296 0.452,-0.246L0.452,-0L0.341,-0L0.341,-0.263C0.341,-0.347 0.317,-0.39 0.268,-0.39C0.237,-0.39 0.215,-0.378 0.2,-0.355C0.186,-0.332 0.179,-0.295 0.179,-0.246L0.179,-0L0.069,-0L0.069,-0.476Z" style="fill-rule:nonzero;"/>
        </g>
        <g transform="matrix(57.8618,0,0,57.8648,3333.58,301.823)">
            <path d="M0.069,-0.476L0.18,-0.476L0.18,-0.432C0.218,-0.47 0.261,-0.489 0.31,-0.489C0.365,-0.489 0.408,-0.471 0.439,-0.437C0.466,-0.407 0.479,-0.359 0.479,-0.292L0.479,-0L0.369,-0L0.369,-0.266C0.369,-0.313 0.362,-0.345 0.349,-0.363C0.336,-0.381 0.313,-0.39 0.28,-0.39C0.243,-0.39 0.217,-0.378 0.202,-0.354C0.187,-0.33 0.18,-0.289 0.18,-0.229L0.18,-0L0.069,-0L0.069,-0.476Z" style="fill-rule:nonzero;"/>
        </g>
        <g transform="matrix(57.8618,0,0,57.8648,3365.31,301.823)">
            <path d="M0.047,-0.241C0.047,-0.31 0.071,-0.368 0.121,-0.417C0.17,-0.465 0.23,-0.489 0.3,-0.489C0.371,-0.489 0.431,-0.465 0.481,-0.416C0.53,-0.368 0.554,-0.308 0.554,-0.237C0.554,-0.166 0.53,-0.106 0.48,-0.058C0.431,-0.01 0.37,0.014 0.298,0.014C0.227,0.014 0.167,-0.011 0.119,-0.06C0.071,-0.108 0.047,-0.168 0.047,-0.241ZM0.159,-0.239C0.159,-0.192 0.172,-0.154 0.197,-0.126C0.223,-0.098 0.258,-0.084 0.3,-0.084C0.343,-0.084 0.378,-0.098 0.403,-0.126C0.429,-0.154 0.442,-0.191 0.442,-0.237C0.442,-0.283 0.429,-0.32 0.403,-0.348C0.377,-0.376 0.343,-0.39 0.3,-0.39C0.258,-0.39 0.224,-0.376 0.198,-0.348C0.172,-0.32 0.159,-0.284 0.159,-0.239Z" style="fill-rule:nonzero;"/>
        </g>
        <g transform="matrix(57.8618,0,0,57.8648,3400.09,301.823)">
            <path d="M0.179,0.259L0.069,0.259L0.069,-0.476L0.179,-0.476L0.179,-0.424C0.222,-0.467 0.272,-0.489 0.327,-0.489C0.392,-0.489 0.446,-0.465 0.488,-0.417C0.531,-0.369 0.553,-0.308 0.553,-0.235C0.553,-0.164 0.531,-0.105 0.489,-0.057C0.446,-0.01 0.393,0.014 0.329,0.014C0.273,0.014 0.223,-0.009 0.179,-0.053L0.179,0.259ZM0.44,-0.235C0.44,-0.28 0.428,-0.318 0.403,-0.346C0.378,-0.375 0.347,-0.39 0.309,-0.39C0.268,-0.39 0.236,-0.376 0.21,-0.348C0.185,-0.32 0.173,-0.283 0.173,-0.237C0.173,-0.193 0.185,-0.156 0.21,-0.127C0.235,-0.099 0.268,-0.084 0.308,-0.084C0.346,-0.084 0.378,-0.099 0.402,-0.127C0.428,-0.156 0.44,-0.192 0.44,-0.235Z" style="fill-rule:nonzero;"/>
        </g>
        <g transform="matrix(57.8618,0,0,57.8648,3434.79,301.823)">
            <path d="M0.42,0.259L0.42,-0.053C0.376,-0.009 0.326,0.014 0.271,0.014C0.206,0.014 0.153,-0.01 0.111,-0.057C0.068,-0.105 0.047,-0.164 0.047,-0.235C0.047,-0.308 0.068,-0.368 0.111,-0.417C0.154,-0.465 0.208,-0.489 0.272,-0.489C0.327,-0.489 0.377,-0.467 0.42,-0.424L0.42,-0.476L0.53,-0.476L0.53,0.259L0.42,0.259ZM0.159,-0.24C0.159,-0.194 0.172,-0.157 0.196,-0.128C0.221,-0.099 0.252,-0.084 0.291,-0.084C0.331,-0.084 0.364,-0.098 0.389,-0.126C0.414,-0.155 0.427,-0.192 0.427,-0.237C0.427,-0.281 0.414,-0.318 0.389,-0.347C0.364,-0.375 0.332,-0.39 0.292,-0.39C0.254,-0.39 0.222,-0.375 0.197,-0.347C0.172,-0.318 0.159,-0.282 0.159,-0.24Z" style="fill-rule:nonzero;"/>
        </g>
        <g transform="matrix(57.8618,0,0,57.8648,3469.48,301.823)">
            <path d="M0.069,-0.476L0.179,-0.476L0.179,-0.433C0.199,-0.454 0.217,-0.469 0.233,-0.477C0.249,-0.485 0.268,-0.489 0.29,-0.489C0.319,-0.489 0.349,-0.479 0.38,-0.46L0.33,-0.36C0.309,-0.375 0.289,-0.382 0.269,-0.382C0.209,-0.382 0.179,-0.337 0.179,-0.247L0.179,-0L0.069,-0L0.069,-0.476Z" style="fill-rule:nonzero;"/>
        </g>
        <g transform="matrix(57.8618,0,0,57.8648,3491.12,301.823)">
            <path d="M0.346,-0.395L0.255,-0.346C0.241,-0.375 0.223,-0.39 0.202,-0.39C0.192,-0.39 0.183,-0.387 0.176,-0.38C0.169,-0.373 0.165,-0.365 0.165,-0.354C0.165,-0.336 0.186,-0.318 0.229,-0.3C0.287,-0.275 0.326,-0.252 0.346,-0.231C0.366,-0.21 0.376,-0.181 0.376,-0.146C0.376,-0.1 0.36,-0.061 0.326,-0.03C0.293,-0.001 0.253,0.014 0.207,0.014C0.127,0.014 0.07,-0.025 0.037,-0.103L0.131,-0.146C0.144,-0.124 0.154,-0.109 0.161,-0.103C0.174,-0.091 0.19,-0.084 0.208,-0.084C0.246,-0.084 0.264,-0.101 0.264,-0.135C0.264,-0.155 0.25,-0.173 0.221,-0.19C0.21,-0.195 0.199,-0.201 0.188,-0.206C0.177,-0.211 0.166,-0.217 0.154,-0.222C0.122,-0.238 0.1,-0.253 0.087,-0.269C0.07,-0.289 0.062,-0.314 0.062,-0.346C0.062,-0.387 0.076,-0.421 0.104,-0.448C0.133,-0.475 0.169,-0.489 0.21,-0.489C0.271,-0.489 0.316,-0.457 0.346,-0.395Z" style="fill-rule:nonzero;"/>
        </g>
        <g transform="matrix(57.8618,0,0,57.8648,3514.6,301.823)">
            <path d="M0.183,-0.373L0.183,-0L0.073,-0L0.073,-0.373L0.026,-0.373L0.026,-0.476L0.073,-0.476L0.073,-0.65L0.183,-0.65L0.183,-0.476L0.268,-0.476L0.268,-0.373L0.183,-0.373Z" style="fill-rule:nonzero;"/>
        </g>
        <g transform="matrix(57.8618,0,0,57.8648,3530.42,301.823)">
            <path d="M0.179,-0.476L0.179,-0.203C0.179,-0.124 0.21,-0.084 0.272,-0.084C0.335,-0.084 0.366,-0.124 0.366,-0.203L0.366,-0.476L0.476,-0.476L0.476,-0.2C0.476,-0.162 0.471,-0.129 0.461,-0.102C0.452,-0.077 0.437,-0.055 0.414,-0.035C0.377,-0.002 0.33,0.014 0.272,0.014C0.215,0.014 0.168,-0.002 0.131,-0.035C0.109,-0.055 0.092,-0.077 0.083,-0.102C0.074,-0.124 0.069,-0.157 0.069,-0.2L0.069,-0.476L0.179,-0.476Z" style="fill-rule:nonzero;"/>
        </g>
        <g transform="matrix(57.8618,0,0,57.8648,3561.95,301.823)">
            <path d="M0.128,-0.476L0.251,-0.208L0.374,-0.476L0.498,-0.476L0.25,0.033L0.005,-0.476L0.128,-0.476Z" style="fill-rule:nonzero;"/>
        </g>
        <g transform="matrix(57.8618,0,0,57.8648,3591.02,301.823)">
            <path d="M0.129,-0.476L0.253,-0.204L0.388,-0.519L0.523,-0.204L0.646,-0.476L0.769,-0.476L0.52,0.036L0.388,-0.271L0.254,0.036L0.005,-0.476L0.129,-0.476Z" style="fill-rule:nonzero;"/>
        </g>
        <g transform="matrix(57.8618,0,0,57.8648,3635.81,301.823)">
            <path d="M0.217,-0.257L0.046,-0.476L0.177,-0.476L0.283,-0.337L0.391,-0.476L0.525,-0.476L0.35,-0.257L0.553,-0L0.422,-0L0.283,-0.178L0.14,-0L0.005,-0L0.217,-0.257Z" style="fill-rule:nonzero;"/>
        </g>
        <g transform="matrix(57.8618,0,0,57.8648,3668.1,301.823)">
            <path d="M0.219,-0.088L0.005,-0.476L0.133,-0.476L0.278,-0.202L0.414,-0.476L0.538,-0.476L0.159,0.259L0.034,0.259L0.219,-0.088Z" style="fill-rule:nonzero;"/>
        </g>
        <g transform="matrix(57.8618,0,0,57.8648,3699.54,301.823)">
            <path d="M0.227,-0.104L0.51,-0.104L0.51,-0L0.009,-0L0.317,-0.373L0.075,-0.373L0.075,-0.476L0.535,-0.476L0.227,-0.104Z" style="fill-rule:nonzero;"/>
        </g>
        <g transform="matrix(57.8618,0,0,57.8648,3175.1,368.49)">
            <path d="M0.271,-0.647L0.141,-0.647L0.203,-0.754L0.385,-0.754L0.385,-0L0.271,-0L0.271,-0.647Z" style="fill-rule:nonzero;"/>
        </g>
        <g transform="matrix(57.8618,0,0,57.8648,3206.23,368.49)">
            <path d="M0.25,-0.107L0.531,-0.107L0.531,-0L0.025,-0L0.287,-0.317C0.312,-0.348 0.334,-0.376 0.351,-0.399C0.369,-0.422 0.382,-0.441 0.391,-0.457C0.41,-0.488 0.419,-0.515 0.419,-0.54C0.419,-0.575 0.407,-0.604 0.382,-0.628C0.357,-0.652 0.326,-0.664 0.29,-0.664C0.214,-0.664 0.17,-0.618 0.159,-0.528L0.046,-0.528C0.064,-0.687 0.144,-0.767 0.287,-0.767C0.355,-0.767 0.413,-0.745 0.459,-0.701C0.506,-0.658 0.53,-0.604 0.53,-0.539C0.53,-0.498 0.519,-0.458 0.497,-0.418C0.486,-0.398 0.47,-0.374 0.448,-0.345C0.427,-0.317 0.4,-0.284 0.368,-0.246L0.25,-0.107Z" style="fill-rule:nonzero;"/>
        </g>
        <g transform="matrix(57.8618,0,0,57.8648,3241.95,368.49)">
            <path d="M0.259,-0.35L0.259,-0.447C0.307,-0.447 0.339,-0.453 0.356,-0.463C0.386,-0.482 0.4,-0.513 0.4,-0.554C0.4,-0.586 0.39,-0.613 0.368,-0.633C0.347,-0.653 0.319,-0.664 0.286,-0.664C0.254,-0.664 0.23,-0.656 0.212,-0.641C0.196,-0.625 0.183,-0.599 0.175,-0.562L0.062,-0.562C0.074,-0.632 0.098,-0.684 0.134,-0.718C0.171,-0.751 0.222,-0.767 0.287,-0.767C0.353,-0.767 0.407,-0.748 0.449,-0.708C0.49,-0.67 0.511,-0.62 0.511,-0.559C0.511,-0.49 0.484,-0.436 0.429,-0.397C0.492,-0.361 0.523,-0.301 0.523,-0.218C0.523,-0.151 0.5,-0.095 0.455,-0.052C0.409,-0.009 0.351,0.012 0.279,0.012C0.188,0.012 0.121,-0.021 0.077,-0.088C0.059,-0.116 0.047,-0.155 0.042,-0.204L0.152,-0.204C0.158,-0.168 0.172,-0.14 0.195,-0.12C0.218,-0.101 0.247,-0.091 0.284,-0.091C0.32,-0.091 0.351,-0.104 0.375,-0.128C0.399,-0.153 0.411,-0.185 0.411,-0.223C0.411,-0.274 0.393,-0.31 0.357,-0.332C0.336,-0.344 0.303,-0.35 0.259,-0.35Z" style="fill-rule:nonzero;"/>
        </g>
        <g transform="matrix(57.8618,0,0,57.8648,3276.33,368.49)">
            <path d="M0.493,-0.21L0.573,-0.21L0.573,-0.107L0.493,-0.107L0.493,-0L0.379,-0L0.379,-0.107L0.009,-0.107L0.493,-0.81L0.493,-0.21ZM0.379,-0.21L0.379,-0.463L0.206,-0.21L0.379,-0.21Z" style="fill-rule:nonzero;"/>
        </g>
        <g transform="matrix(57.8618,0,0,57.8648,3312.04,368.49)">
            <path d="M0.526,-0.647L0.293,-0.647L0.256,-0.522C0.262,-0.523 0.267,-0.524 0.272,-0.524C0.277,-0.524 0.282,-0.524 0.286,-0.524C0.359,-0.524 0.419,-0.5 0.466,-0.45C0.514,-0.401 0.537,-0.338 0.537,-0.261C0.537,-0.182 0.51,-0.116 0.457,-0.065C0.404,-0.014 0.336,0.012 0.255,0.012C0.155,0.012 0.077,-0.035 0.019,-0.128L0.105,-0.201C0.129,-0.161 0.153,-0.132 0.177,-0.116C0.201,-0.099 0.23,-0.091 0.265,-0.091C0.311,-0.091 0.349,-0.107 0.38,-0.139C0.411,-0.172 0.426,-0.212 0.426,-0.259C0.426,-0.307 0.411,-0.346 0.38,-0.377C0.35,-0.409 0.312,-0.424 0.266,-0.424C0.215,-0.424 0.17,-0.402 0.133,-0.357L0.096,-0.357L0.214,-0.754L0.526,-0.754L0.526,-0.647Z" style="fill-rule:nonzero;"/>
        </g>
        <g transform="matrix(57.8618,0,0,57.8648,3347.75,368.49)">
            <path d="M0.393,-0.78L0.476,-0.718L0.296,-0.473C0.306,-0.474 0.314,-0.475 0.321,-0.476C0.328,-0.476 0.333,-0.477 0.337,-0.477C0.398,-0.477 0.451,-0.453 0.496,-0.406C0.54,-0.36 0.562,-0.304 0.562,-0.239C0.562,-0.17 0.537,-0.111 0.488,-0.062C0.439,-0.012 0.38,0.012 0.311,0.012C0.242,0.012 0.182,-0.012 0.131,-0.061C0.08,-0.109 0.055,-0.167 0.055,-0.233C0.055,-0.292 0.08,-0.356 0.129,-0.422L0.393,-0.78ZM0.451,-0.232C0.451,-0.272 0.437,-0.306 0.41,-0.333C0.382,-0.361 0.348,-0.375 0.309,-0.375C0.269,-0.375 0.235,-0.362 0.208,-0.334C0.18,-0.306 0.166,-0.273 0.166,-0.233C0.166,-0.194 0.18,-0.16 0.208,-0.133C0.235,-0.105 0.269,-0.091 0.309,-0.091C0.348,-0.091 0.382,-0.105 0.409,-0.133C0.437,-0.161 0.451,-0.194 0.451,-0.232Z" style="fill-rule:nonzero;"/>
        </g>
        <g transform="matrix(57.8618,0,0,57.8648,3380.58,368.49)">
            <path d="M0.424,-0.647L0.052,-0.647L0.052,-0.754L0.614,-0.754L0.138,0.026L0.048,-0.031L0.424,-0.647Z" style="fill-rule:nonzero;"/>
        </g>
        <g transform="matrix(57.8618,0,0,57.8648,3416.29,368.49)">
            <path d="M0.174,-0.392C0.118,-0.431 0.091,-0.484 0.091,-0.552C0.091,-0.613 0.112,-0.664 0.154,-0.705C0.196,-0.746 0.249,-0.767 0.312,-0.767C0.374,-0.767 0.426,-0.746 0.468,-0.705C0.509,-0.664 0.53,-0.613 0.53,-0.551C0.53,-0.486 0.503,-0.434 0.448,-0.393C0.478,-0.376 0.502,-0.353 0.519,-0.321C0.537,-0.29 0.545,-0.255 0.545,-0.216C0.545,-0.149 0.524,-0.094 0.48,-0.052C0.436,-0.009 0.381,0.012 0.313,0.012C0.243,0.012 0.185,-0.009 0.14,-0.052C0.095,-0.095 0.072,-0.149 0.072,-0.214C0.072,-0.299 0.106,-0.358 0.174,-0.392ZM0.198,-0.552C0.198,-0.52 0.209,-0.493 0.23,-0.471C0.253,-0.449 0.279,-0.438 0.311,-0.438C0.341,-0.438 0.368,-0.449 0.39,-0.471C0.412,-0.493 0.423,-0.52 0.423,-0.551C0.423,-0.582 0.412,-0.608 0.39,-0.63C0.368,-0.653 0.341,-0.664 0.311,-0.664C0.28,-0.664 0.253,-0.653 0.231,-0.63C0.209,-0.608 0.198,-0.582 0.198,-0.552ZM0.184,-0.218C0.184,-0.183 0.196,-0.153 0.22,-0.128C0.244,-0.104 0.274,-0.091 0.309,-0.091C0.343,-0.091 0.373,-0.104 0.397,-0.128C0.421,-0.153 0.434,-0.182 0.434,-0.217C0.434,-0.252 0.421,-0.281 0.397,-0.306C0.373,-0.33 0.343,-0.342 0.309,-0.342C0.274,-0.342 0.245,-0.33 0.22,-0.306C0.196,-0.281 0.184,-0.252 0.184,-0.218Z" style="fill-rule:nonzero;"/>
        </g>
        <g transform="matrix(57.8618,0,0,57.8648,3452.01,368.49)">
            <path d="M0.225,0.026L0.141,-0.036L0.321,-0.282C0.312,-0.28 0.303,-0.279 0.296,-0.279C0.29,-0.278 0.284,-0.278 0.28,-0.278C0.219,-0.278 0.166,-0.301 0.122,-0.348C0.077,-0.394 0.055,-0.45 0.055,-0.515C0.055,-0.584 0.08,-0.643 0.129,-0.692C0.178,-0.742 0.238,-0.767 0.307,-0.767C0.375,-0.767 0.435,-0.742 0.486,-0.693C0.537,-0.645 0.562,-0.588 0.562,-0.521C0.562,-0.463 0.537,-0.4 0.488,-0.332L0.225,0.026ZM0.166,-0.523C0.166,-0.482 0.18,-0.448 0.208,-0.42C0.236,-0.392 0.269,-0.378 0.309,-0.378C0.348,-0.378 0.382,-0.392 0.409,-0.42C0.437,-0.448 0.451,-0.482 0.451,-0.521C0.451,-0.56 0.437,-0.594 0.409,-0.622C0.382,-0.65 0.348,-0.664 0.308,-0.664C0.269,-0.664 0.236,-0.65 0.208,-0.622C0.18,-0.594 0.166,-0.561 0.166,-0.523Z" style="fill-rule:nonzero;"/>
        </g>
        <g transform="matrix(57.8618,0,0,57.8648,3487.72,368.49)">
            <path d="M0.042,-0.382C0.042,-0.502 0.07,-0.598 0.126,-0.669C0.177,-0.734 0.237,-0.767 0.309,-0.767C0.38,-0.767 0.441,-0.734 0.491,-0.669C0.547,-0.598 0.575,-0.5 0.575,-0.377C0.575,-0.254 0.547,-0.157 0.491,-0.085C0.441,-0.02 0.38,0.012 0.309,0.012C0.238,0.012 0.177,-0.02 0.126,-0.085C0.07,-0.157 0.042,-0.256 0.042,-0.382ZM0.154,-0.381C0.154,-0.298 0.169,-0.228 0.198,-0.173C0.227,-0.118 0.264,-0.091 0.309,-0.091C0.353,-0.091 0.39,-0.118 0.419,-0.173C0.449,-0.227 0.463,-0.295 0.463,-0.377C0.463,-0.46 0.449,-0.528 0.419,-0.583C0.39,-0.637 0.353,-0.664 0.309,-0.664C0.264,-0.664 0.228,-0.637 0.198,-0.583C0.169,-0.529 0.154,-0.462 0.154,-0.381Z" style="fill-rule:nonzero;"/>
        </g>
    </g>
    <g transform="matrix(0.422925,0,0,0.422925,-1121.11,195.153)">
        <g transform="matrix(57.8618,0,0,57.8648,2790.09,235.157)">
            <path d="M0.489,-0.28L0.401,-0.531L0.313,-0.28L0.489,-0.28ZM0.541,-0.131L0.261,-0.131L0.216,-0L0.007,-0L0.294,-0.754L0.508,-0.754L0.795,-0L0.586,-0L0.541,-0.131Z" style="fill-rule:nonzero;"/>
        </g>
        <g transform="matrix(57.8618,0,0,57.8648,2836.49,235.157)">
            <path d="M0.275,-0.152L0.318,-0.152C0.367,-0.152 0.403,-0.158 0.424,-0.171C0.445,-0.184 0.456,-0.204 0.456,-0.232C0.456,-0.26 0.445,-0.28 0.424,-0.293C0.403,-0.306 0.367,-0.312 0.318,-0.312L0.275,-0.312L0.275,-0.152ZM0.275,-0.458L0.311,-0.458C0.372,-0.458 0.403,-0.482 0.403,-0.531C0.403,-0.58 0.372,-0.604 0.311,-0.604L0.275,-0.604L0.275,-0.458ZM0.079,-0.754L0.371,-0.754C0.44,-0.754 0.493,-0.737 0.529,-0.704C0.565,-0.671 0.583,-0.623 0.583,-0.56C0.583,-0.522 0.576,-0.491 0.563,-0.466C0.549,-0.44 0.528,-0.419 0.5,-0.402C0.528,-0.397 0.552,-0.389 0.572,-0.378C0.591,-0.367 0.607,-0.353 0.62,-0.337C0.632,-0.321 0.641,-0.303 0.646,-0.283C0.651,-0.263 0.654,-0.242 0.654,-0.219C0.654,-0.184 0.648,-0.152 0.636,-0.125C0.623,-0.098 0.606,-0.075 0.584,-0.056C0.561,-0.037 0.534,-0.023 0.502,-0.014C0.47,-0.005 0.434,-0 0.394,-0L0.079,-0L0.079,-0.754Z" style="fill-rule:nonzero;"/>
        </g>
        <g transform="matrix(57.8618,0,0,57.8648,2876.53,235.157)">
            <path d="M0.622,-0.502C0.577,-0.557 0.521,-0.585 0.454,-0.585C0.425,-0.585 0.398,-0.58 0.373,-0.569C0.347,-0.558 0.326,-0.544 0.308,-0.526C0.29,-0.507 0.276,-0.485 0.266,-0.46C0.255,-0.435 0.25,-0.407 0.25,-0.378C0.25,-0.348 0.255,-0.32 0.266,-0.295C0.276,-0.27 0.29,-0.248 0.309,-0.229C0.327,-0.21 0.348,-0.196 0.373,-0.185C0.398,-0.174 0.424,-0.169 0.453,-0.169C0.516,-0.169 0.572,-0.196 0.622,-0.249L0.622,-0.017L0.602,-0.01C0.572,0.001 0.544,0.009 0.518,0.014C0.492,0.019 0.466,0.021 0.441,0.021C0.389,0.021 0.339,0.011 0.292,-0.009C0.244,-0.028 0.202,-0.056 0.166,-0.092C0.129,-0.127 0.1,-0.169 0.078,-0.219C0.056,-0.268 0.045,-0.321 0.045,-0.379C0.045,-0.437 0.056,-0.49 0.078,-0.539C0.099,-0.587 0.128,-0.628 0.165,-0.664C0.201,-0.699 0.243,-0.726 0.291,-0.746C0.339,-0.765 0.389,-0.775 0.442,-0.775C0.472,-0.775 0.501,-0.772 0.531,-0.766C0.56,-0.759 0.59,-0.749 0.622,-0.736L0.622,-0.502Z" style="fill-rule:nonzero;"/>
        </g>
        <g transform="matrix(57.8618,0,0,57.8648,2915.13,235.157)">
            <path d="M0.275,-0.166L0.32,-0.166C0.354,-0.166 0.384,-0.171 0.411,-0.182C0.438,-0.193 0.46,-0.207 0.479,-0.226C0.497,-0.245 0.511,-0.267 0.521,-0.293C0.53,-0.318 0.535,-0.346 0.535,-0.377C0.535,-0.407 0.53,-0.435 0.52,-0.461C0.51,-0.487 0.496,-0.509 0.478,-0.528C0.459,-0.547 0.437,-0.561 0.41,-0.572C0.383,-0.583 0.353,-0.588 0.32,-0.588L0.275,-0.588L0.275,-0.166ZM0.079,-0.754L0.369,-0.754C0.42,-0.754 0.468,-0.744 0.514,-0.723C0.559,-0.702 0.598,-0.675 0.632,-0.641C0.665,-0.606 0.692,-0.566 0.711,-0.521C0.73,-0.475 0.74,-0.427 0.74,-0.377C0.74,-0.328 0.731,-0.28 0.712,-0.235C0.693,-0.189 0.666,-0.149 0.633,-0.114C0.599,-0.079 0.56,-0.052 0.515,-0.031C0.47,-0.01 0.421,-0 0.369,-0L0.079,-0L0.079,-0.754Z" style="fill-rule:nonzero;"/>
        </g>
        <g transform="matrix(57.8618,0,0,57.8648,2960.61,235.157)">
            <path d="M0.508,-0.588L0.275,-0.588L0.275,-0.462L0.495,-0.462L0.495,-0.296L0.275,-0.296L0.275,-0.166L0.508,-0.166L0.508,-0L0.079,-0L0.079,-0.754L0.508,-0.754L0.508,-0.588Z" style="fill-rule:nonzero;"/>
        </g>
        <g transform="matrix(57.8618,0,0,57.8648,2993.59,235.157)">
            <path d="M0.511,-0.588L0.275,-0.588L0.275,-0.462L0.49,-0.462L0.49,-0.296L0.275,-0.296L0.275,-0L0.079,-0L0.079,-0.754L0.511,-0.754L0.511,-0.588Z" style="fill-rule:nonzero;"/>
        </g>
        <g transform="matrix(57.8618,0,0,57.8648,3025.35,235.157)">
            <path d="M0.446,-0.422L0.835,-0.422C0.835,-0.382 0.833,-0.346 0.83,-0.313C0.827,-0.28 0.82,-0.25 0.81,-0.222C0.796,-0.183 0.777,-0.148 0.753,-0.118C0.729,-0.087 0.701,-0.062 0.669,-0.042C0.636,-0.021 0.601,-0.006 0.562,0.005C0.523,0.016 0.483,0.021 0.44,0.021C0.381,0.021 0.328,0.011 0.28,-0.008C0.231,-0.027 0.19,-0.054 0.155,-0.09C0.12,-0.125 0.093,-0.167 0.074,-0.216C0.055,-0.265 0.045,-0.319 0.045,-0.378C0.045,-0.437 0.054,-0.491 0.074,-0.54C0.093,-0.588 0.12,-0.63 0.155,-0.665C0.19,-0.7 0.232,-0.727 0.281,-0.746C0.33,-0.765 0.385,-0.775 0.446,-0.775C0.525,-0.775 0.594,-0.758 0.653,-0.724C0.712,-0.69 0.759,-0.637 0.794,-0.566L0.608,-0.489C0.591,-0.53 0.568,-0.56 0.541,-0.578C0.513,-0.596 0.481,-0.605 0.446,-0.605C0.417,-0.605 0.39,-0.6 0.366,-0.589C0.342,-0.578 0.322,-0.562 0.305,-0.542C0.288,-0.521 0.274,-0.497 0.265,-0.468C0.255,-0.439 0.25,-0.407 0.25,-0.372C0.25,-0.34 0.254,-0.31 0.263,-0.283C0.271,-0.256 0.283,-0.232 0.3,-0.212C0.317,-0.192 0.337,-0.177 0.362,-0.166C0.387,-0.155 0.415,-0.149 0.448,-0.149C0.467,-0.149 0.486,-0.151 0.504,-0.156C0.522,-0.16 0.538,-0.167 0.553,-0.177C0.567,-0.186 0.579,-0.199 0.588,-0.214C0.597,-0.229 0.604,-0.248 0.607,-0.27L0.446,-0.27L0.446,-0.422Z" style="fill-rule:nonzero;"/>
        </g>
        <g transform="matrix(57.8618,0,0,57.8648,3076.27,235.157)">
            <path d="M0.275,-0.463L0.558,-0.463L0.558,-0.754L0.754,-0.754L0.754,-0L0.558,-0L0.558,-0.311L0.275,-0.311L0.275,-0L0.079,-0L0.079,-0.754L0.275,-0.754L0.275,-0.463Z" style="fill-rule:nonzero;"/>
        </g>
        <g transform="matrix(57.8618,0,0,57.8648,3124.47,235.157)">
            <path d="M0.776,-0.754L0.776,-0.185C0.776,-0.163 0.775,-0.143 0.773,-0.124C0.77,-0.105 0.766,-0.089 0.761,-0.076C0.75,-0.048 0.731,-0.022 0.704,0.003C0.657,0.046 0.599,0.067 0.53,0.067C0.449,0.067 0.384,0.03 0.333,-0.044L0.461,-0.175C0.464,-0.152 0.472,-0.134 0.483,-0.121C0.494,-0.108 0.508,-0.101 0.525,-0.101C0.562,-0.101 0.58,-0.13 0.58,-0.188L0.58,-0.754L0.776,-0.754ZM0.275,-0.754L0.275,-0L0.079,-0L0.079,-0.754L0.275,-0.754Z" style="fill-rule:nonzero;"/>
        </g>
        <g transform="matrix(57.8618,0,0,57.8648,3173.94,235.157)">
            <path d="M0.275,-0.443L0.514,-0.754L0.756,-0.754L0.457,-0.397L0.784,-0L0.53,-0L0.275,-0.327L0.275,-0L0.079,-0L0.079,-0.754L0.275,-0.754L0.275,-0.443Z" style="fill-rule:nonzero;"/>
        </g>
        <g transform="matrix(57.8618,0,0,57.8648,3219.77,235.157)">
            <path d="M0.275,-0.754L0.275,-0.166L0.51,-0.166L0.51,-0L0.079,-0L0.079,-0.754L0.275,-0.754Z" style="fill-rule:nonzero;"/>
        </g>
        <g transform="matrix(57.8618,0,0,57.8648,3250.55,235.157)">
            <path d="M0.045,-0L0.173,-0.754L0.367,-0.754L0.518,-0.352L0.668,-0.754L0.862,-0.754L0.99,-0L0.795,-0L0.73,-0.434L0.552,-0L0.474,-0L0.305,-0.434L0.24,-0L0.045,-0Z" style="fill-rule:nonzero;"/>
        </g>
        <g transform="matrix(57.8618,0,0,57.8648,3310.44,235.157)">
            <path d="M0.079,-0L0.079,-0.754L0.275,-0.754L0.637,-0.293L0.637,-0.754L0.832,-0.754L0.832,-0L0.637,-0L0.275,-0.461L0.275,-0L0.079,-0Z" style="fill-rule:nonzero;"/>
        </g>
        <g transform="matrix(57.8618,0,0,57.8648,3363.67,235.157)">
            <path d="M0.25,-0.377C0.25,-0.347 0.256,-0.319 0.267,-0.294C0.278,-0.269 0.294,-0.247 0.313,-0.228C0.332,-0.209 0.355,-0.195 0.381,-0.185C0.406,-0.174 0.433,-0.169 0.462,-0.169C0.491,-0.169 0.518,-0.174 0.544,-0.185C0.569,-0.195 0.592,-0.209 0.612,-0.228C0.631,-0.247 0.647,-0.269 0.658,-0.294C0.669,-0.319 0.675,-0.347 0.675,-0.377C0.675,-0.407 0.669,-0.435 0.658,-0.46C0.647,-0.485 0.631,-0.507 0.612,-0.526C0.592,-0.545 0.569,-0.559 0.544,-0.57C0.518,-0.58 0.491,-0.585 0.462,-0.585C0.433,-0.585 0.406,-0.58 0.381,-0.57C0.355,-0.559 0.332,-0.545 0.313,-0.526C0.294,-0.507 0.278,-0.485 0.267,-0.46C0.256,-0.435 0.25,-0.407 0.25,-0.377ZM0.045,-0.377C0.045,-0.433 0.055,-0.485 0.076,-0.534C0.097,-0.582 0.125,-0.624 0.162,-0.66C0.199,-0.696 0.243,-0.724 0.294,-0.745C0.345,-0.765 0.401,-0.775 0.462,-0.775C0.523,-0.775 0.579,-0.765 0.63,-0.745C0.681,-0.724 0.725,-0.696 0.763,-0.66C0.8,-0.624 0.828,-0.582 0.849,-0.534C0.87,-0.485 0.88,-0.433 0.88,-0.377C0.88,-0.321 0.87,-0.269 0.849,-0.221C0.828,-0.172 0.8,-0.13 0.763,-0.094C0.725,-0.058 0.681,-0.03 0.63,-0.01C0.579,0.011 0.523,0.021 0.462,0.021C0.401,0.021 0.345,0.011 0.294,-0.01C0.243,-0.03 0.199,-0.058 0.162,-0.094C0.125,-0.13 0.097,-0.172 0.076,-0.221C0.055,-0.269 0.045,-0.321 0.045,-0.377Z" style="fill-rule:nonzero;"/>
        </g>
        <g transform="matrix(57.8618,0,0,57.8648,3417.19,235.157)">
            <path d="M0.275,-0.408L0.34,-0.408C0.412,-0.408 0.448,-0.439 0.448,-0.502C0.448,-0.565 0.412,-0.596 0.34,-0.596L0.275,-0.596L0.275,-0.408ZM0.275,-0L0.079,-0L0.079,-0.754L0.391,-0.754C0.476,-0.754 0.541,-0.732 0.586,-0.688C0.631,-0.644 0.653,-0.582 0.653,-0.502C0.653,-0.422 0.631,-0.36 0.586,-0.316C0.541,-0.272 0.476,-0.25 0.391,-0.25L0.275,-0.25L0.275,-0Z" style="fill-rule:nonzero;"/>
        </g>
        <g transform="matrix(57.8618,0,0,57.8648,3456.42,235.157)">
            <path d="M0.045,-0.377C0.045,-0.433 0.055,-0.485 0.076,-0.534C0.097,-0.582 0.125,-0.624 0.162,-0.66C0.199,-0.696 0.243,-0.724 0.294,-0.745C0.345,-0.765 0.401,-0.775 0.462,-0.775C0.523,-0.775 0.579,-0.765 0.63,-0.745C0.681,-0.724 0.725,-0.696 0.763,-0.66C0.8,-0.624 0.828,-0.582 0.849,-0.534C0.87,-0.485 0.88,-0.433 0.88,-0.377C0.88,-0.325 0.872,-0.277 0.855,-0.232C0.838,-0.187 0.813,-0.148 0.781,-0.113L0.909,0.021L0.729,0.049L0.66,-0.022C0.631,-0.009 0.6,0.002 0.567,0.01C0.534,0.017 0.499,0.021 0.462,0.021C0.401,0.021 0.345,0.011 0.294,-0.01C0.243,-0.03 0.199,-0.058 0.162,-0.094C0.125,-0.13 0.097,-0.172 0.076,-0.221C0.055,-0.269 0.045,-0.321 0.045,-0.377ZM0.25,-0.377C0.25,-0.347 0.256,-0.319 0.267,-0.294C0.278,-0.269 0.294,-0.247 0.313,-0.228C0.332,-0.209 0.355,-0.195 0.381,-0.185C0.406,-0.174 0.433,-0.169 0.462,-0.169C0.479,-0.169 0.497,-0.171 0.514,-0.175L0.402,-0.293L0.587,-0.316L0.639,-0.261C0.663,-0.294 0.675,-0.333 0.675,-0.377C0.675,-0.407 0.669,-0.435 0.658,-0.46C0.647,-0.485 0.631,-0.507 0.612,-0.526C0.592,-0.545 0.569,-0.559 0.544,-0.57C0.518,-0.58 0.491,-0.585 0.462,-0.585C0.433,-0.585 0.406,-0.58 0.381,-0.57C0.355,-0.559 0.332,-0.545 0.313,-0.526C0.294,-0.507 0.278,-0.485 0.267,-0.46C0.256,-0.435 0.25,-0.407 0.25,-0.377Z" style="fill-rule:nonzero;"/>
        </g>
        <g transform="matrix(57.8618,0,0,57.8648,3509.95,235.157)">
            <path d="M0.275,-0.417L0.312,-0.417C0.351,-0.417 0.38,-0.425 0.401,-0.441C0.422,-0.457 0.432,-0.48 0.432,-0.51C0.432,-0.54 0.422,-0.563 0.401,-0.579C0.38,-0.595 0.351,-0.603 0.312,-0.603L0.275,-0.603L0.275,-0.417ZM0.706,-0L0.462,-0L0.275,-0.29L0.275,-0L0.079,-0L0.079,-0.754L0.384,-0.754C0.426,-0.754 0.463,-0.748 0.494,-0.736C0.525,-0.723 0.551,-0.706 0.572,-0.685C0.592,-0.664 0.607,-0.639 0.618,-0.611C0.628,-0.583 0.633,-0.553 0.633,-0.521C0.633,-0.464 0.619,-0.417 0.592,-0.382C0.564,-0.346 0.523,-0.322 0.469,-0.309L0.706,-0Z" style="fill-rule:nonzero;"/>
        </g>
        <g transform="matrix(57.8618,0,0,57.8648,3550.97,235.157)">
            <path d="M0.493,-0.561C0.472,-0.578 0.45,-0.591 0.429,-0.6C0.408,-0.608 0.387,-0.612 0.367,-0.612C0.342,-0.612 0.321,-0.606 0.305,-0.594C0.289,-0.582 0.281,-0.566 0.281,-0.547C0.281,-0.534 0.285,-0.523 0.293,-0.514C0.301,-0.505 0.312,-0.498 0.325,-0.492C0.338,-0.485 0.352,-0.48 0.369,-0.475C0.385,-0.47 0.401,-0.465 0.417,-0.46C0.481,-0.439 0.528,-0.41 0.558,-0.375C0.587,-0.339 0.602,-0.292 0.602,-0.235C0.602,-0.196 0.596,-0.161 0.583,-0.13C0.57,-0.099 0.551,-0.072 0.526,-0.05C0.501,-0.027 0.47,-0.01 0.434,0.003C0.397,0.015 0.356,0.021 0.31,0.021C0.215,0.021 0.126,-0.007 0.045,-0.064L0.129,-0.222C0.158,-0.196 0.187,-0.177 0.216,-0.164C0.245,-0.151 0.273,-0.145 0.301,-0.145C0.333,-0.145 0.357,-0.152 0.373,-0.167C0.388,-0.182 0.396,-0.198 0.396,-0.217C0.396,-0.228 0.394,-0.238 0.39,-0.247C0.386,-0.255 0.379,-0.263 0.37,-0.27C0.361,-0.277 0.349,-0.283 0.334,-0.289C0.319,-0.295 0.3,-0.302 0.279,-0.309C0.254,-0.317 0.229,-0.326 0.205,-0.336C0.18,-0.345 0.159,-0.358 0.14,-0.374C0.121,-0.39 0.105,-0.41 0.094,-0.435C0.082,-0.459 0.076,-0.49 0.076,-0.527C0.076,-0.564 0.082,-0.598 0.095,-0.629C0.107,-0.659 0.124,-0.685 0.147,-0.707C0.169,-0.728 0.196,-0.745 0.229,-0.757C0.261,-0.769 0.297,-0.775 0.337,-0.775C0.374,-0.775 0.413,-0.77 0.454,-0.76C0.495,-0.749 0.534,-0.734 0.571,-0.714L0.493,-0.561Z" style="fill-rule:nonzero;"/>
        </g>
        <g transform="matrix(57.8618,0,0,57.8648,3588.64,235.157)">
            <path d="M0.365,-0.588L0.365,-0L0.169,-0L0.169,-0.588L0.008,-0.588L0.008,-0.754L0.526,-0.754L0.526,-0.588L0.365,-0.588Z" style="fill-rule:nonzero;"/>
        </g>
        <g transform="matrix(57.8618,0,0,57.8648,3619.54,235.157)">
            <path d="M0.275,-0.754L0.275,-0.344C0.275,-0.322 0.276,-0.3 0.278,-0.277C0.279,-0.254 0.284,-0.233 0.293,-0.214C0.301,-0.195 0.314,-0.18 0.332,-0.169C0.35,-0.157 0.375,-0.151 0.408,-0.151C0.441,-0.151 0.466,-0.157 0.484,-0.169C0.501,-0.18 0.514,-0.195 0.523,-0.214C0.532,-0.233 0.537,-0.254 0.539,-0.277C0.54,-0.3 0.541,-0.322 0.541,-0.344L0.541,-0.754L0.736,-0.754L0.736,-0.317C0.736,-0.2 0.709,-0.114 0.656,-0.06C0.602,-0.006 0.519,0.021 0.408,0.021C0.297,0.021 0.214,-0.006 0.16,-0.06C0.106,-0.114 0.079,-0.2 0.079,-0.317L0.079,-0.754L0.275,-0.754Z" style="fill-rule:nonzero;"/>
        </g>
        <g transform="matrix(57.8618,0,0,57.8648,3666.69,235.157)">
            <path d="M0.213,-0.754L0.395,-0.295L0.578,-0.754L0.791,-0.754L0.473,-0L0.317,-0L0,-0.754L0.213,-0.754Z" style="fill-rule:nonzero;"/>
        </g>
        <g transform="matrix(57.8618,0,0,57.8648,3712.46,235.157)">
            <path d="M0.205,-0.754L0.335,-0.267L0.495,-0.754L0.651,-0.754L0.811,-0.267L0.941,-0.754L1.146,-0.754L0.921,-0L0.721,-0L0.573,-0.437L0.425,-0L0.225,-0L0,-0.754L0.205,-0.754Z" style="fill-rule:nonzero;"/>
        </g>
        <g transform="matrix(57.8618,0,0,57.8648,3778.77,235.157)">
            <path d="M0.295,-0.402L0.06,-0.754L0.302,-0.754L0.404,-0.559L0.53,-0.754L0.772,-0.754L0.523,-0.402L0.804,-0L0.565,-0L0.414,-0.246L0.237,-0L0,-0L0.295,-0.402Z" style="fill-rule:nonzero;"/>
        </g>
        <g transform="matrix(57.8618,0,0,57.8648,3825.29,235.157)">
            <path d="M0.261,-0.362L-0.014,-0.754L0.22,-0.754L0.36,-0.548L0.499,-0.754L0.733,-0.754L0.457,-0.362L0.457,-0L0.261,-0L0.261,-0.362Z" style="fill-rule:nonzero;"/>
        </g>
        <g transform="matrix(57.8618,0,0,57.8648,3867.13,235.157)">
            <path d="M0.344,-0.166L0.66,-0.166L0.66,-0L0.015,-0L0.372,-0.588L0.075,-0.588L0.075,-0.754L0.699,-0.754L0.344,-0.166Z" style="fill-rule:nonzero;"/>
        </g>
        <g transform="matrix(57.8618,0,0,57.8648,2883.36,301.823)">
            <path d="M0.23,-0.258C0.23,-0.241 0.233,-0.226 0.239,-0.212C0.245,-0.197 0.253,-0.185 0.264,-0.174C0.274,-0.163 0.286,-0.155 0.301,-0.149C0.315,-0.143 0.33,-0.14 0.347,-0.14C0.363,-0.14 0.378,-0.143 0.393,-0.149C0.407,-0.155 0.419,-0.163 0.43,-0.174C0.44,-0.185 0.448,-0.197 0.455,-0.211C0.461,-0.225 0.464,-0.24 0.464,-0.256C0.464,-0.272 0.461,-0.287 0.455,-0.302C0.448,-0.316 0.44,-0.328 0.43,-0.339C0.419,-0.35 0.407,-0.358 0.393,-0.364C0.378,-0.37 0.363,-0.373 0.347,-0.373C0.33,-0.373 0.315,-0.37 0.301,-0.364C0.286,-0.358 0.274,-0.35 0.264,-0.339C0.253,-0.328 0.245,-0.316 0.239,-0.303C0.233,-0.289 0.23,-0.274 0.23,-0.258ZM0.458,-0.513L0.64,-0.513L0.64,-0L0.458,-0L0.458,-0.057C0.419,-0.008 0.367,0.016 0.301,0.016C0.264,0.016 0.229,0.009 0.198,-0.005C0.167,-0.018 0.139,-0.037 0.116,-0.062C0.093,-0.087 0.075,-0.116 0.062,-0.149C0.049,-0.182 0.042,-0.219 0.042,-0.258C0.042,-0.295 0.048,-0.329 0.061,-0.363C0.074,-0.396 0.091,-0.424 0.114,-0.449C0.137,-0.474 0.164,-0.493 0.195,-0.508C0.226,-0.522 0.261,-0.529 0.299,-0.529C0.363,-0.529 0.416,-0.507 0.458,-0.462L0.458,-0.513Z" style="fill-rule:nonzero;"/>
        </g>
        <g transform="matrix(57.8618,0,0,57.8648,2923.92,301.823)">
            <path d="M0.471,-0.255C0.471,-0.271 0.468,-0.286 0.462,-0.301C0.456,-0.315 0.448,-0.327 0.437,-0.338C0.426,-0.349 0.414,-0.357 0.4,-0.364C0.386,-0.37 0.371,-0.373 0.354,-0.373C0.338,-0.373 0.323,-0.37 0.309,-0.364C0.295,-0.358 0.283,-0.35 0.273,-0.339C0.262,-0.328 0.254,-0.316 0.248,-0.302C0.241,-0.287 0.238,-0.272 0.238,-0.256C0.238,-0.24 0.241,-0.225 0.247,-0.211C0.253,-0.197 0.261,-0.185 0.272,-0.175C0.283,-0.164 0.295,-0.156 0.31,-0.15C0.324,-0.143 0.339,-0.14 0.355,-0.14C0.371,-0.14 0.386,-0.143 0.4,-0.149C0.414,-0.155 0.426,-0.163 0.437,-0.174C0.447,-0.185 0.455,-0.197 0.462,-0.211C0.468,-0.225 0.471,-0.24 0.471,-0.255ZM0.243,-0.83L0.243,-0.462C0.286,-0.507 0.339,-0.529 0.403,-0.529C0.441,-0.529 0.476,-0.522 0.508,-0.508C0.539,-0.493 0.566,-0.474 0.589,-0.45C0.611,-0.425 0.628,-0.397 0.641,-0.364C0.654,-0.331 0.66,-0.295 0.66,-0.258C0.66,-0.22 0.654,-0.184 0.641,-0.151C0.627,-0.118 0.609,-0.089 0.586,-0.064C0.563,-0.039 0.535,-0.02 0.504,-0.006C0.472,0.009 0.438,0.016 0.401,0.016C0.334,0.016 0.282,-0.008 0.243,-0.057L0.243,-0L0.062,-0L0.062,-0.83L0.243,-0.83Z" style="fill-rule:nonzero;"/>
        </g>
        <g transform="matrix(57.8618,0,0,57.8648,2964.48,301.823)">
            <path d="M0.449,-0.347C0.418,-0.368 0.386,-0.379 0.354,-0.379C0.337,-0.379 0.321,-0.376 0.306,-0.37C0.291,-0.364 0.277,-0.356 0.266,-0.345C0.255,-0.334 0.246,-0.321 0.24,-0.306C0.233,-0.291 0.23,-0.274 0.23,-0.255C0.23,-0.237 0.233,-0.221 0.24,-0.206C0.246,-0.191 0.255,-0.178 0.266,-0.167C0.277,-0.156 0.29,-0.147 0.305,-0.141C0.32,-0.135 0.337,-0.132 0.354,-0.132C0.388,-0.132 0.42,-0.144 0.449,-0.167L0.449,-0.013C0.404,0.006 0.362,0.016 0.322,0.016C0.285,0.016 0.249,0.01 0.216,-0.003C0.182,-0.016 0.152,-0.034 0.127,-0.058C0.101,-0.081 0.08,-0.11 0.065,-0.143C0.05,-0.175 0.042,-0.212 0.042,-0.253C0.042,-0.294 0.049,-0.331 0.064,-0.365C0.079,-0.398 0.099,-0.427 0.124,-0.452C0.149,-0.476 0.18,-0.495 0.215,-0.509C0.25,-0.522 0.287,-0.529 0.327,-0.529C0.371,-0.529 0.412,-0.52 0.449,-0.501L0.449,-0.347Z" style="fill-rule:nonzero;"/>
        </g>
        <g transform="matrix(57.8618,0,0,57.8648,2992.84,301.823)">
            <path d="M0.23,-0.258C0.23,-0.241 0.233,-0.226 0.239,-0.212C0.245,-0.197 0.253,-0.185 0.264,-0.174C0.274,-0.163 0.286,-0.155 0.301,-0.149C0.315,-0.143 0.33,-0.14 0.347,-0.14C0.363,-0.14 0.378,-0.143 0.393,-0.149C0.407,-0.155 0.419,-0.163 0.43,-0.174C0.44,-0.185 0.448,-0.197 0.455,-0.211C0.461,-0.225 0.464,-0.24 0.464,-0.256C0.464,-0.272 0.461,-0.287 0.455,-0.302C0.448,-0.316 0.44,-0.328 0.43,-0.339C0.419,-0.35 0.407,-0.358 0.393,-0.364C0.378,-0.37 0.363,-0.373 0.347,-0.373C0.331,-0.373 0.316,-0.37 0.302,-0.364C0.287,-0.358 0.275,-0.35 0.265,-0.339C0.254,-0.328 0.246,-0.316 0.24,-0.303C0.233,-0.289 0.23,-0.274 0.23,-0.258ZM0.458,-0.83L0.64,-0.83L0.64,-0L0.458,-0L0.458,-0.057C0.419,-0.008 0.367,0.016 0.301,0.016C0.264,0.016 0.229,0.009 0.198,-0.005C0.167,-0.019 0.139,-0.038 0.116,-0.063C0.093,-0.088 0.075,-0.117 0.062,-0.15C0.049,-0.183 0.042,-0.219 0.042,-0.258C0.042,-0.295 0.048,-0.329 0.061,-0.363C0.073,-0.396 0.09,-0.424 0.113,-0.449C0.136,-0.474 0.163,-0.493 0.195,-0.508C0.226,-0.522 0.261,-0.529 0.299,-0.529C0.363,-0.529 0.416,-0.507 0.458,-0.462L0.458,-0.83Z" style="fill-rule:nonzero;"/>
        </g>
        <g transform="matrix(57.8618,0,0,57.8648,3033.4,301.823)">
            <path d="M0.437,-0.331C0.431,-0.356 0.419,-0.377 0.4,-0.392C0.381,-0.407 0.359,-0.415 0.332,-0.415C0.304,-0.415 0.281,-0.408 0.264,-0.393C0.246,-0.378 0.235,-0.358 0.23,-0.331L0.437,-0.331ZM0.225,-0.226C0.225,-0.148 0.262,-0.109 0.335,-0.109C0.374,-0.109 0.404,-0.125 0.424,-0.157L0.599,-0.157C0.564,-0.04 0.475,0.019 0.334,0.019C0.291,0.019 0.251,0.012 0.215,-0.001C0.179,-0.014 0.148,-0.032 0.123,-0.056C0.097,-0.08 0.077,-0.109 0.063,-0.142C0.049,-0.175 0.042,-0.213 0.042,-0.254C0.042,-0.297 0.049,-0.335 0.062,-0.37C0.075,-0.404 0.094,-0.433 0.119,-0.457C0.144,-0.481 0.173,-0.5 0.209,-0.513C0.244,-0.526 0.283,-0.532 0.327,-0.532C0.37,-0.532 0.409,-0.526 0.444,-0.513C0.479,-0.5 0.508,-0.481 0.532,-0.456C0.556,-0.431 0.574,-0.401 0.587,-0.366C0.6,-0.33 0.606,-0.29 0.606,-0.245L0.606,-0.226L0.225,-0.226Z" style="fill-rule:nonzero;"/>
        </g>
        <g transform="matrix(57.8618,0,0,57.8648,3070.83,301.823)">
            <path d="M0.258,-0.362L0.258,-0L0.077,-0L0.077,-0.362L0.012,-0.362L0.012,-0.513L0.077,-0.513L0.077,-0.59C0.077,-0.633 0.081,-0.667 0.089,-0.692C0.096,-0.713 0.106,-0.733 0.121,-0.752C0.136,-0.77 0.153,-0.786 0.173,-0.799C0.192,-0.812 0.213,-0.823 0.236,-0.83C0.259,-0.837 0.281,-0.841 0.303,-0.841C0.318,-0.841 0.333,-0.839 0.346,-0.836C0.359,-0.833 0.372,-0.828 0.385,-0.822L0.385,-0.664C0.373,-0.67 0.362,-0.675 0.352,-0.678C0.341,-0.681 0.33,-0.682 0.319,-0.682C0.312,-0.682 0.304,-0.681 0.297,-0.679C0.289,-0.676 0.282,-0.671 0.275,-0.664C0.268,-0.657 0.264,-0.646 0.262,-0.633C0.259,-0.619 0.258,-0.6 0.258,-0.577L0.258,-0.513L0.385,-0.513L0.385,-0.362L0.258,-0.362Z" style="fill-rule:nonzero;"/>
        </g>
        <g transform="matrix(57.8618,0,0,57.8648,3093.46,301.823)">
            <path d="M0.23,-0.259C0.23,-0.242 0.233,-0.227 0.239,-0.213C0.245,-0.198 0.253,-0.186 0.264,-0.175C0.274,-0.164 0.286,-0.156 0.301,-0.15C0.315,-0.144 0.33,-0.141 0.347,-0.141C0.363,-0.141 0.378,-0.144 0.393,-0.15C0.407,-0.156 0.419,-0.164 0.43,-0.175C0.44,-0.186 0.448,-0.198 0.455,-0.213C0.461,-0.227 0.464,-0.242 0.464,-0.258C0.464,-0.275 0.461,-0.29 0.455,-0.304C0.448,-0.318 0.44,-0.33 0.429,-0.341C0.418,-0.352 0.406,-0.36 0.392,-0.366C0.377,-0.372 0.362,-0.375 0.347,-0.375C0.331,-0.375 0.316,-0.372 0.302,-0.366C0.288,-0.359 0.276,-0.351 0.265,-0.341C0.254,-0.33 0.246,-0.318 0.24,-0.304C0.233,-0.29 0.23,-0.275 0.23,-0.259ZM0.636,-0.513L0.636,-0.035C0.636,-0.006 0.634,0.019 0.631,0.042C0.628,0.065 0.623,0.085 0.617,0.102C0.609,0.124 0.596,0.145 0.58,0.164C0.563,0.183 0.542,0.199 0.518,0.213C0.494,0.227 0.467,0.238 0.437,0.246C0.406,0.254 0.373,0.258 0.338,0.258C0.298,0.258 0.261,0.253 0.228,0.243C0.195,0.233 0.166,0.219 0.141,0.202C0.116,0.184 0.095,0.163 0.079,0.14C0.063,0.116 0.052,0.09 0.047,0.062L0.251,0.062C0.264,0.096 0.292,0.113 0.337,0.113C0.375,0.113 0.404,0.102 0.425,0.081C0.445,0.06 0.455,0.03 0.455,-0.008L0.455,-0.057C0.442,-0.044 0.429,-0.034 0.417,-0.026C0.404,-0.017 0.392,-0.01 0.379,-0.005C0.366,0 0.353,0.004 0.339,0.007C0.325,0.009 0.31,0.01 0.293,0.01C0.256,0.01 0.223,0.004 0.192,-0.009C0.161,-0.022 0.135,-0.039 0.113,-0.062C0.09,-0.085 0.073,-0.112 0.061,-0.144C0.048,-0.175 0.042,-0.21 0.042,-0.249C0.042,-0.288 0.049,-0.325 0.062,-0.359C0.075,-0.392 0.094,-0.422 0.117,-0.447C0.139,-0.471 0.167,-0.491 0.199,-0.506C0.23,-0.52 0.265,-0.527 0.302,-0.527C0.363,-0.527 0.414,-0.504 0.455,-0.459L0.455,-0.513L0.636,-0.513Z" style="fill-rule:nonzero;"/>
        </g>
        <g transform="matrix(57.8618,0,0,57.8648,3133.79,301.823)">
            <path d="M0.062,-0.83L0.243,-0.83L0.243,-0.448C0.268,-0.478 0.293,-0.498 0.318,-0.509C0.343,-0.519 0.373,-0.524 0.407,-0.524C0.472,-0.524 0.521,-0.506 0.554,-0.471C0.587,-0.435 0.603,-0.387 0.603,-0.326L0.603,-0L0.422,-0L0.422,-0.259C0.422,-0.285 0.42,-0.306 0.416,-0.322C0.412,-0.338 0.405,-0.35 0.396,-0.359C0.38,-0.373 0.361,-0.38 0.338,-0.38C0.307,-0.38 0.284,-0.371 0.268,-0.353C0.251,-0.334 0.243,-0.308 0.243,-0.274L0.243,-0L0.062,-0L0.062,-0.83Z" style="fill-rule:nonzero;"/>
        </g>
        <g transform="matrix(57.8618,0,0,57.8648,3172.21,301.823)">
            <path d="M0.243,-0.513L0.243,-0L0.062,-0L0.062,-0.513L0.243,-0.513ZM0.05,-0.71C0.05,-0.724 0.053,-0.737 0.058,-0.75C0.063,-0.762 0.071,-0.773 0.08,-0.782C0.089,-0.791 0.1,-0.799 0.113,-0.804C0.125,-0.809 0.138,-0.812 0.152,-0.812C0.166,-0.812 0.179,-0.809 0.192,-0.804C0.204,-0.799 0.215,-0.791 0.224,-0.782C0.233,-0.773 0.241,-0.762 0.246,-0.75C0.251,-0.737 0.254,-0.724 0.254,-0.71C0.254,-0.696 0.251,-0.683 0.246,-0.671C0.241,-0.658 0.233,-0.647 0.224,-0.638C0.215,-0.629 0.204,-0.621 0.192,-0.616C0.179,-0.611 0.166,-0.608 0.152,-0.608C0.138,-0.608 0.125,-0.611 0.113,-0.616C0.1,-0.621 0.089,-0.629 0.08,-0.638C0.071,-0.647 0.063,-0.658 0.058,-0.671C0.053,-0.683 0.05,-0.696 0.05,-0.71ZM0.566,-0.513L0.566,0.256L0.385,0.256L0.385,-0.513L0.566,-0.513ZM0.373,-0.71C0.373,-0.724 0.376,-0.737 0.381,-0.75C0.386,-0.762 0.394,-0.773 0.403,-0.782C0.412,-0.791 0.423,-0.799 0.436,-0.804C0.448,-0.809 0.461,-0.812 0.475,-0.812C0.489,-0.812 0.502,-0.809 0.515,-0.804C0.527,-0.799 0.538,-0.791 0.547,-0.782C0.556,-0.773 0.564,-0.762 0.569,-0.75C0.574,-0.737 0.577,-0.724 0.577,-0.71C0.577,-0.696 0.574,-0.683 0.569,-0.671C0.564,-0.658 0.556,-0.647 0.547,-0.638C0.538,-0.629 0.527,-0.621 0.515,-0.616C0.502,-0.611 0.489,-0.608 0.475,-0.608C0.461,-0.608 0.448,-0.611 0.436,-0.616C0.423,-0.621 0.412,-0.629 0.403,-0.638C0.394,-0.647 0.386,-0.658 0.381,-0.671C0.376,-0.683 0.373,-0.696 0.373,-0.71Z" style="fill-rule:nonzero;"/>
        </g>
        <g transform="matrix(57.8618,0,0,57.8648,3208.49,301.823)">
            <path d="M0.243,-0.83L0.243,-0.328L0.433,-0.513L0.681,-0.513L0.424,-0.276L0.696,-0L0.442,-0L0.243,-0.209L0.243,-0L0.062,-0L0.062,-0.83L0.243,-0.83Z" style="fill-rule:nonzero;"/>
        </g>
        <g transform="matrix(57.8618,0,0,57.8648,3248.87,301.823)">
            <rect x="0.062" y="-0.83" width="0.181" height="0.83" style="fill-rule:nonzero;"/>
        </g>
        <g transform="matrix(57.8618,0,0,57.8648,3266.52,301.823)">
            <path d="M0.062,-0.513L0.243,-0.513L0.243,-0.45C0.292,-0.497 0.348,-0.521 0.409,-0.521C0.485,-0.521 0.543,-0.489 0.583,-0.425C0.624,-0.49 0.682,-0.522 0.757,-0.522C0.781,-0.522 0.804,-0.519 0.825,-0.512C0.846,-0.505 0.865,-0.494 0.88,-0.479C0.895,-0.464 0.908,-0.444 0.917,-0.42C0.926,-0.396 0.93,-0.367 0.93,-0.333L0.93,-0L0.749,-0L0.749,-0.253C0.749,-0.279 0.747,-0.3 0.744,-0.317C0.74,-0.334 0.735,-0.347 0.728,-0.356C0.721,-0.365 0.712,-0.372 0.703,-0.375C0.694,-0.378 0.684,-0.38 0.673,-0.38C0.615,-0.38 0.586,-0.338 0.586,-0.253L0.586,-0L0.405,-0L0.405,-0.253C0.405,-0.279 0.403,-0.301 0.4,-0.318C0.397,-0.335 0.392,-0.348 0.386,-0.358C0.379,-0.368 0.371,-0.375 0.361,-0.379C0.351,-0.382 0.339,-0.384 0.326,-0.384C0.315,-0.384 0.304,-0.382 0.294,-0.379C0.284,-0.376 0.275,-0.369 0.268,-0.36C0.26,-0.35 0.254,-0.337 0.25,-0.32C0.245,-0.303 0.243,-0.28 0.243,-0.253L0.243,-0L0.062,-0L0.062,-0.513Z" style="fill-rule:nonzero;"/>
        </g>
        <g transform="matrix(57.8618,0,0,57.8648,3323.92,301.823)">
            <path d="M0.062,-0.513L0.243,-0.513L0.243,-0.448C0.268,-0.478 0.293,-0.498 0.318,-0.509C0.343,-0.519 0.373,-0.524 0.407,-0.524C0.443,-0.524 0.474,-0.518 0.5,-0.507C0.525,-0.495 0.547,-0.478 0.565,-0.457C0.58,-0.44 0.59,-0.42 0.595,-0.399C0.6,-0.378 0.603,-0.353 0.603,-0.326L0.603,-0L0.422,-0L0.422,-0.259C0.422,-0.284 0.42,-0.305 0.417,-0.321C0.413,-0.336 0.406,-0.349 0.397,-0.358C0.389,-0.366 0.38,-0.372 0.37,-0.375C0.36,-0.378 0.349,-0.38 0.338,-0.38C0.307,-0.38 0.284,-0.371 0.268,-0.353C0.251,-0.334 0.243,-0.308 0.243,-0.274L0.243,-0L0.062,-0L0.062,-0.513Z" style="fill-rule:nonzero;"/>
        </g>
        <g transform="matrix(57.8618,0,0,57.8648,3362.34,301.823)">
            <path d="M0.233,-0.259C0.233,-0.242 0.236,-0.226 0.243,-0.212C0.249,-0.197 0.257,-0.185 0.268,-0.174C0.278,-0.163 0.29,-0.155 0.305,-0.149C0.319,-0.143 0.334,-0.14 0.35,-0.14C0.366,-0.14 0.381,-0.143 0.396,-0.149C0.41,-0.155 0.422,-0.163 0.433,-0.174C0.443,-0.185 0.451,-0.197 0.458,-0.212C0.464,-0.226 0.467,-0.241 0.467,-0.258C0.467,-0.274 0.464,-0.289 0.458,-0.304C0.451,-0.318 0.443,-0.33 0.433,-0.341C0.422,-0.352 0.41,-0.36 0.396,-0.366C0.381,-0.372 0.366,-0.375 0.35,-0.375C0.334,-0.375 0.319,-0.372 0.305,-0.366C0.29,-0.36 0.278,-0.352 0.268,-0.341C0.257,-0.33 0.249,-0.318 0.243,-0.304C0.236,-0.29 0.233,-0.275 0.233,-0.259ZM0.042,-0.261C0.042,-0.299 0.05,-0.335 0.065,-0.368C0.08,-0.401 0.102,-0.429 0.129,-0.454C0.156,-0.478 0.189,-0.497 0.227,-0.511C0.264,-0.525 0.305,-0.532 0.35,-0.532C0.394,-0.532 0.435,-0.525 0.473,-0.512C0.51,-0.498 0.543,-0.479 0.571,-0.455C0.598,-0.43 0.62,-0.401 0.635,-0.368C0.65,-0.334 0.658,-0.297 0.658,-0.256C0.658,-0.215 0.65,-0.178 0.635,-0.145C0.619,-0.111 0.597,-0.082 0.57,-0.058C0.543,-0.033 0.51,-0.014 0.472,-0.001C0.433,0.012 0.392,0.019 0.347,0.019C0.303,0.019 0.262,0.012 0.225,-0.001C0.188,-0.014 0.156,-0.033 0.129,-0.058C0.101,-0.083 0.08,-0.112 0.065,-0.147C0.05,-0.181 0.042,-0.219 0.042,-0.261Z" style="fill-rule:nonzero;"/>
        </g>
        <g transform="matrix(57.8618,0,0,57.8648,3402.84,301.823)">
            <path d="M0.471,-0.255C0.471,-0.271 0.468,-0.286 0.463,-0.301C0.457,-0.315 0.449,-0.327 0.438,-0.338C0.427,-0.349 0.415,-0.357 0.401,-0.364C0.386,-0.37 0.371,-0.373 0.354,-0.373C0.338,-0.373 0.323,-0.37 0.309,-0.364C0.295,-0.358 0.283,-0.35 0.273,-0.339C0.262,-0.328 0.254,-0.316 0.248,-0.302C0.241,-0.287 0.238,-0.272 0.238,-0.256C0.238,-0.24 0.241,-0.225 0.247,-0.211C0.253,-0.197 0.261,-0.185 0.272,-0.175C0.283,-0.164 0.295,-0.156 0.31,-0.15C0.324,-0.143 0.339,-0.14 0.355,-0.14C0.371,-0.14 0.386,-0.143 0.4,-0.149C0.414,-0.155 0.426,-0.163 0.437,-0.174C0.447,-0.185 0.455,-0.197 0.462,-0.211C0.468,-0.225 0.471,-0.24 0.471,-0.255ZM0.243,0.256L0.062,0.256L0.062,-0.513L0.243,-0.513L0.243,-0.456C0.282,-0.505 0.334,-0.529 0.401,-0.529C0.438,-0.529 0.472,-0.522 0.504,-0.508C0.535,-0.493 0.563,-0.474 0.586,-0.449C0.609,-0.424 0.627,-0.395 0.641,-0.362C0.654,-0.329 0.66,-0.293 0.66,-0.255C0.66,-0.217 0.654,-0.182 0.641,-0.149C0.627,-0.116 0.61,-0.088 0.587,-0.063C0.564,-0.038 0.536,-0.019 0.505,-0.005C0.474,0.009 0.44,0.016 0.403,0.016C0.339,0.016 0.286,-0.006 0.243,-0.05L0.243,0.256Z" style="fill-rule:nonzero;"/>
        </g>
        <g transform="matrix(57.8618,0,0,57.8648,3443.41,301.823)">
            <path d="M0.23,-0.258C0.23,-0.241 0.233,-0.226 0.239,-0.212C0.245,-0.197 0.253,-0.185 0.264,-0.174C0.274,-0.163 0.286,-0.155 0.301,-0.149C0.315,-0.143 0.33,-0.14 0.347,-0.14C0.363,-0.14 0.378,-0.143 0.393,-0.149C0.407,-0.155 0.419,-0.163 0.43,-0.174C0.44,-0.185 0.448,-0.197 0.455,-0.212C0.461,-0.226 0.464,-0.241 0.464,-0.257C0.464,-0.273 0.461,-0.288 0.455,-0.302C0.448,-0.316 0.44,-0.328 0.43,-0.339C0.419,-0.35 0.407,-0.358 0.393,-0.364C0.378,-0.37 0.363,-0.373 0.347,-0.373C0.331,-0.373 0.316,-0.37 0.302,-0.364C0.287,-0.358 0.275,-0.35 0.265,-0.339C0.254,-0.328 0.246,-0.316 0.24,-0.303C0.233,-0.289 0.23,-0.274 0.23,-0.258ZM0.458,0.256L0.458,-0.05C0.416,-0.006 0.363,0.016 0.299,0.016C0.262,0.016 0.228,0.009 0.197,-0.005C0.166,-0.019 0.138,-0.038 0.116,-0.063C0.093,-0.088 0.075,-0.117 0.062,-0.15C0.049,-0.183 0.042,-0.218 0.042,-0.255C0.042,-0.294 0.049,-0.33 0.062,-0.363C0.075,-0.396 0.094,-0.425 0.117,-0.45C0.14,-0.475 0.168,-0.494 0.199,-0.508C0.23,-0.522 0.264,-0.529 0.301,-0.529C0.367,-0.529 0.419,-0.505 0.458,-0.456L0.458,-0.513L0.64,-0.513L0.64,0.256L0.458,0.256Z" style="fill-rule:nonzero;"/>
        </g>
        <g transform="matrix(57.8618,0,0,57.8648,3483.97,301.823)">
            <path d="M0.062,-0.513L0.243,-0.513L0.243,-0.429C0.262,-0.46 0.286,-0.483 0.314,-0.5C0.342,-0.516 0.375,-0.524 0.412,-0.524L0.428,-0.524C0.433,-0.524 0.44,-0.523 0.447,-0.522L0.447,-0.349C0.423,-0.361 0.397,-0.367 0.369,-0.367C0.327,-0.367 0.296,-0.355 0.275,-0.33C0.254,-0.305 0.243,-0.268 0.243,-0.22L0.243,-0L0.062,-0L0.062,-0.513Z" style="fill-rule:nonzero;"/>
        </g>
        <g transform="matrix(57.8618,0,0,57.8648,3510.76,301.823)">
            <path d="M0.402,-0.381C0.369,-0.398 0.336,-0.407 0.304,-0.407C0.287,-0.407 0.274,-0.404 0.264,-0.397C0.253,-0.39 0.248,-0.381 0.248,-0.37C0.248,-0.364 0.249,-0.359 0.251,-0.356C0.252,-0.352 0.256,-0.348 0.262,-0.345C0.267,-0.342 0.276,-0.339 0.287,-0.336C0.298,-0.333 0.312,-0.33 0.33,-0.326C0.38,-0.316 0.417,-0.298 0.442,-0.273C0.467,-0.247 0.479,-0.214 0.479,-0.174C0.479,-0.144 0.473,-0.117 0.461,-0.093C0.449,-0.069 0.432,-0.049 0.411,-0.033C0.39,-0.016 0.364,-0.004 0.334,0.006C0.304,0.014 0.271,0.019 0.235,0.019C0.166,0.019 0.097,-0.001 0.03,-0.04L0.096,-0.168C0.147,-0.133 0.195,-0.116 0.24,-0.116C0.257,-0.116 0.27,-0.12 0.281,-0.127C0.292,-0.134 0.297,-0.144 0.297,-0.155C0.297,-0.162 0.296,-0.167 0.295,-0.172C0.293,-0.176 0.289,-0.18 0.284,-0.184C0.279,-0.187 0.271,-0.191 0.261,-0.194C0.25,-0.197 0.237,-0.2 0.22,-0.203C0.164,-0.214 0.125,-0.231 0.103,-0.254C0.08,-0.276 0.069,-0.307 0.069,-0.346C0.069,-0.375 0.074,-0.401 0.085,-0.424C0.096,-0.447 0.111,-0.466 0.131,-0.482C0.151,-0.498 0.175,-0.51 0.204,-0.519C0.232,-0.528 0.263,-0.532 0.298,-0.532C0.355,-0.532 0.41,-0.521 0.463,-0.499L0.402,-0.381Z" style="fill-rule:nonzero;"/>
        </g>
        <g transform="matrix(57.8618,0,0,57.8648,3541.02,301.823)">
            <path d="M0.264,-0.362L0.264,-0L0.083,-0L0.083,-0.362L0.023,-0.362L0.023,-0.513L0.083,-0.513L0.083,-0.667L0.264,-0.667L0.264,-0.513L0.367,-0.513L0.367,-0.362L0.264,-0.362Z" style="fill-rule:nonzero;"/>
        </g>
        <g transform="matrix(57.8618,0,0,57.8648,3562.6,301.823)">
            <path d="M0.243,-0.513L0.243,-0.224C0.243,-0.161 0.274,-0.129 0.335,-0.129C0.396,-0.129 0.427,-0.161 0.427,-0.224L0.427,-0.513L0.608,-0.513L0.608,-0.189C0.608,-0.12 0.585,-0.068 0.54,-0.033C0.494,0.002 0.426,0.019 0.335,0.019C0.244,0.019 0.176,0.002 0.131,-0.033C0.085,-0.068 0.062,-0.12 0.062,-0.189L0.062,-0.513L0.243,-0.513Z" style="fill-rule:nonzero;"/>
        </g>
        <g transform="matrix(57.8618,0,0,57.8648,3601.31,301.823)">
            <path d="M0.204,-0.513L0.326,-0.25L0.45,-0.513L0.652,-0.513L0.385,-0L0.264,-0L0,-0.513L0.204,-0.513Z" style="fill-rule:nonzero;"/>
        </g>
        <g transform="matrix(57.8618,0,0,57.8648,3639.04,301.823)">
            <path d="M0.202,-0.513L0.325,-0.243L0.453,-0.513L0.567,-0.513L0.695,-0.235L0.824,-0.513L1.025,-0.513L0.757,-0L0.636,-0L0.508,-0.281L0.386,-0L0.263,-0L0,-0.513L0.202,-0.513Z" style="fill-rule:nonzero;"/>
        </g>
        <g transform="matrix(57.8618,0,0,57.8648,3698.35,301.823)">
            <path d="M0.256,-0.278L0.048,-0.513L0.284,-0.513L0.372,-0.407L0.462,-0.513L0.698,-0.513L0.485,-0.278L0.742,-0L0.502,-0L0.371,-0.152L0.239,-0L0,-0L0.256,-0.278Z" style="fill-rule:nonzero;"/>
        </g>
        <g transform="matrix(57.8618,0,0,57.8648,3741.28,301.823)">
            <path d="M0.248,-0.07L0,-0.513L0.21,-0.513L0.347,-0.25L0.48,-0.513L0.688,-0.513L0.276,0.256L0.073,0.256L0.248,-0.07Z" style="fill-rule:nonzero;"/>
        </g>
        <g transform="matrix(57.8618,0,0,57.8648,3781.09,301.823)">
            <path d="M0.326,-0.151L0.542,-0.151L0.542,-0L0.022,-0L0.264,-0.362L0.055,-0.362L0.055,-0.513L0.566,-0.513L0.326,-0.151Z" style="fill-rule:nonzero;"/>
        </g>
        <g transform="matrix(57.8618,0,0,57.8648,3154.82,368.49)">
            <path d="M0.265,-0.588L0.155,-0.588L0.155,-0.754L0.461,-0.754L0.461,-0L0.265,-0L0.265,-0.588Z" style="fill-rule:nonzero;"/>
        </g>
        <g transform="matrix(57.8618,0,0,57.8648,3190.23,368.49)">
            <path d="M0.635,-0L0.028,-0L0.215,-0.194C0.264,-0.245 0.303,-0.289 0.331,-0.325C0.359,-0.36 0.38,-0.39 0.394,-0.415C0.407,-0.44 0.416,-0.46 0.419,-0.475C0.422,-0.49 0.424,-0.503 0.424,-0.514C0.424,-0.525 0.422,-0.536 0.419,-0.547C0.415,-0.558 0.409,-0.567 0.402,-0.576C0.395,-0.584 0.386,-0.591 0.376,-0.596C0.365,-0.6 0.353,-0.603 0.339,-0.603C0.312,-0.603 0.292,-0.594 0.277,-0.577C0.262,-0.56 0.254,-0.538 0.254,-0.512C0.254,-0.505 0.255,-0.494 0.257,-0.48L0.043,-0.48C0.043,-0.524 0.05,-0.564 0.065,-0.6C0.079,-0.636 0.099,-0.667 0.125,-0.693C0.151,-0.719 0.182,-0.739 0.218,-0.753C0.253,-0.767 0.292,-0.774 0.335,-0.774C0.377,-0.774 0.416,-0.767 0.452,-0.754C0.487,-0.741 0.518,-0.722 0.544,-0.698C0.57,-0.674 0.59,-0.646 0.605,-0.613C0.62,-0.58 0.627,-0.544 0.627,-0.505C0.627,-0.464 0.618,-0.426 0.601,-0.391C0.583,-0.356 0.555,-0.32 0.516,-0.283L0.391,-0.166L0.635,-0.166L0.635,-0Z" style="fill-rule:nonzero;"/>
        </g>
        <g transform="matrix(57.8618,0,0,57.8648,3229.58,368.49)">
            <path d="M0.299,-0.46C0.304,-0.459 0.309,-0.459 0.313,-0.459L0.322,-0.459C0.347,-0.459 0.367,-0.466 0.382,-0.481C0.397,-0.496 0.405,-0.515 0.405,-0.538C0.405,-0.561 0.398,-0.579 0.384,-0.593C0.369,-0.607 0.351,-0.614 0.328,-0.614C0.304,-0.614 0.285,-0.606 0.27,-0.59C0.255,-0.574 0.248,-0.553 0.248,-0.528L0.067,-0.528C0.072,-0.567 0.082,-0.602 0.097,-0.633C0.112,-0.664 0.131,-0.69 0.154,-0.711C0.177,-0.732 0.205,-0.748 0.236,-0.759C0.267,-0.77 0.302,-0.775 0.34,-0.775C0.377,-0.775 0.411,-0.77 0.442,-0.76C0.472,-0.749 0.498,-0.735 0.52,-0.716C0.541,-0.697 0.558,-0.674 0.57,-0.647C0.581,-0.619 0.587,-0.589 0.587,-0.556C0.587,-0.52 0.58,-0.491 0.567,-0.468C0.553,-0.444 0.533,-0.425 0.508,-0.408C0.547,-0.396 0.577,-0.375 0.599,-0.344C0.62,-0.313 0.631,-0.274 0.631,-0.229C0.631,-0.192 0.624,-0.158 0.609,-0.127C0.594,-0.096 0.574,-0.07 0.548,-0.048C0.521,-0.026 0.49,-0.009 0.454,0.003C0.417,0.015 0.377,0.021 0.334,0.021C0.276,0.021 0.224,0.01 0.177,-0.013C0.13,-0.036 0.093,-0.072 0.065,-0.121C0.052,-0.143 0.044,-0.165 0.04,-0.187C0.035,-0.209 0.033,-0.231 0.033,-0.254L0.227,-0.254C0.228,-0.219 0.239,-0.192 0.258,-0.174C0.277,-0.155 0.303,-0.146 0.336,-0.146C0.371,-0.146 0.396,-0.155 0.412,-0.174C0.428,-0.193 0.436,-0.216 0.436,-0.243C0.436,-0.276 0.426,-0.3 0.407,-0.317C0.388,-0.334 0.365,-0.342 0.338,-0.342C0.331,-0.342 0.325,-0.342 0.319,-0.341C0.313,-0.339 0.306,-0.338 0.299,-0.337L0.299,-0.46Z" style="fill-rule:nonzero;"/>
        </g>
        <g transform="matrix(57.8618,0,0,57.8648,3269.85,368.49)">
            <path d="M0.378,-0.305L0.378,-0.602L0.205,-0.305L0.378,-0.305ZM0.56,-0.305L0.651,-0.305L0.651,-0.155L0.56,-0.155L0.56,-0L0.378,-0L0.378,-0.155L0.014,-0.155L0.014,-0.281L0.302,-0.754L0.56,-0.754L0.56,-0.305Z" style="fill-rule:nonzero;"/>
        </g>
        <g transform="matrix(57.8618,0,0,57.8648,3309.2,368.49)">
            <path d="M0.56,-0.588L0.299,-0.588L0.286,-0.505C0.298,-0.506 0.309,-0.507 0.319,-0.509C0.329,-0.51 0.339,-0.51 0.35,-0.51C0.388,-0.51 0.423,-0.503 0.456,-0.49C0.489,-0.477 0.517,-0.458 0.54,-0.435C0.563,-0.412 0.582,-0.384 0.595,-0.351C0.608,-0.318 0.615,-0.283 0.615,-0.244C0.615,-0.203 0.608,-0.167 0.593,-0.134C0.578,-0.101 0.556,-0.074 0.529,-0.051C0.502,-0.028 0.468,-0.01 0.429,0.003C0.39,0.015 0.346,0.021 0.298,0.021C0.253,0.021 0.21,0.016 0.169,0.005C0.128,-0.007 0.089,-0.023 0.053,-0.046L0.082,-0.23C0.115,-0.201 0.149,-0.18 0.184,-0.165C0.219,-0.15 0.252,-0.142 0.283,-0.142C0.323,-0.142 0.355,-0.153 0.378,-0.175C0.401,-0.196 0.413,-0.223 0.413,-0.255C0.413,-0.292 0.397,-0.323 0.366,-0.346C0.335,-0.369 0.294,-0.38 0.243,-0.38C0.22,-0.38 0.197,-0.378 0.173,-0.373C0.149,-0.368 0.125,-0.36 0.102,-0.349L0.165,-0.754L0.56,-0.754L0.56,-0.588Z" style="fill-rule:nonzero;"/>
        </g>
        <g transform="matrix(57.8618,0,0,57.8648,3348.54,368.49)">
            <path d="M0.539,-0.754L0.325,-0.508L0.329,-0.508C0.348,-0.519 0.363,-0.526 0.375,-0.529C0.387,-0.531 0.398,-0.532 0.407,-0.532C0.444,-0.532 0.477,-0.525 0.508,-0.511C0.539,-0.497 0.565,-0.478 0.588,-0.454C0.611,-0.429 0.628,-0.401 0.641,-0.368C0.654,-0.335 0.66,-0.3 0.66,-0.263C0.66,-0.223 0.653,-0.186 0.638,-0.152C0.623,-0.117 0.602,-0.087 0.575,-0.062C0.547,-0.036 0.513,-0.016 0.474,-0.001C0.435,0.014 0.39,0.021 0.341,0.021C0.291,0.021 0.246,0.014 0.207,-0.001C0.168,-0.016 0.134,-0.036 0.107,-0.061C0.079,-0.086 0.058,-0.116 0.043,-0.15C0.028,-0.183 0.021,-0.219 0.021,-0.257C0.021,-0.3 0.031,-0.346 0.05,-0.396C0.069,-0.445 0.098,-0.494 0.137,-0.542L0.312,-0.754L0.539,-0.754ZM0.215,-0.259C0.215,-0.242 0.218,-0.226 0.225,-0.211C0.232,-0.196 0.241,-0.182 0.252,-0.171C0.263,-0.16 0.277,-0.151 0.292,-0.144C0.307,-0.137 0.323,-0.134 0.34,-0.134C0.357,-0.134 0.374,-0.137 0.389,-0.144C0.404,-0.151 0.417,-0.16 0.428,-0.171C0.439,-0.182 0.448,-0.196 0.455,-0.211C0.462,-0.226 0.465,-0.242 0.465,-0.259C0.465,-0.276 0.462,-0.293 0.455,-0.308C0.448,-0.323 0.439,-0.336 0.428,-0.347C0.417,-0.358 0.404,-0.367 0.389,-0.374C0.374,-0.381 0.357,-0.384 0.34,-0.384C0.323,-0.384 0.307,-0.381 0.292,-0.374C0.277,-0.367 0.263,-0.358 0.252,-0.347C0.241,-0.336 0.232,-0.323 0.225,-0.308C0.218,-0.293 0.215,-0.276 0.215,-0.259Z" style="fill-rule:nonzero;"/>
        </g>
        <g transform="matrix(57.8618,0,0,57.8648,3386.33,368.49)">
            <path d="M0.395,-0.588L0.08,-0.588L0.08,-0.754L0.699,-0.754L0.267,-0L0.051,-0L0.395,-0.588Z" style="fill-rule:nonzero;"/>
        </g>
        <g transform="matrix(57.8618,0,0,57.8648,3425.67,368.49)">
            <path d="M0.25,-0.228C0.25,-0.215 0.252,-0.203 0.257,-0.192C0.262,-0.181 0.268,-0.171 0.276,-0.163C0.284,-0.154 0.294,-0.148 0.305,-0.143C0.316,-0.138 0.327,-0.135 0.34,-0.135C0.352,-0.135 0.364,-0.138 0.375,-0.143C0.386,-0.148 0.395,-0.154 0.404,-0.163C0.412,-0.171 0.418,-0.181 0.423,-0.192C0.428,-0.203 0.43,-0.214 0.43,-0.227C0.43,-0.252 0.421,-0.274 0.404,-0.292C0.386,-0.309 0.365,-0.318 0.34,-0.318C0.315,-0.318 0.293,-0.309 0.276,-0.292C0.259,-0.274 0.25,-0.253 0.25,-0.228ZM0.257,-0.562C0.257,-0.539 0.265,-0.519 0.281,-0.503C0.297,-0.486 0.317,-0.478 0.34,-0.478C0.352,-0.478 0.363,-0.48 0.373,-0.485C0.383,-0.49 0.392,-0.496 0.399,-0.504C0.406,-0.511 0.412,-0.52 0.417,-0.53C0.421,-0.54 0.423,-0.55 0.423,-0.561C0.423,-0.584 0.415,-0.603 0.399,-0.62C0.383,-0.636 0.363,-0.644 0.34,-0.644C0.317,-0.644 0.297,-0.636 0.281,-0.62C0.265,-0.604 0.257,-0.585 0.257,-0.562ZM0.201,-0.398C0.122,-0.431 0.083,-0.486 0.083,-0.564C0.083,-0.596 0.089,-0.625 0.102,-0.651C0.115,-0.676 0.132,-0.698 0.155,-0.717C0.177,-0.736 0.204,-0.75 0.236,-0.76C0.267,-0.77 0.302,-0.775 0.34,-0.775C0.378,-0.775 0.413,-0.77 0.445,-0.76C0.476,-0.75 0.503,-0.736 0.526,-0.717C0.548,-0.698 0.565,-0.676 0.578,-0.651C0.591,-0.625 0.597,-0.596 0.597,-0.564C0.597,-0.544 0.595,-0.526 0.591,-0.511C0.587,-0.495 0.58,-0.481 0.571,-0.468C0.561,-0.455 0.548,-0.442 0.533,-0.431C0.517,-0.42 0.497,-0.409 0.474,-0.398C0.577,-0.358 0.628,-0.293 0.628,-0.204C0.628,-0.172 0.621,-0.142 0.607,-0.115C0.592,-0.088 0.572,-0.064 0.547,-0.044C0.521,-0.024 0.491,-0.008 0.456,0.003C0.421,0.014 0.382,0.02 0.34,0.02C0.299,0.02 0.262,0.015 0.227,0.004C0.192,-0.008 0.161,-0.023 0.135,-0.043C0.109,-0.063 0.089,-0.087 0.074,-0.114C0.059,-0.141 0.052,-0.171 0.052,-0.204C0.052,-0.295 0.102,-0.36 0.201,-0.398Z" style="fill-rule:nonzero;"/>
        </g>
        <g transform="matrix(57.8618,0,0,57.8648,3465.02,368.49)">
            <path d="M0.141,-0L0.355,-0.246L0.351,-0.246C0.332,-0.235 0.317,-0.228 0.305,-0.226C0.293,-0.223 0.282,-0.222 0.273,-0.222C0.236,-0.222 0.203,-0.229 0.172,-0.243C0.14,-0.257 0.114,-0.276 0.092,-0.301C0.069,-0.325 0.052,-0.353 0.039,-0.386C0.026,-0.419 0.02,-0.454 0.02,-0.491C0.02,-0.531 0.027,-0.568 0.042,-0.603C0.057,-0.637 0.078,-0.667 0.106,-0.693C0.133,-0.718 0.167,-0.738 0.206,-0.753C0.245,-0.768 0.29,-0.775 0.339,-0.775C0.389,-0.775 0.434,-0.768 0.473,-0.753C0.512,-0.738 0.546,-0.718 0.574,-0.693C0.601,-0.668 0.622,-0.638 0.637,-0.605C0.652,-0.571 0.659,-0.535 0.659,-0.497C0.659,-0.454 0.65,-0.408 0.631,-0.359C0.612,-0.309 0.582,-0.26 0.543,-0.212L0.368,-0L0.141,-0ZM0.465,-0.495C0.465,-0.512 0.462,-0.529 0.455,-0.544C0.448,-0.559 0.439,-0.572 0.428,-0.583C0.417,-0.594 0.404,-0.603 0.389,-0.61C0.374,-0.617 0.357,-0.62 0.34,-0.62C0.323,-0.62 0.307,-0.617 0.292,-0.61C0.277,-0.603 0.263,-0.594 0.252,-0.583C0.241,-0.572 0.232,-0.559 0.225,-0.544C0.218,-0.529 0.215,-0.512 0.215,-0.495C0.215,-0.478 0.218,-0.462 0.225,-0.447C0.232,-0.432 0.241,-0.418 0.252,-0.407C0.263,-0.396 0.277,-0.387 0.292,-0.38C0.307,-0.373 0.323,-0.37 0.34,-0.37C0.357,-0.37 0.374,-0.373 0.389,-0.38C0.404,-0.387 0.417,-0.396 0.428,-0.407C0.439,-0.418 0.448,-0.432 0.455,-0.447C0.462,-0.462 0.465,-0.478 0.465,-0.495Z" style="fill-rule:nonzero;"/>
        </g>
        <g transform="matrix(57.8618,0,0,57.8648,3504.36,368.49)">
            <path d="M0.214,-0.378C0.214,-0.345 0.217,-0.314 0.223,-0.287C0.229,-0.26 0.238,-0.236 0.249,-0.216C0.26,-0.196 0.273,-0.181 0.288,-0.17C0.303,-0.159 0.321,-0.153 0.34,-0.153C0.359,-0.153 0.376,-0.159 0.392,-0.17C0.407,-0.181 0.42,-0.196 0.431,-0.216C0.442,-0.236 0.45,-0.26 0.456,-0.287C0.462,-0.314 0.465,-0.345 0.465,-0.378C0.465,-0.411 0.462,-0.441 0.456,-0.469C0.45,-0.496 0.442,-0.52 0.431,-0.54C0.42,-0.559 0.407,-0.575 0.392,-0.586C0.376,-0.596 0.359,-0.602 0.34,-0.602C0.321,-0.602 0.303,-0.596 0.288,-0.586C0.273,-0.575 0.26,-0.559 0.249,-0.54C0.238,-0.52 0.229,-0.496 0.223,-0.469C0.217,-0.441 0.214,-0.411 0.214,-0.378ZM0.02,-0.378C0.02,-0.438 0.028,-0.493 0.044,-0.542C0.059,-0.591 0.081,-0.632 0.11,-0.667C0.138,-0.702 0.171,-0.729 0.211,-0.748C0.25,-0.767 0.293,-0.776 0.34,-0.776C0.387,-0.776 0.43,-0.767 0.469,-0.748C0.508,-0.729 0.542,-0.702 0.57,-0.667C0.598,-0.632 0.62,-0.591 0.636,-0.542C0.651,-0.493 0.659,-0.438 0.659,-0.378C0.659,-0.318 0.651,-0.264 0.636,-0.215C0.62,-0.166 0.598,-0.124 0.57,-0.089C0.542,-0.054 0.508,-0.027 0.469,-0.008C0.43,0.012 0.387,0.021 0.34,0.021C0.293,0.021 0.25,0.012 0.211,-0.008C0.171,-0.027 0.138,-0.054 0.11,-0.089C0.081,-0.124 0.059,-0.166 0.044,-0.215C0.028,-0.264 0.02,-0.318 0.02,-0.378Z" style="fill-rule:nonzero;"/>
        </g>
    </g>
    <path d="M296.197,128.618L355.902,128.618C355.902,134.757 355.647,140.334 355.135,145.348C354.623,150.363 353.6,155.018 352.065,159.316C349.917,165.354 347,170.7 343.317,175.356C339.633,180.012 335.31,183.901 330.347,187.022C325.384,190.143 319.936,192.522 314.001,194.159C308.066,195.797 301.824,196.615 295.276,196.615C286.271,196.615 278.06,195.132 270.641,192.164C263.223,189.196 256.853,185.027 251.532,179.654C246.211,174.282 242.067,167.835 239.1,160.314C236.132,152.793 234.649,144.479 234.649,135.371C234.649,126.366 236.107,118.103 239.023,110.582C241.939,103.061 246.083,96.64 251.455,91.319C256.827,85.998 263.299,81.853 270.871,78.886C278.443,75.918 286.885,74.434 296.197,74.434C308.271,74.434 318.861,77.044 327.968,82.262C337.075,87.481 344.289,95.565 349.61,106.514L321.061,118.334C318.401,111.989 314.947,107.435 310.701,104.673C306.454,101.91 301.62,100.528 296.197,100.528C291.694,100.528 287.601,101.372 283.918,103.061C280.234,104.749 277.088,107.154 274.478,110.275C271.869,113.396 269.823,117.157 268.339,121.557C266.855,125.957 266.113,130.869 266.113,136.292C266.113,141.204 266.753,145.758 268.032,149.953C269.311,154.149 271.229,157.781 273.788,160.851C276.346,163.921 279.518,166.3 283.304,167.989C287.09,169.677 291.49,170.521 296.503,170.521C299.471,170.521 302.336,170.189 305.099,169.524C307.861,168.859 310.343,167.784 312.543,166.3C314.743,164.817 316.559,162.898 317.991,160.544C319.424,158.191 320.396,155.325 320.908,151.949L296.197,151.949L296.197,128.618Z" style="fill-rule:nonzero;"/>
</svg>
