<?xml version="1.0" encoding="UTF-8" standalone="no"?>
<!DOCTYPE svg PUBLIC "-//W3C//DTD SVG 1.1//EN" "http://www.w3.org/Graphics/SVG/1.1/DTD/svg11.dtd">
<svg width="100%" height="100%" viewBox="0 0 1183 591" version="1.1" xmlns="http://www.w3.org/2000/svg" xmlns:xlink="http://www.w3.org/1999/xlink" xml:space="preserve" xmlns:serif="http://www.serif.com/" style="fill-rule:evenodd;clip-rule:evenodd;stroke-linejoin:round;stroke-miterlimit:2;">
    <rect id="font1" x="0.974" y="0" width="1181.1" height="590.551" style="fill:white;"/>
    <g transform="matrix(0.94184,0,0,0.94184,-2562.12,32.3882)">
        <g transform="matrix(57.8618,0,0,57.8648,2846.55,235.157)">
            <path d="M0.533,-0.183L0.21,-0.183L0.126,-0L0.004,-0L0.377,-0.801L0.737,-0L0.612,-0L0.533,-0.183ZM0.487,-0.29L0.375,-0.546L0.258,-0.29L0.487,-0.29Z" style="fill:rgb(180,203,230);fill-rule:nonzero;"/>
        </g>
        <g transform="matrix(57.8618,0,0,57.8648,2889.41,235.157)">
            <path d="M0.09,-0L0.09,-0.754L0.204,-0.754C0.254,-0.754 0.294,-0.75 0.324,-0.742C0.354,-0.734 0.38,-0.721 0.401,-0.703C0.422,-0.683 0.439,-0.66 0.451,-0.631C0.464,-0.602 0.47,-0.573 0.47,-0.543C0.47,-0.489 0.45,-0.443 0.408,-0.406C0.448,-0.392 0.48,-0.368 0.503,-0.334C0.526,-0.3 0.538,-0.261 0.538,-0.216C0.538,-0.157 0.517,-0.107 0.476,-0.066C0.451,-0.041 0.422,-0.024 0.391,-0.014C0.357,-0.005 0.314,-0 0.263,-0L0.09,-0ZM0.204,-0.43L0.24,-0.43C0.282,-0.43 0.313,-0.44 0.333,-0.458C0.352,-0.477 0.362,-0.505 0.362,-0.541C0.362,-0.576 0.352,-0.603 0.332,-0.622C0.312,-0.64 0.283,-0.649 0.244,-0.649L0.204,-0.649L0.204,-0.43ZM0.204,-0.107L0.274,-0.107C0.326,-0.107 0.364,-0.117 0.388,-0.137C0.413,-0.159 0.426,-0.187 0.426,-0.22C0.426,-0.253 0.414,-0.28 0.389,-0.302C0.365,-0.324 0.323,-0.335 0.262,-0.335L0.204,-0.335L0.204,-0.107Z" style="fill:rgb(180,203,230);fill-rule:nonzero;"/>
        </g>
        <g transform="matrix(57.8618,0,0,57.8648,2923.62,235.157)">
            <path d="M0.647,-0.713L0.647,-0.579C0.582,-0.634 0.514,-0.661 0.443,-0.661C0.366,-0.661 0.301,-0.633 0.248,-0.578C0.194,-0.522 0.167,-0.455 0.167,-0.375C0.167,-0.295 0.194,-0.229 0.248,-0.174C0.301,-0.12 0.366,-0.093 0.444,-0.093C0.484,-0.093 0.518,-0.099 0.546,-0.112C0.562,-0.119 0.578,-0.128 0.594,-0.139C0.611,-0.15 0.629,-0.163 0.647,-0.179L0.647,-0.042C0.582,-0.005 0.514,0.014 0.442,0.014C0.335,0.014 0.243,-0.024 0.167,-0.099C0.091,-0.175 0.053,-0.266 0.053,-0.374C0.053,-0.47 0.084,-0.555 0.148,-0.63C0.226,-0.722 0.327,-0.769 0.451,-0.769C0.519,-0.769 0.584,-0.75 0.647,-0.713Z" style="fill:rgb(180,203,230);fill-rule:nonzero;"/>
        </g>
        <g transform="matrix(57.8618,0,0,57.8648,2964.16,235.157)">
            <path d="M0.09,-0L0.09,-0.754L0.249,-0.754C0.324,-0.754 0.384,-0.746 0.428,-0.731C0.475,-0.717 0.518,-0.692 0.557,-0.657C0.634,-0.586 0.673,-0.493 0.673,-0.377C0.673,-0.261 0.633,-0.167 0.552,-0.096C0.511,-0.06 0.468,-0.035 0.424,-0.021C0.382,-0.007 0.323,-0 0.247,-0L0.09,-0ZM0.204,-0.107L0.255,-0.107C0.306,-0.107 0.349,-0.112 0.383,-0.123C0.417,-0.134 0.447,-0.153 0.475,-0.177C0.531,-0.228 0.559,-0.295 0.559,-0.377C0.559,-0.46 0.531,-0.527 0.476,-0.578C0.426,-0.624 0.352,-0.647 0.255,-0.647L0.204,-0.647L0.204,-0.107Z" style="fill:rgb(180,203,230);fill-rule:nonzero;"/>
        </g>
        <g transform="matrix(57.8618,0,0,57.8648,3006.18,235.157)">
            <path d="M0.506,-0.647L0.204,-0.647L0.204,-0.466L0.498,-0.466L0.498,-0.359L0.204,-0.359L0.204,-0.107L0.506,-0.107L0.506,-0L0.09,-0L0.09,-0.754L0.506,-0.754L0.506,-0.647Z" style="fill:rgb(180,203,230);fill-rule:nonzero;"/>
        </g>
        <g transform="matrix(57.8618,0,0,57.8648,3038.89,235.157)">
            <path d="M0.467,-0.647L0.204,-0.647L0.204,-0.466L0.458,-0.466L0.458,-0.359L0.204,-0.359L0.204,-0L0.09,-0L0.09,-0.754L0.467,-0.754L0.467,-0.647Z" style="fill:rgb(180,203,230);fill-rule:nonzero;"/>
        </g>
        <g transform="matrix(57.8618,0,0,57.8648,3068.3,235.157)">
            <path d="M0.478,-0.393L0.79,-0.393L0.79,-0.368C0.79,-0.311 0.783,-0.261 0.77,-0.217C0.757,-0.177 0.735,-0.139 0.704,-0.104C0.634,-0.025 0.545,0.014 0.437,0.014C0.331,0.014 0.241,-0.024 0.166,-0.1C0.09,-0.177 0.053,-0.268 0.053,-0.375C0.053,-0.485 0.091,-0.578 0.167,-0.654C0.244,-0.73 0.337,-0.769 0.447,-0.769C0.506,-0.769 0.561,-0.757 0.612,-0.732C0.661,-0.708 0.709,-0.669 0.756,-0.615L0.675,-0.538C0.613,-0.62 0.538,-0.661 0.449,-0.661C0.369,-0.661 0.302,-0.634 0.248,-0.579C0.194,-0.525 0.167,-0.457 0.167,-0.375C0.167,-0.292 0.197,-0.222 0.257,-0.168C0.314,-0.118 0.375,-0.092 0.44,-0.092C0.496,-0.092 0.547,-0.111 0.591,-0.149C0.636,-0.187 0.661,-0.233 0.666,-0.286L0.478,-0.286L0.478,-0.393Z" style="fill:rgb(180,203,230);fill-rule:nonzero;"/>
        </g>
        <g transform="matrix(57.8618,0,0,57.8648,3117.04,235.157)">
            <path d="M0.204,-0.459L0.529,-0.459L0.529,-0.754L0.643,-0.754L0.643,-0L0.529,-0L0.529,-0.352L0.204,-0.352L0.204,-0L0.09,-0L0.09,-0.754L0.204,-0.754L0.204,-0.459Z" style="fill:rgb(180,203,230);fill-rule:nonzero;"/>
        </g>
        <g transform="matrix(57.8618,0,0,57.8648,3159.48,235.157)">
            <path d="M0.204,-0.754L0.204,-0L0.09,-0L0.09,-0.754L0.204,-0.754ZM0.635,-0.757L0.635,-0.27C0.635,-0.211 0.631,-0.168 0.623,-0.139C0.615,-0.107 0.601,-0.079 0.582,-0.057C0.543,-0.012 0.493,0.01 0.43,0.01C0.383,0.01 0.338,-0.002 0.297,-0.027L0.353,-0.124C0.38,-0.105 0.406,-0.096 0.43,-0.096C0.464,-0.096 0.487,-0.109 0.5,-0.135C0.514,-0.16 0.521,-0.205 0.521,-0.27L0.521,-0.757L0.635,-0.757Z" style="fill:rgb(180,203,230);fill-rule:nonzero;"/>
        </g>
        <g transform="matrix(57.8618,0,0,57.8648,3201.29,235.157)">
            <path d="M0.204,-0.453L0.498,-0.754L0.649,-0.754L0.309,-0.413L0.651,-0L0.499,-0L0.228,-0.335L0.204,-0.312L0.204,-0L0.09,-0L0.09,-0.754L0.204,-0.754L0.204,-0.453Z" style="fill:rgb(180,203,230);fill-rule:nonzero;"/>
        </g>
        <g transform="matrix(57.8618,0,0,57.8648,3239.63,235.157)">
            <path d="M0.204,-0.754L0.204,-0.107L0.426,-0.107L0.426,-0L0.09,-0L0.09,-0.754L0.204,-0.754Z" style="fill:rgb(180,203,230);fill-rule:nonzero;"/>
        </g>
        <g transform="matrix(57.8618,0,0,57.8648,3265.28,235.157)">
            <path d="M0.064,-0L0.223,-0.811L0.481,-0.225L0.75,-0.811L0.892,-0L0.775,-0L0.703,-0.455L0.479,0.035L0.263,-0.456L0.182,-0L0.064,-0Z" style="fill:rgb(180,203,230);fill-rule:nonzero;"/>
        </g>
        <g transform="matrix(57.8618,0,0,57.8648,3320.91,235.157)">
            <path d="M0.09,-0L0.09,-0.805L0.64,-0.23L0.64,-0.754L0.754,-0.754L0.754,0.046L0.204,-0.528L0.204,-0L0.09,-0Z" style="fill:rgb(180,203,230);fill-rule:nonzero;"/>
        </g>
        <g transform="matrix(57.8618,0,0,57.8648,3370.16,235.157)">
            <path d="M0.053,-0.38C0.053,-0.486 0.092,-0.578 0.169,-0.654C0.247,-0.73 0.34,-0.768 0.449,-0.768C0.556,-0.768 0.648,-0.73 0.725,-0.653C0.802,-0.576 0.841,-0.484 0.841,-0.376C0.841,-0.268 0.802,-0.176 0.725,-0.1C0.647,-0.024 0.553,0.014 0.443,0.014C0.346,0.014 0.258,-0.02 0.181,-0.087C0.095,-0.162 0.053,-0.26 0.053,-0.38ZM0.167,-0.379C0.167,-0.296 0.195,-0.227 0.251,-0.173C0.307,-0.12 0.371,-0.093 0.444,-0.093C0.523,-0.093 0.59,-0.12 0.645,-0.175C0.699,-0.23 0.726,-0.298 0.726,-0.377C0.726,-0.457 0.699,-0.525 0.646,-0.579C0.592,-0.634 0.526,-0.661 0.447,-0.661C0.369,-0.661 0.303,-0.634 0.249,-0.579C0.194,-0.525 0.167,-0.458 0.167,-0.379Z" style="fill:rgb(180,203,230);fill-rule:nonzero;"/>
        </g>
        <g transform="matrix(57.8618,0,0,57.8648,3421.86,235.157)">
            <path d="M0.204,-0.306L0.204,-0L0.09,-0L0.09,-0.754L0.219,-0.754C0.282,-0.754 0.33,-0.75 0.362,-0.741C0.395,-0.732 0.424,-0.715 0.448,-0.691C0.492,-0.649 0.513,-0.595 0.513,-0.531C0.513,-0.462 0.49,-0.407 0.444,-0.367C0.398,-0.326 0.335,-0.306 0.257,-0.306L0.204,-0.306ZM0.204,-0.412L0.247,-0.412C0.351,-0.412 0.403,-0.452 0.403,-0.532C0.403,-0.61 0.349,-0.649 0.242,-0.649L0.204,-0.649L0.204,-0.412Z" style="fill:rgb(180,203,230);fill-rule:nonzero;"/>
        </g>
        <g transform="matrix(57.8618,0,0,57.8648,3453.11,235.157)">
            <path d="M0.857,0.014L0.714,0.014L0.655,-0.047C0.592,-0.007 0.522,0.014 0.445,0.014C0.345,0.014 0.257,-0.02 0.179,-0.088C0.095,-0.162 0.053,-0.258 0.053,-0.374C0.053,-0.487 0.093,-0.582 0.172,-0.658C0.25,-0.731 0.341,-0.768 0.447,-0.768C0.542,-0.768 0.628,-0.736 0.704,-0.671C0.795,-0.594 0.841,-0.493 0.841,-0.368C0.841,-0.271 0.805,-0.184 0.733,-0.108L0.857,0.014ZM0.544,-0.298L0.654,-0.189C0.702,-0.24 0.726,-0.302 0.726,-0.375C0.726,-0.457 0.699,-0.524 0.646,-0.579C0.592,-0.634 0.525,-0.661 0.445,-0.661C0.365,-0.661 0.298,-0.634 0.246,-0.579C0.194,-0.525 0.167,-0.456 0.167,-0.373C0.167,-0.291 0.194,-0.225 0.249,-0.173C0.305,-0.119 0.369,-0.093 0.441,-0.093C0.491,-0.093 0.535,-0.104 0.575,-0.126L0.397,-0.298L0.544,-0.298Z" style="fill:rgb(180,203,230);fill-rule:nonzero;"/>
        </g>
        <g transform="matrix(57.8618,0,0,57.8648,3504.81,235.157)">
            <path d="M0.346,-0.321L0.579,-0L0.44,-0L0.225,-0.309L0.204,-0.309L0.204,-0L0.09,-0L0.09,-0.754L0.224,-0.754C0.323,-0.754 0.395,-0.735 0.439,-0.698C0.488,-0.656 0.513,-0.601 0.513,-0.533C0.513,-0.479 0.497,-0.433 0.467,-0.395C0.436,-0.357 0.396,-0.332 0.346,-0.321ZM0.204,-0.408L0.24,-0.408C0.348,-0.408 0.402,-0.449 0.402,-0.531C0.402,-0.608 0.349,-0.647 0.245,-0.647L0.204,-0.647L0.204,-0.408Z" style="fill:rgb(180,203,230);fill-rule:nonzero;"/>
        </g>
        <g transform="matrix(57.8618,0,0,57.8648,3539.65,235.157)">
            <path d="M0.517,-0.642L0.424,-0.587C0.407,-0.617 0.391,-0.636 0.375,-0.646C0.359,-0.656 0.338,-0.661 0.312,-0.661C0.28,-0.661 0.254,-0.652 0.233,-0.634C0.213,-0.617 0.202,-0.595 0.202,-0.568C0.202,-0.531 0.229,-0.501 0.284,-0.479L0.359,-0.448C0.421,-0.424 0.465,-0.393 0.494,-0.358C0.522,-0.322 0.536,-0.278 0.536,-0.227C0.536,-0.157 0.513,-0.1 0.467,-0.055C0.42,-0.009 0.362,0.014 0.293,0.014C0.228,0.014 0.174,-0.006 0.131,-0.044C0.089,-0.083 0.063,-0.138 0.053,-0.208L0.168,-0.233C0.173,-0.189 0.182,-0.159 0.195,-0.142C0.219,-0.109 0.253,-0.093 0.298,-0.093C0.333,-0.093 0.363,-0.105 0.386,-0.128C0.41,-0.152 0.421,-0.182 0.421,-0.219C0.421,-0.233 0.419,-0.247 0.415,-0.259C0.411,-0.271 0.405,-0.282 0.396,-0.293C0.388,-0.303 0.376,-0.313 0.363,-0.322C0.349,-0.33 0.333,-0.339 0.314,-0.347L0.241,-0.377C0.138,-0.421 0.086,-0.485 0.086,-0.569C0.086,-0.625 0.108,-0.673 0.151,-0.711C0.195,-0.749 0.249,-0.769 0.313,-0.769C0.4,-0.769 0.468,-0.726 0.517,-0.642Z" style="fill:rgb(180,203,230);fill-rule:nonzero;"/>
        </g>
        <g transform="matrix(57.8618,0,0,57.8648,3574.2,235.157)">
            <path d="M0.298,-0.647L0.298,-0L0.185,-0L0.185,-0.647L0.011,-0.647L0.011,-0.754L0.471,-0.754L0.471,-0.647L0.298,-0.647Z" style="fill:rgb(180,203,230);fill-rule:nonzero;"/>
        </g>
        <g transform="matrix(57.8618,0,0,57.8648,3602.11,235.157)">
            <path d="M0.204,-0.754L0.204,-0.3C0.204,-0.235 0.215,-0.188 0.236,-0.158C0.267,-0.114 0.312,-0.093 0.369,-0.093C0.427,-0.093 0.471,-0.114 0.503,-0.158C0.524,-0.187 0.535,-0.234 0.535,-0.3L0.535,-0.754L0.648,-0.754L0.648,-0.269C0.648,-0.189 0.624,-0.124 0.574,-0.072C0.519,-0.015 0.45,0.014 0.369,0.014C0.288,0.014 0.22,-0.015 0.165,-0.072C0.115,-0.124 0.09,-0.189 0.09,-0.269L0.09,-0.754L0.204,-0.754Z" style="fill:rgb(180,203,230);fill-rule:nonzero;"/>
        </g>
        <g transform="matrix(57.8618,0,0,57.8648,3644.86,235.157)">
            <path d="M0.128,-0.754L0.337,-0.231L0.548,-0.754L0.673,-0.754L0.334,0.057L0.004,-0.754L0.128,-0.754Z" style="fill:rgb(180,203,230);fill-rule:nonzero;"/>
        </g>
        <g transform="matrix(57.8618,0,0,57.8648,3683.99,235.157)">
            <path d="M0.127,-0.754L0.324,-0.25L0.529,-0.791L0.725,-0.25L0.934,-0.754L1.057,-0.754L0.72,0.048L0.526,-0.486L0.324,0.048L0.004,-0.754L0.127,-0.754Z" style="fill:rgb(180,203,230);fill-rule:nonzero;"/>
        </g>
        <g transform="matrix(57.8618,0,0,57.8648,3745.36,235.157)">
            <path d="M0.248,-0.394L0.041,-0.754L0.17,-0.754L0.314,-0.499L0.465,-0.754L0.596,-0.754L0.378,-0.394L0.606,-0L0.479,-0L0.312,-0.289L0.14,-0L0.011,-0L0.248,-0.394Z" style="fill:rgb(180,203,230);fill-rule:nonzero;"/>
        </g>
        <g transform="matrix(57.8618,0,0,57.8648,3781.1,235.157)">
            <path d="M0.243,-0.326L-0.003,-0.754L0.127,-0.754L0.3,-0.453L0.473,-0.754L0.604,-0.754L0.356,-0.326L0.356,-0L0.243,-0L0.243,-0.326Z" style="fill:rgb(180,203,230);fill-rule:nonzero;"/>
        </g>
        <g transform="matrix(57.8618,0,0,57.8648,3815.82,235.157)">
            <path d="M0.221,-0.107L0.583,-0.107L0.583,-0L0.034,-0L0.404,-0.647L0.094,-0.647L0.094,-0.754L0.591,-0.754L0.221,-0.107Z" style="fill:rgb(180,203,230);fill-rule:nonzero;"/>
        </g>
        <g transform="matrix(57.8618,0,0,57.8648,2967.54,301.823)">
            <path d="M0.42,-0.476L0.53,-0.476L0.53,-0L0.42,-0L0.42,-0.05C0.375,-0.007 0.326,0.014 0.274,0.014C0.208,0.014 0.154,-0.01 0.111,-0.058C0.068,-0.106 0.047,-0.167 0.047,-0.239C0.047,-0.311 0.068,-0.37 0.111,-0.417C0.153,-0.465 0.207,-0.489 0.271,-0.489C0.326,-0.489 0.376,-0.466 0.42,-0.42L0.42,-0.476ZM0.159,-0.239C0.159,-0.194 0.171,-0.157 0.196,-0.128C0.221,-0.099 0.252,-0.084 0.291,-0.084C0.331,-0.084 0.364,-0.098 0.389,-0.126C0.414,-0.155 0.427,-0.192 0.427,-0.237C0.427,-0.281 0.414,-0.318 0.389,-0.347C0.364,-0.375 0.332,-0.39 0.292,-0.39C0.254,-0.39 0.222,-0.375 0.197,-0.347C0.172,-0.318 0.159,-0.282 0.159,-0.239Z" style="fill:rgb(180,203,230);fill-rule:nonzero;"/>
        </g>
        <g transform="matrix(57.8618,0,0,57.8648,3002.24,301.823)">
            <path d="M0.179,-0.825L0.179,-0.42C0.223,-0.466 0.273,-0.489 0.329,-0.489C0.393,-0.489 0.446,-0.465 0.489,-0.417C0.531,-0.369 0.553,-0.31 0.553,-0.239C0.553,-0.166 0.531,-0.105 0.488,-0.058C0.446,-0.01 0.392,0.014 0.327,0.014C0.272,0.014 0.222,-0.007 0.179,-0.05L0.179,-0L0.069,-0L0.069,-0.825L0.179,-0.825ZM0.44,-0.234C0.44,-0.28 0.428,-0.317 0.403,-0.346C0.378,-0.375 0.347,-0.39 0.309,-0.39C0.269,-0.39 0.236,-0.375 0.21,-0.347C0.185,-0.319 0.173,-0.283 0.173,-0.238C0.173,-0.192 0.185,-0.155 0.21,-0.127C0.235,-0.099 0.267,-0.084 0.308,-0.084C0.346,-0.084 0.377,-0.099 0.402,-0.127C0.428,-0.156 0.44,-0.191 0.44,-0.234Z" style="fill:rgb(180,203,230);fill-rule:nonzero;"/>
        </g>
        <g transform="matrix(57.8618,0,0,57.8648,3036.93,301.823)">
            <path d="M0.439,-0.455L0.439,-0.309C0.414,-0.34 0.392,-0.361 0.372,-0.372C0.353,-0.384 0.33,-0.39 0.303,-0.39C0.262,-0.39 0.228,-0.375 0.2,-0.346C0.173,-0.317 0.159,-0.281 0.159,-0.237C0.159,-0.193 0.172,-0.156 0.199,-0.127C0.225,-0.099 0.259,-0.084 0.301,-0.084C0.327,-0.084 0.35,-0.09 0.371,-0.102C0.39,-0.113 0.413,-0.134 0.439,-0.166L0.439,-0.021C0.395,0.002 0.35,0.014 0.306,0.014C0.232,0.014 0.171,-0.01 0.121,-0.058C0.072,-0.105 0.047,-0.165 0.047,-0.236C0.047,-0.307 0.072,-0.367 0.122,-0.416C0.172,-0.464 0.234,-0.489 0.307,-0.489C0.354,-0.489 0.398,-0.478 0.439,-0.455Z" style="fill:rgb(180,203,230);fill-rule:nonzero;"/>
        </g>
        <g transform="matrix(57.8618,0,0,57.8648,3064.5,301.823)">
            <path d="M0.42,-0.825L0.53,-0.825L0.53,-0L0.42,-0L0.42,-0.05C0.377,-0.007 0.328,0.014 0.273,0.014C0.208,0.014 0.154,-0.01 0.111,-0.058C0.068,-0.106 0.047,-0.167 0.047,-0.239C0.047,-0.31 0.068,-0.369 0.111,-0.417C0.153,-0.465 0.206,-0.489 0.271,-0.489C0.326,-0.489 0.376,-0.466 0.42,-0.42L0.42,-0.825ZM0.159,-0.239C0.159,-0.194 0.171,-0.157 0.196,-0.128C0.221,-0.099 0.252,-0.084 0.291,-0.084C0.331,-0.084 0.364,-0.098 0.389,-0.126C0.414,-0.155 0.427,-0.192 0.427,-0.237C0.427,-0.281 0.414,-0.318 0.389,-0.347C0.364,-0.375 0.332,-0.39 0.292,-0.39C0.254,-0.39 0.222,-0.375 0.197,-0.347C0.172,-0.318 0.159,-0.282 0.159,-0.239Z" style="fill:rgb(180,203,230);fill-rule:nonzero;"/>
        </g>
        <g transform="matrix(57.8618,0,0,57.8648,3099.2,301.823)">
            <path d="M0.502,-0.212L0.162,-0.212C0.165,-0.173 0.177,-0.142 0.2,-0.119C0.222,-0.096 0.251,-0.084 0.286,-0.084C0.313,-0.084 0.336,-0.091 0.354,-0.104C0.372,-0.117 0.392,-0.141 0.414,-0.176L0.507,-0.125C0.493,-0.1 0.477,-0.079 0.461,-0.062C0.445,-0.044 0.428,-0.03 0.41,-0.019C0.392,-0.008 0.372,0.001 0.351,0.006C0.33,0.011 0.307,0.014 0.282,0.014C0.211,0.014 0.154,-0.009 0.111,-0.055C0.068,-0.101 0.047,-0.161 0.047,-0.237C0.047,-0.313 0.068,-0.373 0.109,-0.42C0.151,-0.466 0.207,-0.489 0.276,-0.489C0.346,-0.489 0.402,-0.466 0.442,-0.422C0.483,-0.378 0.503,-0.316 0.503,-0.238L0.502,-0.212ZM0.39,-0.302C0.374,-0.36 0.337,-0.39 0.279,-0.39C0.265,-0.39 0.253,-0.388 0.241,-0.384C0.229,-0.379 0.219,-0.374 0.209,-0.366C0.2,-0.358 0.191,-0.349 0.185,-0.338C0.178,-0.328 0.173,-0.315 0.169,-0.302L0.39,-0.302Z" style="fill:rgb(180,203,230);fill-rule:nonzero;"/>
        </g>
        <g transform="matrix(57.8618,0,0,57.8648,3131.21,301.823)">
            <path d="M0.183,-0.373L0.183,-0L0.073,-0L0.073,-0.373L0.034,-0.373L0.034,-0.476L0.073,-0.476L0.073,-0.659C0.073,-0.719 0.083,-0.761 0.104,-0.786C0.133,-0.821 0.174,-0.838 0.229,-0.838C0.249,-0.838 0.273,-0.832 0.303,-0.821L0.303,-0.708L0.292,-0.714C0.268,-0.726 0.248,-0.732 0.233,-0.732C0.213,-0.732 0.2,-0.725 0.193,-0.711C0.187,-0.698 0.183,-0.671 0.183,-0.632L0.183,-0.476L0.303,-0.476L0.303,-0.373L0.183,-0.373Z" style="fill:rgb(180,203,230);fill-rule:nonzero;"/>
        </g>
        <g transform="matrix(57.8618,0,0,57.8648,3148.39,301.823)">
            <path d="M0.529,-0.011C0.529,0.011 0.529,0.031 0.527,0.048C0.526,0.065 0.524,0.08 0.521,0.093C0.513,0.129 0.498,0.16 0.475,0.186C0.432,0.235 0.373,0.26 0.298,0.26C0.234,0.26 0.182,0.243 0.141,0.208C0.099,0.173 0.074,0.125 0.068,0.063L0.178,0.063C0.182,0.086 0.189,0.104 0.199,0.117C0.222,0.146 0.255,0.161 0.299,0.161C0.379,0.161 0.419,0.112 0.419,0.013L0.419,-0.053C0.376,-0.009 0.326,0.014 0.269,0.014C0.204,0.014 0.151,-0.01 0.109,-0.057C0.068,-0.104 0.047,-0.164 0.047,-0.235C0.047,-0.304 0.066,-0.363 0.105,-0.412C0.147,-0.463 0.202,-0.489 0.27,-0.489C0.33,-0.489 0.38,-0.466 0.419,-0.422L0.419,-0.476L0.529,-0.476L0.529,-0.011ZM0.424,-0.237C0.424,-0.283 0.411,-0.32 0.387,-0.348C0.362,-0.376 0.33,-0.39 0.291,-0.39C0.249,-0.39 0.216,-0.375 0.192,-0.344C0.17,-0.316 0.159,-0.28 0.159,-0.236C0.159,-0.193 0.17,-0.158 0.192,-0.13C0.216,-0.1 0.249,-0.084 0.291,-0.084C0.333,-0.084 0.366,-0.1 0.39,-0.13C0.413,-0.158 0.424,-0.194 0.424,-0.237Z" style="fill:rgb(180,203,230);fill-rule:nonzero;"/>
        </g>
        <g transform="matrix(57.8618,0,0,57.8648,3183.03,301.823)">
            <path d="M0.069,-0.825L0.179,-0.825L0.179,-0.436C0.218,-0.471 0.261,-0.489 0.309,-0.489C0.362,-0.489 0.405,-0.471 0.438,-0.437C0.465,-0.406 0.479,-0.358 0.479,-0.292L0.479,-0L0.369,-0L0.369,-0.281C0.369,-0.319 0.362,-0.347 0.348,-0.364C0.335,-0.381 0.313,-0.39 0.283,-0.39C0.245,-0.39 0.218,-0.378 0.202,-0.354C0.187,-0.33 0.179,-0.289 0.179,-0.23L0.179,-0L0.069,-0L0.069,-0.825Z" style="fill:rgb(180,203,230);fill-rule:nonzero;"/>
        </g>
        <g transform="matrix(57.8618,0,0,57.8648,3214.75,301.823)">
            <path d="M0.179,-0.476L0.179,-0L0.069,-0L0.069,-0.476L0.179,-0.476ZM0.053,-0.673C0.053,-0.693 0.06,-0.709 0.074,-0.723C0.088,-0.737 0.104,-0.744 0.124,-0.744C0.144,-0.744 0.161,-0.737 0.175,-0.723C0.189,-0.709 0.196,-0.693 0.196,-0.673C0.196,-0.653 0.189,-0.636 0.175,-0.622C0.161,-0.608 0.144,-0.601 0.125,-0.601C0.105,-0.601 0.088,-0.608 0.074,-0.622C0.06,-0.636 0.053,-0.653 0.053,-0.673ZM0.417,-0.476L0.417,0.259L0.307,0.259L0.307,-0.476L0.417,-0.476ZM0.291,-0.673C0.291,-0.693 0.298,-0.709 0.312,-0.723C0.326,-0.737 0.342,-0.744 0.362,-0.744C0.382,-0.744 0.399,-0.737 0.413,-0.723C0.427,-0.709 0.434,-0.693 0.434,-0.673C0.434,-0.653 0.427,-0.636 0.413,-0.622C0.399,-0.608 0.382,-0.601 0.362,-0.601C0.342,-0.601 0.326,-0.608 0.312,-0.622C0.298,-0.636 0.291,-0.653 0.291,-0.673Z" style="fill:rgb(180,203,230);fill-rule:nonzero;"/>
        </g>
        <g transform="matrix(57.8618,0,0,57.8648,3244.59,301.823)">
            <path d="M0.179,-0.825L0.179,-0.322L0.334,-0.476L0.481,-0.476L0.275,-0.276L0.497,-0L0.354,-0L0.197,-0.201L0.179,-0.183L0.179,-0L0.069,-0L0.069,-0.825L0.179,-0.825Z" style="fill:rgb(180,203,230);fill-rule:nonzero;"/>
        </g>
        <g transform="matrix(57.8618,0,0,57.8648,3273.41,301.823)">
            <rect x="0.069" y="-0.825" width="0.11" height="0.825" style="fill:rgb(180,203,230);fill-rule:nonzero;"/>
        </g>
        <g transform="matrix(57.8618,0,0,57.8648,3287.82,301.823)">
            <path d="M0.069,-0.476L0.179,-0.476L0.179,-0.432C0.2,-0.454 0.218,-0.469 0.233,-0.477C0.249,-0.485 0.269,-0.489 0.293,-0.489C0.347,-0.489 0.39,-0.465 0.421,-0.418C0.455,-0.465 0.502,-0.489 0.561,-0.489C0.668,-0.489 0.722,-0.424 0.722,-0.294L0.722,-0L0.611,-0L0.611,-0.264C0.611,-0.31 0.606,-0.342 0.595,-0.361C0.583,-0.38 0.565,-0.39 0.539,-0.39C0.508,-0.39 0.486,-0.378 0.472,-0.355C0.459,-0.333 0.452,-0.296 0.452,-0.246L0.452,-0L0.341,-0L0.341,-0.263C0.341,-0.347 0.317,-0.39 0.268,-0.39C0.237,-0.39 0.215,-0.378 0.2,-0.355C0.186,-0.332 0.179,-0.295 0.179,-0.246L0.179,-0L0.069,-0L0.069,-0.476Z" style="fill:rgb(180,203,230);fill-rule:nonzero;"/>
        </g>
        <g transform="matrix(57.8618,0,0,57.8648,3333.58,301.823)">
            <path d="M0.069,-0.476L0.18,-0.476L0.18,-0.432C0.218,-0.47 0.261,-0.489 0.31,-0.489C0.365,-0.489 0.408,-0.471 0.439,-0.437C0.466,-0.407 0.479,-0.359 0.479,-0.292L0.479,-0L0.369,-0L0.369,-0.266C0.369,-0.313 0.362,-0.345 0.349,-0.363C0.336,-0.381 0.313,-0.39 0.28,-0.39C0.243,-0.39 0.217,-0.378 0.202,-0.354C0.187,-0.33 0.18,-0.289 0.18,-0.229L0.18,-0L0.069,-0L0.069,-0.476Z" style="fill:rgb(180,203,230);fill-rule:nonzero;"/>
        </g>
        <g transform="matrix(57.8618,0,0,57.8648,3365.31,301.823)">
            <path d="M0.047,-0.241C0.047,-0.31 0.071,-0.368 0.121,-0.417C0.17,-0.465 0.23,-0.489 0.3,-0.489C0.371,-0.489 0.431,-0.465 0.481,-0.416C0.53,-0.368 0.554,-0.308 0.554,-0.237C0.554,-0.166 0.53,-0.106 0.48,-0.058C0.431,-0.01 0.37,0.014 0.298,0.014C0.227,0.014 0.167,-0.011 0.119,-0.06C0.071,-0.108 0.047,-0.168 0.047,-0.241ZM0.159,-0.239C0.159,-0.192 0.172,-0.154 0.197,-0.126C0.223,-0.098 0.258,-0.084 0.3,-0.084C0.343,-0.084 0.378,-0.098 0.403,-0.126C0.429,-0.154 0.442,-0.191 0.442,-0.237C0.442,-0.283 0.429,-0.32 0.403,-0.348C0.377,-0.376 0.343,-0.39 0.3,-0.39C0.258,-0.39 0.224,-0.376 0.198,-0.348C0.172,-0.32 0.159,-0.284 0.159,-0.239Z" style="fill:rgb(180,203,230);fill-rule:nonzero;"/>
        </g>
        <g transform="matrix(57.8618,0,0,57.8648,3400.09,301.823)">
            <path d="M0.179,0.259L0.069,0.259L0.069,-0.476L0.179,-0.476L0.179,-0.424C0.222,-0.467 0.272,-0.489 0.327,-0.489C0.392,-0.489 0.446,-0.465 0.488,-0.417C0.531,-0.369 0.553,-0.308 0.553,-0.235C0.553,-0.164 0.531,-0.105 0.489,-0.057C0.446,-0.01 0.393,0.014 0.329,0.014C0.273,0.014 0.223,-0.009 0.179,-0.053L0.179,0.259ZM0.44,-0.235C0.44,-0.28 0.428,-0.318 0.403,-0.346C0.378,-0.375 0.347,-0.39 0.309,-0.39C0.268,-0.39 0.236,-0.376 0.21,-0.348C0.185,-0.32 0.173,-0.283 0.173,-0.237C0.173,-0.193 0.185,-0.156 0.21,-0.127C0.235,-0.099 0.268,-0.084 0.308,-0.084C0.346,-0.084 0.378,-0.099 0.402,-0.127C0.428,-0.156 0.44,-0.192 0.44,-0.235Z" style="fill:rgb(180,203,230);fill-rule:nonzero;"/>
        </g>
        <g transform="matrix(57.8618,0,0,57.8648,3434.79,301.823)">
            <path d="M0.42,0.259L0.42,-0.053C0.376,-0.009 0.326,0.014 0.271,0.014C0.206,0.014 0.153,-0.01 0.111,-0.057C0.068,-0.105 0.047,-0.164 0.047,-0.235C0.047,-0.308 0.068,-0.368 0.111,-0.417C0.154,-0.465 0.208,-0.489 0.272,-0.489C0.327,-0.489 0.377,-0.467 0.42,-0.424L0.42,-0.476L0.53,-0.476L0.53,0.259L0.42,0.259ZM0.159,-0.24C0.159,-0.194 0.172,-0.157 0.196,-0.128C0.221,-0.099 0.252,-0.084 0.291,-0.084C0.331,-0.084 0.364,-0.098 0.389,-0.126C0.414,-0.155 0.427,-0.192 0.427,-0.237C0.427,-0.281 0.414,-0.318 0.389,-0.347C0.364,-0.375 0.332,-0.39 0.292,-0.39C0.254,-0.39 0.222,-0.375 0.197,-0.347C0.172,-0.318 0.159,-0.282 0.159,-0.24Z" style="fill:rgb(180,203,230);fill-rule:nonzero;"/>
        </g>
        <g transform="matrix(57.8618,0,0,57.8648,3469.48,301.823)">
            <path d="M0.069,-0.476L0.179,-0.476L0.179,-0.433C0.199,-0.454 0.217,-0.469 0.233,-0.477C0.249,-0.485 0.268,-0.489 0.29,-0.489C0.319,-0.489 0.349,-0.479 0.38,-0.46L0.33,-0.36C0.309,-0.375 0.289,-0.382 0.269,-0.382C0.209,-0.382 0.179,-0.337 0.179,-0.247L0.179,-0L0.069,-0L0.069,-0.476Z" style="fill:rgb(180,203,230);fill-rule:nonzero;"/>
        </g>
        <g transform="matrix(57.8618,0,0,57.8648,3491.12,301.823)">
            <path d="M0.346,-0.395L0.255,-0.346C0.241,-0.375 0.223,-0.39 0.202,-0.39C0.192,-0.39 0.183,-0.387 0.176,-0.38C0.169,-0.373 0.165,-0.365 0.165,-0.354C0.165,-0.336 0.186,-0.318 0.229,-0.3C0.287,-0.275 0.326,-0.252 0.346,-0.231C0.366,-0.21 0.376,-0.181 0.376,-0.146C0.376,-0.1 0.36,-0.061 0.326,-0.03C0.293,-0.001 0.253,0.014 0.207,0.014C0.127,0.014 0.07,-0.025 0.037,-0.103L0.131,-0.146C0.144,-0.124 0.154,-0.109 0.161,-0.103C0.174,-0.091 0.19,-0.084 0.208,-0.084C0.246,-0.084 0.264,-0.101 0.264,-0.135C0.264,-0.155 0.25,-0.173 0.221,-0.19C0.21,-0.195 0.199,-0.201 0.188,-0.206C0.177,-0.211 0.166,-0.217 0.154,-0.222C0.122,-0.238 0.1,-0.253 0.087,-0.269C0.07,-0.289 0.062,-0.314 0.062,-0.346C0.062,-0.387 0.076,-0.421 0.104,-0.448C0.133,-0.475 0.169,-0.489 0.21,-0.489C0.271,-0.489 0.316,-0.457 0.346,-0.395Z" style="fill:rgb(180,203,230);fill-rule:nonzero;"/>
        </g>
        <g transform="matrix(57.8618,0,0,57.8648,3514.6,301.823)">
            <path d="M0.183,-0.373L0.183,-0L0.073,-0L0.073,-0.373L0.026,-0.373L0.026,-0.476L0.073,-0.476L0.073,-0.65L0.183,-0.65L0.183,-0.476L0.268,-0.476L0.268,-0.373L0.183,-0.373Z" style="fill:rgb(180,203,230);fill-rule:nonzero;"/>
        </g>
        <g transform="matrix(57.8618,0,0,57.8648,3530.42,301.823)">
            <path d="M0.179,-0.476L0.179,-0.203C0.179,-0.124 0.21,-0.084 0.272,-0.084C0.335,-0.084 0.366,-0.124 0.366,-0.203L0.366,-0.476L0.476,-0.476L0.476,-0.2C0.476,-0.162 0.471,-0.129 0.461,-0.102C0.452,-0.077 0.437,-0.055 0.414,-0.035C0.377,-0.002 0.33,0.014 0.272,0.014C0.215,0.014 0.168,-0.002 0.131,-0.035C0.109,-0.055 0.092,-0.077 0.083,-0.102C0.074,-0.124 0.069,-0.157 0.069,-0.2L0.069,-0.476L0.179,-0.476Z" style="fill:rgb(180,203,230);fill-rule:nonzero;"/>
        </g>
        <g transform="matrix(57.8618,0,0,57.8648,3561.95,301.823)">
            <path d="M0.128,-0.476L0.251,-0.208L0.374,-0.476L0.498,-0.476L0.25,0.033L0.005,-0.476L0.128,-0.476Z" style="fill:rgb(180,203,230);fill-rule:nonzero;"/>
        </g>
        <g transform="matrix(57.8618,0,0,57.8648,3591.02,301.823)">
            <path d="M0.129,-0.476L0.253,-0.204L0.388,-0.519L0.523,-0.204L0.646,-0.476L0.769,-0.476L0.52,0.036L0.388,-0.271L0.254,0.036L0.005,-0.476L0.129,-0.476Z" style="fill:rgb(180,203,230);fill-rule:nonzero;"/>
        </g>
        <g transform="matrix(57.8618,0,0,57.8648,3635.81,301.823)">
            <path d="M0.217,-0.257L0.046,-0.476L0.177,-0.476L0.283,-0.337L0.391,-0.476L0.525,-0.476L0.35,-0.257L0.553,-0L0.422,-0L0.283,-0.178L0.14,-0L0.005,-0L0.217,-0.257Z" style="fill:rgb(180,203,230);fill-rule:nonzero;"/>
        </g>
        <g transform="matrix(57.8618,0,0,57.8648,3668.1,301.823)">
            <path d="M0.219,-0.088L0.005,-0.476L0.133,-0.476L0.278,-0.202L0.414,-0.476L0.538,-0.476L0.159,0.259L0.034,0.259L0.219,-0.088Z" style="fill:rgb(180,203,230);fill-rule:nonzero;"/>
        </g>
        <g transform="matrix(57.8618,0,0,57.8648,3699.54,301.823)">
            <path d="M0.227,-0.104L0.51,-0.104L0.51,-0L0.009,-0L0.317,-0.373L0.075,-0.373L0.075,-0.476L0.535,-0.476L0.227,-0.104Z" style="fill:rgb(180,203,230);fill-rule:nonzero;"/>
        </g>
        <g transform="matrix(57.8618,0,0,57.8648,3175.1,368.49)">
            <path d="M0.271,-0.647L0.141,-0.647L0.203,-0.754L0.385,-0.754L0.385,-0L0.271,-0L0.271,-0.647Z" style="fill:rgb(180,203,230);fill-rule:nonzero;"/>
        </g>
        <g transform="matrix(57.8618,0,0,57.8648,3206.23,368.49)">
            <path d="M0.25,-0.107L0.531,-0.107L0.531,-0L0.025,-0L0.287,-0.317C0.312,-0.348 0.334,-0.376 0.351,-0.399C0.369,-0.422 0.382,-0.441 0.391,-0.457C0.41,-0.488 0.419,-0.515 0.419,-0.54C0.419,-0.575 0.407,-0.604 0.382,-0.628C0.357,-0.652 0.326,-0.664 0.29,-0.664C0.214,-0.664 0.17,-0.618 0.159,-0.528L0.046,-0.528C0.064,-0.687 0.144,-0.767 0.287,-0.767C0.355,-0.767 0.413,-0.745 0.459,-0.701C0.506,-0.658 0.53,-0.604 0.53,-0.539C0.53,-0.498 0.519,-0.458 0.497,-0.418C0.486,-0.398 0.47,-0.374 0.448,-0.345C0.427,-0.317 0.4,-0.284 0.368,-0.246L0.25,-0.107Z" style="fill:rgb(180,203,230);fill-rule:nonzero;"/>
        </g>
        <g transform="matrix(57.8618,0,0,57.8648,3241.95,368.49)">
            <path d="M0.259,-0.35L0.259,-0.447C0.307,-0.447 0.339,-0.453 0.356,-0.463C0.386,-0.482 0.4,-0.513 0.4,-0.554C0.4,-0.586 0.39,-0.613 0.368,-0.633C0.347,-0.653 0.319,-0.664 0.286,-0.664C0.254,-0.664 0.23,-0.656 0.212,-0.641C0.196,-0.625 0.183,-0.599 0.175,-0.562L0.062,-0.562C0.074,-0.632 0.098,-0.684 0.134,-0.718C0.171,-0.751 0.222,-0.767 0.287,-0.767C0.353,-0.767 0.407,-0.748 0.449,-0.708C0.49,-0.67 0.511,-0.62 0.511,-0.559C0.511,-0.49 0.484,-0.436 0.429,-0.397C0.492,-0.361 0.523,-0.301 0.523,-0.218C0.523,-0.151 0.5,-0.095 0.455,-0.052C0.409,-0.009 0.351,0.012 0.279,0.012C0.188,0.012 0.121,-0.021 0.077,-0.088C0.059,-0.116 0.047,-0.155 0.042,-0.204L0.152,-0.204C0.158,-0.168 0.172,-0.14 0.195,-0.12C0.218,-0.101 0.247,-0.091 0.284,-0.091C0.32,-0.091 0.351,-0.104 0.375,-0.128C0.399,-0.153 0.411,-0.185 0.411,-0.223C0.411,-0.274 0.393,-0.31 0.357,-0.332C0.336,-0.344 0.303,-0.35 0.259,-0.35Z" style="fill:rgb(180,203,230);fill-rule:nonzero;"/>
        </g>
        <g transform="matrix(57.8618,0,0,57.8648,3276.33,368.49)">
            <path d="M0.493,-0.21L0.573,-0.21L0.573,-0.107L0.493,-0.107L0.493,-0L0.379,-0L0.379,-0.107L0.009,-0.107L0.493,-0.81L0.493,-0.21ZM0.379,-0.21L0.379,-0.463L0.206,-0.21L0.379,-0.21Z" style="fill:rgb(180,203,230);fill-rule:nonzero;"/>
        </g>
        <g transform="matrix(57.8618,0,0,57.8648,3312.04,368.49)">
            <path d="M0.526,-0.647L0.293,-0.647L0.256,-0.522C0.262,-0.523 0.267,-0.524 0.272,-0.524C0.277,-0.524 0.282,-0.524 0.286,-0.524C0.359,-0.524 0.419,-0.5 0.466,-0.45C0.514,-0.401 0.537,-0.338 0.537,-0.261C0.537,-0.182 0.51,-0.116 0.457,-0.065C0.404,-0.014 0.336,0.012 0.255,0.012C0.155,0.012 0.077,-0.035 0.019,-0.128L0.105,-0.201C0.129,-0.161 0.153,-0.132 0.177,-0.116C0.201,-0.099 0.23,-0.091 0.265,-0.091C0.311,-0.091 0.349,-0.107 0.38,-0.139C0.411,-0.172 0.426,-0.212 0.426,-0.259C0.426,-0.307 0.411,-0.346 0.38,-0.377C0.35,-0.409 0.312,-0.424 0.266,-0.424C0.215,-0.424 0.17,-0.402 0.133,-0.357L0.096,-0.357L0.214,-0.754L0.526,-0.754L0.526,-0.647Z" style="fill:rgb(180,203,230);fill-rule:nonzero;"/>
        </g>
        <g transform="matrix(57.8618,0,0,57.8648,3347.75,368.49)">
            <path d="M0.393,-0.78L0.476,-0.718L0.296,-0.473C0.306,-0.474 0.314,-0.475 0.321,-0.476C0.328,-0.476 0.333,-0.477 0.337,-0.477C0.398,-0.477 0.451,-0.453 0.496,-0.406C0.54,-0.36 0.562,-0.304 0.562,-0.239C0.562,-0.17 0.537,-0.111 0.488,-0.062C0.439,-0.012 0.38,0.012 0.311,0.012C0.242,0.012 0.182,-0.012 0.131,-0.061C0.08,-0.109 0.055,-0.167 0.055,-0.233C0.055,-0.292 0.08,-0.356 0.129,-0.422L0.393,-0.78ZM0.451,-0.232C0.451,-0.272 0.437,-0.306 0.41,-0.333C0.382,-0.361 0.348,-0.375 0.309,-0.375C0.269,-0.375 0.235,-0.362 0.208,-0.334C0.18,-0.306 0.166,-0.273 0.166,-0.233C0.166,-0.194 0.18,-0.16 0.208,-0.133C0.235,-0.105 0.269,-0.091 0.309,-0.091C0.348,-0.091 0.382,-0.105 0.409,-0.133C0.437,-0.161 0.451,-0.194 0.451,-0.232Z" style="fill:rgb(180,203,230);fill-rule:nonzero;"/>
        </g>
        <g transform="matrix(57.8618,0,0,57.8648,3380.58,368.49)">
            <path d="M0.424,-0.647L0.052,-0.647L0.052,-0.754L0.614,-0.754L0.138,0.026L0.048,-0.031L0.424,-0.647Z" style="fill:rgb(180,203,230);fill-rule:nonzero;"/>
        </g>
        <g transform="matrix(57.8618,0,0,57.8648,3416.29,368.49)">
            <path d="M0.174,-0.392C0.118,-0.431 0.091,-0.484 0.091,-0.552C0.091,-0.613 0.112,-0.664 0.154,-0.705C0.196,-0.746 0.249,-0.767 0.312,-0.767C0.374,-0.767 0.426,-0.746 0.468,-0.705C0.509,-0.664 0.53,-0.613 0.53,-0.551C0.53,-0.486 0.503,-0.434 0.448,-0.393C0.478,-0.376 0.502,-0.353 0.519,-0.321C0.537,-0.29 0.545,-0.255 0.545,-0.216C0.545,-0.149 0.524,-0.094 0.48,-0.052C0.436,-0.009 0.381,0.012 0.313,0.012C0.243,0.012 0.185,-0.009 0.14,-0.052C0.095,-0.095 0.072,-0.149 0.072,-0.214C0.072,-0.299 0.106,-0.358 0.174,-0.392ZM0.198,-0.552C0.198,-0.52 0.209,-0.493 0.23,-0.471C0.253,-0.449 0.279,-0.438 0.311,-0.438C0.341,-0.438 0.368,-0.449 0.39,-0.471C0.412,-0.493 0.423,-0.52 0.423,-0.551C0.423,-0.582 0.412,-0.608 0.39,-0.63C0.368,-0.653 0.341,-0.664 0.311,-0.664C0.28,-0.664 0.253,-0.653 0.231,-0.63C0.209,-0.608 0.198,-0.582 0.198,-0.552ZM0.184,-0.218C0.184,-0.183 0.196,-0.153 0.22,-0.128C0.244,-0.104 0.274,-0.091 0.309,-0.091C0.343,-0.091 0.373,-0.104 0.397,-0.128C0.421,-0.153 0.434,-0.182 0.434,-0.217C0.434,-0.252 0.421,-0.281 0.397,-0.306C0.373,-0.33 0.343,-0.342 0.309,-0.342C0.274,-0.342 0.245,-0.33 0.22,-0.306C0.196,-0.281 0.184,-0.252 0.184,-0.218Z" style="fill:rgb(180,203,230);fill-rule:nonzero;"/>
        </g>
        <g transform="matrix(57.8618,0,0,57.8648,3452.01,368.49)">
            <path d="M0.225,0.026L0.141,-0.036L0.321,-0.282C0.312,-0.28 0.303,-0.279 0.296,-0.279C0.29,-0.278 0.284,-0.278 0.28,-0.278C0.219,-0.278 0.166,-0.301 0.122,-0.348C0.077,-0.394 0.055,-0.45 0.055,-0.515C0.055,-0.584 0.08,-0.643 0.129,-0.692C0.178,-0.742 0.238,-0.767 0.307,-0.767C0.375,-0.767 0.435,-0.742 0.486,-0.693C0.537,-0.645 0.562,-0.588 0.562,-0.521C0.562,-0.463 0.537,-0.4 0.488,-0.332L0.225,0.026ZM0.166,-0.523C0.166,-0.482 0.18,-0.448 0.208,-0.42C0.236,-0.392 0.269,-0.378 0.309,-0.378C0.348,-0.378 0.382,-0.392 0.409,-0.42C0.437,-0.448 0.451,-0.482 0.451,-0.521C0.451,-0.56 0.437,-0.594 0.409,-0.622C0.382,-0.65 0.348,-0.664 0.308,-0.664C0.269,-0.664 0.236,-0.65 0.208,-0.622C0.18,-0.594 0.166,-0.561 0.166,-0.523Z" style="fill:rgb(180,203,230);fill-rule:nonzero;"/>
        </g>
        <g transform="matrix(57.8618,0,0,57.8648,3487.72,368.49)">
            <path d="M0.042,-0.382C0.042,-0.502 0.07,-0.598 0.126,-0.669C0.177,-0.734 0.237,-0.767 0.309,-0.767C0.38,-0.767 0.441,-0.734 0.491,-0.669C0.547,-0.598 0.575,-0.5 0.575,-0.377C0.575,-0.254 0.547,-0.157 0.491,-0.085C0.441,-0.02 0.38,0.012 0.309,0.012C0.238,0.012 0.177,-0.02 0.126,-0.085C0.07,-0.157 0.042,-0.256 0.042,-0.382ZM0.154,-0.381C0.154,-0.298 0.169,-0.228 0.198,-0.173C0.227,-0.118 0.264,-0.091 0.309,-0.091C0.353,-0.091 0.39,-0.118 0.419,-0.173C0.449,-0.227 0.463,-0.295 0.463,-0.377C0.463,-0.46 0.449,-0.528 0.419,-0.583C0.39,-0.637 0.353,-0.664 0.309,-0.664C0.264,-0.664 0.228,-0.637 0.198,-0.583C0.169,-0.529 0.154,-0.462 0.154,-0.381Z" style="fill:rgb(180,203,230);fill-rule:nonzero;"/>
        </g>
    </g>
</svg>
