<?xml version="1.0" encoding="UTF-8" standalone="no"?>
<!DOCTYPE svg PUBLIC "-//W3C//DTD SVG 1.1//EN" "http://www.w3.org/Graphics/SVG/1.1/DTD/svg11.dtd">
<svg width="100%" height="100%" viewBox="0 0 400 267" version="1.1" xmlns="http://www.w3.org/2000/svg" xmlns:xlink="http://www.w3.org/1999/xlink" xml:space="preserve" xmlns:serif="http://www.serif.com/" style="fill-rule:evenodd;clip-rule:evenodd;stroke-linejoin:round;stroke-miterlimit:2;">
    <g transform="matrix(1,0,0,1,0,-193)">
        <g id="genero" transform="matrix(0.429646,0,0,0.537634,866.595,582.785)">
            <rect x="-2017" y="-725" width="931" height="496" style="fill:white;"/>
            <g transform="matrix(6.20667,0,0,4.96,-2940.85,-3171.86)">
                <path d="M192.802,526.311L204.073,526.311L204.073,556.446L192.802,556.446L192.802,526.311ZM195.907,553.34L198.437,553.34C199.982,553.34 200.968,552.256 200.968,550.843L200.968,540.688C200.935,539.9 200.639,539.276 200.113,538.782C200.705,538.158 200.968,537.534 200.968,536.877L200.968,531.947C200.968,530.534 199.982,529.416 198.437,529.416L195.907,529.416L195.907,553.34ZM197.156,552.092L197.156,539.407L198.437,539.407C199.127,539.407 199.719,539.966 199.719,540.688L199.719,550.843C199.719,551.533 199.193,552.092 198.437,552.092L197.156,552.092ZM197.156,538.125L197.156,530.698L198.437,530.698C199.193,530.698 199.719,531.257 199.719,531.947L199.719,536.877C199.719,537.566 199.127,538.125 198.437,538.125L197.156,538.125Z" style="fill:rgb(108,110,112);"/>
            </g>
            <g transform="matrix(6.20667,0,0,4.96,-2940.85,-2993.52)">
                <rect x="192.801" y="522.43" width="1.879" height="1.941" style="fill:rgb(228,29,37);"/>
            </g>
            <g transform="matrix(6.20667,0,0,4.96,-2940.85,-2993.52)">
                <rect x="194.68" y="522.43" width="1.879" height="1.941" style="fill:rgb(246,137,30);"/>
            </g>
            <g transform="matrix(6.20667,0,0,4.96,-2940.85,-2993.52)">
                <rect x="196.559" y="522.43" width="1.879" height="1.941" style="fill:rgb(251,238,0);"/>
            </g>
            <g transform="matrix(6.20667,0,0,4.96,-2940.85,-2993.52)">
                <rect x="198.437" y="522.43" width="1.878" height="1.941" style="fill:rgb(1,124,64);"/>
            </g>
            <g transform="matrix(6.20667,0,0,4.96,-2940.85,-2993.52)">
                <rect x="200.316" y="522.43" width="1.879" height="1.941" style="fill:rgb(52,91,170);"/>
            </g>
            <g transform="matrix(6.20667,0,0,4.96,-2940.85,-2993.52)">
                <rect x="202.194" y="522.43" width="1.879" height="1.941" style="fill:rgb(106,38,122);"/>
            </g>
            <g transform="matrix(6.20667,0,0,4.96,-2940.85,-3171.86)">
                <path d="M209.742,526.311L221.013,526.311L221.013,556.446L209.742,556.446L209.742,526.311ZM212.847,553.34L215.378,553.34C216.922,553.34 217.908,552.256 217.908,550.843L217.908,540.688C217.875,539.9 217.579,539.276 217.054,538.782C217.645,538.158 217.908,537.534 217.908,536.877L217.908,531.947C217.908,530.534 216.922,529.416 215.378,529.416L212.847,529.416L212.847,553.34ZM214.096,552.092L214.096,539.407L215.378,539.407C216.068,539.407 216.659,539.966 216.659,540.688L216.659,550.843C216.659,551.533 216.133,552.092 215.378,552.092L214.096,552.092ZM214.096,538.125L214.096,530.698L215.378,530.698C216.133,530.698 216.659,531.257 216.659,531.947L216.659,536.877C216.659,537.566 216.068,538.125 215.378,538.125L214.096,538.125Z" style="fill:rgb(108,110,112);"/>
            </g>
            <g transform="matrix(6.20667,0,0,4.96,-2940.85,-2993.52)">
                <rect x="209.742" y="522.43" width="2.254" height="1.941" style="fill:rgb(88,89,91);"/>
            </g>
            <g transform="matrix(6.20667,0,0,4.96,-2940.85,-2993.52)">
                <rect x="211.996" y="522.43" width="2.254" height="1.941" style="fill:rgb(128,130,133);"/>
            </g>
            <g transform="matrix(6.20667,0,0,4.96,-2940.85,-2993.52)">
                <rect x="214.25" y="522.43" width="2.254" height="1.941" style="fill:rgb(147,149,152);"/>
            </g>
            <g transform="matrix(6.20667,0,0,4.96,-2940.85,-2993.52)">
                <rect x="216.505" y="522.43" width="2.254" height="1.941" style="fill:rgb(167,169,172);"/>
            </g>
            <g transform="matrix(6.20667,0,0,4.96,-2940.85,-2993.52)">
                <rect x="218.759" y="522.43" width="2.254" height="1.941" style="fill:rgb(209,211,212);"/>
            </g>
            <g transform="matrix(6.20667,0,0,4.96,-2940.85,-3171.86)">
                <path d="M226.682,526.311L237.954,526.311L237.954,556.446L226.682,556.446L226.682,526.311ZM229.788,553.34L232.318,553.34C233.863,553.34 234.848,552.256 234.848,550.843L234.848,540.688C234.816,539.9 234.52,539.276 233.994,538.782C234.586,538.158 234.848,537.534 234.848,536.877L234.848,531.947C234.848,530.534 233.863,529.416 232.318,529.416L229.788,529.416L229.788,553.34ZM231.036,552.092L231.036,539.407L232.318,539.407C233.008,539.407 233.6,539.966 233.6,540.688L233.6,550.843C233.6,551.533 233.074,552.092 232.318,552.092L231.036,552.092ZM231.036,538.125L231.036,530.698L232.318,530.698C233.074,530.698 233.6,531.257 233.6,531.947L233.6,536.877C233.6,537.566 233.008,538.125 232.318,538.125L231.036,538.125Z" style="fill:rgb(108,110,112);"/>
            </g>
            <g transform="matrix(6.20667,0,0,4.96,-2940.85,-2993.52)">
                <rect x="226.682" y="522.43" width="2.254" height="1.941" style="fill:rgb(88,203,245);"/>
            </g>
            <g transform="matrix(6.20667,0,0,4.96,-2940.85,-2993.52)">
                <rect x="228.937" y="522.43" width="2.254" height="1.941" style="fill:rgb(247,167,182);"/>
            </g>
            <g transform="matrix(6.20667,0,0,4.96,-2940.85,-2993.52)">
                <rect x="231.191" y="522.43" width="2.254" height="1.941" style="fill:white;"/>
            </g>
            <g transform="matrix(6.20667,0,0,4.96,-2940.85,-2993.52)">
                <rect x="233.445" y="522.43" width="2.254" height="1.941" style="fill:rgb(247,167,182);"/>
            </g>
            <g transform="matrix(6.20667,0,0,4.96,-2940.85,-2993.52)">
                <rect x="235.699" y="522.43" width="2.254" height="1.941" style="fill:rgb(88,203,245);"/>
            </g>
            <g transform="matrix(6.20667,0,0,4.96,-2940.85,-3171.86)">
                <path d="M243.623,526.311L254.894,526.311L254.894,556.446L243.623,556.446L243.623,526.311ZM246.728,553.34L249.259,553.34C250.803,553.34 251.789,552.256 251.789,550.843L251.789,540.688C251.756,539.9 251.461,539.276 250.934,538.782C251.526,538.158 251.789,537.534 251.789,536.877L251.789,531.947C251.789,530.534 250.803,529.416 249.259,529.416L246.728,529.416L246.728,553.34ZM247.977,552.092L247.977,539.407L249.259,539.407C249.949,539.407 250.54,539.966 250.54,540.688L250.54,550.843C250.54,551.533 250.014,552.092 249.259,552.092L247.977,552.092ZM247.977,538.125L247.977,530.698L249.259,530.698C250.014,530.698 250.54,531.257 250.54,531.947L250.54,536.877C250.54,537.566 249.949,538.125 249.259,538.125L247.977,538.125Z" style="fill:rgb(108,110,112);"/>
            </g>
            <g transform="matrix(6.20667,0,0,4.96,-2940.85,-2993.52)">
                <rect x="243.623" y="522.43" width="3.757" height="1.941" style="fill:rgb(236,0,140);"/>
            </g>
            <g transform="matrix(6.20667,0,0,4.96,-2940.85,-2993.52)">
                <rect x="247.38" y="522.43" width="3.757" height="1.941" style="fill:rgb(255,203,3);"/>
            </g>
            <g transform="matrix(6.20667,0,0,4.96,-2940.85,-2993.52)">
                <rect x="251.137" y="522.43" width="3.757" height="1.941" style="fill:rgb(0,174,239);"/>
            </g>
            <g transform="matrix(6.20667,0,0,4.96,-2940.85,-3171.86)">
                <path d="M175.861,526.311L187.132,526.311L187.132,556.446L175.861,556.446L175.861,526.311ZM178.967,553.34L181.497,553.34C183.041,553.34 184.027,552.256 184.027,550.843L184.027,540.688C183.995,539.9 183.699,539.276 183.173,538.782C183.764,538.158 184.027,537.534 184.027,536.877L184.027,531.947C184.027,530.534 183.041,529.416 181.497,529.416L178.967,529.416L178.967,553.34ZM180.215,552.092L180.215,539.407L181.497,539.407C182.187,539.407 182.778,539.966 182.778,540.688L182.778,550.843C182.778,551.533 182.253,552.092 181.497,552.092L180.215,552.092ZM180.215,538.125L180.215,530.698L181.497,530.698C182.253,530.698 182.778,531.257 182.778,531.947L182.778,536.877C182.778,537.566 182.187,538.125 181.497,538.125L180.215,538.125Z" style="fill:rgb(108,110,112);"/>
            </g>
            <g transform="matrix(6.20667,0,0,4.96,-2940.85,-2993.52)">
                <rect x="177.471" y="522.43" width="1.61" height="1.941" style="fill:rgb(171,70,136);"/>
            </g>
            <g transform="matrix(6.20667,0,0,4.96,-2940.85,-2993.52)">
                <rect x="179.082" y="522.43" width="1.61" height="1.941" style="fill:rgb(194,86,155);"/>
            </g>
            <g transform="matrix(6.20667,0,0,4.96,-2940.85,-2993.52)">
                <rect x="180.692" y="522.43" width="1.61" height="1.941" style="fill:white;"/>
            </g>
            <g transform="matrix(6.20667,0,0,4.96,-2940.85,-2993.52)">
                <rect x="182.302" y="522.43" width="1.61" height="1.941" style="fill:rgb(222,166,202);"/>
            </g>
            <g transform="matrix(6.20667,0,0,4.96,-2940.85,-2993.52)">
                <rect x="183.912" y="522.43" width="1.61" height="1.941" style="fill:rgb(187,64,72);"/>
            </g>
            <g transform="matrix(6.20667,0,0,4.96,-2940.85,-2993.52)">
                <rect x="185.522" y="522.43" width="1.61" height="1.941" style="fill:rgb(125,18,20);"/>
            </g>
            <g transform="matrix(6.20667,0,0,4.96,-2940.85,-2993.52)">
                <rect x="175.861" y="522.43" width="1.61" height="1.941" style="fill:rgb(152,28,90);"/>
            </g>
            <g transform="matrix(6.20667,0,0,4.96,-2940.85,-3171.86)">
                <path d="M260.563,526.311L271.835,526.311L271.835,556.446L260.563,556.446L260.563,526.311ZM263.669,553.34L266.199,553.34C267.744,553.34 268.729,552.256 268.729,550.843L268.729,540.688C268.697,539.9 268.401,539.276 267.875,538.782C268.467,538.158 268.729,537.534 268.729,536.877L268.729,531.947C268.729,530.534 267.744,529.416 266.199,529.416L263.669,529.416L263.669,553.34ZM264.917,552.092L264.917,539.407L266.199,539.407C266.889,539.407 267.481,539.966 267.481,540.688L267.481,550.843C267.481,551.533 266.955,552.092 266.199,552.092L264.917,552.092ZM264.917,538.125L264.917,530.698L266.199,530.698C266.955,530.698 267.481,531.257 267.481,531.947L267.481,536.877C267.481,537.566 266.889,538.125 266.199,538.125L264.917,538.125Z" style="fill:rgb(108,110,112);"/>
            </g>
            <g transform="matrix(6.20667,0,0,4.96,-2940.85,-2993.52)">
                <rect x="260.563" y="522.43" width="3.757" height="1.941" style="fill:rgb(164,122,182);"/>
            </g>
            <g transform="matrix(6.20667,0,0,4.96,-2940.85,-2993.52)">
                <rect x="264.32" y="522.43" width="3.757" height="1.941" style="fill:white;"/>
            </g>
            <g transform="matrix(6.20667,0,0,4.96,-2940.85,-2993.52)">
                <rect x="268.077" y="522.43" width="3.757" height="1.941" style="fill:rgb(60,124,59);"/>
            </g>
        </g>
    </g>
</svg>
