<?xml version="1.0" encoding="UTF-8" standalone="no"?>
<!DOCTYPE svg PUBLIC "-//W3C//DTD SVG 1.1//EN" "http://www.w3.org/Graphics/SVG/1.1/DTD/svg11.dtd">
<svg width="100%" height="100%" viewBox="0 0 1329 1329" version="1.1" xmlns="http://www.w3.org/2000/svg" xmlns:xlink="http://www.w3.org/1999/xlink" xml:space="preserve" xmlns:serif="http://www.serif.com/" style="fill-rule:evenodd;clip-rule:evenodd;stroke-linecap:round;stroke-linejoin:round;stroke-miterlimit:2;">
    <g id="ILUSTRAÇÃO">
    </g>
    <g id="LOGO">
    </g>
    <rect id="ICON" x="0" y="0" width="1328.74" height="1328.74" style="fill:white;"/>
    <clipPath id="_clip1">
        <rect x="0" y="0" width="1328.74" height="1328.74"/>
    </clipPath>
    <g clip-path="url(#_clip1)">
        <g id="HUSKY">
            <rect id="MENU" x="1018.83" y="1018.7" width="236.22" height="236.22" style="fill:white;"/>
            <path d="M1155.94,1179.33C1156.2,1177.08 1156.34,1174.5 1156.32,1171.53C1156.28,1165.51 1154.23,1155.54 1155.08,1155.14C1158.23,1153.65 1173.24,1157.99 1178.4,1143.27C1180.84,1136.32 1178.84,1135.95 1174.9,1134.17C1161.96,1128.33 1161.06,1128.73 1160.44,1125.5C1158.52,1115.5 1148.77,1114.69 1148.57,1110.98C1148.47,1109.2 1148.7,1102.78 1146.8,1097.29C1145.87,1094.59 1134.39,1114.63 1133.71,1108.96C1133.35,1105.99 1130.64,1092.24 1126.48,1094.55C1119.37,1098.5 1114.89,1115.75 1113.38,1117.92C1107.25,1126.74 1103.68,1132.78 1100.08,1146.57C1099.94,1147.09 1098.12,1154.5 1094.42,1158.1" style="fill:none;stroke:black;stroke-width:7.08px;"/>
        </g>
        <g id="BULDOGUE">
            <rect id="MENU1" serif:id="MENU" x="782.551" y="1018.7" width="236.22" height="236.22" style="fill:white;"/>
            <path d="M897.155,1179.33C898.953,1174.98 900.751,1165.4 903.074,1161.84C904.754,1159.27 909.693,1157.92 911.095,1157.95C913.407,1158.02 916.323,1161.29 919.065,1162.74C930.392,1168.71 942.034,1150.01 942.995,1139.25C943.073,1138.38 943.183,1134.44 943.101,1133.65C942.887,1131.61 933.386,1127.49 933.204,1127.46C932.822,1127.39 934.557,1113.43 919.646,1111.09C918.226,1110.86 919.911,1106.49 917.07,1096.73C916.698,1095.45 909.129,1104.33 908.413,1102.62C906.674,1098.49 901.796,1094.2 898.774,1094.29C894.394,1094.42 893.431,1099.18 893.117,1103.65C893.063,1104.42 892.6,1111.02 892.515,1113.21C892.459,1114.66 890.737,1114.82 888.376,1117.83C882.143,1125.77 883.419,1131.79 881.935,1131.82C875.121,1131.99 875.089,1138.16 873.659,1138.24C864.905,1138.69 866.677,1139.76 858.141,1142.81" style="fill:none;stroke:black;stroke-width:7.08px;"/>
        </g>
        <g id="POODLE">
            <rect id="MENU2" serif:id="MENU" x="546.27" y="1018.7" width="236.22" height="236.22" style="fill:white;"/>
            <path d="M680.91,1179.61C685.266,1176.92 679.837,1174.69 682.9,1172.43C686.472,1169.79 682.92,1168.27 683.267,1166.15C683.881,1162.41 684.894,1161.71 684.456,1160.01C684.017,1158.32 681.051,1157.77 680.635,1155.98C679.732,1152.08 674.485,1134.86 679.041,1136.65C700.776,1145.18 705.621,1133.24 706.838,1129.23C708.132,1124.97 689.488,1117.03 690.974,1114.59C692.729,1111.71 692.421,1106.77 688.456,1104.05C684.344,1101.23 683.885,1097.06 681.233,1095.84C678.593,1094.63 673.98,1097.08 672.547,1096.75C669.357,1096.01 667.952,1094.05 665.685,1094.11C663.418,1094.18 661.414,1097.7 658.945,1097.14C653.035,1095.8 656.794,1101.37 653.678,1102.14C652.343,1102.48 647.754,1102.28 649.126,1107.45C650.085,1111.06 641.741,1108.62 644.607,1114.36C646.747,1118.64 641.897,1116.53 641.226,1119.58C640.526,1122.76 643.351,1122.72 642.919,1124.33C642.432,1126.14 640.266,1126.37 640.515,1129.55C640.741,1132.43 643.38,1132.02 644.179,1133.67C644.778,1134.91 643.166,1136.41 643.146,1140.21C643.138,1141.86 644.616,1141.62 621.858,1159.63" style="fill:none;stroke:black;stroke-width:7.01px;"/>
        </g>
        <g id="GOLDEN">
            <rect id="MENU3" serif:id="MENU" x="310.09" y="1018.7" width="236.22" height="236.22" style="fill:white;"/>
            <path d="M385.68,1137.94C388.345,1134.84 388.629,1134.27 389.355,1132.05C390.453,1128.68 390.392,1121.36 392.272,1117.77C394.019,1114.43 397.978,1113.07 400.639,1110.49C403.734,1107.48 407.016,1102.45 410.839,1099.75C414.647,1097.06 418.997,1094.15 423.578,1094.3C428.975,1094.47 438.959,1098.33 443.22,1100.81C452.043,1105.96 454.263,1114.22 454.575,1118.93C454.797,1122.29 465.209,1124.17 470.679,1127.37C470.861,1127.48 470.41,1134.44 469.734,1139.03C468.16,1149.69 455.305,1155.06 447.203,1154.34C446.036,1154.23 435.848,1152.62 436.643,1156.58C437.752,1162.11 439.1,1167.93 433.884,1179.33" style="fill:none;stroke:black;stroke-width:7.08px;"/>
        </g>
        <g id="CHIHUAHUA">
            <rect id="MENU4" serif:id="MENU" x="73.869" y="1018.7" width="236.22" height="236.22" style="fill:white;"/>
            <path d="M165.195,1166.92C166.275,1165.69 170.37,1161.03 170.338,1147.12C170.314,1136.64 161.927,1141.42 156.324,1129.57C153.434,1123.45 149.46,1111.53 149.46,1103.58C149.46,1097.44 151.836,1093.67 158.926,1096.79C168.04,1100.81 177.729,1114.7 180.022,1114.53C181.447,1114.42 186.526,1112.09 192.931,1111.83C198.661,1111.6 210.672,1090.76 211.964,1094.89C215.538,1106.32 209.266,1114.02 211.017,1115.38C211.243,1115.56 218.211,1119.53 219.495,1125.36C220.129,1128.23 218.885,1132.85 223.491,1133.24C227.738,1133.59 234.499,1132 234.499,1135.88C234.499,1135.99 233.699,1150.96 219.42,1155.49C214.367,1157.1 209.844,1157.2 207.096,1165.55C205.238,1171.19 204.087,1175.65 203.43,1179.27" style="fill:none;stroke:black;stroke-width:7.08px;"/>
        </g>
        <g id="ROUPAS">
            <rect id="MENU5" serif:id="MENU" x="1018.71" y="782.48" width="236.22" height="236.22" style="fill:white;"/>
            <path d="M1107.29,892.118L1094.3,892.118L1094.3,862.698L1118.25,858.071C1118.54,859.693 1119.03,861.245 1119.69,862.698C1122.71,869.317 1129.25,873.907 1136.82,873.907C1144.39,873.907 1150.93,869.317 1153.95,862.698C1154.61,861.245 1155.1,859.693 1155.4,858.071L1179.34,862.698L1179.34,892.118L1166.35,892.118L1166.35,943.11L1107.29,943.11L1107.29,892.118Z" style="fill:none;stroke:black;stroke-width:7.08px;"/>
        </g>
        <g id="BRINQUEDOS">
            <rect id="MENU6" serif:id="MENU" x="782.43" y="782.48" width="236.22" height="236.22" style="fill:white;"/>
            <g>
                <g>
                    <path d="M935.615,865.516C954.973,884.874 954.973,916.307 935.615,935.665C916.257,955.023 884.824,955.023 865.466,935.665C846.107,916.307 846.107,884.874 865.466,865.516C884.824,846.158 916.257,846.158 935.615,865.516ZM930.606,870.525C914.012,853.931 887.068,853.931 870.474,870.525C853.88,887.118 853.88,914.063 870.474,930.657C887.068,947.25 914.012,947.25 930.606,930.657C947.2,914.063 947.2,887.118 930.606,870.525Z"/>
                    <path d="M890.175,910.956C891.65,912.431 891.65,914.826 890.175,916.301C888.7,917.776 886.305,917.776 884.83,916.301C883.355,914.826 883.355,912.431 884.83,910.956C886.305,909.481 888.7,909.481 890.175,910.956ZM883.651,905.43C885.126,906.905 885.126,909.3 883.651,910.775C882.176,912.25 879.781,912.25 878.306,910.775C876.831,909.3 876.831,906.905 878.306,905.43C879.781,903.955 882.176,903.955 883.651,905.43ZM876.249,901.089C877.724,902.564 877.724,904.959 876.249,906.434C874.774,907.909 872.379,907.909 870.904,906.434C869.429,904.959 869.429,902.564 870.904,901.089C872.379,899.614 874.774,899.614 876.249,901.089ZM868.167,898.354C869.642,899.829 869.642,902.224 868.167,903.699C866.692,905.174 864.297,905.174 862.822,903.699C861.347,902.224 861.347,899.829 862.822,898.354C864.297,896.879 866.692,896.879 868.167,898.354ZM859.609,897.799C861.084,899.274 861.084,901.669 859.609,903.144C858.134,904.619 855.739,904.619 854.264,903.144C852.789,901.669 852.789,899.274 854.264,897.799C855.739,896.324 858.134,896.324 859.609,897.799ZM895.757,917.479C897.232,918.954 897.232,921.349 895.757,922.824C894.282,924.299 891.887,924.299 890.412,922.824C888.937,921.349 888.937,918.954 890.412,917.479C891.887,916.004 894.282,916.004 895.757,917.479ZM900.041,924.881C901.516,926.356 901.516,928.751 900.041,930.226C898.566,931.701 896.171,931.701 894.696,930.226C893.221,928.751 893.221,926.356 894.696,924.881C896.171,923.406 898.566,923.406 900.041,924.881ZM902.806,932.994C904.281,934.469 904.281,936.864 902.806,938.339C901.331,939.814 898.936,939.814 897.461,938.339C895.986,936.864 895.986,934.469 897.461,932.994C898.936,931.519 901.331,931.519 902.806,932.994ZM903.331,941.521C904.806,942.996 904.806,945.391 903.331,946.866C901.856,948.341 899.461,948.341 897.986,946.866C896.511,945.391 896.511,942.996 897.986,941.521C899.461,940.046 901.856,940.046 903.331,941.521Z"/>
                    <path d="M910.906,890.225C909.431,888.75 909.431,886.355 910.906,884.88C912.381,883.405 914.776,883.405 916.251,884.88C917.726,886.355 917.726,888.75 916.251,890.225C914.776,891.7 912.381,891.7 910.906,890.225ZM917.429,895.751C915.954,894.276 915.954,891.881 917.429,890.406C918.904,888.931 921.299,888.931 922.774,890.406C924.249,891.881 924.249,894.276 922.774,895.751C921.299,897.226 918.904,897.226 917.429,895.751ZM924.831,900.092C923.356,898.617 923.356,896.222 924.831,894.747C926.306,893.272 928.701,893.272 930.176,894.747C931.651,896.222 931.651,898.617 930.176,900.092C928.701,901.567 926.306,901.567 924.831,900.092ZM932.914,902.827C931.439,901.352 931.439,898.957 932.914,897.482C934.389,896.007 936.784,896.007 938.259,897.482C939.734,898.957 939.734,901.352 938.259,902.827C936.784,904.302 934.389,904.302 932.914,902.827ZM941.471,903.382C939.996,901.907 939.996,899.512 941.471,898.037C942.946,896.562 945.341,896.562 946.816,898.037C948.291,899.512 948.291,901.907 946.816,903.382C945.341,904.857 942.946,904.857 941.471,903.382ZM905.323,883.702C903.848,882.227 903.848,879.832 905.323,878.357C906.798,876.882 909.193,876.882 910.668,878.357C912.143,879.832 912.143,882.227 910.668,883.702C909.193,885.177 906.798,885.177 905.323,883.702ZM901.039,876.3C899.564,874.825 899.564,872.43 901.039,870.955C902.514,869.48 904.909,869.48 906.384,870.955C907.859,872.43 907.859,874.825 906.384,876.3C904.909,877.775 902.514,877.775 901.039,876.3ZM898.274,868.188C896.799,866.713 896.799,864.318 898.274,862.843C899.749,861.368 902.144,861.368 903.619,862.843C905.094,864.318 905.094,866.713 903.619,868.188C902.144,869.663 899.749,869.663 898.274,868.188ZM897.749,859.66C896.274,858.185 896.274,855.79 897.749,854.315C899.224,852.84 901.619,852.84 903.094,854.315C904.569,855.79 904.569,858.185 903.094,859.66C901.619,861.135 899.224,861.135 897.749,859.66Z"/>
                </g>
            </g>
        </g>
        <g id="ACESSORIOS">
            <rect id="MENU7" serif:id="MENU" x="546.149" y="782.48" width="236.22" height="236.22" style="fill:white;"/>
            <g>
                <path d="M685.114,863.194L701.656,879.736C703.298,881.378 704.189,883.635 704.132,886.01C704.076,888.385 703.076,890.683 701.354,892.4L701.351,892.402C699.629,894.118 697.325,895.112 694.945,895.165C694.417,895.176 693.894,895.141 693.383,895.062C703.625,910.992 715.869,923.867 696.457,941.64L696.464,941.648C694.022,944.081 689.259,943.276 685.834,939.851C683.035,937.052 681.991,933.364 683.037,930.781C683.269,930.21 683.603,929.693 684.042,929.251C681.596,931.669 676.911,930.929 673.576,927.594C670.255,924.272 669.515,919.62 671.907,917.175L672.026,917.056C671.355,917.718 670.706,918.042 669.899,918.264C667.384,918.957 664.087,917.919 661.564,915.395C659.08,912.912 658.04,909.684 658.673,907.192C658.879,906.38 659.251,905.634 659.82,905.03C659.215,905.599 658.47,905.971 657.658,906.177C655.165,906.81 651.938,905.769 649.455,903.286C646.931,900.762 645.893,897.465 646.585,894.951C646.807,894.144 647.131,893.495 647.793,892.824L647.717,892.9L647.675,892.943C645.23,895.335 640.577,894.595 637.256,891.273C633.921,887.938 633.181,883.254 635.598,880.808C635.157,881.247 634.64,881.581 634.068,881.812C631.486,882.858 627.797,881.815 624.998,879.016C621.574,875.591 620.769,870.828 623.202,868.385L623.21,868.393C640.983,848.98 653.857,861.224 669.788,871.467C669.708,870.955 669.673,870.433 669.685,869.904C669.738,867.525 670.731,865.221 672.448,863.498L672.45,863.496C674.166,861.774 676.465,860.774 678.84,860.717C681.215,860.661 683.472,861.551 685.114,863.194Z" style="fill:none;stroke:black;stroke-width:7.08px;stroke-linecap:butt;stroke-miterlimit:5;"/>
                <path d="M688.231,925.062L684.055,929.238" style="fill:none;stroke:black;stroke-width:7.08px;stroke-miterlimit:5;"/>
                <path d="M676.125,912.957L671.949,917.132" style="fill:none;stroke:black;stroke-width:7.08px;stroke-miterlimit:5;"/>
                <path d="M664.009,900.841L659.833,905.016" style="fill:none;stroke:black;stroke-width:7.08px;stroke-miterlimit:5;"/>
                <path d="M651.893,888.724L647.717,892.9" style="fill:none;stroke:black;stroke-width:7.08px;stroke-miterlimit:5;"/>
                <path d="M639.777,876.608L635.601,880.784" style="fill:none;stroke:black;stroke-width:7.08px;stroke-miterlimit:5;"/>
                <path d="M685.359,879.491C686.834,880.966 686.834,883.361 685.359,884.836C683.884,886.311 681.489,886.311 680.014,884.836C678.539,883.361 678.539,880.966 680.014,879.491C681.489,878.016 683.884,878.016 685.359,879.491Z"/>
            </g>
        </g>
        <g id="ALIMENTOS">
            <rect id="MENU8" serif:id="MENU" x="309.969" y="782.48" width="236.22" height="236.22" style="fill:white;"/>
            <g>
                <path d="M424.341,911.738L410.858,888.385C405.293,891.236 398.361,889.181 395.153,883.624C391.844,877.893 393.741,870.594 399.386,867.335C401.923,865.87 404.789,865.468 407.475,865.991C408.366,863.403 410.146,861.122 412.683,859.657C418.329,856.398 425.598,858.405 428.907,864.136C432.115,869.693 430.429,876.724 425.178,880.117L442.588,910.272" style="fill:none;stroke:black;stroke-width:7.08px;stroke-miterlimit:5;"/>
                <path d="M412.776,891.708C410.238,892.038 407.787,892.501 405.639,893.143C398.031,895.419 393.118,901.63 392.669,902.462C391.707,904.246 385.707,928.155 385.707,928.858C385.707,930.214 392.669,943.086 428.079,943.086C463.489,943.086 470.451,930.214 470.451,928.858C470.451,928.179 464.855,905.855 463.605,902.721C463.56,902.61 463.522,902.523 463.489,902.462C462.839,901.259 457.424,893.143 433.519,891.165C433.235,891.141 432.525,891.097 431.493,891.055" style="fill:none;stroke:black;stroke-width:7.08px;stroke-miterlimit:5;"/>
                <path d="M392.628,902.545C392.628,902.545 409.572,911.871 427.51,911.871C445.449,911.871 462.358,903.797 463.373,902.721C463.481,902.607 463.53,902.545 463.53,902.545" style="fill:none;stroke:black;stroke-width:7.08px;stroke-miterlimit:5;"/>
            </g>
        </g>
        <g id="HIGIENE">
            <rect id="MENU9" serif:id="MENU" x="73.688" y="782.48" width="236.22" height="236.22" style="fill:white;"/>
            <g>
                <path d="M181.513,858.071L225.935,858.071M229.726,927.49L213.649,927.49" style="fill:none;stroke:black;stroke-width:7.08px;stroke-miterlimit:5;"/>
                <path d="M149.278,927.49L149.278,874.715L149.285,874.715M213.741,874.715L213.747,874.715L213.747,926.23" style="fill:none;stroke:black;stroke-width:7.08px;stroke-miterlimit:5;"/>
                <ellipse cx="181.513" cy="875.049" rx="32.234" ry="16.978" style="fill:none;stroke:black;stroke-width:7.08px;stroke-miterlimit:5;"/>
                <path d="M213.747,926.132C213.747,935.503 199.303,943.11 181.513,943.11C163.722,943.11 149.278,935.503 149.278,926.132" style="fill:none;stroke:black;stroke-width:7.08px;stroke-miterlimit:5;"/>
                <ellipse cx="181.513" cy="874.715" rx="11.922" ry="5.37"/>
                <ellipse cx="181.513" cy="874.715" rx="11.922" ry="5.37"/>
                <path d="M225.935,858.071L234.318,865.896L229.726,875.049L234.318,883.82L229.726,895.272L234.318,905.508L229.726,912.025L234.318,920.375L229.726,927.49" style="fill:none;stroke:black;stroke-width:7.08px;stroke-miterlimit:5;"/>
            </g>
        </g>
        <g id="ESTRELA">
            <rect id="MENU10" serif:id="MENU" x="1018.77" y="546.26" width="236.22" height="236.22" style="fill:white;"/>
            <path d="M1132.05,625.519C1132.73,623.332 1134.68,621.85 1136.88,621.85C1139.08,621.85 1141.03,623.332 1141.71,625.519C1144.1,633.206 1146.79,641.837 1148.27,646.607C1148.95,648.795 1150.9,650.276 1153.1,650.276C1157.9,650.276 1166.59,650.276 1174.32,650.276C1176.52,650.276 1178.47,651.757 1179.15,653.945C1179.83,656.133 1179.09,658.53 1177.31,659.882C1171.05,664.632 1164.02,669.967 1160.14,672.915C1158.36,674.267 1157.62,676.664 1158.3,678.851C1159.78,683.621 1162.46,692.253 1164.85,699.939C1165.53,702.127 1164.79,704.524 1163.01,705.876C1161.23,707.228 1158.81,707.228 1157.03,705.876C1150.78,701.125 1143.75,695.791 1139.87,692.843C1138.09,691.491 1135.68,691.491 1133.89,692.843C1130.01,695.791 1122.99,701.125 1116.73,705.876C1114.95,707.228 1112.54,707.228 1110.76,705.876C1108.98,704.524 1108.23,702.127 1108.91,699.939C1111.3,692.253 1113.99,683.621 1115.47,678.851C1116.15,676.664 1115.4,674.267 1113.62,672.915C1109.74,669.967 1102.71,664.632 1096.46,659.882C1094.68,658.53 1093.93,656.133 1094.61,653.945C1095.29,651.757 1097.24,650.276 1099.44,650.276C1107.18,650.276 1115.86,650.276 1120.66,650.276C1122.86,650.276 1124.81,648.795 1125.49,646.607C1126.98,641.837 1129.66,633.206 1132.05,625.519Z" style="fill:none;stroke:black;stroke-width:7.08px;stroke-miterlimit:1.5;"/>
        </g>
        <g id="CARINHA">
            <rect id="MENU11" serif:id="MENU" x="782.531" y="546.26" width="236.22" height="236.22" style="fill:white;"/>
            <g>
                <path d="M900.641,620.878C924.108,620.878 943.161,639.931 943.161,663.398C943.161,686.865 924.108,705.917 900.641,705.917C877.174,705.917 858.121,686.865 858.121,663.398C858.121,639.931 877.174,620.878 900.641,620.878ZM900.641,627.961C881.083,627.961 865.205,643.84 865.205,663.398C865.205,682.956 881.083,698.834 900.641,698.834C920.199,698.834 936.077,682.956 936.077,663.398C936.077,643.84 920.199,627.961 900.641,627.961Z"/>
                <path d="M918.548,671.546C916.705,674.904 910.474,683.07 900.641,683.357C890.808,683.07 884.577,674.904 882.734,671.546" style="fill:none;stroke:black;stroke-width:7.08px;stroke-miterlimit:1.5;"/>
                <circle cx="915.894" cy="649.345" r="5.906"/>
                <path d="M915.894,643.439C919.153,643.439 921.799,646.085 921.799,649.345C921.799,652.604 919.153,655.25 915.894,655.25C912.634,655.25 909.988,652.604 909.988,649.345C909.988,646.085 912.634,643.439 915.894,643.439ZM915.894,650.522C916.544,650.522 917.071,649.995 917.071,649.345C917.071,648.694 916.544,648.167 915.894,648.167C915.244,648.167 914.716,648.694 914.716,649.345C914.716,649.995 915.244,650.522 915.894,650.522Z"/>
                <circle cx="885.388" cy="649.345" r="5.906"/>
                <path d="M885.388,643.439C888.648,643.439 891.294,646.085 891.294,649.345C891.294,652.604 888.648,655.25 885.388,655.25C882.129,655.25 879.483,652.604 879.483,649.345C879.483,646.085 882.129,643.439 885.388,643.439ZM885.388,650.522C886.038,650.522 886.566,649.995 886.566,649.345C886.566,648.694 886.038,648.167 885.388,648.167C884.738,648.167 884.21,648.694 884.21,649.345C884.21,649.995 884.738,650.522 885.388,650.522Z"/>
            </g>
        </g>
        <g id="CLIP">
            <rect id="MENU12" serif:id="MENU" x="546.3" y="546.26" width="236.22" height="236.22" style="fill:white;"/>
            <path d="M698.767,650.901L672.735,695.989C669.629,701.369 664.571,705.328 658.674,706.996C652.776,708.664 646.523,707.903 641.289,704.882C640.834,704.619 640.389,704.34 639.956,704.047C635.414,700.976 632.139,696.308 630.766,690.884C629.262,684.943 630.162,678.583 633.268,673.202L656.512,632.942L633.268,673.202L656.512,632.942C659.619,627.562 663.287,623.054 669.184,621.386C673.294,620.224 678.157,621.201 681.091,622.849C690.598,628.187 690.375,636.958 687.277,642.325C682.863,649.97 677.35,659.512 672.021,668.736C668.223,675.309 664.519,681.721 661.374,687.169C658.385,692.346 652.652,694.633 648.569,692.275L648.567,692.274C646.606,691.142 645.296,689.069 644.925,686.51C644.554,683.952 645.152,681.118 646.587,678.631L668.679,640.368" style="fill:none;stroke:black;stroke-width:7.08px;stroke-linejoin:miter;stroke-miterlimit:1.5;"/>
        </g>
        <g id="ENVIAR">
            <rect id="MENU13" serif:id="MENU" x="310.07" y="546.26" width="236.22" height="236.22" style="fill:white;"/>
            <path d="M470.7,664.37C470.7,678.543 400.282,706.89 388.759,706.89C377.236,706.89 401.562,664.37 401.562,664.37C401.562,664.37 377.236,621.85 388.759,621.85C400.282,621.85 470.7,650.197 470.7,664.37ZM393.612,629.849C393.967,631.323 394.417,632.966 394.933,634.366C399.276,646.141 407.71,660.853 407.71,660.853L409.723,664.37L407.71,667.888C407.71,667.888 399.276,682.6 394.933,694.374C394.417,695.775 393.967,697.418 393.612,698.892C395.533,698.368 397.83,697.648 400.403,696.803C414.945,692.03 436.895,682.744 451.464,673.773C455.56,671.251 459.043,668.786 461.48,666.449C462.115,665.84 462.812,664.956 463.252,664.37C462.812,663.784 462.115,662.9 461.48,662.291C459.043,659.954 455.56,657.489 451.464,654.967C436.895,645.996 414.945,636.71 400.403,631.937C397.83,631.092 395.533,630.372 393.612,629.849Z"/>
            <path d="M465.751,664.37L401.562,664.37" style="fill:none;stroke:black;stroke-width:7.08px;stroke-linecap:butt;stroke-linejoin:miter;stroke-miterlimit:1.5;"/>
        </g>
        <g id="CORACAO">
            <rect id="MENU14" serif:id="MENU" x="73.839" y="546.26" width="236.22" height="236.22" style="fill:white;"/>
            <path d="M191.949,636.059C192.524,636.059 193.057,635.706 193.36,635.125C202.164,618.321 217.105,619.611 225.83,628.185C252.203,654.102 211.121,692.99 196.671,705.224C193.782,707.669 190.116,707.669 187.228,705.224C172.777,692.99 131.695,654.102 158.068,628.185C166.794,619.611 181.734,618.321 190.538,635.125C190.842,635.706 191.375,636.059 191.949,636.059ZM191.949,643.142L189.423,642.758L187.232,641.716L185.503,640.211L184.261,638.408C181.783,633.679 178.807,630.79 175.504,629.648C171.031,628.101 166.358,629.97 163.033,633.238C154.862,641.268 155.427,650.96 159.312,660.241C166.378,677.123 183.66,692.923 191.804,699.818C191.893,699.893 192.006,699.893 192.094,699.818C200.238,692.923 217.521,677.123 224.587,660.241C228.471,650.96 229.037,641.268 220.865,633.238C217.54,629.97 212.868,628.101 208.395,629.648C205.091,630.79 202.115,633.679 199.639,638.404L198.396,640.211L196.667,641.716L194.475,642.758L191.949,643.142Z"/>
        </g>
        <g id="SUBIR">
            <rect id="MENU15" serif:id="MENU" x="1018.73" y="310.039" width="236.22" height="236.22" style="fill:white;"/>
            <path id="MENOS" d="M1136.84,413.117L1106.78,443.183" style="fill:none;stroke:black;stroke-width:7.08px;stroke-miterlimit:1.5;"/>
            <path id="MENOS1" serif:id="MENOS" d="M1136.84,413.117L1166.91,443.183" style="fill:none;stroke:black;stroke-width:7.08px;stroke-miterlimit:1.5;"/>
        </g>
        <g id="DESCER">
            <rect id="MENU16" serif:id="MENU" x="782.5" y="310.039" width="236.22" height="236.22" style="fill:white;"/>
            <path id="MENOS2" serif:id="MENOS" d="M900.611,443.183L870.545,413.117" style="fill:none;stroke:black;stroke-width:7.08px;stroke-miterlimit:1.5;"/>
            <path id="MENOS3" serif:id="MENOS" d="M900.611,443.183L930.677,413.117" style="fill:none;stroke:black;stroke-width:7.08px;stroke-miterlimit:1.5;"/>
        </g>
        <g id="FECHAR">
            <rect id="MENU17" serif:id="MENU" x="546.27" y="310.039" width="236.22" height="236.22" style="fill:white;"/>
            <path id="MENOS4" serif:id="MENOS" d="M694.446,458.216L634.314,398.084" style="fill:none;stroke:black;stroke-width:7.08px;stroke-miterlimit:1.5;"/>
            <path id="MENOS5" serif:id="MENOS" d="M634.314,458.216L694.446,398.084" style="fill:none;stroke:black;stroke-width:7.08px;stroke-miterlimit:1.5;"/>
        </g>
        <g id="MAIS">
            <rect id="MENU18" serif:id="MENU" x="310.06" y="310.039" width="236.22" height="236.22" style="fill:white;"/>
            <path id="MENOS6" serif:id="MENOS" d="M385.651,428.464L470.688,427.835" style="fill:none;stroke:black;stroke-width:7.08px;stroke-miterlimit:1.5;"/>
            <path id="MENOS7" serif:id="MENOS" d="M427.855,385.631L428.484,470.668" style="fill:none;stroke:black;stroke-width:7.08px;stroke-miterlimit:1.5;"/>
        </g>
        <g id="MENOS8" serif:id="MENOS">
            <rect id="MENU19" serif:id="MENU" x="73.829" y="310.039" width="236.22" height="236.22" style="fill:white;"/>
            <path id="MENOS9" serif:id="MENOS" d="M234.459,428.15L149.42,428.15" style="fill:none;stroke:black;stroke-width:7.08px;stroke-miterlimit:1.5;"/>
        </g>
        <g id="CHAT">
            <rect id="MENU20" serif:id="MENU" x="1018.72" y="73.819" width="236.22" height="236.22" style="fill:white;"/>
            <path d="M1163.57,222.701L1163.56,222.696C1163.2,221.968 1162.79,221.262 1162.34,220.582C1161.63,219.518 1160.81,218.519 1159.89,217.601C1156.22,213.927 1151.23,211.862 1146.04,211.862L1108.08,211.862C1100.47,211.862 1094.31,205.7 1094.31,198.099L1094.31,163.173C1094.31,155.572 1100.47,149.41 1108.08,149.41L1165.06,149.41C1172.95,149.41 1179.35,155.806 1179.35,163.696L1179.35,214.516L1179.35,228.733C1179.35,230.706 1178.33,232.625 1176.5,233.683C1173.77,235.259 1170.28,234.324 1168.7,231.594L1163.57,222.701ZM1169.79,219.322L1172.27,223.608L1172.27,214.516L1172.27,163.696C1172.27,159.718 1169.04,156.493 1165.06,156.493L1108.08,156.493C1104.39,156.493 1101.39,159.484 1101.39,163.173L1101.39,198.099C1101.39,201.788 1104.39,204.779 1108.08,204.779L1146.04,204.779C1153.11,204.779 1159.9,207.59 1164.9,212.593C1166.15,213.842 1167.26,215.203 1168.23,216.651C1168.8,217.512 1169.32,218.404 1169.79,219.322Z"/>
            <path d="M1117.02,172.118L1156.91,172.118" style="fill:none;stroke:black;stroke-width:7.08px;stroke-miterlimit:50;"/>
            <path d="M1136.83,189.154L1156.91,189.154" style="fill:none;stroke:black;stroke-width:7.08px;stroke-miterlimit:50;"/>
        </g>
        <g id="SACOLA">
            <rect id="MENU21" serif:id="MENU" x="782.5" y="73.819" width="236.22" height="236.22" style="fill:white;"/>
            <g>
                <path d="M927.903,169.594C932.476,169.594 936.807,171.507 939.699,174.804C942.591,178.102 943.738,182.434 942.822,186.605L934.768,223.291C933.319,229.889 927.083,234.627 919.849,234.627L880.222,234.627C872.826,234.627 866.499,229.68 865.223,222.899L858.319,186.212C857.543,182.088 858.766,177.856 861.659,174.65C864.553,171.445 868.82,169.594 873.319,169.594L927.903,169.594ZM927.903,176.677L873.319,176.677C870.857,176.677 868.501,177.642 866.918,179.396C865.537,180.926 864.91,182.934 865.281,184.902L872.184,221.589C872.855,225.152 876.336,227.544 880.222,227.544L919.849,227.544C923.658,227.544 927.087,225.246 927.849,221.772L935.903,185.086C936.34,183.099 935.751,181.046 934.374,179.475C932.793,177.672 930.403,176.677 927.903,176.677Z"/>
                <path d="M882.598,170.763C882.598,158.879 890.669,149.231 900.611,149.231C910.552,149.231 918.624,158.879 918.624,170.763" style="fill:none;stroke:black;stroke-width:7.08px;stroke-linejoin:miter;stroke-miterlimit:50;"/>
                <path d="M882.598,173.094L882.598,184.905" style="fill:none;stroke:black;stroke-width:7.08px;stroke-linejoin:miter;stroke-miterlimit:50;"/>
                <path d="M918.624,173.094L918.624,184.905" style="fill:none;stroke:black;stroke-width:7.08px;stroke-linejoin:miter;stroke-miterlimit:50;"/>
            </g>
        </g>
        <g id="CONTA">
            <rect id="MENU22" serif:id="MENU" x="546.27" y="73.819" width="236.22" height="236.22" style="fill:white;"/>
            <g id="conta">
                <path d="M664.38,149.231C678.069,149.231 689.183,160.345 689.183,174.034C689.183,187.724 678.069,198.838 664.38,198.838C650.691,198.838 639.577,187.724 639.577,174.034C639.577,160.345 650.691,149.231 664.38,149.231ZM664.38,156.315C654.6,156.315 646.66,164.255 646.66,174.034C646.66,183.814 654.6,191.754 664.38,191.754C674.16,191.754 682.1,183.814 682.1,174.034C682.1,164.255 674.16,156.315 664.38,156.315Z"/>
                <path d="M621.86,234.627C624.182,212.534 642.346,195.312 664.38,195.312C686.414,195.312 704.579,212.534 706.9,234.627" style="fill:none;stroke:black;stroke-width:7.08px;stroke-linejoin:miter;stroke-miterlimit:50;"/>
            </g>
        </g>
        <g id="PESQUISA">
            <rect id="MENU23" serif:id="MENU" x="310.049" y="73.819" width="236.22" height="236.22" style="fill:white;"/>
            <g id="pesquisar">
                <path d="M418.977,149.278C437.398,149.278 452.353,164.23 452.353,182.648C452.353,201.065 437.398,216.018 418.977,216.018C400.556,216.018 385.6,201.065 385.6,182.648C385.6,164.23 400.556,149.278 418.977,149.278ZM418.977,156.361C404.466,156.361 392.684,168.139 392.684,182.648C392.684,197.156 404.466,208.934 418.977,208.934C433.488,208.934 445.27,197.156 445.27,182.648C445.27,168.139 433.488,156.361 418.977,156.361Z"/>
                <path d="M442.447,206.309L470.719,234.581" style="fill:none;stroke:black;stroke-width:7.08px;stroke-linejoin:miter;stroke-miterlimit:50;"/>
            </g>
        </g>
        <g id="MENU24" serif:id="MENU">
            <rect id="MENU25" serif:id="MENU" x="73.829" y="73.819" width="236.22" height="236.22" style="fill:white;"/>
            <path id="MENOS10" serif:id="MENOS" d="M234.459,149.278L149.42,149.278" style="fill:none;stroke:black;stroke-width:7.08px;stroke-miterlimit:1.5;"/>
            <path id="MENOS11" serif:id="MENOS" d="M234.459,191.929L149.42,191.929" style="fill:none;stroke:black;stroke-width:7.08px;stroke-miterlimit:1.5;"/>
            <path id="MENOS12" serif:id="MENOS" d="M234.459,234.581L149.42,234.581" style="fill:none;stroke:black;stroke-width:7.08px;stroke-miterlimit:1.5;"/>
        </g>
    </g>
</svg>
