<?xml version="1.0" encoding="UTF-8" standalone="no"?>
<!DOCTYPE svg PUBLIC "-//W3C//DTD SVG 1.1//EN" "http://www.w3.org/Graphics/SVG/1.1/DTD/svg11.dtd">
<svg width="100%" height="100%" viewBox="0 0 238 237" version="1.1" xmlns="http://www.w3.org/2000/svg" xmlns:xlink="http://www.w3.org/1999/xlink" xml:space="preserve" xmlns:serif="http://www.serif.com/" style="fill-rule:evenodd;clip-rule:evenodd;stroke-linejoin:round;stroke-miterlimit:2;">
    <rect id="icon_2" x="0.952" y="0" width="236.22" height="236.22" style="fill:white;"/>
    <g id="SECO">
        <path id="seco" d="M116.945,118.281C114.54,118.602 112.184,119.484 110.166,120.991C108.492,122.242 108.239,121.619 107.374,120.763C103.317,116.746 97.74,118.093 95.676,120.483C95.131,121.114 95.179,121.317 94.34,121.264C94.194,121.255 94.06,121.167 93.914,121.158C94.057,118.854 94.922,114.283 96.885,110.684C103.337,98.856 113.964,97.899 115.886,97.438C117.47,97.058 116.899,94.789 117.016,93.38C117.038,93.115 117.238,90.703 119.45,91.109C121.928,91.564 120.694,95.591 121.408,96.951C121.832,97.758 127.479,97.772 132.54,101.211C133.09,101.585 136.235,103.722 138.714,106.782C143.644,112.867 144.275,121.038 144.204,121.159C144.168,121.221 143.273,121.307 143.092,121.228C142.981,121.18 143.012,120.994 142.934,120.902C140.571,118.165 135.009,116.578 130.746,120.768C129.885,121.614 129.612,122.244 127.957,120.988C126.047,119.538 123.652,118.608 121.123,118.278C121.125,131.541 121.194,138.727 120.772,140.042C118.813,146.141 109.566,147.546 106.893,140.045C106.01,137.571 106.748,134.574 109.002,134.991L110.018,135.517C110.094,135.659 110.212,135.776 110.288,135.918C110.924,137.106 110.333,140.281 113.094,140.932C114.22,141.198 116.646,140.835 116.914,137.995C116.972,137.382 116.938,123.59 116.945,118.281Z"/>
        <g id="TEXT2" transform="matrix(0.2,0,0,0.2,-290.932,-3910.94)">
            <g transform="matrix(10.6842,82.6456,-82.6456,10.6842,1753.45,20154.9)">
                <path d="M0.655,-0.156C0.674,-0.154 0.683,-0.144 0.682,-0.126L0.68,-0.027C0.68,-0.008 0.672,0.003 0.655,0.005C0.639,0.007 0.621,0.008 0.6,0.008C0.557,0.008 0.526,0.002 0.505,-0.009C0.485,-0.02 0.469,-0.042 0.458,-0.076L0.438,-0.139L0.234,-0.139L0.2,-0.024C0.196,-0.008 0.186,-0 0.169,-0L0.033,-0C0.023,-0 0.016,-0.003 0.012,-0.01C0.008,-0.016 0.008,-0.025 0.011,-0.035L0.226,-0.679C0.231,-0.695 0.24,-0.703 0.255,-0.705L0.393,-0.723C0.409,-0.725 0.42,-0.718 0.426,-0.701L0.617,-0.164C0.626,-0.16 0.638,-0.158 0.655,-0.156ZM0.278,-0.289L0.391,-0.289L0.333,-0.475L0.278,-0.289Z" style="fill-rule:nonzero;"/>
            </g>
            <g transform="matrix(34.0019,76.081,-76.081,34.0019,1763.87,20228.9)">
                <path d="M0.862,-0.157C0.883,-0.155 0.893,-0.143 0.893,-0.121L0.892,-0.032C0.891,-0.009 0.881,0.003 0.861,0.005C0.841,0.007 0.819,0.008 0.795,0.008C0.769,0.008 0.747,0.006 0.73,0.001C0.714,-0.003 0.698,-0.011 0.685,-0.022C0.671,-0.034 0.661,-0.05 0.655,-0.072C0.649,-0.094 0.645,-0.122 0.644,-0.156L0.636,-0.402L0.529,-0.12C0.522,-0.103 0.509,-0.094 0.49,-0.094L0.411,-0.094C0.392,-0.094 0.379,-0.103 0.372,-0.12L0.266,-0.4L0.254,-0.034C0.253,-0.011 0.242,-0 0.22,-0L0.103,-0C0.092,-0 0.084,-0.003 0.078,-0.01C0.072,-0.016 0.069,-0.025 0.07,-0.036L0.094,-0.669C0.094,-0.691 0.104,-0.703 0.124,-0.705L0.291,-0.723C0.311,-0.725 0.324,-0.717 0.331,-0.698L0.453,-0.367L0.578,-0.684C0.585,-0.701 0.597,-0.71 0.615,-0.71L0.773,-0.71C0.783,-0.71 0.791,-0.707 0.797,-0.701C0.804,-0.695 0.807,-0.687 0.807,-0.676L0.83,-0.162C0.841,-0.16 0.852,-0.158 0.862,-0.157Z" style="fill-rule:nonzero;"/>
            </g>
            <g transform="matrix(53.7635,63.6705,-63.6705,53.7635,1806.49,20314.5)">
                <path d="M0.55,-0.389C0.613,-0.357 0.644,-0.301 0.644,-0.22C0.644,-0.146 0.622,-0.09 0.579,-0.054C0.536,-0.018 0.468,-0 0.375,-0L0.116,-0C0.094,-0 0.083,-0.012 0.083,-0.035L0.083,-0.55L0.051,-0.55C0.029,-0.55 0.018,-0.562 0.018,-0.585L0.018,-0.67C0.018,-0.692 0.028,-0.705 0.048,-0.708C0.076,-0.712 0.103,-0.714 0.128,-0.714C0.172,-0.714 0.205,-0.704 0.226,-0.683C0.272,-0.708 0.324,-0.72 0.383,-0.72C0.452,-0.72 0.507,-0.702 0.547,-0.666C0.588,-0.63 0.608,-0.582 0.608,-0.522C0.608,-0.464 0.589,-0.42 0.55,-0.389ZM0.429,-0.486C0.429,-0.508 0.422,-0.526 0.408,-0.538C0.394,-0.55 0.373,-0.556 0.345,-0.556C0.318,-0.556 0.292,-0.554 0.266,-0.549L0.266,-0.42L0.364,-0.42C0.407,-0.42 0.429,-0.442 0.429,-0.486ZM0.406,-0.16C0.42,-0.16 0.432,-0.165 0.444,-0.175C0.455,-0.185 0.461,-0.2 0.461,-0.22C0.461,-0.26 0.442,-0.28 0.405,-0.28L0.266,-0.28L0.266,-0.16L0.406,-0.16Z" style="fill-rule:nonzero;"/>
            </g>
            <g transform="matrix(65.7274,51.2285,-51.2285,65.7274,1858.04,20370)">
                <path d="M0.103,-0C0.081,-0 0.07,-0.012 0.07,-0.035L0.07,-0.675C0.07,-0.698 0.081,-0.71 0.103,-0.71L0.22,-0.71C0.243,-0.71 0.254,-0.698 0.254,-0.675L0.254,-0.035C0.254,-0.012 0.243,-0 0.22,-0L0.103,-0Z" style="fill-rule:nonzero;"/>
            </g>
            <g transform="matrix(74.2907,37.7537,-37.7537,74.2907,1894.65,20397.6)">
                <path d="M0.485,-0.164C0.507,-0.164 0.518,-0.152 0.518,-0.129L0.518,-0.035C0.518,-0.012 0.507,-0 0.485,-0L0.103,-0C0.081,-0 0.07,-0.012 0.07,-0.035L0.07,-0.675C0.07,-0.698 0.081,-0.71 0.103,-0.71L0.484,-0.71C0.506,-0.71 0.517,-0.698 0.517,-0.674L0.511,-0.58C0.511,-0.569 0.508,-0.561 0.501,-0.555C0.495,-0.549 0.486,-0.546 0.476,-0.546L0.254,-0.546L0.254,-0.418L0.447,-0.418C0.469,-0.418 0.48,-0.406 0.48,-0.383L0.48,-0.303C0.48,-0.28 0.469,-0.268 0.447,-0.268L0.254,-0.268L0.254,-0.164L0.485,-0.164Z" style="fill-rule:nonzero;"/>
            </g>
            <g transform="matrix(81.2664,18.4449,-18.4449,81.2664,1954.1,20426.4)">
                <path d="M0.643,-0.71C0.666,-0.71 0.677,-0.698 0.677,-0.675L0.677,-0.035C0.677,-0.012 0.666,-0 0.643,-0L0.524,-0C0.506,-0 0.492,-0.007 0.483,-0.021L0.254,-0.385L0.254,-0.035C0.254,-0.012 0.243,-0 0.221,-0L0.103,-0C0.081,-0 0.07,-0.012 0.07,-0.035L0.07,-0.669C0.07,-0.691 0.08,-0.703 0.101,-0.706L0.221,-0.722C0.238,-0.725 0.252,-0.719 0.262,-0.703L0.493,-0.329L0.493,-0.675C0.493,-0.698 0.504,-0.71 0.526,-0.71L0.643,-0.71Z" style="fill-rule:nonzero;"/>
            </g>
            <g transform="matrix(83.3207,-1.45331,1.45331,83.3207,2034.01,20440.9)">
                <path d="M0.477,-0.71C0.499,-0.71 0.51,-0.698 0.51,-0.675L0.51,-0.585C0.51,-0.562 0.499,-0.55 0.477,-0.55L0.346,-0.55L0.346,-0.035C0.346,-0.012 0.335,-0 0.313,-0L0.196,-0C0.174,-0 0.163,-0.012 0.163,-0.035L0.163,-0.55L0.032,-0.55C0.01,-0.55 -0.001,-0.562 -0.001,-0.585L-0.001,-0.668C-0.001,-0.691 0.009,-0.703 0.03,-0.705C0.061,-0.708 0.097,-0.71 0.138,-0.71L0.477,-0.71Z" style="fill-rule:nonzero;"/>
            </g>
            <g transform="matrix(81.0598,-19.3327,19.3327,81.0598,2094.8,20438.2)">
                <path d="M0.485,-0.164C0.507,-0.164 0.518,-0.152 0.518,-0.129L0.518,-0.035C0.518,-0.012 0.507,-0 0.485,-0L0.103,-0C0.081,-0 0.07,-0.012 0.07,-0.035L0.07,-0.675C0.07,-0.698 0.081,-0.71 0.103,-0.71L0.484,-0.71C0.506,-0.71 0.517,-0.698 0.517,-0.674L0.511,-0.58C0.511,-0.569 0.508,-0.561 0.501,-0.555C0.495,-0.549 0.486,-0.546 0.476,-0.546L0.254,-0.546L0.254,-0.418L0.447,-0.418C0.469,-0.418 0.48,-0.406 0.48,-0.383L0.48,-0.303C0.48,-0.28 0.469,-0.268 0.447,-0.268L0.254,-0.268L0.254,-0.164L0.485,-0.164Z" style="fill-rule:nonzero;"/>
            </g>
            <g transform="matrix(62.2053,-55.4522,55.4522,62.2053,2227.93,20382.1)">
                <path d="M0.279,0.012C0.199,0.012 0.129,-0.004 0.067,-0.035C0.051,-0.044 0.044,-0.058 0.047,-0.077L0.058,-0.17C0.06,-0.182 0.064,-0.191 0.071,-0.195C0.078,-0.199 0.087,-0.198 0.098,-0.193C0.155,-0.164 0.216,-0.15 0.28,-0.15C0.315,-0.15 0.339,-0.154 0.353,-0.162C0.367,-0.17 0.374,-0.184 0.374,-0.202C0.374,-0.216 0.37,-0.228 0.362,-0.238C0.354,-0.248 0.344,-0.255 0.331,-0.261C0.318,-0.266 0.303,-0.271 0.286,-0.275C0.269,-0.279 0.251,-0.283 0.232,-0.288C0.213,-0.292 0.194,-0.297 0.175,-0.303C0.156,-0.309 0.139,-0.317 0.122,-0.327C0.105,-0.338 0.09,-0.35 0.076,-0.365C0.063,-0.379 0.053,-0.398 0.045,-0.421C0.037,-0.445 0.033,-0.472 0.033,-0.502C0.033,-0.573 0.053,-0.627 0.094,-0.665C0.135,-0.702 0.199,-0.72 0.286,-0.72C0.437,-0.72 0.522,-0.667 0.542,-0.562C0.544,-0.551 0.543,-0.542 0.538,-0.535C0.533,-0.529 0.526,-0.525 0.515,-0.523L0.393,-0.505C0.383,-0.504 0.375,-0.505 0.37,-0.509C0.364,-0.513 0.358,-0.52 0.353,-0.531C0.34,-0.556 0.318,-0.568 0.286,-0.568C0.265,-0.568 0.248,-0.563 0.235,-0.552C0.223,-0.541 0.217,-0.527 0.217,-0.508C0.217,-0.493 0.221,-0.482 0.229,-0.472C0.236,-0.462 0.247,-0.455 0.26,-0.45C0.273,-0.445 0.288,-0.441 0.305,-0.437C0.323,-0.434 0.34,-0.43 0.359,-0.427C0.378,-0.423 0.397,-0.419 0.416,-0.414C0.434,-0.409 0.452,-0.401 0.469,-0.392C0.487,-0.382 0.502,-0.37 0.515,-0.356C0.528,-0.342 0.539,-0.323 0.546,-0.299C0.554,-0.275 0.558,-0.247 0.558,-0.216C0.558,-0.175 0.551,-0.14 0.538,-0.11C0.524,-0.081 0.505,-0.057 0.48,-0.039C0.455,-0.022 0.425,-0.009 0.392,-0C0.359,0.008 0.321,0.012 0.279,0.012Z" style="fill-rule:nonzero;"/>
            </g>
            <g transform="matrix(48.0244,-68.1036,68.1036,48.0244,2277.33,20335.2)">
                <path d="M0.485,-0.164C0.507,-0.164 0.518,-0.152 0.518,-0.129L0.518,-0.035C0.518,-0.012 0.507,-0 0.485,-0L0.103,-0C0.081,-0 0.07,-0.012 0.07,-0.035L0.07,-0.675C0.07,-0.698 0.081,-0.71 0.103,-0.71L0.484,-0.71C0.506,-0.71 0.517,-0.698 0.517,-0.674L0.511,-0.58C0.511,-0.569 0.508,-0.561 0.501,-0.555C0.495,-0.549 0.486,-0.546 0.476,-0.546L0.254,-0.546L0.254,-0.418L0.447,-0.418C0.469,-0.418 0.48,-0.406 0.48,-0.383L0.48,-0.303C0.48,-0.28 0.469,-0.268 0.447,-0.268L0.254,-0.268L0.254,-0.164L0.485,-0.164Z" style="fill-rule:nonzero;"/>
            </g>
            <g transform="matrix(31.1244,-77.3028,77.3028,31.1244,2313.77,20280.8)">
                <path d="M0.365,0.012C0.261,0.012 0.182,-0.019 0.126,-0.082C0.071,-0.145 0.043,-0.235 0.043,-0.35C0.043,-0.471 0.069,-0.563 0.122,-0.626C0.174,-0.689 0.248,-0.72 0.342,-0.72C0.424,-0.72 0.488,-0.702 0.534,-0.664C0.58,-0.627 0.607,-0.575 0.614,-0.507C0.616,-0.485 0.606,-0.472 0.584,-0.469L0.46,-0.451C0.449,-0.45 0.441,-0.452 0.435,-0.456C0.429,-0.461 0.424,-0.469 0.422,-0.481C0.41,-0.534 0.383,-0.56 0.341,-0.56C0.307,-0.56 0.281,-0.544 0.263,-0.512C0.244,-0.479 0.235,-0.43 0.235,-0.363C0.235,-0.297 0.249,-0.247 0.277,-0.214C0.305,-0.181 0.346,-0.164 0.4,-0.164C0.421,-0.164 0.44,-0.166 0.457,-0.171C0.473,-0.175 0.494,-0.183 0.518,-0.193C0.525,-0.195 0.531,-0.196 0.539,-0.197C0.546,-0.197 0.553,-0.195 0.561,-0.19C0.568,-0.185 0.573,-0.177 0.575,-0.166L0.598,-0.076C0.604,-0.054 0.598,-0.039 0.58,-0.031C0.52,-0.002 0.449,0.012 0.365,0.012Z" style="fill-rule:nonzero;"/>
            </g>
            <g transform="matrix(10.3583,-82.6871,82.6871,10.3583,2339.21,20212)">
                <path d="M0.36,0.012C0.293,0.012 0.236,-0.004 0.188,-0.036C0.139,-0.068 0.103,-0.111 0.079,-0.166C0.055,-0.221 0.043,-0.283 0.043,-0.354C0.043,-0.425 0.055,-0.487 0.079,-0.542C0.103,-0.597 0.139,-0.64 0.188,-0.672C0.236,-0.704 0.293,-0.72 0.36,-0.72C0.427,-0.72 0.484,-0.704 0.532,-0.672C0.581,-0.64 0.617,-0.597 0.641,-0.542C0.665,-0.487 0.677,-0.425 0.677,-0.354C0.677,-0.283 0.665,-0.221 0.641,-0.166C0.617,-0.111 0.581,-0.068 0.532,-0.036C0.484,-0.004 0.427,0.012 0.36,0.012ZM0.262,-0.206C0.282,-0.17 0.315,-0.152 0.36,-0.152C0.405,-0.152 0.438,-0.17 0.459,-0.206C0.48,-0.242 0.49,-0.291 0.49,-0.354C0.49,-0.417 0.48,-0.466 0.459,-0.502C0.438,-0.538 0.405,-0.556 0.36,-0.556C0.316,-0.556 0.284,-0.538 0.263,-0.502C0.242,-0.465 0.231,-0.416 0.231,-0.354C0.231,-0.291 0.241,-0.242 0.262,-0.206Z" style="fill-rule:nonzero;"/>
            </g>
        </g>
        <g id="TEXT1" transform="matrix(0.2,0,0,0.2,-374.04,-3916.47)">
            <g transform="matrix(44.2479,-70.6156,70.6156,44.2479,2243.24,20081.4)">
                <path d="M0.862,-0.157C0.883,-0.155 0.893,-0.143 0.893,-0.121L0.892,-0.032C0.891,-0.009 0.881,0.003 0.861,0.005C0.841,0.007 0.819,0.008 0.795,0.008C0.769,0.008 0.747,0.006 0.73,0.001C0.714,-0.003 0.698,-0.011 0.685,-0.022C0.671,-0.034 0.661,-0.05 0.655,-0.072C0.649,-0.094 0.645,-0.122 0.644,-0.156L0.636,-0.402L0.529,-0.12C0.522,-0.103 0.509,-0.094 0.49,-0.094L0.411,-0.094C0.392,-0.094 0.379,-0.103 0.372,-0.12L0.266,-0.4L0.254,-0.034C0.253,-0.011 0.242,-0 0.22,-0L0.103,-0C0.092,-0 0.084,-0.003 0.078,-0.01C0.072,-0.016 0.069,-0.025 0.07,-0.036L0.094,-0.669C0.094,-0.691 0.104,-0.703 0.124,-0.705L0.291,-0.723C0.311,-0.725 0.324,-0.717 0.331,-0.698L0.453,-0.367L0.578,-0.684C0.585,-0.701 0.597,-0.71 0.615,-0.71L0.773,-0.71C0.783,-0.71 0.791,-0.707 0.797,-0.701C0.804,-0.695 0.807,-0.687 0.807,-0.676L0.83,-0.162C0.841,-0.16 0.852,-0.158 0.862,-0.157Z" style="fill-rule:nonzero;"/>
            </g>
            <g transform="matrix(62.2878,-55.3595,55.3595,62.2878,2286.72,20014.9)">
                <path d="M0.655,-0.156C0.674,-0.154 0.683,-0.144 0.682,-0.126L0.68,-0.027C0.68,-0.008 0.672,0.003 0.655,0.005C0.639,0.007 0.621,0.008 0.6,0.008C0.557,0.008 0.526,0.002 0.505,-0.009C0.485,-0.02 0.469,-0.042 0.458,-0.076L0.438,-0.139L0.234,-0.139L0.2,-0.024C0.196,-0.008 0.186,-0 0.169,-0L0.033,-0C0.023,-0 0.016,-0.003 0.012,-0.01C0.008,-0.016 0.008,-0.025 0.011,-0.035L0.226,-0.679C0.231,-0.695 0.24,-0.703 0.255,-0.705L0.393,-0.723C0.409,-0.725 0.42,-0.718 0.426,-0.701L0.617,-0.164C0.626,-0.16 0.638,-0.158 0.655,-0.156ZM0.278,-0.289L0.391,-0.289L0.333,-0.475L0.278,-0.289Z" style="fill-rule:nonzero;"/>
            </g>
            <g transform="matrix(74.3908,-37.556,37.556,74.3908,2331.25,19975.2)">
                <path d="M0.643,-0.71C0.666,-0.71 0.677,-0.698 0.677,-0.675L0.677,-0.035C0.677,-0.012 0.666,-0 0.643,-0L0.524,-0C0.506,-0 0.492,-0.007 0.483,-0.021L0.254,-0.385L0.254,-0.035C0.254,-0.012 0.243,-0 0.221,-0L0.103,-0C0.081,-0 0.07,-0.012 0.07,-0.035L0.07,-0.669C0.07,-0.691 0.08,-0.703 0.101,-0.706L0.221,-0.722C0.238,-0.725 0.252,-0.719 0.262,-0.703L0.493,-0.329L0.493,-0.675C0.493,-0.698 0.504,-0.71 0.526,-0.71L0.643,-0.71Z" style="fill-rule:nonzero;"/>
            </g>
            <g transform="matrix(81.2375,-18.572,18.572,81.2375,2391.86,19946.6)">
                <path d="M0.477,-0.71C0.499,-0.71 0.51,-0.698 0.51,-0.675L0.51,-0.585C0.51,-0.562 0.499,-0.55 0.477,-0.55L0.346,-0.55L0.346,-0.035C0.346,-0.012 0.335,-0 0.313,-0L0.196,-0C0.174,-0 0.163,-0.012 0.163,-0.035L0.163,-0.55L0.032,-0.55C0.01,-0.55 -0.001,-0.562 -0.001,-0.585L-0.001,-0.668C-0.001,-0.691 0.009,-0.703 0.03,-0.705C0.061,-0.708 0.097,-0.71 0.138,-0.71L0.477,-0.71Z" style="fill-rule:nonzero;"/>
            </g>
            <g transform="matrix(83.3307,-0.660668,0.660668,83.3307,2439.09,19936.2)">
                <path d="M0.485,-0.164C0.507,-0.164 0.518,-0.152 0.518,-0.129L0.518,-0.035C0.518,-0.012 0.507,-0 0.485,-0L0.103,-0C0.081,-0 0.07,-0.012 0.07,-0.035L0.07,-0.675C0.07,-0.698 0.081,-0.71 0.103,-0.71L0.484,-0.71C0.506,-0.71 0.517,-0.698 0.517,-0.674L0.511,-0.58C0.511,-0.569 0.508,-0.561 0.501,-0.555C0.495,-0.549 0.486,-0.546 0.476,-0.546L0.254,-0.546L0.254,-0.418L0.447,-0.418C0.469,-0.418 0.48,-0.406 0.48,-0.383L0.48,-0.303C0.48,-0.28 0.469,-0.268 0.447,-0.268L0.254,-0.268L0.254,-0.164L0.485,-0.164Z" style="fill-rule:nonzero;"/>
            </g>
            <g transform="matrix(81.1864,18.7941,-18.7941,81.1864,2492.23,19935.8)">
                <path d="M0.611,-0.156C0.635,-0.155 0.646,-0.143 0.644,-0.119L0.637,-0.028C0.635,-0.007 0.625,0.005 0.606,0.007C0.588,0.008 0.574,0.009 0.562,0.009C0.524,0.009 0.495,0.004 0.478,-0.007C0.46,-0.017 0.442,-0.038 0.425,-0.07L0.341,-0.222L0.266,-0.222L0.266,-0.035C0.266,-0.012 0.255,-0 0.233,-0L0.116,-0C0.094,-0 0.083,-0.012 0.083,-0.035L0.083,-0.55L0.051,-0.55C0.029,-0.55 0.018,-0.562 0.018,-0.585L0.018,-0.67C0.018,-0.692 0.028,-0.705 0.048,-0.708C0.076,-0.712 0.103,-0.714 0.128,-0.714C0.171,-0.714 0.203,-0.704 0.225,-0.685C0.266,-0.708 0.312,-0.72 0.364,-0.72C0.443,-0.72 0.504,-0.698 0.547,-0.655C0.59,-0.611 0.612,-0.551 0.612,-0.476C0.612,-0.429 0.604,-0.386 0.588,-0.349C0.572,-0.311 0.548,-0.282 0.518,-0.26L0.558,-0.182C0.563,-0.172 0.569,-0.166 0.576,-0.162C0.583,-0.158 0.595,-0.156 0.611,-0.156ZM0.266,-0.55L0.266,-0.382L0.327,-0.382C0.362,-0.382 0.387,-0.388 0.403,-0.401C0.418,-0.414 0.426,-0.434 0.426,-0.462C0.426,-0.492 0.419,-0.515 0.407,-0.532C0.394,-0.548 0.373,-0.556 0.343,-0.556C0.325,-0.556 0.299,-0.554 0.266,-0.55Z" style="fill-rule:nonzero;"/>
            </g>
            <g transform="matrix(61.3094,56.4412,-56.4412,61.3094,2607.86,19982)">
                <path d="M0.485,-0.164C0.507,-0.164 0.518,-0.152 0.518,-0.129L0.518,-0.035C0.518,-0.012 0.507,-0 0.485,-0L0.103,-0C0.081,-0 0.07,-0.012 0.07,-0.035L0.07,-0.675C0.07,-0.698 0.081,-0.71 0.103,-0.71L0.484,-0.71C0.506,-0.71 0.517,-0.698 0.517,-0.674L0.511,-0.58C0.511,-0.569 0.508,-0.561 0.501,-0.555C0.495,-0.549 0.486,-0.546 0.476,-0.546L0.254,-0.546L0.254,-0.418L0.447,-0.418C0.469,-0.418 0.48,-0.406 0.48,-0.383L0.48,-0.303C0.48,-0.28 0.469,-0.268 0.447,-0.268L0.254,-0.268L0.254,-0.164L0.485,-0.164Z" style="fill-rule:nonzero;"/>
            </g>
            <g transform="matrix(43.7151,70.9467,-70.9467,43.7151,2646.37,20014.8)">
                <path d="M0.862,-0.157C0.883,-0.155 0.893,-0.143 0.893,-0.121L0.892,-0.032C0.891,-0.009 0.881,0.003 0.861,0.005C0.841,0.007 0.819,0.008 0.795,0.008C0.769,0.008 0.747,0.006 0.73,0.001C0.714,-0.003 0.698,-0.011 0.685,-0.022C0.671,-0.034 0.661,-0.05 0.655,-0.072C0.649,-0.094 0.645,-0.122 0.644,-0.156L0.636,-0.402L0.529,-0.12C0.522,-0.103 0.509,-0.094 0.49,-0.094L0.411,-0.094C0.392,-0.094 0.379,-0.103 0.372,-0.12L0.266,-0.4L0.254,-0.034C0.253,-0.011 0.242,-0 0.22,-0L0.103,-0C0.092,-0 0.084,-0.003 0.078,-0.01C0.072,-0.016 0.069,-0.025 0.07,-0.036L0.094,-0.669C0.094,-0.691 0.104,-0.703 0.124,-0.705L0.291,-0.723C0.311,-0.725 0.324,-0.717 0.331,-0.698L0.453,-0.367L0.578,-0.684C0.585,-0.701 0.597,-0.71 0.615,-0.71L0.773,-0.71C0.783,-0.71 0.791,-0.707 0.797,-0.701C0.804,-0.695 0.807,-0.687 0.807,-0.676L0.83,-0.162C0.841,-0.16 0.852,-0.158 0.862,-0.157Z" style="fill-rule:nonzero;"/>
            </g>
        </g>
    </g>
</svg>
