<?xml version="1.0" encoding="UTF-8" standalone="no"?>
<!DOCTYPE svg PUBLIC "-//W3C//DTD SVG 1.1//EN" "http://www.w3.org/Graphics/SVG/1.1/DTD/svg11.dtd">
<svg width="100%" height="100%" viewBox="0 0 237 237" version="1.1" xmlns="http://www.w3.org/2000/svg" xmlns:xlink="http://www.w3.org/1999/xlink" xml:space="preserve" xmlns:serif="http://www.serif.com/" style="fill-rule:evenodd;clip-rule:evenodd;stroke-linejoin:round;stroke-miterlimit:2;">
    <rect id="icon_4" x="0.032" y="0" width="236.22" height="236.22" style="fill:white;"/>
    <g id="NATURAIS">
        <path id="naturais" d="M122.111,134.724C119.043,135.204 114.674,135.306 111.51,134.877C111.28,137.879 111.208,141.235 111.254,145.097L107.221,145.148C107.17,140.945 107.259,137.287 107.535,134.011C104.968,132.65 100.788,127.541 98.672,123.876C96.021,119.282 97.034,113.736 97.034,113.736C97.034,113.736 102.348,115.631 104.999,120.225C106.173,122.255 107.484,125.018 108.418,127.562C110.546,116.885 107.121,121.492 102.265,110.916C100.054,106.096 101.582,100.666 101.582,100.666C101.582,100.666 106.695,103.048 108.908,107.869C110.091,110.451 111.378,114.115 112.014,117.106C115.647,109.967 111.705,110.887 110.303,102.174C109.551,97.52 112.147,93.232 112.147,93.232C112.147,93.232 115.959,96.489 116.71,101.14C117.072,103.377 117.294,106.381 117.215,108.934C121.51,103.195 118.56,104.13 119.441,97.178C119.888,93.636 122.692,91.073 122.692,91.073C122.692,91.073 124.769,94.251 124.32,97.795C124.203,98.725 124.008,99.814 123.758,100.909C123.758,100.909 128.802,93.91 131.09,92.586C134.585,90.561 139.44,92.07 139.44,92.07C139.44,92.07 138.297,96.004 135.08,98.126C131.607,100.421 126.823,103.531 126.823,103.531C128.187,103.137 129.606,102.82 130.775,102.638C134.295,102.088 137.53,104.067 137.53,104.067C137.53,104.067 135.054,106.938 131.532,107.489C123.973,108.674 125.103,105.061 120.234,111.612C125.653,109.729 129.955,109.812 135.434,111.683C135.434,111.683 132.354,115.253 127.975,115.937C119.689,117.234 118.291,112.981 114.959,120.268C121.585,118.039 128.746,118.512 135.047,120.495C135.047,120.495 131.149,124.368 125.912,125.197C116.77,126.645 115.056,122.463 112.17,129.651L112.107,129.814L112.147,129.8C118.399,127.479 124.724,127.485 131.036,129.635C131.036,129.635 127.351,133.906 122.111,134.724Z"/>
        <g id="TEXT2" transform="matrix(0.2,0,0,0.2,-291.851,-3910.94)">
            <g transform="matrix(-15.2168,81.9323,-81.9323,-15.2168,1764.92,20062.8)">
                <path d="M0.655,-0.156C0.674,-0.154 0.683,-0.144 0.682,-0.126L0.68,-0.027C0.68,-0.008 0.672,0.003 0.655,0.005C0.639,0.007 0.621,0.008 0.6,0.008C0.557,0.008 0.526,0.002 0.505,-0.009C0.485,-0.02 0.469,-0.042 0.458,-0.076L0.438,-0.139L0.234,-0.139L0.2,-0.024C0.196,-0.008 0.186,-0 0.169,-0L0.033,-0C0.023,-0 0.016,-0.003 0.012,-0.01C0.008,-0.016 0.008,-0.025 0.011,-0.035L0.226,-0.679C0.231,-0.695 0.24,-0.703 0.255,-0.705L0.393,-0.723C0.409,-0.725 0.42,-0.718 0.426,-0.701L0.617,-0.164C0.626,-0.16 0.638,-0.158 0.655,-0.156ZM0.278,-0.289L0.391,-0.289L0.333,-0.475L0.278,-0.289Z" style="fill-rule:nonzero;"/>
            </g>
            <g transform="matrix(2.87268,83.2838,-83.2838,2.87268,1754.14,20134.4)">
                <path d="M0.477,-0.71C0.499,-0.71 0.51,-0.698 0.51,-0.675L0.51,-0.585C0.51,-0.562 0.499,-0.55 0.477,-0.55L0.346,-0.55L0.346,-0.035C0.346,-0.012 0.335,-0 0.313,-0L0.196,-0C0.174,-0 0.163,-0.012 0.163,-0.035L0.163,-0.55L0.032,-0.55C0.01,-0.55 -0.001,-0.562 -0.001,-0.585L-0.001,-0.668C-0.001,-0.691 0.009,-0.703 0.03,-0.705C0.061,-0.708 0.097,-0.71 0.138,-0.71L0.477,-0.71Z" style="fill-rule:nonzero;"/>
            </g>
            <g transform="matrix(17.7133,81.429,-81.429,17.7133,1758.56,20195.1)">
                <path d="M0.103,-0C0.081,-0 0.07,-0.012 0.07,-0.035L0.07,-0.675C0.07,-0.698 0.081,-0.71 0.103,-0.71L0.22,-0.71C0.243,-0.71 0.254,-0.698 0.254,-0.675L0.254,-0.035C0.254,-0.012 0.243,-0 0.22,-0L0.103,-0Z" style="fill-rule:nonzero;"/>
            </g>
            <g transform="matrix(33.8856,76.1329,-76.1329,33.8856,1769.24,20240.8)">
                <path d="M0.632,-0.707C0.644,-0.706 0.651,-0.701 0.656,-0.694C0.66,-0.686 0.66,-0.677 0.656,-0.665L0.437,-0.028C0.431,-0.009 0.417,-0 0.398,-0L0.265,-0C0.246,-0 0.233,-0.009 0.227,-0.027L0.045,-0.55L0.013,-0.55C-0.009,-0.55 -0.02,-0.562 -0.02,-0.585L-0.02,-0.67C-0.02,-0.691 -0.01,-0.704 0.01,-0.708C0.035,-0.713 0.065,-0.716 0.099,-0.716C0.135,-0.716 0.163,-0.708 0.182,-0.692C0.202,-0.677 0.216,-0.655 0.225,-0.628L0.332,-0.281L0.466,-0.697C0.472,-0.717 0.485,-0.725 0.505,-0.722L0.632,-0.707Z" style="fill-rule:nonzero;"/>
            </g>
            <g transform="matrix(52.4463,64.7598,-64.7598,52.4463,1801.53,20307.6)">
                <path d="M0.36,0.012C0.293,0.012 0.236,-0.004 0.188,-0.036C0.139,-0.068 0.103,-0.111 0.079,-0.166C0.055,-0.221 0.043,-0.283 0.043,-0.354C0.043,-0.425 0.055,-0.487 0.079,-0.542C0.103,-0.597 0.139,-0.64 0.188,-0.672C0.236,-0.704 0.293,-0.72 0.36,-0.72C0.427,-0.72 0.484,-0.704 0.532,-0.672C0.581,-0.64 0.617,-0.597 0.641,-0.542C0.665,-0.487 0.677,-0.425 0.677,-0.354C0.677,-0.283 0.665,-0.221 0.641,-0.166C0.617,-0.111 0.581,-0.068 0.532,-0.036C0.484,-0.004 0.427,0.012 0.36,0.012ZM0.262,-0.206C0.282,-0.17 0.315,-0.152 0.36,-0.152C0.405,-0.152 0.438,-0.17 0.459,-0.206C0.48,-0.242 0.49,-0.291 0.49,-0.354C0.49,-0.417 0.48,-0.466 0.459,-0.502C0.438,-0.538 0.405,-0.556 0.36,-0.556C0.316,-0.556 0.284,-0.538 0.263,-0.502C0.242,-0.465 0.231,-0.416 0.231,-0.354C0.231,-0.291 0.241,-0.242 0.262,-0.206Z" style="fill-rule:nonzero;"/>
            </g>
            <g transform="matrix(66.8966,49.692,-49.692,66.8966,1854.37,20367.8)">
                <path d="M0.279,0.012C0.199,0.012 0.129,-0.004 0.067,-0.035C0.051,-0.044 0.044,-0.058 0.047,-0.077L0.058,-0.17C0.06,-0.182 0.064,-0.191 0.071,-0.195C0.078,-0.199 0.087,-0.198 0.098,-0.193C0.155,-0.164 0.216,-0.15 0.28,-0.15C0.315,-0.15 0.339,-0.154 0.353,-0.162C0.367,-0.17 0.374,-0.184 0.374,-0.202C0.374,-0.216 0.37,-0.228 0.362,-0.238C0.354,-0.248 0.344,-0.255 0.331,-0.261C0.318,-0.266 0.303,-0.271 0.286,-0.275C0.269,-0.279 0.251,-0.283 0.232,-0.288C0.213,-0.292 0.194,-0.297 0.175,-0.303C0.156,-0.309 0.139,-0.317 0.122,-0.327C0.105,-0.338 0.09,-0.35 0.076,-0.365C0.063,-0.379 0.053,-0.398 0.045,-0.421C0.037,-0.445 0.033,-0.472 0.033,-0.502C0.033,-0.573 0.053,-0.627 0.094,-0.665C0.135,-0.702 0.199,-0.72 0.286,-0.72C0.437,-0.72 0.522,-0.667 0.542,-0.562C0.544,-0.551 0.543,-0.542 0.538,-0.535C0.533,-0.529 0.526,-0.525 0.515,-0.523L0.393,-0.505C0.383,-0.504 0.375,-0.505 0.37,-0.509C0.364,-0.513 0.358,-0.52 0.353,-0.531C0.34,-0.556 0.318,-0.568 0.286,-0.568C0.265,-0.568 0.248,-0.563 0.235,-0.552C0.223,-0.541 0.217,-0.527 0.217,-0.508C0.217,-0.493 0.221,-0.482 0.229,-0.472C0.236,-0.462 0.247,-0.455 0.26,-0.45C0.273,-0.445 0.288,-0.441 0.305,-0.437C0.323,-0.434 0.34,-0.43 0.359,-0.427C0.378,-0.423 0.397,-0.419 0.416,-0.414C0.434,-0.409 0.452,-0.401 0.469,-0.392C0.487,-0.382 0.502,-0.37 0.515,-0.356C0.528,-0.342 0.539,-0.323 0.546,-0.299C0.554,-0.275 0.558,-0.247 0.558,-0.216C0.558,-0.175 0.551,-0.14 0.538,-0.11C0.524,-0.081 0.505,-0.057 0.48,-0.039C0.455,-0.022 0.425,-0.009 0.392,-0C0.359,0.008 0.321,0.012 0.279,0.012Z" style="fill-rule:nonzero;"/>
            </g>
            <g transform="matrix(82.2418,-13.4434,13.4434,82.2418,2067.18,20441.7)">
                <path d="M0.643,-0.71C0.666,-0.71 0.677,-0.698 0.677,-0.675L0.677,-0.035C0.677,-0.012 0.666,-0 0.643,-0L0.524,-0C0.506,-0 0.492,-0.007 0.483,-0.021L0.254,-0.385L0.254,-0.035C0.254,-0.012 0.243,-0 0.221,-0L0.103,-0C0.081,-0 0.07,-0.012 0.07,-0.035L0.07,-0.669C0.07,-0.691 0.08,-0.703 0.101,-0.706L0.221,-0.722C0.238,-0.725 0.252,-0.719 0.262,-0.703L0.493,-0.329L0.493,-0.675C0.493,-0.698 0.504,-0.71 0.526,-0.71L0.643,-0.71Z" style="fill-rule:nonzero;"/>
            </g>
            <g transform="matrix(76.0029,-34.1761,34.1761,76.0029,2144.57,20426.5)">
                <path d="M0.655,-0.156C0.674,-0.154 0.683,-0.144 0.682,-0.126L0.68,-0.027C0.68,-0.008 0.672,0.003 0.655,0.005C0.639,0.007 0.621,0.008 0.6,0.008C0.557,0.008 0.526,0.002 0.505,-0.009C0.485,-0.02 0.469,-0.042 0.458,-0.076L0.438,-0.139L0.234,-0.139L0.2,-0.024C0.196,-0.008 0.186,-0 0.169,-0L0.033,-0C0.023,-0 0.016,-0.003 0.012,-0.01C0.008,-0.016 0.008,-0.025 0.011,-0.035L0.226,-0.679C0.231,-0.695 0.24,-0.703 0.255,-0.705L0.393,-0.723C0.409,-0.725 0.42,-0.718 0.426,-0.701L0.617,-0.164C0.626,-0.16 0.638,-0.158 0.655,-0.156ZM0.278,-0.289L0.391,-0.289L0.333,-0.475L0.278,-0.289Z" style="fill-rule:nonzero;"/>
            </g>
            <g transform="matrix(66.729,-49.9168,49.9168,66.729,2209.61,20394.6)">
                <path d="M0.477,-0.71C0.499,-0.71 0.51,-0.698 0.51,-0.675L0.51,-0.585C0.51,-0.562 0.499,-0.55 0.477,-0.55L0.346,-0.55L0.346,-0.035C0.346,-0.012 0.335,-0 0.313,-0L0.196,-0C0.174,-0 0.163,-0.012 0.163,-0.035L0.163,-0.55L0.032,-0.55C0.01,-0.55 -0.001,-0.562 -0.001,-0.585L-0.001,-0.668C-0.001,-0.691 0.009,-0.703 0.03,-0.705C0.061,-0.708 0.097,-0.71 0.138,-0.71L0.477,-0.71Z" style="fill-rule:nonzero;"/>
            </g>
            <g transform="matrix(53.4305,-63.9502,63.9502,53.4305,2259.3,20355.2)">
                <path d="M0.355,0.012C0.264,0.012 0.195,-0.013 0.148,-0.063C0.101,-0.114 0.077,-0.187 0.077,-0.284L0.077,-0.55L0.045,-0.55C0.023,-0.55 0.012,-0.562 0.012,-0.585L0.012,-0.671C0.012,-0.694 0.022,-0.706 0.042,-0.708C0.07,-0.711 0.099,-0.712 0.128,-0.712C0.172,-0.712 0.204,-0.702 0.227,-0.681C0.249,-0.661 0.26,-0.631 0.26,-0.592L0.26,-0.3C0.26,-0.248 0.268,-0.21 0.285,-0.185C0.301,-0.16 0.325,-0.148 0.355,-0.148C0.384,-0.148 0.408,-0.16 0.426,-0.184C0.444,-0.209 0.453,-0.246 0.453,-0.296L0.453,-0.675C0.453,-0.698 0.464,-0.71 0.486,-0.71L0.604,-0.71C0.626,-0.71 0.637,-0.698 0.637,-0.675L0.637,-0.286C0.637,-0.197 0.612,-0.125 0.562,-0.07C0.511,-0.015 0.443,0.012 0.355,0.012Z" style="fill-rule:nonzero;"/>
            </g>
            <g transform="matrix(35.0151,-75.62,75.62,35.0151,2306.47,20294.1)">
                <path d="M0.611,-0.156C0.635,-0.155 0.646,-0.143 0.644,-0.119L0.637,-0.028C0.635,-0.007 0.625,0.005 0.606,0.007C0.588,0.008 0.574,0.009 0.562,0.009C0.524,0.009 0.495,0.004 0.478,-0.007C0.46,-0.017 0.442,-0.038 0.425,-0.07L0.341,-0.222L0.266,-0.222L0.266,-0.035C0.266,-0.012 0.255,-0 0.233,-0L0.116,-0C0.094,-0 0.083,-0.012 0.083,-0.035L0.083,-0.55L0.051,-0.55C0.029,-0.55 0.018,-0.562 0.018,-0.585L0.018,-0.67C0.018,-0.692 0.028,-0.705 0.048,-0.708C0.076,-0.712 0.103,-0.714 0.128,-0.714C0.171,-0.714 0.203,-0.704 0.225,-0.685C0.266,-0.708 0.312,-0.72 0.364,-0.72C0.443,-0.72 0.504,-0.698 0.547,-0.655C0.59,-0.611 0.612,-0.551 0.612,-0.476C0.612,-0.429 0.604,-0.386 0.588,-0.349C0.572,-0.311 0.548,-0.282 0.518,-0.26L0.558,-0.182C0.563,-0.172 0.569,-0.166 0.576,-0.162C0.583,-0.158 0.595,-0.156 0.611,-0.156ZM0.266,-0.55L0.266,-0.382L0.327,-0.382C0.362,-0.382 0.387,-0.388 0.403,-0.401C0.418,-0.414 0.426,-0.434 0.426,-0.462C0.426,-0.492 0.419,-0.515 0.407,-0.532C0.394,-0.548 0.373,-0.556 0.343,-0.556C0.325,-0.556 0.299,-0.554 0.266,-0.55Z" style="fill-rule:nonzero;"/>
            </g>
            <g transform="matrix(14.6375,-82.0377,82.0377,14.6375,2335.59,20225.7)">
                <path d="M0.655,-0.156C0.674,-0.154 0.683,-0.144 0.682,-0.126L0.68,-0.027C0.68,-0.008 0.672,0.003 0.655,0.005C0.639,0.007 0.621,0.008 0.6,0.008C0.557,0.008 0.526,0.002 0.505,-0.009C0.485,-0.02 0.469,-0.042 0.458,-0.076L0.438,-0.139L0.234,-0.139L0.2,-0.024C0.196,-0.008 0.186,-0 0.169,-0L0.033,-0C0.023,-0 0.016,-0.003 0.012,-0.01C0.008,-0.016 0.008,-0.025 0.011,-0.035L0.226,-0.679C0.231,-0.695 0.24,-0.703 0.255,-0.705L0.393,-0.723C0.409,-0.725 0.42,-0.718 0.426,-0.701L0.617,-0.164C0.626,-0.16 0.638,-0.158 0.655,-0.156ZM0.278,-0.289L0.391,-0.289L0.333,-0.475L0.278,-0.289Z" style="fill-rule:nonzero;"/>
            </g>
            <g transform="matrix(-1.81652,-83.3135,83.3135,-1.81652,2345.47,20152.2)">
                <path d="M0.103,-0C0.081,-0 0.07,-0.012 0.07,-0.035L0.07,-0.675C0.07,-0.698 0.081,-0.71 0.103,-0.71L0.22,-0.71C0.243,-0.71 0.254,-0.698 0.254,-0.675L0.254,-0.035C0.254,-0.012 0.243,-0 0.22,-0L0.103,-0Z" style="fill-rule:nonzero;"/>
            </g>
            <g transform="matrix(-17.8088,-81.4082,81.4082,-17.8088,2343.7,20106)">
                <path d="M0.279,0.012C0.199,0.012 0.129,-0.004 0.067,-0.035C0.051,-0.044 0.044,-0.058 0.047,-0.077L0.058,-0.17C0.06,-0.182 0.064,-0.191 0.071,-0.195C0.078,-0.199 0.087,-0.198 0.098,-0.193C0.155,-0.164 0.216,-0.15 0.28,-0.15C0.315,-0.15 0.339,-0.154 0.353,-0.162C0.367,-0.17 0.374,-0.184 0.374,-0.202C0.374,-0.216 0.37,-0.228 0.362,-0.238C0.354,-0.248 0.344,-0.255 0.331,-0.261C0.318,-0.266 0.303,-0.271 0.286,-0.275C0.269,-0.279 0.251,-0.283 0.232,-0.288C0.213,-0.292 0.194,-0.297 0.175,-0.303C0.156,-0.309 0.139,-0.317 0.122,-0.327C0.105,-0.338 0.09,-0.35 0.076,-0.365C0.063,-0.379 0.053,-0.398 0.045,-0.421C0.037,-0.445 0.033,-0.472 0.033,-0.502C0.033,-0.573 0.053,-0.627 0.094,-0.665C0.135,-0.702 0.199,-0.72 0.286,-0.72C0.437,-0.72 0.522,-0.667 0.542,-0.562C0.544,-0.551 0.543,-0.542 0.538,-0.535C0.533,-0.529 0.526,-0.525 0.515,-0.523L0.393,-0.505C0.383,-0.504 0.375,-0.505 0.37,-0.509C0.364,-0.513 0.358,-0.52 0.353,-0.531C0.34,-0.556 0.318,-0.568 0.286,-0.568C0.265,-0.568 0.248,-0.563 0.235,-0.552C0.223,-0.541 0.217,-0.527 0.217,-0.508C0.217,-0.493 0.221,-0.482 0.229,-0.472C0.236,-0.462 0.247,-0.455 0.26,-0.45C0.273,-0.445 0.288,-0.441 0.305,-0.437C0.323,-0.434 0.34,-0.43 0.359,-0.427C0.378,-0.423 0.397,-0.419 0.416,-0.414C0.434,-0.409 0.452,-0.401 0.469,-0.392C0.487,-0.382 0.502,-0.37 0.515,-0.356C0.528,-0.342 0.539,-0.323 0.546,-0.299C0.554,-0.275 0.558,-0.247 0.558,-0.216C0.558,-0.175 0.551,-0.14 0.538,-0.11C0.524,-0.081 0.505,-0.057 0.48,-0.039C0.455,-0.022 0.425,-0.009 0.392,-0C0.359,0.008 0.321,0.012 0.279,0.012Z" style="fill-rule:nonzero;"/>
            </g>
        </g>
        <g id="TEXT1" transform="matrix(0.2,0,0,0.2,-374.96,-3916.47)">
            <g transform="matrix(65.1494,-51.9615,51.9615,65.1494,2296.58,20004.6)">
                <path d="M0.365,0.012C0.261,0.012 0.182,-0.019 0.126,-0.082C0.071,-0.145 0.043,-0.235 0.043,-0.35C0.043,-0.471 0.069,-0.563 0.122,-0.626C0.174,-0.689 0.248,-0.72 0.342,-0.72C0.424,-0.72 0.488,-0.702 0.534,-0.664C0.58,-0.627 0.607,-0.575 0.614,-0.507C0.616,-0.485 0.606,-0.472 0.584,-0.469L0.46,-0.451C0.449,-0.45 0.441,-0.452 0.435,-0.456C0.429,-0.461 0.424,-0.469 0.422,-0.481C0.41,-0.534 0.383,-0.56 0.341,-0.56C0.307,-0.56 0.281,-0.544 0.263,-0.512C0.244,-0.479 0.235,-0.43 0.235,-0.363C0.235,-0.297 0.249,-0.247 0.277,-0.214C0.305,-0.181 0.346,-0.164 0.4,-0.164C0.421,-0.164 0.44,-0.166 0.457,-0.171C0.473,-0.175 0.494,-0.183 0.518,-0.193C0.525,-0.195 0.531,-0.196 0.539,-0.197C0.546,-0.197 0.553,-0.195 0.561,-0.19C0.568,-0.185 0.573,-0.177 0.575,-0.166L0.598,-0.076C0.604,-0.054 0.598,-0.039 0.58,-0.031C0.52,-0.002 0.449,0.012 0.365,0.012Z" style="fill-rule:nonzero;"/>
            </g>
            <g transform="matrix(76.1845,-33.7692,33.7692,76.1845,2342.31,19968.3)">
                <path d="M0.36,0.012C0.293,0.012 0.236,-0.004 0.188,-0.036C0.139,-0.068 0.103,-0.111 0.079,-0.166C0.055,-0.221 0.043,-0.283 0.043,-0.354C0.043,-0.425 0.055,-0.487 0.079,-0.542C0.103,-0.597 0.139,-0.64 0.188,-0.672C0.236,-0.704 0.293,-0.72 0.36,-0.72C0.427,-0.72 0.484,-0.704 0.532,-0.672C0.581,-0.64 0.617,-0.597 0.641,-0.542C0.665,-0.487 0.677,-0.425 0.677,-0.354C0.677,-0.283 0.665,-0.221 0.641,-0.166C0.617,-0.111 0.581,-0.068 0.532,-0.036C0.484,-0.004 0.427,0.012 0.36,0.012ZM0.262,-0.206C0.282,-0.17 0.315,-0.152 0.36,-0.152C0.405,-0.152 0.438,-0.17 0.459,-0.206C0.48,-0.242 0.49,-0.291 0.49,-0.354C0.49,-0.417 0.48,-0.466 0.459,-0.502C0.438,-0.538 0.405,-0.556 0.36,-0.556C0.316,-0.556 0.284,-0.538 0.263,-0.502C0.242,-0.465 0.231,-0.416 0.231,-0.354C0.231,-0.291 0.241,-0.242 0.262,-0.206Z" style="fill-rule:nonzero;"/>
            </g>
            <g transform="matrix(82.4811,-11.8878,11.8878,82.4811,2400.62,19942.8)">
                <path d="M0.643,-0.71C0.666,-0.71 0.677,-0.698 0.677,-0.675L0.677,-0.035C0.677,-0.012 0.666,-0 0.643,-0L0.524,-0C0.506,-0 0.492,-0.007 0.483,-0.021L0.254,-0.385L0.254,-0.035C0.254,-0.012 0.243,-0 0.221,-0L0.103,-0C0.081,-0 0.07,-0.012 0.07,-0.035L0.07,-0.669C0.07,-0.691 0.08,-0.703 0.101,-0.706L0.221,-0.722C0.238,-0.725 0.252,-0.719 0.262,-0.703L0.493,-0.329L0.493,-0.675C0.493,-0.698 0.504,-0.71 0.526,-0.71L0.643,-0.71Z" style="fill-rule:nonzero;"/>
            </g>
            <g transform="matrix(82.948,8.00458,-8.00458,82.948,2467.46,19935)">
                <path d="M0.477,-0.71C0.499,-0.71 0.51,-0.698 0.51,-0.675L0.51,-0.585C0.51,-0.562 0.499,-0.55 0.477,-0.55L0.346,-0.55L0.346,-0.035C0.346,-0.012 0.335,-0 0.313,-0L0.196,-0C0.174,-0 0.163,-0.012 0.163,-0.035L0.163,-0.55L0.032,-0.55C0.01,-0.55 -0.001,-0.562 -0.001,-0.585L-0.001,-0.668C-0.001,-0.691 0.009,-0.703 0.03,-0.705C0.061,-0.708 0.097,-0.71 0.138,-0.71L0.477,-0.71Z" style="fill-rule:nonzero;"/>
            </g>
            <g transform="matrix(79.2539,25.754,-25.754,79.2539,2515.41,19939.9)">
                <path d="M0.242,-0.739C0.23,-0.74 0.222,-0.744 0.217,-0.751C0.213,-0.759 0.213,-0.768 0.218,-0.779L0.245,-0.846C0.252,-0.864 0.265,-0.871 0.284,-0.868L0.416,-0.852C0.429,-0.851 0.437,-0.846 0.44,-0.838C0.442,-0.83 0.44,-0.82 0.431,-0.81L0.38,-0.75C0.369,-0.738 0.356,-0.732 0.34,-0.733L0.242,-0.739ZM0.485,-0.164C0.507,-0.164 0.518,-0.152 0.518,-0.129L0.518,-0.035C0.518,-0.012 0.507,-0 0.485,-0L0.103,-0C0.081,-0 0.07,-0.012 0.07,-0.035L0.07,-0.675C0.07,-0.698 0.081,-0.71 0.103,-0.71L0.484,-0.71C0.506,-0.71 0.517,-0.698 0.517,-0.674L0.511,-0.58C0.511,-0.569 0.508,-0.561 0.501,-0.555C0.495,-0.549 0.486,-0.546 0.476,-0.546L0.254,-0.546L0.254,-0.418L0.447,-0.418C0.469,-0.418 0.48,-0.406 0.48,-0.383L0.48,-0.303C0.48,-0.28 0.469,-0.268 0.447,-0.268L0.254,-0.268L0.254,-0.164L0.485,-0.164Z" style="fill-rule:nonzero;"/>
            </g>
            <g transform="matrix(69.184,46.4544,-46.4544,69.184,2563.99,19953.7)">
                <path d="M0.862,-0.157C0.883,-0.155 0.893,-0.143 0.893,-0.121L0.892,-0.032C0.891,-0.009 0.881,0.003 0.861,0.005C0.841,0.007 0.819,0.008 0.795,0.008C0.769,0.008 0.747,0.006 0.73,0.001C0.714,-0.003 0.698,-0.011 0.685,-0.022C0.671,-0.034 0.661,-0.05 0.655,-0.072C0.649,-0.094 0.645,-0.122 0.644,-0.156L0.636,-0.402L0.529,-0.12C0.522,-0.103 0.509,-0.094 0.49,-0.094L0.411,-0.094C0.392,-0.094 0.379,-0.103 0.372,-0.12L0.266,-0.4L0.254,-0.034C0.253,-0.011 0.242,-0 0.22,-0L0.103,-0C0.092,-0 0.084,-0.003 0.078,-0.01C0.072,-0.016 0.069,-0.025 0.07,-0.036L0.094,-0.669C0.094,-0.691 0.104,-0.703 0.124,-0.705L0.291,-0.723C0.311,-0.725 0.324,-0.717 0.331,-0.698L0.453,-0.367L0.578,-0.684C0.585,-0.701 0.597,-0.71 0.615,-0.71L0.773,-0.71C0.783,-0.71 0.791,-0.707 0.797,-0.701C0.804,-0.695 0.807,-0.687 0.807,-0.676L0.83,-0.162C0.841,-0.16 0.852,-0.158 0.862,-0.157Z" style="fill-rule:nonzero;"/>
            </g>
        </g>
    </g>
</svg>
