<?xml version="1.0" encoding="UTF-8" standalone="no"?>
<!DOCTYPE svg PUBLIC "-//W3C//DTD SVG 1.1//EN" "http://www.w3.org/Graphics/SVG/1.1/DTD/svg11.dtd">
<svg width="100%" height="100%" viewBox="0 0 238 237" version="1.1" xmlns="http://www.w3.org/2000/svg" xmlns:xlink="http://www.w3.org/1999/xlink" xml:space="preserve" xmlns:serif="http://www.serif.com/" style="fill-rule:evenodd;clip-rule:evenodd;stroke-linejoin:round;stroke-miterlimit:2;">
    <rect id="icon_1" x="0.911" y="0" width="236.22" height="236.22"/>
    <g id="RECICLAGEM">
        <path id="reciclagem" d="M118.03,127.47L118.03,141.176L104.843,141.176C102.564,141.176 101.426,139.406 101.426,135.864C101.426,134.553 101.747,133.265 102.392,132.002C102.787,131.21 103.766,129.699 105.327,127.47L118.03,127.47ZM111.716,111.97L99.846,105.115L106.438,93.696C107.579,91.723 109.68,91.622 112.747,93.393C113.883,94.047 114.838,94.971 115.61,96.161C116.097,96.899 116.918,98.503 118.067,100.968L111.716,111.97ZM117.35,95.45C116.587,93.949 115.569,92.834 114.305,92.105C113.598,91.697 112.797,91.348 111.906,91.063L128.561,91.114C129.557,91.116 130.356,91.293 130.958,91.64C131.622,92.023 132.284,92.834 132.942,94.072L135.207,98.468L137.789,97.041C138.156,96.852 138.392,96.789 138.498,96.852C138.97,97.123 139.081,97.5 138.83,97.987L132.996,108.686L121.305,108.285C120.862,108.255 120.546,108.189 120.352,108.078C120.052,107.904 120.009,107.634 120.218,107.271L122.78,105.877L117.35,95.45ZM128.314,114.252L140.185,107.399L146.778,118.818C147.917,120.791 146.954,122.663 143.887,124.434C142.751,125.089 141.475,125.454 140.058,125.528C139.176,125.581 137.376,125.489 134.666,125.253L128.314,114.252ZM139.803,127.391C141.485,127.48 142.959,127.156 144.223,126.426C144.93,126.017 145.633,125.498 146.325,124.869L137.954,139.267C137.453,140.13 136.901,140.733 136.3,141.08C135.635,141.464 134.601,141.632 133.2,141.583L128.261,141.347L128.206,144.296C128.185,144.708 128.122,144.943 128.016,145.005C127.545,145.278 127.163,145.184 126.866,144.725L120.517,134.322L126.712,124.399C126.957,124.03 127.173,123.788 127.367,123.676C127.667,123.504 127.922,123.601 128.132,123.963L128.059,126.881L139.803,127.391ZM100.906,130.849C99.988,132.261 99.532,133.7 99.532,135.159C99.532,135.975 99.63,136.843 99.829,137.759L91.545,123.309C91.05,122.444 90.802,121.664 90.802,120.97C90.802,120.203 91.174,119.224 91.918,118.035L94.591,113.875L92.066,112.353C91.718,112.13 91.545,111.957 91.545,111.834C91.545,111.289 91.817,111.005 92.364,110.978L104.546,110.681L110.044,121.007C110.24,121.404 110.341,121.713 110.341,121.936C110.341,122.283 110.129,122.456 109.709,122.456L107.22,120.933L100.906,130.849Z" style="fill:white;"/>
        <g id="TEXT2" transform="matrix(0.2,0,0,0.2,-290.972,-3910.94)">
            <g transform="matrix(46.2725,69.3058,-69.3058,46.2725,1788.9,20286)">
                <path d="M0.611,-0.156C0.635,-0.155 0.646,-0.143 0.644,-0.119L0.637,-0.028C0.635,-0.007 0.625,0.005 0.606,0.007C0.588,0.008 0.574,0.009 0.562,0.009C0.524,0.009 0.495,0.004 0.478,-0.007C0.46,-0.017 0.442,-0.038 0.425,-0.07L0.341,-0.222L0.266,-0.222L0.266,-0.035C0.266,-0.012 0.255,-0 0.233,-0L0.116,-0C0.094,-0 0.083,-0.012 0.083,-0.035L0.083,-0.55L0.051,-0.55C0.029,-0.55 0.018,-0.562 0.018,-0.585L0.018,-0.67C0.018,-0.692 0.028,-0.705 0.048,-0.708C0.076,-0.712 0.103,-0.714 0.128,-0.714C0.171,-0.714 0.203,-0.704 0.225,-0.685C0.266,-0.708 0.312,-0.72 0.364,-0.72C0.443,-0.72 0.504,-0.698 0.547,-0.655C0.59,-0.611 0.612,-0.551 0.612,-0.476C0.612,-0.429 0.604,-0.386 0.588,-0.349C0.572,-0.311 0.548,-0.282 0.518,-0.26L0.558,-0.182C0.563,-0.172 0.569,-0.166 0.576,-0.162C0.583,-0.158 0.595,-0.156 0.611,-0.156ZM0.266,-0.55L0.266,-0.382L0.327,-0.382C0.362,-0.382 0.387,-0.388 0.403,-0.401C0.418,-0.414 0.426,-0.434 0.426,-0.462C0.426,-0.492 0.419,-0.515 0.407,-0.532C0.394,-0.548 0.373,-0.556 0.343,-0.556C0.325,-0.556 0.299,-0.554 0.266,-0.55Z" style="fill:white;fill-rule:nonzero;"/>
            </g>
            <g transform="matrix(61.4143,56.3269,-56.3269,61.4143,1832.44,20346.4)">
                <path d="M0.485,-0.164C0.507,-0.164 0.518,-0.152 0.518,-0.129L0.518,-0.035C0.518,-0.012 0.507,-0 0.485,-0L0.103,-0C0.081,-0 0.07,-0.012 0.07,-0.035L0.07,-0.675C0.07,-0.698 0.081,-0.71 0.103,-0.71L0.484,-0.71C0.506,-0.71 0.517,-0.698 0.517,-0.674L0.511,-0.58C0.511,-0.569 0.508,-0.561 0.501,-0.555C0.495,-0.549 0.486,-0.546 0.476,-0.546L0.254,-0.546L0.254,-0.418L0.447,-0.418C0.469,-0.418 0.48,-0.406 0.48,-0.383L0.48,-0.303C0.48,-0.28 0.469,-0.268 0.447,-0.268L0.254,-0.268L0.254,-0.164L0.485,-0.164Z" style="fill:white;fill-rule:nonzero;"/>
            </g>
            <g transform="matrix(72.6532,40.8162,-40.8162,72.6532,1881.79,20389.5)">
                <path d="M0.365,0.012C0.261,0.012 0.182,-0.019 0.126,-0.082C0.071,-0.145 0.043,-0.235 0.043,-0.35C0.043,-0.471 0.069,-0.563 0.122,-0.626C0.174,-0.689 0.248,-0.72 0.342,-0.72C0.424,-0.72 0.488,-0.702 0.534,-0.664C0.58,-0.627 0.607,-0.575 0.614,-0.507C0.616,-0.485 0.606,-0.472 0.584,-0.469L0.46,-0.451C0.449,-0.45 0.441,-0.452 0.435,-0.456C0.429,-0.461 0.424,-0.469 0.422,-0.481C0.41,-0.534 0.383,-0.56 0.341,-0.56C0.307,-0.56 0.281,-0.544 0.263,-0.512C0.244,-0.479 0.235,-0.43 0.235,-0.363C0.235,-0.297 0.249,-0.247 0.277,-0.214C0.305,-0.181 0.346,-0.164 0.4,-0.164C0.421,-0.164 0.44,-0.166 0.457,-0.171C0.473,-0.175 0.494,-0.183 0.518,-0.193C0.525,-0.195 0.531,-0.196 0.539,-0.197C0.546,-0.197 0.553,-0.195 0.561,-0.19C0.568,-0.185 0.573,-0.177 0.575,-0.166L0.598,-0.076C0.604,-0.054 0.598,-0.039 0.58,-0.031C0.52,-0.002 0.449,0.012 0.365,0.012Z" style="fill:white;fill-rule:nonzero;"/>
            </g>
            <g transform="matrix(79.3922,25.3242,-25.3242,79.3922,1947.4,20422.6)">
                <path d="M0.103,-0C0.081,-0 0.07,-0.012 0.07,-0.035L0.07,-0.675C0.07,-0.698 0.081,-0.71 0.103,-0.71L0.22,-0.71C0.243,-0.71 0.254,-0.698 0.254,-0.675L0.254,-0.035C0.254,-0.012 0.243,-0 0.22,-0L0.103,-0Z" style="fill:white;fill-rule:nonzero;"/>
            </g>
            <g transform="matrix(82.8753,8.72501,-8.72501,82.8753,1991.53,20436.1)">
                <path d="M0.365,0.012C0.261,0.012 0.182,-0.019 0.126,-0.082C0.071,-0.145 0.043,-0.235 0.043,-0.35C0.043,-0.471 0.069,-0.563 0.122,-0.626C0.174,-0.689 0.248,-0.72 0.342,-0.72C0.424,-0.72 0.488,-0.702 0.534,-0.664C0.58,-0.627 0.607,-0.575 0.614,-0.507C0.616,-0.485 0.606,-0.472 0.584,-0.469L0.46,-0.451C0.449,-0.45 0.441,-0.452 0.435,-0.456C0.429,-0.461 0.424,-0.469 0.422,-0.481C0.41,-0.534 0.383,-0.56 0.341,-0.56C0.307,-0.56 0.281,-0.544 0.263,-0.512C0.244,-0.479 0.235,-0.43 0.235,-0.363C0.235,-0.297 0.249,-0.247 0.277,-0.214C0.305,-0.181 0.346,-0.164 0.4,-0.164C0.421,-0.164 0.44,-0.166 0.457,-0.171C0.473,-0.175 0.494,-0.183 0.518,-0.193C0.525,-0.195 0.531,-0.196 0.539,-0.197C0.546,-0.197 0.553,-0.195 0.561,-0.19C0.568,-0.185 0.573,-0.177 0.575,-0.166L0.598,-0.076C0.604,-0.054 0.598,-0.039 0.58,-0.031C0.52,-0.002 0.449,0.012 0.365,0.012Z" style="fill:white;fill-rule:nonzero;"/>
            </g>
            <g transform="matrix(82.5854,-11.1401,11.1401,82.5854,2065.02,20441.2)">
                <path d="M0.496,-0.166C0.518,-0.166 0.529,-0.154 0.529,-0.131L0.529,-0.035C0.529,-0.012 0.518,-0 0.496,-0L0.103,-0C0.081,-0 0.07,-0.012 0.07,-0.035L0.07,-0.675C0.07,-0.698 0.081,-0.71 0.103,-0.71L0.22,-0.71C0.243,-0.71 0.254,-0.698 0.254,-0.675L0.254,-0.166L0.496,-0.166Z" style="fill:white;fill-rule:nonzero;"/>
            </g>
            <g transform="matrix(77.7487,-29.9931,29.9931,77.7487,2129.24,20431.2)">
                <path d="M0.283,-0.739C0.271,-0.74 0.263,-0.744 0.258,-0.751C0.254,-0.759 0.254,-0.768 0.259,-0.779L0.286,-0.846C0.293,-0.864 0.306,-0.871 0.325,-0.868L0.457,-0.852C0.47,-0.851 0.478,-0.846 0.481,-0.838C0.483,-0.83 0.481,-0.82 0.472,-0.81L0.421,-0.75C0.41,-0.738 0.397,-0.732 0.381,-0.733L0.283,-0.739ZM0.655,-0.156C0.674,-0.154 0.683,-0.144 0.682,-0.126L0.68,-0.027C0.68,-0.008 0.672,0.003 0.655,0.005C0.639,0.007 0.621,0.008 0.6,0.008C0.557,0.008 0.526,0.002 0.505,-0.009C0.485,-0.02 0.469,-0.042 0.458,-0.076L0.438,-0.139L0.234,-0.139L0.2,-0.024C0.196,-0.008 0.186,-0 0.169,-0L0.033,-0C0.023,-0 0.016,-0.003 0.012,-0.01C0.008,-0.016 0.008,-0.025 0.011,-0.035L0.226,-0.679C0.231,-0.695 0.24,-0.703 0.255,-0.705L0.393,-0.723C0.409,-0.725 0.42,-0.718 0.426,-0.701L0.617,-0.164C0.626,-0.16 0.638,-0.158 0.655,-0.156ZM0.278,-0.289L0.391,-0.289L0.333,-0.475L0.278,-0.289Z" style="fill:white;fill-rule:nonzero;"/>
            </g>
            <g transform="matrix(68.71,-47.1527,47.1527,68.71,2194.82,20404)">
                <path d="M0.632,-0.707C0.644,-0.706 0.651,-0.701 0.656,-0.694C0.66,-0.686 0.66,-0.677 0.656,-0.665L0.437,-0.028C0.431,-0.009 0.417,-0 0.398,-0L0.265,-0C0.246,-0 0.233,-0.009 0.227,-0.027L0.045,-0.55L0.013,-0.55C-0.009,-0.55 -0.02,-0.562 -0.02,-0.585L-0.02,-0.67C-0.02,-0.691 -0.01,-0.704 0.01,-0.708C0.035,-0.713 0.065,-0.716 0.099,-0.716C0.135,-0.716 0.163,-0.708 0.182,-0.692C0.202,-0.677 0.216,-0.655 0.225,-0.628L0.332,-0.281L0.466,-0.697C0.472,-0.717 0.485,-0.725 0.505,-0.722L0.632,-0.707Z" style="fill:white;fill-rule:nonzero;"/>
            </g>
            <g transform="matrix(55.313,-62.3291,62.3291,55.313,2254.61,20359.5)">
                <path d="M0.485,-0.164C0.507,-0.164 0.518,-0.152 0.518,-0.129L0.518,-0.035C0.518,-0.012 0.507,-0 0.485,-0L0.103,-0C0.081,-0 0.07,-0.012 0.07,-0.035L0.07,-0.675C0.07,-0.698 0.081,-0.71 0.103,-0.71L0.484,-0.71C0.506,-0.71 0.517,-0.698 0.517,-0.674L0.511,-0.58C0.511,-0.569 0.508,-0.561 0.501,-0.555C0.495,-0.549 0.486,-0.546 0.476,-0.546L0.254,-0.546L0.254,-0.418L0.447,-0.418C0.469,-0.418 0.48,-0.406 0.48,-0.383L0.48,-0.303C0.48,-0.28 0.469,-0.268 0.447,-0.268L0.254,-0.268L0.254,-0.164L0.485,-0.164Z" style="fill:white;fill-rule:nonzero;"/>
            </g>
            <g transform="matrix(40.0998,-73.051,73.051,40.0998,2296.99,20308.9)">
                <path d="M0.496,-0.166C0.518,-0.166 0.529,-0.154 0.529,-0.131L0.529,-0.035C0.529,-0.012 0.518,-0 0.496,-0L0.103,-0C0.081,-0 0.07,-0.012 0.07,-0.035L0.07,-0.675C0.07,-0.698 0.081,-0.71 0.103,-0.71L0.22,-0.71C0.243,-0.71 0.254,-0.698 0.254,-0.675L0.254,-0.166L0.496,-0.166Z" style="fill:white;fill-rule:nonzero;"/>
            </g>
        </g>
        <g id="TEXT1" transform="matrix(0.2,0,0,0.2,-374.08,-3916.47)">
            <g transform="matrix(40.4035,-72.8835,72.8835,40.4035,2246.22,20079.8)">
                <path d="M0.485,-0.164C0.507,-0.164 0.518,-0.152 0.518,-0.129L0.518,-0.035C0.518,-0.012 0.507,-0 0.485,-0L0.103,-0C0.081,-0 0.07,-0.012 0.07,-0.035L0.07,-0.675C0.07,-0.698 0.081,-0.71 0.103,-0.71L0.484,-0.71C0.506,-0.71 0.517,-0.698 0.517,-0.674L0.511,-0.58C0.511,-0.569 0.508,-0.561 0.501,-0.555C0.495,-0.549 0.486,-0.546 0.476,-0.546L0.254,-0.546L0.254,-0.418L0.447,-0.418C0.469,-0.418 0.48,-0.406 0.48,-0.383L0.48,-0.303C0.48,-0.28 0.469,-0.268 0.447,-0.268L0.254,-0.268L0.254,-0.164L0.485,-0.164Z" style="fill:white;fill-rule:nonzero;"/>
            </g>
            <g transform="matrix(58.6618,-59.1882,59.1882,58.6618,2269.01,20034.7)">
                <path d="M0.862,-0.157C0.883,-0.155 0.893,-0.143 0.893,-0.121L0.892,-0.032C0.891,-0.009 0.881,0.003 0.861,0.005C0.841,0.007 0.819,0.008 0.795,0.008C0.769,0.008 0.747,0.006 0.73,0.001C0.714,-0.003 0.698,-0.011 0.685,-0.022C0.671,-0.034 0.661,-0.05 0.655,-0.072C0.649,-0.094 0.645,-0.122 0.644,-0.156L0.636,-0.402L0.529,-0.12C0.522,-0.103 0.509,-0.094 0.49,-0.094L0.411,-0.094C0.392,-0.094 0.379,-0.103 0.372,-0.12L0.266,-0.4L0.254,-0.034C0.253,-0.011 0.242,-0 0.22,-0L0.103,-0C0.092,-0 0.084,-0.003 0.078,-0.01C0.072,-0.016 0.069,-0.025 0.07,-0.036L0.094,-0.669C0.094,-0.691 0.104,-0.703 0.124,-0.705L0.291,-0.723C0.311,-0.725 0.324,-0.717 0.331,-0.698L0.453,-0.367L0.578,-0.684C0.585,-0.701 0.597,-0.71 0.615,-0.71L0.773,-0.71C0.783,-0.71 0.791,-0.707 0.797,-0.701C0.804,-0.695 0.807,-0.687 0.807,-0.676L0.83,-0.162C0.841,-0.16 0.852,-0.158 0.862,-0.157Z" style="fill:white;fill-rule:nonzero;"/>
            </g>
            <g transform="matrix(72.7456,-40.6513,40.6513,72.7456,2326.16,19979.3)">
                <path d="M0.55,-0.389C0.613,-0.357 0.644,-0.301 0.644,-0.22C0.644,-0.146 0.622,-0.09 0.579,-0.054C0.536,-0.018 0.468,-0 0.375,-0L0.116,-0C0.094,-0 0.083,-0.012 0.083,-0.035L0.083,-0.55L0.051,-0.55C0.029,-0.55 0.018,-0.562 0.018,-0.585L0.018,-0.67C0.018,-0.692 0.028,-0.705 0.048,-0.708C0.076,-0.712 0.103,-0.714 0.128,-0.714C0.172,-0.714 0.205,-0.704 0.226,-0.683C0.272,-0.708 0.324,-0.72 0.383,-0.72C0.452,-0.72 0.507,-0.702 0.547,-0.666C0.588,-0.63 0.608,-0.582 0.608,-0.522C0.608,-0.464 0.589,-0.42 0.55,-0.389ZM0.429,-0.486C0.429,-0.508 0.422,-0.526 0.408,-0.538C0.394,-0.55 0.373,-0.556 0.345,-0.556C0.318,-0.556 0.292,-0.554 0.266,-0.549L0.266,-0.42L0.364,-0.42C0.407,-0.42 0.429,-0.442 0.429,-0.486ZM0.406,-0.16C0.42,-0.16 0.432,-0.165 0.444,-0.175C0.455,-0.185 0.461,-0.2 0.461,-0.22C0.461,-0.26 0.442,-0.28 0.405,-0.28L0.266,-0.28L0.266,-0.16L0.406,-0.16Z" style="fill:white;fill-rule:nonzero;"/>
            </g>
            <g transform="matrix(80.7803,-20.4692,20.4692,80.7803,2379.28,19950.3)">
                <path d="M0.655,-0.156C0.674,-0.154 0.683,-0.144 0.682,-0.126L0.68,-0.027C0.68,-0.008 0.672,0.003 0.655,0.005C0.639,0.007 0.621,0.008 0.6,0.008C0.557,0.008 0.526,0.002 0.505,-0.009C0.485,-0.02 0.469,-0.042 0.458,-0.076L0.438,-0.139L0.234,-0.139L0.2,-0.024C0.196,-0.008 0.186,-0 0.169,-0L0.033,-0C0.023,-0 0.016,-0.003 0.012,-0.01C0.008,-0.016 0.008,-0.025 0.011,-0.035L0.226,-0.679C0.231,-0.695 0.24,-0.703 0.255,-0.705L0.393,-0.723C0.409,-0.725 0.42,-0.718 0.426,-0.701L0.617,-0.164C0.626,-0.16 0.638,-0.158 0.655,-0.156ZM0.278,-0.289L0.391,-0.289L0.333,-0.475L0.278,-0.289Z" style="fill:white;fill-rule:nonzero;"/>
            </g>
            <g transform="matrix(83.3289,-0.858848,0.858848,83.3289,2438.07,19936.2)">
                <path d="M0.496,-0.166C0.518,-0.166 0.529,-0.154 0.529,-0.131L0.529,-0.035C0.529,-0.012 0.518,-0 0.496,-0L0.103,-0C0.081,-0 0.07,-0.012 0.07,-0.035L0.07,-0.675C0.07,-0.698 0.081,-0.71 0.103,-0.71L0.22,-0.71C0.243,-0.71 0.254,-0.698 0.254,-0.675L0.254,-0.166L0.496,-0.166Z" style="fill:white;fill-rule:nonzero;"/>
            </g>
            <g transform="matrix(81.2951,18.3178,-18.3178,81.2951,2489.69,19935.4)">
                <path d="M0.655,-0.156C0.674,-0.154 0.683,-0.144 0.682,-0.126L0.68,-0.027C0.68,-0.008 0.672,0.003 0.655,0.005C0.639,0.007 0.621,0.008 0.6,0.008C0.557,0.008 0.526,0.002 0.505,-0.009C0.485,-0.02 0.469,-0.042 0.458,-0.076L0.438,-0.139L0.234,-0.139L0.2,-0.024C0.196,-0.008 0.186,-0 0.169,-0L0.033,-0C0.023,-0 0.016,-0.003 0.012,-0.01C0.008,-0.016 0.008,-0.025 0.011,-0.035L0.226,-0.679C0.231,-0.695 0.24,-0.703 0.255,-0.705L0.393,-0.723C0.409,-0.725 0.42,-0.718 0.426,-0.701L0.617,-0.164C0.626,-0.16 0.638,-0.158 0.655,-0.156ZM0.278,-0.289L0.391,-0.289L0.333,-0.475L0.278,-0.289Z" style="fill:white;fill-rule:nonzero;"/>
            </g>
            <g transform="matrix(73.9437,38.4288,-38.4288,73.9437,2548.15,19948.8)">
                <path d="M0.59,-0.396C0.615,-0.396 0.634,-0.39 0.648,-0.377C0.662,-0.364 0.669,-0.346 0.669,-0.324L0.669,-0.035C0.669,-0.012 0.658,-0 0.636,-0L0.549,-0C0.529,-0 0.517,-0.011 0.514,-0.033L0.513,-0.045C0.466,-0.007 0.413,0.012 0.352,0.012C0.257,0.012 0.181,-0.02 0.126,-0.085C0.071,-0.15 0.043,-0.24 0.043,-0.354C0.043,-0.474 0.071,-0.565 0.126,-0.627C0.181,-0.689 0.261,-0.72 0.365,-0.72C0.443,-0.72 0.506,-0.705 0.552,-0.673C0.599,-0.642 0.631,-0.599 0.649,-0.543C0.652,-0.532 0.652,-0.523 0.647,-0.515C0.642,-0.508 0.635,-0.503 0.624,-0.501L0.493,-0.475C0.476,-0.472 0.462,-0.48 0.452,-0.5C0.442,-0.52 0.431,-0.535 0.418,-0.544C0.405,-0.553 0.387,-0.558 0.365,-0.558C0.323,-0.558 0.291,-0.541 0.269,-0.508C0.246,-0.474 0.235,-0.423 0.235,-0.354C0.235,-0.219 0.283,-0.152 0.378,-0.152C0.413,-0.152 0.441,-0.161 0.459,-0.178C0.478,-0.196 0.488,-0.218 0.488,-0.244L0.488,-0.258L0.392,-0.258C0.37,-0.258 0.359,-0.27 0.359,-0.293L0.359,-0.361C0.359,-0.384 0.37,-0.396 0.392,-0.396L0.59,-0.396Z" style="fill:white;fill-rule:nonzero;"/>
            </g>
            <g transform="matrix(62.1226,55.5448,-55.5448,62.1226,2605.05,19979.9)">
                <path d="M0.485,-0.164C0.507,-0.164 0.518,-0.152 0.518,-0.129L0.518,-0.035C0.518,-0.012 0.507,-0 0.485,-0L0.103,-0C0.081,-0 0.07,-0.012 0.07,-0.035L0.07,-0.675C0.07,-0.698 0.081,-0.71 0.103,-0.71L0.484,-0.71C0.506,-0.71 0.517,-0.698 0.517,-0.674L0.511,-0.58C0.511,-0.569 0.508,-0.561 0.501,-0.555C0.495,-0.549 0.486,-0.546 0.476,-0.546L0.254,-0.546L0.254,-0.418L0.447,-0.418C0.469,-0.418 0.48,-0.406 0.48,-0.383L0.48,-0.303C0.48,-0.28 0.469,-0.268 0.447,-0.268L0.254,-0.268L0.254,-0.164L0.485,-0.164Z" style="fill:white;fill-rule:nonzero;"/>
            </g>
            <g transform="matrix(44.7515,70.2976,-70.2976,44.7515,2644.03,20012.1)">
                <path d="M0.862,-0.157C0.883,-0.155 0.893,-0.143 0.893,-0.121L0.892,-0.032C0.891,-0.009 0.881,0.003 0.861,0.005C0.841,0.007 0.819,0.008 0.795,0.008C0.769,0.008 0.747,0.006 0.73,0.001C0.714,-0.003 0.698,-0.011 0.685,-0.022C0.671,-0.034 0.661,-0.05 0.655,-0.072C0.649,-0.094 0.645,-0.122 0.644,-0.156L0.636,-0.402L0.529,-0.12C0.522,-0.103 0.509,-0.094 0.49,-0.094L0.411,-0.094C0.392,-0.094 0.379,-0.103 0.372,-0.12L0.266,-0.4L0.254,-0.034C0.253,-0.011 0.242,-0 0.22,-0L0.103,-0C0.092,-0 0.084,-0.003 0.078,-0.01C0.072,-0.016 0.069,-0.025 0.07,-0.036L0.094,-0.669C0.094,-0.691 0.104,-0.703 0.124,-0.705L0.291,-0.723C0.311,-0.725 0.324,-0.717 0.331,-0.698L0.453,-0.367L0.578,-0.684C0.585,-0.701 0.597,-0.71 0.615,-0.71L0.773,-0.71C0.783,-0.71 0.791,-0.707 0.797,-0.701C0.804,-0.695 0.807,-0.687 0.807,-0.676L0.83,-0.162C0.841,-0.16 0.852,-0.158 0.862,-0.157Z" style="fill:white;fill-rule:nonzero;"/>
            </g>
        </g>
    </g>
</svg>
