<?xml version="1.0" encoding="UTF-8" standalone="no"?>
<!DOCTYPE svg PUBLIC "-//W3C//DTD SVG 1.1//EN" "http://www.w3.org/Graphics/SVG/1.1/DTD/svg11.dtd">
<svg width="100%" height="100%" viewBox="0 0 238 237" version="1.1" xmlns="http://www.w3.org/2000/svg" xmlns:xlink="http://www.w3.org/1999/xlink" xml:space="preserve" xmlns:serif="http://www.serif.com/" style="fill-rule:evenodd;clip-rule:evenodd;stroke-linecap:round;stroke-linejoin:round;stroke-miterlimit:2;">
    <rect id="icon_2" x="0.952" y="0" width="236.22" height="236.22" style="fill:white;"/>
    <clipPath id="_clip1">
        <rect x="0.952" y="0" width="236.22" height="236.22"/>
    </clipPath>
    <g clip-path="url(#_clip1)">
        <g id="GOLDEN">
            <rect id="MENU" x="0.952" y="0" width="236.22" height="236.22" style="fill:white;"/>
            <path d="M76.542,119.237C79.207,116.136 79.49,115.567 80.217,113.344C81.315,109.982 81.254,102.659 83.134,99.065C84.881,95.728 88.84,94.366 91.501,91.784C94.595,88.782 97.877,83.749 101.701,81.051C105.509,78.363 109.858,75.445 114.44,75.595C119.837,75.772 129.821,79.624 134.082,82.111C142.905,87.262 145.125,95.519 145.437,100.234C145.659,103.588 156.071,105.467 161.541,108.673C161.723,108.78 161.272,115.742 160.596,120.324C159.022,130.994 146.167,136.363 138.064,135.637C136.898,135.533 126.709,133.92 127.505,137.884C128.614,143.41 129.961,149.231 124.746,160.631" style="fill:none;stroke:black;stroke-width:7.08px;"/>
        </g>
    </g>
</svg>
