<?xml version="1.0" encoding="UTF-8" standalone="no"?>
<!DOCTYPE svg PUBLIC "-//W3C//DTD SVG 1.1//EN" "http://www.w3.org/Graphics/SVG/1.1/DTD/svg11.dtd">
<svg width="100%" height="100%" viewBox="0 0 1330 1329" version="1.1" xmlns="http://www.w3.org/2000/svg" xmlns:xlink="http://www.w3.org/1999/xlink" xml:space="preserve" xmlns:serif="http://www.serif.com/" style="fill-rule:evenodd;clip-rule:evenodd;stroke-linecap:round;stroke-linejoin:round;stroke-miterlimit:2;">
    <rect id="icon" x="0.341" y="0" width="1328.74" height="1328.74" style="fill:white;"/>
    <clipPath id="_clip1">
        <rect x="0.341" y="0" width="1328.74" height="1328.74"/>
    </clipPath>
    <g clip-path="url(#_clip1)">
        <g id="HUSKY">
            <rect id="MENU" x="74.271" y="1018.7" width="236.22" height="236.22" style="fill:white;"/>
            <path d="M211.382,1179.33C211.635,1177.08 211.783,1174.5 211.762,1171.53C211.72,1165.51 209.663,1155.54 210.523,1155.14C213.669,1153.65 228.676,1157.99 233.837,1143.27C236.276,1136.32 234.274,1135.95 230.335,1134.17C217.395,1128.33 216.501,1128.73 215.882,1125.5C213.963,1115.5 204.212,1114.69 204.005,1110.98C203.906,1109.2 204.142,1102.78 202.243,1097.29C201.309,1094.59 189.832,1114.63 189.149,1108.96C188.79,1105.99 186.082,1092.24 181.922,1094.55C174.81,1098.5 170.328,1115.75 168.819,1117.92C162.688,1126.74 159.116,1132.78 155.519,1146.57C155.383,1147.09 153.557,1154.5 149.861,1158.1" style="fill:none;stroke:black;stroke-width:7.08px;"/>
        </g>
        <g id="BULDOGUE">
            <rect id="MENU1" serif:id="MENU" x="546.833" y="1018.7" width="236.22" height="236.22" style="fill:white;"/>
            <path d="M661.437,1179.33C663.234,1174.98 665.033,1165.4 667.356,1161.84C669.035,1159.27 673.975,1157.92 675.377,1157.95C677.688,1158.02 680.604,1161.29 683.347,1162.74C694.674,1168.71 706.316,1150.01 707.276,1139.25C707.354,1138.38 707.465,1134.44 707.382,1133.65C707.169,1131.61 697.667,1127.49 697.486,1127.46C697.104,1127.39 698.839,1113.43 683.927,1111.09C682.508,1110.86 684.193,1106.49 681.352,1096.73C680.979,1095.45 673.411,1104.33 672.694,1102.62C670.956,1098.49 666.078,1094.2 663.055,1094.29C658.676,1094.42 657.712,1099.18 657.398,1103.65C657.345,1104.42 656.881,1111.02 656.797,1113.21C656.74,1114.66 655.019,1114.82 652.658,1117.83C646.425,1125.77 647.701,1131.79 646.217,1131.82C639.403,1131.99 639.371,1138.16 637.941,1138.24C629.187,1138.69 630.959,1139.76 622.423,1142.81" style="fill:none;stroke:black;stroke-width:7.08px;"/>
        </g>
        <g id="POODLE">
            <rect id="MENU2" serif:id="MENU" x="1019.42" y="1018.7" width="236.22" height="236.22" style="fill:white;"/>
            <path d="M1154.05,1179.61C1158.41,1176.92 1152.98,1174.69 1156.05,1172.43C1159.62,1169.79 1156.07,1168.27 1156.41,1166.15C1157.03,1162.41 1158.04,1161.71 1157.6,1160.01C1157.16,1158.32 1154.19,1157.77 1153.78,1155.98C1152.88,1152.08 1147.63,1134.86 1152.19,1136.65C1173.92,1145.18 1178.77,1133.24 1179.98,1129.23C1181.28,1124.97 1162.63,1117.03 1164.12,1114.59C1165.87,1111.71 1165.57,1106.77 1161.6,1104.05C1157.49,1101.23 1157.03,1097.06 1154.38,1095.84C1151.74,1094.63 1147.12,1097.08 1145.69,1096.75C1142.5,1096.01 1141.1,1094.05 1138.83,1094.11C1136.56,1094.18 1134.56,1097.7 1132.09,1097.14C1126.18,1095.8 1129.94,1101.37 1126.82,1102.14C1125.49,1102.48 1120.9,1102.28 1122.27,1107.45C1123.23,1111.06 1114.89,1108.62 1117.75,1114.36C1119.89,1118.64 1115.04,1116.53 1114.37,1119.58C1113.67,1122.76 1116.5,1122.72 1116.06,1124.33C1115.58,1126.14 1113.41,1126.37 1113.66,1129.55C1113.89,1132.43 1116.53,1132.02 1117.32,1133.67C1117.92,1134.91 1116.31,1136.41 1116.29,1140.21C1116.28,1141.86 1117.76,1141.62 1095,1159.63" style="fill:none;stroke:black;stroke-width:7.01px;"/>
        </g>
        <g id="GOLDEN">
            <rect id="MENU3" serif:id="MENU" x="310.431" y="1018.7" width="236.22" height="236.22" style="fill:white;"/>
            <path d="M386.021,1137.94C388.686,1134.84 388.969,1134.27 389.696,1132.05C390.794,1128.68 390.733,1121.36 392.613,1117.77C394.36,1114.43 398.319,1113.07 400.98,1110.49C404.074,1107.48 407.357,1102.45 411.18,1099.75C414.988,1097.06 419.337,1094.15 423.919,1094.3C429.316,1094.47 439.3,1098.33 443.561,1100.81C452.384,1105.96 454.604,1114.22 454.916,1118.93C455.138,1122.29 465.55,1124.17 471.02,1127.37C471.202,1127.48 470.751,1134.44 470.075,1139.03C468.501,1149.69 455.646,1155.06 447.544,1154.34C446.377,1154.23 436.189,1152.62 436.984,1156.58C438.093,1162.11 439.441,1167.93 434.225,1179.33" style="fill:none;stroke:black;stroke-width:7.08px;"/>
        </g>
        <g id="CHIHUAHUA">
            <rect id="MENU4" serif:id="MENU" x="782.65" y="1018.7" width="236.22" height="236.22" style="fill:white;"/>
            <path d="M873.976,1166.92C875.056,1165.69 879.151,1161.03 879.119,1147.12C879.095,1136.64 870.708,1141.42 865.104,1129.57C862.215,1123.45 858.24,1111.53 858.24,1103.58C858.24,1097.44 860.616,1093.67 867.707,1096.79C876.82,1100.81 886.509,1114.7 888.802,1114.53C890.228,1114.42 895.307,1112.09 901.711,1111.83C907.441,1111.6 919.452,1090.76 920.745,1094.89C924.319,1106.32 918.047,1114.02 919.797,1115.38C920.023,1115.56 926.991,1119.53 928.276,1125.36C928.91,1128.23 927.665,1132.85 932.272,1133.24C936.518,1133.59 943.28,1132 943.28,1135.88C943.28,1135.99 942.479,1150.96 928.201,1155.49C923.148,1157.1 918.625,1157.2 915.876,1165.55C914.018,1171.19 912.867,1175.65 912.21,1179.27" style="fill:none;stroke:black;stroke-width:7.08px;"/>
        </g>
        <g id="ROUPAS">
            <rect id="MENU5" serif:id="MENU" x="1019.05" y="782.48" width="236.22" height="236.22" style="fill:white;"/>
            <path d="M1107.63,892.118L1094.64,892.118L1094.64,862.698L1118.59,858.071C1118.88,859.693 1119.37,861.245 1120.04,862.698C1123.05,869.317 1129.59,873.907 1137.16,873.907C1144.74,873.907 1151.28,869.317 1154.29,862.698C1154.95,861.245 1155.44,859.693 1155.74,858.071L1179.68,862.698L1179.68,892.118L1166.69,892.118L1166.69,943.11L1107.63,943.11L1107.63,892.118Z" style="fill:none;stroke:black;stroke-width:7.08px;"/>
        </g>
        <g id="BRINQUEDOS">
            <rect id="MENU6" serif:id="MENU" x="782.771" y="782.48" width="236.22" height="236.22" style="fill:white;"/>
            <g>
                <g>
                    <path d="M935.956,865.516C955.314,884.874 955.314,916.307 935.956,935.665C916.597,955.023 885.165,955.023 865.806,935.665C846.448,916.307 846.448,884.874 865.806,865.516C885.165,846.158 916.597,846.158 935.956,865.516ZM930.947,870.525C914.353,853.931 887.409,853.931 870.815,870.525C854.221,887.118 854.221,914.063 870.815,930.657C887.409,947.25 914.353,947.25 930.947,930.657C947.541,914.063 947.541,887.118 930.947,870.525Z"/>
                    <path d="M890.516,910.956C891.991,912.431 891.991,914.826 890.516,916.301C889.041,917.776 886.646,917.776 885.171,916.301C883.696,914.826 883.696,912.431 885.171,910.956C886.646,909.481 889.041,909.481 890.516,910.956ZM883.992,905.43C885.467,906.905 885.467,909.3 883.992,910.775C882.517,912.25 880.122,912.25 878.647,910.775C877.172,909.3 877.172,906.905 878.647,905.43C880.122,903.955 882.517,903.955 883.992,905.43ZM876.59,901.089C878.065,902.564 878.065,904.959 876.59,906.434C875.115,907.909 872.72,907.909 871.245,906.434C869.77,904.959 869.77,902.564 871.245,901.089C872.72,899.614 875.115,899.614 876.59,901.089ZM868.507,898.354C869.982,899.829 869.982,902.224 868.507,903.699C867.032,905.174 864.637,905.174 863.162,903.699C861.687,902.224 861.687,899.829 863.162,898.354C864.637,896.879 867.032,896.879 868.507,898.354ZM859.95,897.799C861.425,899.274 861.425,901.669 859.95,903.144C858.475,904.619 856.08,904.619 854.605,903.144C853.13,901.669 853.13,899.274 854.605,897.799C856.08,896.324 858.475,896.324 859.95,897.799ZM896.098,917.479C897.573,918.954 897.573,921.349 896.098,922.824C894.623,924.299 892.228,924.299 890.753,922.824C889.278,921.349 889.278,918.954 890.753,917.479C892.228,916.004 894.623,916.004 896.098,917.479ZM900.382,924.881C901.857,926.356 901.857,928.751 900.382,930.226C898.907,931.701 896.512,931.701 895.037,930.226C893.562,928.751 893.562,926.356 895.037,924.881C896.512,923.406 898.907,923.406 900.382,924.881ZM903.147,932.994C904.622,934.469 904.622,936.864 903.147,938.339C901.672,939.814 899.277,939.814 897.802,938.339C896.327,936.864 896.327,934.469 897.802,932.994C899.277,931.519 901.672,931.519 903.147,932.994ZM903.672,941.521C905.147,942.996 905.147,945.391 903.672,946.866C902.197,948.341 899.802,948.341 898.327,946.866C896.852,945.391 896.852,942.996 898.327,941.521C899.802,940.046 902.197,940.046 903.672,941.521Z"/>
                    <path d="M911.246,890.225C909.771,888.75 909.771,886.355 911.246,884.88C912.721,883.405 915.116,883.405 916.591,884.88C918.066,886.355 918.066,888.75 916.591,890.225C915.116,891.7 912.721,891.7 911.246,890.225ZM917.77,895.751C916.295,894.276 916.295,891.881 917.77,890.406C919.245,888.931 921.64,888.931 923.115,890.406C924.59,891.881 924.59,894.276 923.115,895.751C921.64,897.226 919.245,897.226 917.77,895.751ZM925.172,900.092C923.697,898.617 923.697,896.222 925.172,894.747C926.647,893.272 929.042,893.272 930.517,894.747C931.992,896.222 931.992,898.617 930.517,900.092C929.042,901.567 926.647,901.567 925.172,900.092ZM933.255,902.827C931.78,901.352 931.78,898.957 933.255,897.482C934.73,896.007 937.125,896.007 938.6,897.482C940.075,898.957 940.075,901.352 938.6,902.827C937.125,904.302 934.73,904.302 933.255,902.827ZM941.812,903.382C940.337,901.907 940.337,899.512 941.812,898.037C943.287,896.562 945.682,896.562 947.157,898.037C948.632,899.512 948.632,901.907 947.157,903.382C945.682,904.857 943.287,904.857 941.812,903.382ZM905.664,883.702C904.189,882.227 904.189,879.832 905.664,878.357C907.139,876.882 909.534,876.882 911.009,878.357C912.484,879.832 912.484,882.227 911.009,883.702C909.534,885.177 907.139,885.177 905.664,883.702ZM901.38,876.3C899.905,874.825 899.905,872.43 901.38,870.955C902.855,869.48 905.25,869.48 906.725,870.955C908.2,872.43 908.2,874.825 906.725,876.3C905.25,877.775 902.855,877.775 901.38,876.3ZM898.615,868.188C897.14,866.713 897.14,864.318 898.615,862.843C900.09,861.368 902.485,861.368 903.96,862.843C905.435,864.318 905.435,866.713 903.96,868.188C902.485,869.663 900.09,869.663 898.615,868.188ZM898.09,859.66C896.615,858.185 896.615,855.79 898.09,854.315C899.565,852.84 901.96,852.84 903.435,854.315C904.91,855.79 904.91,858.185 903.435,859.66C901.96,861.135 899.565,861.135 898.09,859.66Z"/>
                </g>
            </g>
        </g>
        <g id="ACESSORIOS">
            <rect id="MENU7" serif:id="MENU" x="546.49" y="782.48" width="236.22" height="236.22" style="fill:white;"/>
            <g>
                <path d="M685.455,863.194L701.997,879.736C703.639,881.378 704.53,883.635 704.473,886.01C704.417,888.385 703.417,890.683 701.695,892.4L701.692,892.402C699.97,894.118 697.666,895.112 695.286,895.165C694.758,895.176 694.235,895.141 693.724,895.062C703.966,910.992 716.21,923.867 696.798,941.64L696.805,941.648C694.363,944.081 689.599,943.276 686.175,939.851C683.376,937.052 682.332,933.364 683.378,930.781C683.61,930.21 683.943,929.693 684.383,929.251C681.937,931.669 677.252,930.929 673.917,927.594C670.596,924.272 669.856,919.62 672.247,917.175L672.367,917.056C671.696,917.718 671.046,918.042 670.24,918.264C667.725,918.957 664.428,917.919 661.904,915.395C659.421,912.912 658.381,909.684 659.013,907.192C659.22,906.38 659.592,905.634 660.161,905.03C659.556,905.599 658.811,905.971 657.999,906.177C655.506,906.81 652.279,905.769 649.796,903.286C647.272,900.762 646.234,897.465 646.926,894.951C647.148,894.144 647.472,893.495 648.134,892.824L648.058,892.9L648.016,892.943C645.571,895.335 640.918,894.595 637.597,891.273C634.262,887.938 633.522,883.254 635.939,880.808C635.498,881.247 634.98,881.581 634.409,881.812C631.827,882.858 628.138,881.815 625.339,879.016C621.915,875.591 621.11,870.828 623.543,868.385L623.551,868.393C641.324,848.98 654.198,861.224 670.129,871.467C670.049,870.955 670.014,870.433 670.026,869.904C670.078,867.525 671.072,865.221 672.789,863.498L672.791,863.496C674.507,861.774 676.806,860.774 679.181,860.717C681.556,860.661 683.813,861.551 685.455,863.194Z" style="fill:none;stroke:black;stroke-width:7.08px;stroke-linecap:butt;stroke-miterlimit:5;"/>
                <path d="M688.572,925.062L684.396,929.238" style="fill:none;stroke:black;stroke-width:7.08px;stroke-miterlimit:5;"/>
                <path d="M676.466,912.957L672.29,917.132" style="fill:none;stroke:black;stroke-width:7.08px;stroke-miterlimit:5;"/>
                <path d="M664.35,900.841L660.174,905.016" style="fill:none;stroke:black;stroke-width:7.08px;stroke-miterlimit:5;"/>
                <path d="M652.234,888.724L648.058,892.9" style="fill:none;stroke:black;stroke-width:7.08px;stroke-miterlimit:5;"/>
                <path d="M640.117,876.608L635.942,880.784" style="fill:none;stroke:black;stroke-width:7.08px;stroke-miterlimit:5;"/>
                <path d="M685.7,879.491C687.175,880.966 687.175,883.361 685.7,884.836C684.225,886.311 681.83,886.311 680.355,884.836C678.88,883.361 678.88,880.966 680.355,879.491C681.83,878.016 684.225,878.016 685.7,879.491Z"/>
            </g>
        </g>
        <g id="ALIMENTOS">
            <rect id="MENU8" serif:id="MENU" x="310.31" y="782.48" width="236.22" height="236.22" style="fill:white;"/>
            <path d="M411.845,894.786C413.042,894.233 414.923,892.632 417.069,890.753C421.082,887.238 425.643,882.548 427.744,878.828C427.682,878.534 427.506,877.719 427.363,877.258C427.021,876.161 426.641,875.054 426.348,873.928C425.298,869.894 425.19,865.725 428.061,861.16C432.077,854.772 438.634,850.92 445.207,850.925C449.849,850.929 454.667,852.722 458.823,857.253C461.809,860.509 462.892,864.57 462.842,868.737C462.834,869.371 462.789,870.083 462.721,870.819C465.382,871.352 467.957,872.285 470.147,873.59C474.299,876.063 477.124,879.765 477.883,884.201C478.597,888.368 477.601,893.699 472.325,899.59C468.781,903.548 464.286,904.499 459.315,903.994C457.644,903.824 455.909,903.471 454.207,903.228C453.453,903.12 452.718,902.677 452.103,903.036C446.046,906.572 437.115,913.743 433.689,919.995C433.314,920.68 433.523,921.596 433.557,922.559C433.64,924.953 433.972,927.539 434.037,930.012C434.176,935.328 433.027,940.161 429.642,943.654C425.016,948.429 416.904,950.954 409.739,950.073C404.302,949.406 399.529,946.866 396.672,942.77C393.424,938.112 393.16,933.41 394.315,929.027C392.963,928.871 391.61,928.633 390.338,928.279C386.419,927.189 383.142,925.116 381.098,922.114C378.478,918.268 377.16,912.164 382.039,902.846C386.704,893.936 394.24,892.489 402.025,893.352C404.611,893.639 407.199,894.213 409.53,894.579C410.306,894.7 411.521,894.769 411.845,894.786ZM414.136,901.568C408.159,903.812 394.305,894.823 388.369,906.16C378.245,925.497 402.328,921.892 405.457,922.117C403.586,925.95 398.16,932.412 402.533,938.682C406.899,944.942 419.146,944.219 424.51,938.682C429.712,933.313 424.336,922.195 427.423,916.561C431.371,909.356 441.521,900.94 448.501,896.865C453.959,893.678 462.316,900.056 467.002,894.823C477.93,882.62 463.583,875.923 454.614,877.714C454.395,874.484 457.795,866.704 453.557,862.083C447.142,855.09 438.487,858.001 434.11,864.963C430.092,871.355 437.197,876.449 434.11,882.083C430.162,889.287 418.18,900.049 414.136,901.568Z"/>
        </g>
        <g id="HIGIENE">
            <rect id="MENU9" serif:id="MENU" x="74.029" y="782.48" width="236.22" height="236.22" style="fill:white;"/>
            <g>
                <path d="M218.014,922.533L218.014,922.539L200.703,922.539M165.24,858.071L218.014,858.071L218.014,858.077" style="fill:none;stroke:black;stroke-width:7.08px;stroke-miterlimit:5;"/>
                <path d="M234.659,890.305C234.659,908.096 227.051,922.539 217.681,922.539C208.31,922.539 200.703,908.096 200.703,890.305C200.703,872.515 208.31,858.071 217.681,858.071C227.051,858.071 234.659,872.515 234.659,890.305Z" style="fill:none;stroke:black;stroke-width:7.08px;stroke-miterlimit:5;"/>
                <path d="M149.619,890.305C149.619,872.515 157.227,858.071 166.597,858.071" style="fill:none;stroke:black;stroke-width:7.08px;stroke-miterlimit:5;"/>
                <path d="M149.619,890.305L149.619,938.919" style="fill:none;stroke:black;stroke-width:7.08px;stroke-miterlimit:5;"/>
                <path d="M200.703,890.305L200.703,938.919" style="fill:none;stroke:black;stroke-width:7.08px;stroke-miterlimit:5;"/>
                <path d="M223.385,890.305C223.385,896.885 220.978,902.227 218.014,902.227C215.051,902.227 212.644,896.885 212.644,890.305C212.644,883.725 215.051,878.383 218.014,878.383C220.978,878.383 223.385,883.725 223.385,890.305Z"/>
                <path d="M223.385,890.305C223.385,896.885 220.978,902.227 218.014,902.227C215.051,902.227 212.644,896.885 212.644,890.305C212.644,883.725 215.051,878.383 218.014,878.383C220.978,878.383 223.385,883.725 223.385,890.305Z"/>
                <path d="M200.703,938.919L193.289,943.11L181.836,938.519L171.6,943.11L165.084,938.519L156.733,943.11L149.619,938.919" style="fill:none;stroke:black;stroke-width:7.08px;stroke-miterlimit:5;"/>
                <path d="M158.554,890.047C156.599,890.047 155.012,888.459 155.012,886.505C155.013,884.55 156.6,882.963 158.555,882.964C160.509,882.964 162.096,884.551 162.096,886.506C162.095,888.461 160.508,890.047 158.554,890.047ZM166.857,890.048C164.902,890.048 163.315,888.461 163.316,886.506C163.316,884.551 164.903,882.965 166.858,882.965C168.813,882.965 170.399,884.553 170.399,886.507C170.399,888.462 168.811,890.049 166.857,890.048ZM175.16,890.05C173.205,890.049 171.619,888.462 171.619,886.507C171.619,884.553 173.207,882.966 175.161,882.966C177.116,882.967 178.703,884.554 178.702,886.509C178.702,888.463 177.115,890.05 175.16,890.05ZM183.463,890.051C181.509,890.051 179.922,888.464 179.922,886.509C179.923,884.554 181.51,882.968 183.465,882.968C185.419,882.968 187.006,884.555 187.006,886.51C187.005,888.465 185.418,890.052 183.463,890.051ZM191.767,890.053C189.812,890.052 188.225,888.465 188.225,886.51C188.226,884.556 189.813,882.969 191.768,882.969C193.723,882.97 195.309,884.557 195.309,886.512C195.309,888.466 193.721,890.053 191.767,890.053Z"/>
                <path d="M217.681,922.539L200.703,922.539L200.703,890.305C200.703,908.096 208.31,922.539 217.681,922.539Z"/>
                <path d="M217.681,922.539L200.703,922.539L200.703,890.305C200.703,908.096 208.31,922.539 217.681,922.539Z"/>
            </g>
        </g>
        <g id="ESTRELA">
            <rect id="MENU10" serif:id="MENU" x="1019.11" y="546.26" width="236.22" height="236.22" style="fill:white;"/>
            <path d="M1132.39,625.519C1133.07,623.332 1135.02,621.85 1137.22,621.85C1139.42,621.85 1141.37,623.332 1142.06,625.519C1144.44,633.206 1147.13,641.837 1148.61,646.607C1149.29,648.795 1151.24,650.276 1153.44,650.276C1158.24,650.276 1166.93,650.276 1174.66,650.276C1176.86,650.276 1178.81,651.757 1179.49,653.945C1180.17,656.133 1179.43,658.53 1177.65,659.882C1171.39,664.632 1164.37,669.967 1160.48,672.915C1158.7,674.267 1157.96,676.664 1158.64,678.851C1160.12,683.621 1162.8,692.253 1165.19,699.939C1165.87,702.127 1165.13,704.524 1163.35,705.876C1161.57,707.228 1159.15,707.228 1157.37,705.876C1151.12,701.125 1144.09,695.791 1140.21,692.843C1138.43,691.491 1136.02,691.491 1134.24,692.843C1130.35,695.791 1123.33,701.125 1117.07,705.876C1115.29,707.228 1112.88,707.228 1111.1,705.876C1109.32,704.524 1108.57,702.127 1109.25,699.939C1111.64,692.253 1114.33,683.621 1115.81,678.851C1116.49,676.664 1115.74,674.267 1113.96,672.915C1110.08,669.967 1103.05,664.632 1096.8,659.882C1095.02,658.53 1094.27,656.133 1094.95,653.945C1095.63,651.757 1097.58,650.276 1099.78,650.276C1107.52,650.276 1116.2,650.276 1121,650.276C1123.2,650.276 1125.15,648.795 1125.83,646.607C1127.32,641.837 1130,633.206 1132.39,625.519Z" style="fill:none;stroke:black;stroke-width:7.08px;stroke-miterlimit:1.5;"/>
        </g>
        <g id="CARINHA">
            <rect id="MENU11" serif:id="MENU" x="782.872" y="546.26" width="236.22" height="236.22" style="fill:white;"/>
            <g>
                <path d="M900.982,620.878C924.449,620.878 943.502,639.931 943.502,663.398C943.502,686.865 924.449,705.917 900.982,705.917C877.515,705.917 858.462,686.865 858.462,663.398C858.462,639.931 877.515,620.878 900.982,620.878ZM900.982,627.961C881.424,627.961 865.545,643.84 865.545,663.398C865.545,682.956 881.424,698.834 900.982,698.834C920.54,698.834 936.418,682.956 936.418,663.398C936.418,643.84 920.54,627.961 900.982,627.961Z"/>
                <path d="M918.889,671.546C917.046,674.904 910.815,683.07 900.982,683.357C891.149,683.07 884.918,674.904 883.075,671.546" style="fill:none;stroke:black;stroke-width:7.08px;stroke-miterlimit:1.5;"/>
                <circle cx="916.234" cy="649.345" r="5.906"/>
                <path d="M916.234,643.439C919.494,643.439 922.14,646.085 922.14,649.345C922.14,652.604 919.494,655.25 916.234,655.25C912.975,655.25 910.329,652.604 910.329,649.345C910.329,646.085 912.975,643.439 916.234,643.439ZM916.234,650.522C916.885,650.522 917.412,649.995 917.412,649.345C917.412,648.694 916.885,648.167 916.234,648.167C915.584,648.167 915.057,648.694 915.057,649.345C915.057,649.995 915.584,650.522 916.234,650.522Z"/>
                <circle cx="885.729" cy="649.345" r="5.906"/>
                <path d="M885.729,643.439C888.989,643.439 891.635,646.085 891.635,649.345C891.635,652.604 888.989,655.25 885.729,655.25C882.47,655.25 879.824,652.604 879.824,649.345C879.824,646.085 882.47,643.439 885.729,643.439ZM885.729,650.522C886.379,650.522 886.907,649.995 886.907,649.345C886.907,648.694 886.379,648.167 885.729,648.167C885.079,648.167 884.551,648.694 884.551,649.345C884.551,649.995 885.079,650.522 885.729,650.522Z"/>
            </g>
        </g>
        <g id="CLIP">
            <rect id="MENU12" serif:id="MENU" x="546.641" y="546.26" width="236.22" height="236.22" style="fill:white;"/>
            <path d="M699.108,650.901L673.076,695.989C669.97,701.369 664.912,705.328 659.014,706.996C653.117,708.664 646.864,707.903 641.63,704.882C641.175,704.619 640.73,704.34 640.297,704.047C635.755,700.976 632.48,696.308 631.107,690.884C629.603,684.943 630.503,678.583 633.609,673.202L656.853,632.942L633.609,673.202L656.853,632.942C659.96,627.562 663.628,623.054 669.525,621.386C673.635,620.224 678.498,621.201 681.432,622.849C690.939,628.187 690.716,636.958 687.618,642.325C683.204,649.97 677.691,659.512 672.362,668.736C668.564,675.309 664.86,681.721 661.715,687.169C658.726,692.346 652.993,694.633 648.91,692.275L648.908,692.274C646.947,691.142 645.637,689.069 645.266,686.51C644.895,683.952 645.492,681.118 646.928,678.631L669.02,640.368" style="fill:none;stroke:black;stroke-width:7.08px;stroke-linejoin:miter;stroke-miterlimit:1.5;"/>
        </g>
        <g id="ENVIAR">
            <rect id="MENU13" serif:id="MENU" x="310.41" y="546.26" width="236.22" height="236.22" style="fill:white;"/>
            <path d="M471.04,664.37C471.04,678.543 400.622,706.89 389.1,706.89C377.577,706.89 401.903,664.37 401.903,664.37C401.903,664.37 377.577,621.85 389.1,621.85C400.622,621.85 471.04,650.197 471.04,664.37ZM393.953,629.849C394.308,631.323 394.758,632.966 395.274,634.366C399.617,646.141 408.051,660.853 408.051,660.853L410.063,664.37L408.051,667.888C408.051,667.888 399.617,682.6 395.274,694.374C394.758,695.775 394.308,697.418 393.953,698.892C395.874,698.368 398.171,697.648 400.744,696.803C415.286,692.03 437.236,682.744 451.805,673.773C455.901,671.251 459.384,668.786 461.821,666.449C462.455,665.84 463.153,664.956 463.593,664.37C463.153,663.784 462.455,662.9 461.821,662.291C459.384,659.954 455.901,657.489 451.805,654.967C437.236,645.996 415.286,636.71 400.744,631.937C398.171,631.092 395.874,630.372 393.953,629.849Z"/>
            <path d="M466.091,664.37L401.903,664.37" style="fill:none;stroke:black;stroke-width:7.08px;stroke-linecap:butt;stroke-linejoin:miter;stroke-miterlimit:1.5;"/>
        </g>
        <g id="CORACAO">
            <rect id="MENU14" serif:id="MENU" x="74.18" y="546.26" width="236.22" height="236.22" style="fill:white;"/>
            <path d="M192.29,636.059C192.865,636.059 193.398,635.706 193.701,635.125C202.505,618.321 217.446,619.611 226.171,628.185C252.544,654.102 211.462,692.99 197.012,705.224C194.123,707.669 190.457,707.669 187.569,705.224C173.118,692.99 132.036,654.102 158.409,628.185C167.135,619.611 182.075,618.321 190.879,635.125C191.182,635.706 191.716,636.059 192.29,636.059ZM192.29,643.142L189.764,642.758L187.573,641.716L185.843,640.211L184.602,638.408C182.124,633.679 179.148,630.79 175.845,629.648C171.372,628.101 166.699,629.97 163.374,633.238C155.203,641.268 155.768,650.96 159.653,660.241C166.719,677.123 184.001,692.923 192.145,699.818C192.234,699.893 192.346,699.893 192.435,699.818C200.579,692.923 217.862,677.123 224.928,660.241C228.812,650.96 229.378,641.268 221.206,633.238C217.881,629.97 213.209,628.101 208.736,629.648C205.432,630.79 202.456,633.679 199.98,638.404L198.737,640.211L197.007,641.716L194.816,642.758L192.29,643.142Z"/>
        </g>
        <g id="SUBIR">
            <rect id="MENU15" serif:id="MENU" x="1019.07" y="310.039" width="236.22" height="236.22" style="fill:white;"/>
            <path id="MENOS" d="M1137.18,413.117L1107.12,443.183" style="fill:none;stroke:black;stroke-width:7.08px;stroke-miterlimit:1.5;"/>
            <path id="MENOS1" serif:id="MENOS" d="M1137.18,413.117L1167.25,443.183" style="fill:none;stroke:black;stroke-width:7.08px;stroke-miterlimit:1.5;"/>
        </g>
        <g id="DESCER">
            <rect id="MENU16" serif:id="MENU" x="782.841" y="310.039" width="236.22" height="236.22" style="fill:white;"/>
            <path id="MENOS2" serif:id="MENOS" d="M900.952,443.183L870.886,413.117" style="fill:none;stroke:black;stroke-width:7.08px;stroke-miterlimit:1.5;"/>
            <path id="MENOS3" serif:id="MENOS" d="M900.952,443.183L931.018,413.117" style="fill:none;stroke:black;stroke-width:7.08px;stroke-miterlimit:1.5;"/>
        </g>
        <g id="FECHAR">
            <rect id="MENU17" serif:id="MENU" x="546.611" y="310.039" width="236.22" height="236.22" style="fill:white;"/>
            <path id="MENOS4" serif:id="MENOS" d="M694.787,458.216L634.655,398.084" style="fill:none;stroke:black;stroke-width:7.08px;stroke-miterlimit:1.5;"/>
            <path id="MENOS5" serif:id="MENOS" d="M634.655,458.216L694.787,398.084" style="fill:none;stroke:black;stroke-width:7.08px;stroke-miterlimit:1.5;"/>
        </g>
        <g id="MAIS">
            <rect id="MENU18" serif:id="MENU" x="310.4" y="310.039" width="236.22" height="236.22" style="fill:white;"/>
            <path id="MENOS6" serif:id="MENOS" d="M385.992,428.464L471.029,427.835" style="fill:none;stroke:black;stroke-width:7.08px;stroke-miterlimit:1.5;"/>
            <path id="MENOS7" serif:id="MENOS" d="M428.196,385.631L428.825,470.668" style="fill:none;stroke:black;stroke-width:7.08px;stroke-miterlimit:1.5;"/>
        </g>
        <g id="MENOS8" serif:id="MENOS">
            <rect id="MENU19" serif:id="MENU" x="74.17" y="310.039" width="236.22" height="236.22" style="fill:white;"/>
            <path id="MENOS9" serif:id="MENOS" d="M234.8,428.15L149.76,428.15" style="fill:none;stroke:black;stroke-width:7.08px;stroke-miterlimit:1.5;"/>
        </g>
        <g id="CHAT">
            <rect id="MENU20" serif:id="MENU" x="1019.06" y="73.819" width="236.22" height="236.22" style="fill:white;"/>
            <path d="M1163.91,222.701L1163.9,222.696C1163.54,221.968 1163.13,221.262 1162.68,220.582C1161.97,219.518 1161.15,218.519 1160.23,217.601C1156.56,213.927 1151.57,211.862 1146.38,211.862L1108.42,211.862C1100.81,211.862 1094.65,205.7 1094.65,198.099L1094.65,163.173C1094.65,155.572 1100.81,149.41 1108.42,149.41L1165.4,149.41C1173.3,149.41 1179.69,155.806 1179.69,163.696L1179.69,214.516L1179.69,228.733C1179.69,230.706 1178.67,232.625 1176.84,233.683C1174.11,235.259 1170.62,234.324 1169.04,231.594L1163.91,222.701ZM1170.13,219.322L1172.61,223.608L1172.61,214.516L1172.61,163.696C1172.61,159.718 1169.38,156.493 1165.4,156.493L1108.42,156.493C1104.73,156.493 1101.74,159.484 1101.74,163.173L1101.74,198.099C1101.74,201.788 1104.73,204.779 1108.42,204.779L1146.38,204.779C1153.45,204.779 1160.24,207.59 1165.24,212.593C1166.49,213.842 1167.6,215.203 1168.57,216.651C1169.14,217.512 1169.66,218.404 1170.13,219.322Z"/>
            <path d="M1117.36,172.118L1157.25,172.118" style="fill:none;stroke:black;stroke-width:7.08px;stroke-miterlimit:50;"/>
            <path d="M1137.17,189.154L1157.25,189.154" style="fill:none;stroke:black;stroke-width:7.08px;stroke-miterlimit:50;"/>
        </g>
        <g id="SACOLA">
            <rect id="MENU21" serif:id="MENU" x="782.841" y="73.819" width="236.22" height="236.22" style="fill:white;"/>
            <g>
                <path d="M928.244,169.594C932.817,169.594 937.148,171.507 940.04,174.804C942.932,178.102 944.078,182.434 943.163,186.605L935.109,223.291C933.66,229.889 927.424,234.627 920.19,234.627L880.563,234.627C873.167,234.627 866.84,229.68 865.564,222.899L858.66,186.212C857.884,182.088 859.107,177.856 862,174.65C864.893,171.445 869.161,169.594 873.659,169.594L928.244,169.594ZM928.244,176.677L873.659,176.677C871.198,176.677 868.842,177.642 867.258,179.396C865.877,180.926 865.251,182.934 865.622,184.902L872.525,221.589C873.196,225.152 876.677,227.544 880.563,227.544L920.19,227.544C923.999,227.544 927.427,225.246 928.19,221.772L936.244,185.086C936.68,183.099 936.092,181.046 934.714,179.475C933.134,177.672 930.744,176.677 928.244,176.677Z"/>
                <path d="M882.938,170.763C882.938,158.879 891.01,149.231 900.952,149.231C910.893,149.231 918.965,158.879 918.965,170.763" style="fill:none;stroke:black;stroke-width:7.08px;stroke-linejoin:miter;stroke-miterlimit:50;"/>
                <path d="M882.938,173.094L882.938,184.905" style="fill:none;stroke:black;stroke-width:7.08px;stroke-linejoin:miter;stroke-miterlimit:50;"/>
                <path d="M918.965,173.094L918.965,184.905" style="fill:none;stroke:black;stroke-width:7.08px;stroke-linejoin:miter;stroke-miterlimit:50;"/>
            </g>
        </g>
        <g id="CONTA">
            <rect id="MENU22" serif:id="MENU" x="546.611" y="73.819" width="236.22" height="236.22" style="fill:white;"/>
            <g id="conta">
                <path d="M664.721,149.231C678.41,149.231 689.524,160.345 689.524,174.034C689.524,187.724 678.41,198.838 664.721,198.838C651.032,198.838 639.918,187.724 639.918,174.034C639.918,160.345 651.032,149.231 664.721,149.231ZM664.721,156.315C654.941,156.315 647.001,164.255 647.001,174.034C647.001,183.814 654.941,191.754 664.721,191.754C674.501,191.754 682.441,183.814 682.441,174.034C682.441,164.255 674.501,156.315 664.721,156.315Z"/>
                <path d="M622.201,234.627C624.522,212.534 642.687,195.312 664.721,195.312C686.755,195.312 704.92,212.534 707.241,234.627" style="fill:none;stroke:black;stroke-width:7.08px;stroke-linejoin:miter;stroke-miterlimit:50;"/>
            </g>
        </g>
        <g id="PESQUISA">
            <rect id="MENU23" serif:id="MENU" x="310.39" y="73.819" width="236.22" height="236.22" style="fill:white;"/>
            <g id="pesquisar">
                <path d="M419.318,149.278C437.739,149.278 452.694,164.23 452.694,182.648C452.694,201.065 437.739,216.018 419.318,216.018C400.897,216.018 385.941,201.065 385.941,182.648C385.941,164.23 400.897,149.278 419.318,149.278ZM419.318,156.361C404.807,156.361 393.025,168.139 393.025,182.648C393.025,197.156 404.807,208.934 419.318,208.934C433.829,208.934 445.611,197.156 445.611,182.648C445.611,168.139 433.829,156.361 419.318,156.361Z"/>
                <path d="M442.788,206.309L471.06,234.581" style="fill:none;stroke:black;stroke-width:7.08px;stroke-linejoin:miter;stroke-miterlimit:50;"/>
            </g>
        </g>
        <g id="MENU24" serif:id="MENU">
            <rect id="MENU25" serif:id="MENU" x="74.17" y="73.819" width="236.22" height="236.22" style="fill:white;"/>
            <path id="MENOS10" serif:id="MENOS" d="M234.8,149.278L149.76,149.278" style="fill:none;stroke:black;stroke-width:7.08px;stroke-miterlimit:1.5;"/>
            <path id="MENOS11" serif:id="MENOS" d="M234.8,191.929L149.76,191.929" style="fill:none;stroke:black;stroke-width:7.08px;stroke-miterlimit:1.5;"/>
            <path id="MENOS12" serif:id="MENOS" d="M234.8,234.581L149.76,234.581" style="fill:none;stroke:black;stroke-width:7.08px;stroke-miterlimit:1.5;"/>
        </g>
    </g>
</svg>
