<?xml version="1.0" encoding="UTF-8" standalone="no"?>
<!DOCTYPE svg PUBLIC "-//W3C//DTD SVG 1.1//EN" "http://www.w3.org/Graphics/SVG/1.1/DTD/svg11.dtd">
<svg width="100%" height="100%" viewBox="0 0 237 237" version="1.1" xmlns="http://www.w3.org/2000/svg" xmlns:xlink="http://www.w3.org/1999/xlink" xml:space="preserve" xmlns:serif="http://www.serif.com/" style="fill-rule:evenodd;clip-rule:evenodd;stroke-linejoin:round;stroke-miterlimit:2;">
    <rect id="icon_4" x="0.032" y="0" width="236.22" height="236.22" style="fill:white;"/>
    <path id="naturais" d="M147.151,157.429L152.807,165.708L149.53,167.952L143.873,159.673L140.842,161.748L139.097,159.197L148.467,152.781L150.213,155.333L147.151,157.429ZM149.603,84.891L154.074,79.26C154.496,78.729 154.974,78.161 155.511,77.551L155.866,77.062C155.031,77.714 154.471,78.179 154.142,78.426L147.724,83.397L144.817,81.086L148.084,73.726C148.162,73.536 148.511,72.866 149.091,71.674C147.841,73.299 147.079,74.329 146.76,74.73L142.913,79.572L140.2,77.414L148.36,67.141L152.992,70.825L149.973,77.524C149.915,77.666 149.774,77.934 149.552,78.329C149.329,78.724 149.146,79.021 149.033,79.242C149.451,78.864 149.94,78.42 150.527,77.918L156.251,73.417L160.812,77.044L152.654,87.317L149.603,84.891ZM69.137,120.455L59.111,120.516L59.058,116.541L69.084,116.482L69.034,112.811L72.127,112.79L72.279,124.147L69.186,124.165L69.137,120.455ZM60.042,129.01L72.851,126.174L73.704,130.036L60.893,132.871L60.042,129.01ZM83.837,158.35C82.866,159.239 81.803,159.825 80.654,160.108C79.504,160.391 78.37,160.35 77.258,159.987C76.144,159.626 75.164,158.98 74.31,158.044C73.479,157.137 72.927,156.122 72.659,155.001C72.392,153.878 72.438,152.768 72.803,151.674C73.172,150.58 73.825,149.602 74.764,148.742C75.752,147.84 76.828,147.239 77.999,146.936C79.172,146.634 80.318,146.667 81.438,147.031C82.56,147.393 83.561,148.055 84.443,149.02C85.29,149.947 85.843,150.962 86.099,152.072C86.357,153.181 86.285,154.283 85.887,155.379C85.489,156.476 84.806,157.464 83.837,158.35ZM80.921,155.328C81.717,154.601 82.205,153.876 82.383,153.149C82.562,152.423 82.411,151.796 81.925,151.265C81.394,150.687 80.759,150.436 80.024,150.515C79.285,150.591 78.516,151 77.709,151.738C76.924,152.457 76.455,153.181 76.309,153.903C76.163,154.629 76.34,155.266 76.848,155.819C77.156,156.158 77.532,156.37 77.976,156.458C78.421,156.548 78.896,156.498 79.401,156.308C79.906,156.12 80.411,155.793 80.921,155.328ZM120.776,177.043L116.148,170.771C115.782,170.276 115.485,169.833 115.234,169.431C115.251,170.077 115.271,170.802 115.269,171.607L115.266,177.116L111.61,177.165L111.619,164.044L115.357,163.993L119.788,169.955L119.991,170.236L120.226,170.57C120.307,170.685 120.383,170.796 120.451,170.904L120.63,171.194C120.61,170.928 120.591,170.466 120.591,169.807L120.597,163.924L124.251,163.874L124.242,176.995L120.776,177.043ZM88.936,81.994C88.445,83.04 87.7,84.064 86.696,85.07C85.71,86.059 84.671,86.724 83.577,87.066C82.486,87.405 81.401,87.418 80.326,87.098C79.252,86.783 78.259,86.169 77.347,85.26C76.367,84.283 75.704,83.2 75.363,82.017C75.018,80.83 75.025,79.641 75.38,78.455C75.732,77.265 76.409,76.167 77.414,75.161C78.217,74.358 79.088,73.677 80.031,73.12L82.621,75.698C82.208,75.802 81.777,75.992 81.334,76.264C80.892,76.538 80.488,76.857 80.121,77.224C79.362,77.985 78.983,78.803 78.982,79.68C78.98,80.551 79.353,81.358 80.101,82.105C80.844,82.846 81.648,83.209 82.513,83.198C83.382,83.187 84.18,82.815 84.912,82.081C85.592,81.4 86.099,80.546 86.442,79.509L88.936,81.994ZM176.773,122L174.309,122.318L173.896,126.21L176.235,127.089L175.786,131.336L163.216,125.444L163.733,120.563L177.226,117.731L176.773,122ZM166.299,123.386C166.434,123.504 166.669,123.57 166.994,123.68C167.321,123.788 168.714,124.31 171.172,125.243L171.437,122.747L167.792,123.276C167.257,123.347 166.757,123.384 166.299,123.386ZM138.589,173.422L137.293,171.301L133.566,172.515L133.725,175.007L129.661,176.329L129.893,162.456L134.559,160.937L142.67,172.091L138.589,173.422ZM133.033,164.43C132.982,164.601 133.017,164.843 133.049,165.184C133.086,165.525 133.179,167.009 133.334,169.635L135.723,168.855L133.745,165.748C133.46,165.288 133.223,164.848 133.033,164.43ZM168.362,95.801C169.187,95.521 169.981,95.499 170.744,95.733C171.504,95.967 172.17,96.432 172.742,97.124C173.31,97.82 173.787,98.728 174.165,99.849C174.605,101.147 174.791,102.412 174.716,103.639L171.311,104.795C171.513,104.145 171.632,103.466 171.652,102.757C171.672,102.047 171.592,101.421 171.407,100.876C171.269,100.467 171.086,100.174 170.864,99.998C170.639,99.825 170.387,99.785 170.103,99.882C169.903,99.949 169.74,100.066 169.627,100.228C169.512,100.395 169.428,100.614 169.373,100.886C169.317,101.16 169.276,101.645 169.255,102.344C169.163,104.605 168.261,106.025 166.545,106.606C165.343,107.014 164.228,106.883 163.2,106.214C162.172,105.546 161.396,104.444 160.876,102.905C160.73,102.472 160.609,102.067 160.523,101.691C160.432,101.317 160.364,100.972 160.313,100.654C160.268,100.34 160.224,99.891 160.186,99.303L163.346,98.231C163.136,99.471 163.198,100.594 163.542,101.605C163.684,102.024 163.872,102.33 164.115,102.532C164.36,102.733 164.615,102.788 164.887,102.695C165.143,102.609 165.325,102.433 165.428,102.171C165.528,101.908 165.605,101.404 165.654,100.659C165.736,99.197 165.999,98.092 166.436,97.347C166.87,96.604 167.513,96.087 168.362,95.801ZM176.628,112.774L163.613,114.421L163.123,110.495L176.138,108.85L176.628,112.774ZM162.464,147.365C164.087,148.703 164.988,150.069 165.166,151.459C165.342,152.85 164.794,154.316 163.521,155.857C162.333,157.298 161.038,158.066 159.634,158.163C158.232,158.258 156.735,157.652 155.15,156.347L149.594,151.769L152.125,148.705L157.794,153.376C158.442,153.911 159.039,154.201 159.592,154.249C160.143,154.292 160.604,154.091 160.978,153.637C161.354,153.183 161.477,152.7 161.343,152.189C161.21,151.678 160.821,151.159 160.176,150.63L154.436,145.899L156.965,142.835L162.464,147.365ZM93.331,167.545C92.873,168.284 92.274,168.805 91.538,169.109C90.801,169.413 89.99,169.476 89.11,169.304C88.23,169.129 87.286,168.731 86.28,168.107C85.117,167.384 84.169,166.526 83.448,165.529L85.342,162.472C85.595,163.104 85.937,163.701 86.371,164.264C86.808,164.822 87.268,165.257 87.755,165.56C88.122,165.786 88.451,165.898 88.734,165.891C89.017,165.883 89.236,165.755 89.394,165.5C89.506,165.321 89.555,165.125 89.539,164.928C89.525,164.727 89.45,164.504 89.318,164.256C89.188,164.012 88.911,163.61 88.482,163.058C87.116,161.254 86.91,159.582 87.865,158.041C88.531,156.964 89.475,156.356 90.695,156.217C91.911,156.08 93.211,156.438 94.591,157.294C94.978,157.537 95.327,157.775 95.633,158.008C95.941,158.242 96.214,158.464 96.453,158.676C96.689,158.89 97.011,159.21 97.412,159.639L95.654,162.478C95.029,161.384 94.268,160.558 93.36,159.995C92.986,159.763 92.643,159.644 92.327,159.644C92.013,159.642 91.78,159.763 91.628,160.007C91.485,160.239 91.458,160.49 91.546,160.759C91.635,161.022 91.896,161.461 92.331,162.069C93.198,163.25 93.697,164.271 93.834,165.123C93.972,165.974 93.804,166.781 93.331,167.545ZM172.905,139.488L169.917,139.295C169.331,139.251 168.836,139.309 168.426,139.461C168.018,139.62 167.743,139.859 167.606,140.184L167.546,140.328L171.794,142.118L170.257,145.762L158.168,140.67L160.208,135.833C160.921,134.142 161.723,133.009 162.617,132.437C163.512,131.863 164.511,131.809 165.619,132.278C166.452,132.627 167.049,133.154 167.412,133.859C167.779,134.567 167.889,135.437 167.77,136.477C168.159,136.037 168.594,135.72 169.092,135.53C169.589,135.336 170.246,135.252 171.055,135.28L174.634,135.382L172.905,139.488ZM164.502,136.361C164.096,136.191 163.726,136.182 163.385,136.33C163.046,136.474 162.764,136.813 162.541,137.339L162.225,138.089L164.988,139.251L165.267,138.596C165.473,138.104 165.499,137.657 165.351,137.244C165.199,136.831 164.916,136.536 164.502,136.361ZM112.405,72.682L106.693,67.297C106.242,66.874 105.866,66.486 105.548,66.134C105.683,66.767 105.835,67.476 105.981,68.268L106.987,73.684L103.394,74.347L100.996,61.447L104.67,60.77L110.133,65.88L110.383,66.125C110.48,66.218 110.58,66.313 110.677,66.412C110.779,66.512 110.874,66.609 110.962,66.703C111.048,66.799 111.121,66.886 111.19,66.959C111.123,66.698 111.018,66.247 110.898,65.599L109.824,59.818L113.418,59.154L115.815,72.054L112.405,72.682ZM98.577,69.099C99.209,70.255 99.528,71.424 99.532,72.608C99.534,73.793 99.227,74.887 98.61,75.88C97.997,76.877 97.135,77.677 96.026,78.287C94.947,78.88 93.832,79.174 92.678,79.171C91.526,79.167 90.457,78.858 89.481,78.245C88.506,77.63 87.709,76.764 87.096,75.643C86.453,74.473 86.126,73.282 86.108,72.074C86.093,70.865 86.395,69.759 87.014,68.756C87.631,67.751 88.513,66.933 89.656,66.305C90.757,65.701 91.876,65.402 93.012,65.417C94.151,65.429 95.204,65.758 96.176,66.404C97.147,67.051 97.945,67.949 98.577,69.099ZM94.951,71.219C94.432,70.275 93.845,69.627 93.18,69.284C92.519,68.939 91.872,68.937 91.242,69.282C90.551,69.663 90.16,70.22 90.063,70.954C89.964,71.688 90.18,72.533 90.704,73.491C91.217,74.425 91.809,75.051 92.477,75.368C93.145,75.677 93.808,75.657 94.465,75.296C94.867,75.077 95.161,74.761 95.353,74.349C95.545,73.938 95.608,73.463 95.543,72.93C95.48,72.393 95.281,71.824 94.951,71.219ZM130.453,73.99L135.071,61.711L142.716,64.589L141.627,67.485L137.683,65.999L137.011,67.788L140.713,69.183L139.623,72.075L135.922,70.682L135.242,72.488L139.469,74.08L138.379,76.974L130.453,73.99ZM60.657,104.409L63.14,104.518L64.216,100.751L62.062,99.489L63.232,95.379L74.607,103.332L73.26,108.051L59.48,108.534L60.657,104.409ZM71.215,104.831C71.103,104.691 70.884,104.586 70.583,104.422C70.278,104.262 68.994,103.508 66.734,102.169L66.044,104.583L69.725,104.684C70.265,104.706 70.764,104.755 71.215,104.831ZM126.126,62.969L125.012,72.935L121.063,72.497L122.179,62.533L118.528,62.13L118.872,59.055L130.159,60.307L129.816,63.378L126.126,62.969ZM65.684,145.395L63.783,141.385L73.82,131.94L75.644,135.783L69.204,141.053C68.686,141.475 68.279,141.765 68.017,141.959C68.421,141.86 68.922,141.731 69.53,141.606L77.614,139.934L79.381,143.657L65.684,145.395ZM139.99,62.261L137.413,61.292L141.01,59.508L144.076,60.664L139.99,62.261ZM122.105,137.774C119.038,138.254 114.669,138.356 111.504,137.927C111.274,140.929 111.203,144.285 111.248,148.147L107.215,148.198C107.164,143.995 107.253,140.337 107.529,137.061C104.962,135.7 100.783,130.591 98.667,126.926C96.015,122.332 97.029,116.786 97.029,116.786C97.029,116.786 102.342,118.681 104.993,123.275C106.167,125.305 107.478,128.067 108.413,130.612C110.54,119.935 107.115,124.542 102.26,113.966C100.049,109.146 101.577,103.716 101.577,103.716C101.577,103.716 106.689,106.098 108.902,110.919C110.086,113.501 111.373,117.165 112.008,120.156C115.642,113.017 111.7,113.937 110.298,105.224C109.545,100.57 112.142,96.282 112.142,96.282C112.142,96.282 115.954,99.538 116.704,104.19C117.066,106.427 117.288,109.431 117.21,111.984C121.505,106.244 118.554,107.18 119.436,100.228C119.883,96.686 122.686,94.123 122.686,94.123C122.686,94.123 124.763,97.301 124.314,100.845C124.198,101.775 124.002,102.863 123.752,103.958C123.752,103.958 128.797,96.96 131.085,95.636C134.579,93.611 139.435,95.12 139.435,95.12C139.435,95.12 138.291,99.054 135.075,101.176C131.601,103.471 126.818,106.581 126.818,106.581C128.182,106.186 129.6,105.87 130.769,105.688C134.289,105.138 137.525,107.117 137.525,107.117C137.525,107.117 135.049,109.987 131.527,110.539C123.968,111.724 125.098,108.11 120.228,114.662C125.647,112.779 129.949,112.862 135.429,114.733C135.429,114.733 132.349,118.303 127.97,118.987C119.684,120.284 118.285,116.031 114.953,123.318C121.58,121.089 128.74,121.562 135.042,123.545C135.042,123.545 131.143,127.418 125.907,128.247C116.765,129.695 115.05,125.513 112.165,132.701L112.101,132.864L112.142,132.849C118.393,130.529 124.718,130.534 131.03,132.685C131.03,132.685 127.346,136.956 122.105,137.774Z"/>
</svg>
