<?xml version="1.0" encoding="UTF-8" standalone="no"?>
<!DOCTYPE svg PUBLIC "-//W3C//DTD SVG 1.1//EN" "http://www.w3.org/Graphics/SVG/1.1/DTD/svg11.dtd">
<svg width="100%" height="100%" viewBox="0 0 238 237" version="1.1" xmlns="http://www.w3.org/2000/svg" xmlns:xlink="http://www.w3.org/1999/xlink" xml:space="preserve" xmlns:serif="http://www.serif.com/" style="fill-rule:evenodd;clip-rule:evenodd;stroke-linejoin:round;stroke-miterlimit:2;">
    <rect id="icon_2" x="0.952" y="0" width="236.22" height="236.22" style="fill:white;"/>
    <path id="seco" d="M131.373,73.99L135.99,61.711L143.636,64.589L142.547,67.485L138.603,65.999L137.931,67.788L141.632,69.183L140.542,72.075L136.841,70.682L136.162,72.488L140.389,74.08L139.299,76.974L131.373,73.99ZM140.91,62.261L138.333,61.292L141.93,59.508L144.995,60.664L140.91,62.261ZM150.523,84.891L154.994,79.26C155.416,78.729 155.894,78.161 156.431,77.551L156.785,77.062C155.951,77.714 155.39,78.179 155.062,78.426L148.644,83.397L145.737,81.086L149.004,73.726C149.082,73.536 149.431,72.866 150.011,71.674C148.76,73.299 147.999,74.329 147.679,74.73L143.833,79.572L141.12,77.414L149.279,67.141L153.911,70.825L150.893,77.524C150.835,77.666 150.694,77.934 150.472,78.329C150.249,78.724 150.066,79.021 149.953,79.242C150.371,78.864 150.86,78.42 151.446,77.918L157.171,73.417L161.732,77.044L153.574,87.317L150.523,84.891ZM139.509,173.422L138.213,171.301L134.486,172.515L134.645,175.007L130.58,176.329L130.812,162.456L135.479,160.937L143.59,172.091L139.509,173.422ZM133.953,164.43C133.901,164.601 133.936,164.843 133.969,165.184C134.006,165.525 134.099,167.009 134.254,169.635L136.642,168.855L134.665,165.748C134.38,165.288 134.142,164.848 133.953,164.43ZM94.621,121.685C94.759,119.446 95.6,115.004 97.508,111.507C103.777,100.013 114.104,99.083 115.971,98.635C117.511,98.266 116.956,96.061 117.07,94.692C117.091,94.434 117.286,92.09 119.435,92.485C121.843,92.927 120.644,96.841 121.338,98.162C121.75,98.946 127.238,98.96 132.155,102.302C132.69,102.665 135.746,104.742 138.154,107.715C142.946,113.629 143.559,121.568 143.49,121.686C143.455,121.747 142.585,121.83 142.409,121.753C142.301,121.706 142.332,121.525 142.255,121.436C139.96,118.776 134.554,117.235 130.412,121.306C129.575,122.128 129.31,122.74 127.702,121.52C123.103,118.028 115.608,117.642 110.413,121.523C108.787,122.738 108.54,122.133 107.7,121.301C103.758,117.397 98.339,118.707 96.333,121.029C95.803,121.642 95.849,121.839 95.034,121.788C94.893,121.779 94.763,121.694 94.621,121.685ZM60.962,129.01L73.77,126.174L74.623,130.036L61.813,132.871L60.962,129.01ZM163.384,147.365C165.007,148.703 165.907,150.069 166.086,151.459C166.262,152.85 165.714,154.316 164.441,155.857C163.252,157.298 161.958,158.066 160.553,158.163C159.151,158.258 157.654,157.652 156.07,156.347L150.514,151.769L153.044,148.705L158.713,153.376C159.361,153.911 159.958,154.201 160.512,154.249C161.063,154.292 161.524,154.091 161.898,153.637C162.274,153.183 162.396,152.7 162.263,152.189C162.13,151.678 161.741,151.159 161.096,150.63L155.355,145.899L157.884,142.835L163.384,147.365ZM66.604,145.395L64.703,141.385L74.74,131.94L76.564,135.783L70.124,141.053C69.605,141.475 69.198,141.765 68.937,141.959C69.341,141.86 69.841,141.731 70.449,141.606L78.534,139.934L80.301,143.657L66.604,145.395ZM177.547,112.774L164.532,114.421L164.043,110.495L177.058,108.85L177.547,112.774ZM177.693,122L175.229,122.318L174.816,126.21L177.155,127.089L176.706,131.336L164.136,125.444L164.653,120.563L178.146,117.731L177.693,122ZM167.218,123.386C167.354,123.504 167.589,123.57 167.914,123.68C168.241,123.788 169.634,124.31 172.092,125.243L172.356,122.747L168.712,123.276C168.177,123.347 167.676,123.384 167.218,123.386ZM110.27,135.639C110.344,135.777 110.458,135.89 110.532,136.028C111.15,137.182 110.576,140.267 113.259,140.9C114.353,141.159 116.71,140.806 116.971,138.046C117.04,137.311 116.974,123.995 117.013,123.843C117.256,122.895 117.894,122.81 119.389,122.77C121.559,122.713 121.06,123.674 121.061,125.838C121.063,138.726 121.13,138.757 120.72,140.036C118.816,145.963 109.831,147.328 107.232,140.039C106.375,137.634 107.092,134.722 109.283,135.127L110.27,135.639ZM96.063,105.892C95.972,105.939 94.638,107.094 93.389,105.841C92.135,104.584 93.205,102.646 93.741,100.831C94.702,97.577 95.617,100.684 95.66,100.831C95.724,101.05 96.486,103.459 96.493,103.49C96.858,105.043 96.236,105.557 96.063,105.892ZM104.181,97.774C104.09,97.82 102.757,98.976 101.507,97.723C100.251,96.464 101.326,94.531 101.86,92.713C101.903,92.566 102.817,89.455 103.778,92.713C103.846,92.944 104.607,95.351 104.612,95.371C104.977,96.919 104.354,97.438 104.181,97.774ZM136.652,97.774C136.562,97.82 135.228,98.976 133.978,97.723C132.722,96.464 133.797,94.531 134.331,92.713C134.374,92.566 135.288,89.455 136.249,92.713C136.317,92.944 137.078,95.351 137.083,95.371C137.448,96.919 136.825,97.438 136.652,97.774ZM144.77,103.862C144.679,103.909 143.345,105.064 142.096,103.812C140.838,102.551 141.917,100.607 142.449,98.802C143.408,95.544 144.324,98.654 144.367,98.802C144.432,99.022 145.193,101.429 145.2,101.46C145.565,103.014 144.943,103.527 144.77,103.862ZM127.045,62.969L125.932,72.935L121.983,72.497L123.098,62.533L119.448,62.13L119.791,59.055L131.079,60.307L130.736,63.378L127.045,62.969ZM148.07,157.429L153.727,165.708L150.45,167.952L144.793,159.673L141.762,161.748L140.016,159.197L149.387,152.781L151.133,155.333L148.07,157.429ZM169.281,95.801C170.107,95.521 170.901,95.499 171.664,95.733C172.424,95.967 173.09,96.432 173.661,97.124C174.23,97.82 174.706,98.728 175.084,99.849C175.524,101.147 175.71,102.412 175.636,103.639L172.23,104.795C172.433,104.145 172.552,103.466 172.572,102.757C172.592,102.047 172.512,101.421 172.327,100.876C172.188,100.467 172.005,100.174 171.783,99.998C171.558,99.825 171.307,99.785 171.023,99.882C170.823,99.949 170.66,100.066 170.546,100.228C170.432,100.395 170.348,100.614 170.293,100.886C170.237,101.16 170.196,101.645 170.174,102.344C170.083,104.605 169.181,106.025 167.465,106.606C166.263,107.014 165.147,106.883 164.12,106.214C163.092,105.546 162.316,104.444 161.795,102.905C161.649,102.472 161.529,102.067 161.443,101.691C161.352,101.317 161.284,100.972 161.233,100.654C161.187,100.34 161.144,99.891 161.106,99.303L164.266,98.231C164.056,99.471 164.118,100.594 164.461,101.605C164.604,102.024 164.792,102.33 165.035,102.532C165.279,102.733 165.535,102.788 165.807,102.695C166.063,102.609 166.245,102.433 166.347,102.171C166.448,101.908 166.525,101.404 166.574,100.659C166.656,99.197 166.919,98.092 167.355,97.347C167.79,96.604 168.432,96.087 169.281,95.801ZM99.497,69.099C100.129,70.255 100.448,71.424 100.451,72.608C100.453,73.793 100.147,74.887 99.53,75.88C98.916,76.877 98.055,77.677 96.946,78.287C95.867,78.88 94.751,79.174 93.597,79.171C92.446,79.167 91.377,78.858 90.4,78.245C89.425,77.63 88.629,76.764 88.016,75.643C87.373,74.473 87.046,73.282 87.028,72.074C87.013,70.865 87.314,69.759 87.933,68.756C88.55,67.751 89.432,66.933 90.576,66.305C91.676,65.701 92.796,65.402 93.932,65.417C95.071,65.429 96.124,65.758 97.095,66.404C98.067,67.051 98.865,67.949 99.497,69.099ZM95.87,71.219C95.352,70.275 94.764,69.627 94.1,69.284C93.439,68.939 92.792,68.937 92.162,69.282C91.47,69.663 91.079,70.22 90.983,70.954C90.884,71.688 91.099,72.533 91.624,73.491C92.136,74.425 92.728,75.051 93.396,75.368C94.065,75.677 94.728,75.657 95.385,75.296C95.787,75.077 96.08,74.761 96.272,74.349C96.464,73.938 96.528,73.463 96.462,72.93C96.4,72.393 96.201,71.824 95.87,71.219ZM61.577,104.409L64.06,104.518L65.136,100.751L62.981,99.489L64.152,95.379L75.527,103.332L74.179,108.051L60.4,108.534L61.577,104.409ZM72.134,104.831C72.023,104.691 71.804,104.586 71.502,104.422C71.198,104.262 69.914,103.508 67.654,102.169L66.963,104.583L70.644,104.684C71.185,104.706 71.683,104.755 72.134,104.831ZM173.824,139.488L170.837,139.295C170.251,139.251 169.756,139.309 169.345,139.461C168.938,139.62 168.662,139.859 168.526,140.184L168.465,140.328L172.714,142.118L171.176,145.762L159.087,140.67L161.127,135.833C161.841,134.142 162.642,133.009 163.537,132.437C164.432,131.863 165.431,131.809 166.539,132.278C167.372,132.627 167.969,133.154 168.332,133.859C168.699,134.567 168.809,135.437 168.69,136.477C169.079,136.037 169.513,135.72 170.012,135.53C170.508,135.336 171.165,135.252 171.975,135.28L175.553,135.382L173.824,139.488ZM165.422,136.361C165.016,136.191 164.646,136.182 164.304,136.33C163.966,136.474 163.683,136.813 163.46,137.339L163.145,138.089L165.907,139.251L166.186,138.596C166.393,138.104 166.418,137.657 166.271,137.244C166.119,136.831 165.836,136.536 165.422,136.361ZM121.696,177.043L117.067,170.771C116.702,170.276 116.404,169.833 116.154,169.431C116.171,170.077 116.191,170.802 116.189,171.607L116.185,177.116L112.53,177.165L112.539,164.044L116.276,163.993L120.708,169.955L120.911,170.236L121.146,170.57C121.226,170.685 121.303,170.796 121.371,170.904L121.55,171.194C121.53,170.928 121.511,170.466 121.511,169.807L121.517,163.924L125.17,163.874L125.161,176.995L121.696,177.043ZM70.056,120.455L60.03,120.516L59.978,116.541L70.003,116.482L69.954,112.811L73.047,112.79L73.199,124.147L70.106,124.165L70.056,120.455ZM89.856,81.994C89.365,83.04 88.62,84.064 87.616,85.07C86.63,86.059 85.591,86.724 84.497,87.066C83.405,87.405 82.32,87.418 81.245,87.098C80.172,86.783 79.178,86.169 78.267,85.26C77.287,84.283 76.624,83.2 76.282,82.017C75.937,80.83 75.945,79.641 76.299,78.455C76.652,77.265 77.329,76.167 78.333,75.161C79.137,74.358 80.007,73.677 80.951,73.12L83.54,75.698C83.128,75.802 82.697,75.992 82.253,76.264C81.812,76.538 81.408,76.857 81.041,77.224C80.281,77.985 79.903,78.803 79.902,79.68C79.9,80.551 80.272,81.358 81.021,82.105C81.764,82.846 82.567,83.209 83.433,83.198C84.302,83.187 85.1,82.815 85.832,82.081C86.511,81.4 87.019,80.546 87.362,79.509L89.856,81.994ZM84.757,158.35C83.785,159.239 82.722,159.825 81.574,160.108C80.424,160.391 79.29,160.35 78.178,159.987C77.064,159.626 76.083,158.98 75.229,158.044C74.398,157.137 73.847,156.122 73.578,155.001C73.312,153.878 73.357,152.768 73.723,151.674C74.092,150.58 74.745,149.602 75.683,148.742C76.671,147.84 77.747,147.239 78.919,146.936C80.091,146.634 81.238,146.667 82.357,147.031C83.48,147.393 84.481,148.055 85.363,149.02C86.21,149.947 86.763,150.962 87.019,152.072C87.276,153.181 87.205,154.283 86.807,155.379C86.409,156.476 85.726,157.464 84.757,158.35ZM81.841,155.328C82.637,154.601 83.124,153.876 83.303,153.149C83.482,152.423 83.33,151.796 82.845,151.265C82.313,150.687 81.678,150.436 80.944,150.515C80.205,150.591 79.436,151 78.629,151.738C77.844,152.457 77.374,153.181 77.229,153.903C77.082,154.629 77.26,155.266 77.767,155.819C78.076,156.158 78.452,156.37 78.896,156.458C79.341,156.548 79.815,156.498 80.321,156.308C80.825,156.12 81.331,155.793 81.841,155.328ZM94.251,167.545C93.792,168.284 93.194,168.805 92.458,169.109C91.72,169.413 90.91,169.476 90.029,169.304C89.15,169.129 88.205,168.731 87.2,168.107C86.036,167.384 85.089,166.526 84.368,165.529L86.261,162.472C86.515,163.104 86.856,163.701 87.291,164.264C87.727,164.822 88.187,165.257 88.675,165.56C89.042,165.786 89.37,165.898 89.653,165.891C89.937,165.883 90.156,165.755 90.314,165.5C90.426,165.321 90.475,165.125 90.458,164.928C90.444,164.727 90.369,164.504 90.237,164.256C90.108,164.012 89.83,163.61 89.401,163.058C88.036,161.254 87.83,159.582 88.784,158.041C89.451,156.964 90.395,156.356 91.615,156.217C92.831,156.08 94.131,156.438 95.511,157.294C95.898,157.537 96.246,157.775 96.553,158.008C96.86,158.242 97.134,158.464 97.373,158.676C97.609,158.89 97.93,159.21 98.332,159.639L96.574,162.478C95.949,161.384 95.188,160.558 94.28,159.995C93.906,159.763 93.562,159.644 93.247,159.644C92.932,159.642 92.699,159.763 92.547,160.007C92.405,160.239 92.378,160.49 92.465,160.759C92.555,161.022 92.816,161.461 93.251,162.069C94.118,163.25 94.616,164.271 94.753,165.123C94.892,165.974 94.724,166.781 94.251,167.545ZM113.324,72.682L107.613,67.297C107.162,66.874 106.786,66.486 106.468,66.134C106.603,66.767 106.755,67.476 106.9,68.268L107.906,73.684L104.314,74.347L101.916,61.447L105.59,60.77L111.052,65.88L111.303,66.125C111.4,66.218 111.5,66.313 111.597,66.412C111.699,66.512 111.794,66.609 111.881,66.703C111.968,66.799 112.04,66.886 112.11,66.959C112.042,66.698 111.938,66.247 111.818,65.599L110.744,59.818L114.337,59.154L116.735,72.054L113.324,72.682Z"/>
</svg>
