<?xml version="1.0" encoding="UTF-8" standalone="no"?>
<!DOCTYPE svg PUBLIC "-//W3C//DTD SVG 1.1//EN" "http://www.w3.org/Graphics/SVG/1.1/DTD/svg11.dtd">
<svg width="100%" height="100%" viewBox="0 0 238 237" version="1.1" xmlns="http://www.w3.org/2000/svg" xmlns:xlink="http://www.w3.org/1999/xlink" xml:space="preserve" xmlns:serif="http://www.serif.com/" style="fill-rule:evenodd;clip-rule:evenodd;stroke-linejoin:round;stroke-miterlimit:2;">
    <rect id="icon_3" x="0.992" y="0" width="236.22" height="236.22"/>
    <g id="ANIMAIS">
        <path id="animais" d="M115.453,117.191C117.365,118.158 121.817,118.107 121.817,118.107C126.68,118.028 131.775,117.121 137.261,121.474C138.754,123.009 139.93,125.102 140.573,127.393C140.731,127.379 140.889,127.37 141.051,127.37C143.874,127.37 146.157,129.658 146.157,132.478C146.157,135.271 143.914,137.543 141.126,137.583L137.64,139.514C136.591,140.5 135.281,141.364 133.672,142.045C132.698,143.653 133.79,145.051 126.792,144.793C123.436,144.67 120.635,145.242 117.705,145.147C113.826,145.019 113.949,141.611 115.967,139.837C119.415,136.805 120.448,140.318 122.824,139.073C120.187,138.229 117.705,135.868 115.453,135.027C114.519,136.877 112.331,141.611 111.15,143.151C109.746,144.983 106.209,145.241 103.408,144.623C102.311,144.404 101.488,143.506 101.488,142.431C101.488,142.374 101.492,142.317 101.496,142.26C101.796,139.885 103.688,139.352 106.46,139.08C107.419,136.449 107.672,134.327 107.43,132.597L105.759,128.839C102.22,124.709 94.442,124.561 92.844,122.685C90.817,120.309 93.123,116.948 94.603,114.737C97.441,110.496 99.046,110.72 100.711,109.072C100.46,107.617 100.314,104.925 100.458,102.064L101.023,97.194C101.603,94.266 102.645,91.851 104.377,91.293C107.313,90.349 107.889,92.526 108.967,93.948C116.433,93.257 113.385,101.611 110.895,107.136C110.76,107.446 108.947,111.407 108.903,111.574C111.062,114.657 113.301,116.102 115.453,117.191Z" style="fill:white;"/>
        <g id="TEXT2" transform="matrix(0.2,0,0,0.2,-290.892,-3910.94)">
            <g transform="matrix(36.6199,74.856,-74.856,36.6199,1773.8,20252.7)">
                <path d="M0.485,-0.164C0.507,-0.164 0.518,-0.152 0.518,-0.129L0.518,-0.035C0.518,-0.012 0.507,-0 0.485,-0L0.103,-0C0.081,-0 0.07,-0.012 0.07,-0.035L0.07,-0.675C0.07,-0.698 0.081,-0.71 0.103,-0.71L0.484,-0.71C0.506,-0.71 0.517,-0.698 0.517,-0.674L0.511,-0.58C0.511,-0.569 0.508,-0.561 0.501,-0.555C0.495,-0.549 0.486,-0.546 0.476,-0.546L0.254,-0.546L0.254,-0.418L0.447,-0.418C0.469,-0.418 0.48,-0.406 0.48,-0.383L0.48,-0.303C0.48,-0.28 0.469,-0.268 0.447,-0.268L0.254,-0.268L0.254,-0.164L0.485,-0.164Z" style="fill:white;fill-rule:nonzero;"/>
            </g>
            <g transform="matrix(55.5911,62.0812,-62.0812,55.5911,1803.19,20312.2)">
                <path d="M0.862,-0.157C0.883,-0.155 0.893,-0.143 0.893,-0.121L0.892,-0.032C0.891,-0.009 0.881,0.003 0.861,0.005C0.841,0.007 0.819,0.008 0.795,0.008C0.769,0.008 0.747,0.006 0.73,0.001C0.714,-0.003 0.698,-0.011 0.685,-0.022C0.671,-0.034 0.661,-0.05 0.655,-0.072C0.649,-0.094 0.645,-0.122 0.644,-0.156L0.636,-0.402L0.529,-0.12C0.522,-0.103 0.509,-0.094 0.49,-0.094L0.411,-0.094C0.392,-0.094 0.379,-0.103 0.372,-0.12L0.266,-0.4L0.254,-0.034C0.253,-0.011 0.242,-0 0.22,-0L0.103,-0C0.092,-0 0.084,-0.003 0.078,-0.01C0.072,-0.016 0.069,-0.025 0.07,-0.036L0.094,-0.669C0.094,-0.691 0.104,-0.703 0.124,-0.705L0.291,-0.723C0.311,-0.725 0.324,-0.717 0.331,-0.698L0.453,-0.367L0.578,-0.684C0.585,-0.701 0.597,-0.71 0.615,-0.71L0.773,-0.71C0.783,-0.71 0.791,-0.707 0.797,-0.701C0.804,-0.695 0.807,-0.687 0.807,-0.676L0.83,-0.162C0.841,-0.16 0.852,-0.158 0.862,-0.157Z" style="fill:white;fill-rule:nonzero;"/>
            </g>
            <g transform="matrix(80.0682,23.0981,-23.0981,80.0682,1940.42,20421)">
                <path d="M0.655,-0.156C0.674,-0.154 0.683,-0.144 0.682,-0.126L0.68,-0.027C0.68,-0.008 0.672,0.003 0.655,0.005C0.639,0.007 0.621,0.008 0.6,0.008C0.557,0.008 0.526,0.002 0.505,-0.009C0.485,-0.02 0.469,-0.042 0.458,-0.076L0.438,-0.139L0.234,-0.139L0.2,-0.024C0.196,-0.008 0.186,-0 0.169,-0L0.033,-0C0.023,-0 0.016,-0.003 0.012,-0.01C0.008,-0.016 0.008,-0.025 0.011,-0.035L0.226,-0.679C0.231,-0.695 0.24,-0.703 0.255,-0.705L0.393,-0.723C0.409,-0.725 0.42,-0.718 0.426,-0.701L0.617,-0.164C0.626,-0.16 0.638,-0.158 0.655,-0.156ZM0.278,-0.289L0.391,-0.289L0.333,-0.475L0.278,-0.289Z" style="fill:white;fill-rule:nonzero;"/>
            </g>
            <g transform="matrix(83.3142,1.7835,-1.7835,83.3142,2012.44,20439.8)">
                <path d="M0.643,-0.71C0.666,-0.71 0.677,-0.698 0.677,-0.675L0.677,-0.035C0.677,-0.012 0.666,-0 0.643,-0L0.524,-0C0.506,-0 0.492,-0.007 0.483,-0.021L0.254,-0.385L0.254,-0.035C0.254,-0.012 0.243,-0 0.221,-0L0.103,-0C0.081,-0 0.07,-0.012 0.07,-0.035L0.07,-0.669C0.07,-0.691 0.08,-0.703 0.101,-0.706L0.221,-0.722C0.238,-0.725 0.252,-0.719 0.262,-0.703L0.493,-0.329L0.493,-0.675C0.493,-0.698 0.504,-0.71 0.526,-0.71L0.643,-0.71Z" style="fill:white;fill-rule:nonzero;"/>
            </g>
            <g transform="matrix(81.8041,-15.8911,15.8911,81.8041,2093.27,20437.7)">
                <path d="M0.103,-0C0.081,-0 0.07,-0.012 0.07,-0.035L0.07,-0.675C0.07,-0.698 0.081,-0.71 0.103,-0.71L0.22,-0.71C0.243,-0.71 0.254,-0.698 0.254,-0.675L0.254,-0.035C0.254,-0.012 0.243,-0 0.22,-0L0.103,-0Z" style="fill:white;fill-rule:nonzero;"/>
            </g>
            <g transform="matrix(75.459,-35.3607,35.3607,75.459,2138.67,20429.8)">
                <path d="M0.862,-0.157C0.883,-0.155 0.893,-0.143 0.893,-0.121L0.892,-0.032C0.891,-0.009 0.881,0.003 0.861,0.005C0.841,0.007 0.819,0.008 0.795,0.008C0.769,0.008 0.747,0.006 0.73,0.001C0.714,-0.003 0.698,-0.011 0.685,-0.022C0.671,-0.034 0.661,-0.05 0.655,-0.072C0.649,-0.094 0.645,-0.122 0.644,-0.156L0.636,-0.402L0.529,-0.12C0.522,-0.103 0.509,-0.094 0.49,-0.094L0.411,-0.094C0.392,-0.094 0.379,-0.103 0.372,-0.12L0.266,-0.4L0.254,-0.034C0.253,-0.011 0.242,-0 0.22,-0L0.103,-0C0.092,-0 0.084,-0.003 0.078,-0.01C0.072,-0.016 0.069,-0.025 0.07,-0.036L0.094,-0.669C0.094,-0.691 0.104,-0.703 0.124,-0.705L0.291,-0.723C0.311,-0.725 0.324,-0.717 0.331,-0.698L0.453,-0.367L0.578,-0.684C0.585,-0.701 0.597,-0.71 0.615,-0.71L0.773,-0.71C0.783,-0.71 0.791,-0.707 0.797,-0.701C0.804,-0.695 0.807,-0.687 0.807,-0.676L0.83,-0.162C0.841,-0.16 0.852,-0.158 0.862,-0.157Z" style="fill:white;fill-rule:nonzero;"/>
            </g>
            <g transform="matrix(62.432,-55.1968,55.1968,62.432,2223.84,20385.6)">
                <path d="M0.655,-0.156C0.674,-0.154 0.683,-0.144 0.682,-0.126L0.68,-0.027C0.68,-0.008 0.672,0.003 0.655,0.005C0.639,0.007 0.621,0.008 0.6,0.008C0.557,0.008 0.526,0.002 0.505,-0.009C0.485,-0.02 0.469,-0.042 0.458,-0.076L0.438,-0.139L0.234,-0.139L0.2,-0.024C0.196,-0.008 0.186,-0 0.169,-0L0.033,-0C0.023,-0 0.016,-0.003 0.012,-0.01C0.008,-0.016 0.008,-0.025 0.011,-0.035L0.226,-0.679C0.231,-0.695 0.24,-0.703 0.255,-0.705L0.393,-0.723C0.409,-0.725 0.42,-0.718 0.426,-0.701L0.617,-0.164C0.626,-0.16 0.638,-0.158 0.655,-0.156ZM0.278,-0.289L0.391,-0.289L0.333,-0.475L0.278,-0.289Z" style="fill:white;fill-rule:nonzero;"/>
            </g>
            <g transform="matrix(50.3399,-66.4104,66.4104,50.3399,2277.27,20334.2)">
                <path d="M0.103,-0C0.081,-0 0.07,-0.012 0.07,-0.035L0.07,-0.675C0.07,-0.698 0.081,-0.71 0.103,-0.71L0.22,-0.71C0.243,-0.71 0.254,-0.698 0.254,-0.675L0.254,-0.035C0.254,-0.012 0.243,-0 0.22,-0L0.103,-0Z" style="fill:white;fill-rule:nonzero;"/>
            </g>
            <g transform="matrix(36.5914,-74.87,74.87,36.5914,2304.6,20296.8)">
                <path d="M0.279,0.012C0.199,0.012 0.129,-0.004 0.067,-0.035C0.051,-0.044 0.044,-0.058 0.047,-0.077L0.058,-0.17C0.06,-0.182 0.064,-0.191 0.071,-0.195C0.078,-0.199 0.087,-0.198 0.098,-0.193C0.155,-0.164 0.216,-0.15 0.28,-0.15C0.315,-0.15 0.339,-0.154 0.353,-0.162C0.367,-0.17 0.374,-0.184 0.374,-0.202C0.374,-0.216 0.37,-0.228 0.362,-0.238C0.354,-0.248 0.344,-0.255 0.331,-0.261C0.318,-0.266 0.303,-0.271 0.286,-0.275C0.269,-0.279 0.251,-0.283 0.232,-0.288C0.213,-0.292 0.194,-0.297 0.175,-0.303C0.156,-0.309 0.139,-0.317 0.122,-0.327C0.105,-0.338 0.09,-0.35 0.076,-0.365C0.063,-0.379 0.053,-0.398 0.045,-0.421C0.037,-0.445 0.033,-0.472 0.033,-0.502C0.033,-0.573 0.053,-0.627 0.094,-0.665C0.135,-0.702 0.199,-0.72 0.286,-0.72C0.437,-0.72 0.522,-0.667 0.542,-0.562C0.544,-0.551 0.543,-0.542 0.538,-0.535C0.533,-0.529 0.526,-0.525 0.515,-0.523L0.393,-0.505C0.383,-0.504 0.375,-0.505 0.37,-0.509C0.364,-0.513 0.358,-0.52 0.353,-0.531C0.34,-0.556 0.318,-0.568 0.286,-0.568C0.265,-0.568 0.248,-0.563 0.235,-0.552C0.223,-0.541 0.217,-0.527 0.217,-0.508C0.217,-0.493 0.221,-0.482 0.229,-0.472C0.236,-0.462 0.247,-0.455 0.26,-0.45C0.273,-0.445 0.288,-0.441 0.305,-0.437C0.323,-0.434 0.34,-0.43 0.359,-0.427C0.378,-0.423 0.397,-0.419 0.416,-0.414C0.434,-0.409 0.452,-0.401 0.469,-0.392C0.487,-0.382 0.502,-0.37 0.515,-0.356C0.528,-0.342 0.539,-0.323 0.546,-0.299C0.554,-0.275 0.558,-0.247 0.558,-0.216C0.558,-0.175 0.551,-0.14 0.538,-0.11C0.524,-0.081 0.505,-0.057 0.48,-0.039C0.455,-0.022 0.425,-0.009 0.392,-0C0.359,0.008 0.321,0.012 0.279,0.012Z" style="fill:white;fill-rule:nonzero;"/>
            </g>
        </g>
        <g id="TEXT1" transform="matrix(0.2,0,0,0.2,-374,-3916.47)">
            <g transform="matrix(17.4902,-81.4772,81.4772,17.4902,2227.31,20153.4)">
                <path d="M0.643,-0.71C0.666,-0.71 0.677,-0.698 0.677,-0.675L0.677,-0.035C0.677,-0.012 0.666,-0 0.643,-0L0.524,-0C0.506,-0 0.492,-0.007 0.483,-0.021L0.254,-0.385L0.254,-0.035C0.254,-0.012 0.243,-0 0.221,-0L0.103,-0C0.081,-0 0.07,-0.012 0.07,-0.035L0.07,-0.669C0.07,-0.691 0.08,-0.703 0.101,-0.706L0.221,-0.722C0.238,-0.725 0.252,-0.719 0.262,-0.703L0.493,-0.329L0.493,-0.675C0.493,-0.698 0.504,-0.71 0.526,-0.71L0.643,-0.71Z" style="fill:white;fill-rule:nonzero;"/>
            </g>
            <g transform="matrix(37.8947,-74.2189,74.2189,37.8947,2241.22,20091.1)">
                <path d="M0.205,-0.735C0.196,-0.736 0.189,-0.739 0.184,-0.745C0.18,-0.751 0.178,-0.759 0.179,-0.769C0.185,-0.803 0.195,-0.827 0.211,-0.844C0.227,-0.86 0.246,-0.868 0.268,-0.868C0.286,-0.868 0.306,-0.863 0.328,-0.852C0.35,-0.841 0.365,-0.836 0.372,-0.836C0.381,-0.836 0.387,-0.84 0.391,-0.849C0.395,-0.857 0.399,-0.863 0.402,-0.866C0.406,-0.869 0.41,-0.87 0.417,-0.869L0.456,-0.865C0.466,-0.864 0.474,-0.861 0.479,-0.855C0.483,-0.849 0.485,-0.841 0.483,-0.831C0.472,-0.765 0.443,-0.732 0.394,-0.732C0.376,-0.732 0.357,-0.737 0.334,-0.748C0.312,-0.759 0.297,-0.764 0.29,-0.764C0.282,-0.764 0.276,-0.76 0.271,-0.751C0.267,-0.743 0.263,-0.737 0.26,-0.734C0.257,-0.731 0.251,-0.73 0.244,-0.731L0.205,-0.735ZM0.655,-0.156C0.674,-0.154 0.683,-0.144 0.682,-0.126L0.68,-0.027C0.68,-0.008 0.672,0.003 0.655,0.005C0.639,0.007 0.621,0.008 0.6,0.008C0.557,0.008 0.526,0.002 0.505,-0.009C0.485,-0.02 0.469,-0.042 0.458,-0.076L0.438,-0.139L0.234,-0.139L0.2,-0.024C0.196,-0.008 0.186,-0 0.169,-0L0.033,-0C0.023,-0 0.016,-0.003 0.012,-0.01C0.008,-0.016 0.008,-0.025 0.011,-0.035L0.226,-0.679C0.231,-0.695 0.24,-0.703 0.255,-0.705L0.393,-0.723C0.409,-0.725 0.42,-0.718 0.426,-0.701L0.617,-0.164C0.626,-0.16 0.638,-0.158 0.655,-0.156ZM0.278,-0.289L0.391,-0.289L0.333,-0.475L0.278,-0.289Z" style="fill:white;fill-rule:nonzero;"/>
            </g>
            <g transform="matrix(55.4754,-62.1846,62.1846,55.4754,2268.69,20037.7)">
                <path d="M0.36,0.012C0.293,0.012 0.236,-0.004 0.188,-0.036C0.139,-0.068 0.103,-0.111 0.079,-0.166C0.055,-0.221 0.043,-0.283 0.043,-0.354C0.043,-0.425 0.055,-0.487 0.079,-0.542C0.103,-0.597 0.139,-0.64 0.188,-0.672C0.236,-0.704 0.293,-0.72 0.36,-0.72C0.427,-0.72 0.484,-0.704 0.532,-0.672C0.581,-0.64 0.617,-0.597 0.641,-0.542C0.665,-0.487 0.677,-0.425 0.677,-0.354C0.677,-0.283 0.665,-0.221 0.641,-0.166C0.617,-0.111 0.581,-0.068 0.532,-0.036C0.484,-0.004 0.427,0.012 0.36,0.012ZM0.262,-0.206C0.282,-0.17 0.315,-0.152 0.36,-0.152C0.405,-0.152 0.438,-0.17 0.459,-0.206C0.48,-0.242 0.49,-0.291 0.49,-0.354C0.49,-0.417 0.48,-0.466 0.459,-0.502C0.438,-0.538 0.405,-0.556 0.36,-0.556C0.316,-0.556 0.284,-0.538 0.263,-0.502C0.242,-0.465 0.231,-0.416 0.231,-0.354C0.231,-0.291 0.241,-0.242 0.262,-0.206Z" style="fill:white;fill-rule:nonzero;"/>
            </g>
            <g transform="matrix(78.8878,-26.8544,26.8544,78.8878,2369.15,19955.4)">
                <path d="M0.477,-0.71C0.499,-0.71 0.51,-0.698 0.51,-0.675L0.51,-0.585C0.51,-0.562 0.499,-0.55 0.477,-0.55L0.346,-0.55L0.346,-0.035C0.346,-0.012 0.335,-0 0.313,-0L0.196,-0C0.174,-0 0.163,-0.012 0.163,-0.035L0.163,-0.55L0.032,-0.55C0.01,-0.55 -0.001,-0.562 -0.001,-0.585L-0.001,-0.668C-0.001,-0.691 0.009,-0.703 0.03,-0.705C0.061,-0.708 0.097,-0.71 0.138,-0.71L0.477,-0.71Z" style="fill:white;fill-rule:nonzero;"/>
            </g>
            <g transform="matrix(82.8295,-9.15022,9.15022,82.8295,2414.84,19940.1)">
                <path d="M0.485,-0.164C0.507,-0.164 0.518,-0.152 0.518,-0.129L0.518,-0.035C0.518,-0.012 0.507,-0 0.485,-0L0.103,-0C0.081,-0 0.07,-0.012 0.07,-0.035L0.07,-0.675C0.07,-0.698 0.081,-0.71 0.103,-0.71L0.484,-0.71C0.506,-0.71 0.517,-0.698 0.517,-0.674L0.511,-0.58C0.511,-0.569 0.508,-0.561 0.501,-0.555C0.495,-0.549 0.486,-0.546 0.476,-0.546L0.254,-0.546L0.254,-0.418L0.447,-0.418C0.469,-0.418 0.48,-0.406 0.48,-0.383L0.48,-0.303C0.48,-0.28 0.469,-0.268 0.447,-0.268L0.254,-0.268L0.254,-0.164L0.485,-0.164Z" style="fill:white;fill-rule:nonzero;"/>
            </g>
            <g transform="matrix(82.8295,9.15022,-9.15022,82.8295,2467.34,19934.7)">
                <path d="M0.279,0.012C0.199,0.012 0.129,-0.004 0.067,-0.035C0.051,-0.044 0.044,-0.058 0.047,-0.077L0.058,-0.17C0.06,-0.182 0.064,-0.191 0.071,-0.195C0.078,-0.199 0.087,-0.198 0.098,-0.193C0.155,-0.164 0.216,-0.15 0.28,-0.15C0.315,-0.15 0.339,-0.154 0.353,-0.162C0.367,-0.17 0.374,-0.184 0.374,-0.202C0.374,-0.216 0.37,-0.228 0.362,-0.238C0.354,-0.248 0.344,-0.255 0.331,-0.261C0.318,-0.266 0.303,-0.271 0.286,-0.275C0.269,-0.279 0.251,-0.283 0.232,-0.288C0.213,-0.292 0.194,-0.297 0.175,-0.303C0.156,-0.309 0.139,-0.317 0.122,-0.327C0.105,-0.338 0.09,-0.35 0.076,-0.365C0.063,-0.379 0.053,-0.398 0.045,-0.421C0.037,-0.445 0.033,-0.472 0.033,-0.502C0.033,-0.573 0.053,-0.627 0.094,-0.665C0.135,-0.702 0.199,-0.72 0.286,-0.72C0.437,-0.72 0.522,-0.667 0.542,-0.562C0.544,-0.551 0.543,-0.542 0.538,-0.535C0.533,-0.529 0.526,-0.525 0.515,-0.523L0.393,-0.505C0.383,-0.504 0.375,-0.505 0.37,-0.509C0.364,-0.513 0.358,-0.52 0.353,-0.531C0.34,-0.556 0.318,-0.568 0.286,-0.568C0.265,-0.568 0.248,-0.563 0.235,-0.552C0.223,-0.541 0.217,-0.527 0.217,-0.508C0.217,-0.493 0.221,-0.482 0.229,-0.472C0.236,-0.462 0.247,-0.455 0.26,-0.45C0.273,-0.445 0.288,-0.441 0.305,-0.437C0.323,-0.434 0.34,-0.43 0.359,-0.427C0.378,-0.423 0.397,-0.419 0.416,-0.414C0.434,-0.409 0.452,-0.401 0.469,-0.392C0.487,-0.382 0.502,-0.37 0.515,-0.356C0.528,-0.342 0.539,-0.323 0.546,-0.299C0.554,-0.275 0.558,-0.247 0.558,-0.216C0.558,-0.175 0.551,-0.14 0.538,-0.11C0.524,-0.081 0.505,-0.057 0.48,-0.039C0.455,-0.022 0.425,-0.009 0.392,-0C0.359,0.008 0.321,0.012 0.279,0.012Z" style="fill:white;fill-rule:nonzero;"/>
            </g>
            <g transform="matrix(78.8878,26.8544,-26.8544,78.8878,2521.73,19941.7)">
                <path d="M0.477,-0.71C0.499,-0.71 0.51,-0.698 0.51,-0.675L0.51,-0.585C0.51,-0.562 0.499,-0.55 0.477,-0.55L0.346,-0.55L0.346,-0.035C0.346,-0.012 0.335,-0 0.313,-0L0.196,-0C0.174,-0 0.163,-0.012 0.163,-0.035L0.163,-0.55L0.032,-0.55C0.01,-0.55 -0.001,-0.562 -0.001,-0.585L-0.001,-0.668C-0.001,-0.691 0.009,-0.703 0.03,-0.705C0.061,-0.708 0.097,-0.71 0.138,-0.71L0.477,-0.71Z" style="fill:white;fill-rule:nonzero;"/>
            </g>
            <g transform="matrix(71.0945,43.4744,-43.4744,71.0945,2564.25,19955.6)">
                <path d="M0.655,-0.156C0.674,-0.154 0.683,-0.144 0.682,-0.126L0.68,-0.027C0.68,-0.008 0.672,0.003 0.655,0.005C0.639,0.007 0.621,0.008 0.6,0.008C0.557,0.008 0.526,0.002 0.505,-0.009C0.485,-0.02 0.469,-0.042 0.458,-0.076L0.438,-0.139L0.234,-0.139L0.2,-0.024C0.196,-0.008 0.186,-0 0.169,-0L0.033,-0C0.023,-0 0.016,-0.003 0.012,-0.01C0.008,-0.016 0.008,-0.025 0.011,-0.035L0.226,-0.679C0.231,-0.695 0.24,-0.703 0.255,-0.705L0.393,-0.723C0.409,-0.725 0.42,-0.718 0.426,-0.701L0.617,-0.164C0.626,-0.16 0.638,-0.158 0.655,-0.156ZM0.278,-0.289L0.391,-0.289L0.333,-0.475L0.278,-0.289Z" style="fill:white;fill-rule:nonzero;"/>
            </g>
            <g transform="matrix(55.7989,61.8945,-61.8945,55.7989,2614.67,19984.6)">
                <path d="M0.862,-0.157C0.883,-0.155 0.893,-0.143 0.893,-0.121L0.892,-0.032C0.891,-0.009 0.881,0.003 0.861,0.005C0.841,0.007 0.819,0.008 0.795,0.008C0.769,0.008 0.747,0.006 0.73,0.001C0.714,-0.003 0.698,-0.011 0.685,-0.022C0.671,-0.034 0.661,-0.05 0.655,-0.072C0.649,-0.094 0.645,-0.122 0.644,-0.156L0.636,-0.402L0.529,-0.12C0.522,-0.103 0.509,-0.094 0.49,-0.094L0.411,-0.094C0.392,-0.094 0.379,-0.103 0.372,-0.12L0.266,-0.4L0.254,-0.034C0.253,-0.011 0.242,-0 0.22,-0L0.103,-0C0.092,-0 0.084,-0.003 0.078,-0.01C0.072,-0.016 0.069,-0.025 0.07,-0.036L0.094,-0.669C0.094,-0.691 0.104,-0.703 0.124,-0.705L0.291,-0.723C0.311,-0.725 0.324,-0.717 0.331,-0.698L0.453,-0.367L0.578,-0.684C0.585,-0.701 0.597,-0.71 0.615,-0.71L0.773,-0.71C0.783,-0.71 0.791,-0.707 0.797,-0.701C0.804,-0.695 0.807,-0.687 0.807,-0.676L0.83,-0.162C0.841,-0.16 0.852,-0.158 0.862,-0.157Z" style="fill:white;fill-rule:nonzero;"/>
            </g>
            <g transform="matrix(35.7914,75.2557,-75.2557,35.7914,2666.77,20044.3)">
                <path d="M0.36,0.012C0.293,0.012 0.236,-0.004 0.188,-0.036C0.139,-0.068 0.103,-0.111 0.079,-0.166C0.055,-0.221 0.043,-0.283 0.043,-0.354C0.043,-0.425 0.055,-0.487 0.079,-0.542C0.103,-0.597 0.139,-0.64 0.188,-0.672C0.236,-0.704 0.293,-0.72 0.36,-0.72C0.427,-0.72 0.484,-0.704 0.532,-0.672C0.581,-0.64 0.617,-0.597 0.641,-0.542C0.665,-0.487 0.677,-0.425 0.677,-0.354C0.677,-0.283 0.665,-0.221 0.641,-0.166C0.617,-0.111 0.581,-0.068 0.532,-0.036C0.484,-0.004 0.427,0.012 0.36,0.012ZM0.262,-0.206C0.282,-0.17 0.315,-0.152 0.36,-0.152C0.405,-0.152 0.438,-0.17 0.459,-0.206C0.48,-0.242 0.49,-0.291 0.49,-0.354C0.49,-0.417 0.48,-0.466 0.459,-0.502C0.438,-0.538 0.405,-0.556 0.36,-0.556C0.316,-0.556 0.284,-0.538 0.263,-0.502C0.242,-0.465 0.231,-0.416 0.231,-0.354C0.231,-0.291 0.241,-0.242 0.262,-0.206Z" style="fill:white;fill-rule:nonzero;"/>
            </g>
            <g transform="matrix(15.6986,81.8413,-81.8413,15.6986,2693.57,20103.8)">
                <path d="M0.279,0.012C0.199,0.012 0.129,-0.004 0.067,-0.035C0.051,-0.044 0.044,-0.058 0.047,-0.077L0.058,-0.17C0.06,-0.182 0.064,-0.191 0.071,-0.195C0.078,-0.199 0.087,-0.198 0.098,-0.193C0.155,-0.164 0.216,-0.15 0.28,-0.15C0.315,-0.15 0.339,-0.154 0.353,-0.162C0.367,-0.17 0.374,-0.184 0.374,-0.202C0.374,-0.216 0.37,-0.228 0.362,-0.238C0.354,-0.248 0.344,-0.255 0.331,-0.261C0.318,-0.266 0.303,-0.271 0.286,-0.275C0.269,-0.279 0.251,-0.283 0.232,-0.288C0.213,-0.292 0.194,-0.297 0.175,-0.303C0.156,-0.309 0.139,-0.317 0.122,-0.327C0.105,-0.338 0.09,-0.35 0.076,-0.365C0.063,-0.379 0.053,-0.398 0.045,-0.421C0.037,-0.445 0.033,-0.472 0.033,-0.502C0.033,-0.573 0.053,-0.627 0.094,-0.665C0.135,-0.702 0.199,-0.72 0.286,-0.72C0.437,-0.72 0.522,-0.667 0.542,-0.562C0.544,-0.551 0.543,-0.542 0.538,-0.535C0.533,-0.529 0.526,-0.525 0.515,-0.523L0.393,-0.505C0.383,-0.504 0.375,-0.505 0.37,-0.509C0.364,-0.513 0.358,-0.52 0.353,-0.531C0.34,-0.556 0.318,-0.568 0.286,-0.568C0.265,-0.568 0.248,-0.563 0.235,-0.552C0.223,-0.541 0.217,-0.527 0.217,-0.508C0.217,-0.493 0.221,-0.482 0.229,-0.472C0.236,-0.462 0.247,-0.455 0.26,-0.45C0.273,-0.445 0.288,-0.441 0.305,-0.437C0.323,-0.434 0.34,-0.43 0.359,-0.427C0.378,-0.423 0.397,-0.419 0.416,-0.414C0.434,-0.409 0.452,-0.401 0.469,-0.392C0.487,-0.382 0.502,-0.37 0.515,-0.356C0.528,-0.342 0.539,-0.323 0.546,-0.299C0.554,-0.275 0.558,-0.247 0.558,-0.216C0.558,-0.175 0.551,-0.14 0.538,-0.11C0.524,-0.081 0.505,-0.057 0.48,-0.039C0.455,-0.022 0.425,-0.009 0.392,-0C0.359,0.008 0.321,0.012 0.279,0.012Z" style="fill:white;fill-rule:nonzero;"/>
            </g>
        </g>
    </g>
</svg>
