<?xml version="1.0" encoding="UTF-8" standalone="no"?>
<!DOCTYPE svg PUBLIC "-//W3C//DTD SVG 1.1//EN" "http://www.w3.org/Graphics/SVG/1.1/DTD/svg11.dtd">
<svg width="100%" height="100%" viewBox="0 0 1329 1329" version="1.1" xmlns="http://www.w3.org/2000/svg" xmlns:xlink="http://www.w3.org/1999/xlink" xml:space="preserve" xmlns:serif="http://www.serif.com/" style="fill-rule:evenodd;clip-rule:evenodd;stroke-linecap:round;stroke-linejoin:round;stroke-miterlimit:50;">
    <g transform="matrix(1,0,0,1,-33.882,-10825.6)">
        <g id="ILUSTRAÇÃO">
        </g>
        <g id="LOGO">
        </g>
        <g id="ICON" transform="matrix(0.288526,0,0,0.479612,33.882,5178.85)">
            <rect x="0" y="11773.6" width="4605.28" height="2770.45" style="fill:white;"/>
            <clipPath id="_clip1">
                <rect x="0" y="11773.6" width="4605.28" height="2770.45"/>
            </clipPath>
            <g clip-path="url(#_clip1)">
                <g id="CHAT" transform="matrix(3.4692,5.13586e-47,-2.13432e-47,2.087,2272.94,-13482.9)">
                    <g id="MENU" transform="matrix(0.178245,-5.69533e-32,-3.71776e-32,1.31109,-1984.36,-2536.17)">
                        <rect x="13167" y="11221" width="1324" height="180" style="fill:white;"/>
                    </g>
                    <g transform="matrix(-0.954348,2.34853e-47,5.87134e-48,0.954348,3258.15,50.7108)">
                        <path d="M2882.45,12860.7L2882.45,12860.7C2882.83,12859.9 2883.26,12859.2 2883.74,12858.5C2884.48,12857.4 2885.33,12856.3 2886.3,12855.4C2890.14,12851.5 2895.36,12849.3 2900.8,12849.3L2940.54,12849.3C2948.49,12849.3 2954.95,12842.9 2954.95,12834.9L2954.95,12798.4C2954.95,12790.4 2948.49,12784 2940.54,12784L2880.88,12784C2872.62,12784 2865.92,12790.7 2865.92,12798.9L2865.92,12852.1L2865.92,12867C2865.92,12869.1 2866.99,12871.1 2868.91,12872.2C2871.77,12873.8 2875.42,12872.9 2877.07,12870L2882.45,12860.7ZM2875.93,12857.2L2873.34,12861.6L2873.34,12852.1L2873.34,12798.9C2873.34,12794.8 2876.71,12791.4 2880.88,12791.4L2940.54,12791.4C2944.4,12791.4 2947.53,12794.5 2947.53,12798.4L2947.53,12834.9C2947.53,12838.8 2944.4,12841.9 2940.54,12841.9L2900.8,12841.9C2893.39,12841.9 2886.29,12844.9 2881.05,12850.1C2879.74,12851.4 2878.58,12852.8 2877.57,12854.4C2876.97,12855.3 2876.42,12856.2 2875.93,12857.2Z"/>
                    </g>
                    <g transform="matrix(0.943662,-2.32224e-47,6.14635e-48,0.999049,-2266.01,-499.73)">
                        <path d="M2889.59,12785.6L2931.82,12785.6" style="fill:none;stroke:black;stroke-width:7.28px;"/>
                    </g>
                    <g transform="matrix(0.474994,-1.1689e-47,6.14635e-48,0.999049,-891.958,-482.71)">
                        <path d="M2889.59,12785.6L2931.82,12785.6" style="fill:none;stroke:black;stroke-width:9.05px;"/>
                    </g>
                </g>
                <g id="SACOLA" transform="matrix(3.4692,4.56521e-47,-3.32005e-47,2.087,1454.19,-13482.9)">
                    <g id="MENU1" serif:id="MENU" transform="matrix(0.178245,-5.69533e-32,-3.71776e-32,1.31109,-1984.36,-2536.17)">
                        <rect x="13167" y="11221" width="1324" height="180" style="fill:white;"/>
                    </g>
                    <g transform="matrix(1,3.40321e-62,9.57008e-48,1,0.680226,1.91261)">
                        <g transform="matrix(1.69038,-3.69762e-47,9.579e-48,1.00093,-4070.34,-550.616)">
                            <path d="M2707.97,12808C2710.68,12808 2713.24,12809.9 2714.95,12813.2C2716.65,12816.5 2717.33,12820.8 2716.79,12825L2712.03,12861.6C2711.18,12868.2 2707.49,12872.9 2703.21,12872.9L2679.79,12872.9C2675.42,12872.9 2671.68,12868 2670.93,12861.2L2666.85,12824.6C2666.39,12820.5 2667.11,12816.2 2668.82,12813C2670.53,12809.8 2673.05,12808 2675.71,12808L2707.97,12808ZM2707.97,12815.1L2675.71,12815.1C2674.26,12815.1 2672.87,12816 2671.93,12817.8C2671.11,12819.3 2670.74,12821.3 2670.96,12823.3L2675.04,12859.9C2675.44,12863.5 2677.5,12865.8 2679.79,12865.8L2703.21,12865.8C2705.46,12865.8 2707.49,12863.5 2707.94,12860.1L2712.7,12823.5C2712.96,12821.5 2712.61,12819.4 2711.8,12817.9C2710.86,12816.1 2709.45,12815.1 2707.97,12815.1Z"/>
                        </g>
                        <g transform="matrix(1.69681,-3.71169e-47,1.31401e-47,1.39722,-4075.71,-5613.16)">
                            <path d="M2674.2,12799.4C2674.2,12790.9 2678.96,12784 2684.81,12784C2690.66,12784 2695.41,12790.9 2695.41,12799.4" style="fill:none;stroke:black;stroke-width:4.55px;stroke-linejoin:miter;"/>
                        </g>
                        <g transform="matrix(6.11741e-17,0.694106,-0.999049,4.25017e-17,13254,10422.3)">
                            <path d="M2666,12804.2L2683,12804.2" style="fill:none;stroke:black;stroke-width:8.23px;stroke-linejoin:miter;"/>
                        </g>
                        <g transform="matrix(6.11741e-17,0.694106,-0.999049,4.25017e-17,13290,10422.3)">
                            <path d="M2666,12804.2L2683,12804.2" style="fill:none;stroke:black;stroke-width:8.23px;stroke-linejoin:miter;"/>
                        </g>
                    </g>
                </g>
                <g id="CONTA" transform="matrix(3.4692,5.70651e-48,-1.18573e-47,2.087,635.439,-13482.9)">
                    <g id="MENU2" serif:id="MENU" transform="matrix(0.178245,-5.69533e-32,-3.71776e-32,1.31109,-1984.36,-2536.17)">
                        <rect x="13167" y="11221" width="1324" height="180" style="fill:white;"/>
                    </g>
                    <g id="conta" transform="matrix(1,0,0,1,-0.00735772,1.8698)">
                        <g transform="matrix(1.50004,-4.10159e-48,4.09009e-48,1.19667,-3188.48,-3052.92)">
                            <path d="M2445.97,12787.1C2455.09,12787.1 2462.49,12796.3 2462.49,12807.8C2462.49,12819.2 2455.09,12828.5 2445.97,12828.5C2436.85,12828.5 2429.45,12819.2 2429.45,12807.8C2429.45,12796.3 2436.85,12787.1 2445.97,12787.1ZM2445.97,12793C2439.46,12793 2434.17,12799.6 2434.17,12807.8C2434.17,12815.9 2439.46,12822.6 2445.97,12822.6C2452.48,12822.6 2457.77,12815.9 2457.77,12807.8C2457.77,12799.6 2452.48,12793 2445.97,12793Z"/>
                        </g>
                        <g transform="matrix(2.58666,-7.07272e-48,6.556e-48,1.91814,-5846.3,-12228.5)">
                            <path d="M2429.55,12805.5C2430.44,12795.1 2437.46,12787.1 2445.97,12787.1C2454.48,12787.1 2461.5,12795.1 2462.39,12805.5" style="fill:none;stroke:black;stroke-width:3.11px;stroke-linejoin:miter;"/>
                        </g>
                    </g>
                </g>
                <g id="PESQUISA" transform="matrix(3.4692,1.1413e-47,-4.74293e-48,2.087,-1206.69,-14237.8)">
                    <g id="MENU3" serif:id="MENU" transform="matrix(0.178245,-5.69533e-32,-3.71776e-32,1.31109,-1689.36,-2174.5)">
                        <rect x="13167" y="11221" width="1324" height="180" style="fill:white;"/>
                    </g>
                    <g id="pesquisar" transform="matrix(1,0,0,1,1.82273,1.85797)">
                        <g transform="matrix(1.33618,-7.30706e-48,1.68242e-48,1.2306,-2170.99,-3128.25)">
                            <path d="M2196.99,12789.7C2210.77,12789.7 2221.95,12801.8 2221.95,12816.8C2221.95,12831.7 2210.77,12843.9 2196.99,12843.9C2183.22,12843.9 2172.04,12831.7 2172.04,12816.8C2172.04,12801.8 2183.22,12789.7 2196.99,12789.7ZM2196.99,12795.5C2186.14,12795.5 2177.33,12805 2177.33,12816.8C2177.33,12828.6 2186.14,12838.1 2196.99,12838.1C2207.84,12838.1 2216.65,12828.6 2216.65,12816.8C2216.65,12805 2207.84,12795.5 2196.99,12795.5Z"/>
                        </g>
                        <g transform="matrix(0.313864,0.313864,-0.706434,0.706434,9262.68,2850.54)">
                            <path d="M2138.73,12946.6L2228.72,12946.6" style="fill:none;stroke:black;stroke-width:9.15px;stroke-linejoin:miter;"/>
                        </g>
                    </g>
                </g>
                <g id="MENU4" serif:id="MENU" transform="matrix(3.4692,1.1413e-47,-4.74293e-48,2.087,-2025.41,-14237.8)">
                    <g id="MENU5" serif:id="MENU" transform="matrix(0.178245,-5.69533e-32,-3.71776e-32,1.31109,-1689.36,-2174.5)">
                        <rect x="13167" y="11221" width="1324" height="180" style="fill:white;"/>
                    </g>
                    <g id="MENOS" transform="matrix(3.00568e-17,0.649349,-0.410428,3.5146e-17,5704.61,4220.25)">
                        <path d="M12924.3,11906L12924.3,12113" style="fill:none;stroke:black;stroke-width:13.03px;stroke-miterlimit:1.5;"/>
                    </g>
                    <g id="MENOS1" serif:id="MENOS" transform="matrix(3.00568e-17,0.649349,-0.410428,3.5146e-17,5704.61,4262.86)">
                        <path d="M12924.3,11906L12924.3,12113" style="fill:none;stroke:black;stroke-width:13.03px;stroke-miterlimit:1.5;"/>
                    </g>
                    <g id="MENOS2" serif:id="MENOS" transform="matrix(3.00568e-17,0.649349,-0.410428,3.5146e-17,5704.61,4305.47)">
                        <path d="M12924.3,11906L12924.3,12113" style="fill:none;stroke:black;stroke-width:13.03px;stroke-miterlimit:1.5;"/>
                    </g>
                </g>
                <g id="MENIS" transform="matrix(3.4692,1.1413e-47,-4.74293e-48,2.087,-2025.41,-13745.2)">
                    <g id="MENU6" serif:id="MENU" transform="matrix(0.178245,-5.69533e-32,-3.71776e-32,1.31109,-1689.36,-2174.5)">
                        <rect x="13167" y="11221" width="1324" height="180" style="fill:white;"/>
                    </g>
                    <g id="MENOS3" serif:id="MENOS" transform="matrix(3.00568e-17,0.649349,-0.410428,3.5146e-17,5704.61,4262.86)">
                        <path d="M12924.3,11906L12924.3,12113" style="fill:none;stroke:black;stroke-width:13.03px;stroke-miterlimit:1.5;"/>
                    </g>
                </g>
                <g id="MENIS1" serif:id="MENIS" transform="matrix(3.4692,1.1413e-47,-4.74293e-48,2.087,-1206.55,-12267.7)">
                    <g id="MENU7" serif:id="MENU" transform="matrix(0.178245,-5.69533e-32,-3.71776e-32,1.31109,-1689.36,-2174.5)">
                        <rect x="13167" y="11221" width="1324" height="180" style="fill:white;"/>
                    </g>
                    <g id="MENOS4" serif:id="MENOS" transform="matrix(3.00568e-17,0.649349,-0.410428,3.5146e-17,5704.61,4262.86)">
                        <path d="M12924.3,11906L12924.3,12113" style="fill:none;stroke:black;stroke-width:13.03px;stroke-miterlimit:1.5;"/>
                    </g>
                </g>
                <g id="MENIS2" serif:id="MENIS" transform="matrix(3.4692,1.1413e-47,-4.74293e-48,2.087,-1206.97,-12760.2)">
                    <g id="MENU8" serif:id="MENU" transform="matrix(0.178245,-5.69533e-32,-3.71776e-32,1.31109,-1689.36,-2174.5)">
                        <rect x="13167" y="11221" width="1324" height="180" style="fill:white;"/>
                    </g>
                    <g id="MENOS5" serif:id="MENOS" transform="matrix(3.00568e-17,0.649349,-0.410428,3.5146e-17,5704.61,4262.86)">
                        <path d="M12924.3,11906L12924.3,12113" style="fill:none;stroke:black;stroke-width:13.03px;stroke-miterlimit:1.5;"/>
                    </g>
                </g>
                <g id="MENIS3" serif:id="MENIS" transform="matrix(3.4692,1.1413e-47,-4.74293e-48,2.087,-2025.48,-12267.7)">
                    <g id="MENU9" serif:id="MENU" transform="matrix(0.178245,-5.69533e-32,-3.71776e-32,1.31109,-1689.36,-2174.5)">
                        <rect x="13167" y="11221" width="1324" height="180" style="fill:white;"/>
                    </g>
                    <g id="MENOS6" serif:id="MENOS" transform="matrix(3.00568e-17,0.649349,-0.410428,3.5146e-17,5704.61,4262.86)">
                        <path d="M12924.3,11906L12924.3,12113" style="fill:none;stroke:black;stroke-width:13.03px;stroke-miterlimit:1.5;"/>
                    </g>
                </g>
                <g id="MENIS4" serif:id="MENIS" transform="matrix(3.4692,1.1413e-47,-4.74293e-48,2.087,-2025.89,-12760.2)">
                    <g id="MENU10" serif:id="MENU" transform="matrix(0.178245,-5.69533e-32,-3.71776e-32,1.31109,-1689.36,-2174.5)">
                        <rect x="13167" y="11221" width="1324" height="180" style="fill:white;"/>
                    </g>
                    <g id="MENOS7" serif:id="MENOS" transform="matrix(3.00568e-17,0.649349,-0.410428,3.5146e-17,5704.61,4262.86)">
                        <path d="M12924.3,11906L12924.3,12113" style="fill:none;stroke:black;stroke-width:13.03px;stroke-miterlimit:1.5;"/>
                    </g>
                </g>
                <g id="MENIS5" serif:id="MENIS" transform="matrix(3.4692,1.1413e-47,-4.74293e-48,2.087,-387.974,-12267.7)">
                    <g id="MENU11" serif:id="MENU" transform="matrix(0.178245,-5.69533e-32,-3.71776e-32,1.31109,-1689.36,-2174.5)">
                        <rect x="13167" y="11221" width="1324" height="180" style="fill:white;"/>
                    </g>
                    <g id="MENOS8" serif:id="MENOS" transform="matrix(3.00568e-17,0.649349,-0.410428,3.5146e-17,5704.61,4262.86)">
                        <path d="M12924.3,11906L12924.3,12113" style="fill:none;stroke:black;stroke-width:13.03px;stroke-miterlimit:1.5;"/>
                    </g>
                </g>
                <g id="MENIS6" serif:id="MENIS" transform="matrix(3.4692,1.1413e-47,-4.74293e-48,2.087,-388.393,-12760.2)">
                    <g id="MENU12" serif:id="MENU" transform="matrix(0.178245,-5.69533e-32,-3.71776e-32,1.31109,-1689.36,-2174.5)">
                        <rect x="13167" y="11221" width="1324" height="180" style="fill:white;"/>
                    </g>
                    <g id="MENOS9" serif:id="MENOS" transform="matrix(3.00568e-17,0.649349,-0.410428,3.5146e-17,5704.61,4262.86)">
                        <path d="M12924.3,11906L12924.3,12113" style="fill:none;stroke:black;stroke-width:13.03px;stroke-miterlimit:1.5;"/>
                    </g>
                </g>
                <g id="MENIS7" serif:id="MENIS" transform="matrix(3.4692,1.1413e-47,-4.74293e-48,2.087,430.952,-12267.7)">
                    <g id="MENU13" serif:id="MENU" transform="matrix(0.178245,-5.69533e-32,-3.71776e-32,1.31109,-1689.36,-2174.5)">
                        <rect x="13167" y="11221" width="1324" height="180" style="fill:white;"/>
                    </g>
                    <g id="MENOS10" serif:id="MENOS" transform="matrix(3.00568e-17,0.649349,-0.410428,3.5146e-17,5704.61,4262.86)">
                        <path d="M12924.3,11906L12924.3,12113" style="fill:none;stroke:black;stroke-width:13.03px;stroke-miterlimit:1.5;"/>
                    </g>
                </g>
                <g id="MENIS8" serif:id="MENIS" transform="matrix(3.4692,1.1413e-47,-4.74293e-48,2.087,430.532,-12760.2)">
                    <g id="MENU14" serif:id="MENU" transform="matrix(0.178245,-5.69533e-32,-3.71776e-32,1.31109,-1689.36,-2174.5)">
                        <rect x="13167" y="11221" width="1324" height="180" style="fill:white;"/>
                    </g>
                    <g id="MENOS11" serif:id="MENOS" transform="matrix(3.00568e-17,0.649349,-0.410428,3.5146e-17,5704.61,4262.86)">
                        <path d="M12924.3,11906L12924.3,12113" style="fill:none;stroke:black;stroke-width:13.03px;stroke-miterlimit:1.5;"/>
                    </g>
                </g>
                <g id="MENIS9" serif:id="MENIS" transform="matrix(3.4692,1.1413e-47,-4.74293e-48,2.087,1249.88,-12267.7)">
                    <g id="MENU15" serif:id="MENU" transform="matrix(0.178245,-5.69533e-32,-3.71776e-32,1.31109,-1689.36,-2174.5)">
                        <rect x="13167" y="11221" width="1324" height="180" style="fill:white;"/>
                    </g>
                    <g id="MENOS12" serif:id="MENOS" transform="matrix(3.00568e-17,0.649349,-0.410428,3.5146e-17,5704.61,4262.86)">
                        <path d="M12924.3,11906L12924.3,12113" style="fill:none;stroke:black;stroke-width:13.03px;stroke-miterlimit:1.5;"/>
                    </g>
                </g>
                <g id="MENIS10" serif:id="MENIS" transform="matrix(3.4692,1.1413e-47,-4.74293e-48,2.087,1249.46,-12760.2)">
                    <g id="MENU16" serif:id="MENU" transform="matrix(0.178245,-5.69533e-32,-3.71776e-32,1.31109,-1689.36,-2174.5)">
                        <rect x="13167" y="11221" width="1324" height="180" style="fill:white;"/>
                    </g>
                    <g id="MENOS13" serif:id="MENOS" transform="matrix(3.00568e-17,0.649349,-0.410428,3.5146e-17,5704.61,4262.86)">
                        <path d="M12924.3,11906L12924.3,12113" style="fill:none;stroke:black;stroke-width:13.03px;stroke-miterlimit:1.5;"/>
                    </g>
                </g>
                <g id="CORACAO" transform="matrix(3.4692,1.1413e-47,-4.74293e-48,2.087,-2025.37,-13252.7)">
                    <g id="MENU17" serif:id="MENU" transform="matrix(0.178245,-5.69533e-32,-3.71776e-32,1.31109,-1689.36,-2174.5)">
                        <rect x="13167" y="11221" width="1324" height="180" style="fill:white;"/>
                    </g>
                    <g transform="matrix(-0.945327,5.16963e-48,1.53912e-48,1.12578,1032.4,-1394.85)">
                        <path d="M271.671,12455.2C271.064,12455.2 270.5,12454.8 270.179,12454.3C260.875,12439.4 245.086,12440.6 235.864,12448.2C207.992,12471.2 251.409,12505.7 266.681,12516.5C269.733,12518.7 273.608,12518.7 276.661,12516.5C291.932,12505.7 335.349,12471.2 307.477,12448.2C298.256,12440.6 282.466,12439.4 273.162,12454.3C272.841,12454.8 272.278,12455.2 271.671,12455.2ZM271.671,12461.4L274.34,12461.1L276.656,12460.2L278.484,12458.8L279.795,12457.2C282.415,12453 285.56,12450.5 289.051,12449.5C293.778,12448.1 298.716,12449.8 302.23,12452.7C310.866,12459.8 310.268,12468.4 306.163,12476.6C298.696,12491.6 280.431,12505.6 271.824,12511.7C271.73,12511.8 271.611,12511.8 271.518,12511.7C262.911,12505.6 244.646,12491.6 237.178,12476.6C233.073,12468.4 232.475,12459.8 241.111,12452.7C244.625,12449.8 249.563,12448.1 254.29,12449.5C257.782,12450.5 260.927,12453 263.544,12457.2L264.858,12458.8L266.685,12460.2L269.001,12461.1L271.671,12461.4Z"/>
                    </g>
                </g>
                <g id="FECHAR" transform="matrix(3.4692,1.1413e-47,-4.74293e-48,2.087,-387.974,-13745.2)">
                    <g id="MENU18" serif:id="MENU" transform="matrix(0.178245,-5.69533e-32,-3.71776e-32,1.31109,-1689.36,-2174.5)">
                        <rect x="13167" y="11221" width="1324" height="180" style="fill:white;"/>
                    </g>
                    <g id="MENOS14" serif:id="MENOS" transform="matrix(-0.459159,0.459159,-0.290216,-0.290216,10195.2,10206.3)">
                        <path d="M12924.3,11906L12924.3,12113" style="fill:none;stroke:black;stroke-width:13.03px;stroke-miterlimit:1.5;"/>
                    </g>
                    <g id="MENOS15" serif:id="MENOS" transform="matrix(-0.459159,-0.459159,0.290216,-0.290216,3224.53,22074.9)">
                        <path d="M12924.3,11906L12924.3,12113" style="fill:none;stroke:black;stroke-width:13.03px;stroke-miterlimit:1.5;"/>
                    </g>
                </g>
                <g id="FECHAR1" serif:id="FECHAR" transform="matrix(3.4692,1.1413e-47,-4.74293e-48,2.087,-1206.65,-13745.2)">
                    <g id="MENU19" serif:id="MENU" transform="matrix(0.178245,-5.69533e-32,-3.71776e-32,1.31109,-1689.36,-2174.5)">
                        <rect x="13167" y="11221" width="1324" height="180" style="fill:white;"/>
                    </g>
                    <g id="MENOS16" serif:id="MENOS" transform="matrix(-0.00480302,-0.649332,0.410416,-0.0030358,-4091.24,21083.8)">
                        <path d="M12924.3,11906L12924.3,12113" style="fill:none;stroke:black;stroke-width:13.03px;stroke-miterlimit:1.5;"/>
                    </g>
                    <g id="MENOS17" serif:id="MENOS" transform="matrix(0.649332,-0.00480302,0.0030358,0.410416,-7653.01,7788.4)">
                        <path d="M12924.3,11906L12924.3,12113" style="fill:none;stroke:black;stroke-width:13.03px;stroke-miterlimit:1.5;"/>
                    </g>
                </g>
                <g id="ENVIAR" transform="matrix(3.4692,1.1413e-47,-4.74293e-48,2.087,-1206.62,-13252.7)">
                    <g id="MENU20" serif:id="MENU" transform="matrix(0.178245,-5.69533e-32,-3.71776e-32,1.31109,-1689.36,-2174.5)">
                        <rect x="13167" y="11221" width="1324" height="180" style="fill:white;"/>
                    </g>
                    <g transform="matrix(4.67461e-17,0.763421,-0.802777,4.91559e-17,10807.3,12108)">
                        <path d="M716.777,12443.4C735.324,12443.4 772.42,12531 772.42,12545.3C772.42,12559.7 716.777,12529.4 716.777,12529.4C716.777,12529.4 661.133,12559.7 661.133,12545.3C661.133,12531 698.229,12443.4 716.777,12443.4ZM671.6,12539.3C673.529,12538.9 675.679,12538.3 677.512,12537.7C692.921,12532.2 712.174,12521.8 712.174,12521.8L716.777,12519.2L721.38,12521.8C721.38,12521.8 740.633,12532.2 756.041,12537.7C757.874,12538.3 760.024,12538.9 761.953,12539.3C761.268,12536.9 760.326,12534 759.22,12530.8C752.973,12512.7 740.822,12485.4 729.082,12467.3C725.781,12462.2 722.556,12457.9 719.497,12454.8C718.701,12454 717.544,12453.2 716.777,12452.6C716.01,12453.2 714.853,12454 714.056,12454.8C710.998,12457.9 707.772,12462.2 704.471,12467.3C692.731,12485.4 680.58,12512.7 674.333,12530.8C673.228,12534 672.285,12536.9 671.6,12539.3Z"/>
                    </g>
                    <g transform="matrix(6.25289e-17,0.999049,-0.94192,5.64263e-17,12540.9,12029.8)">
                        <path d="M626.012,12450.9L626.012,12519" style="fill:none;stroke:black;stroke-width:7.29px;stroke-linecap:butt;stroke-linejoin:miter;stroke-miterlimit:1.5;"/>
                    </g>
                </g>
                <g id="CLIP" transform="matrix(3.4692,1.1413e-47,-4.74293e-48,2.087,-387.869,-13252.7)">
                    <g id="MENU21" serif:id="MENU" transform="matrix(0.178245,-5.69533e-32,-3.71776e-32,1.31109,-1689.36,-2174.5)">
                        <rect x="13167" y="11221" width="1324" height="180" style="fill:white;"/>
                    </g>
                    <g transform="matrix(0.630535,0.36404,-0.355361,0.615502,4579.36,5267.65)">
                        <path d="M580.452,11637.3L580.452,11710.5C580.452,11719.3 577.157,11727.6 571.294,11733.8C565.43,11740 557.477,11743.5 549.185,11743.5C548.463,11743.5 547.744,11743.4 547.028,11743.4C539.524,11742.8 532.429,11739.4 527.076,11733.8C521.212,11727.6 517.918,11719.3 517.918,11710.5L517.918,11645.2L517.918,11710.5L517.918,11645.2C517.918,11636.4 519.184,11628.4 525.048,11622.2C529.135,11617.9 535.584,11615.7 540.202,11615.6C555.161,11615.4 560.914,11626.3 560.914,11635C560.914,11647.4 560.909,11662.9 560.905,11677.8C560.902,11688.5 560.899,11698.9 560.899,11707.8C560.899,11716.2 555.655,11723 549.186,11723L549.183,11723C546.077,11723 543.098,11721.4 540.901,11718.5C538.704,11715.7 537.47,11711.8 537.47,11707.8L537.47,11645.7" style="fill:none;stroke:black;stroke-width:9.84px;stroke-linejoin:miter;stroke-miterlimit:1.5;"/>
                    </g>
                </g>
                <g id="CARINHA" transform="matrix(3.4692,1.1413e-47,-4.74293e-48,2.087,430.882,-13252.7)">
                    <g id="MENU22" serif:id="MENU" transform="matrix(0.178245,-5.69533e-32,-3.71776e-32,1.31109,-1689.36,-2174.5)">
                        <rect x="13167" y="11221" width="1324" height="180" style="fill:white;"/>
                    </g>
                    <g>
                        <g transform="matrix(0.685661,-3.74962e-48,1.08598e-48,0.794337,415.606,3344.72)">
                            <path d="M525.006,11666.4C559.199,11666.4 586.96,11690.4 586.96,11719.9C586.96,11749.4 559.199,11773.4 525.006,11773.4C490.813,11773.4 463.052,11749.4 463.052,11719.9C463.052,11690.4 490.813,11666.4 525.006,11666.4ZM525.006,11675.3C496.509,11675.3 473.373,11695.3 473.373,11719.9C473.373,11744.5 496.509,11764.4 525.006,11764.4C553.503,11764.4 576.639,11744.5 576.639,11719.9C576.639,11695.3 553.503,11675.3 525.006,11675.3Z"/>
                        </g>
                        <g transform="matrix(0.283721,-1.55156e-48,3.05152e-49,0.223203,626.627,10046.3)">
                            <path d="M588.061,11720.5C581.57,11735.5 559.63,11772.1 525.006,11773.4C490.382,11772.1 468.442,11735.5 461.951,11720.5" style="fill:none;stroke:black;stroke-width:27.72px;stroke-miterlimit:1.5;"/>
                        </g>
                        <g transform="matrix(0.0952307,-5.2078e-49,1.50831e-49,0.110325,740.824,11347.2)">
                            <ellipse cx="525.006" cy="11719.9" rx="61.954" ry="53.478"/>
                            <path d="M525.006,11666.4C559.199,11666.4 586.96,11690.4 586.96,11719.9C586.96,11749.4 559.199,11773.4 525.006,11773.4C490.813,11773.4 463.052,11749.4 463.052,11719.9C463.052,11690.4 490.813,11666.4 525.006,11666.4ZM525.006,11730.5C531.826,11730.5 537.362,11725.8 537.362,11719.9C537.362,11714 531.826,11709.2 525.006,11709.2C518.187,11709.2 512.65,11714 512.65,11719.9C512.65,11725.8 518.187,11730.5 525.006,11730.5Z"/>
                        </g>
                        <g transform="matrix(0.0952307,-5.2078e-49,1.50831e-49,0.110325,710.348,11347.2)">
                            <ellipse cx="525.006" cy="11719.9" rx="61.954" ry="53.478"/>
                            <path d="M525.006,11666.4C559.199,11666.4 586.96,11690.4 586.96,11719.9C586.96,11749.4 559.199,11773.4 525.006,11773.4C490.813,11773.4 463.052,11749.4 463.052,11719.9C463.052,11690.4 490.813,11666.4 525.006,11666.4ZM525.006,11730.5C531.826,11730.5 537.362,11725.8 537.362,11719.9C537.362,11714 531.826,11709.2 525.006,11709.2C518.187,11709.2 512.65,11714 512.65,11719.9C512.65,11725.8 518.187,11730.5 525.006,11730.5Z"/>
                        </g>
                    </g>
                </g>
                <g id="CUPOM" transform="matrix(3.4692,1.1413e-47,-4.74293e-48,2.087,1249.67,-13252.7)">
                    <g id="MENU23" serif:id="MENU" transform="matrix(0.178245,-5.69533e-32,-3.71776e-32,1.31109,-1689.36,-2174.5)">
                        <rect x="13167" y="11221" width="1324" height="180" style="fill:white;"/>
                    </g>
                    <g>
                        <g transform="matrix(0.685661,-3.74962e-48,1.08598e-48,0.794337,415.606,3344.72)">
                            <path d="M525.006,11666.4C559.199,11666.4 586.96,11690.4 586.96,11719.9C586.96,11749.4 559.199,11773.4 525.006,11773.4C490.813,11773.4 463.052,11749.4 463.052,11719.9C463.052,11690.4 490.813,11666.4 525.006,11666.4ZM525.006,11675.3C496.509,11675.3 473.373,11695.3 473.373,11719.9C473.373,11744.5 496.509,11764.4 525.006,11764.4C553.503,11764.4 576.639,11744.5 576.639,11719.9C576.639,11695.3 553.503,11675.3 525.006,11675.3Z"/>
                        </g>
                        <g transform="matrix(0.283721,-1.55156e-48,3.05152e-49,0.223203,626.627,10046.3)">
                            <path d="M588.061,11720.5C581.57,11735.5 559.63,11772.1 525.006,11773.4C490.382,11772.1 468.442,11735.5 461.951,11720.5" style="fill:none;stroke:black;stroke-width:27.72px;stroke-miterlimit:1.5;"/>
                        </g>
                        <g transform="matrix(0.0952307,-5.2078e-49,1.50831e-49,0.110325,740.824,11347.2)">
                            <ellipse cx="525.006" cy="11719.9" rx="61.954" ry="53.478"/>
                            <path d="M525.006,11666.4C559.199,11666.4 586.96,11690.4 586.96,11719.9C586.96,11749.4 559.199,11773.4 525.006,11773.4C490.813,11773.4 463.052,11749.4 463.052,11719.9C463.052,11690.4 490.813,11666.4 525.006,11666.4ZM525.006,11730.5C531.826,11730.5 537.362,11725.8 537.362,11719.9C537.362,11714 531.826,11709.2 525.006,11709.2C518.187,11709.2 512.65,11714 512.65,11719.9C512.65,11725.8 518.187,11730.5 525.006,11730.5Z"/>
                        </g>
                        <g transform="matrix(0.0952307,-5.2078e-49,1.50831e-49,0.110325,710.348,11347.2)">
                            <ellipse cx="525.006" cy="11719.9" rx="61.954" ry="53.478"/>
                            <path d="M525.006,11666.4C559.199,11666.4 586.96,11690.4 586.96,11719.9C586.96,11749.4 559.199,11773.4 525.006,11773.4C490.813,11773.4 463.052,11749.4 463.052,11719.9C463.052,11690.4 490.813,11666.4 525.006,11666.4ZM525.006,11730.5C531.826,11730.5 537.362,11725.8 537.362,11719.9C537.362,11714 531.826,11709.2 525.006,11709.2C518.187,11709.2 512.65,11714 512.65,11719.9C512.65,11725.8 518.187,11730.5 525.006,11730.5Z"/>
                        </g>
                    </g>
                </g>
                <g id="DESCER" transform="matrix(3.4692,1.1413e-47,-4.74293e-48,2.087,430.777,-13745.2)">
                    <g id="MENU24" serif:id="MENU" transform="matrix(0.178245,-5.69533e-32,-3.71776e-32,1.31109,-1689.36,-2174.5)">
                        <rect x="13167" y="11221" width="1324" height="180" style="fill:white;"/>
                    </g>
                    <g id="MENOS18" serif:id="MENOS" transform="matrix(-0.459159,0.459159,-0.145108,-0.145108,8437.54,8463.6)">
                        <path d="M12924.3,11906L12924.3,12113" style="fill:none;stroke:black;stroke-width:14.7px;stroke-miterlimit:1.5;"/>
                    </g>
                    <g id="MENOS19" serif:id="MENOS" transform="matrix(-0.459159,-0.459159,0.145108,-0.145108,4982.22,20332.2)">
                        <path d="M12924.3,11906L12924.3,12113" style="fill:none;stroke:black;stroke-width:14.7px;stroke-miterlimit:1.5;"/>
                    </g>
                </g>
                <g id="SUBIR" transform="matrix(3.4692,1.1413e-47,-4.74293e-48,2.087,1249.53,-13745.2)">
                    <g id="MENU25" serif:id="MENU" transform="matrix(0.178245,-5.69533e-32,-3.71776e-32,1.31109,-1689.36,-2174.5)">
                        <rect x="13167" y="11221" width="1324" height="180" style="fill:white;"/>
                    </g>
                    <g id="MENOS20" serif:id="MENOS" transform="matrix(-0.459159,-0.459159,-0.145108,0.145108,8437.54,16846.8)">
                        <path d="M12924.3,11906L12924.3,12113" style="fill:none;stroke:black;stroke-width:14.7px;stroke-miterlimit:1.5;"/>
                    </g>
                    <g id="MENOS21" serif:id="MENOS" transform="matrix(-0.459159,0.459159,0.145108,0.145108,4982.22,4978.25)">
                        <path d="M12924.3,11906L12924.3,12113" style="fill:none;stroke:black;stroke-width:14.7px;stroke-miterlimit:1.5;"/>
                    </g>
                </g>
            </g>
        </g>
    </g>
</svg>
