<?xml version="1.0" encoding="UTF-8" standalone="no"?>
<!DOCTYPE svg PUBLIC "-//W3C//DTD SVG 1.1//EN" "http://www.w3.org/Graphics/SVG/1.1/DTD/svg11.dtd">
<svg width="100%" height="100%" viewBox="0 0 238 237" version="1.1" xmlns="http://www.w3.org/2000/svg" xmlns:xlink="http://www.w3.org/1999/xlink" xml:space="preserve" xmlns:serif="http://www.serif.com/" style="fill-rule:evenodd;clip-rule:evenodd;stroke-linejoin:round;stroke-miterlimit:2;">
    <rect id="icon_1" x="0.911" y="0" width="236.22" height="236.22"/>
    <path id="reciclagem" d="M163.344,147.365C164.967,148.703 165.867,150.069 166.046,151.459C166.222,152.85 165.673,154.316 164.401,155.857C163.212,157.298 161.918,158.066 160.513,158.163C159.111,158.258 157.614,157.652 156.03,156.347L150.473,151.769L153.004,148.705L158.673,153.376C159.321,153.911 159.918,154.201 160.471,154.249C161.023,154.292 161.483,154.091 161.858,153.637C162.234,153.183 162.356,152.7 162.223,152.189C162.09,151.678 161.7,151.159 161.056,150.63L155.315,145.899L157.844,142.835L163.344,147.365ZM140.869,62.261L138.293,61.292L141.89,59.508L144.955,60.664L140.869,62.261ZM60.922,129.01L73.73,126.174L74.583,130.036L61.773,132.871L60.922,129.01ZM177.507,112.774L164.492,114.421L164.003,110.495L177.018,108.85L177.507,112.774ZM118.032,127.424L118.032,141.048L104.924,141.048C102.658,141.048 101.527,139.289 101.527,135.768C101.527,134.465 101.846,133.184 102.487,131.929C102.88,131.141 103.853,129.639 105.404,127.424L118.032,127.424ZM121.656,177.043L117.027,170.771C116.662,170.276 116.364,169.833 116.114,169.431C116.13,170.077 116.15,170.802 116.148,171.607L116.145,177.116L112.49,177.165L112.499,164.044L116.236,163.993L120.668,169.955L120.871,170.236L121.106,170.57C121.186,170.685 121.263,170.796 121.33,170.904L121.51,171.194C121.49,170.928 121.471,170.466 121.471,169.807L121.477,163.924L125.13,163.874L125.121,176.995L121.656,177.043ZM177.653,122L175.188,122.318L174.776,126.21L177.114,127.089L176.665,131.336L164.096,125.444L164.613,120.563L178.106,117.731L177.653,122ZM167.178,123.386C167.313,123.504 167.548,123.57 167.874,123.68C168.2,123.788 169.594,124.31 172.052,125.243L172.316,122.747L168.672,123.276C168.137,123.347 167.636,123.384 167.178,123.386ZM89.816,81.994C89.324,83.04 88.58,84.064 87.576,85.07C86.59,86.059 85.551,86.724 84.457,87.066C83.365,87.405 82.28,87.418 81.205,87.098C80.132,86.783 79.138,86.169 78.227,85.26C77.246,84.283 76.584,83.2 76.242,82.017C75.897,80.83 75.905,79.641 76.259,78.455C76.611,77.265 77.288,76.167 78.293,75.161C79.096,74.358 79.967,73.677 80.911,73.12L83.5,75.698C83.087,75.802 82.656,75.992 82.213,76.264C81.771,76.538 81.368,76.857 81,77.224C80.241,77.985 79.863,78.803 79.862,79.68C79.86,80.551 80.232,81.358 80.98,82.105C81.724,82.846 82.527,83.209 83.393,83.198C84.262,83.187 85.06,82.815 85.791,82.081C86.471,81.4 86.979,80.546 87.322,79.509L89.816,81.994ZM148.03,157.429L153.687,165.708L150.41,167.952L144.753,159.673L141.722,161.748L139.976,159.197L149.347,152.781L151.092,155.333L148.03,157.429ZM111.756,112.015L99.956,105.201L106.509,93.849C107.643,91.888 109.732,91.787 112.78,93.548C113.91,94.198 114.859,95.117 115.626,96.3C116.111,97.033 116.926,98.628 118.069,101.078L111.756,112.015ZM117.357,95.593C116.598,94.101 115.586,92.993 114.33,92.268C113.626,91.863 112.831,91.515 111.944,91.232L128.501,91.283C129.491,91.285 130.285,91.46 130.884,91.805C131.544,92.186 132.202,92.993 132.856,94.223L135.108,98.593L137.674,97.175C138.04,96.987 138.274,96.924 138.38,96.986C138.848,97.256 138.959,97.631 138.709,98.114L132.91,108.751L121.288,108.352C120.848,108.322 120.533,108.256 120.341,108.146C120.042,107.973 119.999,107.704 120.207,107.344L122.755,105.958L117.357,95.593ZM70.016,120.455L59.99,120.516L59.937,116.541L69.963,116.482L69.914,112.811L73.007,112.79L73.159,124.147L70.066,124.165L70.016,120.455ZM128.256,114.283L140.057,107.471L146.611,118.823C147.742,120.784 146.786,122.645 143.736,124.405C142.607,125.057 141.338,125.42 139.93,125.493C139.053,125.546 137.264,125.455 134.57,125.22L128.256,114.283ZM139.677,127.345C141.349,127.433 142.814,127.111 144.07,126.386C144.774,125.979 145.472,125.464 146.16,124.838L137.838,139.151C137.34,140.008 136.792,140.608 136.194,140.953C135.534,141.335 134.506,141.501 133.112,141.453L128.203,141.218L128.148,144.15C128.128,144.56 128.065,144.794 127.959,144.855C127.491,145.126 127.111,145.033 126.817,144.577L120.505,134.235L126.663,124.37C126.907,124.004 127.121,123.764 127.314,123.652C127.612,123.481 127.866,123.577 128.075,123.938L128.002,126.838L139.677,127.345ZM101.01,130.783C100.098,132.187 99.644,133.617 99.644,135.068C99.644,135.879 99.741,136.742 99.939,137.652L91.704,123.287C91.212,122.428 90.966,121.652 90.966,120.962C90.966,120.2 91.336,119.226 92.075,118.044L94.732,113.909L92.222,112.396C91.876,112.175 91.704,112.003 91.704,111.88C91.704,111.339 91.975,111.056 92.518,111.029L104.628,110.734L110.093,120.998C110.289,121.394 110.389,121.701 110.389,121.922C110.389,122.267 110.178,122.439 109.761,122.439L107.287,120.925L101.01,130.783ZM84.716,158.35C83.745,159.239 82.682,159.825 81.534,160.108C80.383,160.391 79.25,160.35 78.138,159.987C77.024,159.626 76.043,158.98 75.189,158.044C74.358,157.137 73.807,156.122 73.538,155.001C73.272,153.878 73.317,152.768 73.683,151.674C74.052,150.58 74.705,149.602 75.643,148.742C76.631,147.84 77.707,147.239 78.879,146.936C80.051,146.634 81.198,146.667 82.317,147.031C83.44,147.393 84.441,148.055 85.323,149.02C86.17,149.947 86.723,150.962 86.979,152.072C87.236,153.181 87.165,154.283 86.767,155.379C86.369,156.476 85.686,157.464 84.716,158.35ZM81.8,155.328C82.597,154.601 83.084,153.876 83.263,153.149C83.442,152.423 83.29,151.796 82.805,151.265C82.273,150.687 81.638,150.436 80.904,150.515C80.164,150.591 79.396,151 78.589,151.738C77.804,152.457 77.334,153.181 77.188,153.903C77.042,154.629 77.219,155.266 77.727,155.819C78.036,156.158 78.412,156.37 78.855,156.458C79.301,156.548 79.775,156.498 80.281,156.308C80.785,156.12 81.291,155.793 81.8,155.328ZM169.241,95.801C170.066,95.521 170.861,95.499 171.624,95.733C172.384,95.967 173.05,96.432 173.621,97.124C174.189,97.82 174.666,98.728 175.044,99.849C175.484,101.147 175.67,102.412 175.596,103.639L172.19,104.795C172.393,104.145 172.511,103.466 172.531,102.757C172.551,102.047 172.472,101.421 172.287,100.876C172.148,100.467 171.965,100.174 171.743,99.998C171.518,99.825 171.266,99.785 170.983,99.882C170.783,99.949 170.62,100.066 170.506,100.228C170.392,100.395 170.308,100.614 170.253,100.886C170.196,101.16 170.156,101.645 170.134,102.344C170.043,104.605 169.141,106.025 167.425,106.606C166.223,107.014 165.107,106.883 164.08,106.214C163.052,105.546 162.276,104.444 161.755,102.905C161.609,102.472 161.489,102.067 161.403,101.691C161.311,101.317 161.244,100.972 161.193,100.654C161.147,100.34 161.103,99.891 161.065,99.303L164.225,98.231C164.015,99.471 164.078,100.594 164.421,101.605C164.564,102.024 164.752,102.33 164.995,102.532C165.239,102.733 165.494,102.788 165.767,102.695C166.023,102.609 166.205,102.433 166.307,102.171C166.408,101.908 166.484,101.404 166.533,100.659C166.616,99.197 166.879,98.092 167.315,97.347C167.749,96.604 168.392,96.087 169.241,95.801ZM66.564,145.395L64.663,141.385L74.7,131.94L76.524,135.783L70.084,141.053C69.565,141.475 69.158,141.765 68.897,141.959C69.301,141.86 69.801,141.731 70.409,141.606L78.493,139.934L80.261,143.657L66.564,145.395ZM139.468,173.422L138.172,171.301L134.446,172.515L134.605,175.007L130.54,176.329L130.772,162.456L135.439,160.937L143.55,172.091L139.468,173.422ZM133.913,164.43C133.861,164.601 133.896,164.843 133.929,165.184C133.966,165.525 134.058,167.009 134.214,169.635L136.602,168.855L134.625,165.748C134.34,165.288 134.102,164.848 133.913,164.43ZM173.784,139.488L170.797,139.295C170.211,139.251 169.716,139.309 169.305,139.461C168.898,139.62 168.622,139.859 168.486,140.184L168.425,140.328L172.674,142.118L171.136,145.762L159.047,140.67L161.087,135.833C161.801,134.142 162.602,133.009 163.497,132.437C164.392,131.863 165.391,131.809 166.499,132.278C167.331,132.627 167.929,133.154 168.292,133.859C168.659,134.567 168.768,135.437 168.65,136.477C169.038,136.037 169.473,135.72 169.972,135.53C170.468,135.336 171.125,135.252 171.934,135.28L175.513,135.382L173.784,139.488ZM165.382,136.361C164.976,136.191 164.605,136.182 164.264,136.33C163.926,136.474 163.643,136.813 163.42,137.339L163.105,138.089L165.867,139.251L166.146,138.596C166.353,138.104 166.378,137.657 166.231,137.244C166.079,136.831 165.796,136.536 165.382,136.361ZM61.537,104.409L64.02,104.518L65.096,100.751L62.941,99.489L64.111,95.379L75.487,103.332L74.139,108.051L60.359,108.534L61.537,104.409ZM72.094,104.831C71.983,104.691 71.764,104.586 71.462,104.422C71.158,104.262 69.874,103.508 67.614,102.169L66.923,104.583L70.604,104.684C71.145,104.706 71.643,104.755 72.094,104.831ZM99.457,69.099C100.088,70.255 100.408,71.424 100.411,72.608C100.413,73.793 100.107,74.887 99.489,75.88C98.876,76.877 98.014,77.677 96.906,78.287C95.827,78.88 94.711,79.174 93.557,79.171C92.405,79.167 91.337,78.858 90.36,78.245C89.385,77.63 88.589,76.764 87.976,75.643C87.333,74.473 87.006,73.282 86.988,72.074C86.973,70.865 87.274,69.759 87.893,68.756C88.51,67.751 89.392,66.933 90.535,66.305C91.636,65.701 92.756,65.402 93.891,65.417C95.031,65.429 96.084,65.758 97.055,66.404C98.027,67.051 98.825,67.949 99.457,69.099ZM95.83,71.219C95.312,70.275 94.724,69.627 94.059,69.284C93.399,68.939 92.752,68.937 92.122,69.282C91.43,69.663 91.039,70.22 90.943,70.954C90.844,71.688 91.059,72.533 91.583,73.491C92.096,74.425 92.688,75.051 93.356,75.368C94.025,75.677 94.687,75.657 95.344,75.296C95.746,75.077 96.04,74.761 96.232,74.349C96.424,73.938 96.488,73.463 96.422,72.93C96.36,72.393 96.161,71.824 95.83,71.219ZM127.005,62.969L125.892,72.935L121.942,72.497L123.058,62.533L119.408,62.13L119.751,59.055L131.039,60.307L130.695,63.378L127.005,62.969ZM94.211,167.545C93.752,168.284 93.154,168.805 92.418,169.109C91.68,169.413 90.87,169.476 89.989,169.304C89.109,169.129 88.165,168.731 87.16,168.107C85.996,167.384 85.049,166.526 84.327,165.529L86.221,162.472C86.475,163.104 86.816,163.701 87.25,164.264C87.687,164.822 88.147,165.257 88.635,165.56C89.002,165.786 89.33,165.898 89.613,165.891C89.896,165.883 90.115,165.755 90.274,165.5C90.385,165.321 90.435,165.125 90.418,164.928C90.404,164.727 90.329,164.504 90.197,164.256C90.068,164.012 89.79,163.61 89.361,163.058C87.996,161.254 87.79,159.582 88.744,158.041C89.411,156.964 90.354,156.356 91.574,156.217C92.791,156.08 94.09,156.438 95.471,157.294C95.858,157.537 96.206,157.775 96.513,158.008C96.82,158.242 97.094,158.464 97.333,158.676C97.569,158.89 97.89,159.21 98.291,159.639L96.534,162.478C95.909,161.384 95.147,160.558 94.24,159.995C93.866,159.763 93.522,159.644 93.207,159.644C92.892,159.642 92.659,159.763 92.507,160.007C92.365,160.239 92.338,160.49 92.425,160.759C92.515,161.022 92.776,161.461 93.21,162.069C94.077,163.25 94.576,164.271 94.713,165.123C94.852,165.974 94.684,166.781 94.211,167.545ZM150.482,84.891L154.954,79.26C155.376,78.729 155.854,78.161 156.391,77.551L156.745,77.062C155.91,77.714 155.35,78.179 155.022,78.426L148.603,83.397L145.696,81.086L148.963,73.726C149.041,73.536 149.391,72.866 149.971,71.674C148.72,73.299 147.959,74.329 147.639,74.73L143.792,79.572L141.079,77.414L149.239,67.141L153.871,70.825L150.853,77.524C150.795,77.666 150.654,77.934 150.431,78.329C150.209,78.724 150.026,79.021 149.913,79.242C150.331,78.864 150.82,78.42 151.406,77.918L157.13,73.417L161.691,77.044L153.534,87.317L150.482,84.891ZM131.332,73.99L135.95,61.711L143.595,64.589L142.507,67.485L138.563,65.999L137.891,67.788L141.592,69.183L140.502,72.075L136.801,70.682L136.122,72.488L140.349,74.08L139.258,76.974L131.332,73.99ZM113.284,72.682L107.573,67.297C107.122,66.874 106.746,66.486 106.428,66.134C106.563,66.767 106.715,67.476 106.86,68.268L107.866,73.684L104.273,74.347L101.876,61.447L105.549,60.77L111.012,65.88L111.263,66.125C111.359,66.218 111.46,66.313 111.556,66.412C111.659,66.512 111.754,66.609 111.841,66.703C111.928,66.799 112,66.886 112.07,66.959C112.002,66.698 111.898,66.247 111.777,65.599L110.704,59.818L114.297,59.154L116.695,72.054L113.284,72.682Z" style="fill:white;"/>
</svg>
