<?xml version="1.0" encoding="UTF-8" standalone="no"?>
<!DOCTYPE svg PUBLIC "-//W3C//DTD SVG 1.1//EN" "http://www.w3.org/Graphics/SVG/1.1/DTD/svg11.dtd">
<svg width="100%" height="100%" viewBox="0 0 1182 1182" version="1.1" xmlns="http://www.w3.org/2000/svg" xmlns:xlink="http://www.w3.org/1999/xlink" xml:space="preserve" xmlns:serif="http://www.serif.com/" style="fill-rule:evenodd;clip-rule:evenodd;stroke-linecap:round;stroke-linejoin:round;stroke-miterlimit:50;">
    <g id="ILUSTRAÇÃO">
    </g>
    <g id="LOGO">
    </g>
    <rect id="ICON" x="0" y="0" width="1181.1" height="1181.1" style="fill:rgb(105,152,205);fill-opacity:0.1;"/>
    <clipPath id="_clip1">
        <rect x="0" y="0" width="1181.1" height="1181.1"/>
    </clipPath>
    <g clip-path="url(#_clip1)">
        <g id="CHAT">
            <rect id="MENU" x="944.902" y="-0" width="236.22" height="236.22" style="fill:white;"/>
            <path d="M1089.75,148.882L1089.74,148.877C1089.38,148.149 1088.97,147.443 1088.52,146.763C1087.81,145.699 1086.99,144.7 1086.07,143.782C1082.4,140.108 1077.41,138.044 1072.22,138.044L1034.26,138.044C1026.65,138.044 1020.49,131.882 1020.49,124.28L1020.49,89.354C1020.49,81.753 1026.65,75.591 1034.26,75.591L1091.25,75.591C1099.14,75.591 1105.53,81.987 1105.53,89.877L1105.53,140.697L1105.53,154.914C1105.53,156.887 1104.51,158.807 1102.68,159.864C1099.95,161.44 1096.46,160.505 1094.88,157.775L1089.75,148.882ZM1095.97,145.503L1098.45,149.789L1098.45,140.697L1098.45,89.877C1098.45,85.899 1095.22,82.674 1091.25,82.674L1034.26,82.674C1030.57,82.674 1027.58,85.665 1027.58,89.354L1027.58,124.28C1027.58,127.97 1030.57,130.96 1034.26,130.96L1072.22,130.96C1079.29,130.96 1086.08,133.771 1091.08,138.774C1092.33,140.023 1093.44,141.384 1094.41,142.832C1094.98,143.693 1095.51,144.585 1095.97,145.503Z"/>
            <path d="M1043.2,98.299L1083.09,98.299" style="fill:none;stroke:black;stroke-width:7.08px;"/>
            <path d="M1063.01,115.335L1083.09,115.335" style="fill:none;stroke:black;stroke-width:7.08px;"/>
        </g>
        <g id="SACOLA">
            <rect id="MENU1" serif:id="MENU" x="708.671" y="0" width="236.22" height="236.22" style="fill:white;"/>
            <g>
                <path d="M854.074,95.775C858.647,95.775 862.978,97.688 865.87,100.985C868.762,104.283 869.909,108.615 868.993,112.786L860.939,149.472C859.49,156.07 853.254,160.808 846.02,160.808L806.393,160.808C798.997,160.808 792.67,155.861 791.394,149.08L784.491,112.393C783.714,108.269 784.937,104.037 787.83,100.832C790.724,97.626 794.991,95.775 799.49,95.775L854.074,95.775ZM854.074,102.858L799.49,102.858C797.028,102.858 794.672,103.823 793.089,105.577C791.708,107.107 791.081,109.115 791.452,111.083L798.355,147.77C799.026,151.333 802.507,153.725 806.393,153.725L846.02,153.725C849.829,153.725 853.258,151.427 854.02,147.953L862.074,111.267C862.511,109.28 861.922,107.227 860.545,105.656C858.964,103.853 856.574,102.858 854.074,102.858Z"/>
                <path d="M808.769,96.944C808.769,85.06 816.84,75.412 826.782,75.412C836.723,75.412 844.795,85.06 844.795,96.944" style="fill:none;stroke:black;stroke-width:7.08px;stroke-linejoin:miter;"/>
                <path d="M808.769,99.275L808.769,111.086" style="fill:none;stroke:black;stroke-width:7.08px;stroke-linejoin:miter;"/>
                <path d="M844.795,99.275L844.795,111.086" style="fill:none;stroke:black;stroke-width:7.08px;stroke-linejoin:miter;"/>
            </g>
        </g>
        <g id="CONTA">
            <rect id="MENU2" serif:id="MENU" x="472.441" y="0" width="236.22" height="236.22" style="fill:white;"/>
            <g id="conta">
                <path d="M590.551,75.412C604.24,75.412 615.354,86.526 615.354,100.216C615.354,113.905 604.24,125.019 590.551,125.019C576.862,125.019 565.748,113.905 565.748,100.216C565.748,86.526 576.862,75.412 590.551,75.412ZM590.551,82.496C580.771,82.496 572.831,90.436 572.831,100.216C572.831,109.995 580.771,117.935 590.551,117.935C600.331,117.935 608.271,109.995 608.271,100.216C608.271,90.436 600.331,82.496 590.551,82.496Z"/>
                <path d="M548.031,160.808C550.353,140.896 568.517,125.375 590.551,125.375C612.585,125.375 630.75,140.896 633.071,160.808" style="fill:none;stroke:black;stroke-width:7.08px;stroke-linejoin:miter;"/>
            </g>
        </g>
        <g id="PESQUISA">
            <rect id="MENU3" serif:id="MENU" x="236.22" y="0" width="236.22" height="236.22" style="fill:white;"/>
            <g id="pesquisar">
                <path d="M345.148,75.459C363.569,75.459 378.524,90.411 378.524,108.829C378.524,127.246 363.569,142.199 345.148,142.199C326.727,142.199 311.772,127.246 311.772,108.829C311.772,90.411 326.727,75.459 345.148,75.459ZM345.148,82.542C330.637,82.542 318.855,94.32 318.855,108.829C318.855,123.337 330.637,135.115 345.148,135.115C359.659,135.115 371.441,123.337 371.441,108.829C371.441,94.32 359.659,82.542 345.148,82.542Z"/>
                <path d="M368.618,132.49L396.89,160.762" style="fill:none;stroke:black;stroke-width:7.08px;stroke-linejoin:miter;"/>
            </g>
        </g>
        <g id="MENU4" serif:id="MENU">
            <rect id="MENU5" serif:id="MENU" x="0" y="0" width="236.22" height="236.22" style="fill:white;"/>
            <path id="MENOS" d="M160.63,75.459L75.591,75.459" style="fill:none;stroke:black;stroke-width:7.08px;stroke-miterlimit:1.5;"/>
            <path id="MENOS1" serif:id="MENOS" d="M160.63,118.11L75.591,118.11" style="fill:none;stroke:black;stroke-width:7.08px;stroke-miterlimit:1.5;"/>
            <path id="MENOS2" serif:id="MENOS" d="M160.63,160.762L75.591,160.762" style="fill:none;stroke:black;stroke-width:7.08px;stroke-miterlimit:1.5;"/>
        </g>
        <g id="MENIS">
            <rect id="MENU6" serif:id="MENU" x="0" y="236.22" width="236.22" height="236.22" style="fill:white;"/>
            <path id="MENOS3" serif:id="MENOS" d="M160.63,354.331L75.591,354.331" style="fill:none;stroke:black;stroke-width:7.08px;stroke-miterlimit:1.5;"/>
        </g>
        <g id="MENIS1" serif:id="MENIS">
            <rect id="MENU7" serif:id="MENU" x="236.261" y="944.882" width="236.22" height="236.22" style="fill:white;"/>
            <path id="MENOS4" serif:id="MENOS" d="M396.891,1062.99L311.851,1062.99" style="fill:none;stroke:black;stroke-width:7.08px;stroke-miterlimit:1.5;"/>
        </g>
        <g id="MENIS2" serif:id="MENIS">
            <rect id="MENU8" serif:id="MENU" x="236.14" y="708.661" width="236.22" height="236.22" style="fill:white;"/>
            <path id="MENOS5" serif:id="MENOS" d="M396.77,826.772L311.73,826.772" style="fill:none;stroke:black;stroke-width:7.08px;stroke-miterlimit:1.5;"/>
        </g>
        <g id="MENIS3" serif:id="MENIS">
            <rect id="MENU9" serif:id="MENU" x="-0.02" y="944.882" width="236.22" height="236.22" style="fill:white;"/>
            <path id="MENOS6" serif:id="MENOS" d="M160.61,1062.99L75.57,1062.99" style="fill:none;stroke:black;stroke-width:7.08px;stroke-miterlimit:1.5;"/>
        </g>
        <g id="MENIS4" serif:id="MENIS">
            <rect id="MENU10" serif:id="MENU" x="-0.141" y="708.661" width="236.22" height="236.22" style="fill:white;"/>
            <path id="MENOS7" serif:id="MENOS" d="M160.489,826.772L75.449,826.772" style="fill:none;stroke:black;stroke-width:7.08px;stroke-miterlimit:1.5;"/>
        </g>
        <g id="MENIS5" serif:id="MENIS">
            <rect id="MENU11" serif:id="MENU" x="472.441" y="944.882" width="236.22" height="236.22" style="fill:white;"/>
            <path id="MENOS8" serif:id="MENOS" d="M633.071,1062.99L548.031,1062.99" style="fill:none;stroke:black;stroke-width:7.08px;stroke-miterlimit:1.5;"/>
        </g>
        <g id="MENIS6" serif:id="MENIS">
            <rect id="MENU12" serif:id="MENU" x="472.32" y="708.661" width="236.22" height="236.22" style="fill:white;"/>
            <path id="MENOS9" serif:id="MENOS" d="M632.95,826.772L547.911,826.772" style="fill:none;stroke:black;stroke-width:7.08px;stroke-miterlimit:1.5;"/>
        </g>
        <g id="MENIS7" serif:id="MENIS">
            <rect id="MENU13" serif:id="MENU" x="708.722" y="944.882" width="236.22" height="236.22" style="fill:white;"/>
            <path id="MENOS10" serif:id="MENOS" d="M869.352,1062.99L784.312,1062.99" style="fill:none;stroke:black;stroke-width:7.08px;stroke-miterlimit:1.5;"/>
        </g>
        <g id="MENIS8" serif:id="MENIS">
            <rect id="MENU14" serif:id="MENU" x="708.601" y="708.661" width="236.22" height="236.22" style="fill:white;"/>
            <path id="MENOS11" serif:id="MENOS" d="M869.231,826.772L784.191,826.772" style="fill:none;stroke:black;stroke-width:7.08px;stroke-miterlimit:1.5;"/>
        </g>
        <g id="MENIS9" serif:id="MENIS">
            <rect id="MENU15" serif:id="MENU" x="945.003" y="944.882" width="236.22" height="236.22" style="fill:white;"/>
            <path id="MENOS12" serif:id="MENOS" d="M1105.63,1062.99L1020.59,1062.99" style="fill:none;stroke:black;stroke-width:7.08px;stroke-miterlimit:1.5;"/>
        </g>
        <g id="MENIS10" serif:id="MENIS">
            <rect id="MENU16" serif:id="MENU" x="944.882" y="708.661" width="236.22" height="236.22" style="fill:white;"/>
            <path id="MENOS13" serif:id="MENOS" d="M1105.51,826.772L1020.47,826.772" style="fill:none;stroke:black;stroke-width:7.08px;stroke-miterlimit:1.5;"/>
        </g>
        <g id="CORACAO">
            <rect id="MENU17" serif:id="MENU" x="0.01" y="472.441" width="236.22" height="236.22" style="fill:white;"/>
            <path d="M118.12,562.24C118.695,562.24 119.228,561.887 119.531,561.306C128.335,544.502 143.276,545.792 152.001,554.366C178.374,580.283 137.292,619.171 122.842,631.405C119.954,633.85 116.287,633.85 113.399,631.405C98.948,619.171 57.866,580.283 84.239,554.366C92.965,545.792 107.905,544.502 116.709,561.306C117.013,561.887 117.546,562.24 118.12,562.24ZM118.12,569.323L115.595,568.939L113.403,567.897L111.674,566.393L110.432,564.589C107.954,559.86 104.978,556.971 101.675,555.829C97.202,554.282 92.529,556.151 89.204,559.419C81.033,567.449 81.598,577.141 85.483,586.422C92.549,603.304 109.831,619.104 117.975,625.999C118.064,626.074 118.177,626.074 118.265,625.999C126.409,619.104 143.692,603.304 150.758,586.422C154.642,577.141 155.208,567.449 147.036,559.419C143.711,556.151 139.039,554.282 134.566,555.829C131.262,556.971 128.286,559.86 125.81,564.585L124.567,566.393L122.838,567.897L120.646,568.939L118.12,569.323Z"/>
        </g>
        <g id="FECHAR">
            <rect id="MENU18" serif:id="MENU" x="472.441" y="236.22" width="236.22" height="236.22" style="fill:white;"/>
            <path id="MENOS14" serif:id="MENOS" d="M620.617,384.397L560.485,324.265" style="fill:none;stroke:black;stroke-width:7.08px;stroke-miterlimit:1.5;"/>
            <path id="MENOS15" serif:id="MENOS" d="M560.485,384.397L620.617,324.265" style="fill:none;stroke:black;stroke-width:7.08px;stroke-miterlimit:1.5;"/>
        </g>
        <g id="FECHAR1" serif:id="FECHAR">
            <rect id="MENU19" serif:id="MENU" x="236.231" y="236.22" width="236.22" height="236.22" style="fill:white;"/>
            <path id="MENOS16" serif:id="MENOS" d="M311.822,354.645L396.859,354.016" style="fill:none;stroke:black;stroke-width:7.08px;stroke-miterlimit:1.5;"/>
            <path id="MENOS17" serif:id="MENOS" d="M354.026,311.812L354.655,396.849" style="fill:none;stroke:black;stroke-width:7.08px;stroke-miterlimit:1.5;"/>
        </g>
        <g id="ENVIAR">
            <rect id="MENU20" serif:id="MENU" x="236.241" y="472.441" width="236.22" height="236.22" style="fill:white;"/>
            <path d="M396.871,590.551C396.871,604.724 326.453,633.071 314.93,633.071C303.407,633.071 327.733,590.551 327.733,590.551C327.733,590.551 303.407,548.031 314.93,548.031C326.453,548.031 396.871,576.378 396.871,590.551ZM319.783,556.03C320.138,557.504 320.588,559.147 321.104,560.547C325.447,572.322 333.881,587.034 333.881,587.034L335.894,590.551L333.881,594.069C333.881,594.069 325.447,608.781 321.104,620.555C320.588,621.956 320.138,623.599 319.783,625.073C321.704,624.549 324.001,623.829 326.574,622.984C341.116,618.211 363.066,608.925 377.635,599.954C381.731,597.432 385.214,594.967 387.651,592.63C388.286,592.021 388.983,591.137 389.423,590.551C388.983,589.965 388.286,589.081 387.651,588.472C385.214,586.135 381.731,583.67 377.635,581.148C363.066,572.177 341.116,562.891 326.574,558.118C324.001,557.273 321.704,556.553 319.783,556.03Z"/>
            <path d="M391.922,590.551L327.733,590.551" style="fill:none;stroke:black;stroke-width:7.08px;stroke-linecap:butt;stroke-linejoin:miter;stroke-miterlimit:1.5;"/>
        </g>
        <g id="CLIP">
            <rect id="MENU21" serif:id="MENU" x="472.471" y="472.441" width="236.22" height="236.22" style="fill:white;"/>
            <path d="M624.938,577.082L598.906,622.17C595.8,627.55 590.742,631.509 584.845,633.177C578.947,634.845 572.694,634.084 567.46,631.063C567.005,630.8 566.56,630.521 566.127,630.229C561.585,627.158 558.31,622.489 556.937,617.065C555.433,611.124 556.333,604.764 559.439,599.383L582.683,559.123L559.439,599.383L582.683,559.123C585.79,553.743 589.458,549.235 595.355,547.567C599.465,546.405 604.328,547.383 607.263,549.03C616.769,554.368 616.546,563.139 613.448,568.506C609.034,576.151 603.521,585.693 598.192,594.917C594.394,601.49 590.69,607.902 587.545,613.35C584.556,618.527 578.823,620.814 574.74,618.456L574.738,618.455C572.777,617.323 571.467,615.25 571.096,612.692C570.725,610.133 571.323,607.299 572.758,604.813L594.85,566.549" style="fill:none;stroke:black;stroke-width:7.08px;stroke-linejoin:miter;stroke-miterlimit:1.5;"/>
        </g>
        <g id="CARINHA">
            <rect id="MENU22" serif:id="MENU" x="708.702" y="472.441" width="236.22" height="236.22" style="fill:white;"/>
            <g>
                <path d="M826.812,547.059C850.279,547.059 869.332,566.112 869.332,589.579C869.332,613.046 850.279,632.099 826.812,632.099C803.345,632.099 784.292,613.046 784.292,589.579C784.292,566.112 803.345,547.059 826.812,547.059ZM826.812,554.143C807.254,554.143 791.376,570.021 791.376,589.579C791.376,609.137 807.254,625.015 826.812,625.015C846.37,625.015 862.248,609.137 862.248,589.579C862.248,570.021 846.37,554.143 826.812,554.143Z"/>
                <path d="M844.719,597.727C842.876,601.085 836.645,609.251 826.812,609.538C816.979,609.251 810.748,601.085 808.905,597.727" style="fill:none;stroke:black;stroke-width:7.08px;stroke-miterlimit:1.5;"/>
                <circle cx="842.065" cy="575.526" r="5.906"/>
                <path d="M842.065,569.62C845.324,569.62 847.97,572.266 847.97,575.526C847.97,578.785 845.324,581.431 842.065,581.431C838.805,581.431 836.159,578.785 836.159,575.526C836.159,572.266 838.805,569.62 842.065,569.62ZM842.065,576.703C842.715,576.703 843.242,576.176 843.242,575.526C843.242,574.876 842.715,574.348 842.065,574.348C841.415,574.348 840.887,574.876 840.887,575.526C840.887,576.176 841.415,576.703 842.065,576.703Z"/>
                <circle cx="811.559" cy="575.526" r="5.906"/>
                <path d="M811.559,569.62C814.819,569.62 817.465,572.266 817.465,575.526C817.465,578.785 814.819,581.431 811.559,581.431C808.3,581.431 805.654,578.785 805.654,575.526C805.654,572.266 808.3,569.62 811.559,569.62ZM811.559,576.703C812.209,576.703 812.737,576.176 812.737,575.526C812.737,574.876 812.209,574.348 811.559,574.348C810.909,574.348 810.382,574.876 810.382,575.526C810.382,576.176 810.909,576.703 811.559,576.703Z"/>
            </g>
        </g>
        <g id="CUPOM">
            <rect id="MENU23" serif:id="MENU" x="944.942" y="472.441" width="236.22" height="236.22" style="fill:white;"/>
            <g>
                <path d="M1063.05,547.059C1086.52,547.059 1105.57,566.112 1105.57,589.579C1105.57,613.046 1086.52,632.099 1063.05,632.099C1039.59,632.099 1020.53,613.046 1020.53,589.579C1020.53,566.112 1039.59,547.059 1063.05,547.059ZM1063.05,554.143C1043.5,554.143 1027.62,570.021 1027.62,589.579C1027.62,609.137 1043.5,625.015 1063.05,625.015C1082.61,625.015 1098.49,609.137 1098.49,589.579C1098.49,570.021 1082.61,554.143 1063.05,554.143Z"/>
                <path d="M1080.96,597.727C1079.12,601.085 1072.89,609.251 1063.05,609.538C1053.22,609.251 1046.99,601.085 1045.14,597.727" style="fill:none;stroke:black;stroke-width:7.08px;stroke-miterlimit:1.5;"/>
                <circle cx="1078.31" cy="575.526" r="5.906"/>
                <path d="M1078.31,569.62C1081.57,569.62 1084.21,572.266 1084.21,575.526C1084.21,578.785 1081.57,581.431 1078.31,581.431C1075.05,581.431 1072.4,578.785 1072.4,575.526C1072.4,572.266 1075.05,569.62 1078.31,569.62ZM1078.31,576.703C1078.95,576.703 1079.48,576.176 1079.48,575.526C1079.48,574.876 1078.95,574.348 1078.31,574.348C1077.65,574.348 1077.13,574.876 1077.13,575.526C1077.13,576.176 1077.65,576.703 1078.31,576.703Z"/>
                <circle cx="1047.8" cy="575.526" r="5.906"/>
                <path d="M1047.8,569.62C1051.06,569.62 1053.7,572.266 1053.7,575.526C1053.7,578.785 1051.06,581.431 1047.8,581.431C1044.54,581.431 1041.89,578.785 1041.89,575.526C1041.89,572.266 1044.54,569.62 1047.8,569.62ZM1047.8,576.703C1048.45,576.703 1048.98,576.176 1048.98,575.526C1048.98,574.876 1048.45,574.348 1047.8,574.348C1047.15,574.348 1046.62,574.876 1046.62,575.526C1046.62,576.176 1047.15,576.703 1047.8,576.703Z"/>
            </g>
        </g>
        <g id="DESCER">
            <rect id="MENU24" serif:id="MENU" x="708.671" y="236.22" width="236.22" height="236.22" style="fill:white;"/>
            <path id="MENOS18" serif:id="MENOS" d="M826.782,369.364L796.716,339.298" style="fill:none;stroke:black;stroke-width:7.08px;stroke-miterlimit:1.5;"/>
            <path id="MENOS19" serif:id="MENOS" d="M826.782,369.364L856.848,339.298" style="fill:none;stroke:black;stroke-width:7.08px;stroke-miterlimit:1.5;"/>
        </g>
        <g id="SUBIR">
            <rect id="MENU25" serif:id="MENU" x="944.902" y="236.22" width="236.22" height="236.22" style="fill:white;"/>
            <path id="MENOS20" serif:id="MENOS" d="M1063.01,339.298L1032.95,369.364" style="fill:none;stroke:black;stroke-width:7.08px;stroke-miterlimit:1.5;"/>
            <path id="MENOS21" serif:id="MENOS" d="M1063.01,339.298L1093.08,369.364" style="fill:none;stroke:black;stroke-width:7.08px;stroke-miterlimit:1.5;"/>
        </g>
    </g>
</svg>
