<?xml version="1.0" encoding="UTF-8" standalone="no"?>
<!DOCTYPE svg PUBLIC "-//W3C//DTD SVG 1.1//EN" "http://www.w3.org/Graphics/SVG/1.1/DTD/svg11.dtd">
<svg width="100%" height="100%" viewBox="0 0 238 237" version="1.1" xmlns="http://www.w3.org/2000/svg" xmlns:xlink="http://www.w3.org/1999/xlink" xml:space="preserve" xmlns:serif="http://www.serif.com/" style="fill-rule:evenodd;clip-rule:evenodd;stroke-linejoin:round;stroke-miterlimit:2;">
    <rect id="icon_3" x="0.992" y="0" width="236.22" height="236.22"/>
    <path id="animais" d="M61.617,104.409L64.1,104.518L65.176,100.751L63.021,99.489L64.192,95.379L75.567,103.332L74.22,108.051L60.44,108.534L61.617,104.409ZM72.174,104.831C72.063,104.691 71.844,104.586 71.543,104.422C71.238,104.262 69.954,103.508 67.694,102.169L67.003,104.583L70.685,104.684C71.225,104.706 71.724,104.755 72.174,104.831ZM139.549,173.422L138.253,171.301L134.526,172.515L134.685,175.007L130.621,176.329L130.852,162.456L135.519,160.937L143.63,172.091L139.549,173.422ZM133.993,164.43C133.942,164.601 133.976,164.843 134.009,165.184C134.046,165.525 134.139,167.009 134.294,169.635L136.682,168.855L134.705,165.748C134.42,165.288 134.183,164.848 133.993,164.43ZM131.413,73.99L136.031,61.711L143.676,64.589L142.587,67.485L138.643,65.999L137.971,67.788L141.672,69.183L140.583,72.075L136.881,70.682L136.202,72.488L140.429,74.08L139.339,76.974L131.413,73.99ZM70.096,120.455L60.071,120.516L60.018,116.541L70.044,116.482L69.994,112.811L73.087,112.79L73.239,124.147L70.146,124.165L70.096,120.455ZM89.896,81.994C89.405,83.04 88.66,84.064 87.656,85.07C86.67,86.059 85.631,86.724 84.537,87.066C83.445,87.405 82.361,87.418 81.286,87.098C80.212,86.783 79.219,86.169 78.307,85.26C77.327,84.283 76.664,83.2 76.323,82.017C75.977,80.83 75.985,79.641 76.339,78.455C76.692,77.265 77.369,76.167 78.374,75.161C79.177,74.358 80.048,73.677 80.991,73.12L83.581,75.698C83.168,75.802 82.737,75.992 82.294,76.264C81.852,76.538 81.448,76.857 81.081,77.224C80.321,77.985 79.943,78.803 79.942,79.68C79.94,80.551 80.312,81.358 81.061,82.105C81.804,82.846 82.607,83.209 83.473,83.198C84.342,83.187 85.14,82.815 85.872,82.081C86.551,81.4 87.059,80.546 87.402,79.509L89.896,81.994ZM84.797,158.35C83.825,159.239 82.763,159.825 81.614,160.108C80.464,160.391 79.33,160.35 78.218,159.987C77.104,159.626 76.124,158.98 75.269,158.044C74.439,157.137 73.887,156.122 73.619,155.001C73.352,153.878 73.398,152.768 73.763,151.674C74.132,150.58 74.785,149.602 75.724,148.742C76.712,147.84 77.787,147.239 78.959,146.936C80.131,146.634 81.278,146.667 82.397,147.031C83.52,147.393 84.521,148.055 85.403,149.02C86.25,149.947 86.803,150.962 87.059,152.072C87.317,153.181 87.245,154.283 86.847,155.379C86.449,156.476 85.766,157.464 84.797,158.35ZM81.881,155.328C82.677,154.601 83.165,153.876 83.343,153.149C83.522,152.423 83.371,151.796 82.885,151.265C82.354,150.687 81.718,150.436 80.984,150.515C80.245,150.591 79.476,151 78.669,151.738C77.884,152.457 77.414,153.181 77.269,153.903C77.123,154.629 77.3,155.266 77.807,155.819C78.116,156.158 78.492,156.37 78.936,156.458C79.381,156.548 79.856,156.498 80.361,156.308C80.866,156.12 81.371,155.793 81.881,155.328ZM121.736,177.043L117.107,170.771C116.742,170.276 116.445,169.833 116.194,169.431C116.211,170.077 116.231,170.802 116.229,171.607L116.226,177.116L112.57,177.165L112.579,164.044L116.316,163.993L120.748,169.955L120.951,170.236L121.186,170.57C121.267,170.685 121.343,170.796 121.411,170.904L121.59,171.194C121.57,170.928 121.551,170.466 121.551,169.807L121.557,163.924L125.211,163.874L125.202,176.995L121.736,177.043ZM61.002,129.01L73.811,126.174L74.663,130.036L61.853,132.871L61.002,129.01ZM99.537,69.099C100.169,70.255 100.488,71.424 100.492,72.608C100.493,73.793 100.187,74.887 99.57,75.88C98.957,76.877 98.095,77.677 96.986,78.287C95.907,78.88 94.792,79.174 93.637,79.171C92.486,79.167 91.417,78.858 90.441,78.245C89.465,77.63 88.669,76.764 88.056,75.643C87.413,74.473 87.086,73.282 87.068,72.074C87.053,70.865 87.355,69.759 87.974,68.756C88.591,67.751 89.472,66.933 90.616,66.305C91.717,65.701 92.836,65.402 93.972,65.417C95.111,65.429 96.164,65.758 97.136,66.404C98.107,67.051 98.905,67.949 99.537,69.099ZM95.911,71.219C95.392,70.275 94.805,69.627 94.14,69.284C93.479,68.939 92.832,68.937 92.202,69.282C91.51,69.663 91.119,70.22 91.023,70.954C90.924,71.688 91.139,72.533 91.664,73.491C92.177,74.425 92.768,75.051 93.436,75.368C94.105,75.677 94.768,75.657 95.425,75.296C95.827,75.077 96.12,74.761 96.312,74.349C96.504,73.938 96.568,73.463 96.502,72.93C96.44,72.393 96.241,71.824 95.911,71.219ZM150.563,84.891L155.034,79.26C155.456,78.729 155.934,78.161 156.471,77.551L156.826,77.062C155.991,77.714 155.43,78.179 155.102,78.426L148.684,83.397L145.777,81.086L149.044,73.726C149.122,73.536 149.471,72.866 150.051,71.674C148.8,73.299 148.039,74.329 147.72,74.73L143.873,79.572L141.16,77.414L149.32,67.141L153.951,70.825L150.933,77.524C150.875,77.666 150.734,77.934 150.512,78.329C150.289,78.724 150.106,79.021 149.993,79.242C150.411,78.864 150.9,78.42 151.486,77.918L157.211,73.417L161.772,77.044L153.614,87.317L150.563,84.891ZM94.291,167.545C93.833,168.284 93.234,168.805 92.498,169.109C91.76,169.413 90.95,169.476 90.07,169.304C89.19,169.129 88.245,168.731 87.24,168.107C86.077,167.384 85.129,166.526 84.408,165.529L86.301,162.472C86.555,163.104 86.897,163.701 87.331,164.264C87.767,164.822 88.227,165.257 88.715,165.56C89.082,165.786 89.411,165.898 89.693,165.891C89.977,165.883 90.196,165.755 90.354,165.5C90.466,165.321 90.515,165.125 90.499,164.928C90.484,164.727 90.41,164.504 90.278,164.256C90.148,164.012 89.871,163.61 89.442,163.058C88.076,161.254 87.87,159.582 88.824,158.041C89.491,156.964 90.435,156.356 91.655,156.217C92.871,156.08 94.171,156.438 95.551,157.294C95.938,157.537 96.287,157.775 96.593,158.008C96.901,158.242 97.174,158.464 97.413,158.676C97.649,158.89 97.97,159.21 98.372,159.639L96.614,162.478C95.989,161.384 95.228,160.558 94.32,159.995C93.946,159.763 93.603,159.644 93.287,159.644C92.973,159.642 92.739,159.763 92.587,160.007C92.445,160.239 92.418,160.49 92.506,160.759C92.595,161.022 92.856,161.461 93.291,162.069C94.158,163.25 94.656,164.271 94.794,165.123C94.932,165.974 94.764,166.781 94.291,167.545ZM127.086,62.969L125.972,72.935L122.023,72.497L123.138,62.533L119.488,62.13L119.831,59.055L131.119,60.307L130.776,63.378L127.086,62.969ZM113.364,72.682L107.653,67.297C107.202,66.874 106.826,66.486 106.508,66.134C106.643,66.767 106.795,67.476 106.941,68.268L107.947,73.684L104.354,74.347L101.956,61.447L105.63,60.77L111.093,65.88L111.343,66.125C111.44,66.218 111.54,66.313 111.637,66.412C111.739,66.512 111.834,66.609 111.922,66.703C112.008,66.799 112.081,66.886 112.15,66.959C112.083,66.698 111.978,66.247 111.858,65.599L110.784,59.818L114.378,59.154L116.775,72.054L113.364,72.682ZM140.95,62.261L138.373,61.292L141.97,59.508L145.035,60.664L140.95,62.261ZM66.644,145.395L64.743,141.385L74.78,131.94L76.604,135.783L70.164,141.053C69.646,141.475 69.239,141.765 68.977,141.959C69.381,141.86 69.881,141.731 70.489,141.606L78.574,139.934L80.341,143.657L66.644,145.395ZM115.441,117.198C117.358,118.167 121.819,118.116 121.819,118.116C126.693,118.037 131.799,117.128 137.297,121.49C138.793,123.028 139.972,125.126 140.616,127.422C140.774,127.408 140.933,127.399 141.095,127.399C143.924,127.399 146.212,129.692 146.212,132.518C146.212,135.317 143.964,137.594 141.17,137.634L137.676,139.569C136.625,140.557 135.312,141.423 133.7,142.106C132.724,143.718 133.818,145.118 126.806,144.86C123.442,144.736 120.634,145.309 117.698,145.214C113.811,145.086 113.934,141.671 115.957,139.893C119.412,136.854 120.447,140.375 122.829,139.127C120.186,138.281 117.698,135.916 115.441,135.072C114.506,136.927 112.313,141.671 111.13,143.214C109.722,145.05 106.177,145.308 103.37,144.69C102.271,144.47 101.447,143.57 101.447,142.493C101.447,142.436 101.45,142.378 101.455,142.322C101.755,139.941 103.651,139.407 106.429,139.134C107.39,136.498 107.643,134.371 107.401,132.637L105.726,128.871C102.18,124.732 94.385,124.584 92.784,122.704C90.752,120.322 93.063,116.954 94.547,114.739C97.39,110.488 98.999,110.713 100.667,109.061C100.416,107.603 100.27,104.906 100.414,102.038L100.98,97.157C101.561,94.223 102.606,91.803 104.342,91.244C107.284,90.297 107.861,92.48 108.942,93.904C116.424,93.212 113.369,101.584 110.874,107.121C110.738,107.431 108.922,111.401 108.878,111.568C111.041,114.658 113.285,116.107 115.441,117.198ZM173.865,139.488L170.877,139.295C170.291,139.251 169.796,139.309 169.385,139.461C168.978,139.62 168.703,139.859 168.566,140.184L168.505,140.328L172.754,142.118L171.217,145.762L159.128,140.67L161.168,135.833C161.881,134.142 162.683,133.009 163.577,132.437C164.472,131.863 165.471,131.809 166.579,132.278C167.412,132.627 168.009,133.154 168.372,133.859C168.739,134.567 168.849,135.437 168.73,136.477C169.119,136.037 169.553,135.72 170.052,135.53C170.549,135.336 171.206,135.252 172.015,135.28L175.593,135.382L173.865,139.488ZM165.462,136.361C165.056,136.191 164.686,136.182 164.344,136.33C164.006,136.474 163.723,136.813 163.501,137.339L163.185,138.089L165.948,139.251L166.227,138.596C166.433,138.104 166.458,137.657 166.311,137.244C166.159,136.831 165.876,136.536 165.462,136.361ZM148.111,157.429L153.767,165.708L150.49,167.952L144.833,159.673L141.802,161.748L140.056,159.197L149.427,152.781L151.173,155.333L148.111,157.429ZM169.322,95.801C170.147,95.521 170.941,95.499 171.704,95.733C172.464,95.967 173.13,96.432 173.702,97.124C174.27,97.82 174.746,98.728 175.125,99.849C175.564,101.147 175.751,102.412 175.676,103.639L172.27,104.795C172.473,104.145 172.592,103.466 172.612,102.757C172.632,102.047 172.552,101.421 172.367,100.876C172.229,100.467 172.046,100.174 171.823,99.998C171.599,99.825 171.347,99.785 171.063,99.882C170.863,99.949 170.7,100.066 170.587,100.228C170.472,100.395 170.388,100.614 170.333,100.886C170.277,101.16 170.236,101.645 170.214,102.344C170.123,104.605 169.221,106.025 167.505,106.606C166.303,107.014 165.188,106.883 164.16,106.214C163.132,105.546 162.356,104.444 161.836,102.905C161.689,102.472 161.569,102.067 161.483,101.691C161.392,101.317 161.324,100.972 161.273,100.654C161.227,100.34 161.184,99.891 161.146,99.303L164.306,98.231C164.096,99.471 164.158,100.594 164.502,101.605C164.644,102.024 164.832,102.33 165.075,102.532C165.32,102.733 165.575,102.788 165.847,102.695C166.103,102.609 166.285,102.433 166.388,102.171C166.488,101.908 166.565,101.404 166.614,100.659C166.696,99.197 166.959,98.092 167.396,97.347C167.83,96.604 168.473,96.087 169.322,95.801ZM177.588,112.774L164.572,114.421L164.083,110.495L177.098,108.85L177.588,112.774ZM163.424,147.365C165.047,148.703 165.948,150.069 166.126,151.459C166.302,152.85 165.754,154.316 164.481,155.857C163.293,157.298 161.998,158.066 160.594,158.163C159.191,158.258 157.694,157.652 156.11,156.347L150.554,151.769L153.084,148.705L158.753,153.376C159.401,153.911 159.999,154.201 160.552,154.249C161.103,154.292 161.564,154.091 161.938,153.637C162.314,153.183 162.437,152.7 162.303,152.189C162.17,151.678 161.781,151.159 161.136,150.63L155.396,145.899L157.924,142.835L163.424,147.365ZM177.733,122L175.269,122.318L174.856,126.21L177.195,127.089L176.746,131.336L164.176,125.444L164.693,120.563L178.186,117.731L177.733,122ZM167.258,123.386C167.394,123.504 167.629,123.57 167.954,123.68C168.281,123.788 169.674,124.31 172.132,125.243L172.397,122.747L168.752,123.276C168.217,123.347 167.716,123.384 167.258,123.386Z" style="fill:white;"/>
</svg>
