<?xml version="1.0" encoding="UTF-8" standalone="no"?>
<!DOCTYPE svg PUBLIC "-//W3C//DTD SVG 1.1//EN" "http://www.w3.org/Graphics/SVG/1.1/DTD/svg11.dtd">
<svg width="100%" height="100%" viewBox="0 0 1329 1329" version="1.1" xmlns="http://www.w3.org/2000/svg" xmlns:xlink="http://www.w3.org/1999/xlink" xml:space="preserve" xmlns:serif="http://www.serif.com/" style="fill-rule:evenodd;clip-rule:evenodd;stroke-linecap:round;stroke-linejoin:round;stroke-miterlimit:2;">
    <g id="ILUSTRAÇÃO">
    </g>
    <g id="LOGO">
    </g>
    <rect id="ICON" x="0" y="0" width="1328.74" height="1328.74" style="fill:white;"/>
    <clipPath id="_clip1">
        <rect x="0" y="0" width="1328.74" height="1328.74"/>
    </clipPath>
    <g clip-path="url(#_clip1)">
        <g id="HUSKY">
            <rect id="MENU" x="1018.83" y="1018.7" width="236.22" height="236.22" style="fill:white;"/>
            <path d="M1094.42,1179.59C1098.92,1177.99 1107.92,1174.77 1112.13,1171.1C1116.18,1167.58 1117.15,1162.07 1119.71,1157.58C1122.32,1153 1130.7,1146.8 1127.78,1143.64C1126.22,1141.95 1111.04,1143.26 1108,1134.02C1107.06,1131.15 1124.6,1129.37 1128.26,1124.27C1140.54,1107.16 1143.96,1114.73 1148.61,1110.88C1154.7,1105.83 1163.16,1091.94 1166.03,1094.29C1175.12,1101.76 1167.34,1110.17 1167.96,1112.91C1168.75,1116.37 1177.69,1110.42 1179.06,1110.51C1180.17,1110.59 1178.91,1120.27 1176.43,1124.42C1173.86,1128.72 1164.45,1131.59 1163.65,1136.31C1162.85,1141.03 1169.42,1147.11 1171.63,1152.75C1176.03,1164.01 1173.71,1169.7 1173.21,1179.59" style="fill:none;stroke:black;stroke-width:7.2px;"/>
        </g>
        <g id="BULDOGUE">
            <rect id="MENU1" serif:id="MENU" x="782.551" y="1018.7" width="236.22" height="236.22" style="fill:white;"/>
            <path d="M897.155,1179.33C898.953,1174.98 898.567,1174.73 903.074,1161.84C903.342,1161.08 905.561,1163.98 907.845,1162.89C911.271,1161.24 909.693,1157.92 911.095,1157.95C913.407,1158.02 916.323,1161.29 919.065,1162.74C930.392,1168.71 942.034,1150.01 942.995,1139.25C943.073,1138.38 943.125,1137.56 943.154,1136.81C943.204,1135.53 943.183,1134.44 943.101,1133.65C942.887,1131.61 933.386,1127.49 933.204,1127.46C932.822,1127.39 934.557,1113.43 919.646,1111.09C918.226,1110.86 919.911,1106.49 917.07,1096.73C916.698,1095.45 909.129,1104.33 908.413,1102.62C906.674,1098.49 901.796,1094.2 898.774,1094.29C894.394,1094.42 893.431,1099.18 893.117,1103.65C893.063,1104.42 892.6,1111.02 892.515,1113.21C892.459,1114.66 890.737,1114.82 888.376,1117.83C882.143,1125.77 883.419,1131.79 881.935,1131.82C875.121,1131.99 875.089,1138.16 873.659,1138.24C864.905,1138.69 866.677,1139.76 858.141,1142.81" style="fill:none;stroke:black;stroke-width:7.08px;"/>
        </g>
        <g id="POODLE">
            <rect id="MENU2" serif:id="MENU" x="546.27" y="1018.7" width="236.22" height="236.22" style="fill:white;"/>
            <path d="M680.91,1179.61C685.266,1176.92 679.837,1174.69 682.9,1172.43C686.472,1169.79 682.92,1168.27 683.267,1166.15C683.881,1162.41 684.894,1161.71 684.456,1160.01C684.017,1158.32 681.051,1157.77 680.635,1155.98C679.732,1152.08 674.485,1134.86 679.041,1136.65C700.776,1145.18 705.621,1133.24 706.838,1129.23C708.132,1124.97 689.488,1117.03 690.974,1114.59C692.729,1111.71 692.421,1106.77 688.456,1104.05C684.344,1101.23 683.885,1097.06 681.233,1095.84C678.593,1094.63 673.98,1097.08 672.547,1096.75C669.357,1096.01 666.912,1093.69 664.903,1094.05C662.894,1094.4 662.964,1099.46 660.494,1098.9C654.584,1097.56 657.948,1101.93 654.832,1102.71C653.497,1103.05 649.469,1103.03 651.594,1107.95C653.34,1111.99 644.778,1109.43 645.435,1113.97C646.119,1118.69 641.644,1117.57 641.226,1119.58C640.807,1121.59 643.357,1124.42 642.924,1126.03C642.437,1127.84 640.073,1127.16 640.322,1130.34C640.548,1133.23 643.38,1132.02 644.179,1133.67C644.778,1134.91 643.166,1136.41 643.146,1140.21C643.138,1141.86 644.616,1141.62 621.858,1159.63" style="fill:none;stroke:black;stroke-width:7.01px;"/>
        </g>
        <g id="GOLDEN">
            <rect id="MENU3" serif:id="MENU" x="310.09" y="1018.7" width="236.22" height="236.22" style="fill:white;"/>
            <path d="M417.918,1114.37C416.207,1116.61 413.549,1119.13 414.085,1122.36C414.137,1122.68 418.64,1132.31 419.046,1136.13C419.492,1140.32 414.77,1158.41 405.091,1158.92C396.538,1159.36 399.128,1145.86 395.912,1140.61C393.013,1135.87 386.646,1131.83 385.794,1127.4C384.941,1122.98 389.128,1118.34 390.795,1114.06C392.404,1109.94 392.89,1104.15 395.798,1101.77C398.706,1099.38 404.206,1100.92 408.244,1099.75C412.534,1098.51 416.755,1094.14 421.535,1094.3C427.166,1094.47 437.583,1098.32 442.029,1100.81C451.233,1105.96 453.55,1114.22 453.876,1118.93C454.107,1122.29 464.971,1124.17 470.678,1127.37C470.867,1127.48 470.397,1134.44 469.692,1139.02C468.049,1149.69 453.975,1152.97 446.184,1154.34C443.574,1154.79 435.27,1158.23 429.559,1179.33" style="fill:none;stroke:black;stroke-width:7.08px;"/>
        </g>
        <g id="CHIHUAHUA">
            <rect id="MENU4" serif:id="MENU" x="73.869" y="1018.7" width="236.22" height="236.22" style="fill:white;"/>
            <path d="M165.195,1166.92C166.275,1165.69 170.37,1161.03 170.338,1147.12C170.314,1136.64 161.927,1141.42 156.324,1129.57C153.434,1123.45 149.46,1111.53 149.46,1103.58C149.46,1097.44 151.836,1093.67 158.926,1096.79C168.04,1100.81 177.729,1114.7 180.022,1114.53C181.447,1114.42 186.526,1112.09 192.931,1111.83C198.661,1111.6 210.672,1090.76 211.964,1094.89C215.538,1106.32 209.266,1114.02 211.017,1115.38C211.243,1115.56 218.211,1119.53 219.495,1125.36C220.129,1128.23 218.885,1132.85 223.491,1133.24C227.738,1133.59 234.499,1132 234.499,1135.88C234.499,1135.99 233.699,1150.96 219.42,1155.49C214.367,1157.1 209.844,1157.2 207.096,1165.55C205.238,1171.19 204.087,1175.65 203.43,1179.27" style="fill:none;stroke:black;stroke-width:7.08px;"/>
        </g>
        <g id="ROUPAS">
            <rect id="MENU5" serif:id="MENU" x="1018.71" y="782.48" width="236.22" height="236.22" style="fill:white;"/>
            <path d="M1107.29,892.118L1094.3,892.118L1094.3,862.698L1118.25,858.071C1118.54,859.693 1119.03,861.245 1119.69,862.698C1122.71,869.317 1129.25,873.907 1136.82,873.907C1144.39,873.907 1150.93,869.317 1153.95,862.698C1154.61,861.245 1155.1,859.693 1155.4,858.071L1179.34,862.698L1179.34,892.118L1166.35,892.118L1166.35,943.11L1107.29,943.11L1107.29,892.118Z" style="fill:none;stroke:black;stroke-width:7.08px;"/>
        </g>
        <g id="BRINQUEDOS">
            <rect id="MENU6" serif:id="MENU" x="782.43" y="782.48" width="236.22" height="236.22" style="fill:white;"/>
            <g>
                <ellipse cx="900.54" cy="898.911" rx="42.52" ry="40.84" style="fill:white;"/>
                <path d="M900.54,850.988C927.994,850.988 950.143,872.541 950.143,898.911C950.143,925.28 927.994,946.834 900.54,946.834C873.086,946.834 850.937,925.28 850.937,898.911C850.937,872.541 873.086,850.988 900.54,850.988ZM900.54,858.071C877.073,858.071 858.02,876.371 858.02,898.911C858.02,921.451 877.073,939.75 900.54,939.75C924.007,939.75 943.06,921.451 943.06,898.911C943.06,876.371 924.007,858.071 900.54,858.071Z"/>
                <path d="M911.417,870.87C917.633,870.87 924.708,875.945 927.206,882.196C929.705,888.447 926.686,893.522 920.469,893.522C914.253,893.522 907.178,888.447 904.679,882.196C902.181,875.945 905.2,870.87 911.417,870.87Z" style="fill:white;stroke:black;stroke-width:7.08px;"/>
                <path d="M858.02,914.275C866.839,897.731 888.755,884.827 904.679,882.196" style="fill:white;stroke:black;stroke-width:7.08px;"/>
                <path d="M903.802,943.11C903.802,943.11 922.999,922.089 920.469,893.522" style="fill:white;stroke:black;stroke-width:7.08px;"/>
                <path d="M943.06,915.509C942.308,910.174 938.848,899.527 928.084,890.477" style="fill:white;stroke:black;stroke-width:7.08px;"/>
                <path d="M943.06,882.196C943.059,881.801 935.43,878.909 928.084,882.196" style="fill:white;stroke:black;stroke-width:7.08px;"/>
                <path d="M915.943,858.071C917.676,861.389 917.229,866.767 915.943,870.87" style="fill:white;stroke:black;stroke-width:7.08px;"/>
                <path d="M871.694,864.47C884.296,864.609 894.004,866.386 905.264,873.487" style="fill:white;stroke:black;stroke-width:7.08px;"/>
            </g>
        </g>
        <g id="ACESSORIOS">
            <rect id="MENU7" serif:id="MENU" x="546.149" y="782.48" width="236.22" height="236.22" style="fill:white;"/>
            <g>
                <path d="M632.649,912.879C627.351,906.713 622.834,895.878 622.064,885.388C621.169,873.2 625.749,861.48 632.124,858.095C632.241,858.032 632.405,858.111 632.548,858.131C641.439,859.427 659.896,872.774 664.294,877.495L664.224,877.495C668.623,872.774 687.08,859.427 695.97,858.131C696.113,858.111 696.277,858.032 696.395,858.095C702.769,861.48 707.35,873.2 706.455,885.388C705.684,895.878 701.167,906.713 695.869,912.879" style="fill:none;stroke:black;stroke-width:7.08px;"/>
                <path d="M635.613,909.941C637.508,909.503 639.701,908.06 642.064,906.235C646.576,902.752 651.326,897.737 655.089,892.616C657.049,889.949 660.594,888.995 663.628,890.318C666.662,891.641 668.375,894.888 667.754,898.14L658.909,944.439C658.379,947.216 656.248,949.412 653.488,950.025C650.729,950.638 647.869,949.552 646.212,947.261L641.078,940.163L634.889,942.226C632.443,943.042 629.747,942.464 627.851,940.717C625.954,938.97 625.156,936.331 625.768,933.826L630.326,915.162C630.961,912.563 633.006,910.544 635.613,909.941ZM637.207,916.843L632.649,935.507L643.77,931.799L651.952,943.11L660.797,896.81C653.869,906.239 643.869,915.303 637.207,916.843Z"/>
                <path d="M698.192,915.162L702.75,933.826C703.362,936.331 702.565,938.97 700.668,940.717C698.771,942.464 696.075,943.042 693.629,942.226L687.44,940.163L682.306,947.261C680.65,949.552 677.79,950.638 675.03,950.025C672.27,949.412 670.14,947.216 669.609,944.439L660.764,898.14C660.143,894.888 661.856,891.641 664.89,890.318C667.924,888.995 671.47,889.949 673.43,892.616C677.192,897.737 681.943,902.752 686.454,906.235C688.818,908.06 691.01,909.503 692.906,909.941C695.512,910.544 697.557,912.563 698.192,915.162ZM691.311,916.843C684.65,915.303 674.65,906.239 667.721,896.81L676.567,943.11L684.748,931.799L695.869,935.507L691.311,916.843Z"/>
                <circle cx="664.305" cy="885.388" r="11.811" style="fill:white;stroke:black;stroke-width:7.08px;"/>
            </g>
        </g>
        <g id="ALIMENTOS">
            <rect id="MENU8" serif:id="MENU" x="309.969" y="782.48" width="236.22" height="236.22" style="fill:white;"/>
            <g>
                <path d="M444.729,883.971C460.033,897.212 451.114,913.922 428.985,935.467C418.199,945.97 403.096,945.338 393.224,935.476C383.362,925.604 382.73,910.501 393.232,899.714C414.778,877.586 431.488,868.667 444.729,883.971Z" style="fill:white;"/>
                <path d="M444.729,883.971C460.033,897.212 451.114,913.922 428.985,935.467C418.199,945.97 403.096,945.338 393.224,935.476C383.362,925.604 382.73,910.501 393.232,899.714C414.778,877.586 431.488,868.667 444.729,883.971ZM440.14,887.941C437.34,884.705 434.417,882.841 431.151,882.469C427.616,882.066 423.863,883.285 419.767,885.528C413.029,889.217 405.692,895.616 397.58,903.947C389.581,912.163 390.004,923.666 397.514,931.186C405.034,938.696 416.537,939.119 424.753,931.12C433.084,923.008 439.483,915.67 443.172,908.932C445.415,904.837 446.634,901.084 446.231,897.549C445.858,894.283 443.995,891.36 440.759,888.56C440.538,888.369 440.331,888.162 440.14,887.941Z"/>
                <path d="M455.673,887.128L447.017,895.784C445.12,897.681 442.547,898.747 439.864,898.747C437.181,898.747 434.608,897.681 432.711,895.784L432.709,895.782C430.812,893.885 429.746,891.312 429.746,888.629C429.746,885.946 430.812,883.373 432.709,881.476L441.411,872.774C439.48,868.975 440.102,864.207 443.277,861.032C447.225,857.084 453.636,857.084 457.585,861.032C459.536,862.983 460.523,865.535 460.546,868.093C463.105,868.117 465.656,869.104 467.607,871.054C471.556,875.003 471.556,881.414 467.607,885.363C464.378,888.592 459.502,889.18 455.673,887.128Z" style="fill:white;"/>
                <path d="M455.673,887.128L447.017,895.784C445.12,897.681 442.547,898.747 439.864,898.747C437.181,898.747 434.608,897.681 432.711,895.784L432.709,895.782C430.812,893.885 429.746,891.312 429.746,888.629C429.746,885.946 430.812,883.373 432.709,881.476L441.411,872.774C439.48,868.975 440.102,864.207 443.277,861.032C447.225,857.084 453.636,857.084 457.585,861.032C459.536,862.983 460.523,865.535 460.546,868.093C463.105,868.117 465.656,869.104 467.607,871.054C471.556,875.003 471.556,881.414 467.607,885.363C464.378,888.592 459.502,889.18 455.673,887.128ZM437,891.491L437.002,891.493C437.761,892.253 438.79,892.679 439.864,892.679C440.938,892.679 441.968,892.252 442.727,891.493L451.383,882.837C453.274,880.946 456.181,880.516 458.539,881.78C460.072,882.601 462.024,882.365 463.317,881.072C464.897,879.492 464.897,876.925 463.317,875.345C462.536,874.564 461.515,874.17 460.491,874.161C457.183,874.131 454.509,871.457 454.478,868.149C454.469,867.125 454.075,866.103 453.294,865.323C451.714,863.742 449.148,863.742 447.567,865.323C446.296,866.594 446.047,868.503 446.82,870.024C448.01,872.366 447.559,875.207 445.701,877.064L436.999,885.766C436.24,886.525 435.814,887.555 435.814,888.629C435.814,889.702 436.24,890.732 437,891.491Z"/>
            </g>
        </g>
        <g id="HIGIENE">
            <rect id="MENU9" serif:id="MENU" x="73.688" y="782.48" width="236.22" height="236.22" style="fill:white;"/>
            <g>
                <path d="M210.696,858.075C211.146,858.545 234.951,883.498 234.305,902.466C233.926,913.59 223.726,926.077 210.696,926.081C197.665,926.077 187.466,913.59 187.087,902.466C186.44,883.498 210.245,858.545 210.696,858.075Z" style="fill:white;"/>
                <path d="M210.696,858.075C211.146,858.545 234.951,883.498 234.305,902.466C233.926,913.59 223.726,926.077 210.696,926.081C197.665,926.077 187.466,913.59 187.087,902.466C186.44,883.498 210.245,858.545 210.696,858.075ZM210.696,868.841C207.84,872.335 204.232,877.113 201.071,882.411C197.284,888.758 193.948,895.848 194.166,902.224C194.433,910.069 201.507,918.994 210.696,918.998C219.885,918.994 226.958,910.069 227.226,902.224C227.443,895.848 224.108,888.758 220.321,882.411C217.159,877.113 213.552,872.335 210.696,868.841Z"/>
                <path d="M178.814,858.075C179.377,858.663 209.142,889.863 208.334,913.578C207.859,927.488 195.107,943.101 178.814,943.106C162.521,943.101 149.769,927.488 149.295,913.578C148.486,889.863 178.251,858.663 178.814,858.075Z" style="fill:white;"/>
                <path d="M178.814,858.075C179.377,858.663 209.142,889.863 208.334,913.578C207.859,927.488 195.107,943.101 178.814,943.106C162.521,943.101 149.769,927.488 149.295,913.578C148.486,889.863 178.251,858.663 178.814,858.075ZM178.814,868.757C175.035,873.262 169.784,880.007 165.257,887.595C160.342,895.832 156.092,905.062 156.374,913.337C156.736,923.967 166.363,936.017 178.814,936.023C191.265,936.017 200.892,923.967 201.254,913.337C201.536,905.062 197.286,895.832 192.371,887.595C187.844,880.007 182.594,873.262 178.814,868.757Z"/>
                <path d="M190.806,916.657C189.274,921.267 186.403,924.157 181.547,926.081" style="fill:none;stroke:black;stroke-width:7.08px;"/>
            </g>
        </g>
        <g id="ESTRELA">
            <rect id="MENU10" serif:id="MENU" x="1018.77" y="546.26" width="236.22" height="236.22" style="fill:white;"/>
            <path d="M1132.05,625.519C1132.73,623.332 1134.68,621.85 1136.88,621.85C1139.08,621.85 1141.03,623.332 1141.71,625.519C1144.1,633.206 1146.79,641.837 1148.27,646.607C1148.95,648.795 1150.9,650.276 1153.1,650.276C1157.9,650.276 1166.59,650.276 1174.32,650.276C1176.52,650.276 1178.47,651.757 1179.15,653.945C1179.83,656.133 1179.09,658.53 1177.31,659.882C1171.05,664.632 1164.02,669.967 1160.14,672.915C1158.36,674.267 1157.62,676.664 1158.3,678.851C1159.78,683.621 1162.46,692.253 1164.85,699.939C1165.53,702.127 1164.79,704.524 1163.01,705.876C1161.23,707.228 1158.81,707.228 1157.03,705.876C1150.78,701.125 1143.75,695.791 1139.87,692.843C1138.09,691.491 1135.68,691.491 1133.89,692.843C1130.01,695.791 1122.99,701.125 1116.73,705.876C1114.95,707.228 1112.54,707.228 1110.76,705.876C1108.98,704.524 1108.23,702.127 1108.91,699.939C1111.3,692.253 1113.99,683.621 1115.47,678.851C1116.15,676.664 1115.4,674.267 1113.62,672.915C1109.74,669.967 1102.71,664.632 1096.46,659.882C1094.68,658.53 1093.93,656.133 1094.61,653.945C1095.29,651.757 1097.24,650.276 1099.44,650.276C1107.18,650.276 1115.86,650.276 1120.66,650.276C1122.86,650.276 1124.81,648.795 1125.49,646.607C1126.98,641.837 1129.66,633.206 1132.05,625.519Z" style="fill:none;stroke:black;stroke-width:7.08px;stroke-miterlimit:1.5;"/>
        </g>
        <g id="CARINHA">
            <rect id="MENU11" serif:id="MENU" x="782.531" y="546.26" width="236.22" height="236.22" style="fill:white;"/>
            <g>
                <path d="M900.641,620.878C924.108,620.878 943.161,639.931 943.161,663.398C943.161,686.865 924.108,705.917 900.641,705.917C877.174,705.917 858.121,686.865 858.121,663.398C858.121,639.931 877.174,620.878 900.641,620.878ZM900.641,627.961C881.083,627.961 865.205,643.84 865.205,663.398C865.205,682.956 881.083,698.834 900.641,698.834C920.199,698.834 936.077,682.956 936.077,663.398C936.077,643.84 920.199,627.961 900.641,627.961Z"/>
                <path d="M918.548,671.546C916.705,674.904 910.474,683.07 900.641,683.357C890.808,683.07 884.577,674.904 882.734,671.546" style="fill:none;stroke:black;stroke-width:7.08px;stroke-miterlimit:1.5;"/>
                <circle cx="915.894" cy="649.345" r="5.906"/>
                <path d="M915.894,643.439C919.153,643.439 921.799,646.085 921.799,649.345C921.799,652.604 919.153,655.25 915.894,655.25C912.634,655.25 909.988,652.604 909.988,649.345C909.988,646.085 912.634,643.439 915.894,643.439ZM915.894,650.522C916.544,650.522 917.071,649.995 917.071,649.345C917.071,648.694 916.544,648.167 915.894,648.167C915.244,648.167 914.716,648.694 914.716,649.345C914.716,649.995 915.244,650.522 915.894,650.522Z"/>
                <circle cx="885.388" cy="649.345" r="5.906"/>
                <path d="M885.388,643.439C888.648,643.439 891.294,646.085 891.294,649.345C891.294,652.604 888.648,655.25 885.388,655.25C882.129,655.25 879.483,652.604 879.483,649.345C879.483,646.085 882.129,643.439 885.388,643.439ZM885.388,650.522C886.038,650.522 886.566,649.995 886.566,649.345C886.566,648.694 886.038,648.167 885.388,648.167C884.738,648.167 884.21,648.694 884.21,649.345C884.21,649.995 884.738,650.522 885.388,650.522Z"/>
            </g>
        </g>
        <g id="CLIP">
            <rect id="MENU12" serif:id="MENU" x="546.3" y="546.26" width="236.22" height="236.22" style="fill:white;"/>
            <path d="M698.767,650.901L672.735,695.989C669.629,701.369 664.571,705.328 658.674,706.996C652.776,708.664 646.523,707.903 641.289,704.882C640.834,704.619 640.389,704.34 639.956,704.047C635.414,700.976 632.139,696.308 630.766,690.884C629.262,684.943 630.162,678.583 633.268,673.202L656.512,632.942L633.268,673.202L656.512,632.942C659.619,627.562 663.287,623.054 669.184,621.386C673.294,620.224 678.157,621.201 681.091,622.849C690.598,628.187 690.375,636.958 687.277,642.325C682.863,649.97 677.35,659.512 672.021,668.736C668.223,675.309 664.519,681.721 661.374,687.169C658.385,692.346 652.652,694.633 648.569,692.275L648.567,692.274C646.606,691.142 645.296,689.069 644.925,686.51C644.554,683.952 645.152,681.118 646.587,678.631L668.679,640.368" style="fill:none;stroke:black;stroke-width:7.08px;stroke-linejoin:miter;stroke-miterlimit:1.5;"/>
        </g>
        <g id="ENVIAR">
            <rect id="MENU13" serif:id="MENU" x="310.07" y="546.26" width="236.22" height="236.22" style="fill:white;"/>
            <path d="M470.7,664.37C470.7,678.543 400.282,706.89 388.759,706.89C377.236,706.89 401.562,664.37 401.562,664.37C401.562,664.37 377.236,621.85 388.759,621.85C400.282,621.85 470.7,650.197 470.7,664.37ZM393.612,629.849C393.967,631.323 394.417,632.966 394.933,634.366C399.276,646.141 407.71,660.853 407.71,660.853L409.723,664.37L407.71,667.888C407.71,667.888 399.276,682.6 394.933,694.374C394.417,695.775 393.967,697.418 393.612,698.892C395.533,698.368 397.83,697.648 400.403,696.803C414.945,692.03 436.895,682.744 451.464,673.773C455.56,671.251 459.043,668.786 461.48,666.449C462.115,665.84 462.812,664.956 463.252,664.37C462.812,663.784 462.115,662.9 461.48,662.291C459.043,659.954 455.56,657.489 451.464,654.967C436.895,645.996 414.945,636.71 400.403,631.937C397.83,631.092 395.533,630.372 393.612,629.849Z"/>
            <path d="M465.751,664.37L401.562,664.37" style="fill:none;stroke:black;stroke-width:7.08px;stroke-linecap:butt;stroke-linejoin:miter;stroke-miterlimit:1.5;"/>
        </g>
        <g id="CORACAO">
            <rect id="MENU14" serif:id="MENU" x="73.839" y="546.26" width="236.22" height="236.22" style="fill:white;"/>
            <path d="M191.949,636.059C192.524,636.059 193.057,635.706 193.36,635.125C202.164,618.321 217.105,619.611 225.83,628.185C252.203,654.102 211.121,692.99 196.671,705.224C193.782,707.669 190.116,707.669 187.228,705.224C172.777,692.99 131.695,654.102 158.068,628.185C166.794,619.611 181.734,618.321 190.538,635.125C190.842,635.706 191.375,636.059 191.949,636.059ZM191.949,643.142L189.423,642.758L187.232,641.716L185.503,640.211L184.261,638.408C181.783,633.679 178.807,630.79 175.504,629.648C171.031,628.101 166.358,629.97 163.033,633.238C154.862,641.268 155.427,650.96 159.312,660.241C166.378,677.123 183.66,692.923 191.804,699.818C191.893,699.893 192.006,699.893 192.094,699.818C200.238,692.923 217.521,677.123 224.587,660.241C228.471,650.96 229.037,641.268 220.865,633.238C217.54,629.97 212.868,628.101 208.395,629.648C205.091,630.79 202.115,633.679 199.639,638.404L198.396,640.211L196.667,641.716L194.475,642.758L191.949,643.142Z"/>
        </g>
        <g id="SUBIR">
            <rect id="MENU15" serif:id="MENU" x="1018.73" y="310.039" width="236.22" height="236.22" style="fill:white;"/>
            <path id="MENOS" d="M1136.84,413.117L1106.78,443.183" style="fill:none;stroke:black;stroke-width:7.08px;stroke-miterlimit:1.5;"/>
            <path id="MENOS1" serif:id="MENOS" d="M1136.84,413.117L1166.91,443.183" style="fill:none;stroke:black;stroke-width:7.08px;stroke-miterlimit:1.5;"/>
        </g>
        <g id="DESCER">
            <rect id="MENU16" serif:id="MENU" x="782.5" y="310.039" width="236.22" height="236.22" style="fill:white;"/>
            <path id="MENOS2" serif:id="MENOS" d="M900.611,443.183L870.545,413.117" style="fill:none;stroke:black;stroke-width:7.08px;stroke-miterlimit:1.5;"/>
            <path id="MENOS3" serif:id="MENOS" d="M900.611,443.183L930.677,413.117" style="fill:none;stroke:black;stroke-width:7.08px;stroke-miterlimit:1.5;"/>
        </g>
        <g id="FECHAR">
            <rect id="MENU17" serif:id="MENU" x="546.27" y="310.039" width="236.22" height="236.22" style="fill:white;"/>
            <path id="MENOS4" serif:id="MENOS" d="M694.446,458.216L634.314,398.084" style="fill:none;stroke:black;stroke-width:7.08px;stroke-miterlimit:1.5;"/>
            <path id="MENOS5" serif:id="MENOS" d="M634.314,458.216L694.446,398.084" style="fill:none;stroke:black;stroke-width:7.08px;stroke-miterlimit:1.5;"/>
        </g>
        <g id="MAIS">
            <rect id="MENU18" serif:id="MENU" x="310.06" y="310.039" width="236.22" height="236.22" style="fill:white;"/>
            <path id="MENOS6" serif:id="MENOS" d="M385.651,428.464L470.688,427.835" style="fill:none;stroke:black;stroke-width:7.08px;stroke-miterlimit:1.5;"/>
            <path id="MENOS7" serif:id="MENOS" d="M427.855,385.631L428.484,470.668" style="fill:none;stroke:black;stroke-width:7.08px;stroke-miterlimit:1.5;"/>
        </g>
        <g id="MENOS8" serif:id="MENOS">
            <rect id="MENU19" serif:id="MENU" x="73.829" y="310.039" width="236.22" height="236.22" style="fill:white;"/>
            <path id="MENOS9" serif:id="MENOS" d="M234.459,428.15L149.42,428.15" style="fill:none;stroke:black;stroke-width:7.08px;stroke-miterlimit:1.5;"/>
        </g>
        <g id="CHAT">
            <rect id="MENU20" serif:id="MENU" x="1018.72" y="73.819" width="236.22" height="236.22" style="fill:white;"/>
            <path d="M1163.57,222.701L1163.56,222.696C1163.2,221.968 1162.79,221.262 1162.34,220.582C1161.63,219.518 1160.81,218.519 1159.89,217.601C1156.22,213.927 1151.23,211.862 1146.04,211.862L1108.08,211.862C1100.47,211.862 1094.31,205.7 1094.31,198.099L1094.31,163.173C1094.31,155.572 1100.47,149.41 1108.08,149.41L1165.06,149.41C1172.95,149.41 1179.35,155.806 1179.35,163.696L1179.35,214.516L1179.35,228.733C1179.35,230.706 1178.33,232.625 1176.5,233.683C1173.77,235.259 1170.28,234.324 1168.7,231.594L1163.57,222.701ZM1169.79,219.322L1172.27,223.608L1172.27,214.516L1172.27,163.696C1172.27,159.718 1169.04,156.493 1165.06,156.493L1108.08,156.493C1104.39,156.493 1101.39,159.484 1101.39,163.173L1101.39,198.099C1101.39,201.788 1104.39,204.779 1108.08,204.779L1146.04,204.779C1153.11,204.779 1159.9,207.59 1164.9,212.593C1166.15,213.842 1167.26,215.203 1168.23,216.651C1168.8,217.512 1169.32,218.404 1169.79,219.322Z"/>
            <path d="M1117.02,172.118L1156.91,172.118" style="fill:none;stroke:black;stroke-width:7.08px;stroke-miterlimit:50;"/>
            <path d="M1136.83,189.154L1156.91,189.154" style="fill:none;stroke:black;stroke-width:7.08px;stroke-miterlimit:50;"/>
        </g>
        <g id="SACOLA">
            <rect id="MENU21" serif:id="MENU" x="782.5" y="73.819" width="236.22" height="236.22" style="fill:white;"/>
            <g>
                <path d="M927.903,169.594C932.476,169.594 936.807,171.507 939.699,174.804C942.591,178.102 943.738,182.434 942.822,186.605L934.768,223.291C933.319,229.889 927.083,234.627 919.849,234.627L880.222,234.627C872.826,234.627 866.499,229.68 865.223,222.899L858.319,186.212C857.543,182.088 858.766,177.856 861.659,174.65C864.553,171.445 868.82,169.594 873.319,169.594L927.903,169.594ZM927.903,176.677L873.319,176.677C870.857,176.677 868.501,177.642 866.918,179.396C865.537,180.926 864.91,182.934 865.281,184.902L872.184,221.589C872.855,225.152 876.336,227.544 880.222,227.544L919.849,227.544C923.658,227.544 927.087,225.246 927.849,221.772L935.903,185.086C936.34,183.099 935.751,181.046 934.374,179.475C932.793,177.672 930.403,176.677 927.903,176.677Z"/>
                <path d="M882.598,170.763C882.598,158.879 890.669,149.231 900.611,149.231C910.552,149.231 918.624,158.879 918.624,170.763" style="fill:none;stroke:black;stroke-width:7.08px;stroke-linejoin:miter;stroke-miterlimit:50;"/>
                <path d="M882.598,173.094L882.598,184.905" style="fill:none;stroke:black;stroke-width:7.08px;stroke-linejoin:miter;stroke-miterlimit:50;"/>
                <path d="M918.624,173.094L918.624,184.905" style="fill:none;stroke:black;stroke-width:7.08px;stroke-linejoin:miter;stroke-miterlimit:50;"/>
            </g>
        </g>
        <g id="CONTA">
            <rect id="MENU22" serif:id="MENU" x="546.27" y="73.819" width="236.22" height="236.22" style="fill:white;"/>
            <g id="conta">
                <path d="M664.38,149.231C678.069,149.231 689.183,160.345 689.183,174.034C689.183,187.724 678.069,198.838 664.38,198.838C650.691,198.838 639.577,187.724 639.577,174.034C639.577,160.345 650.691,149.231 664.38,149.231ZM664.38,156.315C654.6,156.315 646.66,164.255 646.66,174.034C646.66,183.814 654.6,191.754 664.38,191.754C674.16,191.754 682.1,183.814 682.1,174.034C682.1,164.255 674.16,156.315 664.38,156.315Z"/>
                <path d="M621.86,234.627C624.182,212.534 642.346,195.312 664.38,195.312C686.414,195.312 704.579,212.534 706.9,234.627" style="fill:none;stroke:black;stroke-width:7.08px;stroke-linejoin:miter;stroke-miterlimit:50;"/>
            </g>
        </g>
        <g id="PESQUISA">
            <rect id="MENU23" serif:id="MENU" x="310.049" y="73.819" width="236.22" height="236.22" style="fill:white;"/>
            <g id="pesquisar">
                <path d="M418.977,149.278C437.398,149.278 452.353,164.23 452.353,182.648C452.353,201.065 437.398,216.018 418.977,216.018C400.556,216.018 385.6,201.065 385.6,182.648C385.6,164.23 400.556,149.278 418.977,149.278ZM418.977,156.361C404.466,156.361 392.684,168.139 392.684,182.648C392.684,197.156 404.466,208.934 418.977,208.934C433.488,208.934 445.27,197.156 445.27,182.648C445.27,168.139 433.488,156.361 418.977,156.361Z"/>
                <path d="M442.447,206.309L470.719,234.581" style="fill:none;stroke:black;stroke-width:7.08px;stroke-linejoin:miter;stroke-miterlimit:50;"/>
            </g>
        </g>
        <g id="MENU24" serif:id="MENU">
            <rect id="MENU25" serif:id="MENU" x="73.829" y="73.819" width="236.22" height="236.22" style="fill:white;"/>
            <path id="MENOS10" serif:id="MENOS" d="M234.459,149.278L149.42,149.278" style="fill:none;stroke:black;stroke-width:7.08px;stroke-miterlimit:1.5;"/>
            <path id="MENOS11" serif:id="MENOS" d="M234.459,191.929L149.42,191.929" style="fill:none;stroke:black;stroke-width:7.08px;stroke-miterlimit:1.5;"/>
            <path id="MENOS12" serif:id="MENOS" d="M234.459,234.581L149.42,234.581" style="fill:none;stroke:black;stroke-width:7.08px;stroke-miterlimit:1.5;"/>
        </g>
    </g>
</svg>
