<?xml version="1.0" encoding="UTF-8" standalone="no"?>
<!DOCTYPE svg PUBLIC "-//W3C//DTD SVG 1.1//EN" "http://www.w3.org/Graphics/SVG/1.1/DTD/svg11.dtd">
<svg width="100%" height="100%" viewBox="0 0 1329 394" version="1.1" xmlns="http://www.w3.org/2000/svg" xmlns:xlink="http://www.w3.org/1999/xlink" xml:space="preserve" xmlns:serif="http://www.serif.com/" style="fill-rule:evenodd;clip-rule:evenodd;stroke-linecap:round;stroke-linejoin:round;stroke-miterlimit:2;">
    <rect id="icon" x="0" y="0" width="1328.74" height="393.653" style="fill:white;"/>
    <g id="HUSKY">
        <rect id="MENU" x="73.93" y="78.716" width="236.22" height="236.22" style="fill:white;"/>
        <path d="M211.041,239.346C211.294,237.095 211.442,234.512 211.421,231.547C211.379,225.524 209.322,215.557 210.182,215.152C213.329,213.67 228.335,218.008 233.496,203.288C235.935,196.331 233.933,195.967 229.994,194.188C217.054,188.343 216.161,188.743 215.541,185.517C213.622,175.52 203.871,174.702 203.665,170.996C203.565,169.212 203.802,162.798 201.902,157.305C200.968,154.606 189.491,174.648 188.808,168.979C188.449,166.001 185.741,152.259 181.581,154.567C174.47,158.512 169.987,175.766 168.478,177.937C162.347,186.75 158.775,192.791 155.178,206.585C155.042,207.105 153.216,214.511 149.52,218.115" style="fill:none;stroke:black;stroke-width:7.08px;"/>
    </g>
    <g id="BULDOGUE">
        <rect id="MENU1" serif:id="MENU" x="546.492" y="78.716" width="236.22" height="236.22" style="fill:white;"/>
        <path d="M661.096,239.346C662.893,234.993 664.692,225.418 667.015,221.856C668.694,219.281 673.634,217.931 675.036,217.969C677.347,218.032 680.263,221.305 683.006,222.75C694.333,228.721 705.975,210.028 706.936,199.266C707.013,198.395 707.124,194.458 707.041,193.667C706.828,191.623 697.326,187.503 697.145,187.472C696.763,187.407 698.498,173.441 683.587,171.102C682.167,170.879 683.852,166.503 681.011,156.744C680.639,155.464 673.07,164.341 672.354,162.638C670.615,158.502 665.737,154.216 662.715,154.308C658.335,154.441 657.371,159.194 657.058,163.668C657.004,164.432 656.54,171.039 656.456,173.225C656.4,174.672 654.678,174.834 652.317,177.842C646.084,185.786 647.36,191.801 645.876,191.838C639.062,192.008 639.03,198.18 637.6,198.255C628.846,198.71 630.618,199.776 622.082,202.824" style="fill:none;stroke:black;stroke-width:7.08px;"/>
    </g>
    <g id="POODLE">
        <rect id="MENU2" serif:id="MENU" x="1019.07" y="78.716" width="236.22" height="236.22" style="fill:white;"/>
        <path d="M1153.71,239.628C1158.07,236.938 1152.64,234.709 1155.7,232.444C1159.28,229.803 1155.72,228.282 1156.07,226.17C1156.68,222.43 1157.7,221.723 1157.26,220.027C1156.82,218.33 1153.86,217.785 1153.44,215.991C1152.54,212.097 1147.29,194.876 1151.85,196.663C1173.58,205.192 1178.42,193.258 1179.64,189.246C1180.94,184.983 1162.29,177.045 1163.78,174.608C1165.53,171.729 1165.23,166.78 1161.26,164.066C1157.15,161.25 1156.69,157.072 1154.04,155.856C1151.4,154.644 1146.78,157.099 1145.35,156.766C1142.16,156.025 1140.76,154.062 1138.49,154.127C1136.22,154.192 1134.22,157.718 1131.75,157.156C1125.84,155.813 1129.6,161.381 1126.48,162.158C1125.15,162.492 1120.56,162.292 1121.93,167.464C1122.89,171.078 1114.55,168.634 1117.41,174.372C1119.55,178.654 1114.7,176.546 1114.03,179.595C1113.33,182.775 1116.15,182.735 1115.72,184.344C1115.24,186.155 1113.07,186.382 1113.32,189.562C1113.55,192.451 1116.18,192.036 1116.98,193.688C1117.58,194.928 1115.97,196.422 1115.95,200.221C1115.94,201.873 1117.42,201.639 1094.66,219.645" style="fill:none;stroke:black;stroke-width:7.01px;"/>
    </g>
    <g id="GOLDEN">
        <rect id="MENU3" serif:id="MENU" x="310.09" y="78.716" width="236.22" height="236.22" style="fill:white;"/>
        <path d="M385.68,197.953C388.345,194.853 388.629,194.283 389.355,192.061C390.453,188.699 390.392,181.375 392.272,177.782C394.019,174.444 397.978,173.082 400.639,170.501C403.734,167.498 407.016,162.465 410.839,159.767C414.647,157.079 418.997,154.161 423.578,154.311C428.975,154.488 438.959,158.34 443.22,160.828C452.043,165.978 454.263,174.235 454.575,178.95C454.797,182.305 465.209,184.183 470.679,187.39C470.861,187.496 470.41,194.459 469.734,199.04C468.16,209.71 455.305,215.079 447.203,214.354C446.036,214.249 435.848,212.636 436.643,216.6C437.752,222.126 439.1,227.947 433.884,239.347" style="fill:none;stroke:black;stroke-width:7.08px;"/>
    </g>
    <g id="CHIHUAHUA">
        <rect id="MENU4" serif:id="MENU" x="782.309" y="78.716" width="236.22" height="236.22" style="fill:white;"/>
        <path d="M873.635,226.932C874.715,225.703 878.81,221.042 878.778,207.137C878.754,196.651 870.367,201.437 864.763,189.58C861.874,183.467 857.899,171.547 857.899,163.599C857.899,157.453 860.275,153.683 867.366,156.808C876.48,160.825 886.169,174.716 888.461,174.543C889.887,174.436 894.966,172.105 901.37,171.847C907.1,171.616 919.111,150.779 920.404,154.91C923.978,166.33 917.706,174.032 919.456,175.4C919.682,175.577 926.65,179.545 927.935,185.372C928.569,188.248 927.324,192.866 931.931,193.251C936.177,193.605 942.939,192.01 942.939,195.892C942.939,196.008 942.139,210.972 927.86,215.508C922.807,217.113 918.284,217.22 915.535,225.563C913.678,231.201 912.526,235.664 911.869,239.285" style="fill:none;stroke:black;stroke-width:7.08px;"/>
    </g>
</svg>
