<svg id="Camada_1" data-name="Camada 1" xmlns="http://www.w3.org/2000/svg" viewBox="0 0 14.173 14.173">
  <defs>
    <style>
      .cls-1 {
        fill-rule: evenodd;
      }
    </style>
  </defs>
  <title>ilustracao</title>
  <path class="cls-1" d="M352.506,589.314l3.4,3.4-3.446-3.446a.414.414,0,0,1,0-.582l3.241-3.241,1.242,1.242.358.358,2.479,2.479-3.24,3.24a.414.414,0,0,1-.582,0l-.051-.051-3.4-3.4Zm2.113,2.113-1.151-1.151,1.151,1.151Zm2.618,2.035,3.24-3.24.1.1.352.352.35-.351,1.514-1.514c1.1-1.1-.961-2.083-1.066-2.833-.06-.432.789-.9,1.08-1.056,1.347-.713,3.452-2.5,2.456-4.232l.03-.028-.19-.2a1.776,1.776,0,0,0-.16-.173,1.712,1.712,0,0,0-.173-.16l-.205-.19-.028.031c-1.729-1-3.519,1.109-4.232,2.456-1.378,2.6-1.75-.363-3.243-.29a.974.974,0,0,0-.646.3l-1.514,1.514-.35.35.351.351.1.1-3.24,3.24a1.407,1.407,0,0,0,0,1.985l3.519,3.517a1.406,1.406,0,0,0,1.964-.021Zm3.688-4.2.661-.661.5-.5a4.7,4.7,0,0,0-.65-.764c-1.308-1.414-.708-2.447.9-3.3.746-.395,2.7-1.78,2.051-2.876a.7.7,0,0,0-.045-.067l-.108-.116-.116-.107a.662.662,0,0,0-.067-.045c-1.1-.653-2.481,1.306-2.876,2.051-.4.765-1.072,1.737-2.07,1.6-.92-.128-1.637-1.249-1.991-1.35l-.505.5-.661.661,4.975,4.974Zm-3.968.969a.5.5,0,0,0-.7,0l-1.414,1.414.7.7,1.414-1.414a.5.5,0,0,0,0-.7Zm-2.858-1.093a.5.5,0,0,0-.7,0l-.532.532.7.7.532-.532a.5.5,0,0,0,0-.7Z" transform="translate(-351.343 -579.699)"/>
</svg>
