<?xml version="1.0" encoding="UTF-8" standalone="no"?>
<!DOCTYPE svg PUBLIC "-//W3C//DTD SVG 1.1//EN" "http://www.w3.org/Graphics/SVG/1.1/DTD/svg11.dtd">
<svg width="100%" height="100%" viewBox="0 0 61 60" version="1.1" xmlns="http://www.w3.org/2000/svg" xmlns:xlink="http://www.w3.org/1999/xlink" xml:space="preserve" xmlns:serif="http://www.serif.com/" style="fill-rule:evenodd;clip-rule:evenodd;stroke-linejoin:round;stroke-miterlimit:2;">
    <g transform="matrix(1,0,0,1,-141,0)">
        <g id="ilustração" transform="matrix(1,0,0,1,-373.608,0)">
            <rect x="515.5" y="0" width="59.167" height="59.167" style="fill:none;"/>
            <clipPath id="_clip1">
                <rect x="515.5" y="0" width="59.167" height="59.167"/>
            </clipPath>
            <g clip-path="url(#_clip1)">
                <g transform="matrix(1,0,0,1,131.554,15.1142)">
                    <path d="M408.613,42.344C406.365,44.592 402.715,44.622 400.43,42.43L385.768,27.774C383.489,25.495 383.491,21.78 385.769,19.501L399.27,6L398.866,5.596L397.405,4.135L398.865,2.675L405.172,-3.633C405.906,-4.368 406.815,-4.841 407.863,-4.893C414.087,-5.197 415.634,7.161 421.377,-3.686C424.348,-9.3 431.805,-18.072 439.011,-13.92L439.127,-14.048L439.981,-13.257C440.236,-13.051 440.477,-12.828 440.702,-12.589C440.941,-12.364 441.163,-12.123 441.37,-11.868L442.161,-11.015L442.034,-10.898C446.183,-3.691 437.413,3.764 431.801,6.736C430.591,7.376 427.053,9.334 427.302,11.135C427.741,14.263 436.312,18.371 431.746,22.941L425.437,29.248L423.977,30.709L422.509,29.241L422.113,28.844L408.613,42.344ZM423.98,24.86L428.835,20.005C428.57,19.275 426.582,17.312 426.127,16.82C420.678,10.927 423.178,6.624 429.866,3.082C432.974,1.437 441.134,-4.333 438.413,-8.901C438.356,-8.998 438.292,-9.091 438.225,-9.18L437.776,-9.664L437.294,-10.111C437.205,-10.18 437.111,-10.243 437.014,-10.299C432.448,-13.022 426.675,-4.859 425.032,-1.754C423.344,1.433 420.568,5.484 416.406,4.903C412.571,4.369 409.584,-0.3 408.112,-0.724C407.398,-0.013 406.701,0.684 406.006,1.38L403.25,4.135L423.98,24.86ZM393.323,29.482L397.707,33.866L398.632,34.791L404.526,28.897C405.33,28.092 406.645,28.092 407.448,28.896L407.449,28.897C408.252,29.7 408.252,31.015 407.448,31.819L401.554,37.713L403.051,39.21L403.264,39.422C403.929,40.085 405.027,40.085 405.691,39.42L419.191,25.922L408.859,15.592L407.368,14.099L402.193,8.922L388.691,22.425C388.027,23.088 388.026,24.185 388.691,24.85L390.401,26.558L392.618,24.341C393.421,23.538 394.736,23.539 395.54,24.342C396.344,25.145 396.344,26.46 395.54,27.263L393.323,29.482Z"/>
                </g>
            </g>
        </g>
    </g>
</svg>
