<?xml version="1.0" encoding="UTF-8" standalone="no"?>
<!DOCTYPE svg PUBLIC "-//W3C//DTD SVG 1.1//EN" "http://www.w3.org/Graphics/SVG/1.1/DTD/svg11.dtd">
<svg width="100%" height="100%" viewBox="0 0 3018 4426" version="1.1" xmlns="http://www.w3.org/2000/svg" xmlns:xlink="http://www.w3.org/1999/xlink" xml:space="preserve" xmlns:serif="http://www.serif.com/" style="fill-rule:evenodd;clip-rule:evenodd;stroke-linejoin:round;stroke-miterlimit:2;">
    <g transform="matrix(1,0,0,1,-12924,-7883)">
        <g id="ipad" transform="matrix(0.837388,0,0,1.73601,12941.8,-5378.4)">
            <rect x="-21" y="7639" width="3603" height="2549" style="fill:none;"/>
            <clipPath id="_clip1">
                <rect x="-21" y="7639" width="3603" height="2549"/>
            </clipPath>
            <g clip-path="url(#_clip1)">
                <g id="original" transform="matrix(1.47013e-16,1.15811,-1.98185,5.85363e-17,19590.7,4136.58)">
                    <path d="M5195.88,8077.65C5203.67,8077.65 5211.15,8081.4 5216.65,8088.07C5222.16,8094.74 5225.26,8103.79 5225.26,8113.23L5225.26,9860.06C5225.26,9869.5 5222.16,9878.55 5216.65,9885.22C5211.15,9891.9 5203.67,9895.65 5195.88,9895.65C4954.11,9895.65 3295.4,9895.65 3053.63,9895.65C3045.84,9895.65 3038.37,9891.9 3032.86,9885.22C3027.35,9878.55 3024.26,9869.5 3024.26,9860.06L3024.26,8113.23C3024.26,8103.79 3027.35,8094.74 3032.86,8088.07C3038.37,8081.4 3045.84,8077.65 3053.63,8077.65L5195.88,8077.65Z" style="fill:white;"/>
                </g>
            </g>
        </g>
    </g>
</svg>
