<?xml version="1.0" encoding="UTF-8" standalone="no"?>
<!DOCTYPE svg PUBLIC "-//W3C//DTD SVG 1.1//EN" "http://www.w3.org/Graphics/SVG/1.1/DTD/svg11.dtd">
<svg width="100%" height="100%" viewBox="0 0 3544 4407" version="1.1" xmlns="http://www.w3.org/2000/svg" xmlns:xlink="http://www.w3.org/1999/xlink" xml:space="preserve" xmlns:serif="http://www.serif.com/" style="fill-rule:evenodd;clip-rule:evenodd;stroke-linejoin:round;stroke-miterlimit:2;">
    <g transform="matrix(1,0,0,1,-15474.8,-7460.87)">
        <g id="EMBALAGEM">
        </g>
        <g id="TEMPLATE">
        </g>
        <g id="ILUSTRAÇÃO">
        </g>
        <g id="LOGO">
        </g>
        <g id="ipad1" transform="matrix(0.983432,-2.85451e-17,4.0562e-17,-1.72865,15495.5,25072.4)">
            <rect x="-21" y="7639" width="3603" height="2549" style="fill:rgb(105,152,205);"/>
            <clipPath id="_clip1">
                <rect x="-21" y="7639" width="3603" height="2549"/>
            </clipPath>
            <g clip-path="url(#_clip1)">
                <g id="ipad" transform="matrix(1.63553e-16,2.46362,-3.06056,1.57154e-16,27713.3,3340.59)">
                    <g transform="matrix(1.01685,0,0,1.43877,-6841.47,-4466.46)">
                        <path d="M9846.07,8673.04C9885.21,8673.04 9916.94,8704.77 9916.94,8743.91L9916.94,9660.68C9916.94,9699.82 9885.21,9731.55 9846.07,9731.55L8603.4,9731.55C8564.26,9731.55 8532.54,9699.82 8532.54,9660.68L8532.54,8743.91C8532.54,8704.77 8564.26,8673.04 8603.4,8673.04L9846.07,8673.04ZM9849.44,8717.14L8600.03,8717.14C8593.68,8717.14 8587.59,8719.66 8583.09,8724.16C8578.6,8728.65 8576.08,8734.74 8576.08,8741.09L8576.08,9663.49C8576.08,9669.85 8578.6,9675.94 8583.09,9680.43C8587.59,9684.92 8593.68,9687.44 8600.03,9687.44L9849.44,9687.44C9855.8,9687.44 9861.89,9684.92 9866.38,9680.43C9870.87,9675.94 9873.4,9669.85 9873.4,9663.49L9873.4,8741.09C9873.4,8734.74 9870.87,8728.65 9866.38,8724.16C9861.89,8719.66 9855.8,8717.14 9849.44,8717.14Z"/>
                    </g>
                    <g transform="matrix(1.3301,0,0,1.43877,-9588.18,-4466.75)">
                        <path d="M9594.84,8717.34C9599.69,8717.34 9604.35,8719.86 9607.78,8724.35C9611.22,8728.85 9613.15,8734.94 9613.15,8741.29C9613.15,8875.19 9613.15,9529.8 9613.15,9663.69C9613.15,9670.05 9611.22,9676.14 9607.78,9680.63C9604.35,9685.12 9599.69,9687.65 9594.84,9687.65C9471.49,9687.65 8763.02,9687.65 8639.67,9687.65C8634.81,9687.65 8630.16,9685.12 8626.72,9680.63C8623.29,9676.14 8621.36,9670.05 8621.36,9663.69C8621.36,9529.8 8621.36,8875.19 8621.36,8741.29C8621.36,8734.94 8623.29,8728.85 8626.72,8724.35C8630.16,8719.86 8634.81,8717.34 8639.67,8717.34C8763.02,8717.34 9471.49,8717.34 9594.84,8717.34Z" style="fill:white;"/>
                    </g>
                </g>
            </g>
        </g>
    </g>
</svg>
