<?xml version="1.0" encoding="UTF-8" standalone="no"?>
<!DOCTYPE svg PUBLIC "-//W3C//DTD SVG 1.1//EN" "http://www.w3.org/Graphics/SVG/1.1/DTD/svg11.dtd">
<svg width="100%" height="100%" viewBox="0 0 1799 3891" version="1.1" xmlns="http://www.w3.org/2000/svg" xmlns:xlink="http://www.w3.org/1999/xlink" xml:space="preserve" xmlns:serif="http://www.serif.com/" style="fill-rule:evenodd;clip-rule:evenodd;stroke-linecap:round;stroke-linejoin:round;stroke-miterlimit:1.5;">
    <g id="ILUSTRAÇÃO">
    </g>
    <g id="LOGO">
    </g>
    <g id="MACBOOK">
    </g>
    <rect id="IPHONE" x="0" y="0" width="1798.73" height="3890.85" style="fill:none;"/>
    <clipPath id="_clip1">
        <rect x="0" y="0" width="1798.73" height="3890.85"/>
    </clipPath>
    <g clip-path="url(#_clip1)">
        <path d="M0,3614.82L0,276.224C0,203.009 29.134,132.681 80.908,80.905C132.681,29.133 203.007,0 276.224,0L1522.6,0C1590.85,0 1656.59,25.312 1707.13,70.691C1710.81,73.99 1714.4,77.395 1717.91,80.905C1769.68,132.675 1798.82,203 1798.82,276.224L1798.82,3614.82C1798.82,3688.06 1769.71,3758.35 1717.91,3810.14C1666.14,3861.91 1595.83,3891.05 1522.6,3891.05L276.224,3891.05C203.007,3891.05 132.681,3861.91 80.908,3810.14C29.134,3758.37 0,3688.04 0,3614.82ZM893.606,223.714L1093.89,223.71L1095.01,223.71C1138.69,223.71 1174.16,187.746 1174.16,143.445C1174.16,99.143 1138.69,63.179 1095.01,63.179L1093.89,63.179L893.606,63.175L700.03,63.175C655.699,63.175 619.775,99.116 619.775,143.445C619.775,187.774 655.699,223.714 700.03,223.714L893.606,223.714Z" style="fill:white;"/>
        <path id="menu" d="M295.276,301.844C327.891,301.844 354.331,328.284 354.331,360.899L354.331,479.01C354.331,511.625 327.891,538.065 295.276,538.065L177.165,538.065C144.55,538.065 118.11,511.625 118.11,479.01C118.11,442.938 118.11,396.971 118.11,360.899C118.11,328.284 144.55,301.844 177.165,301.844C213.237,301.844 259.204,301.844 295.276,301.844Z" style="fill:white;"/>
        <clipPath id="_clip2">
            <path d="M295.276,301.844C327.891,301.844 354.331,328.284 354.331,360.899L354.331,479.01C354.331,511.625 327.891,538.065 295.276,538.065L177.165,538.065C144.55,538.065 118.11,511.625 118.11,479.01C118.11,442.938 118.11,396.971 118.11,360.899C118.11,328.284 144.55,301.844 177.165,301.844C213.237,301.844 259.204,301.844 295.276,301.844Z"/>
        </clipPath>
        <g clip-path="url(#_clip2)">
            <path id="MENOS" d="M283.931,459.327L188.51,459.327" style="fill:none;stroke:black;stroke-width:12.5px;"/>
            <path id="MENOS1" serif:id="MENOS" d="M283.931,419.955L188.51,419.955" style="fill:none;stroke:black;stroke-width:12.5px;"/>
            <path id="MENOS2" serif:id="MENOS" d="M283.931,380.582L188.51,380.582" style="fill:none;stroke:black;stroke-width:12.5px;"/>
        </g>
        <path id="menu1" serif:id="menu" d="M1562.51,301.844C1593.83,301.844 1623.87,314.288 1646.02,336.438C1668.17,358.588 1680.62,388.63 1680.62,419.954C1680.62,419.954 1680.62,419.955 1680.62,419.955C1680.62,451.279 1668.17,481.321 1646.02,503.471C1623.87,525.621 1593.83,538.065 1562.51,538.065C1562.51,538.065 1562.51,538.065 1562.51,538.065C1531.18,538.065 1501.14,525.621 1478.99,503.471C1456.84,481.321 1444.4,451.279 1444.4,419.955L1444.4,419.954C1444.4,388.63 1456.84,358.588 1478.99,336.438C1501.14,314.288 1531.18,301.844 1562.51,301.844L1562.51,301.844Z"/>
        <clipPath id="_clip3">
            <path d="M1562.51,301.844C1593.83,301.844 1623.87,314.288 1646.02,336.438C1668.17,358.588 1680.62,388.63 1680.62,419.954C1680.62,419.954 1680.62,419.955 1680.62,419.955C1680.62,451.279 1668.17,481.321 1646.02,503.471C1623.87,525.621 1593.83,538.065 1562.51,538.065C1562.51,538.065 1562.51,538.065 1562.51,538.065C1531.18,538.065 1501.14,525.621 1478.99,503.471C1456.84,481.321 1444.4,451.279 1444.4,419.955L1444.4,419.954C1444.4,388.63 1456.84,358.588 1478.99,336.438C1501.14,314.288 1531.18,301.844 1562.51,301.844L1562.51,301.844Z"/>
        </clipPath>
        <g clip-path="url(#_clip3)">
            <path d="M1574.84,441.732C1568.82,445.649 1561.62,447.925 1553.87,447.925C1532.77,447.925 1515.71,431.033 1515.71,410.31C1515.71,389.588 1532.77,372.71 1553.87,372.71C1574.95,372.71 1592.02,389.588 1592.02,410.31C1592.02,418.274 1589.5,425.661 1585.21,431.753L1607.33,455.039C1610.06,457.919 1609.95,462.484 1607.07,465.22C1604.17,467.956 1599.62,467.841 1596.88,464.961L1574.84,441.732ZM1553.87,387.111C1540.8,387.111 1530.11,397.465 1530.11,410.31C1530.11,423.156 1540.8,433.524 1553.87,433.524C1566.95,433.524 1577.62,423.156 1577.62,410.31C1577.62,397.465 1566.95,387.111 1553.87,387.111Z" style="fill:white;"/>
        </g>
        <path id="chat" d="M1503.45,3162.84C1550.44,3162.84 1595.5,3181.51 1628.73,3214.74C1661.95,3247.96 1680.62,3293.02 1680.62,3340.01C1680.62,3340.01 1680.62,3340.01 1680.62,3340.01C1680.62,3387 1661.95,3432.06 1628.73,3465.28C1595.5,3498.51 1550.44,3517.18 1503.45,3517.18C1503.45,3517.18 1503.45,3517.18 1503.45,3517.18C1456.46,3517.18 1411.4,3498.51 1378.18,3465.28C1344.95,3432.06 1326.29,3387 1326.29,3340.01L1326.29,3340.01C1326.29,3293.02 1344.95,3247.96 1378.18,3214.74C1411.4,3181.51 1456.46,3162.84 1503.45,3162.84C1503.45,3162.84 1503.45,3162.84 1503.45,3162.84Z" style="fill:rgb(105,152,205);"/>
    </g>
</svg>
