<?xml version="1.0" encoding="UTF-8" standalone="no"?>
<!DOCTYPE svg PUBLIC "-//W3C//DTD SVG 1.1//EN" "http://www.w3.org/Graphics/SVG/1.1/DTD/svg11.dtd">
<svg width="100%" height="100%" viewBox="0 0 2363 3894" version="1.1" xmlns="http://www.w3.org/2000/svg" xmlns:xlink="http://www.w3.org/1999/xlink" xml:space="preserve" xmlns:serif="http://www.serif.com/" style="fill-rule:evenodd;clip-rule:evenodd;stroke-linejoin:round;stroke-miterlimit:2;">
    <g transform="matrix(1,0,0,1,-22027,-7717)">
        <g id="iphone1" transform="matrix(0.655622,0,0,1.52738,22041.5,-3950.25)">
            <rect x="-21" y="7639" width="3603" height="2549" style="fill:rgb(105,152,205);"/>
            <clipPath id="_clip1">
                <rect x="-21" y="7639" width="3603" height="2549"/>
            </clipPath>
            <g clip-path="url(#_clip1)">
                <g id="iPhone" transform="matrix(3.43246,0,0,1.47337,-7243.46,7186.59)">
                    <g>
                        <path d="M1785.52,2845.97L1785.52,697.34C1785.52,650.221 1804.27,604.96 1837.59,571.638C1870.91,538.319 1916.17,519.57 1963.29,519.57L2765.42,519.57C2812.54,519.57 2857.8,538.315 2891.12,571.638C2924.44,604.956 2943.19,650.215 2943.19,697.34L2943.19,2845.97C2943.19,2893.09 2924.45,2938.35 2891.12,2971.67C2857.8,3004.99 2812.55,3023.74 2765.42,3023.74L1963.29,3023.74C1916.17,3023.74 1870.91,3004.99 1837.59,2971.67C1804.27,2938.35 1785.52,2893.09 1785.52,2845.97Z" style="fill:white;"/>
                        <g id="icon">
                            <g id="icon1" serif:id="icon">
                                <path id="sinal" d="M2661.35,597.313C2661.35,595.237 2663.08,593.503 2665.16,593.503C2667.23,593.503 2668.97,595.237 2668.97,597.313L2668.97,626.461C2668.97,628.537 2667.23,630.271 2665.16,630.271C2663.08,630.271 2661.35,628.537 2661.35,626.461L2661.35,597.313ZM2646.54,604.507C2646.54,602.431 2648.28,600.697 2650.35,600.697C2652.43,600.697 2654.16,602.431 2654.16,604.507L2654.16,626.461C2654.16,628.537 2652.43,630.271 2650.35,630.271C2648.28,630.271 2646.54,628.537 2646.54,626.461L2646.54,604.507ZM2631.74,611.887C2631.74,609.811 2633.48,608.077 2635.55,608.077C2637.63,608.077 2639.36,609.811 2639.36,611.887L2639.36,626.461C2639.36,628.537 2637.63,630.271 2635.55,630.271C2633.48,630.271 2631.74,628.537 2631.74,626.461L2631.74,611.887ZM2616.94,619.278C2616.94,617.202 2618.68,615.468 2620.75,615.468C2622.83,615.468 2624.56,617.202 2624.56,619.278L2624.56,626.461C2624.56,628.537 2622.83,630.271 2620.75,630.271C2618.68,630.271 2616.94,628.537 2616.94,626.461L2616.94,619.278Z" style="fill:white;"/>
                                <path id="wifi" d="M2696.95,598.976L2698.63,597.944C2702.16,595.996 2705.38,595.038 2705.99,594.856C2707.45,594.421 2715.53,592.018 2725.01,594.971L2727.84,595.957L2729.38,596.61L2730.34,597.069L2731.99,597.939L2732.34,598.137L2733.85,599.076L2734.16,599.288L2736.49,601.019L2737.8,602.179L2739.65,604.153C2740.09,604.682 2740.5,605.134 2740.09,605.763L2738.8,607.1L2737.58,608.351C2737.03,608.906 2736.68,609.469 2735.93,609.228L2735.47,608.864L2734.58,607.951L2733.18,606.65C2732.88,606.388 2731.29,605.033 2729.08,603.733L2727.99,603.146L2725.53,602.028C2722.58,600.834 2719.94,600.497 2719.44,600.433C2718.45,600.307 2712.84,599.59 2707.04,601.384L2704.5,602.327C2702.16,603.363 2700.53,604.417 2700.21,604.629L2698.56,605.819L2697.09,607.053L2696.05,608.04L2694.93,609.164C2694.6,609.353 2694.4,609.363 2694.04,609.234L2693.66,608.943L2693.4,608.678L2692.81,608.068L2691.33,606.539L2690.68,605.846C2690.3,605.392 2690.44,604.898 2690.78,604.479L2691.64,603.467L2692.45,602.621L2693.13,601.957L2694.05,601.151L2695.38,600.088L2696.95,598.976ZM2703.19,610.02C2704.39,609.181 2704.32,609.306 2705.71,608.586L2707.03,608.013C2708.7,607.374 2708.62,607.399 2710.37,606.96L2712.67,606.561C2715.12,606.363 2715,606.3 2717.36,606.492C2720.89,606.78 2723.68,608.007 2724.2,608.234L2725.73,608.964C2726.03,609.119 2727.73,609.993 2729.26,611.336L2729.82,611.83L2730.43,612.418L2731.11,613.166C2731.4,613.519 2731.76,613.886 2731.62,614.387C2731.51,614.759 2730.99,615.19 2730.8,615.376L2728.45,617.753C2728.07,618.143 2727.76,618.589 2727.16,618.526C2726.66,618.473 2726.04,617.611 2725.87,617.446C2724.49,616.158 2723.33,615.481 2723.09,615.34L2722.57,615.036C2719.29,613.191 2716.32,613.103 2715.8,613.08C2713.69,612.988 2712.02,613.448 2711.71,613.535C2710.8,613.782 2710.08,614.035 2709.25,614.441L2708.36,614.892L2707.86,615.16L2706.76,615.856L2706.5,616.04L2705.03,617.264L2704.39,617.904C2704,618.315 2703.83,618.592 2703.25,618.524L2702.96,618.438L2702.38,617.923L2700.49,615.982L2699.17,614.605C2698.85,614.121 2699.17,613.68 2699.5,613.293L2700.13,612.575C2701.55,611.122 2701.51,611.23 2703.19,610.02ZM2709.95,621.154L2710.73,620.642C2711.01,620.486 2712.71,619.54 2714.53,619.365L2716.24,619.372C2717.92,619.59 2719.04,620.136 2719.27,620.246L2721.08,621.408L2721.68,621.935L2722.09,622.352C2722.46,622.749 2722.77,623.077 2722.6,623.616C2722.45,624.097 2721.37,624.994 2721.33,625.027L2720.92,625.436L2719.55,626.77L2718.83,627.474L2716.51,629.725C2716.03,630.105 2715.71,630.288 2715.12,630.236C2714.64,630.09 2714.47,629.959 2714.08,629.619L2713.12,628.697L2712.25,627.846L2708.96,624.608C2708.61,624.25 2707.9,623.804 2708.05,623.164C2708.14,622.791 2708.87,622.087 2709.02,621.94L2709.95,621.154Z" style="fill:white;"/>
                                <path id="battery" d="M2828.48,593.527C2829.52,593.527 2830.51,593.939 2831.25,594.672C2831.98,595.406 2832.39,596.401 2832.39,597.438L2832.39,626.335C2832.39,627.373 2831.98,628.368 2831.25,629.101C2830.51,629.835 2829.52,630.247 2828.48,630.247L2765.66,630.247C2764.62,630.247 2763.63,629.835 2762.89,629.101C2762.16,628.368 2761.75,627.373 2761.75,626.335L2761.75,597.438C2761.75,596.401 2762.16,595.406 2762.89,594.672C2763.63,593.939 2764.62,593.527 2765.66,593.527L2828.48,593.527ZM2828.48,595.871L2765.66,595.871C2765.24,595.871 2764.84,596.036 2764.55,596.33C2764.26,596.624 2764.09,597.023 2764.09,597.438L2764.09,626.336C2764.09,626.751 2764.26,627.15 2764.55,627.444C2764.84,627.738 2765.24,627.903 2765.66,627.903L2828.48,627.903C2828.9,627.903 2829.3,627.738 2829.59,627.444C2829.88,627.15 2830.05,626.751 2830.05,626.335L2830.05,597.438C2830.05,597.023 2829.88,596.624 2829.59,596.33C2829.3,596.036 2828.9,595.871 2828.48,595.871ZM2815.28,622.824C2815.28,623.24 2815.11,623.638 2814.82,623.932C2814.53,624.226 2814.13,624.391 2813.71,624.391L2769.17,624.391C2768.76,624.391 2768.36,624.226 2768.06,623.932C2767.77,623.638 2767.6,623.24 2767.6,622.824L2767.6,600.839C2767.6,600.423 2767.77,600.024 2768.06,599.73C2768.36,599.436 2768.76,599.271 2769.17,599.271L2813.71,599.271C2814.13,599.271 2814.53,599.436 2814.82,599.73C2815.11,600.024 2815.28,600.423 2815.28,600.839L2815.28,622.824ZM2835.27,604.074L2835.94,604.074C2836.36,604.074 2838.78,604.074 2840.8,606.087C2841.1,606.385 2842.81,608.1 2842.81,610.947L2842.81,610.951C2842.81,613.799 2841.1,615.514 2840.8,615.812C2838.78,617.825 2836.36,617.825 2835.94,617.825L2835.27,617.825L2835.27,604.074Z" style="fill:white;"/>
                            </g>
                        </g>
                    </g>
                    <g transform="matrix(1,0,0,1,-1.85338,0)">
                        <path d="M1743.44,1124.84C1742.41,1125.5 1741.3,1126.12 1740.46,1126.36C1738.33,1126.97 1733.66,1126.36 1733.66,1126.36L1733.66,1009.06C1733.66,1009.06 1738.33,1009.31 1740.46,1009.31C1741.26,1009.31 1742.38,1009.9 1743.44,1010.61L1743.44,697.34C1743.44,639.03 1766.6,583.109 1807.83,541.877C1849.06,500.646 1904.98,477.482 1963.29,477.482L2765.42,477.482C2823.73,477.482 2879.65,500.646 2920.88,541.877C2962.11,583.109 2985.28,639.03 2985.28,697.34L2985.28,1288.74C2986.6,1286.12 2987.6,1284.21 2989.43,1283.17C2991.26,1282.13 2996.24,1282.51 2996.24,1282.51L2996.24,1588.81C2996.24,1588.81 2991.26,1589.81 2989.43,1588.81C2987.6,1587.81 2986.57,1585.15 2985.28,1582.81L2985.28,2845.97C2985.28,2904.28 2962.11,2960.2 2920.88,3001.43C2879.65,3042.66 2823.73,3065.83 2765.42,3065.83L1963.29,3065.83C1904.98,3065.83 1849.06,3042.66 1807.83,3001.43C1766.6,2960.2 1743.44,2904.28 1743.44,2845.97L1743.44,1651.18C1742.41,1652.25 1741.3,1653.25 1740.46,1653.64C1738.33,1654.63 1733.66,1653.64 1733.66,1653.64L1733.66,1463.08C1733.66,1463.08 1738.33,1463.49 1740.46,1463.49C1741.26,1463.49 1742.38,1464.45 1743.44,1465.6L1743.44,1405.09C1742.41,1406.16 1741.3,1407.16 1740.46,1407.55C1738.33,1408.54 1733.66,1407.55 1733.66,1407.55L1733.66,1216.99C1733.66,1216.99 1738.33,1217.4 1740.46,1217.4C1741.26,1217.4 1742.38,1218.36 1743.44,1219.51L1743.44,1124.84ZM2943.19,2845.97L2943.19,697.34C2943.19,650.193 2924.46,604.976 2891.12,571.638C2857.78,538.299 2812.57,519.57 2765.42,519.57L1963.29,519.57C1916.15,519.57 1870.93,538.299 1837.59,571.638C1804.25,604.976 1785.52,650.193 1785.52,697.34L1785.52,2845.97C1785.52,2893.11 1804.25,2938.33 1837.59,2971.67C1870.93,3005.01 1916.15,3023.74 1963.29,3023.74L2765.42,3023.74C2812.57,3023.74 2857.78,3005.01 2891.12,2971.67C2924.46,2938.33 2943.19,2893.11 2943.19,2845.97ZM2360.62,663.546L2236.04,663.546C2207.51,663.546 2184.39,640.416 2184.39,611.887C2184.39,583.358 2207.51,560.228 2236.04,560.228L2360.62,560.228L2489.52,560.231L2490.24,560.23C2518.35,560.23 2541.18,583.376 2541.18,611.887C2541.18,640.398 2518.35,663.544 2490.24,663.544L2489.52,663.543L2360.62,663.546ZM2527.65,3040.8L2582.32,3040.61L2582.23,3040.57L2527.65,3040.8ZM2201.06,3040.8L2364.36,3041.49L2527.65,3040.8L2364.36,3041.38L2201.06,3040.8ZM2201.06,3040.8L2146.49,3040.57L2146.4,3040.61L2201.06,3040.8Z"/>
                    </g>
                </g>
            </g>
        </g>
    </g>
</svg>
