<?xml version="1.0" encoding="UTF-8" standalone="no"?>
<!DOCTYPE svg PUBLIC "-//W3C//DTD SVG 1.1//EN" "http://www.w3.org/Graphics/SVG/1.1/DTD/svg11.dtd">
<svg width="100%" height="100%" viewBox="0 0 1799 3892" version="1.1" xmlns="http://www.w3.org/2000/svg" xmlns:xlink="http://www.w3.org/1999/xlink" xml:space="preserve" xmlns:serif="http://www.serif.com/" style="fill-rule:evenodd;clip-rule:evenodd;stroke-linejoin:round;stroke-miterlimit:2;">
    <g transform="matrix(1,0,0,1,-19735,-7949)">
        <g id="iphone" transform="matrix(0.49923,0,0,1.52642,19745.7,-3710.96)">
            <rect x="-21" y="7639" width="3603" height="2549" style="fill:none;"/>
            <clipPath id="_clip1">
                <rect x="-21" y="7639" width="3603" height="2549"/>
            </clipPath>
            <g clip-path="url(#_clip1)">
                <g transform="matrix(10.5632,0,0,3.45481,-92125,-31199.1)">
                    <path d="M8719.29,11927.2L8719.29,11294.1C8719.29,11280.2 8724.81,11266.9 8734.63,11257.1C8744.45,11247.3 8757.78,11241.8 8771.67,11241.8L9008.01,11241.8C9020.96,11241.8 9033.42,11246.6 9043.01,11255.2C9043.7,11255.8 9044.39,11256.4 9045.05,11257.1C9054.87,11266.9 9060.39,11280.2 9060.39,11294.1L9060.39,11927.2C9060.39,11941.1 9054.87,11954.4 9045.05,11964.3C9035.23,11974.1 9021.9,11979.6 9008.01,11979.6L8771.67,11979.6C8757.78,11979.6 8744.45,11974.1 8734.63,11964.3C8724.81,11954.4 8719.29,11941.1 8719.29,11927.2ZM8888.74,11284.2L8926.72,11284.2L8926.93,11284.2C8935.22,11284.2 8941.94,11277.4 8941.94,11269C8941.94,11260.6 8935.22,11253.7 8926.93,11253.7L8926.72,11253.7L8888.74,11253.7L8852.03,11253.7C8843.63,11253.7 8836.81,11260.5 8836.81,11269C8836.81,11277.4 8843.63,11284.2 8852.03,11284.2L8888.74,11284.2Z" style="fill:white;"/>
                </g>
            </g>
        </g>
    </g>
</svg>
