<?xml version="1.0" encoding="UTF-8" standalone="no"?>
<!DOCTYPE svg PUBLIC "-//W3C//DTD SVG 1.1//EN" "http://www.w3.org/Graphics/SVG/1.1/DTD/svg11.dtd">
<svg width="100%" height="100%" viewBox="0 0 874 619" version="1.1" xmlns="http://www.w3.org/2000/svg" xmlns:xlink="http://www.w3.org/1999/xlink" xml:space="preserve" xmlns:serif="http://www.serif.com/" style="fill-rule:evenodd;clip-rule:evenodd;stroke-linejoin:round;stroke-miterlimit:2;">
    <rect id="logo_site_3" x="0.688" y="0" width="873" height="618.453" style="fill:white;"/>
    <path d="M420.571,443.515C393.12,443.515 372.965,435.448 360.106,419.315C347.247,403.182 343.415,380.427 348.61,351.05C353.869,321.311 365.791,298.315 384.377,282.062C402.963,265.808 425.982,257.681 453.432,257.681C481.003,257.681 501.252,265.898 514.178,282.333C527.104,298.767 530.97,321.673 525.775,351.05C520.58,380.427 508.64,403.182 489.955,419.315C471.27,435.448 448.142,443.515 420.571,443.515ZM415.537,379.042C417.539,385.423 422.453,388.614 430.279,388.614C438.105,388.614 444.218,385.363 448.619,378.862C453.019,372.36 456.284,363.089 458.413,351.05C462.948,325.405 458.051,312.583 443.724,312.583C435.898,312.583 429.824,315.954 425.501,322.696C421.179,329.438 417.942,338.889 415.792,351.05C413.642,363.21 413.557,372.541 415.537,379.042ZM486.828,174.938C492.324,174.938 497.537,177.37 501.069,181.581C504.6,185.791 506.087,191.349 505.13,196.76L501.892,215.074C500.322,223.952 492.606,230.423 483.59,230.423L439.703,230.423C434.207,230.423 428.994,227.991 425.462,223.781C421.931,219.57 420.444,214.012 421.401,208.601L424.639,190.288C426.209,181.409 433.925,174.938 442.941,174.938L486.828,174.938Z" style="fill:none;stroke:black;stroke-width:6.25px;"/>
</svg>
