<?xml version="1.0" encoding="UTF-8" standalone="no"?>
<!DOCTYPE svg PUBLIC "-//W3C//DTD SVG 1.1//EN" "http://www.w3.org/Graphics/SVG/1.1/DTD/svg11.dtd">
<svg width="100%" height="100%" viewBox="0 0 592 591" version="1.1" xmlns="http://www.w3.org/2000/svg" xmlns:xlink="http://www.w3.org/1999/xlink" xml:space="preserve" xmlns:serif="http://www.serif.com/" style="fill-rule:evenodd;clip-rule:evenodd;stroke-linejoin:round;stroke-miterlimit:2;">
    <g transform="matrix(1,0,0,1,-712,0)">
        <g id="logo_site_2" transform="matrix(0.5,0,0,0.769231,-1141.61,9.09495e-13)">
            <rect x="3708.54" y="0" width="1181.1" height="767.717" style="fill:white;"/>
            <g transform="matrix(2.31787,0,0,1.50662,3899.35,-770.957)">
                <path d="M86.264,754.968C87.883,745.518 91.059,709.188 102.986,708.229C130.773,705.997 137.261,730.076 132.759,745.139C129.494,756.063 123.474,774.802 93.276,764.93C89.33,763.64 85.577,758.984 86.264,754.968ZM111.187,729.246C109.739,731.367 106.09,745.681 108.73,746.282C121.867,749.272 119.591,737.606 118.464,734.773C117.496,732.338 112.618,727.152 111.187,729.246ZM194.153,742.442C194.124,748.472 193.861,757.652 185.173,762.301C182.067,763.963 174.262,766.422 167.172,767.393C157.697,768.691 147.099,766.358 143.888,754.097C161.755,764.018 169.414,735.019 160.72,733.993C150.772,732.819 151.812,738.695 150.235,742.924C149.298,745.438 148.485,747.652 146.85,748.055C143.875,748.787 141.21,745.974 140.876,739.381C140.35,728.993 147.782,712.786 156.163,710.02C180.613,701.948 190.678,721.567 191.624,724.202C192.999,728.033 195.561,737.832 191.261,737.779C189.646,737.76 187.326,735.951 186.673,734.928C185.313,732.795 177.585,724.405 175.208,730.999C170.983,742.714 189.671,750.867 194.153,742.442ZM219.006,767.233C199.297,761.007 197.02,735.625 205.891,723.194C214.762,710.764 221.364,709.171 228.352,708.336C249.856,705.767 242.379,724.005 238.03,727.67C231.75,732.959 227.235,727.73 224.22,729.965C221.894,731.688 219.006,742.286 221.715,747.809C222.83,750.083 228.377,749.118 229.859,748.631C234.941,746.963 238.297,745.658 234.234,743.882C230.171,742.105 234.403,734.606 239.928,734.551C245.452,734.497 248.932,735.912 250.032,737.475C254.059,743.197 253.48,744.18 256.113,752.143C258.746,760.106 259.786,761.476 257.403,763.548C253.768,766.708 251.323,767.458 246.877,767.269C242.66,767.089 241.927,766.99 241.579,762.221C241.294,758.335 228.416,770.206 219.006,767.233ZM89.427,780.1C93.392,777.914 104.235,775.013 113.008,773.891C119.646,773.041 120.923,772.689 122.923,780.368C126.092,792.532 115.774,796.325 113.939,800.762C111.921,805.639 128.1,795.296 128.715,804.96C129.205,812.665 132.754,818.59 114.48,822.374C96.671,826.061 91.206,826.28 89.484,816.96C88.955,814.099 90.221,810.888 91.772,809.288C94.467,806.507 104.644,798.197 103.888,795.59C103.133,792.984 88.631,800.338 87.239,793.65C86.33,789.288 84.61,782.754 89.427,780.1ZM224.717,776.281C243.176,767.263 252.953,782.529 253.947,784.617C259.186,795.628 260.261,805.208 256.512,813.474C253.446,820.235 218.47,840.592 215.484,802.033C214.815,793.397 218.39,779.372 224.717,776.281ZM237.562,805.732C242.771,803.718 246.676,791.648 234.079,794.943C228.335,796.446 228.975,809.052 237.562,805.732ZM168.29,773.711C170.401,772.46 191.916,776.068 192.877,776.268C206.174,779.04 210.32,781.287 209.029,789.464C206.373,806.275 196.398,794.036 192.624,797.439C191.322,798.614 195.598,807.953 192.596,818.221C190.398,825.738 174.911,827.999 172.623,819.299C170.34,810.615 184.151,794.863 177.309,794.026C174.982,793.742 165.241,793.494 164.282,787.276C163.029,779.149 166.931,774.517 168.29,773.711ZM148.654,773.867C152.448,774.925 153.575,776.719 154.771,779.316C156.35,782.745 157.956,785.433 158.13,794.441C158.502,813.739 156.888,819.347 154.202,822.083C151.645,824.687 135.282,828.262 135.186,818.31C134.821,780.304 139.359,771.276 148.654,773.867Z" style="fill:rgb(180,203,230);"/>
            </g>
        </g>
    </g>
</svg>
