<?xml version="1.0" encoding="UTF-8" standalone="no"?>
<!DOCTYPE svg PUBLIC "-//W3C//DTD SVG 1.1//EN" "http://www.w3.org/Graphics/SVG/1.1/DTD/svg11.dtd">
<svg width="100%" height="100%" viewBox="0 0 591 591" version="1.1" xmlns="http://www.w3.org/2000/svg" xmlns:xlink="http://www.w3.org/1999/xlink" xml:space="preserve" xmlns:serif="http://www.serif.com/" style="fill-rule:evenodd;clip-rule:evenodd;stroke-linejoin:round;stroke-miterlimit:2;">
    <g transform="matrix(1,0,0,1,-2036,0)">
        <g id="logo_site_4" transform="matrix(0.25,0,0,0.0959683,1393.68,0)">
            <rect x="2570.54" y="0" width="2362.2" height="6153.61" style="fill:rgb(105,152,205);"/>
            <g transform="matrix(4,0,0,10.4201,-10479.9,438.213)">
                <path d="M3368.28,270.293C3369.9,260.843 3373.07,224.512 3385,223.554C3412.79,221.321 3419.28,245.401 3414.77,260.464C3411.51,271.388 3405.49,290.127 3375.29,280.255C3371.34,278.965 3367.59,274.309 3368.28,270.293ZM3393.2,244.57C3391.75,246.692 3388.1,261.006 3390.74,261.607C3403.88,264.597 3401.61,252.93 3400.48,250.097C3399.51,247.663 3394.63,242.476 3393.2,244.57ZM3476.17,257.767C3476.14,263.797 3475.88,272.977 3467.19,277.626C3464.08,279.287 3456.28,281.747 3449.19,282.718C3439.71,284.016 3429.11,281.683 3425.9,269.421C3443.77,279.343 3451.43,250.344 3442.74,249.318C3432.79,248.144 3433.83,254.02 3432.25,258.248C3431.31,260.763 3430.5,262.977 3428.87,263.379C3425.89,264.112 3423.22,261.299 3422.89,254.706C3422.36,244.318 3429.8,228.111 3438.18,225.344C3462.63,217.273 3472.69,236.892 3473.64,239.527C3475.01,243.358 3477.58,253.157 3473.28,253.104C3471.66,253.085 3469.34,251.276 3468.69,250.253C3467.33,248.12 3459.6,239.73 3457.22,246.324C3453,258.039 3471.68,266.192 3476.17,257.767ZM3501.02,282.558C3481.31,276.331 3479.03,250.95 3487.91,238.519C3496.78,226.089 3503.38,224.496 3510.37,223.661C3531.87,221.092 3524.39,239.33 3520.04,242.994C3513.76,248.284 3509.25,243.055 3506.23,245.289C3503.91,247.013 3501.02,257.611 3503.73,263.134C3504.84,265.408 3510.39,264.442 3511.87,263.956C3516.95,262.288 3520.31,260.983 3516.25,259.207C3512.19,257.43 3516.42,249.93 3521.94,249.876C3527.47,249.822 3530.95,251.237 3532.05,252.8C3536.07,258.521 3535.49,259.505 3538.13,267.468C3540.76,275.431 3541.8,276.801 3539.42,278.873C3535.78,282.033 3533.34,282.783 3528.89,282.593C3524.67,282.413 3523.94,282.315 3523.59,277.546C3523.31,273.66 3510.43,285.531 3501.02,282.558ZM3551.37,231.11C3555.97,228.577 3568.53,225.215 3578.7,223.914C3586.39,222.93 3587.87,222.521 3590.19,231.421C3593.86,245.518 3581.91,249.913 3579.78,255.056C3577.44,260.709 3596.19,248.721 3596.9,259.922C3597.47,268.851 3601.58,275.718 3580.41,280.103C3559.77,284.376 3553.43,284.63 3551.44,273.828C3550.82,270.512 3552.29,266.791 3554.09,264.937C3557.21,261.714 3569.01,252.083 3568.13,249.062C3567.25,246.042 3550.45,254.565 3548.83,246.814C3547.78,241.759 3545.79,234.186 3551.37,231.11ZM3708.16,226.684C3729.56,216.233 3740.89,233.925 3742.04,236.345C3748.11,249.107 3749.36,260.209 3745.01,269.788C3741.46,277.624 3700.92,301.217 3697.46,256.529C3696.69,246.52 3700.83,230.266 3708.16,226.684ZM3723.05,260.816C3729.09,258.482 3733.61,244.494 3719.01,248.312C3712.36,250.054 3713.1,264.664 3723.05,260.816ZM3642.77,223.706C3645.21,222.256 3670.15,226.437 3671.26,226.67C3686.67,229.882 3691.48,232.486 3689.98,241.963C3686.9,261.446 3675.34,247.261 3670.97,251.205C3669.46,252.566 3674.41,263.391 3670.94,275.291C3668.39,284.002 3650.44,286.622 3647.79,276.539C3645.14,266.475 3661.15,248.22 3653.22,247.25C3650.52,246.92 3639.23,246.633 3638.12,239.426C3636.67,230.008 3641.19,224.64 3642.77,223.706ZM3620.01,223.887C3624.41,225.112 3625.71,227.192 3627.1,230.202C3628.93,234.176 3630.79,237.291 3630.99,247.731C3631.42,270.096 3629.55,276.594 3626.44,279.766C3623.48,282.784 3604.51,286.927 3604.4,275.393C3603.98,231.346 3609.24,220.884 3620.01,223.887Z" style="fill:white;"/>
            </g>
        </g>
    </g>
</svg>
