<?xml version="1.0" encoding="UTF-8" standalone="no"?>
<!DOCTYPE svg PUBLIC "-//W3C//DTD SVG 1.1//EN" "http://www.w3.org/Graphics/SVG/1.1/DTD/svg11.dtd">
<svg width="100%" height="100%" viewBox="0 0 873 619" version="1.1" xmlns="http://www.w3.org/2000/svg" xmlns:xlink="http://www.w3.org/1999/xlink" xml:space="preserve" xmlns:serif="http://www.serif.com/" style="fill-rule:evenodd;clip-rule:evenodd;stroke-linejoin:round;stroke-miterlimit:2;">
    <rect id="Prancheta1" x="0" y="0" width="873" height="618.453"/>
    <g>
        <path d="M402.669,349.678L394.812,349.678L394.812,366.444C394.812,368.177 395.052,369.404 395.531,370.123C396.011,370.843 396.988,371.202 398.464,371.202C399.497,371.202 400.511,371.092 401.507,370.87C403.499,370.428 404.606,371.516 404.827,374.135L405.491,383.431C405.602,385.939 404.551,387.415 402.337,387.858C398.759,388.558 394.904,388.909 390.773,388.909C384.797,388.909 380.582,387.526 378.129,384.759C375.676,381.992 374.449,377.031 374.449,369.874L374.449,349.678L368.971,349.678C366.5,349.678 365.264,348.35 365.264,345.694L365.264,337.117C365.264,334.461 366.5,333.133 368.971,333.133L374.449,333.133L374.449,321.237C374.449,318.581 375.685,317.253 378.157,317.253L391.105,317.253C393.576,317.253 394.812,318.581 394.812,321.237L394.812,333.133L402.669,333.133C405.215,333.133 406.487,334.461 406.487,337.117L406.487,345.694C406.487,348.35 405.215,349.678 402.669,349.678Z" style="fill:white;fill-rule:nonzero;"/>
        <path d="M436.754,388.909C428.344,388.909 421.732,386.437 416.918,381.494C412.104,376.551 409.697,369.579 409.697,360.578C409.697,351.467 412.104,344.421 416.918,339.441C421.732,334.461 428.344,331.971 436.754,331.971C445.202,331.971 451.851,334.489 456.702,339.524C461.553,344.559 463.978,351.577 463.978,360.578C463.978,369.579 461.553,376.551 456.702,381.494C451.851,386.437 445.202,388.909 436.754,388.909ZM431.719,369.155C432.678,371.11 434.357,372.088 436.754,372.088C439.152,372.088 440.849,371.092 441.845,369.1C442.841,367.108 443.339,364.267 443.339,360.578C443.339,352.721 441.144,348.792 436.754,348.792C434.357,348.792 432.678,349.825 431.719,351.891C430.76,353.957 430.28,356.853 430.28,360.578C430.28,364.304 430.76,367.163 431.719,369.155Z" style="fill:white;fill-rule:nonzero;"/>
        <path d="M505.091,332.248C507.083,332.469 507.95,333.816 507.691,336.287L507.027,347.52C506.99,348.811 506.649,349.678 506.004,350.12C505.358,350.563 504.334,350.784 502.933,350.784L501.494,350.784C500.867,350.784 500.249,350.877 499.64,351.061C499.032,351.245 498.368,351.633 497.648,352.223C496.929,352.813 496.311,353.569 495.795,354.492C495.278,355.414 494.836,356.714 494.467,358.393C494.098,360.071 493.913,361.999 493.913,364.175L493.913,383.542C493.913,386.198 492.659,387.526 490.151,387.526L477.203,387.526C474.731,387.526 473.496,386.198 473.496,383.542L473.496,349.567C473.127,349.456 472.334,349.309 471.116,349.124C469.456,348.903 468.626,347.575 468.626,345.14L468.737,337.006C468.848,334.572 469.862,333.096 471.78,332.58C473.625,332.174 475.598,331.971 477.701,331.971C483.382,331.971 487.605,334.516 490.372,339.607C493.397,334.516 497.363,331.971 502.269,331.971C502.859,331.971 503.8,332.063 505.091,332.248Z" style="fill:white;fill-rule:nonzero;"/>
        <path d="M402.669,271.379L394.812,271.379L394.812,288.145C394.812,289.879 395.052,291.105 395.531,291.824C396.011,292.544 396.988,292.903 398.464,292.903C399.497,292.903 400.511,292.793 401.507,292.571C403.499,292.129 404.606,293.217 404.827,295.836L405.491,305.132C405.602,307.64 404.551,309.116 402.337,309.559C398.759,310.26 394.904,310.61 390.773,310.61C384.797,310.61 380.582,309.227 378.129,306.46C375.676,303.693 374.449,298.732 374.449,291.575L374.449,271.379L368.971,271.379C366.5,271.379 365.264,270.051 365.264,267.395L365.264,258.818C365.264,256.162 366.5,254.834 368.971,254.834L374.449,254.834L374.449,242.938C374.449,240.282 375.685,238.954 378.157,238.954L391.105,238.954C393.576,238.954 394.812,240.282 394.812,242.938L394.812,254.834L402.669,254.834C405.215,254.834 406.487,256.162 406.487,258.818L406.487,267.395C406.487,270.051 405.215,271.379 402.669,271.379Z" style="fill:white;fill-rule:nonzero;"/>
        <path d="M436.754,310.61C428.344,310.61 421.732,308.138 416.918,303.195C412.104,298.252 409.697,291.28 409.697,282.28C409.697,273.168 412.104,266.122 416.918,261.142C421.732,256.162 428.344,253.672 436.754,253.672C445.202,253.672 451.851,256.19 456.702,261.225C461.553,266.261 463.978,273.279 463.978,282.28C463.978,291.28 461.553,298.252 456.702,303.195C451.851,308.138 445.202,310.61 436.754,310.61ZM431.719,290.856C432.678,292.811 434.357,293.789 436.754,293.789C439.152,293.789 440.849,292.793 441.845,290.801C442.841,288.809 443.339,285.968 443.339,282.28C443.339,274.422 441.144,270.494 436.754,270.494C434.357,270.494 432.678,271.526 431.719,273.592C430.76,275.658 430.28,278.554 430.28,282.28C430.28,286.005 430.76,288.864 431.719,290.856Z" style="fill:white;fill-rule:nonzero;"/>
        <rect x="415.5" y="317.266" width="42" height="8" style="fill:white;"/>
    </g>
</svg>
