<?xml version="1.0" encoding="UTF-8" standalone="no"?>
<!DOCTYPE svg PUBLIC "-//W3C//DTD SVG 1.1//EN" "http://www.w3.org/Graphics/SVG/1.1/DTD/svg11.dtd">
<svg width="100%" height="100%" viewBox="0 0 591 591" version="1.1" xmlns="http://www.w3.org/2000/svg" xmlns:xlink="http://www.w3.org/1999/xlink" xml:space="preserve" xmlns:serif="http://www.serif.com/" style="fill-rule:evenodd;clip-rule:evenodd;stroke-linecap:round;stroke-linejoin:round;stroke-miterlimit:1.5;">
    <g transform="matrix(1,0,0,1,-2715,0)">
        <g id="logo_site_5" transform="matrix(0.5,0,0,0.769231,860.822,9.09495e-13)">
            <rect x="3708.54" y="0" width="1181.1" height="767.717" style="fill:white;"/>
            <clipPath id="_clip1">
                <rect x="3708.54" y="0" width="1181.1" height="767.717"/>
            </clipPath>
            <g clip-path="url(#_clip1)">
                <g transform="matrix(0.799334,0.139218,-0.214181,0.519567,5686.14,-1155.24)">
                    <g transform="matrix(1.91194,0,0,1.91194,-717.741,2039.92)">
                        <path d="M224.99,211.378C224.956,218.366 224.652,229.006 214.583,234.393C210.983,236.319 201.937,239.169 193.721,240.295C182.739,241.799 170.457,239.095 166.736,224.885C187.442,236.384 196.318,202.775 186.244,201.586C174.714,200.226 175.92,207.035 174.092,211.936C173.006,214.85 172.064,217.416 170.169,217.883C166.721,218.732 163.633,215.471 163.245,207.831C162.635,195.791 171.249,177.009 180.962,173.802C209.298,164.448 220.963,187.186 222.059,190.239C223.653,194.679 226.622,206.035 221.638,205.974C219.766,205.952 217.078,203.856 216.321,202.67C214.744,200.198 205.789,190.475 203.034,198.116C198.138,211.693 219.795,221.142 224.99,211.378Z" style="fill:none;stroke:rgb(105,152,205);stroke-width:2.63px;"/>
                    </g>
                    <g transform="matrix(1.91194,0,0,1.91194,-717.741,2613.46)">
                        <path d="M224.99,211.378C224.956,218.366 224.652,229.006 214.583,234.393C210.983,236.319 201.937,239.169 193.721,240.295C182.739,241.799 170.457,239.095 166.736,224.885C187.442,236.384 196.318,202.775 186.244,201.586C174.714,200.226 175.92,207.035 174.092,211.936C173.006,214.85 172.064,217.416 170.169,217.883C166.721,218.732 163.633,215.471 163.245,207.831C162.635,195.791 171.249,177.009 180.962,173.802C209.298,164.448 220.963,187.186 222.059,190.239C223.653,194.679 226.622,206.035 221.638,205.974C219.766,205.952 217.078,203.856 216.321,202.67C214.744,200.198 205.789,190.475 203.034,198.116C198.138,211.693 219.795,221.142 224.99,211.378Z" style="fill:none;stroke:rgb(105,152,205);stroke-width:2.63px;"/>
                    </g>
                    <g transform="matrix(1.91194,0,0,1.91194,-717.741,3186.99)">
                        <path d="M224.99,211.378C224.956,218.366 224.652,229.006 214.583,234.393C210.983,236.319 201.937,239.169 193.721,240.295C182.739,241.799 170.457,239.095 166.736,224.885C187.442,236.384 196.318,202.775 186.244,201.586C174.714,200.226 175.92,207.035 174.092,211.936C173.006,214.85 172.064,217.416 170.169,217.883C166.721,218.732 163.633,215.471 163.245,207.831C162.635,195.791 171.249,177.009 180.962,173.802C209.298,164.448 220.963,187.186 222.059,190.239C223.653,194.679 226.622,206.035 221.638,205.974C219.766,205.952 217.078,203.856 216.321,202.67C214.744,200.198 205.789,190.475 203.034,198.116C198.138,211.693 219.795,221.142 224.99,211.378Z" style="fill:none;stroke:rgb(105,152,205);stroke-width:2.63px;"/>
                    </g>
                    <g transform="matrix(1.91194,0,0,1.91194,-1780.73,2613.46)">
                        <path d="M224.99,211.378C224.956,218.366 224.652,229.006 214.583,234.393C210.983,236.319 201.937,239.169 193.721,240.295C182.739,241.799 170.457,239.095 166.736,224.885C187.442,236.384 196.318,202.775 186.244,201.586C174.714,200.226 175.92,207.035 174.092,211.936C173.006,214.85 172.064,217.416 170.169,217.883C166.721,218.732 163.633,215.471 163.245,207.831C162.635,195.791 171.249,177.009 180.962,173.802C209.298,164.448 220.963,187.186 222.059,190.239C223.653,194.679 226.622,206.035 221.638,205.974C219.766,205.952 217.078,203.856 216.321,202.67C214.744,200.198 205.789,190.475 203.034,198.116C198.138,211.693 219.795,221.142 224.99,211.378Z" style="fill:none;stroke:rgb(105,152,205);stroke-width:2.63px;"/>
                    </g>
                    <g transform="matrix(1.91194,0,0,1.91194,-1780.73,3186.99)">
                        <path d="M224.99,211.378C224.956,218.366 224.652,229.006 214.583,234.393C210.983,236.319 201.937,239.169 193.721,240.295C182.739,241.799 170.457,239.095 166.736,224.885C187.442,236.384 196.318,202.775 186.244,201.586C174.714,200.226 175.92,207.035 174.092,211.936C173.006,214.85 172.064,217.416 170.169,217.883C166.721,218.732 163.633,215.471 163.245,207.831C162.635,195.791 171.249,177.009 180.962,173.802C209.298,164.448 220.963,187.186 222.059,190.239C223.653,194.679 226.622,206.035 221.638,205.974C219.766,205.952 217.078,203.856 216.321,202.67C214.744,200.198 205.789,190.475 203.034,198.116C198.138,211.693 219.795,221.142 224.99,211.378Z" style="fill:none;stroke:rgb(105,152,205);stroke-width:2.63px;"/>
                    </g>
                    <g transform="matrix(1.91194,0,0,1.91194,-540.576,2613.46)">
                        <path d="M224.99,211.378C224.956,218.366 224.652,229.006 214.583,234.393C210.983,236.319 201.937,239.169 193.721,240.295C182.739,241.799 170.457,239.095 166.736,224.885C187.442,236.384 196.318,202.775 186.244,201.586C174.714,200.226 175.92,207.035 174.092,211.936C173.006,214.85 172.064,217.416 170.169,217.883C166.721,218.732 163.633,215.471 163.245,207.831C162.635,195.791 171.249,177.009 180.962,173.802C209.298,164.448 220.963,187.186 222.059,190.239C223.653,194.679 226.622,206.035 221.638,205.974C219.766,205.952 217.078,203.856 216.321,202.67C214.744,200.198 205.789,190.475 203.034,198.116C198.138,211.693 219.795,221.142 224.99,211.378Z" style="fill:none;stroke:rgb(105,152,205);stroke-width:2.63px;"/>
                    </g>
                    <g transform="matrix(1.91194,0,0,1.91194,-540.576,3186.99)">
                        <path d="M224.99,211.378C224.956,218.366 224.652,229.006 214.583,234.393C210.983,236.319 201.937,239.169 193.721,240.295C182.739,241.799 170.457,239.095 166.736,224.885C187.442,236.384 196.318,202.775 186.244,201.586C174.714,200.226 175.92,207.035 174.092,211.936C173.006,214.85 172.064,217.416 170.169,217.883C166.721,218.732 163.633,215.471 163.245,207.831C162.635,195.791 171.249,177.009 180.962,173.802C209.298,164.448 220.963,187.186 222.059,190.239C223.653,194.679 226.622,206.035 221.638,205.974C219.766,205.952 217.078,203.856 216.321,202.67C214.744,200.198 205.789,190.475 203.034,198.116C198.138,211.693 219.795,221.142 224.99,211.378Z" style="fill:none;stroke:rgb(105,152,205);stroke-width:2.63px;"/>
                    </g>
                    <g transform="matrix(1.91194,0,0,1.91194,-1603.57,2613.46)">
                        <path d="M224.99,211.378C224.956,218.366 224.652,229.006 214.583,234.393C210.983,236.319 201.937,239.169 193.721,240.295C182.739,241.799 170.457,239.095 166.736,224.885C187.442,236.384 196.318,202.775 186.244,201.586C174.714,200.226 175.92,207.035 174.092,211.936C173.006,214.85 172.064,217.416 170.169,217.883C166.721,218.732 163.633,215.471 163.245,207.831C162.635,195.791 171.249,177.009 180.962,173.802C209.298,164.448 220.963,187.186 222.059,190.239C223.653,194.679 226.622,206.035 221.638,205.974C219.766,205.952 217.078,203.856 216.321,202.67C214.744,200.198 205.789,190.475 203.034,198.116C198.138,211.693 219.795,221.142 224.99,211.378Z" style="fill:none;stroke:rgb(105,152,205);stroke-width:2.63px;"/>
                    </g>
                    <g transform="matrix(1.91194,0,0,1.91194,-1603.57,3186.99)">
                        <path d="M224.99,211.378C224.956,218.366 224.652,229.006 214.583,234.393C210.983,236.319 201.937,239.169 193.721,240.295C182.739,241.799 170.457,239.095 166.736,224.885C187.442,236.384 196.318,202.775 186.244,201.586C174.714,200.226 175.92,207.035 174.092,211.936C173.006,214.85 172.064,217.416 170.169,217.883C166.721,218.732 163.633,215.471 163.245,207.831C162.635,195.791 171.249,177.009 180.962,173.802C209.298,164.448 220.963,187.186 222.059,190.239C223.653,194.679 226.622,206.035 221.638,205.974C219.766,205.952 217.078,203.856 216.321,202.67C214.744,200.198 205.789,190.475 203.034,198.116C198.138,211.693 219.795,221.142 224.99,211.378Z" style="fill:none;stroke:rgb(105,152,205);stroke-width:2.63px;"/>
                    </g>
                    <g transform="matrix(1.91194,0,0,1.91194,-1249.24,2231.1)">
                        <path d="M224.99,211.378C224.956,218.366 224.652,229.006 214.583,234.393C210.983,236.319 201.937,239.169 193.721,240.295C182.739,241.799 170.457,239.095 166.736,224.885C187.442,236.384 196.318,202.775 186.244,201.586C174.714,200.226 175.92,207.035 174.092,211.936C173.006,214.85 172.064,217.416 170.169,217.883C166.721,218.732 163.633,215.471 163.245,207.831C162.635,195.791 171.249,177.009 180.962,173.802C209.298,164.448 220.963,187.186 222.059,190.239C223.653,194.679 226.622,206.035 221.638,205.974C219.766,205.952 217.078,203.856 216.321,202.67C214.744,200.198 205.789,190.475 203.034,198.116C198.138,211.693 219.795,221.142 224.99,211.378Z" style="fill:none;stroke:rgb(105,152,205);stroke-width:2.63px;"/>
                    </g>
                    <g transform="matrix(1.91194,0,0,1.91194,-1249.24,2804.64)">
                        <path d="M224.99,211.378C224.956,218.366 224.652,229.006 214.583,234.393C210.983,236.319 201.937,239.169 193.721,240.295C182.739,241.799 170.457,239.095 166.736,224.885C187.442,236.384 196.318,202.775 186.244,201.586C174.714,200.226 175.92,207.035 174.092,211.936C173.006,214.85 172.064,217.416 170.169,217.883C166.721,218.732 163.633,215.471 163.245,207.831C162.635,195.791 171.249,177.009 180.962,173.802C209.298,164.448 220.963,187.186 222.059,190.239C223.653,194.679 226.622,206.035 221.638,205.974C219.766,205.952 217.078,203.856 216.321,202.67C214.744,200.198 205.789,190.475 203.034,198.116C198.138,211.693 219.795,221.142 224.99,211.378Z" style="fill:none;stroke:rgb(105,152,205);stroke-width:2.63px;"/>
                    </g>
                    <g transform="matrix(1.91194,0,0,1.91194,-1249.24,3378.17)">
                        <path d="M224.99,211.378C224.956,218.366 224.652,229.006 214.583,234.393C210.983,236.319 201.937,239.169 193.721,240.295C182.739,241.799 170.457,239.095 166.736,224.885C187.442,236.384 196.318,202.775 186.244,201.586C174.714,200.226 175.92,207.035 174.092,211.936C173.006,214.85 172.064,217.416 170.169,217.883C166.721,218.732 163.633,215.471 163.245,207.831C162.635,195.791 171.249,177.009 180.962,173.802C209.298,164.448 220.963,187.186 222.059,190.239C223.653,194.679 226.622,206.035 221.638,205.974C219.766,205.952 217.078,203.856 216.321,202.67C214.744,200.198 205.789,190.475 203.034,198.116C198.138,211.693 219.795,221.142 224.99,211.378Z" style="fill:none;stroke:rgb(105,152,205);stroke-width:2.63px;"/>
                    </g>
                    <g transform="matrix(1.91194,0,0,1.91194,-717.741,2231.1)">
                        <path d="M224.99,211.378C224.956,218.366 224.652,229.006 214.583,234.393C210.983,236.319 201.937,239.169 193.721,240.295C182.739,241.799 170.457,239.095 166.736,224.885C187.442,236.384 196.318,202.775 186.244,201.586C174.714,200.226 175.92,207.035 174.092,211.936C173.006,214.85 172.064,217.416 170.169,217.883C166.721,218.732 163.633,215.471 163.245,207.831C162.635,195.791 171.249,177.009 180.962,173.802C209.298,164.448 220.963,187.186 222.059,190.239C223.653,194.679 226.622,206.035 221.638,205.974C219.766,205.952 217.078,203.856 216.321,202.67C214.744,200.198 205.789,190.475 203.034,198.116C198.138,211.693 219.795,221.142 224.99,211.378Z" style="fill:none;stroke:rgb(105,152,205);stroke-width:2.63px;"/>
                    </g>
                    <g transform="matrix(1.91194,0,0,1.91194,-717.741,2804.64)">
                        <path d="M224.99,211.378C224.956,218.366 224.652,229.006 214.583,234.393C210.983,236.319 201.937,239.169 193.721,240.295C182.739,241.799 170.457,239.095 166.736,224.885C187.442,236.384 196.318,202.775 186.244,201.586C174.714,200.226 175.92,207.035 174.092,211.936C173.006,214.85 172.064,217.416 170.169,217.883C166.721,218.732 163.633,215.471 163.245,207.831C162.635,195.791 171.249,177.009 180.962,173.802C209.298,164.448 220.963,187.186 222.059,190.239C223.653,194.679 226.622,206.035 221.638,205.974C219.766,205.952 217.078,203.856 216.321,202.67C214.744,200.198 205.789,190.475 203.034,198.116C198.138,211.693 219.795,221.142 224.99,211.378Z" style="fill:none;stroke:rgb(105,152,205);stroke-width:2.63px;"/>
                    </g>
                    <g transform="matrix(1.91194,0,0,1.91194,-717.741,3378.17)">
                        <path d="M224.99,211.378C224.956,218.366 224.652,229.006 214.583,234.393C210.983,236.319 201.937,239.169 193.721,240.295C182.739,241.799 170.457,239.095 166.736,224.885C187.442,236.384 196.318,202.775 186.244,201.586C174.714,200.226 175.92,207.035 174.092,211.936C173.006,214.85 172.064,217.416 170.169,217.883C166.721,218.732 163.633,215.471 163.245,207.831C162.635,195.791 171.249,177.009 180.962,173.802C209.298,164.448 220.963,187.186 222.059,190.239C223.653,194.679 226.622,206.035 221.638,205.974C219.766,205.952 217.078,203.856 216.321,202.67C214.744,200.198 205.789,190.475 203.034,198.116C198.138,211.693 219.795,221.142 224.99,211.378Z" style="fill:none;stroke:rgb(105,152,205);stroke-width:2.63px;"/>
                    </g>
                    <g transform="matrix(1.91194,0,0,1.91194,-1780.73,2231.1)">
                        <path d="M224.99,211.378C224.956,218.366 224.652,229.006 214.583,234.393C210.983,236.319 201.937,239.169 193.721,240.295C182.739,241.799 170.457,239.095 166.736,224.885C187.442,236.384 196.318,202.775 186.244,201.586C174.714,200.226 175.92,207.035 174.092,211.936C173.006,214.85 172.064,217.416 170.169,217.883C166.721,218.732 163.633,215.471 163.245,207.831C162.635,195.791 171.249,177.009 180.962,173.802C209.298,164.448 220.963,187.186 222.059,190.239C223.653,194.679 226.622,206.035 221.638,205.974C219.766,205.952 217.078,203.856 216.321,202.67C214.744,200.198 205.789,190.475 203.034,198.116C198.138,211.693 219.795,221.142 224.99,211.378Z" style="fill:none;stroke:rgb(105,152,205);stroke-width:2.63px;"/>
                    </g>
                    <g transform="matrix(1.91194,0,0,1.91194,-1780.73,2804.64)">
                        <path d="M224.99,211.378C224.956,218.366 224.652,229.006 214.583,234.393C210.983,236.319 201.937,239.169 193.721,240.295C182.739,241.799 170.457,239.095 166.736,224.885C187.442,236.384 196.318,202.775 186.244,201.586C174.714,200.226 175.92,207.035 174.092,211.936C173.006,214.85 172.064,217.416 170.169,217.883C166.721,218.732 163.633,215.471 163.245,207.831C162.635,195.791 171.249,177.009 180.962,173.802C209.298,164.448 220.963,187.186 222.059,190.239C223.653,194.679 226.622,206.035 221.638,205.974C219.766,205.952 217.078,203.856 216.321,202.67C214.744,200.198 205.789,190.475 203.034,198.116C198.138,211.693 219.795,221.142 224.99,211.378Z" style="fill:none;stroke:rgb(105,152,205);stroke-width:2.63px;"/>
                    </g>
                    <g transform="matrix(1.91194,0,0,1.91194,-1780.73,3378.17)">
                        <path d="M224.99,211.378C224.956,218.366 224.652,229.006 214.583,234.393C210.983,236.319 201.937,239.169 193.721,240.295C182.739,241.799 170.457,239.095 166.736,224.885C187.442,236.384 196.318,202.775 186.244,201.586C174.714,200.226 175.92,207.035 174.092,211.936C173.006,214.85 172.064,217.416 170.169,217.883C166.721,218.732 163.633,215.471 163.245,207.831C162.635,195.791 171.249,177.009 180.962,173.802C209.298,164.448 220.963,187.186 222.059,190.239C223.653,194.679 226.622,206.035 221.638,205.974C219.766,205.952 217.078,203.856 216.321,202.67C214.744,200.198 205.789,190.475 203.034,198.116C198.138,211.693 219.795,221.142 224.99,211.378Z" style="fill:none;stroke:rgb(105,152,205);stroke-width:2.63px;"/>
                    </g>
                    <g transform="matrix(1.91194,0,0,1.91194,-1249.24,2039.92)">
                        <path d="M224.99,211.378C224.956,218.366 224.652,229.006 214.583,234.393C210.983,236.319 201.937,239.169 193.721,240.295C182.739,241.799 170.457,239.095 166.736,224.885C187.442,236.384 196.318,202.775 186.244,201.586C174.714,200.226 175.92,207.035 174.092,211.936C173.006,214.85 172.064,217.416 170.169,217.883C166.721,218.732 163.633,215.471 163.245,207.831C162.635,195.791 171.249,177.009 180.962,173.802C209.298,164.448 220.963,187.186 222.059,190.239C223.653,194.679 226.622,206.035 221.638,205.974C219.766,205.952 217.078,203.856 216.321,202.67C214.744,200.198 205.789,190.475 203.034,198.116C198.138,211.693 219.795,221.142 224.99,211.378Z" style="fill:none;stroke:rgb(105,152,205);stroke-width:2.63px;"/>
                    </g>
                    <g transform="matrix(1.91194,0,0,1.91194,-1249.24,2613.46)">
                        <path d="M224.99,211.378C224.956,218.366 224.652,229.006 214.583,234.393C210.983,236.319 201.937,239.169 193.721,240.295C182.739,241.799 170.457,239.095 166.736,224.885C187.442,236.384 196.318,202.775 186.244,201.586C174.714,200.226 175.92,207.035 174.092,211.936C173.006,214.85 172.064,217.416 170.169,217.883C166.721,218.732 163.633,215.471 163.245,207.831C162.635,195.791 171.249,177.009 180.962,173.802C209.298,164.448 220.963,187.186 222.059,190.239C223.653,194.679 226.622,206.035 221.638,205.974C219.766,205.952 217.078,203.856 216.321,202.67C214.744,200.198 205.789,190.475 203.034,198.116C198.138,211.693 219.795,221.142 224.99,211.378Z" style="fill:none;stroke:rgb(105,152,205);stroke-width:2.63px;"/>
                    </g>
                    <g transform="matrix(1.91194,0,0,1.91194,-1249.24,3186.99)">
                        <path d="M224.99,211.378C224.956,218.366 224.652,229.006 214.583,234.393C210.983,236.319 201.937,239.169 193.721,240.295C182.739,241.799 170.457,239.095 166.736,224.885C187.442,236.384 196.318,202.775 186.244,201.586C174.714,200.226 175.92,207.035 174.092,211.936C173.006,214.85 172.064,217.416 170.169,217.883C166.721,218.732 163.633,215.471 163.245,207.831C162.635,195.791 171.249,177.009 180.962,173.802C209.298,164.448 220.963,187.186 222.059,190.239C223.653,194.679 226.622,206.035 221.638,205.974C219.766,205.952 217.078,203.856 216.321,202.67C214.744,200.198 205.789,190.475 203.034,198.116C198.138,211.693 219.795,221.142 224.99,211.378Z" style="fill:none;stroke:rgb(105,152,205);stroke-width:2.63px;"/>
                    </g>
                    <g transform="matrix(1.91194,0,0,1.91194,-1249.24,2422.28)">
                        <path d="M224.99,211.378C224.956,218.366 224.652,229.006 214.583,234.393C210.983,236.319 201.937,239.169 193.721,240.295C182.739,241.799 170.457,239.095 166.736,224.885C187.442,236.384 196.318,202.775 186.244,201.586C174.714,200.226 175.92,207.035 174.092,211.936C173.006,214.85 172.064,217.416 170.169,217.883C166.721,218.732 163.633,215.471 163.245,207.831C162.635,195.791 171.249,177.009 180.962,173.802C209.298,164.448 220.963,187.186 222.059,190.239C223.653,194.679 226.622,206.035 221.638,205.974C219.766,205.952 217.078,203.856 216.321,202.67C214.744,200.198 205.789,190.475 203.034,198.116C198.138,211.693 219.795,221.142 224.99,211.378Z" style="fill:none;stroke:rgb(105,152,205);stroke-width:2.63px;"/>
                    </g>
                    <g transform="matrix(1.91194,0,0,1.91194,-1249.24,2995.82)">
                        <path d="M224.99,211.378C224.956,218.366 224.652,229.006 214.583,234.393C210.983,236.319 201.937,239.169 193.721,240.295C182.739,241.799 170.457,239.095 166.736,224.885C187.442,236.384 196.318,202.775 186.244,201.586C174.714,200.226 175.92,207.035 174.092,211.936C173.006,214.85 172.064,217.416 170.169,217.883C166.721,218.732 163.633,215.471 163.245,207.831C162.635,195.791 171.249,177.009 180.962,173.802C209.298,164.448 220.963,187.186 222.059,190.239C223.653,194.679 226.622,206.035 221.638,205.974C219.766,205.952 217.078,203.856 216.321,202.67C214.744,200.198 205.789,190.475 203.034,198.116C198.138,211.693 219.795,221.142 224.99,211.378Z" style="fill:none;stroke:rgb(105,152,205);stroke-width:2.63px;"/>
                    </g>
                    <g transform="matrix(1.91194,0,0,1.91194,-1249.24,3569.35)">
                        <path d="M224.99,211.378C224.956,218.366 224.652,229.006 214.583,234.393C210.983,236.319 201.937,239.169 193.721,240.295C182.739,241.799 170.457,239.095 166.736,224.885C187.442,236.384 196.318,202.775 186.244,201.586C174.714,200.226 175.92,207.035 174.092,211.936C173.006,214.85 172.064,217.416 170.169,217.883C166.721,218.732 163.633,215.471 163.245,207.831C162.635,195.791 171.249,177.009 180.962,173.802C209.298,164.448 220.963,187.186 222.059,190.239C223.653,194.679 226.622,206.035 221.638,205.974C219.766,205.952 217.078,203.856 216.321,202.67C214.744,200.198 205.789,190.475 203.034,198.116C198.138,211.693 219.795,221.142 224.99,211.378Z" style="fill:none;stroke:rgb(105,152,205);stroke-width:2.63px;"/>
                    </g>
                    <g transform="matrix(1.91194,0,0,1.91194,-717.741,2422.28)">
                        <path d="M224.99,211.378C224.956,218.366 224.652,229.006 214.583,234.393C210.983,236.319 201.937,239.169 193.721,240.295C182.739,241.799 170.457,239.095 166.736,224.885C187.442,236.384 196.318,202.775 186.244,201.586C174.714,200.226 175.92,207.035 174.092,211.936C173.006,214.85 172.064,217.416 170.169,217.883C166.721,218.732 163.633,215.471 163.245,207.831C162.635,195.791 171.249,177.009 180.962,173.802C209.298,164.448 220.963,187.186 222.059,190.239C223.653,194.679 226.622,206.035 221.638,205.974C219.766,205.952 217.078,203.856 216.321,202.67C214.744,200.198 205.789,190.475 203.034,198.116C198.138,211.693 219.795,221.142 224.99,211.378Z" style="fill:none;stroke:rgb(105,152,205);stroke-width:2.63px;"/>
                    </g>
                    <g transform="matrix(1.91194,0,0,1.91194,-717.741,2995.82)">
                        <path d="M224.99,211.378C224.956,218.366 224.652,229.006 214.583,234.393C210.983,236.319 201.937,239.169 193.721,240.295C182.739,241.799 170.457,239.095 166.736,224.885C187.442,236.384 196.318,202.775 186.244,201.586C174.714,200.226 175.92,207.035 174.092,211.936C173.006,214.85 172.064,217.416 170.169,217.883C166.721,218.732 163.633,215.471 163.245,207.831C162.635,195.791 171.249,177.009 180.962,173.802C209.298,164.448 220.963,187.186 222.059,190.239C223.653,194.679 226.622,206.035 221.638,205.974C219.766,205.952 217.078,203.856 216.321,202.67C214.744,200.198 205.789,190.475 203.034,198.116C198.138,211.693 219.795,221.142 224.99,211.378Z" style="fill:none;stroke:rgb(105,152,205);stroke-width:2.63px;"/>
                    </g>
                    <g transform="matrix(1.91194,0,0,1.91194,-1780.73,2422.28)">
                        <path d="M224.99,211.378C224.956,218.366 224.652,229.006 214.583,234.393C210.983,236.319 201.937,239.169 193.721,240.295C182.739,241.799 170.457,239.095 166.736,224.885C187.442,236.384 196.318,202.775 186.244,201.586C174.714,200.226 175.92,207.035 174.092,211.936C173.006,214.85 172.064,217.416 170.169,217.883C166.721,218.732 163.633,215.471 163.245,207.831C162.635,195.791 171.249,177.009 180.962,173.802C209.298,164.448 220.963,187.186 222.059,190.239C223.653,194.679 226.622,206.035 221.638,205.974C219.766,205.952 217.078,203.856 216.321,202.67C214.744,200.198 205.789,190.475 203.034,198.116C198.138,211.693 219.795,221.142 224.99,211.378Z" style="fill:none;stroke:rgb(105,152,205);stroke-width:2.63px;"/>
                    </g>
                    <g transform="matrix(1.91194,0,0,1.91194,-1780.73,2995.82)">
                        <path d="M224.99,211.378C224.956,218.366 224.652,229.006 214.583,234.393C210.983,236.319 201.937,239.169 193.721,240.295C182.739,241.799 170.457,239.095 166.736,224.885C187.442,236.384 196.318,202.775 186.244,201.586C174.714,200.226 175.92,207.035 174.092,211.936C173.006,214.85 172.064,217.416 170.169,217.883C166.721,218.732 163.633,215.471 163.245,207.831C162.635,195.791 171.249,177.009 180.962,173.802C209.298,164.448 220.963,187.186 222.059,190.239C223.653,194.679 226.622,206.035 221.638,205.974C219.766,205.952 217.078,203.856 216.321,202.67C214.744,200.198 205.789,190.475 203.034,198.116C198.138,211.693 219.795,221.142 224.99,211.378Z" style="fill:none;stroke:rgb(105,152,205);stroke-width:2.63px;"/>
                    </g>
                    <g transform="matrix(1.91194,0,0,1.91194,-1780.73,3569.35)">
                        <path d="M224.99,211.378C224.956,218.366 224.652,229.006 214.583,234.393C210.983,236.319 201.937,239.169 193.721,240.295C182.739,241.799 170.457,239.095 166.736,224.885C187.442,236.384 196.318,202.775 186.244,201.586C174.714,200.226 175.92,207.035 174.092,211.936C173.006,214.85 172.064,217.416 170.169,217.883C166.721,218.732 163.633,215.471 163.245,207.831C162.635,195.791 171.249,177.009 180.962,173.802C209.298,164.448 220.963,187.186 222.059,190.239C223.653,194.679 226.622,206.035 221.638,205.974C219.766,205.952 217.078,203.856 216.321,202.67C214.744,200.198 205.789,190.475 203.034,198.116C198.138,211.693 219.795,221.142 224.99,211.378Z" style="fill:none;stroke:rgb(105,152,205);stroke-width:2.63px;"/>
                    </g>
                    <g transform="matrix(1.91194,0,0,1.91194,-1426.4,2231.1)">
                        <path d="M224.99,211.378C224.956,218.366 224.652,229.006 214.583,234.393C210.983,236.319 201.937,239.169 193.721,240.295C182.739,241.799 170.457,239.095 166.736,224.885C187.442,236.384 196.318,202.775 186.244,201.586C174.714,200.226 175.92,207.035 174.092,211.936C173.006,214.85 172.064,217.416 170.169,217.883C166.721,218.732 163.633,215.471 163.245,207.831C162.635,195.791 171.249,177.009 180.962,173.802C209.298,164.448 220.963,187.186 222.059,190.239C223.653,194.679 226.622,206.035 221.638,205.974C219.766,205.952 217.078,203.856 216.321,202.67C214.744,200.198 205.789,190.475 203.034,198.116C198.138,211.693 219.795,221.142 224.99,211.378Z" style="fill:none;stroke:rgb(105,152,205);stroke-width:2.63px;"/>
                    </g>
                    <g transform="matrix(1.91194,0,0,1.91194,-1426.4,2804.64)">
                        <path d="M224.99,211.378C224.956,218.366 224.652,229.006 214.583,234.393C210.983,236.319 201.937,239.169 193.721,240.295C182.739,241.799 170.457,239.095 166.736,224.885C187.442,236.384 196.318,202.775 186.244,201.586C174.714,200.226 175.92,207.035 174.092,211.936C173.006,214.85 172.064,217.416 170.169,217.883C166.721,218.732 163.633,215.471 163.245,207.831C162.635,195.791 171.249,177.009 180.962,173.802C209.298,164.448 220.963,187.186 222.059,190.239C223.653,194.679 226.622,206.035 221.638,205.974C219.766,205.952 217.078,203.856 216.321,202.67C214.744,200.198 205.789,190.475 203.034,198.116C198.138,211.693 219.795,221.142 224.99,211.378Z" style="fill:none;stroke:rgb(105,152,205);stroke-width:2.63px;"/>
                    </g>
                    <g transform="matrix(1.91194,0,0,1.91194,-1426.4,3378.17)">
                        <path d="M224.99,211.378C224.956,218.366 224.652,229.006 214.583,234.393C210.983,236.319 201.937,239.169 193.721,240.295C182.739,241.799 170.457,239.095 166.736,224.885C187.442,236.384 196.318,202.775 186.244,201.586C174.714,200.226 175.92,207.035 174.092,211.936C173.006,214.85 172.064,217.416 170.169,217.883C166.721,218.732 163.633,215.471 163.245,207.831C162.635,195.791 171.249,177.009 180.962,173.802C209.298,164.448 220.963,187.186 222.059,190.239C223.653,194.679 226.622,206.035 221.638,205.974C219.766,205.952 217.078,203.856 216.321,202.67C214.744,200.198 205.789,190.475 203.034,198.116C198.138,211.693 219.795,221.142 224.99,211.378Z" style="fill:none;stroke:rgb(105,152,205);stroke-width:2.63px;"/>
                    </g>
                    <g transform="matrix(1.91194,0,0,1.91194,-894.906,2231.1)">
                        <path d="M224.99,211.378C224.956,218.366 224.652,229.006 214.583,234.393C210.983,236.319 201.937,239.169 193.721,240.295C182.739,241.799 170.457,239.095 166.736,224.885C187.442,236.384 196.318,202.775 186.244,201.586C174.714,200.226 175.92,207.035 174.092,211.936C173.006,214.85 172.064,217.416 170.169,217.883C166.721,218.732 163.633,215.471 163.245,207.831C162.635,195.791 171.249,177.009 180.962,173.802C209.298,164.448 220.963,187.186 222.059,190.239C223.653,194.679 226.622,206.035 221.638,205.974C219.766,205.952 217.078,203.856 216.321,202.67C214.744,200.198 205.789,190.475 203.034,198.116C198.138,211.693 219.795,221.142 224.99,211.378Z" style="fill:none;stroke:rgb(105,152,205);stroke-width:2.63px;"/>
                    </g>
                    <g transform="matrix(1.91194,0,0,1.91194,-894.906,2804.64)">
                        <path d="M224.99,211.378C224.956,218.366 224.652,229.006 214.583,234.393C210.983,236.319 201.937,239.169 193.721,240.295C182.739,241.799 170.457,239.095 166.736,224.885C187.442,236.384 196.318,202.775 186.244,201.586C174.714,200.226 175.92,207.035 174.092,211.936C173.006,214.85 172.064,217.416 170.169,217.883C166.721,218.732 163.633,215.471 163.245,207.831C162.635,195.791 171.249,177.009 180.962,173.802C209.298,164.448 220.963,187.186 222.059,190.239C223.653,194.679 226.622,206.035 221.638,205.974C219.766,205.952 217.078,203.856 216.321,202.67C214.744,200.198 205.789,190.475 203.034,198.116C198.138,211.693 219.795,221.142 224.99,211.378Z" style="fill:none;stroke:rgb(105,152,205);stroke-width:2.63px;"/>
                    </g>
                    <g transform="matrix(1.91194,0,0,1.91194,-894.906,3378.17)">
                        <path d="M224.99,211.378C224.956,218.366 224.652,229.006 214.583,234.393C210.983,236.319 201.937,239.169 193.721,240.295C182.739,241.799 170.457,239.095 166.736,224.885C187.442,236.384 196.318,202.775 186.244,201.586C174.714,200.226 175.92,207.035 174.092,211.936C173.006,214.85 172.064,217.416 170.169,217.883C166.721,218.732 163.633,215.471 163.245,207.831C162.635,195.791 171.249,177.009 180.962,173.802C209.298,164.448 220.963,187.186 222.059,190.239C223.653,194.679 226.622,206.035 221.638,205.974C219.766,205.952 217.078,203.856 216.321,202.67C214.744,200.198 205.789,190.475 203.034,198.116C198.138,211.693 219.795,221.142 224.99,211.378Z" style="fill:none;stroke:rgb(105,152,205);stroke-width:2.63px;"/>
                    </g>
                    <g transform="matrix(1.91194,0,0,1.91194,-1957.9,2231.1)">
                        <path d="M224.99,211.378C224.956,218.366 224.652,229.006 214.583,234.393C210.983,236.319 201.937,239.169 193.721,240.295C182.739,241.799 170.457,239.095 166.736,224.885C187.442,236.384 196.318,202.775 186.244,201.586C174.714,200.226 175.92,207.035 174.092,211.936C173.006,214.85 172.064,217.416 170.169,217.883C166.721,218.732 163.633,215.471 163.245,207.831C162.635,195.791 171.249,177.009 180.962,173.802C209.298,164.448 220.963,187.186 222.059,190.239C223.653,194.679 226.622,206.035 221.638,205.974C219.766,205.952 217.078,203.856 216.321,202.67C214.744,200.198 205.789,190.475 203.034,198.116C198.138,211.693 219.795,221.142 224.99,211.378Z" style="fill:none;stroke:rgb(105,152,205);stroke-width:2.63px;"/>
                    </g>
                    <g transform="matrix(1.91194,0,0,1.91194,-1957.9,2804.64)">
                        <path d="M224.99,211.378C224.956,218.366 224.652,229.006 214.583,234.393C210.983,236.319 201.937,239.169 193.721,240.295C182.739,241.799 170.457,239.095 166.736,224.885C187.442,236.384 196.318,202.775 186.244,201.586C174.714,200.226 175.92,207.035 174.092,211.936C173.006,214.85 172.064,217.416 170.169,217.883C166.721,218.732 163.633,215.471 163.245,207.831C162.635,195.791 171.249,177.009 180.962,173.802C209.298,164.448 220.963,187.186 222.059,190.239C223.653,194.679 226.622,206.035 221.638,205.974C219.766,205.952 217.078,203.856 216.321,202.67C214.744,200.198 205.789,190.475 203.034,198.116C198.138,211.693 219.795,221.142 224.99,211.378Z" style="fill:none;stroke:rgb(105,152,205);stroke-width:2.63px;"/>
                    </g>
                    <g transform="matrix(1.91194,0,0,1.91194,-1426.4,2039.92)">
                        <path d="M224.99,211.378C224.956,218.366 224.652,229.006 214.583,234.393C210.983,236.319 201.937,239.169 193.721,240.295C182.739,241.799 170.457,239.095 166.736,224.885C187.442,236.384 196.318,202.775 186.244,201.586C174.714,200.226 175.92,207.035 174.092,211.936C173.006,214.85 172.064,217.416 170.169,217.883C166.721,218.732 163.633,215.471 163.245,207.831C162.635,195.791 171.249,177.009 180.962,173.802C209.298,164.448 220.963,187.186 222.059,190.239C223.653,194.679 226.622,206.035 221.638,205.974C219.766,205.952 217.078,203.856 216.321,202.67C214.744,200.198 205.789,190.475 203.034,198.116C198.138,211.693 219.795,221.142 224.99,211.378Z" style="fill:none;stroke:rgb(105,152,205);stroke-width:2.63px;"/>
                    </g>
                    <g transform="matrix(1.91194,0,0,1.91194,-1426.4,2613.46)">
                        <path d="M224.99,211.378C224.956,218.366 224.652,229.006 214.583,234.393C210.983,236.319 201.937,239.169 193.721,240.295C182.739,241.799 170.457,239.095 166.736,224.885C187.442,236.384 196.318,202.775 186.244,201.586C174.714,200.226 175.92,207.035 174.092,211.936C173.006,214.85 172.064,217.416 170.169,217.883C166.721,218.732 163.633,215.471 163.245,207.831C162.635,195.791 171.249,177.009 180.962,173.802C209.298,164.448 220.963,187.186 222.059,190.239C223.653,194.679 226.622,206.035 221.638,205.974C219.766,205.952 217.078,203.856 216.321,202.67C214.744,200.198 205.789,190.475 203.034,198.116C198.138,211.693 219.795,221.142 224.99,211.378Z" style="fill:none;stroke:rgb(105,152,205);stroke-width:2.63px;"/>
                    </g>
                    <g transform="matrix(1.91194,0,0,1.91194,-1426.4,3186.99)">
                        <path d="M224.99,211.378C224.956,218.366 224.652,229.006 214.583,234.393C210.983,236.319 201.937,239.169 193.721,240.295C182.739,241.799 170.457,239.095 166.736,224.885C187.442,236.384 196.318,202.775 186.244,201.586C174.714,200.226 175.92,207.035 174.092,211.936C173.006,214.85 172.064,217.416 170.169,217.883C166.721,218.732 163.633,215.471 163.245,207.831C162.635,195.791 171.249,177.009 180.962,173.802C209.298,164.448 220.963,187.186 222.059,190.239C223.653,194.679 226.622,206.035 221.638,205.974C219.766,205.952 217.078,203.856 216.321,202.67C214.744,200.198 205.789,190.475 203.034,198.116C198.138,211.693 219.795,221.142 224.99,211.378Z" style="fill:none;stroke:rgb(105,152,205);stroke-width:2.63px;"/>
                    </g>
                    <g transform="matrix(1.91194,0,0,1.91194,-894.906,2039.92)">
                        <path d="M224.99,211.378C224.956,218.366 224.652,229.006 214.583,234.393C210.983,236.319 201.937,239.169 193.721,240.295C182.739,241.799 170.457,239.095 166.736,224.885C187.442,236.384 196.318,202.775 186.244,201.586C174.714,200.226 175.92,207.035 174.092,211.936C173.006,214.85 172.064,217.416 170.169,217.883C166.721,218.732 163.633,215.471 163.245,207.831C162.635,195.791 171.249,177.009 180.962,173.802C209.298,164.448 220.963,187.186 222.059,190.239C223.653,194.679 226.622,206.035 221.638,205.974C219.766,205.952 217.078,203.856 216.321,202.67C214.744,200.198 205.789,190.475 203.034,198.116C198.138,211.693 219.795,221.142 224.99,211.378Z" style="fill:none;stroke:rgb(105,152,205);stroke-width:2.63px;"/>
                    </g>
                    <g transform="matrix(1.91194,0,0,1.91194,-894.906,2613.46)">
                        <path d="M224.99,211.378C224.956,218.366 224.652,229.006 214.583,234.393C210.983,236.319 201.937,239.169 193.721,240.295C182.739,241.799 170.457,239.095 166.736,224.885C187.442,236.384 196.318,202.775 186.244,201.586C174.714,200.226 175.92,207.035 174.092,211.936C173.006,214.85 172.064,217.416 170.169,217.883C166.721,218.732 163.633,215.471 163.245,207.831C162.635,195.791 171.249,177.009 180.962,173.802C209.298,164.448 220.963,187.186 222.059,190.239C223.653,194.679 226.622,206.035 221.638,205.974C219.766,205.952 217.078,203.856 216.321,202.67C214.744,200.198 205.789,190.475 203.034,198.116C198.138,211.693 219.795,221.142 224.99,211.378Z" style="fill:none;stroke:rgb(105,152,205);stroke-width:2.63px;"/>
                    </g>
                    <g transform="matrix(1.91194,0,0,1.91194,-894.906,3186.99)">
                        <path d="M224.99,211.378C224.956,218.366 224.652,229.006 214.583,234.393C210.983,236.319 201.937,239.169 193.721,240.295C182.739,241.799 170.457,239.095 166.736,224.885C187.442,236.384 196.318,202.775 186.244,201.586C174.714,200.226 175.92,207.035 174.092,211.936C173.006,214.85 172.064,217.416 170.169,217.883C166.721,218.732 163.633,215.471 163.245,207.831C162.635,195.791 171.249,177.009 180.962,173.802C209.298,164.448 220.963,187.186 222.059,190.239C223.653,194.679 226.622,206.035 221.638,205.974C219.766,205.952 217.078,203.856 216.321,202.67C214.744,200.198 205.789,190.475 203.034,198.116C198.138,211.693 219.795,221.142 224.99,211.378Z" style="fill:none;stroke:rgb(105,152,205);stroke-width:2.63px;"/>
                    </g>
                    <g transform="matrix(1.91194,0,0,1.91194,-1957.9,2613.46)">
                        <path d="M224.99,211.378C224.956,218.366 224.652,229.006 214.583,234.393C210.983,236.319 201.937,239.169 193.721,240.295C182.739,241.799 170.457,239.095 166.736,224.885C187.442,236.384 196.318,202.775 186.244,201.586C174.714,200.226 175.92,207.035 174.092,211.936C173.006,214.85 172.064,217.416 170.169,217.883C166.721,218.732 163.633,215.471 163.245,207.831C162.635,195.791 171.249,177.009 180.962,173.802C209.298,164.448 220.963,187.186 222.059,190.239C223.653,194.679 226.622,206.035 221.638,205.974C219.766,205.952 217.078,203.856 216.321,202.67C214.744,200.198 205.789,190.475 203.034,198.116C198.138,211.693 219.795,221.142 224.99,211.378Z" style="fill:none;stroke:rgb(105,152,205);stroke-width:2.63px;"/>
                    </g>
                    <g transform="matrix(1.91194,0,0,1.91194,-1957.9,3186.99)">
                        <path d="M224.99,211.378C224.956,218.366 224.652,229.006 214.583,234.393C210.983,236.319 201.937,239.169 193.721,240.295C182.739,241.799 170.457,239.095 166.736,224.885C187.442,236.384 196.318,202.775 186.244,201.586C174.714,200.226 175.92,207.035 174.092,211.936C173.006,214.85 172.064,217.416 170.169,217.883C166.721,218.732 163.633,215.471 163.245,207.831C162.635,195.791 171.249,177.009 180.962,173.802C209.298,164.448 220.963,187.186 222.059,190.239C223.653,194.679 226.622,206.035 221.638,205.974C219.766,205.952 217.078,203.856 216.321,202.67C214.744,200.198 205.789,190.475 203.034,198.116C198.138,211.693 219.795,221.142 224.99,211.378Z" style="fill:none;stroke:rgb(105,152,205);stroke-width:2.63px;"/>
                    </g>
                    <g transform="matrix(1.91194,0,0,1.91194,-1426.4,2422.28)">
                        <path d="M224.99,211.378C224.956,218.366 224.652,229.006 214.583,234.393C210.983,236.319 201.937,239.169 193.721,240.295C182.739,241.799 170.457,239.095 166.736,224.885C187.442,236.384 196.318,202.775 186.244,201.586C174.714,200.226 175.92,207.035 174.092,211.936C173.006,214.85 172.064,217.416 170.169,217.883C166.721,218.732 163.633,215.471 163.245,207.831C162.635,195.791 171.249,177.009 180.962,173.802C209.298,164.448 220.963,187.186 222.059,190.239C223.653,194.679 226.622,206.035 221.638,205.974C219.766,205.952 217.078,203.856 216.321,202.67C214.744,200.198 205.789,190.475 203.034,198.116C198.138,211.693 219.795,221.142 224.99,211.378Z" style="fill:none;stroke:rgb(105,152,205);stroke-width:2.63px;"/>
                    </g>
                    <g transform="matrix(1.91194,0,0,1.91194,-1426.4,2995.82)">
                        <path d="M224.99,211.378C224.956,218.366 224.652,229.006 214.583,234.393C210.983,236.319 201.937,239.169 193.721,240.295C182.739,241.799 170.457,239.095 166.736,224.885C187.442,236.384 196.318,202.775 186.244,201.586C174.714,200.226 175.92,207.035 174.092,211.936C173.006,214.85 172.064,217.416 170.169,217.883C166.721,218.732 163.633,215.471 163.245,207.831C162.635,195.791 171.249,177.009 180.962,173.802C209.298,164.448 220.963,187.186 222.059,190.239C223.653,194.679 226.622,206.035 221.638,205.974C219.766,205.952 217.078,203.856 216.321,202.67C214.744,200.198 205.789,190.475 203.034,198.116C198.138,211.693 219.795,221.142 224.99,211.378Z" style="fill:none;stroke:rgb(105,152,205);stroke-width:2.63px;"/>
                    </g>
                    <g transform="matrix(1.91194,0,0,1.91194,-1426.4,3569.35)">
                        <path d="M224.99,211.378C224.956,218.366 224.652,229.006 214.583,234.393C210.983,236.319 201.937,239.169 193.721,240.295C182.739,241.799 170.457,239.095 166.736,224.885C187.442,236.384 196.318,202.775 186.244,201.586C174.714,200.226 175.92,207.035 174.092,211.936C173.006,214.85 172.064,217.416 170.169,217.883C166.721,218.732 163.633,215.471 163.245,207.831C162.635,195.791 171.249,177.009 180.962,173.802C209.298,164.448 220.963,187.186 222.059,190.239C223.653,194.679 226.622,206.035 221.638,205.974C219.766,205.952 217.078,203.856 216.321,202.67C214.744,200.198 205.789,190.475 203.034,198.116C198.138,211.693 219.795,221.142 224.99,211.378Z" style="fill:none;stroke:rgb(105,152,205);stroke-width:2.63px;"/>
                    </g>
                    <g transform="matrix(1.91194,0,0,1.91194,-894.906,2422.28)">
                        <path d="M224.99,211.378C224.956,218.366 224.652,229.006 214.583,234.393C210.983,236.319 201.937,239.169 193.721,240.295C182.739,241.799 170.457,239.095 166.736,224.885C187.442,236.384 196.318,202.775 186.244,201.586C174.714,200.226 175.92,207.035 174.092,211.936C173.006,214.85 172.064,217.416 170.169,217.883C166.721,218.732 163.633,215.471 163.245,207.831C162.635,195.791 171.249,177.009 180.962,173.802C209.298,164.448 220.963,187.186 222.059,190.239C223.653,194.679 226.622,206.035 221.638,205.974C219.766,205.952 217.078,203.856 216.321,202.67C214.744,200.198 205.789,190.475 203.034,198.116C198.138,211.693 219.795,221.142 224.99,211.378Z" style="fill:none;stroke:rgb(105,152,205);stroke-width:2.63px;"/>
                    </g>
                    <g transform="matrix(1.91194,0,0,1.91194,-894.906,2995.82)">
                        <path d="M224.99,211.378C224.956,218.366 224.652,229.006 214.583,234.393C210.983,236.319 201.937,239.169 193.721,240.295C182.739,241.799 170.457,239.095 166.736,224.885C187.442,236.384 196.318,202.775 186.244,201.586C174.714,200.226 175.92,207.035 174.092,211.936C173.006,214.85 172.064,217.416 170.169,217.883C166.721,218.732 163.633,215.471 163.245,207.831C162.635,195.791 171.249,177.009 180.962,173.802C209.298,164.448 220.963,187.186 222.059,190.239C223.653,194.679 226.622,206.035 221.638,205.974C219.766,205.952 217.078,203.856 216.321,202.67C214.744,200.198 205.789,190.475 203.034,198.116C198.138,211.693 219.795,221.142 224.99,211.378Z" style="fill:none;stroke:rgb(105,152,205);stroke-width:2.63px;"/>
                    </g>
                    <g transform="matrix(1.91194,0,0,1.91194,-1957.9,2422.28)">
                        <path d="M224.99,211.378C224.956,218.366 224.652,229.006 214.583,234.393C210.983,236.319 201.937,239.169 193.721,240.295C182.739,241.799 170.457,239.095 166.736,224.885C187.442,236.384 196.318,202.775 186.244,201.586C174.714,200.226 175.92,207.035 174.092,211.936C173.006,214.85 172.064,217.416 170.169,217.883C166.721,218.732 163.633,215.471 163.245,207.831C162.635,195.791 171.249,177.009 180.962,173.802C209.298,164.448 220.963,187.186 222.059,190.239C223.653,194.679 226.622,206.035 221.638,205.974C219.766,205.952 217.078,203.856 216.321,202.67C214.744,200.198 205.789,190.475 203.034,198.116C198.138,211.693 219.795,221.142 224.99,211.378Z" style="fill:none;stroke:rgb(105,152,205);stroke-width:2.63px;"/>
                    </g>
                    <g transform="matrix(1.91194,0,0,1.91194,-1957.9,2995.82)">
                        <path d="M224.99,211.378C224.956,218.366 224.652,229.006 214.583,234.393C210.983,236.319 201.937,239.169 193.721,240.295C182.739,241.799 170.457,239.095 166.736,224.885C187.442,236.384 196.318,202.775 186.244,201.586C174.714,200.226 175.92,207.035 174.092,211.936C173.006,214.85 172.064,217.416 170.169,217.883C166.721,218.732 163.633,215.471 163.245,207.831C162.635,195.791 171.249,177.009 180.962,173.802C209.298,164.448 220.963,187.186 222.059,190.239C223.653,194.679 226.622,206.035 221.638,205.974C219.766,205.952 217.078,203.856 216.321,202.67C214.744,200.198 205.789,190.475 203.034,198.116C198.138,211.693 219.795,221.142 224.99,211.378Z" style="fill:none;stroke:rgb(105,152,205);stroke-width:2.63px;"/>
                    </g>
                    <g transform="matrix(1.91194,0,0,1.91194,-1072.07,2231.1)">
                        <path d="M224.99,211.378C224.956,218.366 224.652,229.006 214.583,234.393C210.983,236.319 201.937,239.169 193.721,240.295C182.739,241.799 170.457,239.095 166.736,224.885C187.442,236.384 196.318,202.775 186.244,201.586C174.714,200.226 175.92,207.035 174.092,211.936C173.006,214.85 172.064,217.416 170.169,217.883C166.721,218.732 163.633,215.471 163.245,207.831C162.635,195.791 171.249,177.009 180.962,173.802C209.298,164.448 220.963,187.186 222.059,190.239C223.653,194.679 226.622,206.035 221.638,205.974C219.766,205.952 217.078,203.856 216.321,202.67C214.744,200.198 205.789,190.475 203.034,198.116C198.138,211.693 219.795,221.142 224.99,211.378Z" style="fill:none;stroke:rgb(105,152,205);stroke-width:2.63px;"/>
                    </g>
                    <g transform="matrix(1.91194,0,0,1.91194,-1072.07,2804.64)">
                        <path d="M224.99,211.378C224.956,218.366 224.652,229.006 214.583,234.393C210.983,236.319 201.937,239.169 193.721,240.295C182.739,241.799 170.457,239.095 166.736,224.885C187.442,236.384 196.318,202.775 186.244,201.586C174.714,200.226 175.92,207.035 174.092,211.936C173.006,214.85 172.064,217.416 170.169,217.883C166.721,218.732 163.633,215.471 163.245,207.831C162.635,195.791 171.249,177.009 180.962,173.802C209.298,164.448 220.963,187.186 222.059,190.239C223.653,194.679 226.622,206.035 221.638,205.974C219.766,205.952 217.078,203.856 216.321,202.67C214.744,200.198 205.789,190.475 203.034,198.116C198.138,211.693 219.795,221.142 224.99,211.378Z" style="fill:none;stroke:rgb(105,152,205);stroke-width:2.63px;"/>
                    </g>
                    <g transform="matrix(1.91194,0,0,1.91194,-1072.07,3378.17)">
                        <path d="M224.99,211.378C224.956,218.366 224.652,229.006 214.583,234.393C210.983,236.319 201.937,239.169 193.721,240.295C182.739,241.799 170.457,239.095 166.736,224.885C187.442,236.384 196.318,202.775 186.244,201.586C174.714,200.226 175.92,207.035 174.092,211.936C173.006,214.85 172.064,217.416 170.169,217.883C166.721,218.732 163.633,215.471 163.245,207.831C162.635,195.791 171.249,177.009 180.962,173.802C209.298,164.448 220.963,187.186 222.059,190.239C223.653,194.679 226.622,206.035 221.638,205.974C219.766,205.952 217.078,203.856 216.321,202.67C214.744,200.198 205.789,190.475 203.034,198.116C198.138,211.693 219.795,221.142 224.99,211.378Z" style="fill:none;stroke:rgb(105,152,205);stroke-width:2.63px;"/>
                    </g>
                    <g transform="matrix(1.91194,0,0,1.91194,-540.576,2804.64)">
                        <path d="M224.99,211.378C224.956,218.366 224.652,229.006 214.583,234.393C210.983,236.319 201.937,239.169 193.721,240.295C182.739,241.799 170.457,239.095 166.736,224.885C187.442,236.384 196.318,202.775 186.244,201.586C174.714,200.226 175.92,207.035 174.092,211.936C173.006,214.85 172.064,217.416 170.169,217.883C166.721,218.732 163.633,215.471 163.245,207.831C162.635,195.791 171.249,177.009 180.962,173.802C209.298,164.448 220.963,187.186 222.059,190.239C223.653,194.679 226.622,206.035 221.638,205.974C219.766,205.952 217.078,203.856 216.321,202.67C214.744,200.198 205.789,190.475 203.034,198.116C198.138,211.693 219.795,221.142 224.99,211.378Z" style="fill:none;stroke:rgb(105,152,205);stroke-width:2.63px;"/>
                    </g>
                    <g transform="matrix(1.91194,0,0,1.91194,-540.576,3378.17)">
                        <path d="M224.99,211.378C224.956,218.366 224.652,229.006 214.583,234.393C210.983,236.319 201.937,239.169 193.721,240.295C182.739,241.799 170.457,239.095 166.736,224.885C187.442,236.384 196.318,202.775 186.244,201.586C174.714,200.226 175.92,207.035 174.092,211.936C173.006,214.85 172.064,217.416 170.169,217.883C166.721,218.732 163.633,215.471 163.245,207.831C162.635,195.791 171.249,177.009 180.962,173.802C209.298,164.448 220.963,187.186 222.059,190.239C223.653,194.679 226.622,206.035 221.638,205.974C219.766,205.952 217.078,203.856 216.321,202.67C214.744,200.198 205.789,190.475 203.034,198.116C198.138,211.693 219.795,221.142 224.99,211.378Z" style="fill:none;stroke:rgb(105,152,205);stroke-width:2.63px;"/>
                    </g>
                    <g transform="matrix(1.91194,0,0,1.91194,-1603.57,2231.1)">
                        <path d="M224.99,211.378C224.956,218.366 224.652,229.006 214.583,234.393C210.983,236.319 201.937,239.169 193.721,240.295C182.739,241.799 170.457,239.095 166.736,224.885C187.442,236.384 196.318,202.775 186.244,201.586C174.714,200.226 175.92,207.035 174.092,211.936C173.006,214.85 172.064,217.416 170.169,217.883C166.721,218.732 163.633,215.471 163.245,207.831C162.635,195.791 171.249,177.009 180.962,173.802C209.298,164.448 220.963,187.186 222.059,190.239C223.653,194.679 226.622,206.035 221.638,205.974C219.766,205.952 217.078,203.856 216.321,202.67C214.744,200.198 205.789,190.475 203.034,198.116C198.138,211.693 219.795,221.142 224.99,211.378Z" style="fill:none;stroke:rgb(105,152,205);stroke-width:2.63px;"/>
                    </g>
                    <g transform="matrix(1.91194,0,0,1.91194,-1603.57,2804.64)">
                        <path d="M224.99,211.378C224.956,218.366 224.652,229.006 214.583,234.393C210.983,236.319 201.937,239.169 193.721,240.295C182.739,241.799 170.457,239.095 166.736,224.885C187.442,236.384 196.318,202.775 186.244,201.586C174.714,200.226 175.92,207.035 174.092,211.936C173.006,214.85 172.064,217.416 170.169,217.883C166.721,218.732 163.633,215.471 163.245,207.831C162.635,195.791 171.249,177.009 180.962,173.802C209.298,164.448 220.963,187.186 222.059,190.239C223.653,194.679 226.622,206.035 221.638,205.974C219.766,205.952 217.078,203.856 216.321,202.67C214.744,200.198 205.789,190.475 203.034,198.116C198.138,211.693 219.795,221.142 224.99,211.378Z" style="fill:none;stroke:rgb(105,152,205);stroke-width:2.63px;"/>
                    </g>
                    <g transform="matrix(1.91194,0,0,1.91194,-1603.57,3378.17)">
                        <path d="M224.99,211.378C224.956,218.366 224.652,229.006 214.583,234.393C210.983,236.319 201.937,239.169 193.721,240.295C182.739,241.799 170.457,239.095 166.736,224.885C187.442,236.384 196.318,202.775 186.244,201.586C174.714,200.226 175.92,207.035 174.092,211.936C173.006,214.85 172.064,217.416 170.169,217.883C166.721,218.732 163.633,215.471 163.245,207.831C162.635,195.791 171.249,177.009 180.962,173.802C209.298,164.448 220.963,187.186 222.059,190.239C223.653,194.679 226.622,206.035 221.638,205.974C219.766,205.952 217.078,203.856 216.321,202.67C214.744,200.198 205.789,190.475 203.034,198.116C198.138,211.693 219.795,221.142 224.99,211.378Z" style="fill:none;stroke:rgb(105,152,205);stroke-width:2.63px;"/>
                    </g>
                    <g transform="matrix(1.91194,0,0,1.91194,-1072.07,2039.92)">
                        <path d="M224.99,211.378C224.956,218.366 224.652,229.006 214.583,234.393C210.983,236.319 201.937,239.169 193.721,240.295C182.739,241.799 170.457,239.095 166.736,224.885C187.442,236.384 196.318,202.775 186.244,201.586C174.714,200.226 175.92,207.035 174.092,211.936C173.006,214.85 172.064,217.416 170.169,217.883C166.721,218.732 163.633,215.471 163.245,207.831C162.635,195.791 171.249,177.009 180.962,173.802C209.298,164.448 220.963,187.186 222.059,190.239C223.653,194.679 226.622,206.035 221.638,205.974C219.766,205.952 217.078,203.856 216.321,202.67C214.744,200.198 205.789,190.475 203.034,198.116C198.138,211.693 219.795,221.142 224.99,211.378Z" style="fill:none;stroke:rgb(105,152,205);stroke-width:2.63px;"/>
                    </g>
                    <g transform="matrix(1.91194,0,0,1.91194,-1072.07,2613.46)">
                        <path d="M224.99,211.378C224.956,218.366 224.652,229.006 214.583,234.393C210.983,236.319 201.937,239.169 193.721,240.295C182.739,241.799 170.457,239.095 166.736,224.885C187.442,236.384 196.318,202.775 186.244,201.586C174.714,200.226 175.92,207.035 174.092,211.936C173.006,214.85 172.064,217.416 170.169,217.883C166.721,218.732 163.633,215.471 163.245,207.831C162.635,195.791 171.249,177.009 180.962,173.802C209.298,164.448 220.963,187.186 222.059,190.239C223.653,194.679 226.622,206.035 221.638,205.974C219.766,205.952 217.078,203.856 216.321,202.67C214.744,200.198 205.789,190.475 203.034,198.116C198.138,211.693 219.795,221.142 224.99,211.378Z" style="fill:none;stroke:rgb(105,152,205);stroke-width:2.63px;"/>
                    </g>
                    <g transform="matrix(1.91194,0,0,1.91194,-1072.07,3186.99)">
                        <path d="M224.99,211.378C224.956,218.366 224.652,229.006 214.583,234.393C210.983,236.319 201.937,239.169 193.721,240.295C182.739,241.799 170.457,239.095 166.736,224.885C187.442,236.384 196.318,202.775 186.244,201.586C174.714,200.226 175.92,207.035 174.092,211.936C173.006,214.85 172.064,217.416 170.169,217.883C166.721,218.732 163.633,215.471 163.245,207.831C162.635,195.791 171.249,177.009 180.962,173.802C209.298,164.448 220.963,187.186 222.059,190.239C223.653,194.679 226.622,206.035 221.638,205.974C219.766,205.952 217.078,203.856 216.321,202.67C214.744,200.198 205.789,190.475 203.034,198.116C198.138,211.693 219.795,221.142 224.99,211.378Z" style="fill:none;stroke:rgb(105,152,205);stroke-width:2.63px;"/>
                    </g>
                    <g transform="matrix(1.91194,0,0,1.91194,-1072.07,2422.28)">
                        <path d="M224.99,211.378C224.956,218.366 224.652,229.006 214.583,234.393C210.983,236.319 201.937,239.169 193.721,240.295C182.739,241.799 170.457,239.095 166.736,224.885C187.442,236.384 196.318,202.775 186.244,201.586C174.714,200.226 175.92,207.035 174.092,211.936C173.006,214.85 172.064,217.416 170.169,217.883C166.721,218.732 163.633,215.471 163.245,207.831C162.635,195.791 171.249,177.009 180.962,173.802C209.298,164.448 220.963,187.186 222.059,190.239C223.653,194.679 226.622,206.035 221.638,205.974C219.766,205.952 217.078,203.856 216.321,202.67C214.744,200.198 205.789,190.475 203.034,198.116C198.138,211.693 219.795,221.142 224.99,211.378Z" style="fill:none;stroke:rgb(105,152,205);stroke-width:2.63px;"/>
                    </g>
                    <g transform="matrix(1.91194,0,0,1.91194,-1072.07,2995.82)">
                        <path d="M224.99,211.378C224.956,218.366 224.652,229.006 214.583,234.393C210.983,236.319 201.937,239.169 193.721,240.295C182.739,241.799 170.457,239.095 166.736,224.885C187.442,236.384 196.318,202.775 186.244,201.586C174.714,200.226 175.92,207.035 174.092,211.936C173.006,214.85 172.064,217.416 170.169,217.883C166.721,218.732 163.633,215.471 163.245,207.831C162.635,195.791 171.249,177.009 180.962,173.802C209.298,164.448 220.963,187.186 222.059,190.239C223.653,194.679 226.622,206.035 221.638,205.974C219.766,205.952 217.078,203.856 216.321,202.67C214.744,200.198 205.789,190.475 203.034,198.116C198.138,211.693 219.795,221.142 224.99,211.378Z" style="fill:none;stroke:rgb(105,152,205);stroke-width:2.63px;"/>
                    </g>
                    <g transform="matrix(1.91194,0,0,1.91194,-1072.07,3569.35)">
                        <path d="M224.99,211.378C224.956,218.366 224.652,229.006 214.583,234.393C210.983,236.319 201.937,239.169 193.721,240.295C182.739,241.799 170.457,239.095 166.736,224.885C187.442,236.384 196.318,202.775 186.244,201.586C174.714,200.226 175.92,207.035 174.092,211.936C173.006,214.85 172.064,217.416 170.169,217.883C166.721,218.732 163.633,215.471 163.245,207.831C162.635,195.791 171.249,177.009 180.962,173.802C209.298,164.448 220.963,187.186 222.059,190.239C223.653,194.679 226.622,206.035 221.638,205.974C219.766,205.952 217.078,203.856 216.321,202.67C214.744,200.198 205.789,190.475 203.034,198.116C198.138,211.693 219.795,221.142 224.99,211.378Z" style="fill:none;stroke:rgb(105,152,205);stroke-width:2.63px;"/>
                    </g>
                    <g transform="matrix(1.91194,0,0,1.91194,-540.576,2422.28)">
                        <path d="M224.99,211.378C224.956,218.366 224.652,229.006 214.583,234.393C210.983,236.319 201.937,239.169 193.721,240.295C182.739,241.799 170.457,239.095 166.736,224.885C187.442,236.384 196.318,202.775 186.244,201.586C174.714,200.226 175.92,207.035 174.092,211.936C173.006,214.85 172.064,217.416 170.169,217.883C166.721,218.732 163.633,215.471 163.245,207.831C162.635,195.791 171.249,177.009 180.962,173.802C209.298,164.448 220.963,187.186 222.059,190.239C223.653,194.679 226.622,206.035 221.638,205.974C219.766,205.952 217.078,203.856 216.321,202.67C214.744,200.198 205.789,190.475 203.034,198.116C198.138,211.693 219.795,221.142 224.99,211.378Z" style="fill:none;stroke:rgb(105,152,205);stroke-width:2.63px;"/>
                    </g>
                    <g transform="matrix(1.91194,0,0,1.91194,-540.576,2995.82)">
                        <path d="M224.99,211.378C224.956,218.366 224.652,229.006 214.583,234.393C210.983,236.319 201.937,239.169 193.721,240.295C182.739,241.799 170.457,239.095 166.736,224.885C187.442,236.384 196.318,202.775 186.244,201.586C174.714,200.226 175.92,207.035 174.092,211.936C173.006,214.85 172.064,217.416 170.169,217.883C166.721,218.732 163.633,215.471 163.245,207.831C162.635,195.791 171.249,177.009 180.962,173.802C209.298,164.448 220.963,187.186 222.059,190.239C223.653,194.679 226.622,206.035 221.638,205.974C219.766,205.952 217.078,203.856 216.321,202.67C214.744,200.198 205.789,190.475 203.034,198.116C198.138,211.693 219.795,221.142 224.99,211.378Z" style="fill:none;stroke:rgb(105,152,205);stroke-width:2.63px;"/>
                    </g>
                    <g transform="matrix(1.91194,0,0,1.91194,-1603.57,2422.28)">
                        <path d="M224.99,211.378C224.956,218.366 224.652,229.006 214.583,234.393C210.983,236.319 201.937,239.169 193.721,240.295C182.739,241.799 170.457,239.095 166.736,224.885C187.442,236.384 196.318,202.775 186.244,201.586C174.714,200.226 175.92,207.035 174.092,211.936C173.006,214.85 172.064,217.416 170.169,217.883C166.721,218.732 163.633,215.471 163.245,207.831C162.635,195.791 171.249,177.009 180.962,173.802C209.298,164.448 220.963,187.186 222.059,190.239C223.653,194.679 226.622,206.035 221.638,205.974C219.766,205.952 217.078,203.856 216.321,202.67C214.744,200.198 205.789,190.475 203.034,198.116C198.138,211.693 219.795,221.142 224.99,211.378Z" style="fill:none;stroke:rgb(105,152,205);stroke-width:2.63px;"/>
                    </g>
                    <g transform="matrix(1.91194,0,0,1.91194,-1603.57,2995.82)">
                        <path d="M224.99,211.378C224.956,218.366 224.652,229.006 214.583,234.393C210.983,236.319 201.937,239.169 193.721,240.295C182.739,241.799 170.457,239.095 166.736,224.885C187.442,236.384 196.318,202.775 186.244,201.586C174.714,200.226 175.92,207.035 174.092,211.936C173.006,214.85 172.064,217.416 170.169,217.883C166.721,218.732 163.633,215.471 163.245,207.831C162.635,195.791 171.249,177.009 180.962,173.802C209.298,164.448 220.963,187.186 222.059,190.239C223.653,194.679 226.622,206.035 221.638,205.974C219.766,205.952 217.078,203.856 216.321,202.67C214.744,200.198 205.789,190.475 203.034,198.116C198.138,211.693 219.795,221.142 224.99,211.378Z" style="fill:none;stroke:rgb(105,152,205);stroke-width:2.63px;"/>
                    </g>
                    <g transform="matrix(1.91194,0,0,1.91194,-1603.57,3569.35)">
                        <path d="M224.99,211.378C224.956,218.366 224.652,229.006 214.583,234.393C210.983,236.319 201.937,239.169 193.721,240.295C182.739,241.799 170.457,239.095 166.736,224.885C187.442,236.384 196.318,202.775 186.244,201.586C174.714,200.226 175.92,207.035 174.092,211.936C173.006,214.85 172.064,217.416 170.169,217.883C166.721,218.732 163.633,215.471 163.245,207.831C162.635,195.791 171.249,177.009 180.962,173.802C209.298,164.448 220.963,187.186 222.059,190.239C223.653,194.679 226.622,206.035 221.638,205.974C219.766,205.952 217.078,203.856 216.321,202.67C214.744,200.198 205.789,190.475 203.034,198.116C198.138,211.693 219.795,221.142 224.99,211.378Z" style="fill:none;stroke:rgb(105,152,205);stroke-width:2.63px;"/>
                    </g>
                </g>
            </g>
        </g>
    </g>
</svg>
