<?xml version="1.0" encoding="UTF-8" standalone="no"?>
<!DOCTYPE svg PUBLIC "-//W3C//DTD SVG 1.1//EN" "http://www.w3.org/Graphics/SVG/1.1/DTD/svg11.dtd">
<svg width="100%" height="100%" viewBox="0 0 873 619" version="1.1" xmlns="http://www.w3.org/2000/svg" xmlns:xlink="http://www.w3.org/1999/xlink" xml:space="preserve" xmlns:serif="http://www.serif.com/" style="fill-rule:evenodd;clip-rule:evenodd;stroke-linejoin:round;stroke-miterlimit:2;">
    <rect id="Prancheta1" x="0" y="0" width="873" height="618.453" style="fill:white;"/>
    <g>
        <path d="M405.405,326.501C405.405,331.108 406.247,335.316 407.93,339.125C409.613,342.935 411.828,346.257 414.574,349.092C417.321,351.926 420.598,354.141 424.408,355.736C428.217,357.33 432.248,358.128 436.5,358.128C440.752,358.128 444.783,357.33 448.592,355.736C452.402,354.141 455.679,351.926 458.426,349.092C461.172,346.257 463.387,342.935 465.07,339.125C466.753,335.316 467.595,331.197 467.595,326.767C467.595,322.515 466.753,318.484 465.07,314.675C463.387,310.866 461.172,307.544 458.426,304.709C455.679,301.874 452.402,299.659 448.592,298.065C444.783,296.47 440.752,295.673 436.5,295.673C432.248,295.673 428.217,296.47 424.408,298.065C420.598,299.659 417.321,301.874 414.574,304.709C411.828,307.544 409.613,310.821 407.93,314.542C406.247,318.263 405.405,322.249 405.405,326.501ZM354.644,325.97C354.644,315.871 356.682,306.436 360.757,297.666C364.832,288.896 370.502,281.277 377.766,274.81C385.03,268.343 393.667,263.249 403.678,259.529C413.688,255.808 424.629,253.947 436.5,253.947C448.194,253.947 459.046,255.763 469.056,259.396C479.067,263.028 487.748,268.077 495.101,274.544C502.454,281.011 508.168,288.718 512.243,297.666C516.318,306.613 518.356,316.491 518.356,327.299C518.356,338.107 516.274,347.984 512.11,356.932C507.947,365.879 502.233,373.586 494.968,380.053C487.704,386.52 478.978,391.525 468.791,395.069C458.603,398.613 447.574,400.384 435.703,400.384C424.009,400.384 413.201,398.613 403.279,395.069C393.357,391.525 384.809,386.476 377.633,379.92C370.457,373.365 364.832,365.525 360.757,356.4C356.682,347.275 354.644,337.132 354.644,325.97Z" style="fill-rule:nonzero;stroke:black;stroke-width:1px;"/>
        <rect x="387.25" y="218.069" width="98.499" height="18.762"/>
    </g>
    <g id="ILUSTRAÇÃO">
    </g>
</svg>
