<?xml version="1.0" encoding="UTF-8" standalone="no"?>
<!DOCTYPE svg PUBLIC "-//W3C//DTD SVG 1.1//EN" "http://www.w3.org/Graphics/SVG/1.1/DTD/svg11.dtd">
<svg width="100%" height="100%" viewBox="0 0 400 401" version="1.1" xmlns="http://www.w3.org/2000/svg" xmlns:xlink="http://www.w3.org/1999/xlink" xml:space="preserve" xmlns:serif="http://www.serif.com/" style="fill-rule:evenodd;clip-rule:evenodd;stroke-linejoin:round;stroke-miterlimit:2;">
    <g transform="matrix(1,0,0,1,0,-861)">
        <g id="logo" transform="matrix(0.429646,0,0,0.806452,866.595,1445.75)">
            <rect x="-2017" y="-725" width="931" height="496" style="fill:white;"/>
            <g transform="matrix(3.61951,-9.51207e-05,0.000178543,1.92833,-2198.49,-796.308)">
                <path d="M172.292,152.609L162.926,152.609L162.926,134.041L172.292,134.041L172.292,130.837L159.804,130.837L159.804,190.647L162.926,190.647L162.926,155.813L172.292,155.813L172.292,152.609ZM180.056,130.837L180.056,190.647L183.26,190.647L183.26,155.813L186.464,155.813C188.19,155.813 189.586,157.21 189.586,159.017L189.586,190.647L192.79,190.647L192.79,159.017C192.708,157.128 192.051,155.32 190.655,154.252C192.133,152.855 192.79,151.295 192.79,149.487L192.79,137.164C192.79,133.548 190.243,130.837 186.464,130.837L180.056,130.837ZM183.26,152.609L183.26,134.041L186.464,134.041C188.19,134.041 189.586,135.439 189.586,137.164L189.586,149.487C189.586,151.213 188.19,152.609 186.464,152.609L183.26,152.609ZM200.554,130.837L200.554,190.647L213.206,190.647L213.206,187.443L203.677,187.443L203.677,155.813L213.206,155.813L213.206,152.609L203.677,152.609L203.677,134.041L213.206,134.041L213.206,130.837L200.554,130.837ZM220.97,130.837L220.97,190.647L233.623,190.647L233.623,187.443L224.093,187.443L224.093,155.813L233.623,155.813L233.623,152.609L224.093,152.609L224.093,134.041L233.623,134.041L233.623,130.837L220.97,130.837ZM123.862,123.074L152.04,123.074L152.04,198.41L123.862,198.41L123.862,123.074ZM131.626,190.647L137.951,190.647C141.813,190.647 144.277,187.936 144.277,184.403L144.277,159.017C144.196,157.045 143.456,155.485 142.141,154.252C143.62,152.691 144.277,151.13 144.277,149.487L144.277,137.164C144.277,133.631 141.813,130.837 137.951,130.837L131.626,130.837L131.626,190.647ZM134.747,187.526L134.747,155.813L137.951,155.813C139.677,155.813 141.155,157.21 141.155,159.017L141.155,184.403C141.155,186.129 139.841,187.526 137.951,187.526L134.747,187.526ZM134.747,152.609L134.747,134.041L137.951,134.041C139.841,134.041 141.155,135.439 141.155,137.164L141.155,149.487C141.155,151.213 139.677,152.609 137.951,152.609L134.747,152.609Z" style="fill:rgb(108,110,112);"/>
            </g>
            <g transform="matrix(3.61951,-9.51207e-05,0.000178543,1.92833,-2198.47,-622.967)">
                <rect x="123.861" y="113.371" width="28.179" height="4.852" style="fill:rgb(255,203,3);"/>
            </g>
        </g>
    </g>
</svg>
