<?xml version="1.0" encoding="UTF-8" standalone="no"?>
<!DOCTYPE svg PUBLIC "-//W3C//DTD SVG 1.1//EN" "http://www.w3.org/Graphics/SVG/1.1/DTD/svg11.dtd">
<svg width="100%" height="100%" viewBox="0 0 873 619" version="1.1" xmlns="http://www.w3.org/2000/svg" xmlns:xlink="http://www.w3.org/1999/xlink" xml:space="preserve" xmlns:serif="http://www.serif.com/" style="fill-rule:evenodd;clip-rule:evenodd;stroke-linejoin:round;stroke-miterlimit:2;">
    <rect id="Prancheta1" x="0" y="0" width="873" height="618.453" style="fill:white;"/>
    <g>
        <path d="M317.512,313.873L317.512,354.895L297.001,354.895L297.001,313.873L290.201,313.873L290.201,296.761L297.001,296.761L297.001,279.31L317.512,279.31L317.512,296.761L329.184,296.761L329.184,313.873L317.512,313.873Z" style="fill-rule:nonzero;"/>
        <path d="M357.288,325.545C357.288,327.509 357.647,329.304 358.364,330.928C359.082,332.552 360.027,333.969 361.198,335.177C362.369,336.386 363.766,337.331 365.39,338.01C367.015,338.69 368.733,339.03 370.547,339.03C372.36,339.03 374.078,338.69 375.703,338.01C377.327,337.331 378.725,336.386 379.896,335.177C381.067,333.969 382.011,332.552 382.729,330.928C383.446,329.304 383.805,327.547 383.805,325.658C383.805,323.845 383.446,322.127 382.729,320.502C382.011,318.878 381.067,317.461 379.896,316.253C378.725,315.044 377.327,314.1 375.703,313.42C374.078,312.74 372.36,312.4 370.547,312.4C368.733,312.4 367.015,312.74 365.39,313.42C363.766,314.1 362.369,315.044 361.198,316.253C360.027,317.461 359.082,318.859 358.364,320.446C357.647,322.032 357.288,323.732 357.288,325.545ZM335.643,325.318C335.643,321.012 336.512,316.989 338.25,313.25C339.987,309.51 342.405,306.261 345.502,303.504C348.6,300.746 352.283,298.574 356.551,296.988C360.82,295.401 365.485,294.608 370.547,294.608C375.533,294.608 380.16,295.383 384.429,296.931C388.697,298.48 392.399,300.633 395.534,303.391C398.669,306.148 401.106,309.434 402.843,313.25C404.581,317.065 405.45,321.277 405.45,325.885C405.45,330.493 404.562,334.705 402.787,338.52C401.011,342.336 398.575,345.622 395.477,348.379C392.38,351.137 388.659,353.271 384.315,354.782C379.971,356.293 375.268,357.049 370.207,357.049C365.22,357.049 360.612,356.293 356.381,354.782C352.151,353.271 348.505,351.118 345.446,348.323C342.386,345.528 339.987,342.185 338.25,338.294C336.512,334.403 335.643,330.078 335.643,325.318Z" style="fill-rule:nonzero;"/>
        <path d="M440.466,313.873L440.466,354.895L419.955,354.895L419.955,313.873L413.156,313.873L413.156,296.761L419.955,296.761L419.955,279.31L440.466,279.31L440.466,296.761L452.138,296.761L452.138,313.873L440.466,313.873Z" style="fill-rule:nonzero;"/>
        <path d="M480.242,325.545C480.242,327.509 480.601,329.304 481.319,330.928C482.037,332.552 482.981,333.969 484.152,335.177C485.323,336.386 486.721,337.331 488.345,338.01C489.969,338.69 491.688,339.03 493.501,339.03C495.314,339.03 497.033,338.69 498.657,338.01C500.281,337.331 501.679,336.386 502.85,335.177C504.021,333.969 504.965,332.552 505.683,330.928C506.401,329.304 506.76,327.547 506.76,325.658C506.76,323.845 506.401,322.127 505.683,320.502C504.965,318.878 504.021,317.461 502.85,316.253C501.679,315.044 500.281,314.1 498.657,313.42C497.033,312.74 495.314,312.4 493.501,312.4C491.688,312.4 489.969,312.74 488.345,313.42C486.721,314.1 485.323,315.044 484.152,316.253C482.981,317.461 482.037,318.859 481.319,320.446C480.601,322.032 480.242,323.732 480.242,325.545ZM458.598,325.318C458.598,321.012 459.467,316.989 461.204,313.25C462.942,309.51 465.359,306.261 468.457,303.504C471.554,300.746 475.237,298.574 479.506,296.988C483.774,295.401 488.439,294.608 493.501,294.608C498.487,294.608 503.114,295.383 507.383,296.931C511.651,298.48 515.353,300.633 518.488,303.391C521.624,306.148 524.06,309.434 525.798,313.25C527.535,317.065 528.404,321.277 528.404,325.885C528.404,330.493 527.516,334.705 525.741,338.52C523.966,342.336 521.529,345.622 518.432,348.379C515.334,351.137 511.614,353.271 507.27,354.782C502.926,356.293 498.223,357.049 493.161,357.049C488.175,357.049 483.566,356.293 479.336,354.782C475.105,353.271 471.46,351.118 468.4,348.323C465.34,345.528 462.942,342.185 461.204,338.294C459.467,334.403 458.598,330.078 458.598,325.318Z" style="fill-rule:nonzero;"/>
        <path d="M540.19,296.761L560.701,296.761L560.701,306.28C562.892,302.805 565.574,300.142 568.747,298.291C571.92,296.44 575.622,295.515 579.852,295.515L581.609,295.515C582.251,295.515 582.988,295.59 583.819,295.741L583.819,315.346C581.099,313.986 578.153,313.306 574.979,313.306C570.22,313.306 566.65,314.723 564.271,317.556C561.891,320.389 560.701,324.525 560.701,329.965L560.701,354.895L540.19,354.895L540.19,296.761Z" style="fill-rule:nonzero;"/>
        <rect x="472" y="279.31" width="42" height="8"/>
    </g>
    <g id="ILUSTRAÇÃO">
    </g>
</svg>
