<?xml version="1.0" encoding="UTF-8" standalone="no"?>
<!DOCTYPE svg PUBLIC "-//W3C//DTD SVG 1.1//EN" "http://www.w3.org/Graphics/SVG/1.1/DTD/svg11.dtd">
<svg width="100%" height="100%" viewBox="0 0 592 591" version="1.1" xmlns="http://www.w3.org/2000/svg" xmlns:xlink="http://www.w3.org/1999/xlink" xml:space="preserve" xmlns:serif="http://www.serif.com/" style="fill-rule:evenodd;clip-rule:evenodd;stroke-linejoin:round;stroke-miterlimit:2;">
    <g transform="matrix(1,0,0,1,-1357,0)">
        <g id="logo_site_3" transform="matrix(0.5,0,0,0.769231,-496.724,4.54747e-13)">
            <rect x="3708.54" y="0" width="1181.1" height="767.717" style="fill:rgb(105,152,205);"/>
            <g transform="matrix(4.43701,0,0,2.88406,3555.89,-1744.28)">
                <path d="M194.153,742.442C194.124,748.472 193.861,757.652 185.173,762.301C182.067,763.963 174.262,766.422 167.172,767.393C157.697,768.691 147.099,766.358 143.888,754.097C161.755,764.018 169.414,735.019 160.72,733.993C150.772,732.819 151.812,738.695 150.235,742.924C149.298,745.438 148.485,747.652 146.85,748.055C143.875,748.787 141.21,745.974 140.876,739.381C140.35,728.993 147.782,712.786 156.163,710.02C180.613,701.948 190.678,721.567 191.624,724.202C192.999,728.033 195.561,737.832 191.261,737.779C189.646,737.76 187.326,735.951 186.673,734.928C185.313,732.795 177.585,724.405 175.208,730.999C170.983,742.714 189.671,750.867 194.153,742.442Z" style="fill:white;"/>
            </g>
        </g>
    </g>
</svg>
