<?xml version="1.0" encoding="UTF-8" standalone="no"?>
<!DOCTYPE svg PUBLIC "-//W3C//DTD SVG 1.1//EN" "http://www.w3.org/Graphics/SVG/1.1/DTD/svg11.dtd">
<svg width="100%" height="100%" viewBox="0 0 873 619" version="1.1" xmlns="http://www.w3.org/2000/svg" xmlns:xlink="http://www.w3.org/1999/xlink" xml:space="preserve" xmlns:serif="http://www.serif.com/" style="fill-rule:evenodd;clip-rule:evenodd;stroke-linejoin:round;stroke-miterlimit:2;">
    <rect id="Prancheta1" x="0" y="0" width="873" height="618.453" style="fill:white;"/>
    <g>
        <path d="M436.305,390.565C416.581,390.565 401.073,384.769 389.783,373.176C378.494,361.583 372.849,345.232 372.849,324.123C372.849,302.755 378.494,286.231 389.783,274.552C401.073,262.873 416.581,257.033 436.305,257.033C456.117,257.033 471.71,262.938 483.087,274.747C494.463,286.555 500.151,303.014 500.151,324.123C500.151,345.232 494.463,361.583 483.087,373.176C471.71,384.769 456.117,390.565 436.305,390.565ZM424.496,344.238C426.746,348.823 430.682,351.115 436.305,351.115C441.929,351.115 445.908,348.779 448.244,344.108C450.58,339.436 451.748,332.775 451.748,324.123C451.748,305.696 446.6,296.483 436.305,296.483C430.682,296.483 426.746,298.905 424.496,303.75C422.247,308.594 421.122,315.386 421.122,324.123C421.122,332.861 422.247,339.566 424.496,344.238Z" style="fill-rule:nonzero;stroke:black;stroke-width:1px;"/>
        <rect x="387.25" y="227.889" width="98.499" height="18.762"/>
    </g>
</svg>
