<?xml version="1.0" encoding="UTF-8" standalone="no"?>
<!DOCTYPE svg PUBLIC "-//W3C//DTD SVG 1.1//EN" "http://www.w3.org/Graphics/SVG/1.1/DTD/svg11.dtd">
<svg width="100%" height="100%" viewBox="0 0 591 591" version="1.1" xmlns="http://www.w3.org/2000/svg" xmlns:xlink="http://www.w3.org/1999/xlink" xml:space="preserve" xmlns:serif="http://www.serif.com/" style="fill-rule:evenodd;clip-rule:evenodd;stroke-linejoin:round;stroke-miterlimit:2;">
    <g id="logo_site_1" transform="matrix(1,0,0,1.66667,-3262.62,9.09495e-13)">
        <rect x="3262.62" y="0" width="590.551" height="354.331" style="fill:rgb(105,152,205);"/>
        <g transform="matrix(1,0,0,0.6,-4.54747e-13,25.2327)">
            <g transform="matrix(1,0,0,1,3282.01,-484.675)">
                <path d="M86.264,754.968C87.883,745.518 91.059,709.188 102.986,708.229C130.773,705.997 137.261,730.076 132.759,745.139C129.494,756.063 123.474,774.802 93.276,764.93C89.33,763.64 85.577,758.984 86.264,754.968ZM111.187,729.246C109.739,731.367 106.09,745.681 108.73,746.282C121.867,749.272 119.591,737.606 118.464,734.773C117.496,732.338 112.618,727.152 111.187,729.246ZM194.153,742.442C194.124,748.472 193.861,757.652 185.173,762.301C182.067,763.963 174.262,766.422 167.172,767.393C157.697,768.691 147.099,766.358 143.888,754.097C161.755,764.018 169.414,735.019 160.72,733.993C150.772,732.819 151.812,738.695 150.235,742.924C149.298,745.438 148.485,747.652 146.85,748.055C143.875,748.787 141.21,745.974 140.876,739.381C140.35,728.993 147.782,712.786 156.163,710.02C180.613,701.948 190.678,721.567 191.624,724.202C192.999,728.033 195.561,737.832 191.261,737.779C189.646,737.76 187.326,735.951 186.673,734.928C185.313,732.795 177.585,724.405 175.208,730.999C170.983,742.714 189.671,750.867 194.153,742.442ZM219.006,767.233C199.297,761.007 197.02,735.625 205.891,723.194C214.762,710.764 221.364,709.171 228.352,708.336C249.856,705.767 242.379,724.005 238.03,727.67C231.75,732.959 227.235,727.73 224.22,729.965C221.894,731.688 219.006,742.286 221.715,747.809C222.83,750.083 228.377,749.118 229.859,748.631C234.941,746.963 238.297,745.658 234.234,743.882C230.171,742.105 234.403,734.606 239.928,734.551C245.452,734.497 248.932,735.912 250.032,737.475C254.059,743.197 253.48,744.18 256.113,752.143C258.746,760.106 259.786,761.476 257.403,763.548C253.768,766.708 251.323,767.458 246.877,767.269C242.66,767.089 241.927,766.99 241.579,762.221C241.294,758.335 228.416,770.206 219.006,767.233Z" style="fill:white;"/>
            </g>
            <g transform="matrix(1,0,0,1,3282.01,-484.675)">
                <path d="M269.356,715.785C273.951,713.252 286.517,709.89 296.685,708.589C304.378,707.605 305.857,707.196 308.176,716.096C311.848,730.193 299.891,734.589 297.763,739.731C295.425,745.384 314.176,733.397 314.888,744.597C315.456,753.526 319.569,760.393 298.391,764.778C277.751,769.052 271.418,769.305 269.422,758.503C268.809,755.188 270.276,751.466 272.073,749.612C275.197,746.389 286.991,736.758 286.115,733.738C285.24,730.717 268.434,739.24 266.819,731.489C265.767,726.434 263.773,718.862 269.356,715.785ZM426.148,711.359C447.541,700.908 458.872,718.6 460.024,721.021C466.096,733.782 467.342,744.884 462.997,754.464C459.443,762.299 418.909,785.892 415.448,741.205C414.673,731.195 418.815,714.941 426.148,711.359ZM441.035,745.491C447.072,743.157 451.597,729.169 436.999,732.987C430.341,734.729 431.084,749.339 441.035,745.491ZM360.753,708.381C363.199,706.931 388.134,711.113 389.248,711.345C404.658,714.557 409.464,717.161 407.966,726.638C404.889,746.121 393.328,731.936 388.955,735.88C387.445,737.241 392.401,748.066 388.922,759.966C386.375,768.677 368.427,771.297 365.775,761.214C363.128,751.15 379.135,732.895 371.205,731.925C368.509,731.595 357.219,731.308 356.108,724.101C354.656,714.683 359.178,709.315 360.753,708.381ZM337.996,708.562C342.393,709.788 343.699,711.867 345.085,714.877C346.916,718.851 348.776,721.966 348.978,732.406C349.409,754.771 347.539,761.27 344.426,764.441C341.463,767.459 322.499,771.602 322.388,760.068C321.964,716.021 327.224,705.559 337.996,708.562Z"/>
            </g>
        </g>
    </g>
</svg>
