<?xml version="1.0" encoding="UTF-8" standalone="no"?>
<!DOCTYPE svg PUBLIC "-//W3C//DTD SVG 1.1//EN" "http://www.w3.org/Graphics/SVG/1.1/DTD/svg11.dtd">
<svg width="100%" height="100%" viewBox="0 0 874 619" version="1.1" xmlns="http://www.w3.org/2000/svg" xmlns:xlink="http://www.w3.org/1999/xlink" xml:space="preserve" xmlns:serif="http://www.serif.com/" style="fill-rule:evenodd;clip-rule:evenodd;stroke-linejoin:round;stroke-miterlimit:2;">
    <rect id="logo_site_2" x="0.11" y="0" width="873" height="618.453"/>
    <path d="M401.185,350.296L393.328,350.296L390.363,367.062C390.056,368.796 390.079,370.022 390.431,370.742C390.784,371.461 391.698,371.821 393.173,371.821C394.206,371.821 395.24,371.71 396.275,371.489C398.346,371.046 399.26,372.134 399.018,374.753L398.038,384.049C397.705,386.558 396.393,388.033 394.101,388.476C390.399,389.177 386.482,389.527 382.351,389.527C376.375,389.527 372.405,388.144 370.441,385.377C368.477,382.611 368.128,377.649 369.394,370.493L372.965,350.296L367.487,350.296C365.016,350.296 364.015,348.968 364.484,346.312L366.001,337.736C366.471,335.08 367.941,333.752 370.413,333.752L375.891,333.752L377.994,321.855C378.464,319.199 379.935,317.871 382.406,317.871L395.354,317.871C397.826,317.871 398.827,319.199 398.357,321.855L396.253,333.752L404.111,333.752C406.656,333.752 407.694,335.08 407.224,337.736L405.707,346.312C405.238,348.968 403.73,350.296 401.185,350.296ZM428.333,389.527C419.922,389.527 413.747,387.056 409.807,382.113C405.867,377.17 404.693,370.198 406.285,361.197C407.896,352.085 411.549,345.04 417.243,340.06C422.938,335.08 429.991,332.59 438.401,332.59C446.849,332.59 453.053,335.107 457.013,340.143C460.974,345.178 462.158,352.196 460.566,361.197C458.975,370.198 455.316,377.17 449.591,382.113C443.866,387.056 436.78,389.527 428.333,389.527ZM426.791,369.773C427.404,371.729 428.909,372.706 431.307,372.706C433.705,372.706 435.578,371.71 436.926,369.718C438.274,367.726 439.275,364.886 439.927,361.197C441.317,353.34 439.816,349.411 435.427,349.411C433.029,349.411 431.168,350.444 429.843,352.51C428.519,354.575 427.527,357.471 426.868,361.197C426.21,364.923 426.184,367.781 426.791,369.773ZM506.688,332.866C508.641,333.088 509.27,334.434 508.575,336.906L505.925,348.138C505.659,349.429 505.165,350.296 504.441,350.739C503.717,351.182 502.654,351.403 501.253,351.403L499.814,351.403C499.187,351.403 498.553,351.495 497.911,351.68C497.27,351.864 496.538,352.251 495.714,352.842C494.89,353.432 494.139,354.188 493.459,355.11C492.78,356.032 492.107,357.333 491.441,359.011C490.776,360.69 490.25,362.617 489.865,364.794L486.441,384.16C485.971,386.816 484.482,388.144 481.974,388.144L469.026,388.144C466.554,388.144 465.553,386.816 466.023,384.16L472.031,350.186C471.681,350.075 470.914,349.927 469.73,349.743C468.109,349.522 467.514,348.194 467.944,345.759L469.493,337.625C470.034,335.19 471.31,333.715 473.319,333.198C475.236,332.793 477.245,332.59 479.348,332.59C485.028,332.59 488.802,335.135 490.669,340.226C494.594,335.135 499.009,332.59 503.915,332.59C504.506,332.59 505.43,332.682 506.688,332.866ZM448.633,307.238C450.317,307.238 451.915,307.983 452.996,309.273C454.078,310.563 454.534,312.266 454.241,313.924L453.249,319.535C452.768,322.255 450.404,324.238 447.641,324.238L434.195,324.238C432.511,324.238 430.913,323.493 429.831,322.203C428.749,320.913 428.294,319.21 428.587,317.552L429.579,311.941C430.06,309.221 432.424,307.238 435.187,307.238L448.633,307.238Z" style="fill:white;"/>
    <path d="M401.185,261.351L393.328,261.351L390.363,278.117C390.056,279.851 390.079,281.077 390.431,281.797C390.784,282.516 391.698,282.876 393.173,282.876C394.206,282.876 395.24,282.765 396.275,282.544C398.346,282.101 399.26,283.189 399.018,285.808L398.038,295.104C397.705,297.613 396.393,299.088 394.101,299.531C390.399,300.232 386.482,300.582 382.351,300.582C376.375,300.582 372.405,299.199 370.441,296.432C368.477,293.666 368.128,288.704 369.394,281.548L372.965,261.351L367.487,261.351C365.016,261.351 364.015,260.023 364.484,257.367L366.001,248.791C366.471,246.135 367.941,244.807 370.413,244.807L375.891,244.807L377.994,232.91C378.464,230.254 379.935,228.926 382.406,228.926L395.354,228.926C397.826,228.926 398.827,230.254 398.357,232.91L396.253,244.807L404.111,244.807C406.656,244.807 407.694,246.135 407.224,248.791L405.707,257.367C405.238,260.023 403.73,261.351 401.185,261.351ZM428.333,300.582C419.922,300.582 413.747,298.111 409.807,293.168C405.867,288.225 404.693,281.253 406.285,272.252C407.896,263.14 411.549,256.095 417.243,251.115C422.938,246.135 429.991,243.645 438.401,243.645C446.849,243.645 453.053,246.162 457.013,251.198C460.974,256.233 462.158,263.251 460.566,272.252C458.975,281.253 455.316,288.225 449.591,293.168C443.866,298.111 436.78,300.582 428.333,300.582ZM426.791,280.828C427.404,282.783 428.909,283.761 431.307,283.761C433.705,283.761 435.578,282.765 436.926,280.773C438.274,278.781 439.275,275.941 439.927,272.252C441.317,264.394 439.816,260.466 435.427,260.466C433.029,260.466 431.168,261.499 429.843,263.564C428.519,265.63 427.527,268.526 426.868,272.252C426.21,275.978 426.184,278.836 426.791,280.828Z" style="fill:white;"/>
</svg>
