<?xml version="1.0" encoding="UTF-8" standalone="no"?>
<!DOCTYPE svg PUBLIC "-//W3C//DTD SVG 1.1//EN" "http://www.w3.org/Graphics/SVG/1.1/DTD/svg11.dtd">
<svg width="100%" height="100%" viewBox="0 0 873 619" version="1.1" xmlns="http://www.w3.org/2000/svg" xmlns:xlink="http://www.w3.org/1999/xlink" xml:space="preserve" xmlns:serif="http://www.serif.com/" style="fill-rule:evenodd;clip-rule:evenodd;stroke-linejoin:round;stroke-miterlimit:2;">
    <rect id="Prancheta1" x="0" y="0" width="873" height="618.453"/>
    <g>
        <path d="M378.479,349.663L378.479,390.685L357.968,390.685L357.968,349.663L351.169,349.663L351.169,332.551L357.968,332.551L357.968,315.099L378.479,315.099L378.479,332.551L390.151,332.551L390.151,349.663L378.479,349.663Z" style="fill:white;fill-rule:nonzero;"/>
        <path d="M418.255,361.335C418.255,363.299 418.614,365.093 419.332,366.718C420.049,368.342 420.994,369.758 422.165,370.967C423.336,372.176 424.733,373.12 426.358,373.8C427.982,374.48 429.701,374.82 431.514,374.82C433.327,374.82 435.046,374.48 436.67,373.8C438.294,373.12 439.692,372.176 440.863,370.967C442.034,369.758 442.978,368.342 443.696,366.718C444.414,365.093 444.773,363.337 444.773,361.448C444.773,359.635 444.414,357.916 443.696,356.292C442.978,354.668 442.034,353.251 440.863,352.042C439.692,350.834 438.294,349.889 436.67,349.209C435.046,348.529 433.327,348.189 431.514,348.189C429.701,348.189 427.982,348.529 426.358,349.209C424.733,349.889 423.336,350.834 422.165,352.042C420.994,353.251 420.049,354.649 419.332,356.235C418.614,357.822 418.255,359.522 418.255,361.335ZM396.611,361.108C396.611,356.802 397.479,352.779 399.217,349.039C400.955,345.3 403.372,342.051 406.47,339.294C409.567,336.536 413.25,334.364 417.519,332.778C421.787,331.191 426.452,330.398 431.514,330.398C436.5,330.398 441.127,331.172 445.396,332.721C449.664,334.27 453.366,336.423 456.501,339.18C459.637,341.938 462.073,345.224 463.811,349.039C465.548,352.855 466.417,357.066 466.417,361.675C466.417,366.283 465.529,370.495 463.754,374.31C461.979,378.125 459.542,381.412 456.445,384.169C453.347,386.927 449.626,389.061 445.282,390.572C440.938,392.083 436.236,392.838 431.174,392.838C426.188,392.838 421.579,392.083 417.349,390.572C413.118,389.061 409.473,386.908 406.413,384.113C403.353,381.317 400.955,377.974 399.217,374.084C397.479,370.193 396.611,365.868 396.611,361.108Z" style="fill:white;fill-rule:nonzero;"/>
        <path d="M478.203,332.551L498.714,332.551L498.714,342.07C500.905,338.595 503.587,335.932 506.76,334.081C509.933,332.23 513.635,331.305 517.865,331.305L519.622,331.305C520.264,331.305 521,331.38 521.831,331.531L521.831,351.136C519.112,349.776 516.165,349.096 512.992,349.096C508.233,349.096 504.663,350.513 502.283,353.346C499.904,356.179 498.714,360.315 498.714,365.754L498.714,390.685L478.203,390.685L478.203,332.551Z" style="fill:white;fill-rule:nonzero;"/>
        <path d="M378.479,260.178L378.479,301.201L357.968,301.201L357.968,260.178L351.169,260.178L351.169,243.067L357.968,243.067L357.968,225.615L378.479,225.615L378.479,243.067L390.151,243.067L390.151,260.178L378.479,260.178Z" style="fill:white;fill-rule:nonzero;"/>
        <path d="M418.255,271.85C418.255,273.815 418.614,275.609 419.332,277.233C420.049,278.857 420.994,280.274 422.165,281.483C423.336,282.692 424.733,283.636 426.358,284.316C427.982,284.996 429.701,285.336 431.514,285.336C433.327,285.336 435.046,284.996 436.67,284.316C438.294,283.636 439.692,282.692 440.863,281.483C442.034,280.274 442.978,278.857 443.696,277.233C444.414,275.609 444.773,273.852 444.773,271.964C444.773,270.151 444.414,268.432 443.696,266.808C442.978,265.183 442.034,263.767 440.863,262.558C439.692,261.349 438.294,260.405 436.67,259.725C435.046,259.045 433.327,258.705 431.514,258.705C429.701,258.705 427.982,259.045 426.358,259.725C424.733,260.405 423.336,261.349 422.165,262.558C420.994,263.767 420.049,265.164 419.332,266.751C418.614,268.337 418.255,270.037 418.255,271.85ZM396.611,271.624C396.611,267.318 397.479,263.295 399.217,259.555C400.955,255.815 403.372,252.567 406.47,249.809C409.567,247.052 413.25,244.88 417.519,243.293C421.787,241.707 426.452,240.914 431.514,240.914C436.5,240.914 441.127,241.688 445.396,243.237C449.664,244.785 453.366,246.938 456.501,249.696C459.637,252.453 462.073,255.74 463.811,259.555C465.548,263.37 466.417,267.582 466.417,272.19C466.417,276.799 465.529,281.011 463.754,284.826C461.979,288.641 459.542,291.927 456.445,294.685C453.347,297.442 449.626,299.577 445.282,301.087C440.938,302.598 436.236,303.354 431.174,303.354C426.188,303.354 421.579,302.598 417.349,301.087C413.118,299.577 409.473,297.423 406.413,294.628C403.353,291.833 400.955,288.49 399.217,284.599C397.479,280.708 396.611,276.383 396.611,271.624Z" style="fill:white;fill-rule:nonzero;"/>
        <rect x="410.013" y="315.099" width="42" height="8" style="fill:white;"/>
    </g>
    <g id="ILUSTRAÇÃO">
    </g>
</svg>
