<?xml version="1.0" encoding="UTF-8" standalone="no"?>
<!DOCTYPE svg PUBLIC "-//W3C//DTD SVG 1.1//EN" "http://www.w3.org/Graphics/SVG/1.1/DTD/svg11.dtd">
<svg width="100%" height="100%" viewBox="0 0 873 619" version="1.1" xmlns="http://www.w3.org/2000/svg" xmlns:xlink="http://www.w3.org/1999/xlink" xml:space="preserve" xmlns:serif="http://www.serif.com/" style="fill-rule:evenodd;clip-rule:evenodd;stroke-linejoin:round;stroke-miterlimit:2;">
    <rect id="Prancheta1" x="0" y="0" width="873" height="618.453" style="fill:white;"/>
    <g>
        <path d="M351.957,305.824L344.099,305.824L344.099,322.59C344.099,324.323 344.339,325.55 344.819,326.269C345.298,326.989 346.276,327.348 347.751,327.348C348.784,327.348 349.799,327.238 350.795,327.016C352.787,326.574 353.893,327.662 354.115,330.281L354.779,339.577C354.889,342.085 353.838,343.561 351.625,344.003C348.046,344.704 344.192,345.055 340.06,345.055C334.084,345.055 329.87,343.672 327.416,340.905C324.963,338.138 323.737,333.177 323.737,326.02L323.737,305.824L318.259,305.824C315.787,305.824 314.551,304.496 314.551,301.84L314.551,293.263C314.551,290.607 315.787,289.279 318.259,289.279L323.737,289.279L323.737,277.383C323.737,274.727 324.973,273.399 327.444,273.399L340.392,273.399C342.864,273.399 344.099,274.727 344.099,277.383L344.099,289.279L351.957,289.279C354.502,289.279 355.775,290.607 355.775,293.263L355.775,301.84C355.775,304.496 354.502,305.824 351.957,305.824Z" style="fill-rule:nonzero;"/>
        <path d="M386.042,345.055C377.631,345.055 371.019,342.583 366.205,337.64C361.391,332.697 358.984,325.725 358.984,316.724C358.984,307.613 361.391,300.567 366.205,295.587C371.019,290.607 377.631,288.117 386.042,288.117C394.489,288.117 401.138,290.635 405.989,295.67C410.84,300.705 413.266,307.723 413.266,316.724C413.266,325.725 410.84,332.697 405.989,337.64C401.138,342.583 394.489,345.055 386.042,345.055ZM381.006,325.301C381.966,327.256 383.644,328.234 386.042,328.234C388.439,328.234 390.136,327.238 391.132,325.246C392.128,323.254 392.626,320.413 392.626,316.724C392.626,308.867 390.431,304.938 386.042,304.938C383.644,304.938 381.966,305.971 381.006,308.037C380.047,310.103 379.568,312.999 379.568,316.724C379.568,320.45 380.047,323.309 381.006,325.301Z" style="fill-rule:nonzero;"/>
        <path d="M453.382,305.824L445.525,305.824L445.525,322.59C445.525,324.323 445.765,325.55 446.244,326.269C446.724,326.989 447.701,327.348 449.177,327.348C450.21,327.348 451.224,327.238 452.22,327.016C454.212,326.574 455.319,327.662 455.54,330.281L456.204,339.577C456.315,342.085 455.263,343.561 453.05,344.003C449.472,344.704 445.617,345.055 441.485,345.055C435.509,345.055 431.295,343.672 428.842,340.905C426.389,338.138 425.162,333.177 425.162,326.02L425.162,305.824L419.684,305.824C417.213,305.824 415.977,304.496 415.977,301.84L415.977,293.263C415.977,290.607 417.213,289.279 419.684,289.279L425.162,289.279L425.162,277.383C425.162,274.727 426.398,273.399 428.869,273.399L441.817,273.399C444.289,273.399 445.525,274.727 445.525,277.383L445.525,289.279L453.382,289.279C455.927,289.279 457.2,290.607 457.2,293.263L457.2,301.84C457.2,304.496 455.927,305.824 453.382,305.824Z" style="fill-rule:nonzero;"/>
        <path d="M487.467,345.055C479.057,345.055 472.444,342.583 467.63,337.64C462.816,332.697 460.409,325.725 460.409,316.724C460.409,307.613 462.816,300.567 467.63,295.587C472.444,290.607 479.057,288.117 487.467,288.117C495.915,288.117 502.564,290.635 507.415,295.67C512.266,300.705 514.691,307.723 514.691,316.724C514.691,325.725 512.266,332.697 507.415,337.64C502.564,342.583 495.915,345.055 487.467,345.055ZM482.432,325.301C483.391,327.256 485.069,328.234 487.467,328.234C489.865,328.234 491.562,327.238 492.558,325.246C493.554,323.254 494.052,320.413 494.052,316.724C494.052,308.867 491.857,304.938 487.467,304.938C485.069,304.938 483.391,305.971 482.432,308.037C481.473,310.103 480.993,312.999 480.993,316.724C480.993,320.45 481.473,323.309 482.432,325.301Z" style="fill-rule:nonzero;"/>
        <path d="M555.803,288.394C557.795,288.615 558.662,289.962 558.404,292.433L557.74,303.666C557.703,304.957 557.362,305.824 556.716,306.266C556.071,306.709 555.047,306.93 553.645,306.93L552.207,306.93C551.58,306.93 550.962,307.023 550.353,307.207C549.744,307.391 549.08,307.779 548.361,308.369C547.642,308.959 547.024,309.715 546.507,310.638C545.991,311.56 545.548,312.86 545.179,314.539C544.811,316.217 544.626,318.145 544.626,320.321L544.626,339.688C544.626,342.344 543.372,343.672 540.864,343.672L527.916,343.672C525.444,343.672 524.208,342.344 524.208,339.688L524.208,305.713C523.839,305.602 523.046,305.455 521.829,305.27C520.169,305.049 519.339,303.721 519.339,301.286L519.45,293.152C519.56,290.718 520.575,289.242 522.493,288.726C524.337,288.32 526.311,288.117 528.414,288.117C534.094,288.117 538.318,290.662 541.085,295.753C544.11,290.662 548.075,288.117 552.981,288.117C553.572,288.117 554.512,288.209 555.803,288.394Z" style="fill-rule:nonzero;"/>
        <rect x="467.249" y="273.399" width="42" height="8"/>
    </g>
</svg>
