<?xml version="1.0" encoding="UTF-8" standalone="no"?>
<!DOCTYPE svg PUBLIC "-//W3C//DTD SVG 1.1//EN" "http://www.w3.org/Graphics/SVG/1.1/DTD/svg11.dtd">
<svg width="100%" height="100%" viewBox="0 0 873 619" version="1.1" xmlns="http://www.w3.org/2000/svg" xmlns:xlink="http://www.w3.org/1999/xlink" xml:space="preserve" xmlns:serif="http://www.serif.com/" style="fill-rule:evenodd;clip-rule:evenodd;stroke-linejoin:round;stroke-miterlimit:2;">
    <rect id="logo_site_1" x="0" y="0" width="873" height="618.453" style="fill:white;"/>
    <path d="M350.362,311.14L342.505,311.14L339.54,327.906C339.233,329.64 339.256,330.866 339.609,331.586C339.961,332.305 340.875,332.665 342.35,332.665C343.383,332.665 344.417,332.554 345.452,332.333C347.523,331.89 348.437,332.978 348.195,335.597L347.215,344.893C346.882,347.402 345.57,348.877 343.279,349.32C339.576,350.021 335.66,350.371 331.528,350.371C325.552,350.371 321.582,348.988 319.618,346.221C317.654,343.455 317.305,338.493 318.571,331.337L322.142,311.14L316.664,311.14C314.193,311.14 313.192,309.812 313.661,307.156L315.178,298.58C315.648,295.924 317.118,294.596 319.59,294.596L325.068,294.596L327.171,282.699C327.641,280.043 329.112,278.715 331.583,278.715L344.531,278.715C347.003,278.715 348.004,280.043 347.534,282.699L345.43,294.596L353.288,294.596C355.833,294.596 356.871,295.924 356.401,298.58L354.884,307.156C354.415,309.812 352.907,311.14 350.362,311.14ZM377.51,350.371C369.099,350.371 362.924,347.9 358.984,342.957C355.044,338.014 353.87,331.042 355.462,322.041C357.073,312.929 360.726,305.884 366.42,300.904C372.115,295.924 379.168,293.434 387.578,293.434C396.026,293.434 402.23,295.951 406.19,300.987C410.151,306.022 411.335,313.04 409.743,322.041C408.152,331.042 404.493,338.014 398.768,342.957C393.043,347.9 385.957,350.371 377.51,350.371ZM375.968,330.617C376.581,332.573 378.087,333.55 380.484,333.55C382.882,333.55 384.755,332.554 386.103,330.562C387.452,328.57 388.452,325.73 389.104,322.041C390.494,314.184 388.993,310.255 384.604,310.255C382.206,310.255 380.345,311.288 379.02,313.354C377.696,315.419 376.704,318.315 376.046,322.041C375.387,325.767 375.361,328.625 375.968,330.617ZM451.787,311.14L443.93,311.14L440.965,327.906C440.659,329.64 440.682,330.866 441.034,331.586C441.386,332.305 442.3,332.665 443.776,332.665C444.809,332.665 445.843,332.554 446.878,332.333C448.948,331.89 449.862,332.978 449.621,335.597L448.641,344.893C448.308,347.402 446.996,348.877 444.704,349.32C441.002,350.021 437.085,350.371 432.953,350.371C426.977,350.371 423.008,348.988 421.044,346.221C419.08,343.455 418.731,338.493 419.996,331.337L423.568,311.14L418.09,311.14C415.618,311.14 414.617,309.812 415.087,307.156L416.603,298.58C417.073,295.924 418.544,294.596 421.015,294.596L426.493,294.596L428.597,282.699C429.067,280.043 430.537,278.715 433.009,278.715L445.957,278.715C448.428,278.715 449.429,280.043 448.959,282.699L446.856,294.596L454.713,294.596C457.258,294.596 458.296,295.924 457.826,298.58L456.31,307.156C455.84,309.812 454.333,311.14 451.787,311.14ZM478.935,350.371C470.525,350.371 464.349,347.9 460.409,342.957C456.47,338.014 455.295,331.042 456.887,322.041C458.498,312.929 462.151,305.884 467.846,300.904C473.54,295.924 480.593,293.434 489.004,293.434C497.451,293.434 503.655,295.951 507.616,300.987C511.576,306.022 512.76,313.04 511.169,322.041C509.577,331.042 505.919,338.014 500.194,342.957C494.469,347.9 487.383,350.371 478.935,350.371ZM477.393,330.617C478.006,332.573 479.512,333.55 481.91,333.55C484.307,333.55 486.18,332.554 487.529,330.562C488.877,328.57 489.877,325.73 490.53,322.041C491.919,314.184 490.419,310.255 486.029,310.255C483.631,310.255 481.77,311.288 480.446,313.354C479.121,315.419 478.13,318.315 477.471,322.041C476.812,325.767 476.786,328.625 477.393,330.617ZM557.291,293.71C559.244,293.932 559.873,295.278 559.177,297.75L556.527,308.982C556.262,310.273 555.767,311.14 555.043,311.583C554.32,312.026 553.257,312.247 551.855,312.247L550.416,312.247C549.789,312.247 549.155,312.339 548.514,312.524C547.873,312.708 547.14,313.095 546.316,313.686C545.493,314.276 544.741,315.032 544.062,315.954C543.382,316.876 542.709,318.177 542.044,319.855C541.378,321.534 540.853,323.461 540.468,325.637L537.043,345.004C536.574,347.66 535.085,348.988 532.576,348.988L519.628,348.988C517.157,348.988 516.156,347.66 516.625,345.004L522.633,311.03C522.284,310.919 521.517,310.771 520.332,310.587C518.711,310.366 518.116,309.038 518.547,306.603L520.096,298.469C520.637,296.034 521.912,294.559 523.922,294.042C525.838,293.637 527.847,293.434 529.95,293.434C535.631,293.434 539.405,295.979 541.271,301.07C545.196,295.979 549.612,293.434 554.518,293.434C555.108,293.434 556.032,293.526 557.291,293.71ZM499.236,268.082C500.92,268.082 502.517,268.827 503.599,270.117C504.681,271.407 505.137,273.11 504.843,274.768L503.851,280.379C503.37,283.099 501.006,285.082 498.244,285.082L484.797,285.082C483.113,285.082 481.516,284.337 480.434,283.047C479.352,281.757 478.896,280.054 479.189,278.396L480.182,272.785C480.663,270.065 483.027,268.082 485.789,268.082L499.236,268.082Z"/>
</svg>
