<svg id="Camada_1" data-name="Camada 1" xmlns="http://www.w3.org/2000/svg" viewBox="0 0 14.173 14.173">
  <defs>
    <style>
      .cls-1 {
        fill-rule: evenodd;
      }
    </style>
  </defs>
  <title>marca</title>
  <path class="cls-1" d="M28.347,16.035h2.173l-2.042,6.1-.131.392v1.564l7.087-10.411-1.772-2.577L31.617,9.921H28.347v6.114Zm0-5.122h3l.52.3-1.2.426H28.347v-.728Zm0,1.72H30.32l.322,2.409H28.347V12.633Zm3.266,2.186L31.3,12.471l1.685-.6,1.238,1.8L31.613,14.82Zm1.582.389-2.661,3.909.191-.57.884-2.643,1.543-.677.042-.019Zm-4.849.827H26.174l2.042,6.1.131.392v1.564L21.26,13.684l1.772-2.577,2.044-1.185h3.271v6.114Zm0-5.122v.728H26.024l-1.2-.426.521-.3Zm0,1.72v2.409H26.052l.322-2.409ZM25.08,14.82l.314-2.349-1.685-.6-1.238,1.8L25.08,14.82Zm-1.582.389,2.661,3.909-.191-.57L25.084,15.9l-1.544-.677Z" transform="translate(-21.26 -9.921)"/>
</svg>
