<?xml version="1.0" encoding="UTF-8" standalone="no"?>
<!DOCTYPE svg PUBLIC "-//W3C//DTD SVG 1.1//EN" "http://www.w3.org/Graphics/SVG/1.1/DTD/svg11.dtd">
<svg width="100%" height="100%" viewBox="0 0 61 60" version="1.1" xmlns="http://www.w3.org/2000/svg" xmlns:xlink="http://www.w3.org/1999/xlink" xml:space="preserve" xmlns:serif="http://www.serif.com/" style="fill-rule:evenodd;clip-rule:evenodd;stroke-linejoin:round;stroke-miterlimit:2;">
    <g transform="matrix(1,0,0,1,-70,0)">
        <g id="marca" transform="matrix(0.250472,0,0,0.417454,-40.4021,0)">
            <rect x="444.554" y="0" width="236.22" height="141.732" style="fill:none;"/>
            <g transform="matrix(3.99246,0,0,2.39547,-603.669,-28.2925)">
                <path d="M292.19,70.866L262.662,27.488L270.044,16.75L278.562,11.811L305.817,11.811L314.335,16.75L321.717,27.488L292.19,70.866ZM304.706,15.945L279.674,15.945L277.505,17.203L282.514,18.978L301.865,18.978L306.874,17.203L304.706,15.945ZM300.412,23.111L283.968,23.111L282.627,33.151L301.752,33.151L300.412,23.111ZM301.243,37.285L283.137,37.285L291.644,62.717L292.19,64.35L292.735,62.717L301.243,37.285ZM271.987,33.84L283.073,50.127L282.278,47.75L278.595,36.74L272.164,33.918L271.987,33.84ZM278.58,32.22L279.887,22.433L272.866,19.944L267.708,27.446L278.58,32.22ZM312.392,33.84L312.215,33.918L305.784,36.74L302.102,47.75L301.307,50.127L312.392,33.84ZM305.799,32.22L316.672,27.446L311.514,19.944L304.492,22.433L305.799,32.22Z"/>
            </g>
        </g>
    </g>
</svg>
