<?xml version="1.0" encoding="UTF-8" standalone="no"?>
<!DOCTYPE svg PUBLIC "-//W3C//DTD SVG 1.1//EN" "http://www.w3.org/Graphics/SVG/1.1/DTD/svg11.dtd">
<svg width="100%" height="100%" viewBox="0 0 61 60" version="1.1" xmlns="http://www.w3.org/2000/svg" xmlns:xlink="http://www.w3.org/1999/xlink" xml:space="preserve" xmlns:serif="http://www.serif.com/" style="fill-rule:evenodd;clip-rule:evenodd;stroke-linejoin:round;stroke-miterlimit:2;">
    <g transform="matrix(1,0,0,1,-70,-82)">
        <g id="marketing" transform="matrix(1,0,0,1,-978.554,82.5654)">
            <rect x="1049.5" y="0" width="59.167" height="59.167" style="fill:none;"/>
            <clipPath id="_clip1">
                <rect x="1049.5" y="0" width="59.167" height="59.167"/>
            </clipPath>
            <g clip-path="url(#_clip1)">
                <g transform="matrix(4.16667,0,0,4.16667,870.554,-1.85375)">
                    <path d="M49.519,12.277L48.787,12.078C48.425,11.979 48.075,11.837 47.747,11.655L47.093,11.294L46.136,12.251L45.369,11.483L46.317,10.534L45.939,9.876C45.749,9.545 45.599,9.191 45.495,8.823L45.291,8.101L43.967,8.101L43.967,7.015L45.291,7.015L45.495,6.293C45.599,5.926 45.749,5.572 45.939,5.241L46.317,4.582L45.368,3.633L46.136,2.865L47.093,3.822L47.747,3.461C48.075,3.279 48.425,3.137 48.787,3.039L49.519,2.84L49.519,1.464L50.605,1.464L50.605,2.84L51.336,3.039C51.699,3.137 52.048,3.279 52.377,3.461L53.03,3.822L53.987,2.865L54.755,3.633L53.806,4.582L54.185,5.241C54.375,5.572 54.525,5.926 54.629,6.294L54.833,7.015L56.156,7.015L56.156,8.101L54.833,8.101L54.629,8.823C54.525,9.19 54.375,9.544 54.185,9.875L53.806,10.534L54.755,11.483L53.987,12.251L53.03,11.294L52.377,11.655C52.048,11.837 51.699,11.979 51.336,12.078L50.605,12.277L50.605,13.653L49.519,13.653L49.519,12.277ZM48.527,13.035L48.527,14.645L51.597,14.645L51.597,13.035C52.036,12.916 52.459,12.744 52.857,12.524L53.987,13.654L56.159,11.483L55.045,10.37C55.276,9.968 55.457,9.539 55.583,9.093L57.148,9.093L57.148,6.023L55.583,6.023C55.457,5.577 55.276,5.149 55.045,4.747L56.159,3.633L53.987,1.462L52.857,2.593C52.459,2.373 52.036,2.201 51.597,2.081L51.597,0.472L48.527,0.472L48.527,2.081C48.088,2.201 47.665,2.373 47.267,2.593L46.136,1.462L43.965,3.633L45.079,4.747C44.848,5.149 44.667,5.577 44.541,6.023L42.975,6.023L42.975,9.093L44.541,9.093C44.667,9.539 44.848,9.968 45.079,10.37L43.965,11.483L46.136,13.654L47.267,12.524C47.665,12.744 48.088,12.916 48.527,13.035ZM47.208,7.558C47.208,9.117 48.459,10.412 50.028,10.412L50.096,10.412C51.664,10.412 52.916,9.117 52.916,7.558C52.916,6 51.664,4.705 50.096,4.705L50.028,4.705C48.459,4.704 47.208,6 47.208,7.558ZM50.028,9.42C49.007,9.42 48.2,8.569 48.2,7.558C48.2,6.547 49.007,5.697 50.028,5.697C50.07,5.697 50.083,5.697 50.096,5.697C51.117,5.697 51.923,6.547 51.923,7.558C51.923,8.569 51.117,9.42 50.096,9.42C50.053,9.42 50.04,9.42 50.028,9.42"/>
                </g>
            </g>
        </g>
    </g>
</svg>
