<svg id="Camada_1" data-name="Camada 1" xmlns="http://www.w3.org/2000/svg" viewBox="0 0 14.173 14.173">
  <defs>
    <style>
      .cls-1 {
        fill-rule: evenodd;
      }
    </style>
  </defs>
  <title>marketing</title>
  <path class="cls-1" d="M34.89,17l-.732-.2a4.7,4.7,0,0,1-1.04-.422l-.654-.361-.957.957-.768-.768.949-.949L31.31,14.6a4.659,4.659,0,0,1-.444-1.053l-.2-.722H29.339V11.741h1.323l.2-.722a4.661,4.661,0,0,1,.444-1.052l.379-.659-.949-.949.768-.768.957.957.654-.361a4.7,4.7,0,0,1,1.04-.422l.732-.2V6.19h1.086V7.566l.732.2a4.7,4.7,0,0,1,1.04.422l.654.361.957-.957.768.768-.949.949.379.659A4.691,4.691,0,0,1,40,11.02l.2.721h1.323v1.086H40.2l-.2.721a4.669,4.669,0,0,1-.444,1.053l-.379.659.95.949-.768.768L38.4,16.02l-.654.361a4.7,4.7,0,0,1-1.04.422l-.732.2v1.376H34.89V17Zm-.992.758v1.61h3.07v-1.61a5.692,5.692,0,0,0,1.26-.511l1.13,1.13,2.171-2.171L40.416,15.1a5.653,5.653,0,0,0,.539-1.276H42.52v-3.07H40.955a5.664,5.664,0,0,0-.539-1.277L41.53,8.359,39.359,6.188l-1.13,1.131a5.687,5.687,0,0,0-1.26-.511V5.2H33.9v1.61a5.687,5.687,0,0,0-1.26.511l-1.13-1.131L29.336,8.359,30.45,9.473a5.654,5.654,0,0,0-.538,1.277H28.347v3.07h1.565A5.651,5.651,0,0,0,30.45,15.1l-1.114,1.113,2.171,2.171,1.13-1.13a5.692,5.692,0,0,0,1.26.511Zm-1.319-5.477A2.841,2.841,0,0,0,35.4,15.138h.068a2.854,2.854,0,0,0,0-5.707H35.4a2.841,2.841,0,0,0-2.82,2.854ZM35.4,14.146h.069a1.862,1.862,0,0,0,0-3.723H35.4a1.862,1.862,0,0,0,0,3.723Z" transform="translate(-28.346 -5.198)"/>
</svg>
