<svg id="Camada_1" data-name="Camada 1" xmlns="http://www.w3.org/2000/svg" viewBox="0 0 14.173 14.173">
  <defs>
    <style>
      .cls-1 {
        fill-rule: evenodd;
      }
    </style>
  </defs>
  <title>marketing</title>
  <path class="cls-1" d="M198.79,433.233l-.822-.327.078-.5q.133-.85.263-1.7.153-.984.306-1.969l.023-.153,5.188-3.377,6.892,2.046,1.423,4.1-1.272,1.3-.01,1.938-4.533,4.789L199,435.969l-.206-2.737Zm.993.395.129,1.709,5.856,2.727V435.7l-.052.289-5.932-2.358Zm5.18,1.052.562-3.131-6.041-1.942-.426,2.747,5.905,2.326Zm1.229-3.926q1.037-.893,2.074-1.786l1.24-1.071-5.147-1.527v3.8c.611.2,1.222.39,1.832.588Zm.536,6.809,3.173-3.352,0-.557-1.731,1.768-.226.231-.4.406-.179-.538-.643-1.928v3.97Zm.283-6.193.972,2.9,3.044-3.117-.867-2.5-3.149,2.718Zm-3.612-1.512v-3.231l-3.351,2.155,2.432.781Z" transform="translate(-197.968 -425.21)"/>
</svg>
