<?xml version="1.0" encoding="UTF-8" standalone="no"?>
<!DOCTYPE svg PUBLIC "-//W3C//DTD SVG 1.1//EN" "http://www.w3.org/Graphics/SVG/1.1/DTD/svg11.dtd">
<svg width="100%" height="100%" viewBox="0 0 60 60" version="1.1" xmlns="http://www.w3.org/2000/svg" xmlns:xlink="http://www.w3.org/1999/xlink" xml:space="preserve" xmlns:serif="http://www.serif.com/" style="fill-rule:evenodd;clip-rule:evenodd;stroke-linejoin:round;stroke-miterlimit:2;">
    <g transform="matrix(1,0,0,1,-769.167,-157.805)">
        <g transform="matrix(1,0,0,1,170.382,157.805)">
            <g transform="matrix(1,0,0,1,131.615,-2.84494e-14)">
                <path d="M513.837,0C517.152,-0 520.332,1.317 522.676,3.661C525.02,6.005 526.337,9.185 526.337,12.5L526.337,46.667C526.337,49.982 525.02,53.161 522.676,55.506C520.332,57.85 517.152,59.167 513.837,59.167L479.67,59.167C476.355,59.167 473.176,57.85 470.831,55.506C468.487,53.161 467.17,49.982 467.17,46.667L467.17,12.5C467.17,9.185 468.487,6.005 470.831,3.661C473.176,1.317 476.355,-0 479.67,0L513.837,0Z" style="fill:white;"/>
            </g>
        </g>
        <g transform="matrix(1,0,0,1,170.382,157.805)">
            <g transform="matrix(1.36695,0,0,1,-622.708,-162.753)">
                <path d="M923.46,186.151L923.46,188.625L907,188.625L907,186.151L923.46,186.151ZM923.46,191.099L923.46,193.573L907,193.573L907,191.099L923.46,191.099ZM923.46,196.047L923.46,198.521L907,198.521L907,196.047L923.46,196.047Z"/>
            </g>
        </g>
    </g>
</svg>
