<?xml version="1.0" encoding="UTF-8" standalone="no"?>
<!DOCTYPE svg PUBLIC "-//W3C//DTD SVG 1.1//EN" "http://www.w3.org/Graphics/SVG/1.1/DTD/svg11.dtd">
<svg width="100%" height="100%" viewBox="0 0 61 60" version="1.1" xmlns="http://www.w3.org/2000/svg" xmlns:xlink="http://www.w3.org/1999/xlink" xml:space="preserve" xmlns:serif="http://www.serif.com/" style="fill-rule:evenodd;clip-rule:evenodd;stroke-linejoin:round;stroke-miterlimit:2;">
    <g transform="matrix(1,0,0,1,-141,-82)">
        <g id="mockup" transform="matrix(1,0,0,1,-640.608,82.5654)">
            <rect x="782.5" y="0" width="59.167" height="59.167" style="fill:none;"/>
            <clipPath id="_clip1">
                <rect x="782.5" y="0" width="59.167" height="59.167"/>
            </clipPath>
            <g clip-path="url(#_clip1)">
                <g transform="matrix(4.16667,0,0,4.16667,663.429,-1.85375)">
                    <path d="M29.426,8.494L28.604,8.167L28.682,7.669C28.77,7.103 28.857,6.537 28.945,5.97C29.047,5.314 29.15,4.658 29.25,4.002L29.274,3.849L34.461,0.472L41.354,2.517L42.777,6.619L41.505,7.917L41.495,9.856L36.963,14.645L29.632,11.231L29.426,8.494ZM30.419,8.889L30.548,10.598L36.404,13.326L36.403,10.958L36.351,11.247L30.419,8.889ZM35.599,9.941L36.161,6.809L30.12,4.868L29.694,7.615L35.599,9.941ZM36.828,6.015C37.52,5.42 38.212,4.825 38.902,4.23C39.316,3.873 39.729,3.516 40.143,3.159L34.996,1.631L34.996,5.427C35.607,5.623 36.218,5.817 36.828,6.015ZM37.364,12.824L40.537,9.472L40.54,8.915C39.963,9.505 39.385,10.094 38.809,10.683C38.733,10.76 38.658,10.837 38.582,10.914L38.186,11.32L38.006,10.782C37.792,10.139 37.578,9.497 37.364,8.854L37.364,12.824ZM37.648,6.631L38.619,9.527L41.663,6.41L40.796,3.913L37.648,6.631ZM34.036,5.119L34.036,1.887L30.685,4.042C31.495,4.302 32.306,4.563 33.116,4.823C33.423,4.922 33.729,5.02 34.036,5.119"/>
                </g>
            </g>
        </g>
    </g>
</svg>
