<?xml version="1.0" encoding="UTF-8" standalone="no"?>
<!DOCTYPE svg PUBLIC "-//W3C//DTD SVG 1.1//EN" "http://www.w3.org/Graphics/SVG/1.1/DTD/svg11.dtd">
<svg width="100%" height="100%" viewBox="0 0 63 12" version="1.1" xmlns="http://www.w3.org/2000/svg" xmlns:xlink="http://www.w3.org/1999/xlink" xml:space="preserve" xmlns:serif="http://www.serif.com/" style="fill-rule:evenodd;clip-rule:evenodd;stroke-linejoin:round;stroke-miterlimit:2;">
    <rect id="projetos3" x="-0" y="-5.966" width="62.5" height="20.833" style="fill:none;"/>
    <clipPath id="_clip1">
        <rect x="-0" y="-5.966" width="62.5" height="20.833"/>
    </clipPath>
    <g clip-path="url(#_clip1)">
        <path d="M3.942,4.262L4.553,4.262C5.125,4.262 5.552,4.149 5.836,3.923C6.12,3.698 6.262,3.369 6.262,2.937C6.262,2.502 6.143,2.18 5.905,1.972C5.667,1.764 5.294,1.661 4.787,1.661L3.942,1.661L3.942,4.262ZM8.138,2.871C8.138,3.815 7.843,4.536 7.254,5.035C6.664,5.535 5.826,5.785 4.739,5.785L3.942,5.785L3.942,8.902L2.083,8.902L2.083,0.138L4.883,0.138C5.946,0.138 6.754,0.367 7.308,0.824C7.861,1.282 8.138,1.964 8.138,2.871Z" style="fill-rule:nonzero;"/>
        <path d="M11.651,4.028L12.25,4.028C12.838,4.028 13.271,3.93 13.551,3.735C13.831,3.539 13.971,3.231 13.971,2.811C13.971,2.396 13.828,2.1 13.542,1.924C13.256,1.748 12.814,1.661 12.214,1.661L11.651,1.661L11.651,4.028ZM11.651,5.539L11.651,8.902L9.792,8.902L9.792,0.138L12.346,0.138C13.537,0.138 14.418,0.355 14.99,0.788C15.561,1.222 15.847,1.88 15.847,2.764C15.847,3.279 15.705,3.738 15.421,4.139C15.138,4.541 14.736,4.856 14.216,5.083C15.535,7.054 16.394,8.326 16.794,8.902L14.732,8.902L12.64,5.539L11.651,5.539Z" style="fill-rule:nonzero;"/>
        <path d="M25.852,4.508C25.852,5.959 25.492,7.074 24.773,7.853C24.053,8.632 23.022,9.022 21.68,9.022C20.337,9.022 19.306,8.632 18.586,7.853C17.867,7.074 17.507,5.955 17.507,4.496C17.507,3.037 17.868,1.923 18.589,1.154C19.311,0.385 20.345,-0 21.692,-0C23.038,-0 24.068,0.388 24.782,1.163C25.495,1.938 25.852,3.053 25.852,4.508ZM19.456,4.508C19.456,5.487 19.641,6.224 20.013,6.72C20.385,7.215 20.94,7.463 21.68,7.463C23.162,7.463 23.904,6.478 23.904,4.508C23.904,2.534 23.166,1.547 21.692,1.547C20.952,1.547 20.395,1.795 20.019,2.293C19.643,2.79 19.456,3.529 19.456,4.508Z" style="fill-rule:nonzero;"/>
        <path d="M26.751,11.48C26.331,11.48 25.966,11.436 25.654,11.348L25.654,9.801C25.974,9.881 26.266,9.921 26.529,9.921C26.937,9.921 27.229,9.794 27.404,9.54C27.58,9.287 27.668,8.89 27.668,8.35L27.668,0.138L29.527,0.138L29.527,8.338C29.527,9.362 29.293,10.141 28.825,10.676C28.358,11.212 27.666,11.48 26.751,11.48Z" style="fill-rule:nonzero;"/>
        <path d="M36.78,8.902L31.733,8.902L31.733,0.138L36.78,0.138L36.78,1.661L33.591,1.661L33.591,3.585L36.558,3.585L36.558,5.107L33.591,5.107L33.591,7.367L36.78,7.367L36.78,8.902Z" style="fill-rule:nonzero;"/>
        <path d="M41.989,8.902L40.131,8.902L40.131,1.684L37.751,1.684L37.751,0.138L44.369,0.138L44.369,1.684L41.989,1.684L41.989,8.902Z" style="fill-rule:nonzero;"/>
        <path d="M53.427,4.508C53.427,5.959 53.067,7.074 52.348,7.853C51.629,8.632 50.598,9.022 49.255,9.022C47.912,9.022 46.881,8.632 46.162,7.853C45.442,7.074 45.083,5.955 45.083,4.496C45.083,3.037 45.443,1.923 46.165,1.154C46.886,0.385 47.92,-0 49.267,-0C50.614,-0 51.644,0.388 52.357,1.163C53.07,1.938 53.427,3.053 53.427,4.508ZM47.031,4.508C47.031,5.487 47.217,6.224 47.588,6.72C47.96,7.215 48.515,7.463 49.255,7.463C50.737,7.463 51.479,6.478 51.479,4.508C51.479,2.534 50.741,1.547 49.267,1.547C48.527,1.547 47.97,1.795 47.594,2.293C47.219,2.79 47.031,3.529 47.031,4.508Z" style="fill-rule:nonzero;"/>
        <path d="M60.417,6.468C60.417,7.259 60.132,7.883 59.562,8.338C58.993,8.794 58.201,9.022 57.186,9.022C56.25,9.022 55.423,8.846 54.704,8.494L54.704,6.768C55.295,7.032 55.796,7.217 56.205,7.325C56.615,7.433 56.99,7.487 57.329,7.487C57.737,7.487 58.05,7.409 58.268,7.253C58.485,7.098 58.594,6.866 58.594,6.558C58.594,6.386 58.546,6.233 58.45,6.099C58.355,5.966 58.214,5.837 58.028,5.713C57.842,5.589 57.463,5.391 56.892,5.119C56.356,4.868 55.955,4.626 55.687,4.394C55.419,4.162 55.205,3.892 55.046,3.585C54.886,3.277 54.806,2.917 54.806,2.506C54.806,1.73 55.068,1.121 55.594,0.677C56.12,0.234 56.846,0.012 57.773,0.012C58.229,0.012 58.663,0.066 59.077,0.174C59.491,0.282 59.923,0.434 60.375,0.629L59.775,2.074C59.308,1.882 58.921,1.748 58.615,1.672C58.31,1.597 58.009,1.559 57.713,1.559C57.361,1.559 57.092,1.641 56.904,1.804C56.716,1.968 56.622,2.182 56.622,2.446C56.622,2.61 56.66,2.753 56.736,2.874C56.812,2.996 56.933,3.114 57.099,3.228C57.265,3.342 57.657,3.547 58.277,3.843C59.096,4.234 59.657,4.627 59.961,5.02C60.265,5.414 60.417,5.897 60.417,6.468Z" style="fill-rule:nonzero;"/>
        <rect x="0" y="3.561" width="62.5" height="1.779"/>
    </g>
</svg>
