<?xml version="1.0" encoding="UTF-8" standalone="no"?>
<!DOCTYPE svg PUBLIC "-//W3C//DTD SVG 1.1//EN" "http://www.w3.org/Graphics/SVG/1.1/DTD/svg11.dtd">
<svg width="100%" height="100%" viewBox="0 0 60 13" version="1.1" xmlns="http://www.w3.org/2000/svg" xmlns:xlink="http://www.w3.org/1999/xlink" xml:space="preserve" xmlns:serif="http://www.serif.com/" style="fill-rule:evenodd;clip-rule:evenodd;stroke-linejoin:round;stroke-miterlimit:2;">
    <rect id="projetos1" x="0" y="-4.267" width="62.5" height="20.833" style="fill:none;"/>
    <clipPath id="_clip1">
        <rect x="0" y="-4.267" width="62.5" height="20.833"/>
    </clipPath>
    <g clip-path="url(#_clip1)">
        <path d="M3.012,4.567L3.372,4.567C3.98,4.567 4.458,4.419 4.807,4.123C5.156,3.828 5.331,3.432 5.331,2.935C5.331,2.164 4.913,1.779 4.078,1.779L3.603,1.779L3.012,4.567ZM7.303,2.884C7.303,3.916 6.94,4.726 6.214,5.315C5.488,5.904 4.487,6.198 3.211,6.198L2.659,6.198L1.959,9.538L-0,9.538L1.985,0.148L4.156,0.148C5.192,0.148 5.975,0.376 6.506,0.832C7.037,1.288 7.303,1.972 7.303,2.884Z" style="fill-rule:nonzero;"/>
        <path d="M10.694,4.316L11.195,4.316C11.756,4.316 12.193,4.194 12.505,3.95C12.818,3.706 12.974,3.333 12.974,2.832C12.974,2.481 12.872,2.218 12.669,2.042C12.466,1.867 12.145,1.779 11.709,1.779L11.233,1.779L10.694,4.316ZM10.354,5.935L9.589,9.538L7.63,9.538L9.615,0.148L11.921,0.148C12.935,0.148 13.698,0.366 14.207,0.803C14.717,1.24 14.971,1.88 14.971,2.723C14.971,3.4 14.794,3.981 14.438,4.467C14.083,4.953 13.571,5.314 12.903,5.549L14.58,9.538L12.447,9.538L11.118,5.935L10.354,5.935Z" style="fill-rule:nonzero;"/>
        <path d="M24.496,3.513C24.496,4.725 24.285,5.809 23.861,6.766C23.437,7.723 22.857,8.446 22.12,8.934C21.384,9.422 20.536,9.666 19.577,9.666C18.48,9.666 17.625,9.35 17.011,8.719C16.396,8.087 16.089,7.211 16.089,6.089C16.089,4.954 16.301,3.91 16.725,2.958C17.149,2.005 17.733,1.274 18.478,0.764C19.223,0.255 20.084,-0 21.06,-0C22.152,-0 22.998,0.308 23.597,0.925C24.197,1.541 24.496,2.404 24.496,3.513ZM20.9,1.657C20.382,1.657 19.906,1.853 19.474,2.245C19.041,2.637 18.702,3.175 18.456,3.86C18.21,4.545 18.087,5.288 18.087,6.089C18.087,6.718 18.229,7.194 18.514,7.515C18.798,7.836 19.2,7.996 19.718,7.996C20.236,7.996 20.708,7.81 21.134,7.438C21.56,7.065 21.893,6.538 22.133,5.858C22.373,5.177 22.493,4.412 22.493,3.565C22.493,2.957 22.353,2.487 22.075,2.155C21.797,1.823 21.405,1.657 20.9,1.657Z" style="fill-rule:nonzero;"/>
        <path d="M24.034,12.3C23.632,12.3 23.231,12.242 22.833,12.126L22.833,10.501C23.21,10.587 23.561,10.63 23.886,10.63C24.31,10.63 24.654,10.5 24.917,10.241C25.18,9.982 25.372,9.572 25.492,9.011L27.374,0.148L29.333,0.148L27.387,9.287C27.164,10.336 26.788,11.101 26.26,11.58C25.731,12.06 24.989,12.3 24.034,12.3Z" style="fill-rule:nonzero;"/>
        <path d="M34.844,9.538L29.596,9.538L31.581,0.148L36.835,0.148L36.488,1.779L33.199,1.779L32.769,3.841L35.833,3.841L35.479,5.472L32.416,5.472L31.902,7.894L35.19,7.894L34.844,9.538Z" style="fill-rule:nonzero;"/>
        <path d="M40.052,9.538L38.093,9.538L39.725,1.805L37.464,1.805L37.817,0.148L44.304,0.148L43.951,1.805L41.684,1.805L40.052,9.538Z" style="fill-rule:nonzero;"/>
        <path d="M52.301,3.513C52.301,4.725 52.089,5.809 51.665,6.766C51.241,7.723 50.661,8.446 49.924,8.934C49.188,9.422 48.34,9.666 47.381,9.666C46.285,9.666 45.429,9.35 44.815,8.719C44.2,8.087 43.893,7.211 43.893,6.089C43.893,4.954 44.105,3.91 44.529,2.958C44.953,2.005 45.537,1.274 46.282,0.764C47.028,0.255 47.888,-0 48.864,-0C49.956,-0 50.802,0.308 51.401,0.925C52.001,1.541 52.301,2.404 52.301,3.513ZM48.704,1.657C48.186,1.657 47.71,1.853 47.278,2.245C46.846,2.637 46.506,3.175 46.26,3.86C46.014,4.545 45.891,5.288 45.891,6.089C45.891,6.718 46.033,7.194 46.318,7.515C46.603,7.836 47.004,7.996 47.522,7.996C48.04,7.996 48.512,7.81 48.938,7.438C49.364,7.065 49.697,6.538 49.937,5.858C50.177,5.177 50.297,4.412 50.297,3.565C50.297,2.957 50.158,2.487 49.879,2.155C49.601,1.823 49.209,1.657 48.704,1.657Z" style="fill-rule:nonzero;"/>
        <path d="M58.781,6.763C58.781,7.658 58.464,8.366 57.831,8.886C57.197,9.406 56.338,9.666 55.255,9.666C54.309,9.666 53.547,9.474 52.969,9.088L52.969,7.328C53.795,7.791 54.561,8.022 55.268,8.022C55.748,8.022 56.122,7.931 56.392,7.749C56.662,7.567 56.797,7.318 56.797,7.001C56.797,6.817 56.768,6.655 56.71,6.516C56.652,6.377 56.57,6.247 56.463,6.127C56.356,6.007 56.09,5.789 55.666,5.472C55.075,5.048 54.66,4.629 54.42,4.213C54.18,3.798 54.06,3.351 54.06,2.871C54.06,2.319 54.193,1.825 54.459,1.391C54.724,0.956 55.102,0.618 55.592,0.376C56.083,0.134 56.647,0.013 57.285,0.013C58.214,0.013 59.064,0.225 59.835,0.649L59.134,2.145C58.466,1.828 57.85,1.67 57.285,1.67C56.929,1.67 56.638,1.766 56.411,1.959C56.184,2.152 56.071,2.406 56.071,2.723C56.071,2.984 56.141,3.212 56.283,3.407C56.424,3.602 56.741,3.86 57.233,4.181C57.751,4.524 58.139,4.902 58.396,5.315C58.653,5.728 58.781,6.211 58.781,6.763Z" style="fill-rule:nonzero;"/>
    </g>
</svg>
