<?xml version="1.0" encoding="UTF-8" standalone="no"?>
<!DOCTYPE svg PUBLIC "-//W3C//DTD SVG 1.1//EN" "http://www.w3.org/Graphics/SVG/1.1/DTD/svg11.dtd">
<svg width="100%" height="100%" viewBox="0 0 63 13" version="1.1" xmlns="http://www.w3.org/2000/svg" xmlns:xlink="http://www.w3.org/1999/xlink" xml:space="preserve" xmlns:serif="http://www.serif.com/" style="fill-rule:evenodd;clip-rule:evenodd;stroke-linejoin:round;stroke-miterlimit:2;">
    <rect id="projetos2" x="0" y="-4.267" width="62.5" height="20.833" style="fill:none;"/>
    <clipPath id="_clip1">
        <rect x="0" y="-4.267" width="62.5" height="20.833"/>
    </clipPath>
    <g clip-path="url(#_clip1)">
        <path d="M1.991,4.567L2.646,4.567C3.258,4.567 3.717,4.446 4.021,4.204C4.325,3.962 4.477,3.61 4.477,3.147C4.477,2.68 4.349,2.336 4.095,2.113C3.84,1.89 3.44,1.779 2.897,1.779L1.991,1.779L1.991,4.567ZM6.487,3.077C6.487,4.087 6.171,4.86 5.54,5.395C4.908,5.93 4.01,6.198 2.845,6.198L1.991,6.198L1.991,9.538L0,9.538L0,0.148L2.999,0.148C4.138,0.148 5.004,0.393 5.597,0.883C6.19,1.373 6.487,2.105 6.487,3.077Z" style="fill-rule:nonzero;"/>
        <path d="M10.251,4.316L10.893,4.316C11.522,4.316 11.987,4.211 12.287,4.001C12.586,3.792 12.736,3.462 12.736,3.012C12.736,2.567 12.583,2.25 12.277,2.062C11.971,1.873 11.497,1.779 10.854,1.779L10.251,1.779L10.251,4.316ZM10.251,5.935L10.251,9.538L8.26,9.538L8.26,0.148L10.996,0.148C12.272,0.148 13.216,0.38 13.828,0.845C14.441,1.309 14.747,2.015 14.747,2.961C14.747,3.513 14.595,4.005 14.291,4.435C13.987,4.865 13.556,5.202 13,5.447C14.413,7.557 15.333,8.921 15.761,9.538L13.552,9.538L11.311,5.935L10.251,5.935Z" style="fill-rule:nonzero;"/>
        <path d="M25.466,4.83C25.466,6.384 25.081,7.579 24.31,8.414C23.539,9.249 22.435,9.666 20.996,9.666C19.557,9.666 18.453,9.249 17.682,8.414C16.911,7.579 16.526,6.38 16.526,4.817C16.526,3.254 16.912,2.061 17.685,1.236C18.458,0.412 19.566,-0 21.009,-0C22.452,-0 23.556,0.415 24.32,1.246C25.084,2.077 25.466,3.271 25.466,4.83ZM18.613,4.83C18.613,5.879 18.812,6.669 19.211,7.2C19.609,7.731 20.204,7.996 20.996,7.996C22.585,7.996 23.379,6.941 23.379,4.83C23.379,2.715 22.589,1.657 21.009,1.657C20.217,1.657 19.619,1.924 19.217,2.457C18.814,2.99 18.613,3.781 18.613,4.83Z" style="fill-rule:nonzero;"/>
        <path d="M26.43,12.3C25.98,12.3 25.588,12.253 25.254,12.158L25.254,10.501C25.597,10.587 25.909,10.63 26.192,10.63C26.629,10.63 26.941,10.494 27.13,10.222C27.318,9.95 27.412,9.525 27.412,8.947L27.412,0.148L29.403,0.148L29.403,8.934C29.403,10.03 29.153,10.865 28.652,11.439C28.151,12.013 27.41,12.3 26.43,12.3Z" style="fill-rule:nonzero;"/>
        <path d="M37.175,9.538L31.767,9.538L31.767,0.148L37.175,0.148L37.175,1.779L33.758,1.779L33.758,3.841L36.937,3.841L36.937,5.472L33.758,5.472L33.758,7.894L37.175,7.894L37.175,9.538Z" style="fill-rule:nonzero;"/>
        <path d="M42.756,9.538L40.765,9.538L40.765,1.805L38.215,1.805L38.215,0.148L45.306,0.148L45.306,1.805L42.756,1.805L42.756,9.538Z" style="fill-rule:nonzero;"/>
        <path d="M55.011,4.83C55.011,6.384 54.626,7.579 53.855,8.414C53.084,9.249 51.979,9.666 50.541,9.666C49.102,9.666 47.997,9.249 47.227,8.414C46.456,7.579 46.071,6.38 46.071,4.817C46.071,3.254 46.457,2.061 47.23,1.236C48.003,0.412 49.111,-0 50.554,-0C51.997,-0 53.1,0.415 53.865,1.246C54.629,2.077 55.011,3.271 55.011,4.83ZM48.158,4.83C48.158,5.879 48.357,6.669 48.755,7.2C49.153,7.731 49.749,7.996 50.541,7.996C52.129,7.996 52.924,6.941 52.924,4.83C52.924,2.715 52.134,1.657 50.554,1.657C49.762,1.657 49.164,1.924 48.762,2.457C48.359,2.99 48.158,3.781 48.158,4.83Z" style="fill-rule:nonzero;"/>
        <path d="M62.5,6.93C62.5,7.778 62.195,8.446 61.585,8.934C60.975,9.422 60.126,9.666 59.038,9.666C58.036,9.666 57.15,9.478 56.379,9.101L56.379,7.251C57.013,7.534 57.549,7.733 57.988,7.849C58.427,7.964 58.828,8.022 59.192,8.022C59.629,8.022 59.964,7.939 60.197,7.772C60.431,7.605 60.547,7.356 60.547,7.027C60.547,6.842 60.496,6.679 60.393,6.535C60.291,6.392 60.14,6.254 59.941,6.121C59.741,5.988 59.336,5.776 58.723,5.485C58.15,5.215 57.719,4.956 57.432,4.708C57.146,4.46 56.916,4.171 56.745,3.841C56.574,3.511 56.488,3.126 56.488,2.685C56.488,1.854 56.77,1.201 57.333,0.726C57.896,0.25 58.674,0.013 59.668,0.013C60.156,0.013 60.621,0.071 61.065,0.186C61.508,0.302 61.971,0.465 62.455,0.674L61.813,2.222C61.312,2.017 60.898,1.873 60.57,1.792C60.242,1.711 59.92,1.67 59.603,1.67C59.227,1.67 58.938,1.758 58.736,1.933C58.535,2.109 58.434,2.338 58.434,2.62C58.434,2.796 58.475,2.949 58.556,3.08C58.638,3.21 58.767,3.337 58.945,3.459C59.123,3.581 59.543,3.8 60.207,4.117C61.085,4.537 61.686,4.957 62.012,5.379C62.337,5.801 62.5,6.318 62.5,6.93Z" style="fill-rule:nonzero;"/>
    </g>
</svg>
