<?xml version="1.0" encoding="UTF-8" standalone="no"?>
<!DOCTYPE svg PUBLIC "-//W3C//DTD SVG 1.1//EN" "http://www.w3.org/Graphics/SVG/1.1/DTD/svg11.dtd">
<svg width="100%" height="100%" viewBox="0 0 3545 1772" version="1.1" xmlns="http://www.w3.org/2000/svg" xmlns:xlink="http://www.w3.org/1999/xlink" xml:space="preserve" xmlns:serif="http://www.serif.com/" style="fill-rule:evenodd;clip-rule:evenodd;stroke-linejoin:round;stroke-miterlimit:2;">
    <rect id="responsivo" x="0.882" y="0" width="3543.31" height="1771.65" style="fill:white;"/>
    <path id="macbook" d="M627.182,1498.45C599.194,1498.4 572.142,1498.28 569.96,1498.07C569.958,1497.82 566.736,1494.95 566.535,1494.78L687.83,1494.78C687.628,1494.95 684.406,1497.82 684.404,1498.07C682.222,1498.28 655.171,1498.4 627.182,1498.45ZM471.402,1445.42C471.402,1445.42 565.647,1440.19 589.459,1440.25C584.293,1431.96 581.491,1422.33 581.491,1412.4L581.491,325.787C581.491,311.829 587.036,298.441 596.906,288.572C606.777,278.701 620.163,273.157 634.122,273.157L2215.62,273.157C2229.57,273.157 2242.96,278.701 2252.83,288.572C2262.7,298.441 2268.24,311.829 2268.24,325.787L2268.24,1412.4C2268.24,1422.33 2265.44,1431.96 2260.28,1440.25C2284.09,1440.19 2378.34,1445.42 2378.34,1445.42L2378.34,1464.39C2378.34,1472.67 2374.55,1480.08 2368.62,1484.96C2364.02,1488.76 2358.12,1491.04 2351.68,1491.04L691.102,1491.04L687.84,1494.77L627.182,1494.76L566.525,1494.77L563.263,1491.04L498.056,1491.04C491.622,1491.04 485.721,1488.76 481.115,1484.96C475.183,1480.08 471.402,1472.67 471.402,1464.39L471.402,1445.42ZM2222.55,1498.5C2194.57,1498.44 2167.51,1498.33 2165.33,1498.12C2165.33,1497.86 2162.11,1495 2161.91,1494.82L2283.2,1494.82C2283,1495 2279.78,1497.86 2279.78,1498.12C2277.6,1498.33 2250.54,1498.44 2222.55,1498.5ZM2222.55,1494.81L2161.9,1494.81L2158.61,1491.06L2286.49,1491.06L2283.21,1494.81L2222.55,1494.81Z"/>
    <clipPath id="_clip1">
        <path d="M627.182,1498.45C599.194,1498.4 572.142,1498.28 569.96,1498.07C569.958,1497.82 566.736,1494.95 566.535,1494.78L687.83,1494.78C687.628,1494.95 684.406,1497.82 684.404,1498.07C682.222,1498.28 655.171,1498.4 627.182,1498.45ZM471.402,1445.42C471.402,1445.42 565.647,1440.19 589.459,1440.25C584.293,1431.96 581.491,1422.33 581.491,1412.4L581.491,325.787C581.491,311.829 587.036,298.441 596.906,288.572C606.777,278.701 620.163,273.157 634.122,273.157L2215.62,273.157C2229.57,273.157 2242.96,278.701 2252.83,288.572C2262.7,298.441 2268.24,311.829 2268.24,325.787L2268.24,1412.4C2268.24,1422.33 2265.44,1431.96 2260.28,1440.25C2284.09,1440.19 2378.34,1445.42 2378.34,1445.42L2378.34,1464.39C2378.34,1472.67 2374.55,1480.08 2368.62,1484.96C2364.02,1488.76 2358.12,1491.04 2351.68,1491.04L691.102,1491.04L687.84,1494.77L627.182,1494.76L566.525,1494.77L563.263,1491.04L498.056,1491.04C491.622,1491.04 485.721,1488.76 481.115,1484.96C475.183,1480.08 471.402,1472.67 471.402,1464.39L471.402,1445.42ZM2222.55,1498.5C2194.57,1498.44 2167.51,1498.33 2165.33,1498.12C2165.33,1497.86 2162.11,1495 2161.91,1494.82L2283.2,1494.82C2283,1495 2279.78,1497.86 2279.78,1498.12C2277.6,1498.33 2250.54,1498.44 2222.55,1498.5ZM2222.55,1494.81L2161.9,1494.81L2158.61,1491.06L2286.49,1491.06L2283.21,1494.81L2222.55,1494.81Z"/>
    </clipPath>
    <g clip-path="url(#_clip1)">
        <path d="M1320.11,310.491L642.652,310.491C636.761,310.491 631.111,312.83 626.945,316.997C622.78,321.161 620.44,326.811 620.44,332.702L620.44,1352.8L2229.3,1352.8L2229.3,332.702C2229.3,326.811 2226.96,321.161 2222.79,316.997C2218.63,312.83 2212.98,310.491 2207.08,310.491L1529.63,310.491C1526.79,310.65 1524.54,313.002 1524.54,315.878L1524.54,332.99C1524.54,335.903 1523.38,338.694 1521.32,340.753C1519.27,342.812 1516.47,343.97 1513.56,343.97L1336.18,343.97C1333.26,343.97 1330.47,342.812 1328.41,340.753C1326.35,338.694 1325.2,335.903 1325.2,332.99L1325.2,315.878C1325.2,313.002 1322.95,310.65 1320.11,310.491Z" style="fill:white;"/>
    </g>
    <g id="ipad">
        <path d="M2728.73,458.458C2728.47,458.33 2728.21,458.225 2728.14,458.088C2728.05,457.886 2728.14,457.244 2728.14,457.244L2773.21,457.244C2773.21,457.244 2773.21,457.886 2773.11,458.088C2773.05,458.221 2772.89,458.327 2772.62,458.458L2771.43,458.458C2800.83,458.458 2824.67,482.294 2824.67,511.697L2824.67,530.153C2824.85,529.981 2825.01,529.822 2825.21,529.777C2825.57,529.698 2826.7,529.777 2826.7,529.777L2826.7,566.567C2826.7,566.567 2825.57,566.569 2825.21,566.489C2825.02,566.444 2824.85,566.343 2824.67,566.179L2824.67,575.465C2824.85,575.293 2825.01,575.134 2825.21,575.089C2825.57,575.01 2826.7,575.089 2826.7,575.089L2826.7,611.879C2826.7,611.879 2825.57,611.881 2825.21,611.8C2825.02,611.756 2824.85,611.654 2824.67,611.491L2824.67,1445.26C2824.67,1474.66 2800.83,1498.5 2771.43,1498.5L2082.7,1498.5C2053.29,1498.5 2029.46,1474.66 2029.46,1445.26L2029.46,511.697C2029.46,482.294 2053.29,458.458 2082.7,458.458L2728.73,458.458ZM2791.54,1447.79L2791.54,509.163C2791.54,504.39 2789.64,499.814 2786.27,496.439C2782.89,493.065 2778.32,491.169 2773.54,491.169L2080.58,491.169C2075.81,491.169 2071.23,493.065 2067.86,496.439C2064.49,499.814 2062.59,504.39 2062.59,509.163L2062.59,1447.79C2062.59,1452.56 2064.49,1457.14 2067.86,1460.52C2071.23,1463.89 2075.81,1465.79 2080.58,1465.79L2773.54,1465.79C2778.32,1465.79 2782.89,1463.89 2786.27,1460.52C2789.64,1457.14 2791.54,1452.56 2791.54,1447.79Z"/>
        <path d="M2794.62,1451.31C2794.62,1456.11 2792.71,1460.72 2789.31,1464.12C2785.91,1467.52 2781.31,1469.43 2776.5,1469.43C2675.19,1469.43 2179.88,1469.43 2078.56,1469.43C2073.76,1469.43 2069.15,1467.52 2065.75,1464.12C2062.35,1460.72 2060.44,1456.11 2060.44,1451.31L2060.44,505.935C2060.44,501.128 2062.35,496.519 2065.75,493.12C2069.15,489.721 2073.76,487.812 2078.56,487.812C2179.88,487.812 2675.19,487.812 2776.5,487.812C2781.31,487.812 2785.91,489.721 2789.31,493.12C2792.71,496.519 2794.62,501.128 2794.62,505.935C2794.62,628.016 2794.62,1329.22 2794.62,1451.31Z" style="fill:white;"/>
    </g>
    <g id="iPhone">
        <g>
            <path d="M2716.93,1433.71L2716.93,800.624C2716.93,786.741 2722.46,773.405 2732.28,763.586C2742.09,753.769 2755.43,748.245 2769.31,748.245L3005.66,748.245C3019.54,748.245 3032.88,753.768 3042.7,763.586C3052.51,773.404 3058.04,786.739 3058.04,800.624L3058.04,1433.71C3058.04,1447.6 3052.52,1460.93 3042.7,1470.75C3032.88,1480.57 3019.55,1486.1 3005.66,1486.1L2769.31,1486.1C2755.43,1486.1 2742.09,1480.57 2732.28,1470.75C2722.46,1460.93 2716.93,1447.6 2716.93,1433.71Z" style="fill:white;"/>
            <g id="icon">
                <g id="icon1" serif:id="icon">
                    <path id="sinal" d="M2974.99,771.152C2974.99,770.54 2975.5,770.029 2976.12,770.029C2976.73,770.029 2977.24,770.54 2977.24,771.152L2977.24,779.74C2977.24,780.352 2976.73,780.863 2976.12,780.863C2975.5,780.863 2974.99,780.352 2974.99,779.74L2974.99,771.152ZM2970.63,773.271C2970.63,772.66 2971.14,772.149 2971.75,772.149C2972.37,772.149 2972.88,772.66 2972.88,773.271L2972.88,779.74C2972.88,780.352 2972.37,780.863 2971.75,780.863C2971.14,780.863 2970.63,780.352 2970.63,779.74L2970.63,773.271ZM2966.27,775.446C2966.27,774.834 2966.78,774.323 2967.39,774.323C2968.01,774.323 2968.51,774.834 2968.51,775.446L2968.51,779.74C2968.51,780.352 2968.01,780.863 2967.39,780.863C2966.78,780.863 2966.27,780.352 2966.27,779.74L2966.27,775.446ZM2961.91,777.623C2961.91,777.012 2962.42,776.501 2963.03,776.501C2963.64,776.501 2964.15,777.012 2964.15,777.623L2964.15,779.74C2964.15,780.352 2963.64,780.863 2963.03,780.863C2962.42,780.863 2961.91,780.352 2961.91,779.74L2961.91,777.623Z" style="fill:white;"/>
                    <path id="wifi" d="M2985.48,771.642L2985.98,771.337C2987.02,770.763 2987.97,770.481 2988.15,770.428C2988.58,770.299 2990.96,769.591 2993.75,770.461L2994.59,770.752L2995.04,770.944L2995.32,771.08L2995.81,771.336L2995.91,771.394L2996.36,771.671L2996.45,771.733L2997.13,772.243L2997.52,772.585L2998.07,773.167C2998.2,773.323 2998.32,773.456 2998.2,773.641L2997.82,774.035L2997.45,774.404C2997.29,774.567 2997.19,774.733 2996.97,774.662L2996.83,774.555L2996.57,774.286L2996.16,773.903C2996.07,773.825 2995.6,773.426 2994.95,773.043L2994.63,772.87L2993.91,772.541C2993.04,772.189 2992.26,772.09 2992.11,772.071C2991.82,772.034 2990.17,771.822 2988.46,772.351L2987.71,772.629C2987.02,772.934 2986.54,773.245 2986.44,773.307L2985.96,773.658L2985.53,774.021L2985.22,774.312L2984.89,774.643C2984.79,774.699 2984.73,774.702 2984.63,774.664L2984.51,774.578L2984.44,774.5L2984.26,774.32L2983.83,773.87L2983.64,773.666C2983.52,773.532 2983.57,773.386 2983.67,773.263L2983.92,772.965L2984.16,772.716L2984.36,772.52L2984.63,772.282L2985.02,771.969L2985.48,771.642ZM2987.32,774.896C2987.68,774.648 2987.66,774.685 2988.07,774.473L2988.45,774.304C2988.95,774.116 2988.92,774.123 2989.44,773.994L2990.12,773.876C2990.84,773.818 2990.8,773.8 2991.5,773.856C2992.54,773.941 2993.36,774.302 2993.51,774.369L2993.96,774.584C2994.05,774.63 2994.55,774.888 2995,775.283L2995.17,775.429L2995.35,775.602L2995.55,775.823C2995.63,775.927 2995.74,776.035 2995.7,776.182C2995.67,776.292 2995.51,776.419 2995.46,776.474L2994.76,777.174C2994.65,777.289 2994.56,777.42 2994.39,777.402C2994.24,777.386 2994.05,777.132 2994.01,777.084C2993.6,776.704 2993.26,776.505 2993.19,776.463L2993.03,776.374C2992.07,775.83 2991.19,775.804 2991.04,775.797C2990.42,775.77 2989.92,775.906 2989.83,775.931C2989.57,776.004 2989.35,776.079 2989.11,776.198L2988.85,776.331L2988.7,776.41L2988.37,776.615L2988.3,776.669L2987.87,777.03L2987.68,777.219C2987.56,777.34 2987.51,777.421 2987.34,777.401L2987.26,777.376L2987.08,777.224L2986.53,776.652L2986.14,776.247C2986.04,776.104 2986.14,775.974 2986.24,775.86L2986.42,775.648C2986.84,775.22 2986.83,775.252 2987.32,774.896ZM2989.31,778.176L2989.54,778.025C2989.63,777.979 2990.13,777.701 2990.66,777.649L2991.17,777.651C2991.66,777.715 2991.99,777.876 2992.06,777.909L2992.59,778.251L2992.77,778.406L2992.89,778.529C2993,778.646 2993.09,778.743 2993.04,778.902C2993,779.043 2992.68,779.308 2992.67,779.317L2992.55,779.438L2992.14,779.831L2991.93,780.038L2991.25,780.702C2991.11,780.814 2991.01,780.868 2990.84,780.852C2990.7,780.809 2990.65,780.771 2990.53,780.67L2990.25,780.399L2989.99,780.148L2989.02,779.194C2988.92,779.088 2988.71,778.957 2988.75,778.768C2988.78,778.659 2989,778.451 2989.04,778.408L2989.31,778.176Z" style="fill:white;"/>
                    <path id="battery" d="M3024.24,770.036C3024.55,770.036 3024.84,770.157 3025.05,770.373C3025.27,770.59 3025.39,770.883 3025.39,771.188L3025.39,779.703C3025.39,780.009 3025.27,780.302 3025.05,780.518C3024.84,780.734 3024.55,780.855 3024.24,780.855L3005.73,780.855C3005.42,780.855 3005.13,780.734 3004.91,780.518C3004.7,780.302 3004.58,780.009 3004.58,779.703L3004.58,771.188C3004.58,770.883 3004.7,770.59 3004.91,770.373C3005.13,770.157 3005.42,770.036 3005.73,770.036L3024.24,770.036ZM3024.24,770.727L3005.73,770.727C3005.61,770.727 3005.49,770.775 3005.4,770.862C3005.32,770.948 3005.27,771.066 3005.27,771.188L3005.27,779.703C3005.27,779.825 3005.32,779.943 3005.4,780.03C3005.49,780.116 3005.61,780.165 3005.73,780.165L3024.24,780.165C3024.36,780.165 3024.48,780.116 3024.57,780.03C3024.65,779.943 3024.7,779.825 3024.7,779.703L3024.7,771.188C3024.7,771.066 3024.65,770.948 3024.57,770.862C3024.48,770.775 3024.36,770.727 3024.24,770.727ZM3020.35,778.668C3020.35,778.791 3020.3,778.908 3020.21,778.995C3020.13,779.081 3020.01,779.13 3019.89,779.13L3006.76,779.13C3006.64,779.13 3006.53,779.081 3006.44,778.995C3006.35,778.908 3006.3,778.791 3006.3,778.668L3006.3,772.19C3006.3,772.068 3006.35,771.95 3006.44,771.864C3006.53,771.777 3006.64,771.728 3006.76,771.728L3019.89,771.728C3020.01,771.728 3020.13,771.777 3020.21,771.864C3020.3,771.95 3020.35,772.068 3020.35,772.19L3020.35,778.668ZM3026.24,773.144L3026.44,773.144C3026.56,773.144 3027.27,773.144 3027.87,773.737C3027.96,773.825 3028.46,774.33 3028.46,775.169L3028.46,775.17C3028.46,776.009 3027.96,776.514 3027.87,776.602C3027.27,777.195 3026.56,777.195 3026.44,777.195L3026.24,777.195L3026.24,773.144Z" style="fill:white;"/>
                </g>
                <path d="M2762,780.605L2763.84,780.605L2763.84,770.293L2762.01,770.293L2759.31,772.18L2759.31,773.952L2761.88,772.151L2762,772.151L2762,780.605Z" style="fill:white;fill-rule:nonzero;"/>
                <path d="M2771.55,780.605L2773.32,780.605L2773.32,778.683L2774.71,778.683L2774.71,777.125L2773.32,777.125L2773.32,770.293L2770.72,770.293L2766.51,777.039L2766.51,778.683L2771.55,778.683L2771.55,780.605ZM2768.22,777.061L2771.48,771.794L2771.58,771.794L2771.58,777.168L2768.22,777.168L2768.22,777.061Z" style="fill:white;fill-rule:nonzero;"/>
                <path d="M2776.8,778.404C2776.8,779.121 2777.28,779.591 2778,779.591C2778.71,779.591 2779.19,779.119 2779.19,778.404C2779.19,777.692 2778.7,777.225 2778,777.225C2777.29,777.225 2776.8,777.69 2776.8,778.404ZM2776.8,773.016C2776.8,773.73 2777.29,774.195 2778,774.195C2778.7,774.195 2779.19,773.729 2779.19,773.016C2779.19,772.301 2778.71,771.829 2778,771.829C2777.28,771.829 2776.8,772.299 2776.8,773.016Z" style="fill:white;fill-rule:nonzero;"/>
                <path d="M2784.02,780.605L2785.87,780.605L2785.87,770.293L2784.03,770.293L2781.33,772.18L2781.33,773.952L2783.9,772.151L2784.02,772.151L2784.02,780.605Z" style="fill:white;fill-rule:nonzero;"/>
                <path d="M2792.74,780.855C2794.83,780.855 2796.57,779.389 2796.57,777.232C2796.57,775.315 2795.11,773.802 2793.18,773.802C2792.04,773.802 2791.02,774.301 2790.5,775.346L2790.38,775.346C2790.38,773.844 2790.84,771.58 2792.78,771.58C2793.62,771.58 2794.34,772.018 2794.58,772.845L2796.43,772.845C2796.11,771.084 2794.52,770.036 2792.8,770.036C2789.74,770.036 2788.62,772.947 2788.62,775.56C2788.62,776.658 2788.79,777.844 2789.35,778.819C2790.04,780.155 2791.24,780.855 2792.74,780.855ZM2792.72,779.319C2791.58,779.319 2790.69,778.395 2790.69,777.261C2790.69,776.115 2791.61,775.267 2792.73,775.267C2793.88,775.267 2794.76,776.139 2794.76,777.289C2794.76,778.424 2793.85,779.319 2792.72,779.319Z" style="fill:white;fill-rule:nonzero;"/>
            </g>
        </g>
        <path d="M2704.53,926.588C2704.23,926.782 2703.98,926.984 2703.66,927.034C2703.18,927.109 2701.65,927.034 2701.65,927.034L2701.65,892.472C2701.65,892.472 2703.18,892.47 2703.66,892.546C2703.97,892.596 2704.22,892.72 2704.53,892.928L2704.53,800.624C2704.53,783.443 2711.36,766.966 2723.51,754.817C2735.65,742.669 2752.13,735.843 2769.31,735.843L3005.66,735.843C3022.84,735.843 3039.32,742.669 3051.46,754.817C3063.61,766.966 3070.44,783.443 3070.44,800.624L3070.44,974.881C3070.83,974.108 3071.34,973.238 3071.66,973.238C3072.29,973.238 3073.67,973.044 3073.67,973.044L3073.67,1063.3C3073.67,1063.3 3072.29,1063.77 3071.66,1063.3C3071.32,1063.04 3070.82,1062.22 3070.44,1061.53L3070.44,1433.71C3070.44,1450.9 3063.61,1467.37 3051.46,1479.52C3039.32,1491.67 3022.84,1498.5 3005.66,1498.5L2769.31,1498.5C2752.13,1498.5 2735.65,1491.67 2723.51,1479.52C2711.36,1467.37 2704.53,1450.9 2704.53,1433.71L2704.53,1081.67C2704.23,1081.99 2703.9,1082.28 2703.66,1082.4C2703.03,1082.69 2701.65,1082.4 2701.65,1082.4L2701.65,1026.25C2701.65,1026.25 2703.18,1026.25 2703.66,1026.37C2704,1026.46 2704.22,1026.65 2704.53,1026.99L2704.53,1009.16C2704.23,1009.48 2704.02,1009.79 2703.66,1009.89C2703.18,1010.01 2701.65,1009.89 2701.65,1009.89L2701.65,953.738C2701.65,953.738 2703.18,953.736 2703.66,953.859C2704,953.948 2704.22,954.142 2704.53,954.479L2704.53,926.588ZM3058.04,1433.71L3058.04,800.624C3058.04,786.733 3052.52,773.409 3042.7,763.586C3032.87,753.763 3019.55,748.245 3005.66,748.245L2769.31,748.245C2755.42,748.245 2742.1,753.763 2732.28,763.586C2722.45,773.409 2716.93,786.733 2716.93,800.624L2716.93,1433.71C2716.93,1447.61 2722.45,1460.93 2732.28,1470.75C2742.1,1480.58 2755.42,1486.1 2769.31,1486.1L3005.66,1486.1C3019.55,1486.1 3032.87,1480.58 3042.7,1470.75C3052.52,1460.93 3058.04,1447.61 3058.04,1433.71ZM2886.39,790.667L2849.68,790.667C2841.27,790.667 2834.46,783.852 2834.46,775.446C2834.46,767.04 2841.27,760.224 2849.68,760.224L2886.39,760.224L2924.37,760.225L2924.58,760.225C2932.86,760.225 2939.59,767.045 2939.59,775.446C2939.59,783.847 2932.86,790.666 2924.58,790.666L2924.37,790.666L2886.39,790.667ZM2935.6,1491.12L2951.71,1491.07L2951.68,1491.05L2935.6,1491.12ZM2839.37,1491.12L2887.49,1491.33L2935.6,1491.12L2887.49,1491.29L2839.37,1491.12ZM2839.37,1491.12L2823.29,1491.05L2823.26,1491.07L2839.37,1491.12Z"/>
    </g>
</svg>
