<?xml version="1.0" encoding="UTF-8" standalone="no"?>
<!DOCTYPE svg PUBLIC "-//W3C//DTD SVG 1.1//EN" "http://www.w3.org/Graphics/SVG/1.1/DTD/svg11.dtd">
<svg width="100%" height="100%" viewBox="0 0 2603 1226" version="1.1" xmlns="http://www.w3.org/2000/svg" xmlns:xlink="http://www.w3.org/1999/xlink" xml:space="preserve" xmlns:serif="http://www.serif.com/" style="fill-rule:evenodd;clip-rule:evenodd;stroke-linejoin:round;stroke-miterlimit:2;">
    <g transform="matrix(1,0,0,1,-504.402,-8156.16)">
        <g transform="matrix(0.983432,0,0,0.695039,54.534,2573.6)">
            <g id="macbook" transform="matrix(0.478072,0,0,0.676439,297.673,7715.08)">
                <path d="M665.546,3074.7C606.016,3074.57 548.477,3074.34 543.836,3073.89C543.831,3073.34 536.978,3067.25 536.551,3066.88L794.542,3066.88C794.113,3067.25 787.259,3073.34 787.255,3073.89C782.613,3074.34 725.076,3074.57 665.546,3074.7ZM334.205,2961.89C334.205,2961.89 534.661,2950.77 585.31,2950.89C574.322,2933.26 568.362,2912.77 568.362,2891.67L568.362,580.462C568.362,550.774 580.156,522.299 601.15,501.308C622.143,480.312 650.617,468.52 680.306,468.52L4044.11,468.52C4073.79,468.52 4102.27,480.312 4123.26,501.308C4144.26,522.299 4156.05,550.774 4156.05,580.462L4156.05,2891.67C4156.05,2912.77 4150.09,2933.26 4139.1,2950.89C4189.75,2950.77 4390.2,2961.89 4390.2,2961.89L4390.2,3002.24C4390.2,3019.86 4382.16,3035.61 4369.55,3046.01C4359.75,3054.08 4347.2,3058.93 4333.51,3058.93L801.501,3058.93L794.563,3066.86L665.546,3066.85L536.53,3066.86L529.592,3058.93L390.898,3058.93C377.213,3058.93 364.66,3054.08 354.865,3046.01C342.248,3035.61 334.205,3019.86 334.205,3002.24L334.205,2961.89ZM4058.86,3074.79C3999.33,3074.66 3941.8,3074.42 3937.16,3073.97C3937.15,3073.43 3930.3,3067.34 3929.87,3066.97L4187.86,3066.97C4187.43,3067.34 4180.58,3073.43 4180.58,3073.97C4175.93,3074.42 4118.39,3074.66 4058.86,3074.79ZM4058.86,3066.94L3929.85,3066.95L3922.86,3058.97L4194.86,3058.97L4187.88,3066.95L4058.86,3066.94Z"/>
                <clipPath id="_clip1">
                    <path d="M665.546,3074.7C606.016,3074.57 548.477,3074.34 543.836,3073.89C543.831,3073.34 536.978,3067.25 536.551,3066.88L794.542,3066.88C794.113,3067.25 787.259,3073.34 787.255,3073.89C782.613,3074.34 725.076,3074.57 665.546,3074.7ZM334.205,2961.89C334.205,2961.89 534.661,2950.77 585.31,2950.89C574.322,2933.26 568.362,2912.77 568.362,2891.67L568.362,580.462C568.362,550.774 580.156,522.299 601.15,501.308C622.143,480.312 650.617,468.52 680.306,468.52L4044.11,468.52C4073.79,468.52 4102.27,480.312 4123.26,501.308C4144.26,522.299 4156.05,550.774 4156.05,580.462L4156.05,2891.67C4156.05,2912.77 4150.09,2933.26 4139.1,2950.89C4189.75,2950.77 4390.2,2961.89 4390.2,2961.89L4390.2,3002.24C4390.2,3019.86 4382.16,3035.61 4369.55,3046.01C4359.75,3054.08 4347.2,3058.93 4333.51,3058.93L801.501,3058.93L794.563,3066.86L665.546,3066.85L536.53,3066.86L529.592,3058.93L390.898,3058.93C377.213,3058.93 364.66,3054.08 354.865,3046.01C342.248,3035.61 334.205,3019.86 334.205,3002.24L334.205,2961.89ZM4058.86,3074.79C3999.33,3074.66 3941.8,3074.42 3937.16,3073.97C3937.15,3073.43 3930.3,3067.34 3929.87,3066.97L4187.86,3066.97C4187.43,3067.34 4180.58,3073.43 4180.58,3073.97C4175.93,3074.42 4118.39,3074.66 4058.86,3074.79ZM4058.86,3066.94L3929.85,3066.95L3922.86,3058.97L4194.86,3058.97L4187.88,3066.95L4058.86,3066.94Z"/>
                </clipPath>
                <g clip-path="url(#_clip1)">
                    <path d="M2139.38,547.929L698.449,547.929C685.919,547.929 673.902,552.904 665.042,561.766C656.182,570.624 651.205,582.641 651.205,595.17L651.205,2764.9L4073.2,2764.9L4073.2,595.17C4073.2,582.641 4068.23,570.624 4059.37,561.766C4050.51,552.904 4038.49,547.929 4025.96,547.929L2585.03,547.929C2578.99,548.266 2574.2,553.27 2574.2,559.387L2574.2,595.783C2574.2,601.979 2571.75,607.916 2567.36,612.295C2562.98,616.674 2557.05,619.137 2550.85,619.137L2173.56,619.137C2167.36,619.137 2161.43,616.674 2157.05,612.295C2152.66,607.916 2150.2,601.979 2150.2,595.783L2150.2,559.387C2150.2,553.27 2145.42,548.266 2139.38,547.929Z" style="fill:white;"/>
                </g>
            </g>
        </g>
        <g transform="matrix(0.983432,0,0,0.695039,54.534,2573.6)">
            <g id="ipad" transform="matrix(4.63315e-17,1.07061,-0.534761,4.63315e-17,7138.26,6329.08)">
                <g transform="matrix(1.0096,-2.21718e-47,-1.5704e-47,1.42851,-6774.78,-4371.16)">
                    <path d="M8532.54,8800.75C8532.37,8801.08 8532.23,8801.43 8532.04,8801.52C8531.77,8801.65 8530.92,8801.52 8530.92,8801.52L8530.92,8741.53C8530.92,8741.53 8531.77,8741.53 8532.04,8741.66C8532.22,8741.75 8532.36,8741.96 8532.54,8742.33L8532.54,8743.91C8532.54,8704.77 8564.26,8673.04 8603.4,8673.04L8627.97,8673.04C8627.74,8672.8 8627.53,8672.58 8627.47,8672.31C8627.36,8671.84 8627.47,8670.33 8627.47,8670.33L8676.44,8670.33C8676.44,8670.33 8676.44,8671.84 8676.34,8672.31C8676.28,8672.57 8676.14,8672.79 8675.92,8673.04L8688.28,8673.04C8688.06,8672.8 8687.84,8672.58 8687.78,8672.31C8687.68,8671.84 8687.78,8670.33 8687.78,8670.33L8736.76,8670.33C8736.76,8670.33 8736.76,8671.84 8736.65,8672.31C8736.59,8672.57 8736.46,8672.79 8736.24,8673.04L9846.07,8673.04C9885.21,8673.04 9916.94,8704.77 9916.94,8743.91L9916.94,9660.68C9916.94,9699.82 9885.21,9731.55 9846.07,9731.55L8603.4,9731.55C8564.26,9731.55 8532.54,9699.82 8532.54,9660.68L8532.54,8800.75ZM9849.44,8717.14L8600.03,8717.14C8593.68,8717.14 8587.59,8719.66 8583.09,8724.16C8578.6,8728.65 8576.08,8734.74 8576.08,8741.09L8576.08,9663.49C8576.08,9669.85 8578.6,9675.94 8583.09,9680.43C8587.59,9684.92 8593.68,9687.44 8600.03,9687.44L9849.44,9687.44C9855.8,9687.44 9861.89,9684.92 9866.38,9680.43C9870.87,9675.94 9873.4,9669.85 9873.4,9663.49L9873.4,8741.09C9873.4,8734.74 9870.87,8728.65 9866.38,8724.16C9861.89,8719.66 9855.8,8717.14 9849.44,8717.14Z"/>
                </g>
                <g transform="matrix(1.3301,0,0,1.43877,-9588.18,-4466.75)">
                    <path d="M9594.84,8717.34C9599.69,8717.34 9604.35,8719.86 9607.78,8724.35C9611.22,8728.85 9613.15,8734.94 9613.15,8741.29C9613.15,8875.19 9613.15,9529.8 9613.15,9663.69C9613.15,9670.05 9611.22,9676.14 9607.78,9680.63C9604.35,9685.12 9599.69,9687.65 9594.84,9687.65C9471.49,9687.65 8763.02,9687.65 8639.67,9687.65C8634.81,9687.65 8630.16,9685.12 8626.72,9680.63C8623.29,9676.14 8621.36,9670.05 8621.36,9663.69C8621.36,9529.8 8621.36,8875.19 8621.36,8741.29C8621.36,8734.94 8623.29,8728.85 8626.72,8724.35C8630.16,8719.86 8634.81,8717.34 8639.67,8717.34C8763.02,8717.34 9471.49,8717.34 9594.84,8717.34Z" style="fill:white;"/>
                </g>
            </g>
        </g>
        <g transform="matrix(0.983432,0,0,0.695039,54.534,2573.6)">
            <g id="iPhone" transform="matrix(0.299612,0,0,0.423931,2205.84,8495.29)">
                <g>
                    <path d="M1785.52,2845.97L1785.52,697.34C1785.52,650.221 1804.27,604.96 1837.59,571.638C1870.91,538.319 1916.17,519.57 1963.29,519.57L2765.42,519.57C2812.54,519.57 2857.8,538.315 2891.12,571.638C2924.44,604.956 2943.19,650.215 2943.19,697.34L2943.19,2845.97C2943.19,2893.09 2924.45,2938.35 2891.12,2971.67C2857.8,3004.99 2812.55,3023.74 2765.42,3023.74L1963.29,3023.74C1916.17,3023.74 1870.91,3004.99 1837.59,2971.67C1804.27,2938.35 1785.52,2893.09 1785.52,2845.97Z" style="fill:white;"/>
                    <g id="icon">
                        <g id="icon1" serif:id="icon">
                            <path id="sinal" d="M2661.35,597.313C2661.35,595.237 2663.08,593.503 2665.16,593.503C2667.23,593.503 2668.97,595.237 2668.97,597.313L2668.97,626.461C2668.97,628.537 2667.23,630.271 2665.16,630.271C2663.08,630.271 2661.35,628.537 2661.35,626.461L2661.35,597.313ZM2646.54,604.507C2646.54,602.431 2648.28,600.697 2650.35,600.697C2652.43,600.697 2654.16,602.431 2654.16,604.507L2654.16,626.461C2654.16,628.537 2652.43,630.271 2650.35,630.271C2648.28,630.271 2646.54,628.537 2646.54,626.461L2646.54,604.507ZM2631.74,611.887C2631.74,609.811 2633.48,608.077 2635.55,608.077C2637.63,608.077 2639.36,609.811 2639.36,611.887L2639.36,626.461C2639.36,628.537 2637.63,630.271 2635.55,630.271C2633.48,630.271 2631.74,628.537 2631.74,626.461L2631.74,611.887ZM2616.94,619.278C2616.94,617.202 2618.68,615.468 2620.75,615.468C2622.83,615.468 2624.56,617.202 2624.56,619.278L2624.56,626.461C2624.56,628.537 2622.83,630.271 2620.75,630.271C2618.68,630.271 2616.94,628.537 2616.94,626.461L2616.94,619.278Z" style="fill:white;"/>
                            <path id="wifi" d="M2696.95,598.976L2698.63,597.944C2702.16,595.996 2705.38,595.038 2705.99,594.856C2707.45,594.421 2715.53,592.018 2725.01,594.971L2727.84,595.957L2729.38,596.61L2730.34,597.069L2731.99,597.939L2732.34,598.137L2733.85,599.076L2734.16,599.288L2736.49,601.019L2737.8,602.179L2739.65,604.153C2740.09,604.682 2740.5,605.134 2740.09,605.763L2738.8,607.1L2737.58,608.351C2737.03,608.906 2736.68,609.469 2735.93,609.228L2735.47,608.864L2734.58,607.951L2733.18,606.65C2732.88,606.388 2731.29,605.033 2729.08,603.733L2727.99,603.146L2725.53,602.028C2722.58,600.834 2719.94,600.497 2719.44,600.433C2718.45,600.307 2712.84,599.59 2707.04,601.384L2704.5,602.327C2702.16,603.363 2700.53,604.417 2700.21,604.629L2698.56,605.819L2697.09,607.053L2696.05,608.04L2694.93,609.164C2694.6,609.353 2694.4,609.363 2694.04,609.234L2693.66,608.943L2693.4,608.678L2692.81,608.068L2691.33,606.539L2690.68,605.846C2690.3,605.392 2690.44,604.898 2690.78,604.479L2691.64,603.467L2692.45,602.621L2693.13,601.957L2694.05,601.151L2695.38,600.088L2696.95,598.976ZM2703.19,610.02C2704.39,609.181 2704.32,609.306 2705.71,608.586L2707.03,608.013C2708.7,607.374 2708.62,607.399 2710.37,606.96L2712.67,606.561C2715.12,606.363 2715,606.3 2717.36,606.492C2720.89,606.78 2723.68,608.007 2724.2,608.234L2725.73,608.964C2726.03,609.119 2727.73,609.993 2729.26,611.336L2729.82,611.83L2730.43,612.418L2731.11,613.166C2731.4,613.519 2731.76,613.886 2731.62,614.387C2731.51,614.759 2730.99,615.19 2730.8,615.376L2728.45,617.753C2728.07,618.143 2727.76,618.589 2727.16,618.526C2726.66,618.473 2726.04,617.611 2725.87,617.446C2724.49,616.158 2723.33,615.481 2723.09,615.34L2722.57,615.036C2719.29,613.191 2716.32,613.103 2715.8,613.08C2713.69,612.988 2712.02,613.448 2711.71,613.535C2710.8,613.782 2710.08,614.035 2709.25,614.441L2708.36,614.892L2707.86,615.16L2706.76,615.856L2706.5,616.04L2705.03,617.264L2704.39,617.904C2704,618.315 2703.83,618.592 2703.25,618.524L2702.96,618.438L2702.38,617.923L2700.49,615.982L2699.17,614.605C2698.85,614.121 2699.17,613.68 2699.5,613.293L2700.13,612.575C2701.55,611.122 2701.51,611.23 2703.19,610.02ZM2709.95,621.154L2710.73,620.642C2711.01,620.486 2712.71,619.54 2714.53,619.365L2716.24,619.372C2717.92,619.59 2719.04,620.136 2719.27,620.246L2721.08,621.408L2721.68,621.935L2722.09,622.352C2722.46,622.749 2722.77,623.077 2722.6,623.616C2722.45,624.097 2721.37,624.994 2721.33,625.027L2720.92,625.436L2719.55,626.77L2718.83,627.474L2716.51,629.725C2716.03,630.105 2715.71,630.288 2715.12,630.236C2714.64,630.09 2714.47,629.959 2714.08,629.619L2713.12,628.697L2712.25,627.846L2708.96,624.608C2708.61,624.25 2707.9,623.804 2708.05,623.164C2708.14,622.791 2708.87,622.087 2709.02,621.94L2709.95,621.154Z" style="fill:white;"/>
                            <path id="battery" d="M2828.48,593.527C2829.52,593.527 2830.51,593.939 2831.25,594.672C2831.98,595.406 2832.39,596.401 2832.39,597.438L2832.39,626.335C2832.39,627.373 2831.98,628.368 2831.25,629.101C2830.51,629.835 2829.52,630.247 2828.48,630.247L2765.66,630.247C2764.62,630.247 2763.63,629.835 2762.89,629.101C2762.16,628.368 2761.75,627.373 2761.75,626.335L2761.75,597.438C2761.75,596.401 2762.16,595.406 2762.89,594.672C2763.63,593.939 2764.62,593.527 2765.66,593.527L2828.48,593.527ZM2828.48,595.871L2765.66,595.871C2765.24,595.871 2764.84,596.036 2764.55,596.33C2764.26,596.624 2764.09,597.023 2764.09,597.438L2764.09,626.336C2764.09,626.751 2764.26,627.15 2764.55,627.444C2764.84,627.738 2765.24,627.903 2765.66,627.903L2828.48,627.903C2828.9,627.903 2829.3,627.738 2829.59,627.444C2829.88,627.15 2830.05,626.751 2830.05,626.335L2830.05,597.438C2830.05,597.023 2829.88,596.624 2829.59,596.33C2829.3,596.036 2828.9,595.871 2828.48,595.871ZM2815.28,622.824C2815.28,623.24 2815.11,623.638 2814.82,623.932C2814.53,624.226 2814.13,624.391 2813.71,624.391L2769.17,624.391C2768.76,624.391 2768.36,624.226 2768.06,623.932C2767.77,623.638 2767.6,623.24 2767.6,622.824L2767.6,600.839C2767.6,600.423 2767.77,600.024 2768.06,599.73C2768.36,599.436 2768.76,599.271 2769.17,599.271L2813.71,599.271C2814.13,599.271 2814.53,599.436 2814.82,599.73C2815.11,600.024 2815.28,600.423 2815.28,600.839L2815.28,622.824ZM2835.27,604.074L2835.94,604.074C2836.36,604.074 2838.78,604.074 2840.8,606.087C2841.1,606.385 2842.81,608.1 2842.81,610.947L2842.81,610.951C2842.81,613.799 2841.1,615.514 2840.8,615.812C2838.78,617.825 2836.36,617.825 2835.94,617.825L2835.27,617.825L2835.27,604.074Z" style="fill:white;"/>
                        </g>
                        <path d="M1938.46,629.398L1944.72,629.398L1944.72,594.4L1938.49,594.4L1929.34,600.803L1929.34,606.818L1938.05,600.706L1938.46,600.706L1938.46,629.398Z" style="fill:white;fill-rule:nonzero;"/>
                        <path d="M1970.89,629.398L1976.88,629.398L1976.88,622.874L1981.61,622.874L1981.61,617.587L1976.88,617.587L1976.88,594.4L1968.05,594.4L1953.79,617.295L1953.79,622.874L1970.89,622.874L1970.89,629.398ZM1959.59,617.368L1970.65,599.493L1970.99,599.493L1970.99,617.732L1959.59,617.732L1959.59,617.368Z" style="fill:white;fill-rule:nonzero;"/>
                        <path d="M1988.69,621.928C1988.69,624.36 1990.35,625.954 1992.77,625.954C1995.19,625.954 1996.82,624.353 1996.82,621.928C1996.82,619.51 1995.17,617.926 1992.77,617.926C1990.37,617.926 1988.69,619.504 1988.69,621.928ZM1988.69,603.641C1988.69,606.065 1990.37,607.642 1992.77,607.642C1995.17,607.642 1996.82,606.059 1996.82,603.641C1996.82,601.215 1995.19,599.614 1992.77,599.614C1990.35,599.614 1988.69,601.209 1988.69,603.641Z" style="fill:white;fill-rule:nonzero;"/>
                        <path d="M2013.21,629.398L2019.47,629.398L2019.47,594.4L2013.24,594.4L2004.09,600.803L2004.09,606.818L2012.8,600.706L2013.21,600.706L2013.21,629.398Z" style="fill:white;fill-rule:nonzero;"/>
                        <path d="M2042.8,630.247C2049.89,630.247 2055.8,625.27 2055.8,617.95C2055.8,611.444 2050.83,606.309 2044.28,606.309C2040.44,606.309 2036.97,608.002 2035.21,611.547L2034.8,611.547C2034.8,606.452 2036.35,598.766 2042.95,598.766C2045.77,598.766 2048.24,600.254 2049.06,603.059L2055.32,603.059C2054.23,597.085 2048.84,593.527 2043,593.527C2032.61,593.527 2028.81,603.405 2028.81,612.275C2028.81,616 2029.4,620.027 2031.28,623.335C2033.64,627.871 2037.72,630.247 2042.8,630.247ZM2042.73,625.032C2038.85,625.032 2035.84,621.896 2035.84,618.047C2035.84,614.158 2038.95,611.281 2042.78,611.281C2046.67,611.281 2049.67,614.24 2049.67,618.144C2049.67,621.996 2046.57,625.032 2042.73,625.032Z" style="fill:white;fill-rule:nonzero;"/>
                    </g>
                </g>
                <path d="M1743.44,1124.84C1742.41,1125.5 1741.56,1126.19 1740.46,1126.36C1738.83,1126.61 1733.66,1126.36 1733.66,1126.36L1733.66,1009.06C1733.66,1009.06 1738.83,1009.05 1740.46,1009.31C1741.53,1009.48 1742.38,1009.9 1743.44,1010.61L1743.44,697.34C1743.44,639.03 1766.6,583.109 1807.83,541.877C1849.06,500.646 1904.98,477.482 1963.29,477.482L2765.42,477.482C2823.73,477.482 2879.65,500.646 2920.88,541.877C2962.11,583.109 2985.28,639.03 2985.28,697.34L2985.28,1288.74C2986.6,1286.12 2988.34,1283.17 2989.43,1283.17C2991.57,1283.17 2996.24,1282.51 2996.24,1282.51L2996.24,1588.81C2996.24,1588.81 2991.57,1590.41 2989.43,1588.81C2988.26,1587.94 2986.57,1585.15 2985.28,1582.81L2985.28,2845.97C2985.28,2904.28 2962.11,2960.2 2920.88,3001.43C2879.65,3042.66 2823.73,3065.83 2765.42,3065.83L1963.29,3065.83C1904.98,3065.83 1849.06,3042.66 1807.83,3001.43C1766.6,2960.2 1743.44,2904.28 1743.44,2845.97L1743.44,1651.18C1742.41,1652.25 1741.3,1653.25 1740.46,1653.64C1738.33,1654.63 1733.66,1653.64 1733.66,1653.64L1733.66,1463.08C1733.66,1463.08 1738.83,1463.07 1740.46,1463.49C1741.64,1463.79 1742.38,1464.45 1743.44,1465.6L1743.44,1405.09C1742.41,1406.16 1741.71,1407.24 1740.46,1407.55C1738.83,1407.96 1733.66,1407.55 1733.66,1407.55L1733.66,1216.99C1733.66,1216.99 1738.83,1216.98 1740.46,1217.4C1741.64,1217.7 1742.38,1218.36 1743.44,1219.51L1743.44,1124.84ZM2943.19,2845.97L2943.19,697.34C2943.19,650.193 2924.46,604.976 2891.12,571.638C2857.78,538.299 2812.57,519.57 2765.42,519.57L1963.29,519.57C1916.15,519.57 1870.93,538.299 1837.59,571.638C1804.25,604.976 1785.52,650.193 1785.52,697.34L1785.52,2845.97C1785.52,2893.11 1804.25,2938.33 1837.59,2971.67C1870.93,3005.01 1916.15,3023.74 1963.29,3023.74L2765.42,3023.74C2812.57,3023.74 2857.78,3005.01 2891.12,2971.67C2924.46,2938.33 2943.19,2893.11 2943.19,2845.97ZM2360.62,663.546L2236.04,663.546C2207.51,663.546 2184.39,640.416 2184.39,611.887C2184.39,583.358 2207.51,560.228 2236.04,560.228L2360.62,560.228L2489.52,560.231L2490.24,560.23C2518.35,560.23 2541.18,583.376 2541.18,611.887C2541.18,640.398 2518.35,663.544 2490.24,663.544L2489.52,663.543L2360.62,663.546ZM2527.65,3040.8L2582.32,3040.61L2582.23,3040.57L2527.65,3040.8ZM2201.06,3040.8L2364.36,3041.49L2527.65,3040.8L2364.36,3041.38L2201.06,3040.8ZM2201.06,3040.8L2146.49,3040.57L2146.4,3040.61L2201.06,3040.8Z"/>
            </g>
        </g>
    </g>
</svg>
