<?xml version="1.0" encoding="UTF-8" standalone="no"?>
<!DOCTYPE svg PUBLIC "-//W3C//DTD SVG 1.1//EN" "http://www.w3.org/Graphics/SVG/1.1/DTD/svg11.dtd">
<svg width="100%" height="100%" viewBox="0 0 63 12" version="1.1" xmlns="http://www.w3.org/2000/svg" xmlns:xlink="http://www.w3.org/1999/xlink" xml:space="preserve" xmlns:serif="http://www.serif.com/" style="fill-rule:evenodd;clip-rule:evenodd;stroke-linejoin:round;stroke-miterlimit:2;">
    <rect id="servicos3" x="0" y="-4.491" width="62.5" height="20.833" style="fill:none;"/>
    <clipPath id="_clip1">
        <rect x="0" y="-4.491" width="62.5" height="20.833"/>
    </clipPath>
    <g clip-path="url(#_clip1)">
        <path d="M8.54,6.468C8.54,7.259 8.255,7.883 7.685,8.338C7.116,8.794 6.324,9.022 5.308,9.022C4.373,9.022 3.546,8.846 2.827,8.494L2.827,6.768C3.418,7.032 3.919,7.217 4.328,7.325C4.738,7.433 5.113,7.487 5.452,7.487C5.86,7.487 6.173,7.409 6.39,7.253C6.608,7.098 6.717,6.866 6.717,6.558C6.717,6.386 6.669,6.233 6.573,6.099C6.477,5.966 6.336,5.837 6.151,5.713C5.965,5.589 5.586,5.391 5.015,5.119C4.479,4.868 4.078,4.626 3.81,4.394C3.542,4.162 3.328,3.892 3.168,3.585C3.008,3.277 2.929,2.917 2.929,2.506C2.929,1.73 3.191,1.121 3.717,0.677C4.242,0.234 4.969,0.012 5.896,0.012C6.351,0.012 6.786,0.066 7.2,0.174C7.613,0.282 8.046,0.434 8.498,0.629L7.898,2.074C7.431,1.882 7.044,1.748 6.738,1.672C6.432,1.597 6.132,1.559 5.836,1.559C5.484,1.559 5.215,1.641 5.027,1.804C4.839,1.968 4.745,2.182 4.745,2.446C4.745,2.61 4.783,2.753 4.859,2.874C4.935,2.996 5.056,3.114 5.222,3.228C5.387,3.342 5.78,3.547 6.399,3.843C7.219,4.234 7.78,4.627 8.084,5.02C8.388,5.414 8.54,5.897 8.54,6.468Z" style="fill-rule:nonzero;"/>
        <path d="M15.176,8.902L10.128,8.902L10.128,0.138L15.176,0.138L15.176,1.661L11.986,1.661L11.986,3.585L14.954,3.585L14.954,5.107L11.986,5.107L11.986,7.367L15.176,7.367L15.176,8.902Z" style="fill-rule:nonzero;"/>
        <path d="M18.862,4.028L19.462,4.028C20.049,4.028 20.483,3.93 20.762,3.735C21.042,3.539 21.182,3.231 21.182,2.811C21.182,2.396 21.039,2.1 20.753,1.924C20.468,1.748 20.025,1.661 19.426,1.661L18.862,1.661L18.862,4.028ZM18.862,5.539L18.862,8.902L17.004,8.902L17.004,0.138L19.558,0.138C20.748,0.138 21.63,0.355 22.201,0.788C22.773,1.222 23.058,1.88 23.058,2.764C23.058,3.279 22.917,3.738 22.633,4.139C22.349,4.541 21.947,4.856 21.428,5.083C22.747,7.054 23.606,8.326 24.006,8.902L21.943,8.902L19.851,5.539L18.862,5.539Z" style="fill-rule:nonzero;"/>
        <path d="M30.108,0.138L31.984,0.138L29.005,8.902L26.979,8.902L24.006,0.138L25.882,0.138L27.53,5.353C27.622,5.661 27.717,6.02 27.815,6.429C27.913,6.839 27.974,7.124 27.998,7.283C28.042,6.916 28.192,6.272 28.448,5.353L30.108,0.138Z" style="fill-rule:nonzero;"/>
        <rect x="33.087" y="0.138" width="1.858" height="8.764" style="fill-rule:nonzero;"/>
        <path d="M40.874,1.559C40.175,1.559 39.633,1.821 39.25,2.347C38.866,2.872 38.674,3.605 38.674,4.544C38.674,6.498 39.408,7.475 40.874,7.475C41.49,7.475 42.235,7.321 43.11,7.014L43.11,8.572C42.391,8.872 41.588,9.022 40.7,9.022C39.426,9.022 38.45,8.635 37.775,7.862C37.1,7.089 36.762,5.979 36.762,4.532C36.762,3.621 36.928,2.822 37.26,2.137C37.591,1.452 38.068,0.926 38.689,0.56C39.311,0.195 40.039,0.012 40.874,0.012C41.726,0.012 42.581,0.218 43.44,0.629L42.841,2.14C42.513,1.984 42.183,1.848 41.851,1.732C41.52,1.617 41.194,1.559 40.874,1.559ZM41.797,10.401C41.797,10.912 41.647,11.282 41.345,11.51C41.043,11.737 40.577,11.851 39.945,11.851C39.633,11.851 39.342,11.809 39.07,11.725L39.07,10.718C39.178,10.746 39.323,10.774 39.505,10.802C39.686,10.83 39.827,10.844 39.927,10.844C40.215,10.844 40.359,10.72 40.359,10.473C40.359,10.141 40.027,9.925 39.364,9.825L39.831,8.902L40.988,8.902L40.826,9.268C41.122,9.364 41.358,9.512 41.534,9.714C41.71,9.916 41.797,10.145 41.797,10.401Z" style="fill-rule:nonzero;"/>
        <path d="M52.684,4.508C52.684,5.959 52.324,7.074 51.605,7.853C50.885,8.632 49.854,9.022 48.511,9.022C47.169,9.022 46.138,8.632 45.418,7.853C44.699,7.074 44.339,5.955 44.339,4.496C44.339,3.037 44.7,1.923 45.421,1.154C46.143,0.385 47.177,-0 48.523,-0C49.87,-0 50.9,0.388 51.614,1.163C52.327,1.938 52.684,3.053 52.684,4.508ZM46.287,4.508C46.287,5.487 46.473,6.224 46.845,6.72C47.217,7.215 47.772,7.463 48.511,7.463C49.994,7.463 50.735,6.478 50.735,4.508C50.735,2.534 49.998,1.547 48.523,1.547C47.784,1.547 47.227,1.795 46.851,2.293C46.475,2.79 46.287,3.529 46.287,4.508Z" style="fill-rule:nonzero;"/>
        <path d="M59.673,6.468C59.673,7.259 59.389,7.883 58.819,8.338C58.25,8.794 57.457,9.022 56.442,9.022C55.507,9.022 54.68,8.846 53.96,8.494L53.96,6.768C54.552,7.032 55.053,7.217 55.462,7.325C55.872,7.433 56.246,7.487 56.586,7.487C56.994,7.487 57.306,7.409 57.524,7.253C57.742,7.098 57.851,6.866 57.851,6.558C57.851,6.386 57.803,6.233 57.707,6.099C57.611,5.966 57.47,5.837 57.284,5.713C57.099,5.589 56.72,5.391 56.149,5.119C55.613,4.868 55.211,4.626 54.944,4.394C54.676,4.162 54.462,3.892 54.302,3.585C54.142,3.277 54.062,2.917 54.062,2.506C54.062,1.73 54.325,1.121 54.851,0.677C55.376,0.234 56.103,0.012 57.03,0.012C57.485,0.012 57.92,0.066 58.334,0.174C58.747,0.282 59.18,0.434 59.631,0.629L59.032,2.074C58.564,1.882 58.178,1.748 57.872,1.672C57.566,1.597 57.266,1.559 56.97,1.559C56.618,1.559 56.348,1.641 56.161,1.804C55.973,1.968 55.879,2.182 55.879,2.446C55.879,2.61 55.917,2.753 55.993,2.874C56.069,2.996 56.189,3.114 56.355,3.228C56.521,3.342 56.914,3.547 57.533,3.843C58.353,4.234 58.914,4.627 59.218,5.02C59.521,5.414 59.673,5.897 59.673,6.468Z" style="fill-rule:nonzero;"/>
        <rect x="0" y="3.561" width="62.5" height="1.779"/>
    </g>
</svg>
