<?xml version="1.0" encoding="UTF-8" standalone="no"?>
<!DOCTYPE svg PUBLIC "-//W3C//DTD SVG 1.1//EN" "http://www.w3.org/Graphics/SVG/1.1/DTD/svg11.dtd">
<svg width="100%" height="100%" viewBox="0 0 59 13" version="1.1" xmlns="http://www.w3.org/2000/svg" xmlns:xlink="http://www.w3.org/1999/xlink" xml:space="preserve" xmlns:serif="http://www.serif.com/" style="fill-rule:evenodd;clip-rule:evenodd;stroke-linejoin:round;stroke-miterlimit:2;">
    <rect id="servicos1" x="0" y="-4.267" width="62.5" height="20.833" style="fill:none;"/>
    <path d="M5.813,6.763C5.813,7.658 5.496,8.366 4.862,8.886C4.228,9.406 3.37,9.666 2.287,9.666C1.34,9.666 0.578,9.474 0,9.088L0,7.328C0.826,7.791 1.593,8.022 2.299,8.022C2.779,8.022 3.154,7.931 3.423,7.749C3.693,7.567 3.828,7.318 3.828,7.001C3.828,6.817 3.799,6.655 3.741,6.516C3.683,6.377 3.601,6.247 3.494,6.127C3.387,6.007 3.121,5.789 2.698,5.472C2.107,5.048 1.691,4.629 1.452,4.213C1.212,3.798 1.092,3.351 1.092,2.871C1.092,2.319 1.225,1.825 1.49,1.391C1.756,0.956 2.133,0.618 2.624,0.376C3.114,0.134 3.678,0.013 4.316,0.013C5.245,0.013 6.095,0.225 6.866,0.649L6.166,2.145C5.498,1.828 4.881,1.67 4.316,1.67C3.961,1.67 3.67,1.766 3.443,1.959C3.216,2.152 3.102,2.406 3.102,2.723C3.102,2.984 3.173,3.212 3.314,3.407C3.455,3.602 3.772,3.86 4.265,4.181C4.783,4.524 5.17,4.902 5.427,5.315C5.684,5.728 5.813,6.211 5.813,6.763Z" style="fill-rule:nonzero;"/>
    <path d="M12.293,9.538L7.046,9.538L9.03,0.148L14.284,0.148L13.937,1.779L10.649,1.779L10.219,3.841L13.282,3.841L12.929,5.472L9.865,5.472L9.352,7.894L12.64,7.894L12.293,9.538Z" style="fill-rule:nonzero;"/>
    <path d="M17.239,4.316L17.74,4.316C18.301,4.316 18.737,4.194 19.05,3.95C19.363,3.706 19.519,3.333 19.519,2.832C19.519,2.481 19.417,2.218 19.214,2.042C19.01,1.867 18.69,1.779 18.254,1.779L17.778,1.779L17.239,4.316ZM16.898,5.935L16.134,9.538L14.175,9.538L16.16,0.148L18.465,0.148C19.48,0.148 20.242,0.366 20.752,0.803C21.262,1.24 21.516,1.88 21.516,2.723C21.516,3.4 21.339,3.981 20.983,4.467C20.628,4.953 20.116,5.314 19.448,5.549L21.124,9.538L18.992,9.538L17.663,5.935L16.898,5.935Z" style="fill-rule:nonzero;"/>
    <path d="M25.28,7.617C25.614,6.671 25.85,6.065 25.987,5.8L28.761,0.148L30.791,0.148L25.987,9.538L23.841,9.538L23.026,0.148L24.92,0.148L25.248,5.8C25.265,5.992 25.274,6.277 25.274,6.654C25.265,7.095 25.252,7.416 25.235,7.617L25.28,7.617Z" style="fill-rule:nonzero;"/>
    <path d="M29.943,9.538L31.947,0.148L33.906,0.148L31.902,9.538L29.943,9.538Z" style="fill-rule:nonzero;"/>
    <path d="M39.648,1.657C39.083,1.657 38.574,1.83 38.122,2.177C37.671,2.524 37.308,3.035 37.034,3.709C36.76,4.384 36.623,5.108 36.623,5.883C36.623,6.598 36.769,7.129 37.063,7.476C37.356,7.823 37.824,7.996 38.466,7.996C39.091,7.996 39.815,7.832 40.637,7.502L40.637,9.172C39.785,9.501 38.928,9.666 38.068,9.666C36.98,9.666 36.135,9.346 35.531,8.706C34.927,8.066 34.625,7.159 34.625,5.986C34.625,4.864 34.848,3.831 35.293,2.887C35.738,1.943 36.334,1.226 37.079,0.735C37.824,0.245 38.68,-0 39.648,-0C40.183,-0 40.658,0.048 41.074,0.145C41.489,0.241 41.934,0.417 42.41,0.674L41.652,2.28C41.198,2.027 40.823,1.86 40.528,1.779C40.232,1.698 39.939,1.657 39.648,1.657ZM39.134,11.144C39.134,11.64 38.956,12.023 38.601,12.293C38.245,12.563 37.744,12.698 37.098,12.698C36.73,12.698 36.404,12.649 36.122,12.55L36.122,11.471C36.391,11.57 36.659,11.619 36.925,11.619C37.361,11.619 37.58,11.443 37.58,11.092C37.58,10.947 37.513,10.826 37.381,10.729C37.248,10.633 37.012,10.565 36.674,10.527L37.291,9.538L38.479,9.538L38.228,10C38.832,10.21 39.134,10.591 39.134,11.144Z" style="fill-rule:nonzero;"/>
    <path d="M50.817,3.513C50.817,4.725 50.605,5.809 50.181,6.766C49.757,7.723 49.177,8.446 48.441,8.934C47.704,9.422 46.856,9.666 45.897,9.666C44.801,9.666 43.946,9.35 43.331,8.719C42.717,8.087 42.41,7.211 42.41,6.089C42.41,4.954 42.622,3.91 43.045,2.958C43.469,2.005 44.054,1.274 44.799,0.764C45.544,0.255 46.405,-0 47.381,-0C48.473,-0 49.318,0.308 49.918,0.925C50.517,1.541 50.817,2.404 50.817,3.513ZM47.22,1.657C46.702,1.657 46.227,1.853 45.794,2.245C45.362,2.637 45.023,3.175 44.776,3.86C44.53,4.545 44.407,5.288 44.407,6.089C44.407,6.718 44.549,7.194 44.834,7.515C45.119,7.836 45.52,7.996 46.038,7.996C46.557,7.996 47.029,7.81 47.455,7.438C47.881,7.065 48.214,6.538 48.453,5.858C48.693,5.177 48.813,4.412 48.813,3.565C48.813,2.957 48.674,2.487 48.396,2.155C48.117,1.823 47.725,1.657 47.22,1.657Z" style="fill-rule:nonzero;"/>
    <path d="M57.298,6.763C57.298,7.658 56.981,8.366 56.347,8.886C55.713,9.406 54.855,9.666 53.771,9.666C52.825,9.666 52.063,9.474 51.485,9.088L51.485,7.328C52.311,7.791 53.078,8.022 53.784,8.022C54.264,8.022 54.639,7.931 54.908,7.749C55.178,7.567 55.313,7.318 55.313,7.001C55.313,6.817 55.284,6.655 55.226,6.516C55.168,6.377 55.086,6.247 54.979,6.127C54.872,6.007 54.606,5.789 54.183,5.472C53.592,5.048 53.176,4.629 52.936,4.213C52.697,3.798 52.577,3.351 52.577,2.871C52.577,2.319 52.71,1.825 52.975,1.391C53.241,0.956 53.618,0.618 54.109,0.376C54.599,0.134 55.163,0.013 55.801,0.013C56.73,0.013 57.58,0.225 58.351,0.649L57.651,2.145C56.983,1.828 56.366,1.67 55.801,1.67C55.446,1.67 55.154,1.766 54.928,1.959C54.701,2.152 54.587,2.406 54.587,2.723C54.587,2.984 54.658,3.212 54.799,3.407C54.94,3.602 55.257,3.86 55.75,4.181C56.268,4.524 56.655,4.902 56.912,5.315C57.169,5.728 57.298,6.211 57.298,6.763Z" style="fill-rule:nonzero;"/>
</svg>
