<?xml version="1.0" encoding="UTF-8" standalone="no"?>
<!DOCTYPE svg PUBLIC "-//W3C//DTD SVG 1.1//EN" "http://www.w3.org/Graphics/SVG/1.1/DTD/svg11.dtd">
<svg width="100%" height="100%" viewBox="0 0 61 13" version="1.1" xmlns="http://www.w3.org/2000/svg" xmlns:xlink="http://www.w3.org/1999/xlink" xml:space="preserve" xmlns:serif="http://www.serif.com/" style="fill-rule:evenodd;clip-rule:evenodd;stroke-linejoin:round;stroke-miterlimit:2;">
    <rect id="servicos2" x="-0" y="-4.068" width="62.5" height="20.833" style="fill:none;"/>
    <path d="M6.121,6.93C6.121,7.778 5.816,8.446 5.206,8.934C4.595,9.422 3.747,9.666 2.659,9.666C1.657,9.666 0.771,9.478 -0,9.101L-0,7.251C0.634,7.534 1.17,7.733 1.609,7.849C2.048,7.964 2.449,8.022 2.813,8.022C3.25,8.022 3.585,7.939 3.818,7.772C4.052,7.605 4.168,7.356 4.168,7.027C4.168,6.842 4.117,6.679 4.014,6.535C3.911,6.392 3.761,6.254 3.561,6.121C3.362,5.988 2.957,5.776 2.344,5.485C1.771,5.215 1.34,4.956 1.053,4.708C0.766,4.46 0.537,4.171 0.366,3.841C0.195,3.511 0.109,3.126 0.109,2.685C0.109,1.854 0.391,1.201 0.954,0.726C1.517,0.25 2.295,0.013 3.288,0.013C3.777,0.013 4.242,0.071 4.685,0.186C5.129,0.302 5.592,0.465 6.076,0.674L5.434,2.222C4.933,2.017 4.518,1.873 4.191,1.792C3.863,1.711 3.541,1.67 3.224,1.67C2.847,1.67 2.558,1.758 2.357,1.933C2.156,2.109 2.055,2.338 2.055,2.62C2.055,2.796 2.096,2.949 2.177,3.08C2.259,3.21 2.388,3.337 2.566,3.459C2.744,3.581 3.164,3.8 3.828,4.117C4.706,4.537 5.307,4.957 5.633,5.379C5.958,5.801 6.121,6.318 6.121,6.93Z" style="fill-rule:nonzero;"/>
    <path d="M13.231,9.538L7.823,9.538L7.823,0.148L13.231,0.148L13.231,1.779L9.814,1.779L9.814,3.841L12.993,3.841L12.993,5.472L9.814,5.472L9.814,7.894L13.231,7.894L13.231,9.538Z" style="fill-rule:nonzero;"/>
    <path d="M17.181,4.316L17.823,4.316C18.453,4.316 18.917,4.211 19.217,4.001C19.517,3.792 19.667,3.462 19.667,3.012C19.667,2.567 19.513,2.25 19.207,2.062C18.901,1.873 18.427,1.779 17.785,1.779L17.181,1.779L17.181,4.316ZM17.181,5.935L17.181,9.538L15.19,9.538L15.19,0.148L17.926,0.148C19.202,0.148 20.146,0.38 20.758,0.845C21.371,1.309 21.677,2.015 21.677,2.961C21.677,3.513 21.525,4.005 21.221,4.435C20.917,4.865 20.487,5.202 19.93,5.447C21.343,7.557 22.263,8.921 22.692,9.538L20.482,9.538L18.241,5.935L17.181,5.935Z" style="fill-rule:nonzero;"/>
    <path d="M29.23,0.148L31.24,0.148L28.048,9.538L25.877,9.538L22.692,0.148L24.702,0.148L26.468,5.736C26.567,6.065 26.668,6.45 26.773,6.888C26.878,7.327 26.944,7.632 26.969,7.804C27.016,7.41 27.177,6.72 27.451,5.736L29.23,0.148Z" style="fill-rule:nonzero;"/>
    <rect x="32.422" y="0.148" width="1.991" height="9.39" style="fill-rule:nonzero;"/>
    <path d="M40.765,1.67C40.016,1.67 39.436,1.951 39.025,2.515C38.614,3.078 38.408,3.862 38.408,4.868C38.408,6.962 39.194,8.009 40.765,8.009C41.425,8.009 42.223,7.844 43.161,7.515L43.161,9.185C42.39,9.506 41.53,9.666 40.579,9.666C39.213,9.666 38.168,9.252 37.445,8.423C36.721,7.595 36.359,6.406 36.359,4.856C36.359,3.879 36.537,3.024 36.892,2.29C37.248,1.555 37.758,0.992 38.424,0.601C39.09,0.209 39.87,0.013 40.765,0.013C41.677,0.013 42.594,0.233 43.514,0.674L42.872,2.293C42.521,2.126 42.168,1.98 41.812,1.856C41.457,1.732 41.108,1.67 40.765,1.67ZM41.754,11.144C41.754,11.692 41.593,12.088 41.27,12.332C40.946,12.576 40.446,12.698 39.77,12.698C39.436,12.698 39.123,12.653 38.832,12.563L38.832,11.484C38.948,11.514 39.103,11.544 39.298,11.574C39.493,11.604 39.643,11.619 39.751,11.619C40.059,11.619 40.213,11.486 40.213,11.221C40.213,10.865 39.858,10.634 39.147,10.527L39.648,9.538L40.887,9.538L40.714,9.93C41.031,10.032 41.283,10.192 41.472,10.408C41.66,10.624 41.754,10.869 41.754,11.144Z" style="fill-rule:nonzero;"/>
    <path d="M53.418,4.83C53.418,6.384 53.033,7.579 52.262,8.414C51.491,9.249 50.387,9.666 48.948,9.666C47.509,9.666 46.405,9.249 45.634,8.414C44.863,7.579 44.478,6.38 44.478,4.817C44.478,3.254 44.864,2.061 45.637,1.236C46.41,0.412 47.518,-0 48.961,-0C50.404,-0 51.507,0.415 52.272,1.246C53.036,2.077 53.418,3.271 53.418,4.83ZM46.565,4.83C46.565,5.879 46.764,6.669 47.162,7.2C47.561,7.731 48.156,7.996 48.948,7.996C50.537,7.996 51.331,6.941 51.331,4.83C51.331,2.715 50.541,1.657 48.961,1.657C48.169,1.657 47.571,1.924 47.169,2.457C46.766,2.99 46.565,3.781 46.565,4.83Z" style="fill-rule:nonzero;"/>
    <path d="M60.907,6.93C60.907,7.778 60.602,8.446 59.992,8.934C59.382,9.422 58.533,9.666 57.445,9.666C56.443,9.666 55.557,9.478 54.786,9.101L54.786,7.251C55.42,7.534 55.956,7.733 56.395,7.849C56.834,7.964 57.235,8.022 57.599,8.022C58.036,8.022 58.371,7.939 58.605,7.772C58.838,7.605 58.955,7.356 58.955,7.027C58.955,6.842 58.903,6.679 58.8,6.535C58.698,6.392 58.547,6.254 58.348,6.121C58.149,5.988 57.743,5.776 57.131,5.485C56.557,5.215 56.126,4.956 55.84,4.708C55.553,4.46 55.324,4.171 55.152,3.841C54.981,3.511 54.895,3.126 54.895,2.685C54.895,1.854 55.177,1.201 55.74,0.726C56.303,0.25 57.081,0.013 58.075,0.013C58.563,0.013 59.028,0.071 59.472,0.186C59.915,0.302 60.378,0.465 60.862,0.674L60.22,2.222C59.719,2.017 59.305,1.873 58.977,1.792C58.65,1.711 58.327,1.67 58.01,1.67C57.634,1.67 57.345,1.758 57.143,1.933C56.942,2.109 56.842,2.338 56.842,2.62C56.842,2.796 56.882,2.949 56.964,3.08C57.045,3.21 57.174,3.337 57.352,3.459C57.53,3.581 57.951,3.8 58.614,4.117C59.492,4.537 60.094,4.957 60.419,5.379C60.744,5.801 60.907,6.318 60.907,6.93Z" style="fill-rule:nonzero;"/>
</svg>
