<?xml version="1.0" encoding="UTF-8" standalone="no"?>
<!DOCTYPE svg PUBLIC "-//W3C//DTD SVG 1.1//EN" "http://www.w3.org/Graphics/SVG/1.1/DTD/svg11.dtd">
<svg width="100%" height="100%" viewBox="0 0 945 1182" version="1.1" xmlns="http://www.w3.org/2000/svg" xmlns:xlink="http://www.w3.org/1999/xlink" xml:space="preserve" xmlns:serif="http://www.serif.com/" style="fill-rule:evenodd;clip-rule:evenodd;stroke-linejoin:round;stroke-miterlimit:2;">
    <g transform="matrix(1,0,0,1,-1064.69,-1406.58)">
        <g id="site_poodle" transform="matrix(0.26936,0,0,0.47619,1064.69,1406.58)">
            <rect x="0" y="0" width="3507.87" height="2480.32" style="fill:rgb(172,148,143);"/>
            <g id="poodle" transform="matrix(-3.7125,0,0,3.04563,15264.2,-1117.53)">
                <g transform="matrix(-1,0,0,0.689512,5176.27,-602.928)">
                    <path d="M1759.83,2587.68L1247.16,2587.68C1252.82,2565.97 1269.83,2525.41 1296.52,2478.39C1311.75,2451.54 1334.14,2426.19 1346.91,2405.26C1343.22,2404.08 1339.87,2402.61 1336.93,2401.04C1333.41,2411.16 1314.56,2418.2 1306.78,2413.31C1287.92,2401.46 1285.05,2379.94 1283.72,2355.26C1269.98,2357.73 1258.28,2349.38 1258.5,2334.06C1251.54,2335.86 1233.16,2329.2 1229.82,2298.99C1227.41,2277.16 1220.16,2282.26 1214.37,2261.24C1214.22,2260.7 1213.92,2258.18 1213.59,2255.86C1211.62,2257.91 1210.26,2258.73 1209.22,2264.71C1205.87,2283.98 1187.58,2278.76 1189.99,2261.24C1194.23,2230.43 1207.21,2219.26 1207.04,2214.96C1206.86,2210.16 1199.53,2195.02 1217.35,2159.91C1210.74,2157.22 1201.1,2142.64 1214.37,2128.53C1234.81,2106.78 1232.88,2108.65 1248.71,2083.87C1244.06,2071.07 1244.61,2053.64 1253.53,2042.98C1237.53,2035.23 1240.11,2005.03 1250.08,2007.95C1255.15,2009.44 1265.57,2022.37 1275,2010.75C1284.54,1998.97 1291.2,1995.36 1295.96,1984.89C1302.05,1971.52 1302.36,1946.95 1302.36,1946.95C1299,1947.42 1256.15,1924.84 1276.94,1903.65C1261.12,1902.37 1259.79,1882.79 1269.12,1871.07C1271.76,1867.77 1267.53,1859.77 1275.11,1846.87C1253.83,1830.16 1284.74,1778.3 1312.18,1774.6C1301.52,1759.58 1306.32,1732.09 1338.04,1749.02C1343.09,1751.71 1337.98,1745.21 1335.95,1739.92C1328.87,1721.53 1335.98,1713.72 1343.11,1699.53C1333.04,1677.35 1348.55,1650.63 1390.85,1658.88C1388.68,1654.38 1377.59,1642.62 1392.84,1639.77C1402.1,1638.03 1430.54,1640.56 1447.59,1633.76C1464.67,1626.94 1473.43,1599.12 1492.71,1595.08C1514.52,1590.51 1557.97,1606.99 1578.41,1606.34C1592.13,1605.91 1593.39,1597.91 1617.97,1594.97C1631.88,1593.31 1637.03,1597.08 1640.95,1607.43C1643.74,1614.78 1643.9,1624.03 1640.73,1633.67C1645.21,1633.36 1691.8,1619.26 1711.21,1659C1718.79,1674.53 1759.83,1645.33 1758.73,1692.95C1758.71,1693.81 1759.28,1698.34 1769.44,1691.57C1781.84,1683.3 1784.82,1717.04 1784.58,1717.51C1829.79,1760.01 1814.45,1783.53 1813.3,1803.29C1813.25,1804.11 1872.58,1834.04 1839.41,1881.41C1833.86,1889.35 1821.16,1888.16 1825.37,1898.53C1833.63,1918.9 1821.67,1927 1813.36,1931.77C1816.31,1942.44 1809.11,1945.79 1807.09,1952.82C1798.09,1984.09 1837.79,2022.23 1831.73,2040.01C1813.24,2094.23 1855.36,2082.7 1858.89,2109.47C1861.32,2127.89 1855.19,2130.89 1869.47,2143.94C1891.66,2164.23 1891.46,2259.09 1853.96,2220.98C1853.24,2220.25 1852.88,2217.93 1852.49,2215.33C1848.34,2222.41 1845.19,2227.72 1850.14,2232.67C1860.81,2243.34 1844.12,2249.14 1859.46,2279.31C1867.82,2295.76 1859.99,2310.6 1855.03,2317.38C1866.66,2340.43 1888.63,2365.62 1882.74,2375.88C1880.21,2380.26 1857.45,2391.64 1858.52,2412.01C1858.93,2419.86 1859.4,2426.76 1852.1,2423.56C1843.95,2419.99 1840.51,2414.33 1834.75,2416.68C1827.77,2419.53 1815.58,2438.16 1810.21,2440.66C1806.63,2442.32 1803.49,2433.69 1802.52,2431.68C1792.49,2444.79 1787.24,2453.35 1779.64,2435.97C1777.61,2431.32 1776.11,2426.14 1775.03,2420.74C1767.23,2429.91 1762.78,2438.8 1757.37,2437.01C1752.38,2435.36 1749.02,2429.75 1747.04,2423.3C1731.46,2434.42 1707.68,2431.44 1699.93,2410.07C1698.57,2411.11 1697.17,2412.12 1696.05,2413.31C1734.17,2485.35 1771.32,2549.78 1761.04,2584.27C1761.05,2585.39 1760.65,2586.53 1759.83,2587.68Z" style="fill:white;"/>
                </g>
                <g id="linhas" transform="matrix(1,0,0,0.689512,-938.63,365.904)">
                    <path d="M4443.72,1182.59L4423.16,1182.59C4413.24,1159.77 4391.21,1121.81 4406.43,1065.46C4374.82,1133.12 4373.63,1162.23 4370.99,1182.59L4355.07,1182.59C4341.06,1149.05 4379.43,1082.7 4418.85,1008.21C4417.72,1007.02 4416.33,1006.01 4414.97,1004.98C4407.21,1026.34 4383.43,1029.32 4367.86,1018.2C4365.88,1024.65 4362.52,1030.26 4357.53,1031.91C4352.12,1033.7 4347.67,1024.81 4339.87,1015.64C4338.78,1021.04 4337.29,1026.22 4335.26,1030.87C4327.66,1048.25 4322.41,1039.69 4312.38,1026.58C4311.41,1028.59 4308.26,1037.22 4304.69,1035.56C4299.32,1033.06 4287.13,1014.43 4280.15,1011.58C4274.39,1009.23 4270.95,1014.89 4262.8,1018.46C4255.5,1021.66 4255.97,1014.76 4256.38,1006.92C4257.45,986.54 4234.68,975.163 4232.16,970.778C4226.26,960.523 4248.24,935.335 4259.87,912.279C4254.91,905.496 4247.07,890.657 4255.44,874.213C4270.78,844.042 4254.09,838.24 4264.76,827.567C4269.71,822.617 4266.56,817.314 4262.41,810.231C4262.02,812.832 4261.66,815.148 4260.94,815.881C4223.44,853.991 4223.23,759.127 4245.43,738.843C4259.71,725.795 4253.57,722.791 4256.01,704.368C4259.54,677.596 4301.65,689.134 4283.17,634.914C4277.11,617.129 4316.81,578.99 4307.81,547.723C4305.79,540.687 4298.59,537.345 4301.54,526.675C4293.23,521.897 4281.27,513.805 4289.53,493.434C4293.74,483.062 4281.04,484.251 4275.48,476.316C4242.32,428.94 4301.65,399.011 4301.6,398.189C4300.45,378.43 4285.11,354.907 4330.31,312.411C4330.08,311.945 4333.06,278.196 4345.46,286.466C4355.62,293.237 4356.19,288.712 4356.17,287.849C4355.07,240.23 4396.11,269.431 4403.69,253.902C4423.1,214.165 4469.69,228.265 4474.16,228.571C4470.99,218.935 4471.15,209.677 4473.94,202.327C4477.87,191.982 4483.02,188.211 4496.92,189.873C4521.51,192.813 4522.77,200.808 4536.48,201.242C4556.93,201.89 4600.38,185.413 4622.18,189.982C4641.47,194.023 4650.23,221.839 4667.31,228.657C4684.36,235.464 4712.8,232.93 4722.06,234.666C4737.31,237.526 4726.22,249.279 4724.04,253.779C4766.35,245.532 4781.86,272.249 4771.78,294.434C4778.92,308.624 4786.02,316.426 4778.95,334.82C4776.91,340.112 4771.81,346.615 4776.86,343.919C4808.57,326.987 4813.38,354.484 4802.72,369.501C4830.16,373.199 4861.07,425.06 4839.79,441.774C4847.37,454.669 4843.14,462.667 4845.77,465.975C4855.11,477.69 4853.78,497.267 4837.96,498.553C4858.74,519.745 4815.9,542.318 4812.54,541.856C4812.54,541.856 4812.85,566.421 4818.94,579.792C4823.7,590.257 4830.35,593.873 4839.9,605.646C4849.33,617.272 4859.74,604.339 4864.82,602.851C4874.79,599.928 4877.36,630.134 4861.37,637.877C4870.29,648.538 4870.84,665.972 4866.19,678.77C4882.02,703.555 4880.09,701.684 4900.53,723.429C4913.8,737.544 4904.16,752.121 4897.55,754.808C4915.36,789.921 4908.04,805.057 4907.85,809.859C4907.68,814.164 4920.67,825.327 4924.91,856.14C4927.32,873.656 4909.03,878.879 4905.68,859.609C4904.64,853.632 4903.28,852.815 4901.31,850.763C4900.97,853.076 4900.68,855.596 4900.53,856.138C4894.73,877.165 4887.49,872.057 4885.07,893.895C4881.74,924.098 4863.35,930.755 4856.4,928.961C4856.61,944.276 4844.91,952.627 4831.18,950.166C4829.85,974.837 4826.98,996.365 4808.12,1008.21C4800.34,1013.1 4781.49,1006.07 4777.96,995.941C4775.03,997.511 4771.68,998.982 4767.99,1000.17C4780.76,1021.09 4803.15,1046.44 4818.38,1073.29C4845.07,1120.32 4862.08,1160.87 4867.73,1182.59L4851.23,1182.59C4822,1141.64 4835.18,1121.97 4754.73,1003.11C4744,1004.32 4735.13,1004.8 4722.06,997.193C4721.41,996.812 4720.78,996.392 4720.18,995.941C4716.16,1002.48 4698.27,1014.28 4681.78,1004.98C4668.62,997.552 4647.08,1028.84 4628.13,1025.38C4619.33,1023.77 4622.9,1009.99 4617.25,1000.17C4612.39,991.72 4594.54,987.687 4591.3,978.326C4587.94,968.624 4587.44,963.21 4589.48,957.919C4578.23,956.234 4562.91,943.353 4575.33,918.6C4575.85,917.564 4582.27,911.383 4584.88,907.392C4576.62,872.763 4575.65,871.317 4585.66,855.655C4608.15,820.484 4562.35,798.252 4585.72,761.023C4589.17,755.524 4587.95,745.142 4588,737.266C4577.77,745.118 4553.35,750.416 4550.54,750.727C4535.24,765.119 4508.51,770.258 4499.85,773.787C4512.74,810.299 4495.97,909.594 4465.49,953.382C4450.8,974.495 4442.47,995.318 4432.29,1013.87C4411.52,1102.5 4424.92,1128.41 4428.28,1138.88C4434.28,1157.6 4443.77,1173.09 4443.72,1182.59ZM4549.87,1182.59C4550.2,1101.37 4549.35,1098.67 4561.79,1057.1C4576.45,1035.21 4567.17,1082.36 4566.95,1084.63C4561.99,1136.08 4574.79,1137.66 4571.49,1182.59L4549.87,1182.59ZM4433.17,507.38C4431.58,507.073 4429.07,507.44 4427.7,509.024C4424.8,512.381 4424.52,517.425 4430.03,518.856C4433.63,519.792 4440.27,516.478 4437.23,510.867C4437.1,510.625 4434.76,507.688 4433.17,507.38ZM4649.5,528.663C4643.31,521.221 4633.19,491.67 4630.23,487.39C4610.1,458.289 4573.62,482.36 4559.08,482.831C4545.03,483.286 4535.45,469.655 4534.77,468.554C4536.24,512.369 4493.55,466.392 4490.74,461.53C4480.09,469.975 4450.55,453.681 4452.21,467.405C4453.9,481.38 4445.76,484.345 4437.34,487.832C4451.04,491.095 4449.33,506.548 4448.11,513.269C4446.82,520.41 4435.57,540.084 4417.29,532.348C4411.15,529.748 4401.71,522.447 4411.61,508.907C4415.52,503.566 4428.43,494.3 4441.61,500.915C4435.89,488.444 4419.13,496.609 4418.18,497.585C4406.55,509.617 4397.91,515.099 4408.17,548.339C4419.41,584.764 4421.2,592.215 4422.16,602.851C4429.53,589.072 4437.38,579.629 4438.32,558.674C4438.82,547.371 4452.53,568.467 4446.93,579.792C4446.76,580.146 4418.85,623.009 4418.18,644.036C4425.2,636.457 4443.98,630.825 4456.99,630.926C4473.15,631.05 4490.5,636.941 4492.89,637.877C4498.27,639.985 4528.59,653.857 4508.33,693.704C4490.87,728.024 4413.92,730.546 4409.19,682.844C4402.37,705.267 4407.9,700.346 4412.98,713.674C4418.41,727.937 4414.99,729.577 4422.43,735.324C4427.66,739.369 4437.9,736.277 4455.24,730.264C4470.3,725.04 4511.73,733.307 4535.39,733.877C4557.33,734.405 4578.53,728.75 4586.45,723.1C4586.78,708.952 4586.76,700.359 4592.64,685.451C4586.88,671.801 4579.91,669.073 4575.33,662.985C4571.09,657.347 4579.13,658.294 4581.07,658.752C4583.31,659.284 4593.01,661.866 4598.44,672.855C4602.87,663.681 4607.42,658.775 4616.1,652.056C4614.76,644.783 4611.82,628.347 4624.27,620.738C4667.91,594.065 4639.06,558.325 4637.87,554.636C4635.72,547.931 4645.14,535.416 4649.5,528.663ZM4583.27,503.515C4592,494.776 4607.78,477.518 4630.69,511.565C4634.62,517.406 4630.83,520.191 4624.8,523.626C4622.91,524.708 4607.83,531.993 4596.14,530.032C4584.84,528.138 4582.63,526.884 4575.33,517.86C4575.82,516.92 4574.86,492.876 4583.08,484.29C4595.84,470.982 4634.3,485.877 4629.4,495.98C4626.94,501.059 4597.57,471.787 4583.94,499.426C4582.99,501.348 4582.51,504.275 4583.27,503.515ZM4614.92,520.836C4618.4,519.897 4632.5,515.429 4621.86,507.184C4621.87,507.218 4621.88,507.252 4621.89,507.285C4623.02,512.09 4619.63,517.334 4614.92,520.836ZM4601.52,502.999C4600.28,503.48 4596.84,505.854 4597.27,509.133C4598.85,521.222 4611.51,514.802 4611.59,509.161C4611.71,501.879 4605.98,501.272 4601.52,502.999ZM4597.02,523.268C4592.76,521.805 4588.28,518.446 4587.13,505.565C4584.81,508.562 4583.45,511.628 4580.43,516.361C4584.67,521.277 4590.99,522.982 4597.02,523.268ZM4408.42,527.091C4409.97,531.47 4414.71,544.359 4435.14,534.942C4441.61,531.959 4427.7,554.001 4413.57,543.736C4403.33,536.296 4407.51,526.906 4408.42,527.091ZM4584.15,530.435C4586.18,531.321 4603.8,536.434 4612.24,534.56C4613.08,534.373 4620.4,534.056 4623.53,530.902C4627.11,527.3 4630.04,522.553 4632.56,523.228C4639,555.975 4580.89,539.881 4584.15,530.435ZM4552.36,617.462C4550.18,614.661 4532.61,603.798 4536.48,578.243C4540.46,552.053 4547.13,521.014 4548.57,547.507C4548.81,551.951 4548.33,578.477 4548.57,583.837C4549.52,605.122 4560.16,622.381 4552.36,617.462ZM4891.05,743.025C4894.13,735.221 4890.96,730.235 4882.62,720.568C4865.47,700.676 4872.72,702.79 4855.16,683.826C4849.19,677.376 4860.88,663.441 4849.06,644.036C4843.21,645.183 4836.46,640.045 4827.12,633.481C4808.55,620.431 4853.24,647.901 4863.14,617.889C4865.43,610.963 4853.19,628.467 4840.77,623.352C4835.83,621.317 4827.56,609.216 4820.4,603.222C4812.7,596.771 4801.64,591.866 4798.9,585.222C4797.56,581.951 4809.71,544.828 4790.85,528.228C4789.28,529.304 4788.87,528.886 4786.92,532.348C4783.51,538.429 4767.25,537.921 4763.01,544.482C4749.5,565.42 4747.56,573.283 4724.62,559.431C4721.17,557.347 4716.39,554.65 4716.59,557.456C4716.9,561.708 4718.8,573.179 4719.29,585.222C4719.93,600.7 4714.73,621.948 4710.54,619.093C4707.3,616.884 4711.85,600.876 4709,577.618C4706.95,560.917 4695.91,551.641 4698.18,548.144C4686.62,552.659 4671.25,550.528 4655.58,535.249C4646.04,552.987 4644.82,539.504 4661.88,578.243C4667.97,592.082 4656.49,610.443 4634.44,627.989C4627.57,633.447 4624.45,638.058 4626.22,644.27C4628.64,642.818 4627.64,643.728 4630.54,642.985C4660.63,635.301 4601.01,673.73 4598.87,701.59C4597.4,720.64 4607.67,747.942 4605.31,753.857C4596.38,776.284 4585.44,777.716 4595.25,800.413C4609.59,833.572 4614.36,843.378 4598.15,863.599C4589.81,873.998 4592.74,884.58 4595.25,895.428C4598.62,892.691 4605.85,892.696 4611.15,891.073C4613.35,902.211 4583.92,918.45 4586.73,931.675C4588.66,940.765 4590.57,944.099 4593.59,944.731C4595.85,945.202 4598.04,944.986 4598.87,943.421C4601.94,937.64 4593.56,927.641 4597.56,924.002C4602.35,919.631 4616.26,940.838 4609.12,949.008C4607.52,950.839 4592.98,962.931 4611.53,977.29C4617.74,982.098 4629.21,974.342 4633.57,979.906C4636.45,976.231 4634.69,1005.62 4641.7,1004.98C4650.36,1004.18 4662.38,976.615 4677.22,984.477C4698.64,995.823 4707.27,994.889 4712.07,986.372C4706.42,979.165 4716.73,964.723 4719.33,968.154C4748.43,1006.5 4769.37,985.687 4775.8,978.76C4785.65,968.166 4800.54,983.279 4787.05,990.681C4787.05,990.681 4799.93,1006.67 4813.81,978.76C4818.47,969.387 4816.59,960.17 4815.29,950.976C4764.46,949.073 4811.26,922.775 4823.87,915.776C4834.41,908.127 4838.32,922.772 4835.71,924.679C4834.24,925.749 4803.82,940.442 4820.4,940.713C4823.19,940.758 4828.03,940.212 4828.62,940.109C4858.11,935.029 4851.13,902.748 4849.06,899.276C4841.6,886.771 4852.66,885.932 4855.2,886.998C4861.6,889.677 4863.55,895.429 4861.37,911.227C4861.1,913.219 4861,913.13 4860.27,915.003C4860.87,915 4862.91,914.42 4863.58,914.05C4869.57,910.74 4875.57,900.047 4874.74,874.342C4874.38,862.93 4893.1,855.792 4893.88,844.581C4894.49,835.644 4894.79,831.728 4896.76,829.455C4897.77,828.301 4907.07,843.589 4909.43,842.567C4913.97,840.589 4914.37,841.583 4900.62,820.742C4890.22,804.986 4887.23,797.142 4889.12,788.582C4891.01,780.022 4890.94,767.166 4882.53,753.857C4881.92,752.889 4863.22,723.316 4862.91,723.429C4869.39,716.112 4872.53,717.882 4878.28,725.65C4882.54,731.397 4887.94,737.94 4891.05,743.025ZM4421.27,525.981C4416.85,520.01 4416.11,514.357 4419.97,506.6C4415.11,509.874 4411.02,514.238 4411.37,517.929C4411.72,521.601 4417.5,525.528 4421.27,525.981ZM4485.98,776.064C4484.86,776.459 4445.14,776.064 4435.14,750.727C4434.94,750.673 4416.08,751.376 4408.17,743.18C4403.97,738.831 4403.72,722.706 4403.69,720.568C4403.58,713.396 4389.81,709.566 4395.64,686.853C4397.31,680.318 4399.05,676.436 4402.88,672.083C4400.6,659.898 4404.1,644.104 4414.65,613.645C4409.08,581.36 4402.28,569.672 4395.9,565.313C4389.94,561.247 4390.09,575.194 4361.9,567.701C4356.7,566.319 4351.08,563.27 4345.12,554.966C4344.71,554.384 4334.52,559.068 4323.72,552.666C4323.41,574.585 4299.82,609.489 4298.1,613.485C4287.93,637.128 4324.84,655.944 4291.07,690.146C4285.32,695.974 4271.23,705.994 4269.99,724.589C4268.82,742.181 4252.64,749.119 4249.57,760.572C4245.59,775.49 4240.49,818.4 4252.62,804.607C4254.59,802.361 4256.32,802.05 4257.23,800.413C4252.77,789.983 4251.01,776.224 4263.75,756.763L4268.29,757.595L4269.43,760.065C4267.2,768.186 4259.03,787.089 4280.56,807.485C4289.59,816.043 4272.47,830.513 4277.6,848.908C4281.29,862.112 4264.66,877.72 4263.27,886.369C4262.69,889.895 4262.71,895.068 4264.2,898.689C4267.57,891.496 4272.22,882.586 4272.73,881.987C4280.54,872.794 4283.32,890.894 4275.91,907.686C4271.82,916.951 4265.63,930.057 4260.96,938.518C4240.68,975.291 4273.39,965.171 4266.87,988.729C4264.67,996.702 4273.08,997.422 4276.48,995.603C4291.08,987.808 4299.68,1020.07 4304.75,1016.93C4311.56,1012.72 4292.77,986.745 4300.71,984.477C4314.52,980.531 4323.48,1019.95 4326.59,1013.87C4338.19,991.137 4351.94,1015.11 4352.53,1015.41C4360.73,1019.47 4363.08,991.681 4365.11,990.681C4368.42,989.05 4375.11,997.367 4373.83,1006.92C4388.69,1012.67 4404.31,1015.22 4412.22,984.477C4413.15,980.843 4417.3,980.909 4418.85,982.525C4422.88,986.737 4425.09,994.948 4426.04,995.603C4467.37,917.109 4504.44,842.645 4485.98,776.064ZM4808.12,532.853C4823.47,528.313 4834.84,511.645 4831.57,503.771C4830.65,501.529 4816.99,483.76 4829.34,490.597C4831.34,491.703 4832.46,493.972 4833.71,492.905C4835.47,491.407 4839.92,486.209 4839.9,481.607C4839.86,474.443 4835.28,471.415 4834.94,467.308C4833.42,448.711 4833.19,449.223 4831.79,447.673C4828.07,451.879 4819.89,447.24 4818.26,440.48C4846.55,437.168 4826.01,396.705 4815.53,387.428C4814.79,386.777 4803.7,374.61 4799.74,378.031C4799.41,378.319 4799.09,380.327 4794.27,383.428C4790.18,386.057 4787.31,386.497 4787.05,386.519C4790.45,390.713 4803.94,412.634 4790.85,419.025C4778.83,424.895 4756.2,393.133 4754.73,385.07C4759.79,374.332 4766.72,394.235 4772.09,398.66C4775.38,401.366 4785.96,405.774 4785.36,399.735C4785.12,397.373 4782.18,392.246 4775.8,387.83C4768.6,382.841 4770.79,371.323 4779.24,371.453C4801.53,371.794 4795.9,349.553 4785.19,353.745C4750.5,367.322 4754.76,364.18 4770.74,320.721C4772.48,315.982 4768.59,307.055 4767.41,304.677C4762.88,311.737 4751.23,317.244 4739.3,315.074C4726.97,312.833 4722.87,283.722 4723.59,282.569C4724.81,280.61 4728.21,285.287 4728.55,286.195C4733.23,298.589 4735.91,295.27 4744.02,298.194C4759.48,303.771 4760.92,290.994 4760.04,279.462C4759.47,271.949 4750.45,268.099 4735.46,264.434C4729.32,262.933 4720.12,261.801 4716.39,261.474C4713.61,261.23 4712.9,256.439 4715.28,251.263C4720.77,239.333 4676.83,247.797 4658.59,241.59C4635.05,233.58 4636.89,197.601 4577.77,211.029C4570.06,212.779 4553.81,212.815 4536.28,212.979C4519.4,213.137 4476.09,177.819 4482.28,229.651C4507.11,227.038 4529.29,211.218 4524.53,224.825C4524.28,224.93 4506.69,245.152 4489.27,247.123C4471.05,249.183 4442.88,232.196 4427.9,253.779C4419.75,265.529 4415.64,269.764 4401.74,273.175C4373.85,280.022 4372.67,271.018 4370.32,285.102C4368.84,293.988 4371.25,303.548 4361.9,302.955C4347.21,302.024 4343.97,297.699 4345.46,304.677C4349.64,324.275 4328.23,324.46 4316.85,349.476C4308.83,367.104 4321.2,392.536 4316.85,404.691C4314.65,410.819 4305.68,407.187 4295.59,417.057C4262.05,449.874 4305.86,484.288 4303.62,485.66C4302.32,486.45 4297.31,491.925 4298.82,502.929C4299.36,506.849 4303.56,513.302 4307.49,511.707C4327.57,503.56 4310.48,526.529 4317.41,536.813C4329.19,554.289 4349.71,539.555 4350.65,539.943C4358.85,562.091 4398.42,554.321 4395.64,542.292C4393.28,532.126 4390.28,520.317 4393.66,511.565C4396.99,502.958 4404.29,497.968 4406.43,495.98C4393.74,499.706 4379.36,495.589 4393.66,485.66C4417.44,484.604 4440.9,480.953 4437.23,455.725C4435.01,440.399 4472.08,457.53 4479.94,450.014C4486.94,443.311 4484.79,428.733 4484.76,419.025C4493.73,410.87 4501.91,418.611 4502.76,441.774C4503.27,455.549 4508.4,471.7 4518.52,468.554C4531.55,464.506 4517.92,447.987 4531.13,432.442C4544.14,417.117 4531.41,444.76 4535.39,447.673C4544.21,454.135 4560.9,433.958 4561.53,435.757C4567.79,453.615 4545.74,461.079 4541.62,460.59C4572.98,488.14 4576.95,459.36 4593.59,455.725C4624.81,448.91 4634.15,468.035 4637.87,477.923C4637.74,469.083 4638.9,473.628 4641.7,461.929C4659.69,472.538 4627.22,522.972 4696.15,532.348C4705.67,533.642 4715.87,530.653 4718.57,529.971C4720.03,529.604 4722.19,534.816 4713.91,540.418C4712.5,541.371 4710.97,542.612 4709,543.171C4753.82,566.084 4747.49,536.889 4752.73,532.348C4766.94,520.035 4772.94,529.288 4784.38,514.032C4790.61,505.736 4797.79,512.663 4806.17,500.011C4809.8,494.539 4812.1,486.136 4815.55,482.887C4823.93,475.025 4815.47,514.88 4798.01,520.318C4803.21,524.451 4806.42,527.583 4808.12,532.853ZM4485.98,674.215C4487.49,683.051 4504.82,671.002 4502.76,665.972C4500.71,660.942 4498.25,646.852 4473.65,644.036C4462.87,642.8 4441.3,643.248 4428.21,649.953C4420.63,653.84 4415.7,658.353 4413.91,664.602C4412.49,669.544 4413.37,674.962 4414.52,675.996C4415.67,677.03 4418.05,677.716 4419.62,671.191C4422.2,660.473 4444,670.107 4438.81,686.853C4438.08,689.209 4430.27,695.284 4421.24,689.465C4422.72,691.483 4425.4,695.146 4427.9,697.165C4438.78,705.924 4447.09,708.137 4463.11,708.302C4485.19,708.529 4496.05,694.557 4502.23,679.76C4498.31,684.407 4492.03,687.098 4487.12,688.494C4452.99,698.197 4463.54,652.399 4479.94,661.582C4487.37,665.745 4486.31,664.488 4485.98,674.215ZM4446.93,747.342C4477.81,764.388 4475.61,771.633 4537.68,743.482C4522.21,746.808 4511.81,743.569 4490.74,741.203C4465.81,738.404 4467.42,744.537 4458.42,746.008C4449.58,747.454 4449.43,746.933 4446.93,747.342Z" style="fill-rule:nonzero;"/>
                </g>
            </g>
        </g>
    </g>
</svg>
