<?xml version="1.0" encoding="UTF-8" standalone="no"?>
<!DOCTYPE svg PUBLIC "-//W3C//DTD SVG 1.1//EN" "http://www.w3.org/Graphics/SVG/1.1/DTD/svg11.dtd">
<svg width="100%" height="100%" viewBox="0 0 945 1182" version="1.1" xmlns="http://www.w3.org/2000/svg" xmlns:xlink="http://www.w3.org/1999/xlink" xml:space="preserve" xmlns:serif="http://www.serif.com/" style="fill-rule:evenodd;clip-rule:evenodd;stroke-linejoin:round;stroke-miterlimit:2;">
    <g transform="matrix(1,0,0,1,-11237.1,-1406.58)">
        <g id="site_poodle" transform="matrix(0.26936,0,0,0.47619,11237.1,1406.58)">
            <rect x="0" y="0" width="3507.87" height="2480.32" style="fill:rgb(172,148,143);"/>
            <g id="poodle" transform="matrix(3.7125,0,0,3.04563,-11756.4,-1117.53)">
                <g transform="matrix(1,0,0,0.689512,-882.37,366.927)">
                    <path d="M4811.47,1181.1L4298.81,1181.1C4284.8,1147.56 4323.17,1081.22 4362.59,1006.73C4361.46,1005.53 4360.07,1004.52 4358.71,1003.49C4350.95,1024.86 4327.17,1027.84 4311.6,1016.72C4309.62,1023.17 4306.26,1028.78 4301.27,1030.43C4295.86,1032.22 4291.41,1023.33 4283.61,1014.16C4282.52,1019.56 4281.03,1024.74 4279,1029.38C4271.4,1046.76 4266.15,1038.2 4256.12,1025.1C4255.15,1027.11 4252,1035.74 4248.43,1034.08C4243.06,1031.58 4230.87,1012.95 4223.89,1010.1C4218.13,1007.75 4214.69,1013.41 4206.54,1016.98C4199.24,1020.18 4199.71,1013.28 4200.12,1005.43C4201.19,985.056 4178.42,973.679 4175.9,969.294C4170,959.039 4191.98,933.852 4203.61,910.795C4198.65,904.013 4190.82,889.173 4199.18,872.729C4214.52,842.558 4197.83,836.756 4208.5,826.083C4213.45,821.133 4210.3,815.83 4206.15,808.747C4205.76,811.349 4205.4,813.664 4204.68,814.398C4167.18,852.507 4166.97,757.644 4189.17,737.36C4203.45,724.312 4197.32,721.308 4199.75,702.884C4203.28,676.112 4245.39,687.651 4226.91,633.431C4220.85,615.646 4260.55,577.506 4251.55,546.239C4249.53,539.204 4242.33,535.862 4245.28,525.192C4236.97,520.413 4225.01,512.322 4233.27,491.951C4237.48,481.578 4224.78,482.767 4219.23,474.833C4186.06,427.456 4245.39,397.527 4245.34,396.706C4244.19,376.947 4228.85,353.424 4274.05,310.928C4273.82,310.462 4276.8,276.713 4289.2,284.982C4299.36,291.753 4299.93,287.229 4299.91,286.365C4298.81,238.747 4339.85,267.948 4347.43,252.419C4366.84,212.682 4413.43,226.781 4417.91,227.088C4414.74,217.452 4414.89,208.193 4417.68,200.843C4421.61,190.498 4426.76,186.727 4440.66,188.39C4465.25,191.33 4466.51,199.324 4480.23,199.759C4500.67,200.407 4544.12,183.929 4565.93,188.498C4585.21,192.54 4593.97,220.356 4611.05,227.173C4628.1,233.98 4656.54,231.446 4665.8,233.183C4681.05,236.042 4669.96,247.795 4667.78,252.295C4710.09,244.049 4725.6,270.765 4715.52,292.951C4722.66,307.141 4729.76,314.943 4722.69,333.337C4720.65,338.628 4715.55,345.132 4720.6,342.436C4752.32,325.503 4757.12,353.001 4746.46,368.017C4773.9,371.716 4804.81,423.576 4783.53,440.291C4791.11,453.185 4786.88,461.183 4789.51,464.491C4798.85,476.207 4797.52,495.783 4781.7,497.069C4802.48,518.261 4759.64,540.835 4756.28,540.373C4756.28,540.373 4756.59,564.938 4762.68,578.309C4767.44,588.773 4774.3,594.743 4783.85,606.516C4793.27,618.142 4803.69,605.209 4808.77,603.722C4818.74,600.799 4821.11,628.65 4805.11,636.394C4808.48,642.15 4809.08,649.52 4809.73,650.636C4816.4,662.105 4810.71,671.652 4809.93,677.286C4825.76,702.071 4820.06,702.515 4840.51,724.26C4853.78,738.375 4847.9,750.638 4841.29,753.324C4859.11,788.438 4851.78,803.574 4851.59,808.376C4851.43,812.68 4864.41,823.844 4868.65,854.657C4871.06,872.172 4852.77,877.396 4849.42,858.125C4848.38,852.148 4847.02,851.331 4845.05,849.279C4844.71,851.592 4844.42,854.112 4844.27,854.654C4838.47,875.682 4831.45,868.783 4829.03,890.621C4825.7,920.825 4807.14,927.123 4800.19,925.329C4800.4,940.644 4788.66,951.144 4774.92,948.682C4773.59,973.353 4771.55,993.346 4752.69,1005.19C4744.9,1010.08 4725.23,1004.58 4721.7,994.457C4718.77,996.028 4715.42,997.498 4711.73,998.682C4724.5,1019.61 4746.89,1044.96 4762.12,1071.8C4788.81,1118.83 4805.82,1159.38 4811.47,1181.1Z" style="fill:white;"/>
                </g>
                <g id="linhas" transform="matrix(1,0,0,0.689512,-938.63,365.904)">
                    <path d="M4443.72,1182.59L4423.16,1182.59C4413.24,1159.77 4394.77,1107.02 4409.99,1050.67C4378.39,1118.33 4373.63,1162.23 4370.99,1182.59L4355.07,1182.59C4341.06,1149.05 4379.43,1082.7 4418.85,1008.21C4417.72,1007.02 4416.33,1006.01 4414.97,1004.98C4407.21,1026.34 4383.43,1029.32 4367.86,1018.2C4365.88,1024.65 4362.52,1030.26 4357.53,1031.91C4352.12,1033.7 4347.67,1024.81 4339.87,1015.64C4338.78,1021.04 4337.29,1026.22 4335.26,1030.87C4327.66,1048.25 4322.41,1039.69 4312.38,1026.58C4311.41,1028.59 4308.26,1037.22 4304.69,1035.56C4299.32,1033.06 4287.13,1014.43 4280.15,1011.58C4274.39,1009.23 4270.95,1014.89 4262.8,1018.46C4255.5,1021.66 4255.97,1014.76 4256.38,1006.92C4257.45,986.54 4234.68,975.163 4232.16,970.778C4226.26,960.523 4248.24,935.335 4259.87,912.279C4254.91,905.496 4247.07,890.657 4255.44,874.213C4270.78,844.042 4254.09,838.24 4264.76,827.567C4269.71,822.617 4266.56,817.314 4262.41,810.231C4262.02,812.832 4261.66,815.148 4260.94,815.881C4223.44,853.991 4223.23,759.127 4245.43,738.843C4259.71,725.795 4253.57,722.791 4256.01,704.368C4259.54,677.596 4301.65,689.134 4283.17,634.914C4277.11,617.129 4316.81,578.99 4307.81,547.723C4305.79,540.687 4298.59,537.345 4301.54,526.675C4293.23,521.897 4281.27,513.805 4289.53,493.434C4293.74,483.062 4281.04,484.251 4275.48,476.316C4242.32,428.94 4301.65,399.011 4301.6,398.189C4300.45,378.43 4285.11,354.907 4330.31,312.411C4330.08,311.945 4333.06,278.196 4345.46,286.466C4355.62,293.237 4356.19,288.712 4356.17,287.849C4355.07,240.23 4396.11,269.431 4403.69,253.902C4423.1,214.165 4469.69,228.265 4474.16,228.571C4470.99,218.935 4471.15,209.677 4473.94,202.327C4477.87,191.982 4483.02,188.211 4496.92,189.873C4521.51,192.813 4522.77,200.808 4536.48,201.242C4556.93,201.89 4600.38,185.413 4622.18,189.982C4641.47,194.023 4650.23,221.839 4667.31,228.657C4684.36,235.464 4712.8,232.93 4722.06,234.666C4737.31,237.526 4726.22,249.279 4724.04,253.779C4766.35,245.532 4781.86,272.249 4771.78,294.434C4778.92,308.624 4786.02,316.426 4778.95,334.82C4776.91,340.112 4771.81,346.615 4776.86,343.919C4808.57,326.987 4813.38,354.484 4802.72,369.501C4830.16,373.199 4861.07,425.06 4839.79,441.774C4847.37,454.669 4843.14,462.667 4845.77,465.975C4855.11,477.69 4853.78,497.267 4837.96,498.553C4858.74,519.745 4815.9,542.318 4812.54,541.856C4812.54,541.856 4812.85,566.421 4818.94,579.792C4823.7,590.257 4830.56,596.227 4840.11,608C4849.53,619.626 4859.95,606.692 4865.02,605.205C4875,602.282 4877.36,630.134 4861.37,637.877C4864.74,643.633 4865.34,651.003 4865.99,652.12C4872.66,663.588 4866.97,673.135 4866.19,678.77C4882.02,703.555 4876.32,703.999 4896.76,725.743C4910.03,739.858 4904.16,752.121 4897.55,754.808C4915.36,789.921 4908.04,805.057 4907.85,809.859C4907.68,814.164 4920.67,825.327 4924.91,856.14C4927.32,873.656 4909.03,878.879 4905.68,859.609C4904.64,853.632 4903.28,852.815 4901.31,850.763C4900.97,853.076 4900.68,855.596 4900.53,856.138C4894.73,877.165 4887.71,870.267 4885.29,892.105C4881.95,922.308 4863.4,928.607 4856.45,926.812C4856.66,942.128 4844.91,952.627 4831.18,950.166C4829.85,974.837 4827.81,994.83 4808.94,1006.68C4801.16,1011.57 4781.49,1006.07 4777.96,995.941C4775.03,997.511 4771.68,998.982 4767.99,1000.17C4780.76,1021.09 4803.15,1046.44 4818.38,1073.29C4845.07,1120.32 4862.08,1160.87 4867.73,1182.59L4851.23,1182.59C4822,1141.64 4837.25,1121.44 4756.8,1002.58C4746.07,1003.79 4733.61,1002.08 4720.54,994.476C4719.89,994.095 4719.26,993.675 4718.66,993.223C4714.64,999.766 4697.7,1011.52 4681.2,1002.21C4668.05,994.784 4648.96,1026.95 4630.02,1023.49C4621.21,1021.88 4624.78,1008.1 4619.13,998.283C4614.27,989.837 4594.54,987.687 4591.3,978.326C4587.94,968.624 4589.95,961.373 4591.99,956.082C4580.74,954.397 4565.35,942.012 4577.77,917.259C4578.29,916.223 4582.27,911.383 4584.88,907.392C4576.62,872.763 4575.65,871.317 4585.66,855.655C4608.15,820.484 4562.35,798.252 4585.72,761.023C4589.17,755.524 4587.95,745.142 4588,737.266C4579.09,741.715 4552.66,746.207 4549.84,746.518C4534.55,760.91 4506.3,768.763 4497.64,772.292C4510.53,808.803 4495.97,909.594 4465.49,953.382C4450.8,974.495 4439.18,994.761 4428.99,1013.32C4408.23,1101.94 4424.92,1128.41 4428.28,1138.88C4434.28,1157.6 4443.77,1173.09 4443.72,1182.59ZM4549.87,1182.59C4550.2,1101.37 4549.35,1098.67 4561.79,1057.1C4576.45,1035.21 4567.17,1082.36 4566.95,1084.63C4561.99,1136.08 4574.79,1137.66 4571.49,1182.59L4549.87,1182.59ZM4433.17,507.38C4431.58,507.073 4429.07,507.44 4427.7,509.024C4424.8,512.381 4424.52,517.425 4430.03,518.856C4433.63,519.792 4440.27,516.478 4437.23,510.867C4437.1,510.625 4434.76,507.688 4433.17,507.38ZM4649.5,528.663C4643.31,521.221 4637.67,511.692 4636.73,497.813C4634.16,496.261 4633.19,491.67 4630.23,487.39C4610.1,458.289 4573.62,482.36 4559.08,482.831C4545.03,483.286 4535.45,469.655 4534.77,468.554C4536.24,512.369 4493.55,466.392 4490.74,461.53C4480.09,469.975 4450.55,453.681 4452.21,467.405C4453.9,481.38 4445.76,484.345 4437.34,487.832C4451.04,491.095 4449.33,506.548 4448.11,513.269C4446.82,520.41 4435.57,540.084 4417.29,532.348C4411.15,529.748 4401.71,522.447 4411.61,508.907C4415.52,503.566 4428.43,494.3 4441.61,500.915C4435.89,488.444 4419.13,496.609 4418.18,497.585C4406.55,509.617 4397.91,515.099 4408.17,548.339C4419.41,584.764 4421.2,592.215 4422.16,602.851C4429.53,589.072 4437.38,579.629 4438.32,558.674C4438.82,547.371 4450.74,565.615 4445.14,576.939C4444.96,577.294 4417.29,625.784 4416.62,646.81C4423.64,639.231 4445.4,630.596 4458.42,630.697C4474.58,630.821 4491.93,636.712 4494.32,637.648C4499.7,639.756 4528.58,652.067 4508.31,691.914C4490.86,726.233 4413.92,730.546 4409.19,682.844C4402.37,705.267 4407.9,700.346 4412.98,713.674C4418.41,727.937 4414.99,729.577 4422.43,735.324C4427.66,739.369 4437.9,736.277 4455.24,730.264C4470.3,725.04 4511.73,733.307 4535.39,733.877C4557.33,734.405 4578.53,728.75 4586.45,723.1C4586.78,708.952 4586.76,700.359 4592.64,685.451C4586.88,671.801 4579.91,669.073 4575.33,662.985C4571.09,657.347 4579.13,658.294 4581.07,658.752C4583.31,659.284 4593.01,661.866 4598.44,672.855C4602.87,663.681 4607.42,658.775 4616.1,652.056C4614.76,644.783 4611.82,628.347 4624.27,620.738C4667.91,594.065 4639.06,558.325 4637.87,554.636C4635.72,547.931 4645.14,535.416 4649.5,528.663ZM4583.27,503.515C4592,494.776 4607.78,477.518 4630.69,511.565C4634.62,517.406 4630.83,520.191 4624.8,523.626C4622.91,524.708 4607.83,531.993 4596.14,530.032C4584.84,528.138 4582.63,526.884 4575.33,517.86C4575.82,516.92 4574.86,492.876 4583.08,484.29C4595.84,470.982 4634.3,485.877 4629.4,495.98C4626.94,501.059 4597.57,471.787 4583.94,499.426C4582.99,501.348 4582.51,504.275 4583.27,503.515ZM4614.92,520.836C4618.4,519.897 4632.5,515.429 4621.86,507.184C4621.87,507.218 4621.88,507.252 4621.89,507.285C4623.02,512.09 4619.63,517.334 4614.92,520.836ZM4601.52,502.999C4600.28,503.48 4596.84,505.854 4597.27,509.133C4598.85,521.222 4611.51,514.802 4611.59,509.161C4611.71,501.879 4605.98,501.272 4601.52,502.999ZM4597.02,523.268C4592.76,521.805 4588.28,518.446 4587.13,505.565C4584.81,508.562 4583.45,511.628 4580.43,516.361C4584.67,521.277 4590.99,522.982 4597.02,523.268ZM4408.42,527.091C4409.97,531.47 4414.71,544.359 4435.14,534.942C4441.61,531.959 4427.7,554.001 4413.57,543.736C4403.33,536.296 4407.51,526.906 4408.42,527.091ZM4584.15,530.435C4586.18,531.321 4603.8,536.434 4612.24,534.56C4613.08,534.373 4620.4,534.056 4623.53,530.902C4627.11,527.3 4630.04,522.553 4632.56,523.228C4639,555.975 4580.89,539.881 4584.15,530.435ZM4552.36,617.462C4550.18,614.661 4534.1,603.82 4537.98,578.265C4541.95,552.075 4547.13,521.014 4548.57,547.507C4548.81,551.951 4547.03,578.714 4547.27,584.074C4548.22,605.359 4560.16,622.381 4552.36,617.462ZM4891.05,743.025C4894.13,735.221 4890.96,730.235 4882.62,720.568C4865.47,700.676 4872.72,702.79 4855.16,683.826C4849.19,677.376 4862.36,661.929 4850.54,642.524C4844.69,643.67 4838.03,639.143 4828.69,632.579C4810.12,619.529 4853.24,647.901 4863.14,617.889C4865.43,610.963 4853.19,628.467 4840.77,623.352C4835.83,621.317 4828.75,607.741 4821.59,601.748C4813.89,595.297 4803.37,590.782 4800.63,584.139C4799.29,580.868 4809.49,542.057 4790.63,525.456C4789.06,526.533 4788.65,526.114 4786.7,529.577C4783.28,535.658 4767.25,537.921 4763.01,544.482C4749.5,565.42 4747.56,573.283 4724.62,559.431C4721.17,557.347 4716.39,554.65 4716.59,557.456C4716.9,561.708 4718.8,573.179 4719.29,585.222C4719.93,600.7 4714.73,621.948 4710.54,619.093C4707.3,616.884 4711.85,600.876 4709,577.618C4706.95,560.917 4695.91,551.641 4698.18,548.144C4686.62,552.659 4671.25,550.528 4655.58,535.249C4646.04,552.987 4644.82,539.504 4661.88,578.243C4667.97,592.082 4656.49,610.443 4634.44,627.989C4627.57,633.447 4624.45,638.058 4626.22,644.27C4628.64,642.818 4627.64,643.728 4630.54,642.985C4660.63,635.301 4604.35,673.501 4602.2,701.36C4600.73,720.411 4600.99,747.942 4598.63,753.857C4589.7,776.284 4591.02,776.404 4600.84,799.101C4615.18,832.26 4614.36,843.378 4598.15,863.599C4589.81,873.998 4592.74,884.58 4595.25,895.428C4598.62,892.691 4605.85,892.696 4611.15,891.073C4613.35,902.211 4583.92,918.45 4586.73,931.675C4588.66,940.765 4590.57,944.099 4593.59,944.731C4595.85,945.202 4598.04,944.986 4598.87,943.421C4601.94,937.64 4593.56,927.641 4597.56,924.002C4602.35,919.631 4614.65,940.223 4607.51,948.393C4605.91,950.224 4592.98,962.931 4611.53,977.29C4617.74,982.098 4629.21,974.342 4633.57,979.906C4636.45,976.231 4633.64,1008.2 4640.65,1007.55C4649.3,1006.76 4662.2,977.64 4677.04,985.502C4698.46,996.849 4707.27,994.889 4712.07,986.372C4706.42,979.165 4716.73,964.723 4719.33,968.154C4748.43,1006.5 4771.59,988.519 4778.03,981.592C4787.87,970.998 4797.62,985.408 4784.13,992.81C4784.13,992.81 4799.93,1006.67 4813.81,978.76C4818.47,969.387 4816.59,960.17 4815.29,950.976C4764.46,949.073 4813.82,926.454 4826.43,919.455C4836.97,911.806 4838.32,922.772 4835.71,924.679C4834.24,925.749 4803.82,940.442 4820.4,940.713C4823.19,940.758 4828.03,940.212 4828.62,940.109C4858.11,935.029 4851.13,902.748 4849.06,899.276C4841.6,886.771 4852.66,885.932 4855.2,886.998C4861.6,889.677 4862.81,899.978 4860.63,915.776C4860.36,917.769 4860.26,917.68 4859.53,919.553C4860.13,919.549 4862.17,918.97 4862.84,918.6C4868.83,915.289 4875.57,900.047 4874.74,874.342C4874.38,862.93 4894.79,858.206 4895.56,846.995C4896.17,838.058 4896.11,833.357 4898.09,831.084C4899.09,829.93 4910.32,847.779 4912.68,846.756C4917.22,844.779 4914.37,841.583 4900.62,820.742C4890.22,804.986 4890.45,797.878 4892.34,789.317C4894.23,780.757 4890.94,767.166 4882.53,753.857C4881.92,752.889 4863.22,723.316 4862.91,723.429C4869.39,716.112 4872.53,717.882 4878.28,725.65C4882.54,731.397 4887.94,737.94 4891.05,743.025ZM4421.27,525.981C4416.85,520.01 4416.11,514.357 4419.97,506.6C4415.11,509.874 4411.02,514.238 4411.37,517.929C4411.72,521.601 4417.5,525.528 4421.27,525.981ZM4485.58,773.787C4484.46,774.182 4467.36,775.115 4455.02,767.409C4448.15,763.115 4439.43,754.628 4435.73,748.027C4435.53,747.972 4417.91,751.376 4410,743.18C4405.8,738.831 4403.38,722.043 4403.35,719.906C4403.24,712.733 4389.67,708.664 4395.49,685.951C4397.17,679.416 4399.05,676.436 4402.88,672.083C4400.6,659.898 4404.1,644.104 4414.65,613.645C4409.08,581.36 4402.28,569.672 4395.9,565.313C4389.94,561.247 4390.09,575.194 4361.9,567.701C4356.7,566.319 4351.08,563.27 4345.12,554.966C4344.71,554.384 4334.52,559.068 4323.72,552.666C4323.41,574.585 4299.82,609.489 4298.1,613.485C4287.93,637.128 4324.84,655.944 4291.07,690.146C4285.32,695.974 4271.23,705.994 4269.99,724.589C4268.82,742.181 4252.64,749.119 4249.57,760.572C4245.59,775.49 4240.49,818.4 4252.62,804.607C4254.59,802.361 4256.32,802.05 4257.23,800.413C4252.77,789.983 4251.01,776.224 4263.75,756.763L4268.29,757.595L4269.43,760.065C4267.2,768.186 4259.03,787.089 4280.56,807.485C4289.59,816.043 4272.47,830.513 4277.6,848.908C4281.29,862.112 4264.66,877.72 4263.27,886.369C4262.69,889.895 4262.71,895.068 4264.2,898.689C4267.57,891.496 4272.22,882.586 4272.73,881.987C4280.54,872.794 4283.32,890.894 4275.91,907.686C4271.82,916.951 4265.63,930.057 4260.96,938.518C4240.68,975.291 4273.39,965.171 4266.87,988.729C4264.67,996.702 4273.08,997.422 4276.48,995.603C4291.08,987.808 4299.68,1020.07 4304.75,1016.93C4311.56,1012.72 4292.77,986.745 4300.71,984.477C4314.52,980.531 4323.48,1019.95 4326.59,1013.87C4338.19,991.137 4332.75,998.58 4340.06,996.134C4344.21,994.742 4351.94,1015.11 4352.53,1015.41C4360.73,1019.47 4363.08,991.681 4365.11,990.681C4368.42,989.05 4375.11,997.367 4373.83,1006.92C4388.69,1012.67 4404.31,1015.22 4412.22,984.477C4413.15,980.843 4417.3,980.909 4418.85,982.525C4422.88,986.737 4425.09,994.948 4426.04,995.603C4467.37,917.109 4504.04,840.368 4485.58,773.787ZM4808.12,532.853C4823.47,528.313 4834.84,511.645 4831.57,503.771C4830.65,501.529 4816.99,483.76 4829.34,490.597C4831.34,491.703 4832.46,493.972 4833.71,492.905C4835.47,491.407 4839.92,486.209 4839.9,481.607C4839.86,474.443 4835.28,471.415 4834.94,467.308C4833.42,448.711 4833.19,449.223 4831.79,447.673C4828.07,451.879 4819.89,447.24 4818.26,440.48C4846.55,437.168 4826.01,396.705 4815.53,387.428C4814.79,386.777 4803.7,374.61 4799.74,378.031C4799.41,378.319 4799.09,380.327 4794.27,383.428C4790.18,386.057 4787.31,386.497 4787.05,386.519C4790.45,390.713 4803.94,411.097 4790.85,417.489C4778.83,423.359 4756.2,393.133 4754.73,385.07C4759.79,374.332 4766.72,394.235 4772.09,398.66C4775.38,401.366 4785.96,405.774 4785.36,399.735C4785.12,397.373 4782.18,392.246 4775.8,387.83C4768.6,382.841 4770.79,371.323 4779.24,371.453C4801.53,371.794 4795.9,349.553 4785.19,353.745C4750.5,367.322 4754.76,364.18 4770.74,320.721C4772.48,315.982 4768.59,307.055 4767.41,304.677C4762.88,311.737 4751.23,317.244 4739.3,315.074C4726.97,312.833 4722.87,283.722 4723.59,282.569C4724.81,280.61 4728.21,285.287 4728.55,286.195C4733.23,298.589 4735.91,295.27 4744.02,298.194C4759.48,303.771 4760.92,290.994 4760.04,279.462C4759.47,271.949 4750.45,268.099 4735.46,264.434C4729.32,262.933 4720.12,261.801 4716.39,261.474C4713.61,261.23 4712.9,256.439 4715.28,251.263C4720.77,239.333 4676.83,247.797 4658.59,241.59C4635.05,233.58 4636.89,197.601 4577.77,211.029C4570.06,212.779 4553.81,212.815 4536.28,212.979C4519.4,213.137 4476.09,177.819 4482.28,229.651C4507.11,227.038 4529.29,211.218 4524.53,224.825C4524.28,224.93 4506.69,245.152 4489.27,247.123C4471.05,249.183 4441.02,228.566 4426.04,250.149C4417.89,261.899 4413.78,266.134 4399.88,269.545C4371.99,276.392 4370.72,266.621 4368.36,280.705C4366.88,289.591 4369.29,299.151 4359.94,298.558C4345.25,297.627 4341.81,295.977 4343.3,302.955C4347.48,322.553 4326.15,322.34 4314.76,347.356C4306.74,364.985 4321.2,392.536 4316.85,404.691C4314.65,410.819 4305.68,407.187 4295.59,417.057C4262.05,449.874 4305.86,484.288 4303.62,485.66C4302.32,486.45 4297.31,491.925 4298.82,502.929C4299.36,506.849 4303.56,513.302 4307.49,511.707C4327.57,503.56 4310.48,526.529 4317.41,536.813C4329.19,554.289 4349.71,539.555 4350.65,539.943C4358.85,562.091 4398.42,554.321 4395.64,542.292C4393.28,532.126 4392.5,520.18 4395.88,511.428C4399.21,502.821 4408.1,498.523 4410.24,496.535C4397.55,500.26 4380.61,499.098 4394.91,489.169C4418.69,488.112 4444.3,480.953 4440.63,455.725C4438.4,440.399 4475.66,461.13 4483.51,453.615C4490.52,446.911 4484.79,428.733 4484.76,419.025C4493.73,410.87 4496.66,420.044 4497.52,443.208C4498.03,456.983 4510.19,470.391 4520.31,467.245C4533.33,463.196 4517.92,447.987 4531.13,432.442C4544.14,417.117 4530.56,448.042 4534.54,450.956C4543.35,457.418 4560.55,434.12 4561.53,435.757C4564.54,440.791 4562.44,448.004 4555.81,452.011C4549.11,456.058 4541.53,460.148 4537.41,459.659C4568.78,487.209 4577.23,461.509 4593.87,457.874C4625.08,451.059 4634.45,473.962 4638.18,483.85C4638.05,475.01 4638.9,473.628 4641.7,461.929C4659.69,472.538 4624.49,525.217 4693.42,534.593C4702.94,535.887 4715.87,530.653 4718.57,529.971C4720.03,529.604 4720.56,534.636 4712.28,540.239C4710.87,541.192 4709.34,542.433 4707.37,542.991C4752.19,565.905 4748.64,538.015 4753.88,533.474C4768.09,521.16 4774.09,530.413 4785.53,515.157C4791.76,506.862 4798.94,513.788 4807.32,501.137C4810.95,495.664 4812.1,486.136 4815.55,482.887C4823.93,475.025 4815.47,514.88 4798.01,520.318C4803.21,524.451 4806.42,527.583 4808.12,532.853ZM4485.98,674.215C4487.49,683.051 4504.82,671.002 4502.76,665.972C4500.71,660.942 4498.25,646.852 4473.65,644.036C4462.87,642.8 4441.3,643.248 4428.21,649.953C4420.63,653.84 4415.7,658.353 4413.91,664.602C4412.49,669.544 4413.37,674.962 4414.52,675.996C4415.67,677.03 4418.05,677.716 4419.62,671.191C4422.2,660.473 4444,670.107 4438.81,686.853C4438.08,689.209 4430.27,695.284 4421.24,689.465C4422.72,691.483 4425.4,695.146 4427.9,697.165C4438.78,705.924 4447.09,708.137 4463.11,708.302C4485.19,708.529 4496.05,694.557 4502.23,679.76C4498.31,684.407 4492.03,687.098 4487.12,688.494C4452.99,698.197 4463.54,652.399 4479.94,661.582C4487.37,665.745 4486.31,664.488 4485.98,674.215ZM4446.93,747.342C4477.16,760.39 4474.86,767.001 4537.68,743.482C4522.21,746.808 4512.6,744.032 4491.53,741.667C4466.6,738.867 4467.22,741.529 4458.85,745.118C4450.25,748.804 4449.43,746.933 4446.93,747.342Z" style="fill-rule:nonzero;"/>
                </g>
            </g>
        </g>
    </g>
</svg>
