<?xml version="1.0" encoding="UTF-8" standalone="no"?>
<!DOCTYPE svg PUBLIC "-//W3C//DTD SVG 1.1//EN" "http://www.w3.org/Graphics/SVG/1.1/DTD/svg11.dtd">
<svg width="100%" height="100%" viewBox="0 0 945 1182" version="1.1" xmlns="http://www.w3.org/2000/svg" xmlns:xlink="http://www.w3.org/1999/xlink" xml:space="preserve" xmlns:serif="http://www.serif.com/" style="fill-rule:evenodd;clip-rule:evenodd;stroke-linejoin:round;stroke-miterlimit:2;">
    <g transform="matrix(1,0,0,1,-14329.5,-1406.58)">
        <g id="site_dalmata" transform="matrix(0.26936,0,0,0.47619,14329.5,1406.58)">
            <rect x="0" y="0" width="3507.87" height="2480.32" style="fill:rgb(150,183,220);"/>
            <g id="dalmata" transform="matrix(1,0,0,1,-25.546,-7.7307e-12)">
                <g id="contorno" transform="matrix(3.7125,0,0,2.1,-23310.7,-1950.02)">
                    <path d="M7055.99,2109.68L6538.84,2109.68C6538.84,2109.68 6534.85,2055.44 6523.47,1989.93C6514.69,1939.44 6528.11,1829.53 6560.11,1736.57C6560.54,1735.17 6561.02,1733.78 6561.56,1732.4C6564.86,1723.05 6568.34,1713.88 6572.01,1704.98C6573.21,1700.96 6574.3,1696.49 6575.4,1690.78C6578.89,1672.73 6584.58,1683.69 6586.46,1666.45C6588.34,1649.21 6591.79,1641.63 6596.42,1626.63C6601.04,1611.62 6600.21,1578.62 6597.78,1569.09C6595.34,1559.57 6606.21,1554.13 6596.42,1522.65C6589.82,1501.46 6589.69,1462.24 6593.56,1439.01C6592.74,1434.63 6587.16,1371.43 6590.7,1350.91C6585.66,1348.07 6582.23,1348.31 6577.71,1342.2C6575.06,1368.38 6578.47,1394.2 6569.87,1419.8C6555.69,1462 6518.88,1487.38 6506.5,1469.58C6497.9,1457.21 6487.01,1440.77 6477.1,1407.81C6472,1390.87 6466.12,1388.88 6462.73,1357.61C6455.35,1289.64 6447.95,1301.6 6448.2,1278.62C6448.32,1268.08 6469.52,1250.16 6489.41,1238.6C6506.16,1228.87 6522.81,1225.35 6532.43,1218.83C6551.16,1206.14 6568.22,1197.83 6584.35,1186.4C6604.57,1172.07 6617.85,1161.46 6648.76,1165.95C6648.89,1165.74 6649.1,1165.54 6649.4,1165.34C6659.19,1158.91 6694.14,1146.78 6703.71,1147.68C6717.16,1148.95 6752.38,1142.03 6752.38,1142.03C6752.38,1142.03 6785.45,1138.05 6793.3,1135.52C6801.15,1132.99 6816.07,1134.7 6827.41,1134.84C6834.78,1134.93 6856.5,1140.34 6868.58,1145.05C6890.38,1141.53 6897.99,1142.51 6927.8,1164C6941,1173.52 6943.26,1171.19 6952.41,1172.71C6962.5,1174.38 6976.23,1188.38 7009.31,1194.76C7015.08,1195.87 7071.85,1218.39 7068.23,1237.4C7057.69,1292.83 7062.5,1316.52 7055.04,1340.35C7038.56,1392.97 7022,1381.42 7007.56,1423.38C6995.84,1457.43 6977.9,1429.76 6966.07,1399.85C6964.22,1395.15 6963.7,1394.81 6962.31,1390.22C6963.28,1412.18 6947.61,1458.08 6942.02,1460.89C6943.56,1475.33 6943.38,1507.15 6944.84,1512.7C6946.82,1520.2 6935.25,1535.47 6935.2,1548.47C6935.16,1561.47 6936.77,1594.23 6942.63,1609.9C6948.49,1625.58 6954.42,1654.53 6957.01,1673.09C6959.59,1691.64 6956.72,1706.23 6963.65,1722.86C6968.38,1734.24 6968.82,1747.75 6971.58,1757.6L6971.73,1757.84C6972.15,1758.49 6974,1762.1 6976.74,1767.6C6986.76,1787.75 7008.62,1833.26 7014.99,1851.67C7028.41,1890.47 7040.79,1947.6 7045.57,1979.46C7050.32,2011.04 7055.99,2109.68 7055.99,2109.68Z" style="fill:white;"/>
                </g>
                <g id="linhas" transform="matrix(2.23942,0.369705,-0.60054,1.16393,-12301.9,-3014.7)">
                    <path d="M6990.82,1583.87C6978.11,1554.44 6965.8,1511.51 6961.38,1494.83C6955.64,1473.19 6962.97,1433.85 6956.61,1422.34C6953.41,1416.56 6949.52,1388.54 6943.18,1373.53C6937.22,1419.36 6944.46,1429.93 6945.94,1451.68C6947.88,1480.33 6964.27,1517.37 6938.78,1550.16C6924.52,1568.51 6874.76,1564.78 6858.48,1565.86C6854.93,1596.57 6840.59,1631.23 6805.1,1645.64C6756.75,1665.29 6751.11,1642.95 6731.02,1627.3C6729.91,1626.44 6715.89,1633.31 6710.72,1636.78C6699.76,1644.15 6687.15,1640.43 6678.33,1648.72C6677.56,1649.44 6668.37,1658.8 6664.95,1661.29C6663.2,1671.91 6661.75,1684.94 6651.08,1693.25C6649.95,1694.12 6642.11,1701.09 6639.97,1670.81C6611.75,1677.65 6593.5,1661.94 6581.73,1647.47C6576.76,1641.36 6572.32,1632.38 6569.04,1631.87C6562.33,1630.85 6526.78,1606.6 6511.06,1587.45C6494.11,1566.79 6481.99,1550.13 6459.42,1534.29C6450.29,1527.87 6443.54,1515.72 6435.66,1504.72C6439.63,1528.39 6449,1572.28 6467.28,1608.72C6481.14,1636.33 6486.2,1649.57 6489.29,1658.33C6489.58,1658.69 6489.9,1659.06 6490.26,1659.44C6504.3,1674.42 6568.6,1706.02 6550.37,1726.94C6540.86,1737.87 6573.51,1784.9 6562.23,1790.01C6551.29,1794.97 6530.31,1749.69 6520.24,1726.08C6520.73,1738.12 6521.12,1751.19 6521.4,1765.39C6521.76,1784.37 6525.27,1801.41 6522.36,1824.86C6563.98,1813.11 6574.94,1905.34 6563.83,1924.2C6544.13,1957.62 6540.53,1928.8 6519.77,1899.13C6520.7,1922.14 6516.74,1936.62 6514.1,1960.19C6514.02,1969.12 6513.88,1977.65 6513.62,1984.83C6545.75,2060.73 6529.47,2081.74 6514.14,2093.4C6521.12,2130.64 6528.52,2314.24 6552.83,2373.63C6553.52,2358.49 6556.35,2343.86 6564.28,2335.86C6575.94,2324.1 6644.81,2347.69 6609.14,2417.1C6592.63,2449.21 6602.13,2460.01 6603.27,2482.26C6627.22,2529.99 6667.91,2603.12 6667.91,2603.12L6625.78,2616.5C6625.78,2616.5 6595.5,2528.24 6548.9,2424.85C6512.99,2345.16 6484.47,2155.91 6491.92,1985.84C6491.95,1983.3 6492.07,1980.75 6492.28,1978.2C6493.15,1961.05 6494.38,1944.11 6496.02,1927.53C6496.06,1920.28 6495.72,1912.31 6494.86,1902.29C6492.14,1870.59 6505.73,1886.04 6500.91,1856.46C6496.09,1826.89 6497.99,1812.62 6498.36,1785.43C6498.74,1758.23 6482.76,1703.76 6474.79,1689.11C6466.83,1674.45 6481,1660.14 6452.01,1612.56C6432.48,1580.52 6414.8,1515.38 6410.35,1474.87C6407.15,1468 6370.45,1365.62 6366.7,1329.79C6357.74,1327.51 6352.6,1329.58 6342.98,1321.61C6350.6,1366.42 6367.32,1407.69 6365.6,1454.43C6362.75,1531.47 6317.82,1591.53 6290.98,1567.94C6272.32,1551.55 6248.36,1529.51 6218.52,1479.51C6203.19,1453.82 6193.31,1453.37 6174.19,1403.03C6132.61,1293.6 6126.64,1317.07 6116.78,1278.74C6112.26,1261.16 6136.65,1221.08 6161.9,1192.2C6183.14,1167.9 6207,1153.97 6218.79,1138.46C6241.74,1108.28 6264.11,1086.19 6283.65,1059.36C6308.16,1025.71 6323.71,1001.63 6372.92,994.098C6373.04,993.691 6373.27,993.252 6373.64,992.777C6385.73,977.329 6433.71,940.204 6448.73,937.064C6469.84,932.651 6520.56,904.047 6520.56,904.047C6520.56,904.047 6569.31,881.376 6580.18,873.359C6591.04,865.343 6614.59,860.95 6631.98,855.682C6643.28,852.256 6678.87,850.715 6699.43,852.691C6731.17,836.258 6743.23,834.184 6798.34,855.456C6822.76,864.876 6825.16,859.907 6839.83,857.985C6855.98,855.868 6883.2,872.497 6936.58,867.043C6945.88,866.093 7042.65,875.986 7045.6,909.356C7054.22,1006.62 7072.11,1043.67 7071.34,1086.91C7069.64,1182.4 7039.18,1171.23 7035.84,1247.99C7033.12,1310.3 6993.37,1273.01 6961.97,1229.01C6957.03,1222.1 6956.1,1221.78 6951.92,1214.83C6963.19,1250.87 6959.72,1334.77 6952.44,1342.16C6961.22,1365.44 6975.14,1418.42 6979.85,1426.94C6986.21,1438.44 6975.34,1469.44 6981.07,1491.08C6986.81,1512.72 7003.87,1566.4 7019.81,1589.62C7035.74,1612.85 7057.72,1658.09 7069.94,1687.69C7082.17,1717.29 7084.28,1742.93 7102.27,1767.23C7114.59,1783.86 7121.27,1806.11 7129.88,1821.14L7130.22,1821.45C7131.14,1822.34 7135.59,1827.44 7142.22,1835.26C7166.52,1863.89 7220.19,1928.95 7238.14,1956.47C7275.95,2014.47 7320.32,2103.45 7341.85,2154.1C7363.17,2204.29 7415.82,2365.55 7415.82,2365.55L7383.48,2375.83C7383.48,2375.83 7378.83,2360.8 7371.75,2338.07C7360.04,2338.86 7346.72,2335.57 7349.73,2327.89C7355.99,2311.88 7337.38,2278.97 7351.21,2272.47C7331.43,2209.68 7308.84,2139.08 7303.05,2125.7C7290.01,2119.66 7269.96,2106.35 7260.04,2063.24C7257.38,2051.69 7263.69,2047.75 7269.34,2050.92C7254.27,2019.23 7238.6,1989.07 7224.2,1966.98C7211.89,1948.11 7200.27,1932.38 7188.58,1918.2C7214.91,1984.42 7205.97,1989.78 7202.41,1996.81C7196.54,2008.38 7117.79,1928.6 7108.96,1914.33C7097.54,1895.86 7115.06,1893.44 7111.61,1839.34C7111.61,1839.34 7063.58,1733.25 7068.75,1742.11C7060.39,1724.22 7053.27,1704.9 7046,1687.31C7040.68,1674.43 7034.68,1661.65 7028.29,1649.42C7027.58,1651.62 7025.57,1653.39 7021.11,1655.41C7004.69,1662.88 7008.11,1643.9 6986.19,1642.53C6977.75,1642 6985.14,1627.67 6977.77,1614.74C6964.07,1590.69 6975.44,1589.15 6990.82,1583.87ZM6730.99,1601.98C6738,1608.55 6764.85,1641.28 6799.18,1623.58C6818.9,1613.41 6839.92,1579.73 6841.82,1557.92C6844.49,1527.47 6832.87,1508.59 6831.08,1508.12C6800.29,1500.03 6792.03,1499.32 6773.41,1507.95L6788.95,1557.75C6785.56,1561.28 6778.78,1568.34 6776.55,1555.16C6774.28,1541.79 6766.13,1524.5 6761.14,1513.82C6744.8,1523.87 6726.73,1538.28 6717.02,1559.45C6711.09,1572.38 6714.31,1586.34 6730.99,1601.98ZM6907.44,1111.52C6895.06,1066.86 6884.19,1041.12 6861.47,1008.3C6809.78,933.655 6755.99,905.01 6716.33,883.886C6689.01,869.334 6646.08,878.351 6623.5,881.552C6607.72,883.788 6591.68,895.075 6580.82,903.092C6569.95,911.109 6495.54,946.439 6474.43,950.852C6453.32,955.265 6413.03,980.828 6391.44,1006.08C6368.61,1032.78 6394.36,1067.6 6384.63,1115.99C6376.11,1158.39 6362.54,1181.81 6353.16,1209.39C6350.74,1216.53 6380.64,1262.85 6385.99,1332.18C6388.47,1364.35 6406.98,1414.18 6416.72,1440.9C6424.99,1441.83 6420.36,1450.92 6432.67,1456.22C6447.39,1462.58 6443.52,1482.61 6441.51,1484.09C6451.38,1499.71 6457.65,1509.25 6473.05,1520.06C6495.61,1535.91 6505.4,1546.11 6519.45,1563.19C6526.51,1571.78 6537.36,1583.68 6547.72,1593.6C6557.97,1603.41 6567.25,1609.45 6572.41,1610.24C6577.29,1610.98 6585.25,1618.47 6594.28,1628.73C6605.69,1641.67 6621.2,1657.07 6640.63,1653.64C6650.14,1651.96 6658.51,1644.92 6670.21,1633.05C6677.99,1625.16 6682.43,1626.96 6683.24,1626.92C6692.55,1626.51 6714.42,1614.8 6716.41,1613.36C6705.06,1601.83 6698.2,1593.37 6693.44,1584.46C6679.23,1600.9 6665.34,1606.42 6653.84,1610.62C6649.32,1612.28 6627.96,1617.06 6611.98,1603.46C6602.08,1595.03 6588.72,1570.29 6590.07,1566.71C6594.39,1555.34 6642.9,1642 6701.44,1549.3C6710.85,1531.93 6732.16,1512.99 6753.43,1493.85C6759.68,1488.21 6752.85,1471.6 6756.18,1468.19C6763.51,1460.67 6765.99,1481.89 6771.31,1483.2C6781.39,1485.66 6782.73,1482.12 6791.04,1481.9C6807.03,1444.83 6850.23,1480.71 6849.25,1491.63C6873.85,1499.4 6880.36,1497.39 6890.01,1495.38C6908.88,1491.45 6899.62,1441.79 6906.9,1442.12C6919.98,1449.71 6919.29,1516.15 6895.48,1515.76C6886.03,1515.61 6876.3,1518.1 6854.22,1510.17C6855.74,1523.16 6857.89,1532.86 6858.28,1544.87C6876.88,1543.38 6911.63,1548.22 6923.82,1532.54C6949.31,1499.75 6929.03,1476.03 6928.26,1447.31C6927.55,1420.39 6908.8,1407.23 6937.3,1334.68C6953.9,1292.42 6935.38,1221.28 6920.33,1165.96C6919.35,1162.35 6919.84,1164.22 6918.85,1160.53C6897.8,1157.61 6902.92,1115.43 6907.44,1111.52ZM6577.23,1375.21C6580.36,1361.84 6590.58,1366.69 6590.58,1366.69L6603.63,1336.89C6614.11,1337.63 6600.46,1371.82 6599.76,1384.02C6599.26,1392.69 6598.65,1402.67 6599.41,1410.07C6600.07,1416.42 6603.73,1422.11 6604.35,1428.46C6605.04,1435.61 6610.81,1447.47 6603.57,1452.92C6598.99,1456.37 6597.01,1438.92 6594.21,1431.68C6591.21,1423.94 6586.49,1415.38 6585.61,1406.47C6584.72,1397.44 6573.32,1391.93 6577.23,1375.21ZM6727.6,1043.16C6738.39,1019.53 6764.15,995.907 6802.36,1025.46L6802.77,1025.13C6803.11,1024.86 6808.44,1029.04 6814.05,1035.83L6814.6,1036.38C6815.12,1036.91 6815.39,1037.3 6815.45,1037.58C6816.14,1038.47 6816.83,1039.39 6817.51,1040.36C6822.83,1047.88 6836.3,1054.52 6836.66,1066.47C6837.59,1097.34 6828.55,1113.81 6822.73,1107.36C6820.82,1105.24 6825.2,1095.08 6820.95,1080.2C6820.76,1079.55 6820.56,1078.91 6820.36,1078.27C6818.6,1087.62 6795.56,1115.15 6778.21,1116.81C6768.65,1117.73 6754.27,1114.8 6757.98,1137.31C6764.71,1178.03 6725.87,1129.54 6723.32,1086.3C6722.05,1064.81 6703.73,1046.51 6714.68,1032.92C6719.99,1026.32 6724.7,1034.44 6727.6,1043.16ZM6789.47,1047.7C6796,1055.82 6804.99,1073.85 6798.63,1086.97C6801.89,1083.1 6809.74,1077.82 6810.26,1073.68C6811.56,1063.17 6798.23,1053.43 6789.47,1047.7ZM6738.45,1066C6746.87,1061.68 6740.53,1043.15 6781.6,1035.56C6787.73,1034.43 6796.28,1040.34 6803.73,1046.21C6801.12,1041.07 6795.29,1032.26 6788.17,1029.77C6780.54,1027.1 6766.05,1026.72 6757.94,1030.21C6745.55,1035.55 6732.95,1043.97 6731.09,1061.47C6730.59,1066.08 6735.89,1067.31 6738.45,1066ZM6759.42,1060.28C6746.05,1065.97 6760.42,1081.99 6765.57,1079.58C6776.4,1074.51 6776.29,1055.79 6759.42,1060.28ZM6740.92,1079.68C6740.46,1085.21 6740.64,1097.95 6742.99,1106.2C6744.5,1111.48 6756.33,1107.71 6763.19,1106.22C6750.66,1102.66 6742.84,1088.29 6740.92,1079.68ZM6618.95,1510.57C6620.43,1501.2 6615.26,1493.63 6623.38,1486.5C6625.74,1484.42 6635.04,1490.45 6641.89,1499.71C6649.63,1510.16 6654.48,1527.79 6654.89,1529.71C6658.35,1546.08 6615.01,1535.46 6618.95,1510.57ZM6691.9,1098.95C6694.72,1094.42 6707.35,1104.48 6713.32,1115.1C6733.93,1151.77 6735.85,1147.1 6733.64,1154.19C6731.27,1161.8 6700.24,1134.98 6691.9,1098.95ZM6628.7,1368.84C6627.86,1356.16 6644.02,1311.33 6678.5,1289.21C6701.81,1274.25 6741.34,1263.52 6781.18,1280.59C6805.79,1291.13 6815.52,1328.57 6816.12,1329.26C6817.08,1330.36 6804.93,1418.56 6754.11,1446.75C6703.29,1474.94 6631.97,1417.67 6628.7,1368.84ZM6797.14,1343.7C6797.6,1338.65 6797.78,1309.55 6773.17,1299C6733.33,1281.93 6713.5,1290.5 6690.19,1305.45C6655.71,1327.57 6646.35,1356.26 6646.71,1368.97C6646.98,1378.46 6651.12,1389.82 6662.18,1402.91C6665.22,1400.52 6670.18,1399.49 6667.99,1392.28C6665.09,1382.72 6663.74,1380.47 6664.75,1373.36C6667.28,1355.45 6703.74,1348.26 6711.15,1368.6C6715.33,1380.06 6715.55,1401.11 6709.68,1410.97C6707.37,1414.84 6693.51,1418.08 6683.29,1421.79C6700.29,1432.87 6720.47,1441.89 6741.81,1430.94C6737.83,1408.21 6732.19,1387.66 6732.77,1387.67C6736.17,1382.69 6748.26,1402.11 6755.13,1422.85C6776.56,1408.97 6788.59,1384.22 6794.56,1366.2C6789.24,1370 6781.65,1374.79 6772.13,1377.17C6762.95,1379.46 6745.42,1378.57 6738.08,1366.23C6734.1,1359.55 6735.72,1334.43 6748.88,1324.68C6762.14,1314.86 6777.89,1326.97 6779.16,1335.02C6782.15,1353.95 6793.99,1344.64 6797.14,1343.7ZM6753.73,1233.34C6758.32,1219.66 6774.55,1239.96 6791.84,1250.57C6809.2,1261.21 6834.94,1267.29 6842.94,1278.84C6853.78,1294.45 6866.31,1343.04 6855.14,1344.81C6848.15,1345.92 6834.24,1300.19 6818.3,1282.67C6801.4,1264.09 6750.91,1241.71 6753.73,1233.34ZM6425.25,1223.58C6423.98,1223.55 6415.69,1217.19 6415.18,1204.36C6414.42,1185.01 6418.06,1167.17 6451.09,1157.89C6458.79,1153.56 6466.78,1148.05 6470.63,1141.94C6474.38,1136.01 6492.82,1136.12 6499.22,1139.51C6504.76,1142.45 6526.3,1152.45 6530.77,1182.29C6536.97,1223.63 6535.1,1243.68 6534.85,1250.56C6533.66,1284.19 6518.03,1286 6516.16,1276.78C6511.8,1255.24 6527.5,1236.84 6507.45,1245.18C6500.88,1247.91 6494.66,1239.95 6492.86,1240.75C6488.32,1242.75 6478.04,1247.55 6470.18,1247.6C6451,1247.73 6432.28,1238.1 6425.25,1223.58ZM6502.39,1187.41C6506.98,1194.32 6502.68,1216.39 6497.69,1223.76C6502.71,1222.74 6512.28,1218.85 6513.94,1215.95C6518.48,1207.99 6511.69,1191.45 6502.39,1187.41ZM6427.74,1213.69C6431.9,1205.81 6438.36,1194.86 6442.39,1190.53C6446.85,1185.75 6462.67,1173.15 6471.03,1169.11C6473.93,1167.7 6472.32,1164.16 6469.65,1163.98C6460.18,1163.33 6442.53,1170.89 6429.38,1190.67C6425.15,1197.04 6426.8,1206.53 6427.74,1213.69ZM6449.02,1200.27C6445.24,1205.42 6439.25,1211.16 6438.17,1215.41C6435.81,1224.62 6449.51,1230.5 6457.33,1231.69C6449.29,1223.54 6446.39,1208.33 6449.02,1200.27ZM6473.95,1185.7C6466.15,1194.86 6475.82,1210.16 6485.7,1198.12C6495.16,1186.58 6479.89,1178.73 6473.95,1185.7ZM6669.69,1250.62C6688.82,1233.57 6698.12,1250.27 6695.55,1253.33C6687.69,1262.63 6661.09,1273.6 6657.22,1271.49C6645.87,1265.29 6664.3,1255.43 6669.69,1250.62ZM6342.1,1247.93C6341.87,1249.74 6341.55,1251.4 6341.1,1252.91C6336.83,1267.45 6336.69,1279.42 6338.77,1296.5C6352.13,1309.38 6362.29,1314.37 6369.16,1315.65C6363.15,1293.59 6351.22,1266.82 6342.1,1247.93ZM6989.89,1740.75C6996.42,1760.01 6976.82,1837.29 6979.39,1866.41C6982.18,1898 6988.04,1906.43 7006.12,1922.96C7022.79,1938.19 7040.27,1951.8 7051.87,1982.48C7056.55,1952.75 7061.36,1929.14 7064.6,1925.36C7068.7,1934.31 7073.24,1956.44 7072.78,1979.96C7088.99,1989.74 7086.28,1990.32 7080.5,2015.02C7075.4,2036.82 7092.27,2045.28 7062.83,2072.17C7057.94,2093.51 7047.42,2110.72 7039.46,2124.27C7037.09,2126.94 7036.87,2116.5 7038.01,2099.17C7036.43,2099.39 6970.22,2076.76 6950.48,2024.55C6935.98,1986.22 6909.9,1941.29 6902.64,1918.06C6895.39,1894.84 6911.21,1881.23 6927.58,1874.48C6943.95,1867.72 6914.1,1845.68 6915.33,1799C6915.9,1777.51 6937.62,1763.31 6940.21,1750.81C6944.71,1729.14 6984.46,1724.75 6989.89,1740.75ZM7057.17,1770.79C7057.41,1780.26 7062.06,1841.21 7038.06,1836.15C7023.48,1833.07 7024.39,1802.88 7036.6,1779.3C7041.06,1770.7 7056.98,1763.37 7057.17,1770.79ZM6856.24,2152.92C6842.62,2138.51 6829.38,2130.91 6820.28,2127.61C6783.44,2114.27 6745.14,2057.49 6746.44,2054.5C6754.4,2036.24 6788.28,2098 6823.54,2104.73C6829.81,2105.93 6837.95,2107.93 6846.69,2114.69C6855.9,2105.22 6868.76,2096.14 6884.92,2107.14C6897.76,2115.89 6939.54,2190.73 6919.19,2192.24C6944.22,2227.01 6959.62,2263.39 6953.55,2273.24C6950.1,2271.41 6931.1,2245.01 6907.82,2214.87C6908.41,2230.39 6902.59,2246.02 6894.98,2241.94C6886.01,2237.13 6814.46,2196.23 6856.24,2152.92ZM6742.09,1875.06C6745.52,1836.05 6675.83,1701.74 6740.22,1727.09C6790.24,1746.78 6790.74,1833.2 6812.67,1836.99C6868.65,1846.64 6839.85,1873.38 6838.47,1935.72C6835.82,2055.12 6694.58,2005.83 6742.09,1875.06ZM6652.16,2006.78C6673.6,1980.6 6668.45,1977.92 6667.81,1942.26C6730.84,1942.52 6711.54,2060.51 6692.56,2060.77C6658.14,2061.26 6652.76,2012.31 6652.16,2006.78ZM6546.29,2011.45C6535.69,1986.02 6585.84,1942.93 6603.27,1964.39C6605.47,1967.11 6625.57,1991.85 6609.17,2009.3C6578.59,2041.82 6563.96,2053.84 6546.29,2011.45ZM6567.29,1822.65C6591.62,1782.48 6640.71,1885.5 6640.74,1887.88C6641.17,1923.41 6620.49,1883.2 6597.67,1892.65C6592.36,1894.86 6563.32,1829.21 6567.29,1822.65ZM6555.86,1663.87C6569.23,1662.62 6590.24,1714.35 6592.75,1717.89C6596.22,1722.8 6605.6,1729.04 6608.99,1732.7C6656.28,1783.68 6660.16,1845.19 6639.17,1832.67C6620.4,1821.47 6616.71,1779.99 6596.01,1788.45C6576.67,1796.36 6568.93,1768.66 6579.37,1757.83C6597.53,1739 6537.18,1665.62 6555.86,1663.87ZM6559.78,2180.42C6567.38,2153.94 6620.96,2165.53 6631.01,2187.73C6641.05,2209.93 6690.06,2315.64 6620.05,2313.6C6563.68,2311.96 6553.87,2201.01 6559.78,2180.42ZM7133.97,2059.06C7146.23,2026.04 7199.23,2061.92 7209.91,2085.51C7230.38,2130.69 7189.57,2207.56 7177.01,2202.83C7129.57,2184.97 7126.93,2078.01 7133.97,2059.06ZM6976.13,2263.97C6970.64,2255.59 6955.6,2238.39 6958.06,2210.97C6960.52,2183.55 6977.3,2152.64 7009.86,2152.55C7042.42,2152.46 7048.39,2134.54 7065.38,2170.58C7082.36,2206.63 7071.4,2191.83 7075.61,2232.37C7079.81,2272.91 7103.09,2289.44 7081.17,2325.01C7059.26,2360.59 7038.24,2320.96 7021.14,2316.81C7004.04,2312.66 6979.67,2269.38 6976.13,2263.97ZM6754.42,2516.46C6751.4,2515.65 6740.68,2516.18 6732.45,2507.68C6723.99,2498.93 6711.9,2481.04 6724.05,2465.3C6725.5,2463.43 6741.34,2459.61 6746.25,2455.51C6750.33,2452.11 6752.95,2447.15 6753.52,2440.72C6755.73,2415.57 6763.08,2364.05 6784.49,2413.2C6789.91,2425.65 6771.18,2452.96 6793.43,2460.98C6814.83,2468.69 6801,2489.23 6797.01,2500.34C6793.22,2510.87 6808.18,2536.9 6775.44,2528.09C6767.88,2526.05 6770.37,2520.7 6754.42,2516.46ZM7241.88,2420.8L7204.22,2432.77C7204.22,2432.77 7185.28,2428.84 7199.02,2413.57C7206.98,2404.72 7203.87,2392.55 7215.81,2379.65C7238.7,2354.93 7223.98,2399.06 7236.94,2402.52C7260.81,2408.89 7241.88,2420.8 7241.88,2420.8ZM6938.78,2517.08C6938.78,2517.08 6923.01,2495.51 6946.92,2493.96C6961.56,2493.02 6983.43,2488.35 6995.26,2489.54C7000.74,2490.09 7001.04,2495.82 7002.92,2496.71L6938.78,2517.08Z"/>
                </g>
            </g>
        </g>
    </g>
</svg>
