<?xml version="1.0" encoding="UTF-8" standalone="no"?>
<!DOCTYPE svg PUBLIC "-//W3C//DTD SVG 1.1//EN" "http://www.w3.org/Graphics/SVG/1.1/DTD/svg11.dtd">
<svg width="100%" height="100%" viewBox="0 0 945 1182" version="1.1" xmlns="http://www.w3.org/2000/svg" xmlns:xlink="http://www.w3.org/1999/xlink" xml:space="preserve" xmlns:serif="http://www.serif.com/" style="fill-rule:evenodd;clip-rule:evenodd;stroke-linejoin:round;stroke-miterlimit:2;">
    <g transform="matrix(1,0,0,1,-2656,-1406)">
        <g id="site_golden" transform="matrix(0.26936,0,0,0.47619,2656.04,1406.58)">
            <rect x="0" y="0" width="3507.87" height="2480.32" style="fill:#e8aa63;"/>
            <clipPath id="_clip1">
                <rect x="0" y="0" width="3507.87" height="2480.32"/>
            </clipPath>
            <g clip-path="url(#_clip1)">
                <g id="golden" transform="matrix(3.7125,0,0,3.04563,-11756.4,-1117.21)">
                    <g id="contorno" transform="matrix(1,0,0,0.689512,-7039.59,-603.032)">
                        <path d="M11040,2587.68L10317.5,2587.68L10317.6,2587.53C10336.4,2561.21 10352.9,2530.43 10367.8,2495C10376.4,2474.4 10383.1,2443.75 10396.6,2431.13C10400.5,2427.49 10400.7,2422.55 10398.8,2417.55C10395.4,2408.08 10400.2,2372.56 10414.3,2348.03C10404.8,2351.95 10398.8,2347.74 10403.6,2330.37C10404.4,2327.77 10405,2325.67 10405.6,2324.01C10405.3,2324.12 10405,2324.24 10404.6,2324.35C10399,2326.22 10383.1,2320.39 10391.8,2305.97C10384.2,2308.65 10344.4,2290.41 10387.7,2285.56C10387.7,2285.56 10372.8,2274.62 10373.1,2268.95C10373.3,2264.25 10375.9,2259.26 10383.8,2254.46C10385.4,2253.48 10386.8,2251.23 10385.7,2250.94C10375,2248.12 10379.4,2235.92 10393.5,2225.87C10395.8,2224.27 10390.9,2216.9 10386.8,2212.25C10380,2204.51 10376.3,2195.36 10396.4,2193.31C10397.5,2193.2 10398.1,2191.53 10397.2,2190.51C10394,2186.47 10391.7,2180.17 10395,2178.24C10396.7,2177.24 10402,2172.38 10411.3,2168.58C10418.5,2165.69 10440.1,2156.63 10438.3,2153.82C10436.5,2150.95 10424.2,2154.91 10423.7,2152.34C10422.1,2144.76 10445.8,2138.91 10443,2136.76C10437.1,2132.35 10417.1,2118.98 10455.2,2107.94C10464.6,2105.25 10459.2,2103.43 10458.2,2103.19C10447.5,2100.64 10438.9,2088.32 10439.6,2076.8C10440.3,2066 10450.1,2055.89 10449.3,2055.21C10442.4,2049.24 10436.5,2033.77 10427.9,2027.83C10419.3,2021.89 10391.4,2035.3 10397.6,2019.55C10347.1,2038.13 10394,1970.34 10403.6,1959.04C10417.2,1942.98 10408.1,1937.4 10447.1,1902.55C10449.9,1899.97 10429.8,1905.21 10427.7,1897.66C10426.2,1892.03 10436.7,1885.28 10447.6,1879.94C10436.4,1878.07 10427.1,1863 10441,1849.73C10464.7,1827.07 10424.8,1834.75 10432.5,1825.35C10438.4,1818.03 10454.7,1800.93 10479.8,1808.55C10465.3,1802.11 10449.5,1786.81 10448.6,1784.77C10444.2,1774.84 10463.9,1782.28 10460.2,1772C10457.2,1763.46 10469.1,1771.23 10477.8,1770.26C10461.2,1747.08 10485.3,1756.28 10490,1757.07C10493.2,1757.61 10519.5,1760.94 10529.7,1757.7C10539.1,1754.72 10532.1,1742.91 10551.4,1737.6C10544.2,1731.41 10542,1729.91 10543.1,1723.21C10543.5,1720.13 10556.7,1727.49 10560.7,1728.16C10567.3,1729.29 10559.6,1730.42 10614.9,1705.01C10646.6,1690.43 10662.5,1688.94 10681.8,1682.48C10731.7,1665.7 10800.5,1701.09 10842.3,1718.35C10852.8,1722.68 10863,1732.05 10868,1743.89C10904.7,1755.91 10903.8,1776.01 10899.7,1793.57C10906.4,1800.28 10912.9,1805.61 10917.2,1807.75C10927.2,1812.83 10934.5,1812.32 10943.3,1815.89C10954.3,1820.31 10970.2,1834.28 10975.1,1851.33C10979.7,1867.3 10978.5,1886.24 10976.9,1888.67C10979.3,1898.82 10982.5,1910.75 10983.9,1927.44C10985.3,1944.14 10980.6,1965.8 10968.8,1982.68C10976.8,1997.99 10987.9,2026.91 10988.3,2034.68C10989.2,2050.25 10982.1,2048.62 10975.7,2041.52C10974.3,2057.78 10976,2064.39 10957.9,2074.67C10957.8,2074.72 10957.7,2074.76 10957.6,2074.79C10957.5,2090.55 10954.8,2101.48 10952.9,2107.53C10954.3,2111.29 10955.3,2115.02 10956,2118.69C10957.7,2128.2 10949.9,2137.03 10947.1,2145.1C10945.6,2149.38 10986.3,2173.18 10980.4,2183.87C10978.4,2187.55 10966.7,2182.69 10968.2,2186.99C10970.1,2192.62 10983.6,2204.1 10993.2,2217.86C11005.4,2235.28 11012.8,2248.68 10993.8,2252.21C11003.6,2269.2 11002.9,2269.7 10999.1,2275.46C10995.5,2280.79 10976.9,2270.3 10976.7,2276.33C10976.5,2281.98 10994.8,2291.04 11001.1,2305.34C11004.9,2314.25 10996.4,2327.7 10993.8,2330.27C10999.9,2339.85 11028.7,2341.81 11037.2,2496.5L11036.8,2492.86C11036.9,2511.53 11039.2,2569.19 11040,2587.68Z" style="fill:#fff;"/>
                    </g>
                    <g id="linhas" transform="matrix(1,0,0,0.689512,134.429,366.718)">
                        <path d="M3865.95,1181.25L3843.19,1181.1C3848.82,1166.86 3858.95,1037.06 3833.19,1006.79C3837.07,1054.1 3834.53,1095.88 3805.82,1064.61C3807.67,1083.54 3812.18,1087.28 3793.08,1087.72C3820.64,1131.28 3775.8,1118.04 3767.11,1119.02C3739.55,1122.12 3767.97,1145.47 3728.42,1181.25L3714.51,1181.25C3718.69,1171.57 3729.82,1147.28 3737.99,1121.17C3747.05,1092.2 3780.24,1104.85 3776.83,1095.88C3765.64,1066.36 3791.91,1085.56 3794.38,1075.39C3795.86,1069.29 3781.66,1056.69 3783.01,1053.23C3785.65,1046.46 3816.72,1050.95 3819.18,1044.47C3824.34,1030.85 3813.42,997.094 3816.1,985.435C3818.2,976.323 3819.53,968.396 3820.42,961.955C3814.25,950.66 3807.91,944.284 3803.79,927.916C3801.68,919.554 3810.95,907.983 3807.59,898.694C3803.19,886.531 3791.32,871.512 3791.33,871.476C3785.97,858.85 3801.89,860.006 3809.81,853.921C3814.77,850.115 3803.56,841.693 3803.79,839.516C3805.09,827.255 3813.96,829.09 3812.02,823.143C3807.93,810.585 3787.31,794.331 3780.96,785.632C3779.61,783.782 3777.97,770.817 3786.46,767.169C3788.82,766.157 3763.76,759.443 3755.51,749.224C3753.14,746.294 3752.43,743.859 3753.36,738.666C3753.65,737.047 3756.91,736.331 3759.52,734.71C3788.74,716.553 3720.65,632.902 3713.4,629.852C3705.38,626.479 3677.13,632.283 3668.25,635.093C3656.78,638.722 3650.93,640.523 3640.03,636.674C3623.65,630.894 3604.55,648.931 3596.85,648.781C3572.74,648.311 3565.05,636.607 3545.8,630.763C3543.59,630.092 3524.43,627.978 3530.48,620.94C3535.76,614.797 3571.1,631.452 3589.59,629.552C3592.46,629.257 3610.59,628.786 3619.9,623.553C3633.93,615.661 3638.62,621.172 3640.03,622.047C3648.85,627.543 3662.2,619.627 3666.93,617.341C3676.04,612.935 3693.9,612.245 3712.66,612.151C3723.68,612.096 3737.96,598.437 3751.96,590.551C3757.14,587.63 3767.99,577.394 3768.79,575.613C3776.17,559.245 3780.7,548.194 3779.57,546.243C3775.26,538.804 3768.48,546.913 3740.78,554.268C3704,564.036 3683.61,604.161 3647.27,606.621C3623.82,607 3613.5,595.395 3603.58,590.551C3599.61,588.613 3596.59,582.082 3601.1,580.974C3608.75,579.097 3616.66,590.952 3633.45,590.551C3685.11,589.319 3690.71,551.463 3740.13,539.174C3776.11,530.226 3784.62,527.449 3790.44,535.753C3791.8,537.687 3792.53,545.545 3786.11,559.783C3785.41,561.333 3784.76,563.108 3784.01,564.994C3795.15,552.643 3802.26,538.729 3798.81,524.832C3796.08,513.82 3795.28,504.578 3793.84,495.221C3782.99,505.684 3778.15,499.139 3753.25,503.857C3715.27,511.053 3702.25,490.118 3692.21,470.157C3689.43,464.62 3683.27,455.105 3684.81,451.052C3691.95,432.189 3697.59,424.96 3714.51,418.49C3720.98,416.014 3720.71,416.712 3728.42,413.382C3714.21,404.723 3692.55,390.248 3680.78,371.953C3675.91,364.375 3672.43,356.507 3669.32,349.488C3667.63,345.671 3660.73,335.795 3655.36,332.807C3644.85,326.957 3624.25,306.262 3601.15,298.943C3556.39,284.764 3493.05,283.747 3445.44,310.693C3397.14,338.032 3383.33,349.727 3366.37,363.996C3355.57,373.081 3315.23,360.673 3320.73,372.67C3321.37,374.058 3326.6,382.381 3321.68,382.414C3317.34,382.444 3297.12,378.743 3299.9,384.218C3302.05,388.466 3330.08,407.151 3317.85,411.505C3306.41,415.582 3286.09,412.739 3282.7,416.77C3276.53,424.119 3294.54,437.47 3297.97,438.067C3293.05,446.369 3282.75,447.73 3276.49,452.967C3262.99,464.258 3287.27,466.923 3297.52,468.514C3288.39,481.53 3280.02,481.077 3281.24,483.613C3283.73,488.842 3307,482.852 3313.71,469.799C3323.71,450.323 3327.03,463.605 3320.79,476.549C3320.18,477.82 3317.99,481.259 3312.49,482.937C3314.89,487.736 3319.22,493.54 3321.8,494.748C3328.62,497.942 3330.45,492.289 3343.25,479.273C3347.04,480.372 3335.72,505.183 3324.68,506.465C3319.89,507.02 3308.53,505.453 3306.3,494.748C3298.09,502.822 3287.31,503.755 3281.24,503.857C3261.94,525.798 3262.65,529.234 3252.69,546.534C3247.02,556.379 3219.01,579.066 3228.23,592.185C3230.16,594.932 3245.54,587.723 3248.58,583.094C3258.6,567.793 3268.25,557.023 3269.36,562.925C3271.13,572.282 3252.08,601.003 3240.33,604.814C3243.47,612.16 3261.28,600.878 3260.8,612.476C3260.45,620.751 3279.67,620.188 3284.38,613.732C3290.24,605.715 3292.51,591.272 3299.68,590.551C3304.47,590.069 3305.75,595.913 3298.1,611.732C3293.81,620.601 3280.54,625.024 3281.24,632.142C3281.84,638.342 3310.38,637.68 3304.41,648.781C3303.88,649.76 3302.95,656.414 3306.3,657.246C3319.97,660.635 3361.55,670.001 3385.06,638.21C3398.54,619.983 3397.58,568.772 3396.2,527.214C3394.39,472.837 3385.35,426.513 3388.1,410.122C3391.42,390.344 3399.93,385.532 3398.64,396.808C3395.99,419.857 3404.11,429.798 3404.68,459.513C3407.68,441.558 3413.49,420.121 3417.56,402.388C3421.7,384.331 3424.22,369.987 3441.15,352.656C3447.72,345.929 3463.1,334.809 3449.46,354.196C3435.53,373.995 3429.28,395.858 3427.65,416.77C3426.13,436.307 3411.49,462.988 3408.55,478.187C3405.09,496.096 3408.26,502.353 3408.03,507.963C3413.78,546.597 3421.6,590.829 3399.44,644.437C3392.34,661.613 3378.7,669.413 3356.28,671.464C3346.54,672.355 3333.62,683.349 3317.05,680.464C3311.5,679.497 3297.01,669.849 3291.12,668.361C3286.56,667.205 3281.74,676.279 3286.22,683.014C3291.92,691.608 3298.57,684.605 3304.41,692.364C3306.77,695.504 3304.08,705.428 3302.35,706.777C3295.78,711.89 3274.53,712.611 3272.97,716.534C3271.4,720.457 3291.22,725.113 3291.12,729.017C3291.03,732.922 3273.28,738.048 3272.4,739.96C3271.53,741.873 3285.71,746.169 3285.88,750.289C3286.04,754.069 3274.96,759.792 3272.4,760.547C3260.6,764.029 3245.25,772.25 3241.7,777.443C3238.49,782.152 3255.22,787.896 3251.14,791.703C3246.01,796.498 3231.56,794.434 3228.23,800.37C3225.98,804.391 3234.19,812.082 3232.29,816.147C3227.42,826.605 3223.33,822.788 3223.46,831.019C3223.65,842.608 3238.7,838.393 3237.91,846.788C3236.35,863.455 3217.85,850.489 3217.74,862.522C3217.71,865.6 3227.59,866.033 3233.07,873.597C3236.62,878.496 3215.12,884.081 3214.85,887.313C3214.28,894.184 3234.2,878.997 3241.7,883.78C3245.96,886.497 3228.22,892.325 3228.23,899.543C3228.24,903.768 3233.44,905.273 3236.93,904.559C3243.82,903.153 3248.01,902.251 3255.71,896.442C3268.55,886.761 3272.04,873.246 3274.27,873.536C3284.94,874.922 3284.61,886.206 3276.56,894.479C3284.95,896.748 3287.69,903.045 3312.58,901.529C3327.44,900.624 3343.61,892.038 3348.03,887.919C3340.31,886.39 3339.59,886.756 3330.79,884.389C3324.33,882.65 3328.45,870.59 3342.35,868.871C3349.75,867.956 3358.51,879.139 3373.49,881.834C3380.43,883.08 3389.86,882.805 3396.2,881.834C3424.13,877.547 3434.34,862.726 3435.65,867.251C3442.02,889.083 3397.78,898.54 3373.49,894.479C3353.34,891.11 3337.54,914.732 3313.71,917.923C3293.69,920.602 3280.25,910.144 3265.58,907.077C3261.22,910.485 3255.94,914.331 3246.19,916.978C3246.14,917.066 3243.98,927.106 3246.19,926.528C3248.25,925.988 3259.95,920.574 3261.65,926.528C3262.86,930.757 3259,943.921 3255.71,952.086C3245.42,977.645 3236.26,991.656 3242.41,997.202C3245.44,999.938 3245.66,993.134 3256.09,996.977C3260.24,998.506 3241.43,1031.45 3237.91,1038.44C3232.35,1049.49 3220.95,1060.98 3217.74,1070.91C3207.66,1102.06 3208.65,1126.67 3181.13,1166.86C3177.29,1172.46 3169.91,1181.25 3169.91,1181.25L3143.44,1181.25L3143.54,1181.1C3162.37,1154.78 3178.93,1124 3193.75,1088.57C3202.37,1067.97 3209.1,1037.32 3222.58,1024.69C3226.47,1021.06 3226.65,1016.12 3224.82,1011.11C3221.35,1001.65 3226.17,966.125 3240.33,941.594C3230.75,945.522 3224.74,941.313 3229.63,923.937C3230.36,921.335 3231.01,919.239 3231.6,917.578C3231.28,917.69 3230.95,917.805 3230.59,917.923C3224.98,919.791 3209.11,913.964 3217.74,899.543C3210.16,902.222 3170.36,883.975 3213.72,879.127C3213.72,879.127 3198.8,868.189 3199.07,862.522C3199.3,857.814 3201.89,852.827 3209.82,848.03C3211.43,847.052 3212.81,844.799 3211.72,844.513C3200.97,841.693 3205.37,829.485 3219.53,819.44C3221.79,817.838 3216.93,810.465 3212.82,805.817C3205.97,798.082 3202.26,788.925 3222.34,786.879C3223.44,786.767 3224.06,785.104 3223.23,784.084C3219.94,780.037 3217.72,773.739 3220.97,771.808C3222.64,770.809 3227.94,765.945 3237.33,762.152C3244.49,759.26 3266.09,750.202 3264.3,747.391C3262.47,744.521 3250.22,748.481 3249.68,745.904C3248.12,738.329 3271.82,732.476 3268.97,730.33C3263.11,725.916 3243.07,712.548 3281.24,701.508C3290.54,698.815 3285.22,696.998 3284.22,696.761C3273.49,694.213 3264.84,681.891 3265.58,670.363C3266.26,659.564 3276.05,649.46 3275.27,648.781C3268.42,642.803 3262.47,627.339 3253.86,621.395C3245.25,615.455 3217.36,628.872 3223.6,613.118C3173.08,631.694 3220.01,563.905 3229.6,552.609C3243.22,536.551 3234.08,530.973 3273.04,496.119C3275.92,493.536 3255.74,498.783 3253.68,491.228C3252.16,485.597 3262.67,478.852 3273.62,473.512C3262.37,471.638 3253.12,456.571 3267,443.299C3290.71,420.641 3250.82,428.322 3258.44,418.917C3264.38,411.594 3280.64,394.5 3305.8,402.117C3291.27,395.674 3275.45,380.382 3274.55,378.339C3270.19,368.409 3289.86,375.847 3286.22,365.566C3283.19,357.029 3295.06,364.797 3303.78,363.828C3287.2,340.652 3311.31,349.852 3315.95,350.635C3319.16,351.177 3345.47,354.512 3355.71,351.268C3365.11,348.291 3358.1,336.482 3377.4,331.171C3370.15,324.983 3368.03,323.483 3369.04,316.775C3369.5,313.695 3382.71,321.061 3386.66,321.729C3393.33,322.86 3385.56,323.99 3440.88,298.576C3472.62,283.997 3488.51,282.512 3507.75,276.047C3557.68,259.267 3626.48,294.663 3668.25,311.914C3678.75,316.249 3688.95,325.613 3693.99,337.458C3730.67,349.483 3729.8,369.58 3725.64,387.137C3732.42,393.851 3738.91,399.182 3743.14,401.32C3753.2,406.396 3760.53,405.885 3769.33,409.454C3780.25,413.881 3796.17,427.851 3801.07,444.898C3805.65,460.872 3804.46,479.803 3802.9,482.235C3805.24,492.388 3808.43,504.323 3809.84,521.007C3811.25,537.71 3806.61,559.366 3794.75,576.248C3802.8,591.558 3813.89,620.484 3814.33,628.245C3815.2,643.815 3808.04,642.193 3801.72,635.093C3800.3,651.352 3802.01,657.96 3783.86,668.243C3783.78,668.288 3783.7,668.327 3783.63,668.361C3783.5,684.115 3780.8,695.05 3778.87,701.098C3780.25,704.855 3781.31,708.586 3781.97,712.256C3783.67,721.77 3775.91,730.6 3773.09,738.666C3771.59,742.945 3812.32,766.743 3806.42,777.443C3804.4,781.122 3792.71,776.258 3794.19,780.56C3796.13,786.187 3809.57,797.673 3819.18,811.433C3831.35,828.853 3838.78,842.247 3819.76,845.78C3829.54,862.764 3828.9,863.266 3825.07,869.026C3821.52,874.354 3802.89,863.874 3802.66,869.901C3802.45,875.552 3820.83,884.606 3827.04,898.908C3830.9,907.819 3822.37,921.272 3819.83,923.84C3825.87,933.413 3854.67,935.377 3863.22,1090.07L3862.82,1086.43C3862.91,1105.1 3865.2,1162.76 3865.95,1181.25ZM3552.65,1181.1C3551.18,1176.64 3579.48,1133.81 3585.35,1080.98C3586.78,1068.16 3587.89,1044.3 3579.59,1041.06C3573.72,1038.77 3564.88,1046.87 3556.17,1038.44C3547.93,1030.46 3555.91,1009.15 3551.63,1006.79C3547.36,1004.43 3539.88,1021.89 3531.52,1022.42C3525.61,1022.79 3519.54,1016.06 3516.2,1012.05C3512.87,1008.05 3511.47,1001.14 3512.92,994.887C3514.31,988.911 3519.34,984.153 3521.29,983.202C3525.67,981.068 3520.38,1004.6 3527.56,1005.16C3531.59,1005.47 3537.06,1002.22 3542.78,996.731C3546.87,992.803 3552.61,991.852 3556.17,992.066C3560.84,992.346 3562.39,998.082 3563.52,1003.5C3564.29,1007.17 3563.88,1016.12 3568.23,1021.27C3573.83,1027.9 3581.16,1026.75 3585.49,1026.73C3593.41,1026.69 3608.24,1002.39 3609.56,988.43C3615.98,920.559 3585.81,887.701 3604.95,900.887C3626.31,915.597 3634.47,963.344 3627.24,997.233C3625.7,1004.47 3612.86,1026.75 3606.45,1030.77C3592.8,1039.35 3610.89,1061.07 3596.85,1120.61C3587.62,1159.74 3577.4,1176.51 3569.66,1181.25L3552.65,1181.1ZM3767.11,490.545C3773.32,490.456 3784.02,489.655 3788.77,483.613C3793.04,478.175 3791.72,467.592 3791.33,464.936C3785.93,464.33 3779.4,459.129 3779.5,453.364C3779.55,450.943 3783.68,446.123 3786.46,445.031C3783.93,435.77 3779.31,428.554 3772.63,422.086C3770.85,420.361 3762.21,417.057 3759.52,417.108C3751,417.269 3740.36,418.064 3730.93,422.555C3715.52,429.889 3708.24,434.645 3701.87,450.064C3698.65,457.845 3699.89,462.455 3703.1,467.568C3712.83,483.035 3722.58,497.471 3753.25,492.086C3756.55,487.063 3763.58,479.436 3765.06,473.347C3768.33,459.888 3770.31,446.235 3771.41,451.052C3775.5,469.041 3771.09,483.402 3767.11,490.545ZM3720.89,462.879C3731.28,465.542 3729.55,451.618 3740.13,446.213C3776.16,427.802 3757.88,496.971 3724.37,473.753C3710.68,464.273 3714.8,461.321 3720.89,462.879ZM3725.42,619.905C3725.78,620.275 3758.65,650.087 3768.53,688.261C3772.33,663.199 3772.55,615.164 3778.15,624.588C3784.9,635.925 3782.31,647.415 3782.6,658.275C3787.47,656.934 3792.68,647.624 3792.07,632.418C3791.9,628.329 3799.23,627.628 3799.3,622.047C3799.39,614.416 3795.1,594.557 3788.43,584.316C3781.95,597.4 3730.4,620.912 3725.42,619.905ZM3581.72,367.997C3578.52,363.604 3575.48,360.612 3569.66,357.634C3559.19,352.273 3544.47,354.562 3532.91,364.373C3513.95,380.445 3515.84,407.687 3513.57,407.434C3508,406.812 3500.55,373.973 3530.64,351.873C3546.58,340.17 3567.06,342.468 3579.81,347.743C3582.45,348.834 3598.69,370.623 3600.15,378.025C3607.86,390.618 3600.41,415.956 3566.05,422.562C3560.78,423.575 3546.15,423.238 3535.5,420.151C3526.8,417.633 3520.15,412.823 3520.83,402.297C3522.96,369.442 3547.62,356.784 3581.72,367.997ZM3575.28,410.974C3583.17,408.652 3586.18,406.035 3589.5,401.366C3592.79,396.746 3592.31,389.633 3591.25,386.005C3589.71,380.732 3585.71,376.782 3576.11,376.042C3580.66,379.476 3583.42,384.629 3583.6,389.867C3583.85,396.874 3582.13,402.166 3579.55,406.115C3578.29,408.039 3576.83,409.644 3575.28,410.974ZM3542.68,381.898C3531.84,386.721 3529.91,392.717 3529.52,401.133C3529.48,402.012 3529.58,404.598 3532.38,406.733C3537.62,410.722 3542.2,413.211 3548.43,413.98C3536.54,406.993 3539.48,388.718 3542.68,381.898ZM3561.05,389.662C3561.57,388.701 3563.5,385.798 3561.58,382.154C3560.39,379.885 3556.7,380.393 3556.11,380.295C3553.36,379.842 3550.98,383.639 3550.65,384.313C3549.46,386.734 3551.68,389.941 3552.65,390.643C3554.79,392.188 3559.75,392.085 3561.05,389.662ZM3623.68,458.752C3626.74,469.404 3617.27,455.132 3592.13,485.93C3583.58,496.395 3578.98,501.168 3572.63,507.495C3562.85,517.244 3564.89,526.636 3567.67,532.293C3569.07,535.143 3573.33,539.347 3569.56,542.573C3566.94,544.81 3560.41,537.819 3557.59,532.978C3553.01,525.129 3552.93,511.906 3558.76,504.708C3563.13,499.302 3569.93,496.731 3579.31,478.641C3583.59,470.383 3620.86,448.947 3623.68,458.752Z" style="fill-rule:nonzero;"/>
                    </g>
                </g>
            </g>
        </g>
    </g>
</svg>
