<?xml version="1.0" encoding="UTF-8" standalone="no"?>
<!DOCTYPE svg PUBLIC "-//W3C//DTD SVG 1.1//EN" "http://www.w3.org/Graphics/SVG/1.1/DTD/svg11.dtd">
<svg width="100%" height="100%" viewBox="0 0 946 1182" version="1.1" xmlns="http://www.w3.org/2000/svg" xmlns:xlink="http://www.w3.org/1999/xlink" xml:space="preserve" xmlns:serif="http://www.serif.com/" style="fill-rule:evenodd;clip-rule:evenodd;stroke-linejoin:round;stroke-miterlimit:2;">
    <g transform="matrix(1,0,0,1,-33,-1406)">
        <g transform="matrix(1,0,0,1,33.882,0)">
            <g id="site_chihuahua" transform="matrix(0.26936,0,0,0.47619,0,1406.58)">
                <rect x="0" y="0" width="3507.87" height="2480.32" style="fill:rgb(105,152,205);"/>
                <clipPath id="_clip1">
                    <rect x="0" y="0" width="3507.87" height="2480.32"/>
                </clipPath>
                <g clip-path="url(#_clip1)">
                    <g id="chihuahua" transform="matrix(3.7125,0,0,3.04563,-11727.4,-1116.89)">
                        <g id="CONTORNO" transform="matrix(1,0,0,0.689512,1802.77,23.7382)">
                            <path d="M2208.75,1678.53L1586.41,1678.53C1586.35,1678.26 1580.73,1619.65 1590.97,1579.17C1595.64,1560.72 1587.23,1503.78 1589.66,1485.07C1601.49,1394.35 1613.15,1400.86 1615.09,1363.36C1616.09,1344.13 1611.46,1289.97 1605.38,1268.4L1605.07,1268.22C1562.91,1243.88 1576.84,1223.29 1569.06,1188.95C1567.74,1183.15 1565.68,1176.59 1563.78,1172.44C1555.45,1154.24 1537.07,1139.68 1533.06,1127.52C1531.09,1121.51 1531.96,1111.3 1536.32,1104.96C1538.7,1101.51 1538.65,1099.17 1535.64,1097.64C1529.72,1094.63 1521.57,1090.92 1515.09,1085C1503.21,1074.14 1490.31,1056.12 1492.85,1042.39C1493.13,1040.89 1493.36,1039.3 1493.41,1037.52C1493.38,1037.47 1493.37,1037.42 1493.42,1037.31C1493.52,1032.87 1492.49,1027.22 1488.3,1018.59C1484.01,1009.76 1478.36,1001.52 1477.99,994.209C1477.06,975.924 1470.21,962.954 1463.51,943.401C1459.26,930.998 1458.55,925.488 1455.89,912.731C1447.13,870.633 1444.13,866.082 1457.36,828.382C1462.89,812.608 1465.91,810.036 1477.14,796.662C1484.89,787.434 1492.87,782.788 1502.59,790.917C1507.06,794.661 1506.58,795.17 1516.52,804.437C1536.51,823.066 1550.72,834.304 1572.89,855.512C1594.3,875.988 1612.22,894.362 1621.77,902.289C1623.92,904.084 1627.58,904.191 1630.15,903.075C1635.31,900.839 1645.79,889.945 1652.72,888.878C1654.36,888.625 1655.68,888.718 1656.7,888.941C1659.41,885.046 1664.83,877.293 1678.7,880.927C1682.88,882.022 1682.87,880.953 1685.96,879.27C1692.56,875.675 1699.26,878.319 1702.53,878.556C1712.96,879.313 1729.65,870.815 1746.64,876.113C1758.56,879.831 1770.31,880.931 1786.59,883.416C1804.25,886.113 1816.27,890.102 1823.84,891.452C1826.53,891.931 1829.03,892.157 1832.03,891.519C1852.58,887.161 1906.24,830.843 1930.86,797.431C1931.16,797.023 1931.07,796.949 1954.56,769.635C1972.97,748.225 2028.56,683.721 2031.04,681.489C2043.15,670.577 2049.98,667.264 2051.83,666.366C2062.02,661.418 2066.46,664.735 2069.93,666.581C2075.78,669.682 2079.66,674.083 2085.35,686.251C2092.48,701.515 2098.66,729.301 2098.98,759.549C2099.25,784.303 2096.12,811.337 2091.79,836.906C2089.77,848.818 2087.49,860.412 2085.18,871.31C2083.32,880.067 2076.12,897.336 2064.06,928.74C2061.06,936.537 2063.71,949.057 2060.61,956.671C2054.69,971.235 2039.27,986.307 2044.06,1003.35C2050.75,1027.16 2027.2,1054.38 1985.19,1075.68C1982.46,1077.06 1981.43,1080.03 1983.25,1083.02C2010.94,1128.55 1976.44,1159.39 1980.52,1192.93C1981.7,1202.61 1985.1,1208.69 1987.82,1214.83C2003.27,1249.79 1998.65,1258.66 2023.37,1285.34C2027.76,1290.07 2031.29,1294.89 2032.87,1306.17C2034.58,1318.34 2033.53,1331.12 2049.5,1347.01C2074.86,1372.23 2096.33,1389 2111.89,1409.91C2124.1,1426.33 2130.69,1451.16 2142.62,1475.96C2160.07,1512.26 2183.92,1553.52 2199.94,1629.41C2200.84,1633.65 2207.66,1672.75 2208.75,1678.53Z" style="fill:white;"/>
                        </g>
                        <g id="LINHAS" transform="matrix(1,0,0,0.689512,3101.88,364.481)">
                            <path d="M442.127,1184.35L426.655,1184.35C426.562,1183.77 425.929,1184.58 425.588,1164.25C424.78,1116.14 431.53,1111.84 433.069,1059.88C433.108,1058.58 434.539,1039.01 435.485,1038.11C436.429,1037.21 436.491,1037.18 437.795,1037.22C439.087,1037.25 439.14,1037.29 440.029,1038.22C440.6,1038.82 444.343,1055.34 444.485,1056.15C444.597,1056.8 445.976,1069.34 446.957,1114.08C447.433,1135.82 442.986,1183.87 442.932,1184.01C442.884,1184.13 442.595,1184.24 442.127,1184.35ZM303.848,1184.2L287.3,1184.35C287.242,1184.08 281.619,1125.47 291.862,1084.99C296.53,1066.54 288.121,1009.6 290.558,990.894C302.381,900.172 314.043,906.68 315.986,869.176C316.983,849.947 312.35,795.786 306.269,774.217L305.965,774.04C263.8,749.702 277.729,729.106 269.947,694.771C268.632,688.968 266.575,682.41 264.676,678.26C256.347,660.062 237.959,645.498 233.956,633.337C231.979,627.333 232.85,617.124 237.216,610.785C239.597,607.328 239.541,604.987 236.533,603.458C230.613,600.45 222.465,596.744 215.986,590.821C204.104,579.957 191.2,561.944 193.739,548.216C194.018,546.707 194.253,545.121 194.308,543.339C194.271,543.288 194.264,543.243 194.313,543.132C194.414,538.692 193.386,533.036 189.19,524.405C184.901,515.584 179.249,507.346 178.877,500.029C177.95,481.744 171.105,468.774 164.405,449.221C160.155,436.819 159.438,431.308 156.784,418.551C148.027,376.454 145.025,371.902 158.251,334.203C163.785,318.429 166.803,315.857 178.034,302.482C185.782,293.254 193.76,288.608 203.477,296.737C207.954,300.482 207.471,300.991 217.414,310.258C237.401,328.887 251.609,340.124 273.785,361.333C295.194,381.808 313.113,400.183 322.657,408.11C324.817,409.904 328.469,410.012 331.046,408.895C336.205,406.66 346.686,395.765 353.614,394.698C355.257,394.445 356.572,394.538 357.594,394.761C360.305,390.867 365.726,383.113 379.598,386.748C383.775,387.842 383.763,386.773 386.854,385.09C393.455,381.495 400.157,384.139 403.425,384.377C413.852,385.133 430.548,376.635 447.535,381.934C459.453,385.651 471.203,386.751 487.482,389.237C505.142,391.933 517.162,395.922 524.736,397.273C527.423,397.752 529.917,397.977 532.923,397.339C553.474,392.982 607.13,336.664 631.748,303.251C632.049,302.843 631.963,302.77 655.45,275.455C673.861,254.045 729.452,189.542 731.93,187.31C744.045,176.398 750.869,173.084 752.72,172.186C762.911,167.239 767.349,170.555 770.828,172.402C776.67,175.503 780.552,179.903 786.24,192.072C793.375,207.336 799.553,235.122 799.877,265.369C800.142,290.124 797.009,317.157 792.679,342.726C790.662,354.638 788.385,366.232 786.071,377.13C784.211,385.887 777.018,403.156 764.951,434.56C761.955,442.358 764.599,454.877 761.502,462.492C755.578,477.055 740.163,492.128 744.953,509.169C751.646,532.979 728.092,560.197 686.086,581.498C683.356,582.882 682.32,585.851 684.138,588.84C711.831,634.37 677.335,665.213 681.411,698.75C682.588,708.434 685.994,714.515 688.708,720.654C704.158,755.606 699.541,764.482 724.264,791.16C728.647,795.89 732.18,800.715 733.762,811.988C735.47,824.157 734.421,836.941 750.395,852.83C775.747,878.047 797.222,894.815 812.779,915.731C824.993,932.151 831.585,956.983 843.508,981.784C860.957,1018.08 884.815,1059.34 900.833,1135.23C901.728,1139.47 908.558,1178.57 909.64,1184.35L890.242,1184.2C888.322,1173.98 886.276,1145.59 884.726,1138.47C867.946,1061.29 843.49,1026.16 826.676,990.642C815.958,968.003 812.708,938.274 800.862,922.819C785.112,902.271 762.233,890.495 736.358,864.901C711.382,840.196 724.405,818.381 714.485,804.13C712.301,800.992 696.478,787.477 693.008,778.41C683.497,753.56 692.056,759.064 676.867,726.502C672.387,716.896 663.384,690.436 667.201,670.621C672.61,642.541 696.699,630.006 667.264,588.254C666.712,587.471 662.915,576.185 669.302,569.911C676.607,562.734 694.596,560.221 699.628,555.578C707.057,548.723 732.732,515.659 723.528,505.562C721.677,503.531 703.676,488.025 710.915,477.253C716.774,468.535 748.343,452.524 748.388,452.448C751.82,446.621 745.777,433.891 749.089,425.226C760.596,395.116 765.529,380.774 767.241,372.64C784.647,289.924 790.813,260.171 786.781,235.827C782.822,211.921 776.906,203.939 773.094,197.274C768.997,190.11 759.962,179.352 753.128,182.929C745.833,186.747 743.08,190.628 740.631,192.796C734.492,199.326 667.912,289.884 622.778,339.773C613.712,349.794 599.71,365.303 588.124,375.111C577.428,384.168 567.255,387.636 553.266,398.624C548.41,402.438 544.159,405.568 540.155,408.057C531.836,413.228 524.586,415.635 515.2,415.673C497.375,415.744 467.801,405.71 446.315,399.051C430.601,394.181 415.723,397.117 403.311,394.546C399.306,393.717 394.218,397.252 391.516,398.877C388.972,400.407 389.131,400.952 381.969,399.115C377.101,397.865 375.912,401.46 372.549,405.748C370.675,408.136 366.012,412.462 362.316,412.403C360.936,412.381 353.137,408.433 352.852,408.243C350.247,407.935 347.265,409.637 346.559,410.075C341.013,413.511 342.029,415.422 338.297,418.934C338.297,418.934 325.786,431.836 325.458,432.083C311.907,442.304 282.242,462.24 276.074,506.721C279.397,503.037 279.248,500.552 283.674,494.702C286.223,491.333 290.296,490.674 293.235,486.205C293.955,485.11 294.012,485.076 295.291,484.803C295.307,484.799 297.729,485.243 297.734,485.25C298.199,485.928 298.951,486.484 299.122,487.288C299.465,488.905 296.33,497.1 295.438,498.49C284.664,515.277 283.864,516.9 278.18,523.572C278.006,524.86 270.236,529.848 269.334,531.681C268.317,533.747 267.71,537.036 267.996,539.913C268.446,540.385 268.594,542.625 268.759,543.697C268.87,544.417 266.621,549.086 264.783,549.256C262.919,549.428 249.878,561.337 242.924,576.623C242.449,577.667 243.197,575.726 257.43,563.121C259.552,561.242 260.576,561.254 262.515,560.089C265.541,550.952 278.179,540.337 289.011,541.753C302.005,543.451 303.253,564.089 303.249,577.228C307.49,595.615 310.397,608.576 292.303,630.732C290.267,633.225 272.869,660.482 259.473,648.892C262.585,654.923 264.815,655.669 269.456,660.873C276.757,669.059 280.157,681.741 281.973,695.918C285.635,724.515 280.967,730.209 298.879,745.978C301.813,748.561 307.333,756.129 313.342,756.383C320.796,756.699 328.892,749.134 332.421,746.65C335.971,744.152 337.51,742.173 339.165,739.045C333.344,733.364 325.956,719.166 325.815,718.953C323.457,715.4 291.231,705.475 284.175,685.186C284.013,684.944 282.351,677.38 282.497,673.396C282.997,659.701 291.46,645.471 295.226,640.773C305.36,628.128 318.632,634.418 341.572,627.612C346.395,626.181 368.86,623.67 385.266,640.98C398.58,655.026 400.375,678.4 388.907,692.109C371.437,712.993 359.079,715.819 338.321,718.072C336.243,718.297 333.663,718.755 336.969,723.243C365.85,762.448 399.868,738.321 416.609,726.793C423.73,721.89 448.55,719.658 459.3,709.791C472.061,698.078 489.828,699.124 490.966,699.356C532.174,707.75 516.407,731.275 518.864,753.633C519.179,756.498 526.678,752.22 529.961,749.059C539.741,739.646 543.426,736.694 543.533,736.632C544.243,736.218 544.85,735.5 545.665,735.392C545.682,735.39 548.08,736.037 548.084,736.045C548.495,736.757 549.202,737.37 549.31,738.185C549.418,739.003 548.986,739.813 548.684,740.58C548.611,740.765 545.095,745.337 544.779,745.748C522.168,775.157 513.972,776.266 509.674,777.954C509.569,777.995 509.472,778.043 509.372,778.092L509.361,778.074C509.075,778.163 508.79,778.281 508.505,778.4C506.438,780.886 504.032,783.19 501.274,785.26C496.885,788.556 481.514,800.042 464.628,800.301C458.997,800.387 453.608,798.741 448.531,795.953C447.002,796.237 444.693,796.638 444.397,796.689C409.922,802.674 384.951,803.68 365.897,801.431C349.46,799.491 334.746,789.815 324.815,784.136C329.895,811.354 333.64,866.046 331.134,883.835C326.396,917.463 312.047,932.24 306.868,978.827C304.931,996.255 315.767,1056.87 309.376,1076.58C296.175,1117.29 301.793,1159.13 303.848,1184.2ZM186.763,472.255C188.292,478.962 189.437,486.071 189.876,494.309C189.977,496.204 192.907,501.826 193.924,504.139C196.962,505.783 201.793,513.465 207.652,517.688C218.012,525.155 218.599,528.949 214.001,535.822C211.211,539.993 206.815,548.476 207.608,549.683C213.11,558.06 207.318,557.083 219.818,570.089C232.271,583.046 234.059,566.93 243.066,550.905C244.817,547.79 255.671,545.356 261.292,527.037C261.953,524.881 265.005,521.413 265.005,521.412C263.699,472.592 291.211,434.969 314.199,421.225C302.245,409.807 266.382,372.858 253.234,360.88C236.425,345.567 214.455,325.466 203.544,314.302C197.21,307.821 196.599,302.855 192.253,304.912C188.436,306.719 184.013,313.605 179.63,318.818C170.882,329.225 173.356,333.293 166.64,354.168C156.902,384.44 164.501,376.949 174.721,427.204C177.202,439.401 180.334,449.111 183.121,458.599C183.778,458.01 194.977,464.107 195.983,465.239C198.38,467.938 207.552,479.889 209.799,482.188C220.508,493.139 222.232,500.716 232.214,503.645C233.461,504.011 234.477,507.633 234.475,507.641C233.263,514.276 205.58,508.717 195.55,480.828C194.606,478.204 190.229,474.802 186.763,472.255ZM260.433,468.024C259.051,465.664 249.424,459.05 253.504,453.449C256.439,449.419 266.573,449.927 266.797,447.944C267.184,444.531 260.366,435.727 255.006,428.312C239.597,406.996 239.667,410.376 231.923,397.878C226.195,388.633 219.214,371.832 217.252,368.061C214.568,362.905 203.712,341.286 201.819,329.859C201.377,327.192 202.156,327.251 204.459,325.838C204.467,325.833 206.864,326.412 206.878,326.422C208.341,327.487 207.992,327.766 208.364,329.537C208.368,329.56 212.154,337.239 222.485,358.159C225.679,364.628 251.274,405.015 253.827,407.808C282.597,439.28 275.725,455.823 266.02,456.496C263.992,456.636 263.807,461.316 264.475,462.485C265.234,463.812 270.39,468.312 267.142,472.386C265.133,474.906 261.569,474.08 261.685,478.759C261.809,483.738 265.311,489.294 258.858,493.365C255.978,495.182 252.855,497.722 253.08,500.871C253.499,506.745 253.002,519.49 245.285,518.022C244.259,517.827 242.559,519.982 241.927,524.384C241.688,526.042 242.947,531.049 241.866,532.688C240.784,534.326 237.817,535.277 235.438,534.216C232.981,533.119 231.947,528.793 232.157,527.029C232.708,522.411 240.388,510.464 248.767,509.798C248.147,503.816 244.453,498.375 247.673,495.143C251.284,491.52 255.081,489.922 256.851,488.663C257.948,487.178 252.133,478.764 253.009,473.711C253.788,469.22 259.081,468.987 260.433,468.024ZM271.974,556.675C282.256,555.546 288.639,563.721 290.671,566.2C291.983,567.802 291.94,567.834 293.325,569.372C294.423,570.591 295.346,571.941 296.102,573.398C295.707,564.535 293.818,553.639 286.546,552.612C281.442,551.892 275.56,552.592 271.974,556.675ZM345.111,745.978C339.732,751.18 349.051,752.085 325.243,765.103C325.347,765.175 341.763,788.728 382.067,787.972C398.733,787.66 414.173,787.035 429.699,781.839C413.378,768.594 413.395,757.6 408.259,748.803C393.28,761.016 349.222,752.508 345.111,745.978ZM248.939,616.18C249.252,617.843 250.629,622.397 253.051,624.523C255.155,626.368 258.328,625.922 258.779,625.902C253.384,611.033 257.166,594.296 262.21,586.858C263.409,585.092 245.871,599.856 248.939,616.18ZM730.423,501.673C735.075,507.039 732.024,496.546 730.432,491.869C726.42,480.079 736.848,482.189 742.999,471.092C733.388,477.196 724.391,480.923 722.568,485.565C720.168,491.676 728.829,499.834 730.423,501.673ZM274.911,571.115C278.388,570.907 288.028,574.433 287.966,574.359C287.083,573.314 287.049,573.347 285.775,571.728C280.707,565.284 276.064,561.106 263.219,571.585C256.973,576.681 247.765,589.072 247.565,592.621C251.174,582.293 271.844,569.737 274.911,571.115ZM282.492,584.647C282.816,583.233 282.183,580.305 278.047,579.798C277.806,579.808 275.291,579.082 274.586,580.967C274.295,581.746 275.766,583.673 277.544,584.765C278.946,585.626 280.061,585.755 280.868,585.653C281.411,585.326 281.93,584.91 282.492,584.647ZM331.468,705.627C332.479,707.153 334.42,707.528 335.731,707.124C340.775,705.567 347.784,702.423 352.121,701.417C362.824,698.934 370.562,696.296 381.265,683.355C396.519,664.913 387.7,635.766 346.865,641.258C333.139,643.104 329.558,641.955 320.073,642.748C310.083,643.582 302.559,640.94 295.993,654.272C298.341,651.947 302.397,652.819 304.36,653.1C314.429,654.541 317.201,671.33 312.856,682.469C310.284,689.064 299.368,689.575 299.368,689.575C305.509,696.665 321.472,703.927 321.944,704.119C321.348,696.799 322.301,696.107 321.105,684.474C320.84,681.897 320.661,681.432 319.376,677.782C318.938,676.54 318.944,676.477 319.482,675.278C320.011,674.099 320.049,674.04 321.261,673.583C322.473,673.126 322.54,673.146 323.716,673.682C324.474,674.028 324.933,674.828 325.445,675.484C325.445,675.485 328.667,679.026 329.794,688.35C330.876,697.301 329.656,702.891 331.468,705.627ZM373.202,662.146C372.212,658.826 372.034,658.768 372.225,658.617C373.056,657.961 373.704,656.942 374.724,656.654C377.354,655.91 378.924,657.793 379.162,658.08C381.52,660.909 381.166,669.189 376.51,674.46C368.786,683.204 354.58,680.504 347.883,678.922C331.774,675.116 332.597,654.423 343.72,650.476C351.977,647.546 360.597,657.548 371.51,667.386C371.925,666.465 372.185,665.42 372.28,664.249C372.361,663.248 372.224,662.573 372.195,662.431C372.649,662.294 372.951,662.215 373.202,662.146ZM373.763,664.081L373.684,664.208L373.824,664.296L373.763,664.081ZM199.613,520.38C202.578,525.981 200.993,528.656 202.27,535.544C205.651,533.639 207.975,531.771 208.212,530.082L208.214,530.082C208.028,528.21 208.872,526.65 199.613,520.38ZM293.054,661.085C290.335,668.531 289.85,674.635 290.936,679.722C294.325,681.154 300.663,683.794 302.892,681.936C296.508,676.975 291.118,672.761 293.054,661.085ZM247.654,631.462C259.286,646.781 275.41,637.607 282.198,630.091C286.41,625.427 289.663,621.277 292.127,617.421C298.249,607.84 299.499,600.077 298.486,590.761C295.738,612.112 276.961,637.643 253.445,633.874C253.327,633.873 250.08,632.672 247.654,631.462ZM447.893,727.009C441.309,728.07 423.368,731.755 419.975,740.237C421.61,748.67 432.018,770.219 450.881,779.644C457.053,782.728 470.164,786.461 477.195,784.982C484.518,783.442 504.399,768.981 505.962,758.681C509.309,736.625 514.655,723.571 488.668,715.04C481.239,712.602 472.604,714.177 468.051,717.195C466.622,718.142 461.834,719.614 459.405,724.702C465.981,732.882 468.232,735.418 469.464,736.81C472.665,740.428 479.355,749.226 476.832,754.403C476.041,756.026 469.712,754.88 466.185,750.883C464.61,749.099 459.143,743.204 457.459,739.905C453.112,731.393 452.917,731.653 447.893,727.009ZM548.835,705.049C547.58,705.408 547.514,705.399 546.372,704.769C544.933,703.976 544.886,703.797 544.605,702.177C543.761,697.315 537,684.073 522.25,674.405C508.272,665.242 475.339,650.362 475.772,649.766C475.782,649.753 475.452,646.599 475.458,646.592C476.131,645.774 476.548,644.641 477.483,644.143C479.328,643.159 479.35,643.979 481.437,644.086C494.742,644.769 505.793,652.078 519.54,661.543C535.454,672.5 553.045,686.601 550.964,700.731C550.751,702.178 551.475,702.219 550.77,703.497C550.675,703.671 550.116,704.684 548.835,705.049ZM499.998,541.448C488.755,541.373 480.66,546.225 474.688,549.112C470.402,551.184 466.246,556.552 464.167,558.768C444.44,579.795 441.214,589.568 448.437,598.832C455.913,608.422 486.184,628.203 522.541,622.643C538.221,620.245 549.107,613.72 551.97,593.796C552.156,592.506 552.524,587.639 553.695,585.762C554.386,584.655 555.128,582.539 556.432,582.609C560.049,582.806 560.602,589.902 560.665,591.522C561.69,617.936 549.243,634.416 527.961,634.957C487.049,635.997 449.14,614.753 441.305,605.477C429.199,591.144 440.611,572.048 462.071,549.721C463.873,547.847 465.711,546.165 467.577,544.661C467.589,544.629 467.609,544.598 467.613,544.563C470.016,524.766 480.234,502.038 516.425,507.22C518.048,507.452 524.656,506.808 536.355,513.591C546.718,519.599 562.152,525.985 567.689,535.85C581.615,560.659 576.98,578.33 576.837,578.591C575.748,580.581 575.727,580.596 575.569,580.715C574.526,581.499 574.462,581.521 573.17,581.337C571.888,581.155 571.838,581.107 571.062,580.075C570.033,578.704 570.421,578.55 570.47,576.836C570.666,569.947 568.704,565.305 559.941,550.068C552.44,537.026 527.098,518.521 517.389,517.254C493.495,514.137 484.435,523.173 478.886,537.718C503.497,526.806 537.051,546.983 547.869,554.296C551.753,556.921 553.745,563.028 553.335,567.897C552.701,575.439 550.274,590.486 541.008,598.966C527.739,611.11 503.448,618.855 488.142,612.902C484.093,611.327 477.687,607.546 471.615,602.796C466.354,598.681 460.778,593.074 458.334,589.072C456.531,586.119 455.511,581.931 456.95,578.785C459.301,573.643 465.612,564.996 472.441,558.222C472.815,557.321 491.003,542.481 499.998,541.448ZM478.276,575.666C476.502,579.624 478.791,590.132 483.572,596.13C486.637,599.975 492.069,600.592 493.695,600.961C488.114,598.012 479.002,574.719 494.862,558.79C496.372,557.273 498.681,554.638 504.108,551.756C502.494,551.802 500.882,551.939 499.282,552.178C492.862,553.137 483.602,564.018 483.337,564.358C481.585,566.602 480.056,571.693 478.276,575.666ZM526.447,599.826C531.731,597.619 535.509,592.86 538.372,588.742C544.205,580.356 544.753,574.911 544.041,570.063C543.345,565.319 538.571,562.074 534.105,559.66C532.842,558.978 536.083,568.729 535.595,576.107C535.128,583.163 528.585,598.021 526.447,599.826ZM514.491,554.623C513.309,554.776 510.669,556.861 510.167,557.326C508.538,558.832 507.258,562.679 513.511,566.82C513.897,567.075 516.181,567.84 517.901,567.822C519.422,567.806 521.263,567.63 522.876,567.07C525.525,566.15 526.778,564.417 526.633,561.763C526.433,558.114 524.245,553.359 514.491,554.623ZM470.575,574.444C468.81,577.195 465.866,580.95 465.85,583.067C465.835,585.124 468.636,585.577 470.481,587.145C470.309,583.382 470.32,578.88 470.575,574.444ZM662.045,555.734C660.842,556.238 660.775,556.232 659.568,555.737C658.803,555.423 658.291,554.663 657.799,553.999C657.424,553.493 649.226,543.477 632.119,513.057C625.23,500.808 596.995,475.922 591.556,466.679C573.892,436.661 564.994,430.115 560.06,411.183C559.63,409.534 559.376,405.839 560.276,404.774C561.175,403.71 563.785,403.601 565.458,404.796C579.919,415.135 588.138,436.812 599.641,451.517C614.946,471.083 630.904,487.196 641.975,505.722C652.574,523.459 659.116,540.219 663.779,551.479C664.281,552.69 664.277,552.757 663.783,553.969C663.291,555.176 663.248,555.229 662.045,555.734ZM379.858,490.169C381.156,490.274 381.212,490.312 382.054,491.304C383.062,492.492 382.247,496.019 382.131,497.573C380.509,519.144 378.455,521.25 382.131,550.828C385.022,574.089 378.926,585.921 376.68,595.696C376.301,597.348 375.022,598.136 374.805,598.27C374.791,598.279 371.663,598.786 371.656,598.781C370.797,598.161 369.641,597.815 369.085,596.913C367.981,595.123 368.266,594.976 368.782,592.933C371.019,584.067 376.242,569.366 370.576,548.462C361.283,514.18 370.477,512.587 376.361,493.145C376.74,491.89 376.512,491.783 377.507,490.936C378.498,490.092 378.56,490.064 379.858,490.169ZM735.646,356.015C735.651,356.015 739.398,355.379 740.3,357.764C741.131,359.96 739.155,365.064 738.441,367.862C735.277,380.262 708.875,424.699 705.013,424.481C701.625,424.29 699.814,416.334 699.738,415.847C699.427,413.841 699.621,407.529 700.838,405.905C708.831,395.236 715.897,386.163 721.312,377.753C728.227,367.012 732.48,358.194 732.841,357.609C733.821,356.02 735.388,356.016 735.646,356.015ZM658.283,788.299C659.406,788.966 659.443,789.023 659.765,790.289C659.968,791.088 659.658,791.949 659.419,792.738C659.336,793.009 644.802,820.222 644.477,820.751C611.874,873.74 603.749,870.779 591.396,888.41C587.283,894.28 565.71,947.664 559.199,981.622C557.606,989.93 552.903,994.768 552.883,994.802C552.354,995.721 552.133,996.908 551.295,997.557C551.282,997.567 548.224,998.404 548.216,998.4C547.296,997.874 546.11,997.654 545.461,996.816C544.212,995.204 544.701,995.058 544.714,993.021C544.902,963.049 569.463,901.567 569.877,900.865C583.636,877.517 608.986,837.007 653.837,789.427C654.731,788.478 654.561,788.268 655.826,787.946C657.093,787.624 657.16,787.631 658.283,788.299ZM631.926,446.637C627.091,446.271 621.404,445.65 616.204,447.692C612.199,449.265 613.812,437.925 612.812,434.787C610.695,428.144 609.224,425.495 610.775,423.382C612.819,420.597 623.601,421.469 627.257,413.748C627.538,413.153 627.826,412.449 628.077,411.802C625.401,410.016 620.989,407.336 619.805,401.461C619.56,400.249 616.477,385.66 627.57,365.385C646.414,330.946 726.191,231.122 734.372,215.79C735.064,214.494 735.016,214.335 736.408,213.871C736.424,213.866 738.883,214.039 738.889,214.046C739.428,214.669 740.243,215.137 740.503,215.919C740.993,217.389 740.832,217.458 740.107,218.831C735.27,227.995 715.648,267.717 691.034,302.87C669.796,333.201 643.342,358.969 637.224,372.562C630.909,386.596 630.679,393.628 632.028,396.127C634.105,399.975 636.119,406.13 636.183,410.764C636.189,411.193 636.201,412.065 634.588,415.891C631.509,423.196 627.687,425.74 625.442,426.854C625.387,428.21 625.32,429.886 625.037,432.686C624.737,435.664 624.401,437.918 624.216,439.236C627.255,439.186 636.921,437.154 641.5,439.015C644.291,440.149 643.955,443.64 643.971,444.043C644.31,452.883 639.679,459.934 640.052,463.274C645.724,462.004 663.082,458.281 662.149,471.614C661.651,478.74 655.399,491.655 657.915,493.836C658.791,494.595 662.521,496.015 664.031,502.49C665.106,507.101 664.319,514.511 668.833,513.259C674.959,511.559 686.754,507.954 678.772,525.832C678.679,526.04 675.057,533.083 674.956,533.23C674.357,534.104 674.043,535.27 673.157,535.849C673.142,535.858 670.023,536.446 670.016,536.441C669.141,535.844 667.976,535.528 667.396,534.642C666.252,532.89 666.576,532.737 666.973,530.683C668.655,521.976 666.245,521.258 665.491,520.833C661.78,518.738 656.971,517.314 655.913,510.621C655.296,506.71 655.265,500.65 651.926,498.344C647.337,495.175 651.933,488.156 650.548,480.082C649.432,473.581 645.65,469.293 644.377,472.721C642.34,478.209 633.467,476.737 631.31,475.469C628.874,474.038 628.667,467.658 628.469,466.201C627.944,462.32 632.149,456.625 631.926,446.637ZM331.528,425.519C331.494,425.522 331.528,425.519 331.528,425.519L331.528,425.519Z"/>
                        </g>
                    </g>
                </g>
            </g>
        </g>
    </g>
</svg>
