<?xml version="1.0" encoding="UTF-8" standalone="no"?>
<!DOCTYPE svg PUBLIC "-//W3C//DTD SVG 1.1//EN" "http://www.w3.org/Graphics/SVG/1.1/DTD/svg11.dtd">
<svg width="100%" height="100%" viewBox="0 0 946 1182" version="1.1" xmlns="http://www.w3.org/2000/svg" xmlns:xlink="http://www.w3.org/1999/xlink" xml:space="preserve" xmlns:serif="http://www.serif.com/" style="fill-rule:evenodd;clip-rule:evenodd;stroke-linejoin:round;stroke-miterlimit:2;">
    <g transform="matrix(1,0,0,1,-3092,-1406)">
        <g id="site_buldogue" transform="matrix(0.26936,0,0,0.47619,3092.42,1406.58)">
            <rect x="0" y="0" width="3507.87" height="2480.32" style="fill:rgb(105,152,205);"/>
            <g id="buldogue" transform="matrix(3.7125,0,0,3.04563,-11756.4,-1116.89)">
                <g id="contorno" transform="matrix(1.11491,0,0,0.753004,871.778,316.414)">
                    <path d="M2719.92,1148.32L2220.64,1148.32C2219.19,1138.4 2203.67,1058.93 2229.46,958.153C2240.78,913.923 2261.15,862.885 2284.82,832.165C2309.24,800.458 2330.77,768.055 2338.66,756.03C2337.65,754.444 2336.63,752.819 2335.59,751.153C2330.66,743.209 2327.12,732.695 2321.62,723.963C2313.99,711.862 2300.27,702.701 2290.22,681.088C2276.59,651.768 2281.95,650.077 2291.62,622.071C2295.88,609.723 2297.09,591.707 2300.81,582.659C2313.51,551.718 2312.6,542.489 2312.24,528.625C2312.16,525.572 2315.57,510.96 2315.56,510.401C2314.99,476.763 2336.62,437.084 2364.63,428.04C2368.76,401.859 2400.39,344.09 2426.63,370.442C2432.99,376.831 2447.8,388.126 2452.37,394.669C2477.49,393.909 2500.07,403.294 2500.03,405.344C2500.03,405.514 2530.84,395.232 2557.64,398.204C2574.25,400.046 2583.57,408.143 2598.94,419.554C2604.42,423.624 2613.28,433.416 2624.07,439.425C2627.83,436.789 2633.14,434.108 2635.68,432.721C2682.94,406.931 2715.51,416.437 2734.21,439.546C2772.3,486.602 2731.27,581.257 2701.41,598.732C2701.44,599.255 2701.47,599.791 2701.5,600.338C2702.78,621.128 2706.42,644.238 2705.57,665.509C2704.88,682.532 2699.32,701.041 2699.25,713.143C2699.16,728.646 2687.69,745.008 2679.6,755.595C2672.35,765.074 2663.38,773.638 2653.44,781.269C2654.78,793.602 2658.01,813.818 2668.26,832.165C2684.95,862.063 2694.17,890.374 2701.34,906.479C2706.2,917.372 2720.86,989.405 2721.65,994.61C2726.7,1027.83 2720.98,1147.72 2719.92,1148.32Z" style="fill:white;"/>
                </g>
                <g id="linhas" transform="matrix(1,0,0,0.689512,1110.54,366.718)">
                    <path d="M2237.04,1181.1C2235.43,1170.27 2218.13,1083.49 2246.89,973.427C2259.51,925.124 2282.21,869.386 2308.6,835.837C2335.84,801.211 2359.83,765.824 2368.63,752.691C2367.51,750.959 2366.37,749.184 2365.21,747.365C2359.72,738.69 2355.76,727.208 2349.63,717.671C2341.13,704.456 2325.83,694.452 2314.62,670.849C2299.43,638.829 2305.41,636.981 2316.18,606.397C2320.93,592.912 2322.28,573.237 2326.43,563.356C2340.6,529.566 2339.58,519.487 2339.18,504.346C2339.09,501.012 2342.89,485.055 2342.88,484.444C2342.24,447.708 2366.36,404.375 2397.59,394.499C2402.19,365.907 2437.45,302.819 2466.71,331.598C2473.8,338.575 2490.31,350.909 2495.41,358.056C2523.41,357.225 2548.59,367.474 2548.54,369.713C2548.54,369.899 2582.89,358.67 2612.77,361.916C2631.29,363.927 2641.68,372.77 2658.82,385.231C2664.93,389.676 2674.8,400.37 2686.84,406.932C2691.03,404.054 2696.95,401.125 2699.78,399.611C2752.47,371.446 2788.78,381.828 2809.64,407.064C2852.1,458.453 2806.36,561.825 2773.07,580.908C2773.1,581.481 2773.13,582.065 2773.17,582.663C2774.59,605.367 2778.65,630.605 2777.7,653.835C2776.93,672.425 2770.73,692.639 2770.66,705.855C2770.56,722.786 2757.77,740.654 2748.74,752.216C2740.67,762.568 2730.66,771.921 2719.58,780.254C2721.08,793.723 2724.68,815.801 2736.1,835.837C2754.72,868.488 2764.99,899.406 2772.99,916.994C2778.4,928.891 2794.75,1007.56 2795.63,1013.24C2801.26,1049.52 2794.88,1180.45 2793.7,1181.1L2773.93,1181.1C2772.14,1150.76 2799.13,1061.07 2768.99,968.363C2752.4,917.34 2727.04,868.272 2712.5,829.038C2705.48,849.64 2693.83,860.485 2686.48,857.006C2684.32,855.983 2691.73,841.693 2699.99,826.616C2703.47,820.254 2704.82,813.444 2705.26,805.092C2705.61,798.607 2704.18,797.059 2701.76,794.536C2682.56,806.597 2644.43,807.551 2603.89,824.231C2576.9,835.338 2547.83,844.11 2519.78,845.135C2488.68,846.272 2456.72,836.369 2438.02,828.673C2430.91,825.746 2404.43,811.62 2380.32,771.235C2377.34,771.926 2362.47,783.815 2354.19,797.275C2349.12,805.516 2324.13,843.395 2310.39,865.604C2293.1,893.562 2287.76,926.109 2277.26,958.432C2257.66,1018.77 2241.67,1080.81 2248.46,1128.3C2250.92,1145.54 2261.73,1171.29 2262.49,1181.1L2237.04,1181.1ZM2540.5,1029.72C2538.11,1033.29 2531.22,1032.41 2532.1,1022.39C2533.69,1004.33 2528.88,988.956 2569.91,940.287C2592.83,913.085 2610.33,859.225 2630.93,836.829C2634.38,833.089 2634.75,850.35 2627.32,865.736C2619.7,881.514 2615.89,900.834 2593.88,930.484C2540.44,1002.47 2541.32,1028.5 2540.5,1029.72ZM2449.04,997.764C2451.12,1010.83 2442.69,1024.88 2440.24,1014.48C2435.59,994.754 2436.6,989.061 2425.66,956.596C2415.47,926.379 2409.28,923.326 2395.64,899.225C2389.31,888.033 2373.31,834.522 2369.67,819.692C2366.72,807.68 2379.75,817.888 2384.24,823.834C2388.75,829.819 2392.61,838.609 2396.28,863.099C2400.84,893.524 2428.61,913.98 2437.68,940.393C2447.85,970.044 2448.71,995.711 2449.04,997.764ZM2372.88,473.634C2375.38,468.901 2377.62,465.327 2381.22,462.156C2384.79,459.013 2388.01,455.878 2390.85,452.84C2388.4,448.365 2382.7,449.547 2379.73,450.407C2374.55,451.905 2371.13,459.182 2370.24,463.665C2369.55,467.159 2371.25,470.85 2372.88,473.634ZM2768.71,517.447C2774.32,512.876 2784.93,486.879 2787.07,464.18C2790.05,432.512 2775.38,430.632 2756.81,424.909C2723.36,414.601 2720.43,417.213 2715.96,424.673C2744.08,450.746 2748.73,460.947 2756.63,493.759C2759.8,506.935 2763.1,522.017 2768.71,517.447ZM2773.2,565.349C2784.89,554.243 2806.93,529.023 2809.28,471.799C2810.57,440.532 2792.38,403.965 2772.42,398.065C2729.9,385.496 2709.92,403.587 2698.26,412.983C2701.56,414.697 2704.34,416.113 2706.22,417.099C2710.39,413.654 2715.1,408.38 2718.37,407.425C2759.23,395.484 2782.96,407.94 2794.3,435.837C2808.95,471.873 2784.95,520.059 2772.39,544.747C2773.38,548.813 2773.92,552.551 2773.82,556.097C2773.74,558.891 2773.44,561.8 2773.2,565.349ZM2353.6,470.454C2352.26,474.116 2351.42,477.318 2351.23,479.627C2351.02,482.3 2352.93,509.028 2365.76,486.43C2361.2,485.124 2354.76,479.6 2353.6,470.454ZM2670.55,413.189C2675.08,413.89 2650.4,400.29 2642.81,395.379C2626.12,384.59 2618.88,380.261 2607.25,378.784C2577.43,374.996 2567.06,385.001 2547.22,385.809C2526.37,386.659 2510.48,366.683 2477.33,372.145C2457.56,375.403 2430.85,400.711 2429.25,402.244C2426.49,404.897 2424.18,406.252 2418.77,404.721C2411.11,402.551 2391.74,402.502 2374.2,425.754C2381.19,423.193 2383.53,419.949 2390.91,417.824C2409.91,412.351 2422.36,420.222 2410.48,440.173C2407.06,445.911 2397.63,455.471 2390.92,463.968C2368.58,492.218 2380.94,480.119 2368.48,497.776C2357.8,512.9 2353.16,507.141 2350.09,501.372C2349.71,515.39 2348.59,545.012 2334.42,578.802C2330.28,588.683 2332.11,596.179 2328.14,609.914C2319.2,640.86 2312.75,630.102 2326.49,661.835C2344.37,703.111 2367.67,719.979 2377.47,742.431C2418.74,836.883 2537.95,832.733 2581.88,814.525C2638.14,791.202 2693.32,793.263 2739.1,739.358C2747.86,729.041 2755.63,723.112 2755.73,706.182C2755.8,692.966 2765.2,675.78 2765.96,657.189C2766.91,633.959 2758.57,607.608 2757.15,584.904C2756.31,571.481 2762.94,560.253 2758.14,550.951C2751.51,538.077 2757.66,522.486 2745.36,493.759C2738.98,467.253 2736.17,464.181 2719.42,448.364C2725.36,460.782 2724.56,469.395 2724.67,477.065C2724.75,483.039 2721.3,495.476 2720.06,494.384C2717.27,491.928 2717.13,449.72 2696.35,431.137C2677.14,413.955 2648.54,432.415 2644.45,430.351C2640.37,428.287 2656.47,411.011 2670.55,413.189ZM2528.07,456.419C2515.86,454.417 2514.76,453.401 2511.54,449.834C2507.81,445.691 2512.53,424.915 2519.78,435.549C2524.23,442.089 2519.93,441.97 2528.07,442.622C2542.62,443.787 2543.64,450.946 2540.82,454.36C2539.62,455.816 2535.08,457.569 2528.07,456.419ZM2541.7,437.715C2535.77,434.323 2522.99,427.911 2516.27,428.892C2509.45,429.887 2506.38,430.747 2502.95,435.801C2497.83,443.359 2496.78,454.314 2492.41,472.378C2486.16,498.159 2486.52,516.542 2487.25,527.445C2487.6,532.704 2484.84,538.677 2483.54,535.254C2469.46,498.04 2480.43,462.544 2489.93,438.187C2494.41,426.7 2466.26,425.254 2456.74,440.74C2455.6,442.585 2466.26,447.515 2469.25,440.095C2474.73,426.512 2484.91,443.22 2480.08,448.991C2475.58,454.371 2452.04,458.61 2443.45,459.437C2433.92,467.006 2422.76,475.78 2394.86,508.83C2383.87,521.848 2365.99,541.334 2358.4,548.478C2356.1,550.645 2353.08,549.832 2353.07,548.646C2353.05,547.334 2353.29,545.791 2354.1,544.917C2369.03,528.725 2374.04,513.333 2386.52,497.12C2402.81,475.949 2419.17,464.397 2436.31,450.612C2453.02,437.174 2456.11,409.6 2495.73,424.442C2500.63,426.279 2511.68,416.411 2522.8,416.998C2526.82,417.21 2531.64,421.462 2535.68,423.393C2551.46,430.937 2548.19,422.805 2557.81,421.59C2561.7,421.099 2584.76,421.403 2594.99,428.785C2606.04,436.75 2615.7,459.796 2624.09,469.377C2638.83,486.204 2647.03,497.644 2659.38,517.903C2662.47,522.989 2675.03,557.668 2682.45,567.641C2683.73,569.37 2683.93,571.565 2683.68,573.676C2683.45,575.746 2678.17,573.661 2678.17,573.661C2668.34,557.809 2642.03,512.905 2615.74,478.373C2594.86,450.949 2581.02,434.717 2565.43,436.201C2561.24,436.599 2561.1,437.024 2557.09,437.932C2564.29,447.189 2561.8,459.608 2558.19,459.787C2556.09,459.891 2554.42,454.072 2551.85,449.244C2548.81,443.546 2546.14,440.257 2541.7,437.715ZM2644.05,475.358C2641.93,474.35 2633.45,468.775 2633.36,462.553C2632.91,431.466 2668.84,423.589 2683.79,436.746C2687.43,439.945 2690.35,441.91 2693.07,444.795C2702.98,455.308 2709.42,466.631 2709.99,478.023C2710.52,488.513 2707.16,499.346 2703.34,502.098C2690.81,516.019 2657.34,481.741 2644.05,475.358ZM2664.72,453.425C2661.85,452.797 2657.75,454.234 2655.49,456.841C2647.07,466.526 2658.49,474.962 2658.52,474.978C2670.18,480.457 2673.49,472.474 2672.2,469.468C2671.26,467.271 2671.73,462.093 2670.49,459.419C2669.32,456.906 2667.59,454.053 2664.72,453.425ZM2680.86,491.021C2687.99,495.109 2690.29,496.817 2696.26,492.708C2699.7,490.346 2703.47,487.911 2700.72,475.817C2699.08,468.658 2700.09,474.39 2696.38,467.917C2699.2,477.926 2691.74,488.975 2680.86,491.021ZM2599.88,486.168C2606.54,490.784 2618.59,499.488 2641.89,534.409C2651.78,549.219 2665.72,577.809 2685.8,605.234C2690.29,611.378 2676.63,610.726 2668.98,596.987C2658.99,579.036 2642.25,553.815 2624.6,529.782C2605.34,503.556 2591.38,480.275 2599.88,486.168ZM2394.16,715.49C2377.89,715.965 2347.84,713.337 2329.74,645.521C2328.18,639.673 2329.49,636.549 2331.65,640.373C2341.07,657.05 2352.36,655.23 2362.29,651.559C2377.91,645.79 2391.03,626.824 2398.79,627.508C2424.61,629.783 2452.21,548.51 2487.22,541.109C2493.06,539.875 2510.5,546.392 2528.07,565.073C2534.18,571.574 2539.52,581.726 2545.92,590.551C2602.23,668.219 2650.41,695.755 2662.08,698.588C2695.19,706.621 2707.36,687.257 2721.37,682.604C2731.53,679.227 2736.69,693.798 2735.36,704.09C2733.27,720.35 2713.58,738.48 2703.79,747.55C2696.63,754.185 2691.07,756.41 2676.63,758.512C2643.98,763.269 2642.92,777.493 2623.88,770.471C2601.03,762.048 2582.7,741.495 2559.45,741.093C2548.59,740.906 2531.51,737.022 2519.78,745.42C2491.72,765.486 2436.57,784.374 2406.85,736.054C2404.11,731.595 2396.75,719.662 2394.16,715.49ZM2718.17,706.754C2715.38,701.494 2698.22,714.384 2681.48,716.684C2643.16,721.948 2631.89,685.279 2613.45,704.043C2594.62,723.214 2601.09,716.528 2582.54,727.46C2614.89,736.06 2601.82,741.597 2617.93,749.268C2623.23,751.789 2630.64,753.291 2637.2,753.344C2644.3,753.4 2649.72,755.196 2660.5,749.606C2680.42,739.274 2688.51,742.247 2698.12,735.105C2707.41,728.202 2722.99,715.84 2718.17,706.754ZM2366.35,665.309C2362.21,661.192 2354.09,669.183 2348.89,664.02C2348.01,663.154 2346.62,663.028 2346.73,664.085C2348.62,682.787 2365.51,694.618 2387.39,702.334C2384.23,695.147 2372.77,671.695 2366.35,665.309ZM2459.18,724.26C2454.08,724.073 2453.6,720.539 2452.19,709.364C2451.21,701.686 2454.36,689.851 2464.42,670.441C2465.36,668.629 2469.39,660.199 2467.11,655.149C2464.64,649.689 2457.76,646.324 2449.87,645.02C2438.51,643.145 2381.34,646.89 2382.24,659.275C2383.59,677.672 2403.64,708.204 2405.39,711.025C2427.62,747.053 2466.78,762.66 2502.51,740.51C2528.35,724.493 2548.84,731.365 2578.6,712.957C2593.6,703.678 2611.02,690.913 2604.43,679.606C2601.68,674.901 2598.65,668.501 2574.47,656.313C2552.21,645.093 2524.4,643.653 2499.76,651.527C2484.24,656.485 2484.03,658.354 2478.1,666.589C2461.87,689.107 2462.28,707.571 2462.49,712.855C2462.77,720.316 2460.67,724.315 2459.18,724.26ZM2372.42,439.016C2383.8,432.607 2393.2,432.385 2399.86,436.038C2405.73,424.522 2402.8,422.295 2380.04,433.156C2377.52,434.357 2374.95,436.409 2372.42,439.016ZM2483.34,359.109C2485.61,358.701 2456.78,336.083 2439.85,343.993C2421.68,352.482 2414.66,379.604 2409.28,392.452C2410.79,392.399 2412.31,392.429 2413.84,392.544C2417.16,392.794 2450.69,364.97 2483.34,359.109Z"/>
                </g>
            </g>
        </g>
    </g>
</svg>
