<?xml version="1.0" encoding="UTF-8" standalone="no"?>
<!DOCTYPE svg PUBLIC "-//W3C//DTD SVG 1.1//EN" "http://www.w3.org/Graphics/SVG/1.1/DTD/svg11.dtd">
<svg width="100%" height="100%" viewBox="0 0 946 1182" version="1.1" xmlns="http://www.w3.org/2000/svg" xmlns:xlink="http://www.w3.org/1999/xlink" xml:space="preserve" xmlns:serif="http://www.serif.com/" style="fill-rule:evenodd;clip-rule:evenodd;stroke-linejoin:round;stroke-miterlimit:2;">
    <rect id="site_poodle" x="0.433" y="0.583" width="944.882" height="1181.1" style="fill:rgb(172,148,143);"/>
    <g id="poodle">
        <path d="M695.576,1181.68L182.91,1181.68C188.563,1159.97 205.572,1119.41 232.26,1072.39C247.493,1045.54 269.882,1020.19 282.652,999.264C278.962,998.081 275.614,996.61 272.679,995.04C269.156,1005.16 250.39,1012.97 240.887,1008.65C220.613,999.431 218.26,976.47 216.932,951.799C203.192,954.261 191.315,946.089 191.531,930.774C184.575,932.568 166.193,925.911 162.854,895.707C160.44,873.869 155.823,882.22 150.027,861.192C149.877,860.65 149.584,858.13 149.247,855.817C147.278,857.869 145.947,858.932 143.55,863.761C138.491,873.953 119.3,873.332 121.71,855.817C125.949,825.004 140.268,812.777 140.099,808.473C139.91,803.671 135.278,789.02 153.091,753.907C146.483,751.22 135.072,734.874 148.342,720.758C168.785,699.014 166.856,700.884 182.686,676.099C178.037,663.302 178.587,645.868 187.502,635.207C166.459,629.328 173.642,593.987 187.062,595.636C192.309,596.282 200.442,613.947 209.868,602.321C219.414,590.548 223.534,589.727 228.295,579.262C234.379,565.891 234.69,541.326 234.69,541.326C231.331,541.788 188.489,519.215 209.275,498.023C193.453,496.737 192.249,476.789 201.583,465.074C204.218,461.766 199.985,453.768 207.568,440.873C186.29,424.159 217.034,368.845 244.471,365.147C233.814,350.131 239.684,323.702 271.401,340.635C276.451,343.331 271.345,336.827 269.31,331.536C262.236,313.142 267.707,303.705 274.84,289.515C264.765,267.33 281.731,242.067 324.034,250.314C321.86,245.814 310.767,234.061 326.018,231.202C335.281,229.465 366.196,234.477 383.247,227.67C400.325,220.853 409.173,193.122 428.458,189.081C450.262,184.512 493.712,200.989 514.157,200.341C527.871,199.907 529.135,191.912 553.719,188.972C567.624,187.31 573.859,189.996 577.784,200.341C580.573,207.691 581.242,216.888 578.072,226.524C582.551,226.217 627.546,213.264 646.952,253.001C654.536,268.53 695.572,239.329 694.474,286.948C694.454,287.811 695.025,292.336 705.182,285.565C717.587,277.295 720.563,311.044 720.329,311.51C765.536,354.006 750.191,377.529 749.041,397.288C748.993,398.11 808.32,428.039 775.157,475.415C769.603,483.35 756.904,482.161 761.111,492.533C769.374,512.904 757.412,520.996 749.103,525.774C752.05,536.444 744.855,539.786 742.83,546.822C733.833,578.089 773.532,616.228 767.47,634.013C748.989,688.233 791.099,676.695 794.634,703.467C797.067,721.89 789.526,726.621 805.21,737.942C820.972,749.319 829.75,803.993 820.235,821.079C812.937,834.185 788.017,812.556 787.846,811.426C783.693,818.509 780.933,821.716 785.883,826.666C796.556,837.339 779.866,843.141 795.207,873.312C803.568,889.756 795.729,904.595 790.77,911.378C802.402,934.434 824.379,959.622 818.481,969.877C815.958,974.262 793.192,985.639 794.263,1006.01C794.675,1013.86 795.146,1020.76 787.846,1017.56C779.692,1013.99 776.255,1008.33 770.494,1010.68C763.512,1013.53 751.323,1032.16 745.951,1034.66C742.379,1036.32 739.231,1027.69 738.264,1025.68C728.234,1038.79 722.981,1047.35 715.382,1029.97C713.351,1025.32 711.858,1020.14 710.775,1014.74C702.975,1023.91 698.525,1032.8 693.11,1031.01C688.123,1029.36 684.762,1023.75 682.782,1017.3C667.209,1028.42 643.428,1025.44 635.676,1004.07C634.313,1005.11 632.92,1006.12 631.797,1007.31C669.902,1079.33 707.037,1143.73 696.799,1178.24C696.807,1179.37 696.408,1180.52 695.576,1181.68Z" style="fill:white;"/>
        <path id="linhas" d="M606.928,1181.68L627.486,1181.68C637.4,1158.87 659.436,1120.91 644.211,1064.56C675.817,1132.22 677.014,1161.33 679.655,1181.68L695.576,1181.68C709.585,1148.14 671.21,1081.8 631.797,1007.31C632.92,1006.12 634.313,1005.11 635.676,1004.07C643.428,1025.44 667.209,1028.42 682.782,1017.3C684.762,1023.75 688.123,1029.36 693.11,1031.01C698.525,1032.8 702.975,1023.91 710.775,1014.74C711.858,1020.14 713.351,1025.32 715.382,1029.97C722.981,1047.35 728.234,1038.79 738.264,1025.68C739.231,1027.69 742.379,1036.32 745.951,1034.66C751.323,1032.16 763.512,1013.53 770.494,1010.68C776.255,1008.33 779.692,1013.99 787.846,1017.56C795.146,1020.76 794.675,1013.86 794.263,1006.01C793.192,985.639 815.958,974.262 818.481,969.877C824.379,959.622 802.402,934.434 790.77,911.378C795.729,904.595 803.568,889.756 795.207,873.312C779.866,843.141 796.556,837.339 785.883,826.666C780.933,821.716 783.693,818.509 787.846,811.426C788.017,812.556 812.937,834.185 820.235,821.079C829.75,803.993 820.972,749.319 805.21,737.942C789.526,726.621 797.067,721.89 794.634,703.467C791.099,676.695 748.989,688.233 767.47,634.013C773.532,616.228 733.833,578.089 742.83,546.822C744.855,539.786 752.05,536.444 749.103,525.774C757.412,520.996 769.374,512.904 761.111,492.533C756.904,482.161 769.603,483.35 775.157,475.415C808.32,428.039 748.993,398.11 749.041,397.288C750.191,377.529 765.536,354.006 720.329,311.51C720.563,311.044 717.587,277.295 705.182,285.565C695.025,292.336 694.454,287.811 694.474,286.948C695.572,239.329 654.536,268.53 646.952,253.001C627.546,213.264 582.551,226.217 578.072,226.524C581.242,216.888 580.573,207.691 577.784,200.341C573.859,189.996 567.624,187.31 553.719,188.972C529.135,191.912 527.871,199.907 514.157,200.341C493.712,200.989 450.262,184.512 428.458,189.081C409.173,193.122 400.325,220.853 383.247,227.67C366.196,234.477 335.281,229.465 326.018,231.202C310.767,234.061 321.86,245.814 324.034,250.314C281.731,242.067 264.765,267.33 274.84,289.515C267.707,303.705 262.236,313.142 269.31,331.536C271.345,336.827 276.451,343.331 271.401,340.635C239.684,323.702 233.814,350.131 244.471,365.147C217.034,368.845 186.29,424.159 207.568,440.873C199.985,453.768 204.218,461.766 201.583,465.074C192.249,476.789 193.453,496.737 209.275,498.023C188.489,519.215 231.331,541.788 234.69,541.326C234.69,541.326 234.379,565.891 228.295,579.262C223.534,589.727 219.414,590.548 209.868,602.321C200.442,613.947 192.309,596.282 187.062,595.636C173.642,593.987 166.459,629.328 187.502,635.207C178.587,645.868 178.037,663.302 182.686,676.099C166.856,700.884 168.785,699.014 148.342,720.758C135.072,734.874 146.483,751.22 153.091,753.907C135.278,789.02 139.91,803.671 140.099,808.473C140.268,812.777 125.949,825.004 121.71,855.817C119.3,873.332 138.491,873.953 143.55,863.761C145.947,858.932 147.278,857.869 149.247,855.817C149.584,858.13 149.877,860.65 150.027,861.192C155.823,882.22 160.44,873.869 162.854,895.707C166.193,925.911 184.575,932.568 191.531,930.774C191.315,946.089 203.192,954.261 216.932,951.799C218.26,976.47 220.613,999.431 240.887,1008.65C250.39,1012.97 269.156,1005.16 272.679,995.04C275.614,996.61 278.962,998.081 282.652,999.264C269.882,1020.19 247.493,1045.54 232.26,1072.39C205.572,1119.41 188.563,1159.97 182.91,1181.68L199.411,1181.68C228.64,1140.74 219.951,1121.07 300.399,1002.21C311.126,1003.42 315.516,1003.9 328.582,996.292C329.236,995.911 329.865,995.491 330.466,995.04C334.483,1001.58 352.374,1013.38 368.866,1004.07C382.018,996.651 403.562,1027.94 422.509,1024.47C431.314,1022.87 427.744,1009.08 433.395,999.264C438.255,990.819 456.098,986.786 459.344,977.425C462.708,967.723 463.206,962.309 461.167,957.018C472.415,955.333 487.732,942.452 475.31,917.699C474.79,916.663 468.376,910.482 465.764,906.491C474.021,871.862 474.995,870.416 464.98,854.754C442.49,819.583 488.289,797.351 464.925,760.122C461.475,754.623 462.69,744.241 462.638,736.365C472.874,744.217 497.293,749.515 500.105,749.826C515.404,764.218 539.758,769.357 548.413,772.886C535.523,809.398 554.677,908.693 585.149,952.481C599.842,973.594 608.169,994.417 618.354,1012.97C639.118,1101.6 625.722,1127.51 622.365,1137.98C616.36,1156.7 606.871,1172.19 606.928,1181.68ZM500.774,1181.68C500.437,1100.47 501.289,1097.77 488.851,1056.19C474.194,1034.31 483.471,1081.46 483.69,1083.73C488.655,1135.18 475.856,1136.76 479.153,1181.68L500.774,1181.68ZM617.472,506.479C619.061,506.172 621.571,506.539 622.941,508.123C625.846,511.48 626.118,516.524 620.615,517.955C617.016,518.891 610.372,515.577 613.41,509.966C613.541,509.724 615.884,506.787 617.472,506.479ZM401.139,527.762C407.328,520.32 417.457,490.769 420.418,486.489C440.548,457.388 477.023,481.459 491.567,481.93C505.611,482.385 515.191,468.754 515.877,467.653C514.4,511.468 557.096,465.491 559.9,460.629C570.554,469.074 600.089,452.78 598.431,466.504C596.743,480.479 604.886,483.444 613.301,486.931C599.601,490.194 601.312,505.647 602.528,512.368C603.819,519.509 615.077,539.183 633.349,531.447C639.492,528.847 648.932,521.546 639.028,508.006C635.121,502.665 622.21,493.399 609.03,500.014C614.757,487.543 631.515,495.708 632.458,496.684C644.089,508.716 652.729,514.198 642.474,547.438C631.237,583.863 629.447,591.314 628.486,601.95C621.115,588.171 613.267,578.728 612.328,557.773C611.821,546.47 598.11,567.566 603.711,578.891C603.886,579.245 631.788,622.108 632.458,643.135C625.437,635.556 606.666,629.924 593.647,630.025C577.49,630.149 560.138,636.04 557.749,636.976C552.372,639.084 522.049,652.956 542.314,692.803C559.768,727.123 636.725,729.645 641.454,681.943C648.268,704.366 642.742,699.445 637.667,712.773C632.237,727.036 635.647,728.676 628.215,734.423C622.983,738.468 612.737,735.376 595.401,729.363C580.338,724.139 538.916,732.406 515.253,732.976C493.314,733.504 472.116,727.849 464.193,722.199C463.857,708.051 463.885,699.458 458.005,684.55C463.766,670.9 470.731,668.172 475.31,662.084C479.55,656.446 471.509,657.393 469.576,657.852C467.336,658.383 457.632,660.966 452.206,671.954C447.768,662.78 443.218,657.874 434.539,651.155C435.882,643.882 438.826,627.446 426.375,619.837C382.728,593.164 411.584,557.425 412.77,553.735C414.925,547.03 405.499,534.515 401.139,527.762ZM467.372,502.614C458.644,493.875 442.864,476.617 419.956,510.664C416.026,516.505 419.816,519.29 425.84,522.725C427.736,523.807 442.814,531.092 454.506,529.131C465.798,527.237 468.008,525.983 475.31,516.959C474.818,516.019 475.786,491.975 467.558,483.389C454.805,470.081 416.343,484.976 421.238,495.079C423.699,500.159 453.073,470.886 466.702,498.525C467.65,500.447 468.13,503.374 467.372,502.614ZM435.718,519.935C432.245,518.996 418.143,514.528 428.785,506.283C428.774,506.317 428.765,506.351 428.757,506.384C427.625,511.189 431.016,516.433 435.718,519.935ZM449.119,502.098C450.36,502.579 453.801,504.953 453.373,508.232C451.795,520.321 439.137,513.901 439.05,508.26C438.936,500.978 444.666,500.371 449.119,502.098ZM453.618,522.367C457.881,520.904 462.363,517.545 463.508,504.664C465.836,507.661 467.192,510.727 470.211,515.46C465.971,520.376 459.648,522.081 453.618,522.367ZM642.223,526.19C640.677,530.569 635.935,543.458 615.503,534.041C609.031,531.058 622.941,553.1 637.071,542.835C647.311,535.395 643.136,526.005 642.223,526.19ZM466.495,529.534C464.463,530.42 446.844,535.533 438.404,533.659C437.56,533.472 430.245,533.155 427.111,530.001C423.531,526.399 420.604,521.652 418.082,522.327C411.643,555.074 469.751,538.98 466.495,529.534ZM498.28,616.561C500.464,613.76 518.035,602.897 514.157,577.342C510.183,551.152 503.509,520.113 502.073,546.606C501.832,551.05 502.311,577.576 502.073,582.936C501.124,604.221 490.485,621.48 498.28,616.561ZM159.589,742.124C156.508,734.32 159.685,729.334 168.02,719.667C185.173,699.775 177.921,701.889 195.482,682.925C201.455,676.475 189.76,662.54 201.583,643.135C207.432,644.282 214.183,639.144 223.523,632.58C242.095,619.53 197.401,647 187.502,616.988C185.218,610.062 197.448,627.567 209.868,622.451C214.811,620.416 223.079,608.315 230.239,602.321C237.945,595.87 249.005,590.965 251.741,584.321C253.087,581.05 240.935,543.927 259.794,527.327C261.364,528.404 261.77,527.985 263.718,531.447C267.138,537.528 283.395,537.021 287.629,543.581C301.141,564.519 303.079,572.382 326.018,558.53C329.469,556.446 334.254,553.749 334.052,556.555C333.745,560.807 331.844,572.278 331.351,584.321C330.717,599.799 335.917,621.047 340.101,618.192C343.339,615.983 338.793,599.975 341.642,576.717C343.688,560.016 354.736,550.74 352.465,547.243C364.018,551.758 379.393,549.627 395.06,534.348C404.598,552.086 405.826,538.603 388.767,577.342C382.674,591.181 394.149,609.543 416.207,627.088C423.068,632.546 426.196,637.157 424.419,643.369C421.999,641.917 423.005,642.827 420.099,642.084C390.015,634.4 449.628,672.829 451.774,700.689C453.242,719.739 442.974,747.041 445.331,752.956C454.267,775.383 465.204,776.815 455.388,799.512C441.049,832.671 436.283,842.477 452.493,862.698C460.829,873.097 457.902,883.679 455.388,894.527C452.021,891.79 444.792,891.795 439.491,890.172C437.293,901.31 466.723,917.549 463.916,930.774C461.986,939.864 460.074,943.198 457.049,943.83C454.795,944.301 452.607,944.085 451.774,942.52C448.7,936.739 457.08,926.74 453.086,923.101C448.289,918.73 434.385,939.937 441.522,948.107C443.121,949.938 457.664,962.03 439.111,976.389C432.898,981.197 421.435,973.441 417.075,979.005C414.188,975.33 415.95,1004.72 408.938,1004.07C400.287,1003.28 388.26,975.714 373.419,983.576C351.999,994.922 343.375,993.988 338.577,985.471C344.221,978.264 333.915,963.822 331.311,967.253C302.211,1005.6 281.275,984.786 274.84,977.859C264.998,967.265 250.104,982.378 263.597,989.78C263.597,989.78 250.718,1005.77 236.834,977.859C232.172,968.486 234.051,959.269 235.35,950.075C286.185,948.172 239.379,921.874 226.776,914.875C216.231,907.226 212.324,921.871 214.933,923.778C216.398,924.848 246.826,939.541 230.239,939.812C227.456,939.857 222.614,939.311 222.017,939.208C192.536,934.128 199.512,901.847 201.583,898.375C209.041,885.87 197.984,885.031 195.438,886.097C189.04,888.776 187.094,894.528 189.272,910.326C189.546,912.318 189.641,912.229 190.373,914.102C189.772,914.099 187.731,913.519 187.062,913.149C181.072,909.839 175.076,899.146 175.899,873.441C176.264,862.029 157.539,854.891 156.768,843.68C156.153,834.743 155.851,830.827 153.878,828.554C152.876,827.4 143.568,842.688 141.216,841.666C136.668,839.688 136.27,840.682 150.027,819.841C160.426,804.085 163.409,796.241 161.521,787.681C159.633,779.121 159.707,766.265 168.112,752.956C168.723,751.988 187.421,722.415 187.733,722.528C181.252,715.211 178.115,716.981 172.359,724.749C168.101,730.496 162.698,737.039 159.589,742.124ZM629.37,525.08C633.789,519.109 634.532,513.456 630.674,505.699C635.53,508.973 639.619,513.337 639.271,517.028C638.926,520.7 633.142,524.627 629.37,525.08ZM564.661,775.163C565.781,775.558 605.507,775.163 615.503,749.826C615.698,749.772 634.562,750.475 642.474,742.279C646.672,737.93 646.92,721.805 646.952,719.667C647.06,712.495 660.831,708.665 655.005,685.952C653.329,679.418 651.593,675.535 647.766,671.182C650.043,658.997 646.545,643.203 635.993,612.744C641.562,580.459 648.359,568.771 654.747,564.412C660.707,560.346 660.551,574.293 688.744,566.8C693.942,565.418 699.559,562.369 705.518,554.065C705.935,553.483 716.117,558.167 726.918,551.765C727.233,573.684 750.826,608.588 752.545,612.584C762.711,636.227 725.799,655.043 759.57,689.245C765.324,695.073 779.411,705.093 780.65,723.688C781.823,741.28 800.333,753.509 805.21,764.314C813.02,781.615 814.271,820.069 798.025,803.706C795.918,801.584 794.319,801.149 793.408,799.512C797.877,789.082 799.637,775.323 786.889,755.862L782.353,756.694L781.213,759.164C783.445,767.286 791.614,786.188 770.084,806.584C761.051,815.142 778.175,829.612 773.041,848.008C769.357,861.211 785.977,876.819 787.377,885.468C787.947,888.994 787.932,894.167 786.439,897.788C783.077,890.595 778.422,881.685 777.913,881.086C770.103,871.893 767.324,889.993 774.731,906.785C778.818,916.05 785.01,929.156 789.678,937.617C809.967,974.39 777.248,964.27 783.769,987.828C785.976,995.801 777.565,996.521 774.16,994.702C759.562,986.907 750.966,1019.17 745.893,1016.03C739.086,1011.82 757.872,985.844 749.933,983.576C736.12,979.63 727.158,1019.05 724.056,1012.97C712.45,990.236 698.708,1014.21 698.116,1014.5C689.909,1018.57 687.564,990.78 685.535,989.78C682.225,988.149 675.537,996.466 676.811,1006.02C661.952,1011.77 646.328,1014.32 638.423,983.576C637.489,979.942 633.346,980.008 631.797,981.624C627.76,985.836 625.548,994.047 624.599,994.702C583.275,916.208 546.202,841.744 564.661,775.163ZM242.523,531.952C227.175,527.412 215.805,510.744 219.069,502.87C219.998,500.628 233.654,482.859 221.298,489.696C219.3,490.802 218.185,493.071 216.932,492.004C215.172,490.506 210.718,485.308 210.742,480.706C210.78,473.542 215.36,470.514 215.697,466.407C217.224,447.81 217.452,448.322 218.854,446.772C222.573,450.978 230.749,446.339 232.385,439.579C204.092,436.267 224.632,395.804 235.116,386.527C235.852,385.876 246.939,373.709 250.899,377.13C251.233,377.418 251.556,379.426 256.376,382.527C260.463,385.156 263.329,385.596 263.597,385.618C260.191,389.812 246.705,411.733 259.794,418.124C271.814,423.994 294.439,392.232 295.913,384.169C290.855,373.431 283.92,393.334 278.548,397.759C275.263,400.465 264.68,404.873 265.286,398.834C265.523,396.472 268.462,391.345 274.84,386.929C282.046,381.94 279.848,370.422 271.401,370.552C249.114,370.893 254.748,348.652 265.458,352.844C300.143,366.421 295.88,363.279 279.902,319.82C278.16,315.081 282.05,306.154 283.231,303.776C287.76,310.836 299.41,316.343 311.346,314.173C323.674,311.932 327.776,282.821 327.055,281.668C325.83,279.709 322.436,284.386 322.093,285.294C317.411,297.688 314.733,294.369 306.624,297.293C291.162,302.87 289.725,290.093 290.601,278.561C291.172,271.048 300.187,267.198 315.181,263.533C321.321,262.032 330.525,260.9 334.252,260.573C337.035,260.329 337.74,255.538 335.361,250.362C329.877,238.432 373.811,246.896 392.054,240.689C415.592,232.679 413.756,196.7 472.874,210.128C480.579,211.878 496.837,211.914 514.361,212.078C531.241,212.236 574.549,176.918 568.359,228.75C543.536,226.137 521.348,210.317 526.118,223.924C526.367,224.029 543.95,244.251 561.375,246.222C579.59,248.282 607.76,231.295 622.74,252.878C630.895,264.629 635.008,268.863 648.901,272.274C676.793,279.121 677.969,270.117 680.322,284.201C681.807,293.087 679.393,302.647 688.744,302.054C703.432,301.123 706.671,296.798 705.182,303.776C701,323.374 722.41,323.559 733.794,348.575C741.816,366.203 729.443,391.635 733.794,403.79C735.987,409.918 744.962,406.286 755.05,416.156C788.592,448.973 744.777,483.387 747.024,484.759C748.318,485.549 753.336,491.024 751.819,502.028C751.278,505.948 747.084,512.401 743.153,510.806C723.077,502.659 740.162,525.628 733.231,535.912C721.453,553.388 700.934,538.654 699.992,539.042C691.788,561.19 652.221,553.42 655.005,541.392C657.359,531.225 660.364,519.416 656.981,510.664C653.654,502.057 646.348,497.067 644.211,495.079C656.9,498.805 671.277,494.688 656.981,484.759C633.202,483.703 609.744,480.052 613.41,454.824C615.637,439.498 578.561,456.629 570.707,449.114C563.701,442.41 565.849,427.832 565.887,418.124C556.91,409.969 548.733,417.71 547.879,440.873C547.371,454.648 542.24,470.799 532.119,467.653C519.094,463.605 532.721,447.086 519.516,431.541C506.498,416.216 519.229,443.859 515.253,446.772C506.436,453.234 489.745,433.057 489.115,434.856C482.853,452.714 504.9,460.178 509.024,459.689C477.657,487.239 473.693,458.459 457.049,454.824C425.836,448.009 416.496,467.134 412.77,477.022C412.902,468.182 411.741,472.728 408.938,461.028C390.947,471.637 423.419,522.071 354.489,531.447C344.975,532.741 334.775,529.752 332.068,529.07C330.61,528.703 328.455,533.915 336.736,539.517C338.143,540.47 339.676,541.711 341.642,542.27C296.819,565.183 303.153,535.988 297.913,531.447C283.703,519.134 277.705,528.387 266.258,513.131C260.034,504.835 252.852,511.762 244.471,499.11C240.846,493.638 238.547,485.235 235.088,481.986C226.716,474.124 235.172,513.979 252.631,519.417C247.429,523.55 244.225,526.682 242.523,531.952ZM564.661,673.314C563.154,682.15 545.824,670.101 547.879,665.071C549.933,660.041 552.397,645.951 576.987,643.135C587.776,641.899 609.344,642.347 622.429,649.052C630.016,652.939 634.942,657.452 636.736,663.701C638.155,668.643 637.273,674.061 636.123,675.095C634.974,676.129 632.594,676.815 631.022,670.29C628.44,659.572 606.639,669.206 611.829,685.952C612.559,688.308 620.377,694.384 629.401,688.564C627.927,690.582 625.248,694.245 622.74,696.264C611.857,705.024 603.555,707.236 587.536,707.401C565.454,707.628 554.595,693.656 548.413,678.859C552.333,683.506 558.611,686.197 563.523,687.593C597.651,697.296 587.104,651.498 570.707,660.681C563.274,664.844 564.33,663.587 564.661,673.314ZM603.711,746.441C572.836,763.487 575.028,770.732 512.962,742.581C528.433,745.907 538.834,742.668 559.9,740.302C584.831,737.503 583.225,743.636 592.218,745.107C601.06,746.553 601.21,746.032 603.711,746.441Z" style="fill-rule:nonzero;"/>
    </g>
</svg>
