<?xml version="1.0" encoding="UTF-8" standalone="no"?>
<!DOCTYPE svg PUBLIC "-//W3C//DTD SVG 1.1//EN" "http://www.w3.org/Graphics/SVG/1.1/DTD/svg11.dtd">
<svg width="100%" height="100%" viewBox="0 0 945 1182" version="1.1" xmlns="http://www.w3.org/2000/svg" xmlns:xlink="http://www.w3.org/1999/xlink" xml:space="preserve" xmlns:serif="http://www.serif.com/" style="fill-rule:evenodd;clip-rule:evenodd;stroke-linejoin:round;stroke-miterlimit:2;">
    <g transform="matrix(1,0,0,1,-4157,-1406)">
        <g transform="matrix(1,0,0,1,33.882,0)">
            <g id="site_husky" transform="matrix(0.26936,0,0,0.47619,4123.23,1406.58)">
                <rect x="0" y="0" width="3507.87" height="2480.32" style="fill:rgb(180,203,230);"/>
                <g id="husky" transform="matrix(3.7125,0,0,3.04563,-11756.4,-1111.32)">
                    <g id="contorno" transform="matrix(1.0018,-0.00129095,0.00186483,0.688012,2837.65,27.7909)">
                        <path d="M1130.3,1675.76L539.579,1674.65C538.791,1672.53 535.873,1664.75 532.949,1658.12C527.37,1645.47 520.284,1628.16 517.669,1607.83C514.176,1580.68 518.302,1548.31 522.454,1525.88L520.428,1528.22C519.178,1529.67 517.118,1530.1 515.398,1529.27C513.678,1528.44 512.723,1526.56 513.067,1524.68C516.429,1506.25 519.006,1496.64 521.668,1489.8C519.32,1491.62 516.527,1493.79 512.617,1497.02C511.224,1498.17 509.259,1498.3 507.722,1497.36C506.184,1496.42 505.41,1494.6 505.795,1492.83C507.655,1484.28 509.242,1479.86 510.22,1477.1C510.296,1476.88 510.372,1476.69 510.444,1476.51C505.102,1475.77 495.926,1474.59 494.837,1474.38C493.144,1474.07 491.812,1472.75 491.469,1471.05C491.126,1469.36 491.84,1467.62 493.275,1466.67C498.353,1463.28 499.232,1461.19 499.741,1457.92C499.995,1456.29 500.215,1454.47 500.654,1452.32C496.159,1453.13 495.955,1453.62 487.455,1452.33C486.109,1452.12 484.944,1451.28 484.324,1450.06C483.703,1448.85 483.704,1447.4 484.326,1446.19C506.331,1403.15 504.444,1380.99 502.765,1357.69C501.598,1341.52 500.561,1324.83 506.905,1300.96C506.767,1298.18 505.312,1295.88 504.596,1297.16C503.555,1299.04 501.289,1299.84 499.311,1299.03C497.333,1298.23 496.262,1296.07 496.813,1294C497.242,1292.38 500.116,1281.64 500.541,1272.43C500.668,1269.69 500.591,1267.1 500.074,1265.01C499.82,1263.98 499.656,1263.04 498.929,1262.69C496.738,1261.62 494.615,1263 493.125,1263.73C491.489,1264.52 490.117,1265.03 489.267,1265.1L487.8,1265.03L486.556,1264.59L485.118,1263.44L484.3,1262.02L484.015,1260.85L483.988,1259.52C484.038,1258.86 484.203,1257.95 484.555,1256.74C484.75,1256.07 484.96,1255.4 485.181,1254.74C484.336,1254.99 483.52,1255.11 482.762,1255.11L480.803,1254.82L478.874,1253.87L477.836,1252.84L477.187,1251.58C476.925,1250.84 476.729,1249.21 476.905,1246.97C477.234,1242.78 483.355,1233.25 479.571,1228.93C478.365,1227.55 476.17,1230.8 474.641,1231.33C472.693,1232 470.549,1231.16 469.561,1229.35C468.572,1227.54 469.025,1225.27 470.634,1223.99C471.251,1223.49 471.689,1222.66 472.059,1221.73C472.812,1219.85 473.142,1217.54 472.89,1215.48C472.728,1214.16 472.473,1212.86 471.475,1212.3C470.868,1211.95 470.065,1212.02 469.054,1212.28C467.613,1212.64 466.088,1212.22 465.036,1211.16C463.985,1210.11 463.56,1208.58 463.918,1207.13C466.13,1198.18 468.994,1184.28 468.662,1180.4C468.445,1177.88 463.113,1183.29 461.925,1183.88C459.678,1184.98 459.015,1185.01 457.908,1185.06L456.429,1184.88L455.174,1184.27L454.244,1183.38L453.651,1182.35L453.347,1181.09L453.4,1179.86L454.161,1177.87C455.874,1174.85 471.991,1158.79 472.493,1155.98C472.994,1153.18 460.027,1160.55 457.17,1161.03C455.399,1161.33 453.636,1160.47 452.77,1158.89C451.904,1157.31 452.125,1155.35 453.32,1154.01C460.638,1145.78 469.221,1141.6 468.493,1138.54C467.889,1135.99 463.66,1138.94 458.345,1139.15C456.718,1139.22 455.2,1138.34 454.439,1136.89C453.679,1135.45 453.811,1133.69 454.779,1132.38C465.119,1118.35 477.222,1109.66 473.659,1107.29C472.924,1106.8 471.768,1107.62 471.076,1107.86C469.281,1108.5 467.285,1107.85 466.199,1106.28C465.113,1104.71 465.204,1102.61 466.421,1101.14C472.945,1093.27 478.908,1085.66 480.358,1082.69C481.131,1081.11 477.376,1083.25 475.119,1083.31L473.155,1083.09L472.122,1082.63L471.28,1081.99L470.572,1081.09L470.101,1079.99L469.94,1078.92L470.004,1078.03L470.614,1076.37C470.847,1075.97 471.268,1075.38 471.987,1074.62C473.91,1072.6 489.532,1061.15 490.236,1057.48C490.94,1053.8 482.56,1055.02 476.21,1052.58C474.656,1051.99 473.595,1050.53 473.498,1048.86C473.401,1047.19 474.287,1045.62 475.761,1044.85C484.564,1040.23 490.527,1037.58 491.619,1035.5C492.711,1033.42 486.196,1033.79 482.314,1032.37C480.631,1031.75 479.519,1030.13 479.537,1028.33C479.556,1026.53 480.702,1024.94 482.398,1024.36C483.78,1023.88 486.139,1023 492.027,1018.63C492.409,1014.91 493.036,1009.55 492.657,1006.61C491.954,1001.17 489.764,995.965 489.284,990.498C488.501,981.566 489.333,972.557 488.884,963.602C486.818,922.436 476.318,860.606 475.113,818.25C474.57,799.124 476.079,783.799 480.607,775.538C484.558,768.331 487.979,764.829 491.537,763.391C494.033,762.383 496.702,762.243 499.867,762.899C503.393,763.631 507.752,765.477 513.702,767.794C531.325,774.657 543.663,784.42 556.645,795.791C569.124,806.72 582.238,819.169 601.758,831.791C621.401,844.492 628.609,851.662 631.326,855.105C634.861,854.51 639.892,853.037 666.706,846.358C706.58,836.426 726.909,839.843 735.92,841.459C737.554,841.752 738.701,842.03 739.458,842.036L740.58,841.511C743.448,840.166 750.062,837.401 773.57,833.908C817.581,827.368 873.097,849.931 886.058,855.842C886.609,855.345 887.343,854.681 888.179,853.921C896.887,846.003 921.611,823.611 958.64,793.926C965.003,788.825 971.372,783.715 978.032,779.01C981.899,776.278 984.414,774.031 986.615,772.518C988.618,771.141 990.459,770.269 992.504,769.889C995.567,769.318 999.263,769.862 1005.24,772.46C1016.79,777.486 1021.57,788.465 1022.44,802.289C1023.59,820.591 1017.8,844.112 1015.76,862.266C1009.42,918.949 1001.92,924.425 995.241,947.753C994.885,948.997 994.977,957.635 994.998,963.615C995.045,977.036 995.585,992.43 995.695,998.148C998.194,1001.6 1002.02,1004.08 1004.99,1005.78C1007.67,1007.32 1009.82,1008.34 1010.47,1008.81C1013.54,1011.04 1014.57,1013.03 1014.82,1014.27L1014.91,1015.63L1014.62,1017.04L1013.87,1018.43L1012.53,1019.72C1011.74,1020.28 1010.5,1020.82 1008.91,1021.27C1008.03,1021.51 1006.99,1021.75 1005.85,1022.02C1009.32,1026.41 1010.46,1028.54 1010.74,1029.63L1010.92,1030.96L1010.72,1032.51L1010.24,1033.65L1009.39,1034.75C1009.01,1035.12 1008.55,1035.49 1008,1035.84C1015.27,1043.62 1021.29,1049.51 1027.6,1057.11C1028.66,1058.38 1028.88,1060.16 1028.17,1061.67C1027.54,1062.98 1026.29,1063.87 1024.87,1064.05C1031.66,1069.72 1040.85,1078.75 1048.16,1090.28C1049.19,1091.89 1049.01,1093.99 1047.74,1095.41C1046.85,1096.39 1045.59,1096.88 1044.34,1096.8C1046.04,1100.31 1046.55,1102.87 1050.81,1110.64C1051.79,1112.44 1051.36,1114.68 1049.79,1115.98C1048.21,1117.27 1045.94,1117.26 1044.38,1115.94C1043.49,1115.19 1043.04,1114.75 1042.54,1114.71C1042.07,1114.68 1041.64,1114.77 1041.17,1114.88C1049.74,1135.53 1055.98,1135.01 1069.39,1172.25C1070.08,1174.14 1069.34,1176.26 1067.63,1177.31C1067.51,1177.39 1067.39,1177.46 1067.26,1177.52C1069.92,1186.73 1072.88,1200.6 1073.39,1218.36C1073.45,1220.11 1072.43,1221.7 1070.84,1222.39C1069.24,1223.08 1067.39,1222.72 1066.17,1221.49C1065.98,1221.3 1065.07,1220.41 1063.86,1219.37C1064,1219.62 1064.13,1219.87 1064.24,1220.14C1064.89,1221.69 1065.4,1223.65 1065,1227.91C1064.58,1232.4 1066.9,1233.85 1068.43,1235.95C1070.01,1238.11 1071.32,1240.57 1071.39,1244.44C1074.77,1247.03 1082.62,1253.09 1084.08,1254.45C1085.02,1255.32 1085.51,1256.57 1085.43,1257.84C1085.35,1259.12 1084.7,1260.29 1083.66,1261.03C1082.6,1261.79 1081.76,1262.48 1081.14,1263.14C1080.81,1263.49 1080.48,1263.7 1080.46,1264.02C1080.42,1264.52 1080.92,1264.87 1081.36,1265.42C1082.51,1266.87 1084.2,1268.47 1086.22,1270.43C1090.77,1274.81 1113.71,1302.84 1117.33,1309.46C1118.17,1311.02 1117.97,1312.94 1116.82,1314.28C1115.66,1315.62 1113.8,1316.11 1112.15,1315.49C1111.01,1315.07 1110.05,1314.73 1109.23,1314.46C1113.77,1318.91 1117.48,1324.58 1120.55,1330.83C1127.4,1344.77 1131.1,1361.55 1135.01,1371.89C1135.7,1373.71 1135.07,1375.76 1133.49,1376.88C1132.24,1377.76 1130.64,1377.88 1129.3,1377.27C1132.99,1384.2 1135.28,1389.99 1141.59,1403.87C1142.35,1405.56 1141.94,1407.56 1140.56,1408.8C1139.19,1410.04 1137.17,1410.24 1135.58,1409.29C1131.17,1406.67 1129.71,1406.28 1126.78,1406.2C1131.17,1424.6 1139.45,1431.3 1141.06,1433.38L1141.77,1434.53L1142.11,1435.49L1142.22,1436.79L1142.02,1437.89L1141.22,1439.37L1140.57,1440.01L1139.66,1440.58L1138.53,1440.95L1137.44,1441.07C1136.77,1441.09 1135.63,1441 1133.94,1440.82C1132.37,1440.66 1131.1,1440.64 1130.07,1440.77C1129.68,1440.83 1129.21,1440.97 1128.95,1441.06C1129,1441.44 1129.12,1442.25 1129.3,1442.76C1129.74,1443.99 1130.42,1445.24 1131.11,1446.37C1132.47,1448.61 1133.92,1450.43 1134.3,1450.96C1137.51,1455.54 1139.34,1461.66 1140.28,1467.58C1141.58,1475.72 1141.24,1483.38 1141.31,1484.95C1141.49,1489.34 1142.61,1515.88 1142.79,1538.71C1142.88,1549.85 1142.73,1560.11 1142.16,1566.57C1142.02,1568.2 1140.94,1569.61 1139.4,1570.18C1137.87,1570.75 1136.14,1570.37 1134.97,1569.21C1134.81,1569.05 1133.26,1567.43 1131.31,1565.35C1131.38,1587.63 1132.03,1636.7 1131.36,1661.51C1131.15,1669.57 1130.34,1675.43 1130.3,1675.76Z" style="fill:white;"/>
                    </g>
                    <g id="linhas" transform="matrix(1,0,0,0.689512,2118.33,364.891)">
                        <path d="M1290.96,1181.1L1262.99,1181.1C1262.2,1178.99 1259.26,1171.23 1256.32,1164.62C1250.71,1152.01 1243.58,1134.75 1240.92,1114.47C1237.37,1087.38 1241.44,1055.08 1245.56,1032.68L1243.53,1035.03C1242.29,1036.48 1240.22,1036.91 1238.5,1036.09C1236.77,1035.26 1235.81,1033.38 1236.15,1031.5C1239.49,1013.11 1242.05,1003.52 1244.71,996.686C1242.36,998.503 1239.56,1000.68 1235.65,1003.91C1234.26,1005.06 1232.29,1005.2 1230.75,1004.26C1229.2,1003.32 1228.43,1001.5 1228.81,999.739C1230.66,991.204 1232.24,986.793 1233.21,984.035C1233.29,983.819 1233.36,983.625 1233.44,983.446C1228.08,982.718 1218.89,981.556 1217.8,981.354C1216.1,981.04 1214.76,979.729 1214.42,978.038C1214.07,976.348 1214.78,974.616 1216.22,973.658C1221.3,970.271 1222.18,968.178 1222.68,964.918C1222.93,963.29 1223.15,961.475 1223.58,959.329C1219.08,960.142 1218.88,960.637 1210.36,959.36C1209.01,959.157 1207.84,958.318 1207.22,957.105C1206.6,955.892 1206.59,954.453 1207.21,953.238C1229.18,910.257 1227.25,888.143 1225.52,864.904C1224.32,848.765 1223.25,832.113 1229.56,808.281C1229.42,805.512 1227.96,803.216 1227.24,804.502C1226.2,806.371 1223.94,807.174 1221.95,806.374C1219.97,805.575 1218.89,803.423 1219.44,801.356C1219.87,799.746 1222.73,789.024 1223.13,779.833C1223.26,777.095 1223.17,774.506 1222.65,772.424C1222.4,771.403 1222.23,770.462 1221.5,770.11C1219.31,769.048 1217.18,770.435 1215.69,771.158C1214.05,771.951 1212.68,772.46 1211.83,772.539L1210.36,772.467L1209.11,772.033L1207.67,770.883L1206.85,769.472L1206.56,768.309L1206.53,766.975C1206.58,766.319 1206.74,765.411 1207.09,764.204C1207.29,763.535 1207.49,762.871 1207.71,762.209C1206.87,762.459 1206.05,762.583 1205.29,762.58L1203.33,762.296L1201.39,761.353L1200.35,760.321L1199.7,759.072C1199.44,758.329 1199.24,756.706 1199.41,754.47C1199.73,750.287 1205.84,740.768 1202.05,736.463C1200.84,735.091 1198.64,738.338 1197.11,738.865C1195.16,739.536 1193.01,738.707 1192.02,736.9C1191.02,735.094 1191.47,732.835 1193.08,731.547C1193.7,731.052 1194.14,730.22 1194.51,729.295C1195.26,727.417 1195.58,725.111 1195.33,723.053C1195.16,721.738 1194.9,720.444 1193.9,719.881C1193.3,719.539 1192.49,719.609 1191.48,719.865C1190.04,720.23 1188.51,719.811 1187.45,718.761C1186.4,717.712 1185.97,716.186 1186.32,714.741C1188.52,705.807 1191.37,691.929 1191.03,688.062C1190.81,685.543 1185.47,690.957 1184.28,691.54C1182.04,692.642 1181.37,692.681 1180.26,692.733L1178.78,692.554L1177.52,691.946L1176.59,691.059L1175.99,690.028L1175.68,688.773L1175.74,687.545L1176.5,685.565C1178.2,682.544 1194.32,666.491 1194.82,663.689C1195.32,660.887 1182.34,668.271 1179.48,668.752C1177.7,669.05 1175.94,668.197 1175.07,666.623C1174.19,665.049 1174.41,663.098 1175.61,661.754C1182.92,653.529 1191.52,649.343 1190.78,646.285C1190.17,643.748 1185.94,646.704 1180.61,646.921C1178.99,646.987 1177.46,646.113 1176.7,644.673C1175.93,643.233 1176.06,641.482 1177.03,640.17C1187.36,626.151 1199.47,617.461 1195.9,615.099C1195.16,614.612 1194,615.432 1193.31,615.677C1191.51,616.312 1189.51,615.669 1188.42,614.105C1187.33,612.542 1187.42,610.442 1188.63,608.974C1195.15,601.106 1201.12,593.508 1202.56,590.54C1203.33,588.956 1199.58,591.102 1197.31,591.165L1195.35,590.947L1194.31,590.498L1193.47,589.856L1192.76,588.965L1192.28,587.869L1192.12,586.795L1192.18,585.907L1192.79,584.252C1193.02,583.849 1193.44,583.266 1194.16,582.508C1196.08,580.481 1211.71,569.029 1212.41,565.362C1213.11,561.695 1204.72,562.93 1198.35,560.507C1196.79,559.914 1195.73,558.463 1195.63,556.799C1195.53,555.135 1196.41,553.567 1197.89,552.792C1206.7,548.163 1212.66,545.513 1213.75,543.435C1214.85,541.357 1208.32,541.739 1204.43,540.322C1202.74,539.708 1201.62,538.098 1201.64,536.302C1201.65,534.507 1202.8,532.916 1204.5,532.331C1205.88,531.854 1208.24,530.973 1214.13,526.593C1214.51,522.882 1215.13,517.538 1214.74,514.602C1214.03,509.173 1211.82,503.986 1211.33,498.531C1210.53,489.62 1211.35,480.629 1210.88,471.695C1208.74,430.622 1198.1,368.947 1196.81,326.685C1196.23,307.602 1197.72,292.306 1202.24,284.056C1206.18,276.857 1209.6,273.356 1213.16,271.915C1215.66,270.903 1218.34,270.759 1221.51,271.408C1225.04,272.131 1229.41,273.966 1235.38,276.266C1253.05,283.081 1265.42,292.8 1278.45,304.122C1290.97,315.004 1304.13,327.401 1323.71,339.959C1343.41,352.596 1350.65,359.737 1353.38,363.167C1356.92,362.567 1361.95,361.088 1388.8,354.373C1428.73,344.388 1449.1,347.76 1458.13,349.355C1459.77,349.644 1460.92,349.92 1461.68,349.924L1462.8,349.398C1465.67,348.051 1472.29,345.279 1495.84,341.75C1539.92,335.142 1595.57,357.552 1608.57,363.426C1609.12,362.928 1609.86,362.265 1610.69,361.505C1619.4,353.588 1644.13,331.198 1681.17,301.509C1687.53,296.407 1693.9,291.295 1700.57,286.589C1704.43,283.855 1706.95,281.608 1709.15,280.095C1711.16,278.717 1713,277.844 1715.05,277.46C1718.12,276.885 1721.82,277.421 1727.81,280.002C1739.39,284.995 1744.2,295.941 1745.09,309.733C1746.28,327.993 1740.52,351.474 1738.52,369.593C1732.27,426.164 1724.77,431.642 1718.12,454.932C1717.77,456.174 1717.88,464.793 1717.91,470.761C1717.98,484.152 1718.55,499.511 1718.67,505.217C1721.18,508.655 1725.01,511.123 1727.99,512.815C1730.68,514.346 1732.84,515.357 1733.49,515.827C1736.57,518.047 1737.61,520.031 1737.86,521.266L1737.95,522.628L1737.66,524.032L1736.91,525.425L1735.58,526.711C1734.78,527.272 1733.55,527.814 1731.95,528.26C1731.07,528.506 1730.03,528.743 1728.89,529.015C1732.37,533.388 1733.51,535.518 1733.8,536.605L1733.98,537.925L1733.79,539.474L1733.3,540.614L1732.46,541.709C1732.08,542.088 1731.62,542.457 1731.07,542.802C1738.37,550.555 1744.4,556.42 1750.74,563.987C1751.81,565.26 1752.04,567.037 1751.32,568.535C1750.69,569.851 1749.44,570.738 1748.02,570.917C1754.83,576.562 1764.05,585.555 1771.41,597.05C1772.43,598.657 1772.26,600.752 1770.99,602.17C1770.1,603.152 1768.84,603.641 1767.58,603.567C1769.3,607.064 1769.81,609.618 1774.09,617.365C1775.08,619.152 1774.65,621.389 1773.08,622.687C1771.5,623.986 1769.23,623.977 1767.66,622.665C1766.77,621.92 1766.32,621.471 1765.82,621.438C1765.34,621.408 1764.91,621.501 1764.44,621.61C1773.07,642.194 1779.32,641.672 1792.83,678.803C1793.51,680.691 1792.78,682.801 1791.07,683.858C1790.95,683.934 1790.82,684.003 1790.7,684.066C1793.38,693.246 1796.37,707.088 1796.92,724.807C1796.98,726.545 1795.96,728.14 1794.37,728.83C1792.77,729.521 1790.91,729.167 1789.68,727.937C1789.5,727.752 1788.58,726.868 1787.37,725.825C1787.51,726.08 1787.64,726.33 1787.75,726.602C1788.4,728.146 1788.92,730.1 1788.53,734.355C1788.12,738.83 1790.44,740.273 1791.98,742.369C1793.56,744.517 1794.88,746.967 1794.96,750.829C1798.35,753.41 1806.23,759.445 1807.69,760.797C1808.63,761.662 1809.13,762.904 1809.05,764.176C1808.97,765.449 1808.32,766.619 1807.28,767.36C1806.22,768.121 1805.38,768.808 1804.76,769.468C1804.43,769.82 1804.1,770.037 1804.08,770.354C1804.05,770.849 1804.54,771.201 1804.98,771.753C1806.14,773.195 1807.83,774.789 1809.87,776.736C1814.43,781.101 1837.47,809.026 1841.1,815.629C1841.95,817.179 1841.75,819.095 1840.6,820.436C1839.45,821.777 1837.58,822.261 1835.92,821.65C1834.78,821.231 1833.82,820.894 1833,820.632C1837.56,825.062 1841.29,830.715 1844.37,836.943C1851.26,850.834 1855,867.573 1858.93,877.888C1859.62,879.699 1859,881.748 1857.41,882.865C1856.16,883.747 1854.57,883.87 1853.22,883.261C1856.93,890.171 1859.24,895.944 1865.58,909.786C1866.35,911.47 1865.94,913.459 1864.56,914.7C1863.19,915.94 1861.17,916.144 1859.57,915.204C1855.15,912.6 1853.68,912.213 1850.76,912.135C1855.18,930.486 1863.5,937.157 1865.1,939.225L1865.83,940.374L1866.16,941.335L1866.28,942.633L1866.08,943.727L1865.28,945.21L1864.63,945.846L1863.72,946.419L1862.59,946.793L1861.5,946.913C1860.82,946.934 1859.68,946.845 1857.98,946.67C1856.42,946.508 1855.14,946.492 1854.11,946.629C1853.72,946.68 1853.25,946.827 1852.99,946.918C1853.04,947.291 1853.16,948.102 1853.35,948.613C1853.79,949.836 1854.47,951.08 1855.16,952.207C1856.53,954.441 1857.99,956.255 1858.37,956.789C1861.6,961.348 1863.43,967.454 1864.39,973.356C1865.7,981.479 1865.38,989.121 1865.45,990.69C1865.64,995.063 1866.82,1021.55 1867.04,1044.33C1867.14,1055.44 1867.02,1065.68 1866.46,1072.12C1866.32,1073.76 1865.25,1075.17 1863.7,1075.74C1862.16,1076.3 1860.43,1075.93 1859.26,1074.78C1859.1,1074.62 1857.55,1073 1855.58,1070.93C1855.7,1093.16 1856.44,1142.12 1855.82,1166.88C1855.62,1174.93 1854.82,1180.77 1854.78,1181.1L1844.34,1181.1C1843.35,1179.32 1839.81,1172.64 1838.93,1167.18C1836.24,1150.41 1839.73,1130.85 1835.16,1121.32C1826.9,1104.11 1815.84,1107.26 1809.68,1093.65C1805.66,1084.75 1799.27,1040.92 1801.88,1038.57C1811.17,1030.23 1816.17,1062.16 1822.61,1077.05C1825.4,1083.52 1829.01,1092.68 1838.14,1105.93C1842.29,1111.97 1840.43,1065.72 1840.71,1058.67C1840.78,1056.94 1838.59,1044.14 1845.29,1048.6C1846.73,1049.56 1852.92,1045.37 1852.87,1039.49C1851.84,1037.51 1844.1,1034.92 1843.33,1035.99C1841.71,1038.26 1827.57,1032.89 1826.36,1028.12C1820.62,1005.53 1829.02,1004.9 1828.37,984.916C1828.28,984.921 1828.19,984.925 1828.11,984.927C1826.01,984.98 1824.31,984.192 1820.4,982.51C1816.19,980.701 1813.8,978.293 1812.52,975.641C1810.7,971.873 1811.13,967.255 1813.08,962.035C1814.93,957.086 1818.13,951.398 1820.5,945.278C1822.56,939.948 1818.9,938.374 1818.96,926.204C1818.96,926.204 1821.72,921.605 1825.31,919.807C1830.7,917.102 1827.69,904.882 1827.15,892.478C1827.02,889.552 1837.72,876.129 1836.1,869.711C1833.27,858.444 1802.24,849.934 1809.87,825.425C1813.37,814.179 1800.63,817.383 1794.95,810.822C1790.88,806.114 1785.6,800.731 1782.35,797.054C1780.44,800.981 1778.61,804.825 1776.66,808.682L1777.16,808.676L1779.03,809.347L1780.34,810.535L1781.04,811.867L1781.28,813.142L1781.09,814.915L1780.33,816.734C1773.93,828.449 1767.87,835.777 1762.99,848.622C1762.3,850.439 1760.22,853.587 1757.16,857.49C1752.86,862.974 1746.52,870.267 1740.13,877.705C1740.62,877.589 1741.09,877.481 1741.54,877.384C1743.62,876.941 1745.7,878.101 1746.42,880.098C1747.13,882.094 1746.27,884.314 1744.38,885.292C1741.62,886.726 1719.97,905.313 1714.6,909.209C1713,910.367 1710.82,910.271 1709.33,908.978C1707.84,907.685 1707.44,905.535 1708.36,903.793C1710.49,899.768 1727.19,862.981 1732.68,847.049C1729.26,844.388 1723.8,842.979 1723.8,842.979C1722.53,842.616 1721.5,841.68 1721.01,840.448C1720.53,839.215 1720.65,837.828 1721.34,836.698C1722.9,834.134 1731.62,819.228 1738.91,805.404L1737.34,805.262L1736.42,804.932L1735.39,804.307C1735.06,804.061 1734.51,803.485 1734.17,803.128C1733.92,803.228 1733.51,803.401 1733.24,803.573C1731.63,804.591 1729.93,806.365 1728.14,808.541C1718.26,820.556 1707.24,843.969 1705.91,845.748C1704.73,847.336 1702.6,847.89 1700.79,847.084C1698.98,846.278 1697.97,844.326 1698.36,842.383C1699.08,838.761 1699.38,836.073 1699.38,834.087L1699.37,833.986C1688.54,841.877 1669.96,859.808 1658.58,872.801C1655.45,876.371 1652.87,879.557 1651.19,882.045C1650.38,883.238 1649.77,884.161 1649.6,884.835C1649.05,886.983 1646.93,888.345 1644.75,887.957C1642.57,887.569 1641.05,885.563 1641.27,883.356C1641.63,879.84 1641.41,876.5 1641.26,874.91C1640.34,875.291 1639.32,875.863 1638.17,876.559C1630.42,881.281 1618.49,890.965 1603.5,895.559C1593.6,898.59 1587.21,897.525 1583.51,895.374C1575.8,890.884 1576.82,881.624 1582.28,877.733C1610.88,857.36 1610.68,857.394 1638.82,836.599C1639.92,835.784 1641.35,835.553 1642.66,835.979C1643.96,836.404 1644.98,837.434 1645.39,838.743C1645.87,840.274 1644.88,842.642 1646.23,842.716C1650.27,842.935 1653.59,834.986 1655.06,832.247C1656.43,829.711 1657.67,827.372 1660.67,824.179C1662.28,822.467 1680.83,816.34 1685.43,810.953C1689.61,806.058 1688.14,793.177 1688.26,791.857C1688.42,790.002 1688.79,788.828 1689.12,788.161L1689.96,786.917L1691.05,786.039L1692.12,785.577L1693.3,785.401L1694.56,785.551L1695.88,786.113C1696.63,786.566 1697.75,787.72 1698.86,789.505C1699.52,790.569 1700.03,793.925 1701.2,793.396C1704.15,792.063 1704.08,787.557 1704.84,784.634C1705.64,781.508 1706.53,777.834 1708.91,772.098C1709.4,770.909 1710.41,770.009 1711.64,769.651C1712.88,769.292 1714.21,769.515 1715.26,770.257C1718.41,772.47 1721.18,776.394 1721.64,773.977C1722.21,770.938 1719.52,759.423 1718.72,752.023L1718.84,750.268L1719.6,748.706L1720.34,747.96L1721.28,747.389L1722.44,747.058L1723.78,747.076L1725.01,747.463L1726.25,748.25C1727.01,748.837 1729.49,754.166 1731.11,752.689C1734.05,750.011 1736.46,736.755 1738.15,733.576C1738.86,732.241 1740.22,731.385 1741.73,731.328C1743.24,731.271 1743.97,733.418 1745.48,733.299C1749.56,732.979 1746.66,729.535 1742.92,721.187C1742.24,719.688 1740.08,712.876 1736.41,706.474C1735.35,704.619 1735.84,702.263 1737.55,700.979C1739.26,699.696 1741.65,699.886 1743.14,701.422C1747.45,705.883 1743.49,692.452 1740.19,685.275C1739.42,683.6 1739.83,681.621 1741.19,680.377C1742.55,679.134 1744.55,678.911 1746.15,679.827C1749.22,681.581 1743.53,666.508 1740.26,660.88C1739.36,659.323 1739.54,657.366 1740.71,655.999C1741.88,654.632 1745.28,656.889 1745.46,654.802C1745.88,650.12 1733.42,632.031 1732.13,629.131C1731.94,628.707 1731.83,628.461 1731.81,628.416L1731.76,628.274L1731.49,626.637L1735.72,631.008L1735.68,631.007L1735.72,631.011L1735.72,631.009L1735.72,631.009L1736.52,622.609C1736.42,622.589 1736.12,622.559 1736.12,622.559C1736.12,622.559 1739.12,622.271 1741.56,621.92L1743.37,621.659C1740.8,619.215 1738.07,616.711 1736.06,615.355C1724.47,607.533 1722.38,602.258 1721.72,600.759C1721.56,600.382 1719.21,594.601 1716.23,590.661C1715.07,589.128 1715.08,587.005 1716.27,585.49C1717.19,584.31 1718.64,583.729 1720.08,583.888C1716.59,577.687 1704.3,573.053 1709.51,564.175C1713.68,557.065 1692.49,550.398 1687.28,548.97C1682.71,547.716 1677.13,546.8 1671.82,548.126C1669.31,548.755 1663.79,552.53 1659.57,554.541C1656.71,555.909 1654.15,556.488 1652.63,556.295C1650.77,556.058 1649.28,554.624 1648.98,552.771C1648.41,549.292 1647.67,546.73 1646.71,544.916C1646.15,543.85 1645.6,543.115 1644.88,542.795C1643.78,542.307 1642.48,542.628 1641.34,543.38C1629.43,551.266 1628,542.993 1622.8,539.794C1618.21,536.971 1622.87,526.782 1621.51,524.586C1617.38,517.897 1603.69,517.675 1601.59,515.943L1601.43,515.815C1601.1,515.628 1600.8,515.396 1600.53,515.12C1599.37,513.95 1598.99,512.215 1599.56,510.671C1601.68,504.933 1603.37,501.455 1602.72,497.887C1602.31,495.7 1600.93,493.58 1598.48,490.771L1597.66,489.674L1597.04,488.414L1596.68,487.037L1596.6,485.64C1596.7,483.661 1597.71,481.526 1599.66,479.583C1602.15,477.114 1609.93,474.675 1609.62,473.227C1608.59,468.353 1597.57,471.921 1594.19,473.312C1586.42,476.508 1587.55,465.969 1585.38,464.562C1584.21,463.8 1582.4,464.816 1581.2,464.866C1578.1,464.995 1575.58,464.5 1574.31,463.734C1571.95,462.313 1571.16,461.086 1567.99,460.313C1558.62,458.032 1537.55,492.092 1534.01,502.793C1523.32,535.069 1535.35,539.928 1533.41,549.449C1532.4,554.417 1525.29,558.441 1522.38,559.916C1519.52,561.366 1516.64,563.545 1515.47,566.767C1513.8,571.362 1512.01,573.944 1510.59,575.117L1508.74,576.213L1507.57,576.537L1506.3,576.608L1504.18,576.068L1502.6,575.014C1501.72,574.222 1500.83,572.963 1500.09,571.21C1497.8,565.8 1501.1,546.814 1504.69,535.077C1508.89,521.364 1531.15,468.174 1516.69,446.803C1513.44,442.007 1505.78,447.934 1502.24,445.903C1498.7,443.873 1497.37,440.256 1495.47,434.622C1493.17,427.824 1493.98,421.602 1490.8,421.304C1475.12,419.836 1492.06,520.698 1479.97,571.183L1479.67,572.638L1478.96,574.133L1477.76,575.448L1476.26,576.311C1474.64,576.951 1472.33,574.962 1469.14,575.477C1457.45,577.363 1454.74,562.537 1454.59,553.851C1454.32,537.324 1477.53,514.867 1467.48,476.313C1466.44,472.33 1463.3,460.916 1459.99,457.893C1456.94,455.111 1449.27,464.333 1447.61,458.177C1444.99,448.5 1440.77,444.049 1439.51,444.388C1436.52,445.192 1440.66,453.017 1440.17,455.745C1440,456.668 1439.74,457.468 1439.43,458.132L1438.31,459.811L1436.73,461.035L1434.71,461.66C1432,461.978 1430.69,461.844 1427.82,460.732C1425.78,459.945 1422.63,458.482 1416.27,456.002C1411.83,454.274 1406.52,455.069 1401.18,456.735C1395.15,458.615 1387.06,454.996 1384.01,464.585C1383.01,467.765 1397.28,474.638 1398.05,476.504C1398.5,477.605 1398.46,478.844 1397.95,479.919C1397.44,480.994 1396.51,481.806 1395.37,482.157C1391.68,483.297 1385.82,483.116 1385.63,485.096C1385.11,490.667 1389.11,487.386 1395.54,494.083C1396.56,495.143 1396.96,496.654 1396.59,498.078C1396.22,499.501 1395.14,500.632 1393.74,501.068C1390.97,501.928 1382.37,503.851 1381.46,507.443C1381.08,508.968 1384.74,510.837 1384.74,510.837C1385.77,511.91 1386.17,513.448 1385.78,514.888C1385.39,516.327 1384.27,517.457 1382.84,517.862C1373.4,520.526 1362.6,519.727 1360.27,526.266C1358.55,531.1 1347.31,540.044 1341.21,538.479C1336.85,537.36 1332.95,537.961 1327.88,542.221C1325.14,544.53 1326.73,550.405 1328.21,554.324C1329.03,556.472 1326.58,560.183 1324.46,561.054C1310.3,566.851 1304.69,563.831 1297.35,560.645C1292.85,558.694 1282.32,562.34 1281.56,563.467C1280.8,564.595 1279.55,565.29 1278.19,565.338C1274.5,565.468 1272.37,564.971 1270.54,564.366C1268.69,563.754 1267.33,562.879 1263.55,562.907C1260.7,562.929 1254.96,570.342 1254.96,570.342C1254.15,572.169 1252.77,573.53 1251.02,574.573C1249.57,575.437 1249.34,578.616 1249.82,580.384C1250.3,582.153 1249.59,584.03 1248.06,585.038C1241.3,589.493 1238.3,596.408 1238.7,597.794C1239.11,599.179 1241.89,605.161 1242.73,606.865C1243.56,608.568 1242.92,610.395 1241.75,611.883C1235.24,620.119 1237.05,631.044 1235.78,638.208C1234.91,643.095 1225.11,648.062 1227.45,672.722C1227.56,673.859 1229.18,677.281 1230.65,678.146L1231.65,678.954L1232.51,680.282L1232.87,681.806L1232.81,683.186C1232.56,684.793 1230.09,689.557 1234.65,689.058C1236.87,688.815 1238.99,688.116 1240.39,689.855C1241.8,691.594 1241.61,694.126 1239.97,695.639C1235.25,699.976 1225.23,722.011 1241.29,720.228C1247.05,719.589 1239.74,745.573 1244.34,747.531C1248,749.084 1246.9,745.539 1249.92,743.636C1251.37,742.725 1253.23,742.774 1254.62,743.761C1256.02,744.748 1256.69,746.479 1256.32,748.15C1255.12,753.498 1251.48,758.76 1251.71,762.979C1251.92,766.993 1257.96,768.904 1257.67,773.464C1257.62,774.272 1257.84,775.447 1258.58,775.881C1259.84,776.618 1263.61,776.566 1265.23,777.883L1266.56,779.291L1267.48,781.046C1267.86,782.077 1268.09,783.348 1268,784.921C1267.94,786.01 1266.31,787.913 1267.25,788.867C1270.09,791.753 1273.8,790.472 1276.68,789.316C1278.65,789.338 1280.35,790.715 1280.77,792.641C1281.5,795.951 1282.94,797.073 1284.53,798.619C1286.97,801.011 1289.79,803.965 1292.3,811.397C1292.62,812.336 1294.16,813.652 1294.52,813.551C1295.75,813.211 1297.2,812.699 1298.96,812.142C1300.06,811.793 1301.26,811.909 1302.27,812.463C1303.29,813.017 1304.03,813.961 1304.33,815.077C1306.26,822.19 1313.32,826.7 1316.9,827.858C1320.05,828.88 1321.65,830.192 1322.6,831.584L1323.45,833.285C1323.7,834.006 1323.85,834.798 1323.91,835.689C1324.03,837.639 1323.44,840.467 1323.77,844.987C1323.97,847.727 1325.81,849.113 1327.61,849.894C1330.02,850.942 1332.49,851.06 1333.01,851.088C1334.73,851.182 1336.21,852.299 1336.78,853.916C1337.35,855.534 1336.89,857.335 1335.61,858.479C1322.42,870.292 1329.54,885.245 1328.01,891.405C1327.66,892.811 1327.63,894.496 1326.4,895.443C1325.16,896.391 1323.5,896.582 1322.08,895.941C1316.89,893.601 1310.52,888.965 1309.12,888.306C1302.33,892.658 1301.16,900.169 1297.99,902.15C1295.52,903.691 1289.23,902.146 1287.9,900.816C1279.66,892.597 1287.15,886.284 1285.18,881.693L1265.24,886.341C1263.34,885.298 1262.53,882.988 1263.37,880.987C1267.82,870.35 1271.72,866.911 1271.83,862.276C1271.93,858.288 1267.34,855.897 1264.06,853.176C1263.2,852.465 1262.51,851.627 1261.49,851.524C1260.3,851.402 1258.3,852.797 1256.9,852.447C1255.49,852.097 1254.37,851.056 1253.91,849.686C1253.45,848.334 1252.66,847.669 1251.84,846.446C1250.28,844.132 1248.83,834.274 1246.6,831.901C1244.73,829.92 1238.8,829.51 1238.44,832.208C1237.64,838.213 1239.82,857.887 1241.83,867.936C1245.42,885.822 1249.25,926.215 1236.12,938.472C1227.2,946.805 1234.75,949.282 1239.44,949.318C1245.61,949.366 1246.44,953.714 1243.13,958.052C1240.71,961.212 1234.83,967.645 1237.46,969.52C1241.32,972.272 1251.03,964.724 1253.4,967.758C1255.25,970.129 1248.55,976.046 1250.85,979.209C1253.33,982.614 1268.74,983.75 1268.26,988.189C1267.11,998.77 1257.38,1001.72 1255.9,1006.72C1255.01,1009.73 1256.83,1012.19 1257.56,1012.25C1264.6,1012.81 1259.84,1031.86 1257.8,1035.67C1248.38,1053.3 1253.4,1078.44 1257.8,1111.98C1260.76,1134.6 1288.57,1178.57 1290.96,1181.1ZM1735.72,631.008L1735.72,631.009L1735.72,631.011L1735.72,631.008ZM1557.04,552.541C1554.73,552.91 1550.1,552.543 1549.57,549.532C1548.98,546.148 1554.01,544.349 1555.79,542.828C1561.84,537.644 1580.31,525.124 1595.14,538.639C1602.05,544.939 1617.07,554.833 1616.06,556.943C1615.05,559.053 1605.89,558.291 1605.89,558.291C1605.89,558.291 1593.27,552.603 1585.79,551.498C1573.37,549.661 1560.82,551.935 1557.04,552.541ZM1518.59,798.993C1524.99,797.19 1528.54,792.348 1534.12,787.278C1543.38,778.859 1544.96,778.851 1547.6,775.722C1549.11,773.933 1555.02,770.225 1556.81,771.733C1558.6,773.24 1558.82,775.917 1557.32,777.706C1554.58,780.957 1554.28,787.852 1544.66,796.599C1537.83,802.808 1526.92,811.606 1519.07,813.587C1519.07,813.587 1497.65,812.794 1489.77,807.049C1479.34,799.445 1453.36,787.769 1453.91,785.673C1454.5,783.411 1457,783.707 1459.09,782.654C1461.11,781.636 1485.45,786.95 1497.82,796.766C1504.88,802.376 1516.44,798.823 1518.59,798.993ZM1434.18,550.201C1435.39,553.047 1435.8,557.988 1435.7,562.576C1435.58,567.799 1434.83,572.566 1433.89,573.269C1432.01,574.676 1428.29,572.814 1427.12,571.913C1424.71,570.052 1423.23,569.773 1417.1,569.658C1409.85,569.523 1405.66,572.314 1401.83,572.947C1397.27,573.701 1389.62,575.38 1381.53,572.686C1377.22,571.252 1368.75,566.645 1363.06,561.44C1360.09,558.718 1358.17,550.327 1358.08,547.265C1358.02,545.225 1361.39,543.316 1362.53,543.065C1369.85,541.46 1388.15,537.772 1401.31,536.398C1407.52,535.75 1412.69,535.688 1415.41,536.36C1424.65,538.636 1431.3,543.468 1434.18,550.201ZM1426.82,560.73C1426.47,559.002 1425.92,557.098 1425.11,555.208C1424.06,552.756 1422.56,550.313 1420.41,548.341C1420.31,550.104 1420.12,552.049 1419.83,553.981C1419.51,556.012 1419.06,558.019 1418.47,559.82C1421.95,559.966 1424.68,560.303 1426.82,560.73ZM1399.49,544.778C1397.38,547.1 1398.12,547.985 1398.9,548.851C1399.69,549.718 1400.96,550.785 1402.93,550.51C1404.93,550.232 1406.88,550.257 1408.43,547.527C1410.28,544.237 1403.6,543.683 1403.6,543.683C1403.6,543.683 1400.54,543.618 1399.49,544.778ZM1387.6,547.611C1387.09,547.694 1372.92,549.562 1370.93,549.965C1370.51,551.252 1376.08,558.197 1382.65,561.076C1387.88,563.364 1390.08,562.079 1391.05,562.122C1389.88,560.764 1387.98,560.64 1386.39,557.335C1384.5,553.405 1386.08,548.954 1387.6,547.611ZM1570.23,586.563C1565.69,585.123 1558.26,581.138 1558.65,576.942C1559.06,572.465 1577.28,581.814 1592.02,584.059C1620.98,588.469 1648.41,623.471 1641.88,627.018C1639.82,628.134 1635.2,622.041 1631.86,619.553C1624.78,614.278 1620.73,605.571 1599.39,595.367C1586.61,589.254 1577.3,588.806 1570.23,586.563ZM1695.96,945.458C1693.73,954.111 1683.74,973.763 1667.44,987.649C1662.03,992.258 1653.44,1007.73 1632.83,1030.09C1617.76,1046.43 1614.36,1086.91 1603.08,1100.01C1587.22,1118.42 1540.74,1169.21 1537.9,1166.1C1528.33,1155.58 1567.32,1125.28 1582.19,1099.74C1605.38,1059.93 1616.96,1007.64 1646.86,990.515C1672.69,975.716 1673.4,950.082 1688.47,938.816C1689.45,938.081 1692.92,934.192 1695.75,936.192C1698.47,938.12 1696.46,943.529 1695.96,945.458ZM1412.74,1018.78C1420.26,1029.66 1440.33,1044.65 1445.73,1051.01C1452.86,1059.42 1462.78,1078.18 1478.46,1088.46C1492.29,1097.54 1514.73,1123.76 1512.32,1126.3C1505.18,1133.83 1492.7,1115.91 1478.88,1104.55C1474.65,1101.06 1462.48,1097.16 1453.44,1088C1439.23,1073.61 1423.9,1053.29 1417.27,1049.59C1412.39,1046.86 1402.66,1034.25 1399.86,1023.59C1397.98,1016.46 1397.48,1003.44 1392.6,994.861C1387.26,985.474 1368.01,968.974 1367.81,967.262C1367.6,965.55 1368.82,963.992 1370.53,963.785C1373.78,963.393 1395.26,975.163 1402.3,984.329C1409.33,993.495 1405.92,1008.91 1412.74,1018.78ZM1603.19,706.314C1609.5,698.531 1618.33,688.206 1620.79,681.924C1621.56,679.965 1622.37,674.502 1627.05,676.024C1633.22,678.028 1612.95,714.501 1598.14,728.675C1588.67,737.73 1581.56,755.576 1568.6,753.442C1559.12,751.882 1541.7,765.565 1534.04,764.396C1520.55,762.337 1517.36,766.597 1506.15,769.659C1488.2,774.562 1461.45,779.544 1429.26,773.203C1421.29,773.45 1399.51,773.859 1386.29,762.845C1382.11,759.357 1379.12,753.97 1377.38,747.787C1374.95,739.164 1374.9,729.003 1376.71,721.147C1377.13,719.333 1378.68,718 1380.54,717.868C1380.96,717.838 1381.38,717.871 1381.79,717.965C1383.56,718.371 1384.87,719.857 1385.06,721.648C1385.12,721.837 1385.73,723.54 1386.44,725.004C1388.9,730.068 1393.91,738.156 1400.59,745.274C1409.83,755.117 1425,759.47 1433.17,761.103C1463.84,767.234 1474.65,762.075 1491.68,757.423C1502.57,754.451 1524.72,755.201 1532.88,753.789C1537.48,752.994 1540.34,746.233 1541.97,742.851C1545.32,735.892 1541.61,729.853 1540.05,726.311C1536.53,718.317 1516.89,718.416 1505.85,712.975C1500.5,710.343 1496.36,707.411 1494.38,704.688C1492.29,701.807 1486.95,696.103 1482.67,690.178C1479.41,685.656 1476.82,680.961 1476.11,677.095C1474.36,667.557 1476.09,660.967 1485.16,649.016C1487.37,646.1 1503.18,633.748 1520.06,629.07C1536.91,624.398 1554.74,627.589 1556.7,628.501C1565,632.363 1566.74,630.662 1577.39,646.099C1579.36,648.954 1585.62,665.532 1584.17,679.338C1582.55,685.33 1579.95,699.296 1575.37,704.44C1571.95,708.275 1569.17,710.197 1563.88,714.708C1559.64,718.309 1559.14,718.506 1556.21,722.704C1552.28,728.316 1554.17,739.369 1548.98,748.375C1548.55,749.127 1563.89,744.614 1578.8,733.776C1590.61,725.187 1596.19,714.956 1603.19,706.314ZM1501.66,696.12C1502.65,698.813 1507.69,703.579 1512.53,705.772C1520.78,709.513 1530.66,713.402 1538.37,715.142C1540.74,715.674 1540.92,715.445 1542.58,715.645C1545.59,709.155 1544.98,705.323 1546.82,700.052C1549.65,691.949 1553.35,690.497 1553.31,683.276C1553.3,680.936 1553.23,678.644 1555.57,678.631C1557.9,678.618 1560.36,684.317 1560.37,686.657C1560.42,694.502 1560.31,690.68 1558.92,699.513C1558.41,702.728 1557.43,706.445 1556.44,709.816C1557.07,709.336 1557.72,708.817 1558.38,708.252C1565.73,701.995 1569.49,699.002 1571.89,695.375C1574.11,692.014 1575.71,685.485 1577.59,678.024C1574.28,680.638 1574.12,679.826 1569.16,680.622C1567.69,680.858 1556.08,671.547 1555.35,664.683C1554.89,660.413 1557.23,655.214 1559.89,653.161C1562.55,651.109 1569.31,653.726 1571.88,653.442C1571.49,652.796 1570.63,651.228 1570.41,650.913C1561.57,638.097 1560.08,639.398 1553.27,636.255C1552.99,636.194 1551.12,635.777 1549.24,635.544C1543.19,634.794 1532.55,634.405 1522.32,637.24C1507.72,641.289 1497.1,653.48 1495.18,656.004C1488.2,665.195 1489.1,666.629 1490.44,673.964C1490.97,676.847 1491.24,677.528 1492.69,681.422C1506.18,679.834 1512.55,655.127 1539.12,663.105C1541.1,663.699 1545.56,667.503 1546.3,673.444C1546.94,678.518 1544.69,684.227 1544.13,685.087C1542.52,687.592 1538.79,692.625 1529.52,694.978C1526.1,695.846 1527.25,696.265 1514.75,697.725C1513.71,697.845 1513.1,696.257 1501.66,696.12ZM1726.39,292.188C1722.85,290.22 1717.78,293.7 1715.34,298.474C1712.04,304.907 1708.54,312.635 1702.29,320.334C1668.48,361.963 1653.17,378.014 1646.6,385.838C1643.92,389.019 1642.99,390.007 1643.06,391.675C1644.32,392.64 1648.19,395.694 1650.19,398.167C1651.98,400.39 1653.12,402.915 1653.15,405.6C1653.16,407.343 1652.75,409.222 1651.58,411.168C1668.04,430.453 1670.46,444.835 1670.62,451.423C1673.23,451.943 1676.72,452.775 1679.73,453.964C1682.5,455.059 1684.86,456.512 1686.27,458.128L1687.05,459.172L1687.65,460.386L1688,461.739L1688.05,463.126L1687.56,465.109L1686.96,466.04C1691.66,469.097 1695.23,473.294 1696.5,477.091C1697.09,478.866 1697.26,480.594 1697.01,482.203C1700.85,483.291 1702.39,484.314 1703.93,486.594C1705.64,489.124 1704.57,493.275 1706.94,492.208C1712.21,489.838 1702.98,469.812 1703.11,460.597C1703.17,456.468 1710.63,445.3 1712.58,441.933C1724.49,421.299 1721.24,410.688 1727.39,355.034C1729.35,337.359 1737.79,328.095 1736.63,310.282C1735.97,300.023 1729.94,294.156 1726.39,292.188ZM1702.21,421.617C1695.46,432.247 1696.17,430.05 1694.92,429.645C1693.57,429.209 1695.11,425.228 1697.17,419.304C1699.76,411.89 1702.58,392.653 1700.57,390.52C1695.7,385.378 1693.97,394.115 1688.72,405.574C1687.6,408.013 1687.35,413.9 1687.2,420.281C1686.94,431.168 1686.67,430.361 1686.34,432.716C1686,435.032 1685.07,441.003 1682.76,440.669C1680.44,440.336 1678.87,432.714 1678.07,430.515C1677.12,427.896 1673.93,407.374 1677.63,396.738C1682.04,384.045 1702.75,358.227 1704.55,354.358C1705.26,352.823 1706.82,351.859 1708.51,351.905C1710.2,351.95 1711.7,352.997 1712.33,354.568C1714.16,359.138 1713.91,366.088 1713.65,374.063C1713.05,391.98 1707.02,414.05 1702.21,421.617ZM1221.32,493.859C1221.8,499.199 1223.46,505.967 1224.48,505.983C1228.11,506.039 1226.12,500.779 1229.68,498.716C1233.47,496.522 1239.35,500.201 1242.98,497.622C1248.54,493.661 1248.29,485.668 1263.06,474.949C1258.84,473.283 1256.98,471.739 1256.2,470.692L1255.35,469.161L1254.98,467.333L1255.32,465.266L1255.79,464.317L1256.56,463.316C1265.12,454.476 1277.06,452.748 1282.41,452.404C1286.38,445.742 1287.42,445.791 1293.68,439.087C1296.1,436.499 1297.41,434.801 1297.67,433.098C1297.92,431.538 1297.2,430.147 1296.38,428.247C1295.31,425.764 1293.9,422.766 1292.57,418.705C1292.16,417.471 1292.35,416.12 1293.07,415.039C1293.78,413.958 1294.96,413.266 1296.25,413.16C1298.77,412.956 1301.42,413.319 1303.71,413.664C1303.68,411.904 1303.72,408.869 1303.84,399.839C1303.86,398.125 1304.91,396.593 1306.51,395.957C1308.1,395.321 1309.92,395.707 1311.11,396.935C1314.98,400.902 1316.66,402.643 1318.07,404.389C1321.82,392.88 1323.98,388.21 1325.66,386.184C1326.41,385.284 1328.96,383.836 1328.96,383.836C1319.37,375.906 1304.22,372.153 1282.38,333.25C1281.78,332.177 1262.54,301.431 1245.88,295.005C1241.3,293.238 1231.46,287.98 1228.52,286.96C1226.14,286.136 1216.58,284.869 1214,289.582C1209.94,296.983 1212.62,316.297 1209.77,333.185C1204.46,364.625 1216.88,395.42 1224.15,430.045C1226.9,443.143 1220.53,485.054 1221.32,493.859ZM1244.13,368.377C1235.84,364.833 1238.41,394.239 1249.86,423.414C1250.72,425.592 1255.37,439.532 1253.16,440.306C1250.95,441.08 1249.02,439.682 1247.76,437.709C1220.27,394.582 1226.52,360.482 1231.06,348.346C1233.88,340.787 1238.09,339.424 1240.91,340.262C1248.75,342.587 1256.98,351.183 1264.5,360.718C1277.36,377.026 1285.61,418.901 1279.2,425.877C1275.17,430.264 1273.68,416.623 1268.23,393.96C1265.9,384.265 1249.72,370.769 1244.13,368.377Z"/>
                    </g>
                </g>
            </g>
        </g>
    </g>
</svg>
