<?xml version="1.0" encoding="UTF-8" standalone="no"?>
<!DOCTYPE svg PUBLIC "-//W3C//DTD SVG 1.1//EN" "http://www.w3.org/Graphics/SVG/1.1/DTD/svg11.dtd">
<svg width="100%" height="100%" viewBox="0 0 946 1182" version="1.1" xmlns="http://www.w3.org/2000/svg" xmlns:xlink="http://www.w3.org/1999/xlink" xml:space="preserve" xmlns:serif="http://www.serif.com/" style="fill-rule:evenodd;clip-rule:evenodd;stroke-linejoin:round;stroke-miterlimit:2;">
    <g transform="matrix(1,0,0,1,-1064,-1406)">
        <g transform="matrix(1,0,0,1,33.882,0)">
            <g id="site_golden" transform="matrix(0.26936,0,0,0.47619,1030.81,1406.58)">
                <rect x="0" y="0" width="3507.87" height="2480.32" style="fill:rgb(180,203,230);"/>
                <clipPath id="_clip1">
                    <rect x="0" y="0" width="3507.87" height="2480.32"/>
                </clipPath>
                <g clip-path="url(#_clip1)">
                    <g id="golden" transform="matrix(3.7125,0,0,3.04563,-11756.4,-1117.21)">
                        <g id="contorno" transform="matrix(1,0,0,0.689512,134.429,366.718)">
                            <path d="M3865.95,1181.1L3165.91,1181.1L3165.77,1181.25L3143.47,1181.19L3143.54,1181.1C3162.37,1154.78 3178.93,1124 3193.75,1088.57C3202.37,1067.97 3209.1,1037.32 3222.58,1024.69C3226.47,1021.06 3226.65,1016.12 3224.82,1011.11C3221.35,1001.65 3226.17,966.125 3240.33,941.594C3230.75,945.522 3224.74,941.313 3229.63,923.937C3230.36,921.335 3231.01,919.239 3231.6,917.578C3231.28,917.69 3230.95,917.805 3230.59,917.923C3224.98,919.791 3209.11,913.964 3217.74,899.543C3210.16,902.222 3170.36,883.975 3213.72,879.127C3213.72,879.127 3198.8,868.189 3199.07,862.522C3199.3,857.814 3201.89,852.827 3209.82,848.03C3211.43,847.052 3212.81,844.799 3211.72,844.513C3200.97,841.693 3205.37,829.485 3219.53,819.44C3221.79,817.838 3216.93,810.465 3212.82,805.817C3205.97,798.082 3202.26,788.925 3222.34,786.879C3223.44,786.767 3224.06,785.104 3223.23,784.084C3219.94,780.037 3217.72,773.739 3220.97,771.808C3222.64,770.809 3227.94,765.945 3237.33,762.152C3244.49,759.26 3266.09,750.202 3264.3,747.391C3262.47,744.521 3250.22,748.481 3249.68,745.904C3248.12,738.329 3271.82,732.476 3268.97,730.33C3263.11,725.916 3243.07,712.548 3281.24,701.508C3290.54,698.815 3285.22,696.998 3284.22,696.761C3273.49,694.213 3264.84,681.891 3265.58,670.363C3266.26,659.564 3276.05,649.46 3275.27,648.781C3268.42,642.803 3262.47,627.339 3253.86,621.395C3245.25,615.455 3217.36,628.872 3223.6,613.118C3173.08,631.694 3220.01,563.905 3229.6,552.609C3243.22,536.551 3234.08,530.973 3273.04,496.119C3275.92,493.536 3255.74,498.783 3253.68,491.228C3252.16,485.597 3262.67,478.852 3273.62,473.512C3262.37,471.638 3253.12,456.571 3267,443.299C3290.71,420.641 3250.82,428.322 3258.44,418.917C3264.38,411.594 3280.64,394.5 3305.8,402.117C3291.27,395.674 3275.45,380.382 3274.55,378.339C3270.19,368.409 3289.86,375.847 3286.22,365.566C3283.19,357.029 3295.06,364.797 3303.78,363.828C3287.2,340.652 3311.31,349.852 3315.95,350.635C3319.16,351.177 3345.47,354.512 3355.71,351.268C3365.11,348.291 3358.1,336.482 3377.4,331.171C3370.15,324.983 3368.03,323.483 3369.04,316.775C3369.5,313.695 3382.71,321.061 3386.66,321.729C3393.33,322.86 3385.56,323.99 3440.88,298.576C3472.62,283.997 3488.51,282.512 3507.75,276.047C3557.68,259.267 3626.48,294.663 3668.25,311.914C3678.75,316.249 3688.95,325.613 3693.99,337.458C3730.67,349.483 3729.8,369.58 3725.64,387.137C3732.42,393.851 3738.91,399.182 3743.14,401.32C3753.2,406.396 3760.53,405.885 3769.33,409.454C3780.25,413.881 3796.17,427.851 3801.07,444.898C3805.65,460.872 3804.46,479.803 3802.9,482.235C3805.24,492.388 3808.43,504.323 3809.84,521.007C3811.25,537.71 3806.61,559.366 3794.75,576.248C3802.8,591.558 3813.89,620.484 3814.33,628.245C3815.2,643.815 3808.04,642.193 3801.72,635.093C3800.3,651.352 3802.01,657.96 3783.86,668.243C3783.78,668.288 3783.7,668.327 3783.63,668.361C3783.5,684.115 3780.8,695.05 3778.87,701.098C3780.25,704.855 3781.31,708.586 3781.97,712.256C3783.67,721.77 3775.91,730.6 3773.09,738.666C3771.59,742.945 3812.32,766.743 3806.42,777.443C3804.4,781.122 3792.71,776.258 3794.19,780.56C3796.13,786.187 3809.57,797.673 3819.18,811.433C3831.35,828.853 3838.78,842.247 3819.76,845.78C3829.54,862.764 3828.9,863.266 3825.07,869.026C3821.52,874.354 3802.89,863.874 3802.66,869.901C3802.45,875.552 3820.83,884.606 3827.04,898.908C3830.9,907.819 3822.37,921.272 3819.83,923.84C3825.87,933.413 3854.67,935.377 3863.22,1090.07L3862.82,1086.43C3862.91,1105.1 3865.2,1162.61 3865.95,1181.1Z" style="fill:white;"/>
                        </g>
                        <g id="linhas" transform="matrix(1,0,0,0.689512,134.429,366.718)">
                            <path d="M3865.95,1181.1L3843.33,1181.1C3842.58,1163.15 3853.51,1124.92 3851.39,1119.02C3851.39,1119.02 3837.31,991.865 3833.18,973.133C3837.06,1020.44 3830.65,1093.22 3801.93,1061.94C3803.79,1080.88 3812.18,1087.28 3793.08,1087.72C3820.64,1131.28 3774.91,1113.33 3766.22,1114.31C3738.66,1117.41 3764.55,1145.32 3724.99,1181.1L3717.2,1181.1C3721.39,1171.42 3729.82,1147.28 3737.99,1121.17C3747.05,1092.2 3780.24,1104.85 3776.83,1095.88C3765.64,1066.36 3791.91,1085.56 3794.38,1075.39C3795.86,1069.29 3781.66,1056.69 3783.01,1053.23C3785.65,1046.46 3816.99,1052.75 3819.45,1046.26C3824.61,1032.65 3813.42,997.094 3816.1,985.435C3818.2,976.323 3819.53,968.396 3820.42,961.955C3814.25,950.66 3807.91,944.284 3803.79,927.916C3801.68,919.554 3810.95,907.983 3807.59,898.694C3803.19,886.531 3792.84,871.276 3792.85,871.24C3787.49,858.614 3801.89,860.006 3809.81,853.921C3814.77,850.115 3805.59,843.126 3805.82,840.949C3807.11,828.688 3813.96,829.09 3812.02,823.143C3807.93,810.585 3787.31,794.331 3780.96,785.632C3779.61,783.782 3780.26,770.476 3788.75,766.828C3791.11,765.815 3766.3,760.508 3758.05,750.289C3755.68,747.359 3754.97,744.924 3755.9,739.731C3756.19,738.111 3759.45,737.396 3762.06,735.775C3791.28,717.618 3720.65,632.902 3713.4,629.852C3705.38,626.479 3676.61,629.332 3667.74,632.142C3656.27,635.771 3650.42,637.572 3639.51,633.723C3623.14,627.943 3603.6,646.243 3595.89,646.093C3571.78,645.623 3565.05,636.607 3545.8,630.763C3543.59,630.092 3524.43,627.978 3530.48,620.94C3535.76,614.797 3571.1,631.452 3589.59,629.552C3592.46,629.257 3612.35,624.883 3621.65,619.65C3635.68,611.757 3640.38,617.269 3641.78,618.143C3650.6,623.639 3662.2,619.627 3666.93,617.341C3676.04,612.935 3693.9,612.245 3712.66,612.151C3723.68,612.096 3737.96,598.437 3751.96,590.551C3757.14,587.63 3767.99,577.394 3768.79,575.613C3776.17,559.245 3780.7,548.194 3779.57,546.243C3775.26,538.804 3768.48,546.913 3740.78,554.268C3704,564.036 3683.55,601.637 3647.21,604.096C3623.76,604.475 3613.5,595.395 3603.58,590.551C3599.61,588.613 3596.59,582.082 3601.1,580.974C3608.75,579.097 3616.66,590.952 3633.45,590.551C3685.11,589.319 3691.58,553.841 3740.99,541.552C3776.98,532.603 3784.62,527.449 3790.44,535.753C3791.8,537.687 3792.53,545.545 3786.11,559.783C3785.41,561.333 3784.76,563.108 3784.01,564.994C3795.15,552.643 3802.26,538.729 3798.81,524.832C3796.08,513.82 3795.28,504.578 3793.84,495.221C3782.99,505.684 3778.43,496.385 3753.53,501.102C3715.55,508.299 3704.95,489.415 3694.92,469.454C3692.14,463.917 3685.98,454.402 3687.51,450.349C3694.66,431.486 3697.59,424.96 3714.51,418.49C3720.98,416.014 3720.71,416.712 3728.42,413.382C3714.21,404.723 3692.55,390.248 3680.78,371.953C3675.91,364.375 3672.43,356.507 3669.32,349.488C3667.63,345.671 3660.73,335.795 3655.36,332.807C3644.85,326.957 3624.25,306.262 3601.15,298.943C3556.39,284.764 3493.05,283.747 3445.44,310.693C3397.14,338.032 3383.33,349.727 3366.37,363.996C3355.57,373.081 3315.23,360.673 3320.73,372.67C3321.37,374.058 3326.6,382.381 3321.68,382.414C3317.34,382.444 3297.12,378.743 3299.9,384.218C3302.05,388.466 3330.08,407.151 3317.85,411.505C3306.41,415.582 3282.64,409.158 3279.26,413.189C3273.09,420.538 3294.54,437.47 3297.97,438.067C3293.05,446.369 3282.75,447.73 3276.49,452.967C3262.99,464.258 3287.27,466.923 3297.52,468.514C3288.39,481.53 3278.26,482.926 3279.48,485.463C3281.97,490.692 3307,482.852 3313.71,469.799C3323.71,450.323 3327.03,463.605 3320.79,476.549C3320.18,477.82 3317.99,481.259 3312.49,482.937C3314.89,487.736 3319.22,493.54 3321.8,494.748C3328.62,497.942 3330.45,492.289 3343.25,479.273C3347.04,480.372 3335.72,505.183 3324.68,506.465C3319.89,507.02 3308.93,500.777 3306.7,490.072C3298.49,498.146 3287.49,502.831 3281.42,502.933C3262.12,524.875 3262.65,529.234 3252.69,546.534C3247.02,556.379 3211.69,582.611 3220.91,595.731C3222.85,598.477 3245.54,587.723 3248.58,583.094C3258.6,567.793 3268.25,557.023 3269.36,562.925C3271.13,572.282 3246.69,602.075 3234.94,605.886C3238.09,613.233 3261.28,600.878 3260.8,612.476C3260.45,620.751 3279.67,620.188 3284.38,613.732C3290.24,605.715 3292.51,591.272 3299.68,590.551C3304.47,590.069 3305.75,595.913 3298.1,611.732C3293.81,620.601 3275.6,625.279 3276.3,632.397C3276.9,638.597 3307.87,639.75 3301.9,650.851C3301.38,651.83 3300.44,658.484 3303.8,659.316C3317.46,662.705 3361.55,670.001 3385.06,638.21C3398.54,619.983 3397.58,568.772 3396.2,527.214C3394.39,472.837 3385.35,426.513 3388.1,410.122C3391.42,390.344 3399.93,385.532 3398.64,396.808C3395.99,419.857 3404.11,429.798 3404.68,459.513C3407.68,441.558 3413.49,420.121 3417.56,402.388C3421.7,384.331 3424.22,369.987 3441.15,352.656C3447.72,345.929 3463.1,334.809 3449.46,354.196C3435.53,373.995 3429.28,395.858 3427.65,416.77C3426.13,436.307 3411.49,462.988 3408.55,478.187C3405.09,496.096 3408.26,502.353 3408.03,507.963C3413.78,546.597 3421.6,590.829 3399.44,644.437C3392.34,661.613 3378.7,669.413 3356.28,671.464C3346.54,672.355 3333.62,683.349 3317.05,680.464C3311.5,679.497 3293.55,667.954 3287.67,666.465C3283.1,665.309 3278.12,676.93 3282.6,683.666C3288.3,692.26 3298.57,684.605 3304.41,692.364C3306.77,695.504 3304.08,705.428 3302.35,706.777C3295.78,711.89 3274.53,712.611 3272.97,716.534C3271.4,720.457 3291.21,726.728 3291.12,729.017C3291.12,729.19 3291.11,729.364 3291.08,729.537C3291.08,729.546 3288.96,734.538 3285.8,736.077C3285.7,736.111 3285.55,736.181 3285.35,736.283C3283.54,737.194 3273.28,738.048 3272.4,739.96C3271.53,741.873 3284.48,744.463 3284.65,748.582C3284.81,752.362 3273.74,758.085 3271.18,758.84C3259.38,762.323 3253.45,762.737 3241.7,774.035C3237.93,777.663 3255.22,787.896 3251.14,791.703C3246.01,796.498 3231.56,794.434 3228.23,800.37C3225.98,804.391 3234.19,812.082 3232.29,816.147C3227.42,826.605 3223.33,822.788 3223.46,831.019C3223.65,842.608 3238.7,838.393 3237.91,846.788C3236.35,863.455 3215.24,848.352 3215.14,860.385C3215.11,863.462 3227.59,866.033 3233.07,873.597C3236.62,878.496 3215.12,884.081 3214.85,887.313C3214.28,894.184 3234.2,878.997 3241.7,883.78C3245.96,886.497 3226.33,894.843 3226.34,902.061C3226.35,906.285 3231.55,907.79 3235.05,907.077C3241.93,905.67 3248.01,902.251 3255.71,896.442C3268.55,886.761 3272.04,873.246 3274.27,873.536C3284.94,874.922 3284.61,886.206 3276.56,894.479C3284.95,896.748 3287.69,903.045 3312.58,901.529C3327.44,900.624 3343.61,892.038 3348.03,887.919C3340.31,886.39 3339.59,886.756 3330.79,884.389C3324.33,882.65 3328.45,870.59 3342.35,868.871C3349.75,867.956 3358.51,879.139 3373.49,881.834C3380.43,883.08 3391.38,884.204 3397.71,883.233C3425.65,878.946 3435.6,864.204 3437.17,868.651C3441.31,880.411 3387.77,904.376 3369.41,892.381C3369.44,892.499 3337.62,910.939 3313.78,914.13C3293.76,916.809 3279.4,908.616 3264.72,905.548C3260.36,908.957 3252.5,913.42 3242.75,916.067C3242.7,916.155 3241.56,927.706 3243.76,927.128C3245.83,926.588 3259.95,920.574 3261.65,926.528C3262.86,930.757 3254.51,943.921 3251.22,952.086C3240.92,977.645 3229.85,991.688 3235.99,997.233C3239.03,999.969 3241.16,993.134 3251.59,996.977C3255.74,998.506 3238.53,1031.45 3235.01,1038.44C3229.46,1049.49 3217.84,1060.98 3214.62,1070.91C3204.54,1102.06 3204.52,1126.67 3177,1166.86C3173.16,1172.46 3169.43,1177.18 3165.91,1181.1L3165.77,1181.25L3143.47,1181.19L3143.54,1181.1C3162.37,1154.78 3178.93,1124 3193.75,1088.57C3202.37,1067.97 3209.1,1037.32 3222.58,1024.69C3226.47,1021.06 3226.65,1016.12 3224.82,1011.11C3221.35,1001.65 3226.17,966.125 3240.33,941.594C3230.75,945.522 3224.74,941.313 3229.63,923.937C3230.36,921.335 3231.01,919.239 3231.6,917.578C3231.28,917.69 3230.95,917.805 3230.59,917.923C3224.98,919.791 3209.11,913.964 3217.74,899.543C3210.16,902.222 3170.36,883.975 3213.72,879.127C3213.72,879.127 3198.8,868.189 3199.07,862.522C3199.3,857.814 3201.89,852.827 3209.82,848.03C3211.43,847.052 3212.81,844.799 3211.72,844.513C3200.97,841.693 3205.37,829.485 3219.53,819.44C3221.79,817.838 3216.93,810.465 3212.82,805.817C3205.97,798.082 3202.26,788.925 3222.34,786.879C3223.44,786.767 3224.06,785.104 3223.23,784.084C3219.94,780.037 3217.72,773.739 3220.97,771.808C3222.64,770.809 3227.94,765.945 3237.33,762.152C3244.49,759.26 3266.09,750.202 3264.3,747.391C3262.47,744.521 3250.22,748.481 3249.68,745.904C3248.12,738.329 3271.82,732.476 3268.97,730.33C3263.11,725.916 3243.07,712.548 3281.24,701.508C3290.54,698.815 3285.22,696.998 3284.22,696.761C3273.49,694.213 3264.84,681.891 3265.58,670.363C3266.26,659.564 3276.05,649.46 3275.27,648.781C3268.42,642.803 3262.47,627.339 3253.86,621.395C3245.25,615.455 3217.36,628.872 3223.6,613.118C3173.08,631.694 3220.01,563.905 3229.6,552.609C3243.22,536.551 3234.08,530.973 3273.04,496.119C3275.92,493.536 3255.74,498.783 3253.68,491.228C3252.16,485.597 3262.67,478.852 3273.62,473.512C3262.37,471.638 3253.12,456.571 3267,443.299C3290.71,420.641 3250.82,428.322 3258.44,418.917C3264.38,411.594 3280.64,394.5 3305.8,402.117C3291.27,395.674 3275.45,380.382 3274.55,378.339C3270.19,368.409 3289.86,375.847 3286.22,365.566C3283.19,357.029 3295.06,364.797 3303.78,363.828C3287.2,340.652 3311.31,349.852 3315.95,350.635C3319.16,351.177 3345.47,354.512 3355.71,351.268C3365.11,348.291 3358.1,336.482 3377.4,331.171C3370.15,324.983 3368.03,323.483 3369.04,316.775C3369.5,313.695 3382.71,321.061 3386.66,321.729C3393.33,322.86 3385.56,323.99 3440.88,298.576C3472.62,283.997 3488.51,282.512 3507.75,276.047C3557.68,259.267 3626.48,294.663 3668.25,311.914C3678.75,316.249 3688.95,325.613 3693.99,337.458C3730.67,349.483 3729.8,369.58 3725.64,387.137C3732.42,393.851 3738.91,399.182 3743.14,401.32C3753.2,406.396 3760.53,405.885 3769.33,409.454C3780.25,413.881 3796.17,427.851 3801.07,444.898C3805.65,460.872 3804.46,479.803 3802.9,482.235C3805.24,492.388 3808.43,504.323 3809.84,521.007C3811.25,537.71 3806.61,559.366 3794.75,576.248C3802.8,591.558 3813.89,620.484 3814.33,628.245C3815.2,643.815 3808.04,642.193 3801.72,635.093C3800.3,651.352 3802.01,657.96 3783.86,668.243C3783.78,668.288 3783.7,668.327 3783.63,668.361C3783.5,684.115 3780.8,695.05 3778.87,701.098C3780.25,704.855 3781.31,708.586 3781.97,712.256C3783.67,721.77 3775.91,730.6 3773.09,738.666C3771.59,742.945 3812.32,766.743 3806.42,777.443C3804.4,781.122 3792.71,776.258 3794.19,780.56C3796.13,786.187 3809.57,797.673 3819.18,811.433C3831.35,828.853 3838.78,842.247 3819.76,845.78C3829.54,862.764 3828.9,863.266 3825.07,869.026C3821.52,874.354 3802.89,863.874 3802.66,869.901C3802.45,875.552 3820.83,884.606 3827.04,898.908C3830.9,907.819 3822.37,921.272 3819.83,923.84C3825.87,933.413 3854.67,935.377 3863.22,1090.07L3862.82,1086.43C3862.91,1105.1 3865.2,1162.61 3865.95,1181.1ZM3558.3,1181.1C3556.83,1176.64 3579.48,1133.81 3585.35,1080.98C3586.78,1068.16 3587.89,1044.3 3579.59,1041.06C3573.72,1038.77 3567.31,1041.5 3558.6,1033.08C3550.36,1025.1 3557.33,1005.64 3553.05,1003.28C3548.77,1000.92 3541.29,1018.39 3532.94,1018.91C3527.02,1019.28 3519.54,1016.06 3516.2,1012.05C3512.87,1008.05 3511.47,1001.14 3512.92,994.887C3514.31,988.911 3519.34,984.153 3521.29,983.202C3525.67,981.068 3520.38,1004.6 3527.56,1005.16C3531.59,1005.47 3537.06,1002.22 3542.78,996.731C3546.87,992.803 3552.61,991.852 3556.17,992.066C3560.84,992.346 3562.39,998.082 3563.52,1003.5C3564.29,1007.17 3563.88,1016.12 3568.23,1021.27C3573.83,1027.9 3581.16,1026.75 3585.49,1026.73C3593.41,1026.69 3608.24,1002.39 3609.56,988.43C3615.98,920.559 3585.81,887.701 3604.95,900.887C3626.31,915.597 3631.5,960.373 3624.27,994.261C3622.72,1001.5 3609.89,1023.77 3603.48,1027.8C3589.83,1036.37 3610.89,1061.07 3596.85,1120.61C3587.62,1159.74 3573.89,1176.36 3566.15,1181.1L3558.3,1181.1ZM3767.11,490.545C3773.32,490.456 3784.02,489.655 3788.77,483.613C3793.04,478.175 3791.72,467.592 3791.33,464.936C3785.93,464.33 3779.4,459.129 3779.5,453.364C3779.55,450.943 3783.68,446.123 3786.46,445.031C3783.93,435.77 3779.31,428.554 3772.63,422.086C3770.85,420.361 3762.21,417.057 3759.52,417.108C3751,417.269 3740.36,418.064 3730.93,422.555C3715.52,429.889 3708.24,434.645 3701.87,450.064C3698.65,457.845 3699.89,462.455 3703.1,467.568C3712.83,483.035 3722.58,497.471 3753.25,492.086C3756.55,487.063 3763.58,479.436 3765.06,473.347C3768.33,459.888 3770.31,446.235 3771.41,451.052C3775.5,469.041 3771.09,483.402 3767.11,490.545ZM3720.89,462.879C3731.28,465.542 3729.55,451.618 3740.13,446.213C3776.16,427.802 3757.88,496.971 3724.37,473.753C3710.68,464.273 3714.8,461.321 3720.89,462.879ZM3725.42,619.905C3725.78,620.275 3758.65,650.087 3768.53,688.261C3772.33,663.199 3772.55,615.164 3778.15,624.588C3784.9,635.925 3782.31,647.415 3782.6,658.275C3787.47,656.934 3792.68,647.624 3792.07,632.418C3791.9,628.329 3799.23,627.628 3799.3,622.047C3799.39,614.416 3795.1,594.557 3788.43,584.316C3781.95,597.4 3730.4,620.912 3725.42,619.905ZM3581.72,367.997C3578.52,363.604 3575.48,360.612 3569.66,357.634C3559.19,352.273 3544.47,354.562 3532.91,364.373C3513.95,380.445 3515.84,407.687 3513.57,407.434C3508,406.812 3500.55,373.973 3530.64,351.873C3546.58,340.17 3567.06,342.468 3579.81,347.743C3582.45,348.834 3598.69,370.623 3600.15,378.025C3607.86,390.618 3600.41,415.956 3566.05,422.562C3560.78,423.575 3546.15,423.238 3535.5,420.151C3526.8,417.633 3520.15,412.823 3520.83,402.297C3522.96,369.442 3547.62,356.784 3581.72,367.997ZM3575.28,410.974C3583.17,408.652 3586.18,406.035 3589.5,401.366C3592.79,396.746 3592.31,389.633 3591.25,386.005C3589.71,380.732 3585.71,376.782 3576.11,376.042C3580.66,379.476 3583.42,384.629 3583.6,389.867C3583.85,396.874 3582.13,402.166 3579.55,406.115C3578.29,408.039 3576.83,409.644 3575.28,410.974ZM3542.68,381.898C3531.84,386.721 3529.91,392.717 3529.52,401.133C3529.48,402.012 3529.58,404.598 3532.38,406.733C3537.62,410.722 3542.2,413.211 3548.43,413.98C3536.54,406.993 3539.48,388.718 3542.68,381.898ZM3561.05,389.662C3561.57,388.701 3563.5,385.798 3561.58,382.154C3560.39,379.885 3556.7,380.393 3556.11,380.295C3553.36,379.842 3550.98,383.639 3550.65,384.313C3549.46,386.734 3551.68,389.941 3552.65,390.643C3554.79,392.188 3559.75,392.085 3561.05,389.662ZM3623.68,458.752C3626.74,469.404 3617.27,455.132 3592.13,485.93C3583.58,496.395 3578.98,501.168 3572.63,507.495C3562.85,517.244 3564.89,526.636 3567.67,532.293C3569.07,535.143 3573.33,539.347 3569.56,542.573C3566.94,544.81 3560.41,537.819 3557.59,532.978C3553.01,525.129 3552.93,511.906 3558.76,504.708C3563.13,499.302 3569.93,496.731 3579.31,478.641C3583.59,470.383 3620.86,448.947 3623.68,458.752Z" style="fill-rule:nonzero;"/>
                        </g>
                    </g>
                </g>
            </g>
        </g>
    </g>
</svg>
