<?xml version="1.0" encoding="UTF-8" standalone="no"?>
<!DOCTYPE svg PUBLIC "-//W3C//DTD SVG 1.1//EN" "http://www.w3.org/Graphics/SVG/1.1/DTD/svg11.dtd">
<svg width="100%" height="100%" viewBox="0 0 946 1182" version="1.1" xmlns="http://www.w3.org/2000/svg" xmlns:xlink="http://www.w3.org/1999/xlink" xml:space="preserve" xmlns:serif="http://www.serif.com/" style="fill-rule:evenodd;clip-rule:evenodd;stroke-linejoin:round;stroke-miterlimit:2;">
    <g transform="matrix(1,0,0,1,-13298,-1406)">
        <g id="site_dalmata" transform="matrix(0.26936,0,0,0.47619,13298.7,1406.58)">
            <rect x="0" y="0" width="3507.87" height="2480.32" style="fill:rgb(150,183,220);"/>
            <g id="dalmata">
                <g id="contorno" transform="matrix(4.05499,0,0,2.29373,-58269.6,-3455.14)">
                    <path d="M15120.9,2587.68L14589.2,2587.68C14589.2,2587.68 14586.5,2580.01 14584.8,2577.03C14553,2519.63 14573.7,2400.57 14573.8,2400.08C14576.1,2385.34 14589.8,2350.53 14594.7,2332.28C14597.9,2320.18 14618.4,2267.33 14623.8,2243.61C14627.7,2226.68 14627,2216.88 14627,2190C14627,2156.23 14623.8,2119.1 14621.7,2101.85C14616,2098.3 14609.8,2088.82 14609,2087.38C14596.4,2087.75 14580.2,2086.65 14570.5,2075.78C14560.1,2063.95 14559,2057.84 14562.8,2040.81C14563.9,2035.95 14549.3,2034.53 14557.1,1997.13C14563.5,1966.27 14584.8,1947.8 14579.4,1931.62C14573.2,1912.71 14576.5,1865.7 14577.6,1847.84C14572.4,1862.31 14562.8,1893.46 14547.2,1920C14527.1,1954.17 14517.1,1942 14517.1,1942C14527.5,1914.68 14505.9,1863.34 14498.1,1853C14490.3,1842.66 14481.9,1809.5 14484.1,1795C14486.3,1780.5 14480.7,1782.12 14484.1,1766C14487.5,1749.88 14512.6,1737.4 14521.1,1736C14529.6,1734.6 14551.4,1730.33 14560.1,1725C14568.8,1719.67 14587.1,1715 14587.1,1715C14587.1,1715 14618.6,1710.81 14627.8,1706C14636.9,1701.19 14652.1,1687.07 14661.1,1681C14667.8,1676.47 14684.3,1678.34 14689.1,1681.11C14689.6,1681.39 14690,1681.7 14690.2,1682C14693,1684.1 14701.3,1689.17 14715.7,1689C14733.8,1688.8 14758.7,1690.38 14774,1696.63C14789.4,1702.88 14783.2,1703.92 14802.9,1707.09C14822.6,1710.25 14847,1715.53 14874.8,1732.44C14897,1745.94 14907.1,1754.82 14913.7,1761.48C14916.7,1763.35 14920.5,1765.2 14924.3,1767.27C14929.6,1765.73 14940.9,1765.42 14956.1,1781C14977.6,1803.1 14992.6,1832.89 15009.1,1848C15025.6,1863.11 15027.2,1867.87 15039.1,1882C15049.7,1894.54 15079.5,1924.97 15073.1,1941C15067.4,1955.34 15067.4,1947.76 15055.1,1969C15042.8,1990.25 15016.2,2026.78 14984.4,2035.63C14955.7,2043.59 14957.2,2059.8 14944.1,2075C14931,2090.2 14928.5,2083.22 14921.1,2080.31C14917.8,2079.01 14912.6,2074.43 14907.8,2068.92C14909.1,2096.73 14912.7,2118.65 14913.9,2123.58C14919.8,2149.4 14917.6,2155.99 14937.7,2180.75C14960.2,2208.45 14972.5,2223.81 14981.1,2242.15C14989.8,2260.49 15003.9,2288.02 15022.1,2315C15033,2331.11 15051.5,2351.73 15066.9,2375.51C15110.9,2443.46 15125.7,2584.95 15120.9,2587.68Z" style="fill:white;"/>
                </g>
                <g id="linhas" transform="matrix(1.34317,0,0,1.17637,-7864.88,-54.1028)">
                    <path d="M6687.6,1609.71C6703.13,1608.12 6723.82,1625.78 6729.87,1641.91C6747.99,1690.19 6738.97,1694.69 6790.41,1740.73C6831.38,1777.39 6917.09,1839.91 6933.46,1863.54C6965.21,1909.39 6964.68,1908.85 6913.42,1876.94C6854.54,1840.29 6710.14,1742.43 6703.13,1656.43C6700.56,1624.95 6681.46,1610.34 6687.6,1609.71ZM6662.74,1519.55C6652.22,1542.93 6621.78,1571.78 6602.18,1607.05C6609.34,1615.34 6622.89,1631.58 6622.19,1647.02C6621.37,1665.31 6622.65,1667.17 6605.41,1675.22C6584.01,1685.21 6596.92,1700.37 6581.38,1710.12C6569.81,1717.38 6561,1699.69 6557.26,1690.19C6535.57,1731.87 6516.74,1771.14 6507.68,1797.86C6508.8,1822.23 6502.22,1871.62 6499.13,1920.53C6513.89,1908.01 6543.92,1886.57 6566.66,1897.46C6577.13,1902.47 6575.43,2035.08 6501.16,2011.4C6501.64,2014.01 6502.18,2016.52 6502.78,2018.93C6503.17,2020.49 6565.42,2154.43 6565.42,2154.43L6517.8,2154.43C6517.8,2154.43 6509.44,2139.47 6504.46,2133.66C6408.38,2021.74 6471,1789.58 6471.23,1788.63C6478.26,1759.89 6519.49,1692.03 6534.21,1656.43C6543.96,1632.85 6605.91,1529.79 6622.19,1483.55C6633.81,1450.54 6631.87,1431.43 6631.87,1379.01C6631.87,1313.16 6622.19,1240.77 6615.93,1207.13C6598.66,1200.2 6579.77,1181.72 6577.56,1178.92C6539.53,1179.65 6491.2,1182.83 6462.13,1161.62C6430.53,1138.57 6426.52,1121.33 6437.96,1088.12C6441.22,1078.64 6386.33,1076.94 6409.84,1004.02C6429.25,943.845 6498.95,903.521 6482.81,871.981C6463.95,835.1 6479.39,746.686 6482.81,711.851C6467,740.064 6438.03,800.803 6390.85,852.559C6330.12,919.186 6300.06,895.455 6300.06,895.455C6331.52,842.193 6266.2,742.075 6242.7,721.92C6219.19,701.765 6193.71,637.097 6200.43,608.83C6207.15,580.562 6190.11,583.709 6200.43,552.285C6210.75,520.861 6286.38,496.519 6312.13,493.79C6337.89,491.06 6403.67,482.742 6429.87,472.341C6456.08,461.941 6511.39,452.843 6511.39,452.843C6511.39,452.843 6606.48,444.681 6634.12,435.295C6661.76,425.908 6707.75,398.384 6734.79,386.549C6754.98,377.708 6804.88,381.369 6819.35,386.753C6820.87,387.32 6822,387.906 6822.66,388.498C6831.18,392.597 6856.23,402.471 6899.52,402.154C6954.11,401.754 7029.52,404.84 7075.75,417.023C7121.97,429.205 7103.26,431.239 7162.8,437.41C7222.35,443.581 7296.04,453.885 7379.99,486.843C7447.06,513.17 7477.33,530.491 7497.34,543.479C7506.51,547.118 7517.87,550.72 7529.26,554.756C7545.45,551.759 7579.63,551.159 7625.39,581.532C7690.29,624.616 7735.65,682.711 7785.39,712.171C7835.14,741.631 7840.01,750.91 7875.96,778.465C7907.86,802.912 7997.92,862.241 7978.61,893.506C7961.34,921.467 7961.34,906.677 7924.27,948.101C7887.19,989.525 7806.82,1060.76 7710.78,1078.01C7624.3,1093.54 7628.62,1125.14 7589.16,1154.78C7549.7,1184.43 7542.09,1170.81 7519.72,1165.13C7509.76,1162.6 7494.03,1153.68 7479.43,1142.94C7483.53,1197.16 7494.5,1239.89 7497.89,1249.5C7515.65,1299.86 7509.14,1312.71 7569.83,1360.97C7637.77,1415 7674.76,1444.93 7700.89,1480.69C7727.02,1516.45 7769.65,1570.14 7824.64,1622.74C7857.47,1654.15 7913.51,1694.37 7959.96,1740.73C8092.7,1873.22 8137.42,2149.1 8122.98,2154.43L8074.18,2154.43C8074.18,2154.43 8039.32,1975.69 7975.33,1815.7C7973.03,1819.89 7968.91,1822.25 7962.56,1821.85C7964.27,1826.39 7964.71,1831.03 7960.49,1833.33C7952.65,1837.59 7945.16,1848.86 7933.32,1839.17C7921.49,1829.49 7920.11,1798.64 7921.25,1780.68C7921.94,1769.72 7930.79,1776.5 7937.57,1783.44C7938.16,1784.04 7938.73,1784.64 7939.27,1785.23C7930.84,1769.23 7921.06,1751.9 7908.18,1738.92C7867.74,1698.14 7821.24,1669.75 7788.41,1638.34C7733.42,1585.74 7705.53,1543.26 7679.4,1507.5C7673.5,1499.42 7666.42,1491.23 7658.24,1482.76C7658.84,1503.29 7660.5,1537.57 7658.6,1548.65C7657.15,1557.08 7648.47,1560.47 7643.5,1544.75C7622.5,1478.34 7588.5,1482.72 7586.14,1470.66C7584.97,1464.65 7592.39,1467.13 7600.21,1468.71C7617.52,1472.2 7600.93,1460.05 7586.14,1439.46C7575.45,1424.58 7579.91,1419.04 7583.92,1416.88C7569.68,1405.15 7554.29,1392.6 7537.84,1379.01C7475.86,1327.84 7455.21,1287.98 7456.32,1262.02C7456.91,1248.34 7437,1102.83 7436.88,1101.25C7434.83,1081.34 7445.22,1025.41 7453,1004.02C7455.74,996.486 7458.39,988.242 7460.52,979.714C7466.27,956.756 7472.84,930.565 7478.54,907.886C7462.31,926.866 7458.6,930.1 7450.29,946.151C7447.38,951.773 7435,982.4 7434.2,986.826C7432.41,996.793 7371.51,1063.91 7362.74,1070.94C7352.05,1079.51 7336.07,1089.51 7326.82,1095.12C7310.86,1121.56 7290.83,1152.4 7275.19,1154.78C7262.66,1156.69 7260.79,1143.21 7265.25,1130.91C7198.2,1167.11 7139.55,1167.52 7139.21,1169.03C7128.17,1219.28 7005.57,1277.21 6900.43,1251.99C6854.53,1240.97 6849.44,1223.51 6815.06,1223.51C6787.93,1223.51 6757.63,1213.54 6733.57,1208.41C6708.47,1219.26 6677.14,1229.9 6653.26,1219.47C6651.3,1248.12 6660,1274.96 6662.74,1318.85C6681.92,1299.31 6729.31,1394.89 6692.43,1408.96C6685.69,1411.54 6680.33,1411.58 6676.08,1409.68C6680.86,1428.23 6657.38,1451.45 6665.35,1466.76C6670.2,1476.05 6669.98,1503.48 6662.74,1519.55ZM6772.04,1190.64C6781.36,1193.93 6786.44,1195.47 6801.21,1195.73C6844.76,1196.49 6829.85,1207.75 6926.21,1225.44C6946.45,1229.15 6997.81,1233.96 7045.26,1212.94C7079.22,1197.89 7109.96,1165.74 7109.02,1156.32C7108.86,1154.72 7109.12,1153.04 7109.72,1151.3L7109.28,1151.28L7109.72,1151.29C7113.61,1139.96 7131.98,1125.88 7145.74,1111.52C7159.64,1097.02 7167.41,1081.77 7169.52,1074.84C7174.04,1060 7175.75,1044.13 7187.64,1033.89C7196.97,1045.69 7204.73,1088.26 7183.94,1108.14C7176.83,1114.94 7169.9,1125.26 7158.17,1139.57C7211.46,1134.57 7246.76,1115.46 7286.35,1088.75C7378.12,1026.84 7416.13,939.542 7417.46,935.892C7428.76,904.933 7438.13,925.239 7534.82,796.014C7545.53,781.694 7554.32,768.408 7561.45,756.067C7543.58,748.646 7520.37,744.148 7525.76,716.071C7531.15,687.993 7522.14,692.795 7493.27,646.089C7485.97,634.283 7485.69,596.256 7487.23,581.182C7473.21,569.818 7419.37,532.735 7376.98,516.091C7293.02,483.133 7243.48,472.828 7183.94,466.657C7124.39,460.486 7109.9,460.403 7063.67,448.22C7017.45,436.038 6942.33,433.026 6887.74,433.425C6848.69,433.711 6692.47,460.909 6592.9,546.435C6497.15,628.674 6522.98,657.441 6517.8,673.066C6517.18,696.462 6505.68,830.927 6526.68,871.981C6542.81,903.521 6410.05,1020.32 6454.3,1058.56C6461.93,1065.15 6487.99,1069.65 6499.13,1070.94C6542.14,1075.94 6612.06,1061.42 6686.91,1049.91C6743.67,1041.18 6856.49,1133.6 6860.69,1136.34C6906.21,1166.05 6962.34,1175.06 7003.1,1166.17C7036.88,1158.8 7034.57,1134.38 7062.13,1130.91C7073.04,1129.54 7051.74,1177.35 7014.91,1186.86C6905.42,1215.14 6827.53,1147.38 6823.13,1144.12C6796.86,1166.68 6795.27,1180.25 6772.04,1190.64ZM6565.73,924.703C6565.73,924.703 6556.57,868.206 6611.01,840.86C6688.19,802.09 6785.59,806.721 6848.57,827.332C6889.04,840.577 6956.6,865.262 6962.16,900.778C6968.94,944.002 6950.52,966.35 6933.46,985.352C6891.65,1031.91 6802.9,1058.44 6720.69,1009.53C6704.63,999.978 6572.52,1026.04 6565.73,924.703ZM6595.91,935.892C6617.6,995.347 6675.8,985.2 6696.89,984.328C6708.57,983.845 6707.2,972.321 6712.06,955.758C6720.11,928.369 6738.64,895.669 6752.9,891.556C6752.47,895.724 6745.86,924.864 6739.94,953.031C6735.17,975.717 6730.91,992.135 6743.67,997.419C6816.69,1027.66 6868.69,1011.97 6900.43,976.813C6870.31,984.972 6812.13,990.097 6790.41,959.561C6766.86,926.434 6814.03,904.156 6837.44,911.054C6869.99,920.649 6847.83,939.157 6855.55,950.051C6861.58,958.556 6894.49,960.366 6910.47,963.96C6923.54,943.967 6929.99,916.842 6921.42,898.624C6913.68,882.164 6889.78,872.017 6849.31,858.772C6786.33,838.161 6693.16,826.102 6647.24,846.71C6612.76,862.181 6596.8,888.227 6595.33,901.767C6604.71,908.34 6607.73,917.481 6623.09,905.205C6635.01,895.67 6646.5,868.62 6671.39,887.656C6701.6,910.759 6690.4,925.956 6678.72,934.388C6667.05,942.819 6631.53,948.783 6601.35,938.245C6599.22,937.499 6597.41,936.719 6595.91,935.892ZM6640.67,657.277C6616.43,644.861 6599.41,626.181 6601.87,608.781C6604.32,591.382 6634.81,563.39 6655.4,552.882C6751.52,503.819 6834.42,483.801 6834.42,571.783C6834.42,589.535 6823.45,626.287 6800.6,660.357C6781.74,688.488 6746.86,704.875 6731.41,704.875C6699.08,704.875 6777.75,652.963 6746.86,657.576C6717.6,661.948 6693.33,677.204 6648.3,660.357C6645.82,659.43 6643.28,658.406 6640.67,657.277ZM6699.3,556.009C6675.78,561.16 6657.44,570.435 6653.28,579.582C6647.65,591.958 6641.52,598.037 6647.73,609.705C6658.25,629.496 6701.71,647.719 6761.47,634.619C6762.18,634.202 6762.8,633.804 6763.33,633.423C6745.9,634.099 6729.56,632.155 6718.04,630.809C6633.94,620.988 6684.56,562.07 6699.3,556.009ZM6760.78,563.158C6750.1,560.715 6745.6,561.346 6741.22,562.394C6736.03,563.633 6732.85,564.31 6728.1,567.076C6717.95,572.986 6710.91,580.338 6716.08,589.535C6720.97,598.223 6744.18,600.313 6754.2,598.442C6764.22,596.571 6775.11,584.192 6776.21,578.311C6777.31,572.431 6760.78,563.158 6760.78,563.158ZM7169.52,926.302C7167.62,922.979 7200.42,916.012 7221.73,911.054C7265.86,900.782 7289.26,881.005 7299.34,879.506C7309.42,878.007 7269.84,917.927 7251.72,924.703C7240.9,928.748 7181.42,932.776 7166.33,934.508C7157.62,935.509 7169.52,926.302 7169.52,926.302ZM6809.66,772.616C6833.47,764.925 6955.1,808.654 6892.51,805.695C6888.33,805.498 6868.69,801.345 6852.96,796.014C6842.9,792.603 6806.35,789.731 6800.6,786.265C6793.86,782.199 6793.82,777.732 6809.66,772.616ZM7121.22,723.87C7121.22,723.87 7090.95,670.705 7158.17,673.066C7215.4,675.075 7259.45,641.735 7286.35,640.163C7310.12,638.774 7400.45,650.568 7386.89,757.017C7386.89,757.017 7388.07,778.612 7371.79,782.365C7355.52,786.118 7345.26,794.098 7332.55,801.863C7319.83,809.629 7307.22,810.459 7281.22,801.863C7255.23,793.268 7192.09,766.13 7172.54,768.716C7153,771.302 7153.98,776.136 7139.33,772.616C7124.68,769.095 7128.36,729.008 7121.22,723.87ZM7355.33,725.435C7350.45,738.41 7338.88,751.621 7317.66,758.466C7281.37,770.17 7235.1,749.895 7233.02,749.421C7233.02,749.421 7198.12,727.811 7216.87,694.345C7210.04,698.73 7204.07,702.931 7199.71,706.322C7183.94,718.599 7187.64,727.77 7187.64,727.77C7190.94,730.352 7221.82,770.495 7284.24,772.616C7307.62,773.41 7342.83,775.813 7356.7,751.168C7359.74,745.76 7358.75,736.089 7355.33,725.435ZM7270.24,686.632C7262.73,687.774 7248.48,696.13 7249.39,705.048C7250.3,713.967 7257,723.567 7273.68,725.849C7283.72,727.223 7300.24,725.774 7307.23,718.742C7316.05,709.868 7308.28,696.076 7304.25,691.702C7295.97,682.719 7276.66,685.652 7270.24,686.632ZM6703.81,1078.37C6686.47,1072.34 6679.21,1070.26 6667.35,1073.06C6659.19,1074.98 6651.32,1076.76 6643.72,1078.39L6643,1078.54C6635.06,1080.24 6633.47,1081.78 6626.13,1083.18C6622.67,1085.42 6569.72,1132.9 6615.93,1173.42C6629.9,1185.67 6674.04,1199.71 6707.16,1192.64C6736.81,1186.31 6772.88,1161.54 6797.34,1128.03C6780.5,1117 6762.52,1101.47 6729.87,1088C6724.9,1090.43 6667.6,1143.18 6675.28,1117.53C6680.92,1098.7 6685.13,1091.22 6703.81,1078.37ZM6591.75,1088.08C6508.79,1100.88 6479.11,1105.05 6462.13,1095.12C6453.01,1131.15 6502.78,1162.27 6566.66,1161.62C6544.69,1122.69 6576.06,1107.61 6591.75,1088.08ZM7087.9,1821.03C7103.81,1817.09 7173.63,1843.16 7179.95,1873.39C7185.59,1900.32 7103.31,1931.89 7084.53,1897.01C7080.58,1889.68 7072,1824.96 7087.9,1821.03ZM7502.55,1677.88C7502.76,1676.66 7504.65,1673.86 7506.14,1673.09C7507.62,1672.33 7510.93,1673.17 7511.44,1673.3C7551.31,1682.99 7539.94,1717.33 7531.05,1721.45C7524.5,1724.48 7500.41,1690.36 7502.55,1677.88ZM6807.2,1975.97C6805.24,1970.36 6798.95,1958.18 6804.87,1943.41C6810.79,1928.65 6825.92,1914.48 6845.57,1920.16C6865.22,1925.84 6871.72,1916.96 6876.14,1939.93C6880.56,1962.89 6876.34,1952.76 6872.32,1975.97C6868.29,1999.18 6879.66,2012.44 6860.69,2028.3C6841.71,2044.16 6835.45,2018.5 6825.8,2013.18C6816.16,2007.87 6808.46,1979.6 6807.2,1975.97ZM7493.27,1876.94C7514.32,1868.39 7535.37,1895.99 7533.21,1907.47C7529.08,1929.46 7471.94,1945.98 7465.47,1940.8C7441.05,1921.25 7481.18,1881.85 7493.27,1876.94ZM8013.93,2044.08C8018.01,2061.47 8031.82,2071.63 8003.73,2069.61C7996.32,2069.08 7992.25,2124.63 7980.78,2112.43C7943.25,2072.5 7923.72,2070.75 7946.14,2029.27C7947,2027.68 7952.77,2021.63 7954.94,2022.37C7964.18,2025.52 7959.76,2049.75 7965.34,2048.15C7970.92,2046.56 7978.17,2012.32 7988.43,2012.79C8007.41,2013.67 8001.28,2018.08 8013.93,2044.08ZM7577.06,2154.43L7500.81,2154.43C7500.81,2154.43 7467.46,2138.8 7500.72,2121.65C7519.99,2111.72 7520.27,2091.03 7549.01,2076.71C7604.08,2049.28 7554.54,2111.31 7576.98,2123.22C7618.33,2145.16 7577.06,2154.43 7577.06,2154.43ZM6963.51,2154.43C6963.51,2154.43 6944.87,2112.65 6990.24,2122.15C7018.03,2127.98 7061.16,2131.56 7082.63,2139.34C7092.58,2142.94 7090.27,2152.11 7093.33,2154.43L6963.51,2154.43ZM7159.23,1468.99C7156.56,1441.09 7154.43,1421.91 7154.43,1421.91C7158.4,1418 7222.64,1437.48 7207.12,1523.59C7200.54,1560.11 7186.85,1559.2 7179.95,1593.4C7175.11,1617.41 7148.48,1662.2 7142.35,1652.42C7125.1,1624.89 7165.4,1540.19 7163.72,1519.55C7136.82,1530.83 7133.52,1530.42 7115.73,1523.59C7093.55,1515.07 7083.62,1507.88 7088.14,1492.56C7092.09,1479.16 7080.62,1468.96 7099.48,1464.77C7129.91,1458 7130.31,1464.07 7159.23,1468.99ZM6670.05,1716.1C6758.14,1736.41 6668.78,1815.18 6653.26,1799.66C6642.36,1788.77 6646.05,1782.57 6626.69,1785.7C6595.09,1790.8 6634.16,1730.17 6670.05,1716.1ZM6718.64,1548.74C6749.27,1510.27 6757.62,1517.73 6763.81,1513.16C6818.34,1472.9 6774.69,1609.43 6737.47,1565.43C6723.28,1548.66 6723.61,1568.01 6718.64,1548.74ZM7142.85,1219.47C7185.16,1231.46 7137.34,1237.87 7137.2,1245.33C7137.08,1251.72 7145.54,1258.06 7141.99,1264.26C7122.17,1298.96 7062.68,1277.61 7062.13,1267.64C7060.6,1240.21 7130.23,1215.89 7142.85,1219.47ZM6872.08,1384.82C6888.52,1372.71 6879.8,1371.54 6876.59,1359.15C6872.47,1343.3 6886.83,1343.53 6906.8,1357.61C6933.19,1376.2 6914.87,1389.33 6917.67,1393.66C6934.46,1419.61 6907.9,1420.98 6895.16,1410.75C6884.14,1401.89 6841.4,1407.42 6872.08,1384.82ZM6800.6,1668.5C6806.46,1658.82 6800.46,1650.86 6815.06,1655.35C6845.57,1664.72 6825.52,1640.31 6843.22,1639.57C6855.78,1639.06 6855.47,1642.83 6861.45,1668.43C6864.09,1679.75 6923.44,1721.37 6860.06,1764.24C6855.6,1767.25 6774.03,1724.69 6800.6,1668.5ZM6939.67,1509.65C6977.24,1520.15 6996.4,1569.61 6988.96,1578.34C6958,1614.63 6886.55,1595.93 6907.66,1559.45C6930.46,1520.04 6911.83,1506.2 6939.67,1509.65ZM7260.82,1651.27C7260.96,1629.41 7321.73,1610.98 7334.16,1654.88C7350.91,1714.09 7370.8,1707.65 7300.14,1748.75C7290,1754.65 7218.58,1779.38 7218.88,1698.54C7218.96,1676.69 7260.58,1687.28 7260.82,1651.27ZM7533.88,1564.78C7542.65,1560.15 7509.49,1529.93 7559.38,1540.17C7566.79,1541.69 7584.95,1583.55 7579.6,1532.65C7574.5,1484.07 7659.03,1594.55 7590.35,1613.63C7579.65,1616.6 7566.05,1576.91 7566.05,1576.91C7536.65,1657.76 7506.71,1572.06 7506.81,1567.92C7507.17,1552.79 7526.78,1568.53 7533.88,1564.78ZM7351.39,1384.82C7370.82,1383.33 7356.33,1312.22 7403.44,1339.3C7434.7,1357.28 7446.43,1322.79 7436.88,1384.82C7430.68,1425.01 7397.84,1420.25 7393.41,1407.98C7387.6,1391.85 7371.17,1434.22 7355.33,1423.39C7333.36,1408.36 7346.39,1385.2 7351.39,1384.82ZM7848.59,1766.05C7842.4,1766.05 7862.92,1760.71 7870.85,1768.16C7881.92,1778.56 7881.72,1804.24 7878.45,1810.25C7869.03,1827.56 7833.57,1805.94 7848.59,1766.05ZM7702.5,1831.97C7624.61,1780.11 7653.95,1758.13 7660.69,1753.08C7685.83,1734.24 7732.09,1828.34 7726.4,1840.41C7725.01,1843.37 7723.36,1840.97 7702.5,1831.97ZM7769.41,1839.23C7742.96,1837.45 7731.69,1757.64 7755.18,1787.1C7768.19,1803.41 7776.55,1819.65 7776.45,1829.56C7776.39,1835.55 7769.41,1839.23 7769.41,1839.23ZM7805.14,1841.11C7797.47,1786.64 7873.39,1850.29 7852.93,1856.89C7814.11,1869.43 7819.07,1845.61 7805.14,1841.11ZM7281.31,1238.27C7301.2,1210.77 7340.62,1191.19 7351.39,1190.64C7365.6,1189.91 7361.03,1209.82 7362.98,1223.51C7366.8,1250.36 7366.54,1251.8 7357.12,1262.02C7346.2,1273.88 7330.94,1238.44 7320.44,1256.43C7296.29,1297.79 7267.6,1289.85 7273.97,1276.52C7283.99,1255.54 7275.02,1246.95 7281.31,1238.27ZM6789.99,2056.93C6788.3,2047.71 6786.94,2023.35 6787.93,2022.67C6798.27,2015.63 6819.28,2042.21 6803.41,2059.54C6801.71,2061.4 6798.31,2066.73 6794.05,2066.7C6789.79,2066.67 6790.53,2059.88 6789.99,2056.93ZM6731.36,1993.11C6731.62,1992.4 6739.53,1992.8 6739.71,1990.98C6739.89,1989.16 6732.39,1985.5 6732.44,1982.18C6732.51,1976.41 6760.54,1971.59 6767.17,1989.16C6768.03,1991.46 6714.1,2039.34 6731.36,1993.11ZM6769.07,1466.99C6771.74,1467.09 6776.56,1468.29 6777.11,1469.77C6787.49,1497.59 6751.22,1493.16 6747.99,1492.48C6744.73,1491.8 6724.61,1485.76 6761.11,1469.15C6762.66,1468.45 6766.4,1466.88 6769.07,1466.99ZM6686.91,1470.64C6683.04,1469.34 6678.97,1462.58 6680.32,1459.07C6681.66,1455.55 6689.3,1450.91 6694.96,1449.56C6701.26,1448.05 6716.94,1447.58 6718.07,1450.04C6722.6,1459.92 6698.01,1474.36 6686.91,1470.64ZM7189.83,1290.55C7193.82,1277.1 7210.45,1275.11 7225.29,1281.21C7254.62,1293.27 7230.67,1310.23 7225.29,1309.5C7207.39,1307.09 7188.34,1295.57 7189.83,1290.55ZM7296.39,1328.05C7298.71,1322.46 7292.2,1313.19 7295,1311.24C7304.02,1304.96 7328.18,1317.25 7328.77,1326.5C7329.08,1331.15 7322.31,1330.54 7312.55,1339.91C7303.43,1348.68 7282.83,1349.01 7281.03,1344.86C7277.74,1337.29 7294.06,1333.66 7296.39,1328.05Z"/>
                </g>
            </g>
        </g>
    </g>
</svg>
