<?xml version="1.0" encoding="UTF-8" standalone="no"?>
<!DOCTYPE svg PUBLIC "-//W3C//DTD SVG 1.1//EN" "http://www.w3.org/Graphics/SVG/1.1/DTD/svg11.dtd">
<svg width="100%" height="100%" viewBox="0 0 41 10" version="1.1" xmlns="http://www.w3.org/2000/svg" xmlns:xlink="http://www.w3.org/1999/xlink" xml:space="preserve" xmlns:serif="http://www.serif.com/" style="fill-rule:evenodd;clip-rule:evenodd;stroke-linejoin:round;stroke-miterlimit:2;">
    <rect id="sobre1" x="0.077" y="-4.267" width="62.5" height="20.833" style="fill:none;"/>
    <clipPath id="_clip1">
        <rect x="0.077" y="-4.267" width="62.5" height="20.833"/>
    </clipPath>
    <g clip-path="url(#_clip1)">
        <path d="M5.813,6.763C5.813,7.658 5.496,8.366 4.862,8.886C4.228,9.406 3.37,9.666 2.287,9.666C1.34,9.666 0.578,9.474 0,9.088L0,7.328C0.826,7.791 1.593,8.022 2.299,8.022C2.779,8.022 3.154,7.931 3.423,7.749C3.693,7.567 3.828,7.318 3.828,7.001C3.828,6.817 3.799,6.655 3.741,6.516C3.683,6.377 3.601,6.247 3.494,6.127C3.387,6.007 3.121,5.789 2.698,5.472C2.107,5.048 1.691,4.629 1.452,4.213C1.212,3.798 1.092,3.351 1.092,2.871C1.092,2.319 1.225,1.825 1.49,1.391C1.756,0.956 2.133,0.618 2.624,0.376C3.114,0.134 3.678,0.013 4.316,0.013C5.245,0.013 6.095,0.225 6.866,0.649L6.166,2.145C5.498,1.828 4.881,1.67 4.316,1.67C3.961,1.67 3.67,1.766 3.443,1.959C3.216,2.152 3.102,2.406 3.102,2.723C3.102,2.984 3.173,3.212 3.314,3.407C3.455,3.602 3.772,3.86 4.265,4.181C4.783,4.524 5.17,4.902 5.427,5.315C5.684,5.728 5.813,6.211 5.813,6.763Z" style="fill-rule:nonzero;"/>
        <path d="M15.903,3.513C15.903,4.725 15.691,5.809 15.267,6.766C14.843,7.723 14.263,8.446 13.526,8.934C12.79,9.422 11.942,9.666 10.983,9.666C9.887,9.666 9.031,9.35 8.417,8.719C7.803,8.087 7.495,7.211 7.495,6.089C7.495,4.954 7.707,3.91 8.131,2.958C8.555,2.005 9.14,1.274 9.885,0.764C10.63,0.255 11.49,-0 12.467,-0C13.558,-0 14.404,0.308 15.004,0.925C15.603,1.541 15.903,2.404 15.903,3.513ZM12.306,1.657C11.788,1.657 11.313,1.853 10.88,2.245C10.448,2.637 10.108,3.175 9.862,3.86C9.616,4.545 9.493,5.288 9.493,6.089C9.493,6.718 9.635,7.194 9.92,7.515C10.205,7.836 10.606,7.996 11.124,7.996C11.642,7.996 12.114,7.81 12.54,7.438C12.967,7.065 13.299,6.538 13.539,5.858C13.779,5.177 13.899,4.412 13.899,3.565C13.899,2.957 13.76,2.487 13.481,2.155C13.203,1.823 12.811,1.657 12.306,1.657Z" style="fill-rule:nonzero;"/>
        <path d="M21.369,0.148C22.349,0.148 23.09,0.322 23.591,0.671C24.092,1.02 24.342,1.541 24.342,2.235C24.342,2.877 24.165,3.407 23.809,3.825C23.454,4.242 22.949,4.519 22.293,4.657L22.293,4.695C22.722,4.806 23.063,5.013 23.318,5.315C23.573,5.617 23.7,6.003 23.7,6.474C23.7,7.455 23.372,8.21 22.717,8.741C22.062,9.272 21.157,9.538 20.001,9.538L16.648,9.538L18.632,0.148L21.369,0.148ZM19.808,3.867L20.765,3.867C21.283,3.867 21.672,3.763 21.931,3.555C22.19,3.347 22.319,3.049 22.319,2.659C22.319,2.072 21.955,1.779 21.227,1.779L20.251,1.779L19.808,3.867ZM18.954,7.894L20.11,7.894C20.611,7.894 21.004,7.769 21.288,7.521C21.573,7.273 21.715,6.928 21.715,6.487C21.715,5.793 21.324,5.447 20.54,5.447L19.48,5.447L18.954,7.894Z" style="fill-rule:nonzero;"/>
        <path d="M27.868,4.316L28.369,4.316C28.93,4.316 29.367,4.194 29.68,3.95C29.992,3.706 30.148,3.333 30.148,2.832C30.148,2.481 30.047,2.218 29.843,2.042C29.64,1.867 29.32,1.779 28.883,1.779L28.408,1.779L27.868,4.316ZM27.528,5.935L26.764,9.538L24.805,9.538L26.789,0.148L29.095,0.148C30.11,0.148 30.872,0.366 31.382,0.803C31.891,1.24 32.146,1.88 32.146,2.723C32.146,3.4 31.968,3.981 31.613,4.467C31.257,4.953 30.746,5.314 30.078,5.549L31.754,9.538L29.622,9.538L28.292,5.935L27.528,5.935Z" style="fill-rule:nonzero;"/>
        <path d="M38.061,9.538L32.814,9.538L34.799,0.148L40.052,0.148L39.706,1.779L36.417,1.779L35.987,3.841L39.05,3.841L38.697,5.472L35.634,5.472L35.12,7.894L38.408,7.894L38.061,9.538Z" style="fill-rule:nonzero;"/>
    </g>
</svg>
