<?xml version="1.0" encoding="UTF-8" standalone="no"?>
<!DOCTYPE svg PUBLIC "-//W3C//DTD SVG 1.1//EN" "http://www.w3.org/Graphics/SVG/1.1/DTD/svg11.dtd">
<svg width="100%" height="100%" viewBox="0 0 42 10" version="1.1" xmlns="http://www.w3.org/2000/svg" xmlns:xlink="http://www.w3.org/1999/xlink" xml:space="preserve" xmlns:serif="http://www.serif.com/" style="fill-rule:evenodd;clip-rule:evenodd;stroke-linejoin:round;stroke-miterlimit:2;">
    <rect id="sobre2" x="-0" y="-5.584" width="62.5" height="20.833" style="fill:none;"/>
    <path d="M6.121,6.93C6.121,7.778 5.816,8.446 5.206,8.934C4.595,9.422 3.747,9.666 2.659,9.666C1.657,9.666 0.771,9.478 -0,9.101L-0,7.251C0.634,7.534 1.17,7.733 1.609,7.849C2.048,7.964 2.449,8.022 2.813,8.022C3.25,8.022 3.585,7.939 3.818,7.772C4.052,7.605 4.168,7.356 4.168,7.027C4.168,6.842 4.117,6.679 4.014,6.535C3.911,6.392 3.761,6.254 3.561,6.121C3.362,5.988 2.957,5.776 2.344,5.485C1.771,5.215 1.34,4.956 1.053,4.708C0.766,4.46 0.537,4.171 0.366,3.841C0.195,3.511 0.109,3.126 0.109,2.685C0.109,1.854 0.391,1.201 0.954,0.726C1.517,0.25 2.295,0.013 3.288,0.013C3.777,0.013 4.242,0.071 4.685,0.186C5.129,0.302 5.592,0.465 6.076,0.674L5.434,2.222C4.933,2.017 4.518,1.873 4.191,1.792C3.863,1.711 3.541,1.67 3.224,1.67C2.847,1.67 2.558,1.758 2.357,1.933C2.156,2.109 2.055,2.338 2.055,2.62C2.055,2.796 2.096,2.949 2.177,3.08C2.259,3.21 2.388,3.337 2.566,3.459C2.744,3.581 3.164,3.8 3.828,4.117C4.706,4.537 5.307,4.957 5.633,5.379C5.958,5.801 6.121,6.318 6.121,6.93Z" style="fill-rule:nonzero;"/>
    <path d="M16.346,4.83C16.346,6.384 15.961,7.579 15.19,8.414C14.419,9.249 13.314,9.666 11.876,9.666C10.437,9.666 9.332,9.249 8.562,8.414C7.791,7.579 7.405,6.38 7.405,4.817C7.405,3.254 7.792,2.061 8.565,1.236C9.338,0.412 10.446,-0 11.889,-0C13.332,-0 14.435,0.415 15.199,1.246C15.964,2.077 16.346,3.271 16.346,4.83ZM9.493,4.83C9.493,5.879 9.692,6.669 10.09,7.2C10.488,7.731 11.084,7.996 11.876,7.996C13.464,7.996 14.259,6.941 14.259,4.83C14.259,2.715 13.469,1.657 11.889,1.657C11.096,1.657 10.499,1.924 10.097,2.457C9.694,2.99 9.493,3.781 9.493,4.83Z" style="fill-rule:nonzero;"/>
    <path d="M18.292,0.148L21.214,0.148C22.546,0.148 23.513,0.337 24.114,0.716C24.716,1.095 25.017,1.698 25.017,2.524C25.017,3.085 24.885,3.545 24.622,3.905C24.358,4.265 24.008,4.481 23.572,4.554L23.572,4.618C24.167,4.751 24.596,4.999 24.859,5.363C25.123,5.727 25.254,6.211 25.254,6.815C25.254,7.671 24.945,8.339 24.326,8.818C23.708,9.298 22.867,9.538 21.805,9.538L18.292,9.538L18.292,0.148ZM20.283,3.867L21.439,3.867C21.979,3.867 22.369,3.783 22.611,3.616C22.853,3.449 22.974,3.173 22.974,2.787C22.974,2.428 22.843,2.17 22.579,2.014C22.316,1.857 21.9,1.779 21.33,1.779L20.283,1.779L20.283,3.867ZM20.283,5.447L20.283,7.894L21.581,7.894C22.129,7.894 22.533,7.789 22.794,7.579C23.056,7.369 23.186,7.048 23.186,6.615C23.186,5.836 22.63,5.447 21.516,5.447L20.283,5.447Z" style="fill-rule:nonzero;"/>
    <path d="M29.121,4.316L29.763,4.316C30.393,4.316 30.857,4.211 31.157,4.001C31.457,3.792 31.606,3.462 31.606,3.012C31.606,2.567 31.453,2.25 31.147,2.062C30.841,1.873 30.367,1.779 29.725,1.779L29.121,1.779L29.121,4.316ZM29.121,5.935L29.121,9.538L27.13,9.538L27.13,0.148L29.866,0.148C31.142,0.148 32.086,0.38 32.698,0.845C33.311,1.309 33.617,2.015 33.617,2.961C33.617,3.513 33.465,4.005 33.161,4.435C32.857,4.865 32.426,5.202 31.87,5.447C33.283,7.557 34.203,8.921 34.632,9.538L32.422,9.538L30.181,5.935L29.121,5.935Z" style="fill-rule:nonzero;"/>
    <path d="M41.221,9.538L35.813,9.538L35.813,0.148L41.221,0.148L41.221,1.779L37.804,1.779L37.804,3.841L40.984,3.841L40.984,5.472L37.804,5.472L37.804,7.894L41.221,7.894L41.221,9.538Z" style="fill-rule:nonzero;"/>
</svg>
