<?xml version="1.0" encoding="UTF-8" standalone="no"?>
<!DOCTYPE svg PUBLIC "-//W3C//DTD SVG 1.1//EN" "http://www.w3.org/Graphics/SVG/1.1/DTD/svg11.dtd">
<svg width="100%" height="100%" viewBox="0 0 43 10" version="1.1" xmlns="http://www.w3.org/2000/svg" xmlns:xlink="http://www.w3.org/1999/xlink" xml:space="preserve" xmlns:serif="http://www.serif.com/" style="fill-rule:evenodd;clip-rule:evenodd;stroke-linejoin:round;stroke-miterlimit:2;">
    <rect id="sobre3" x="-0" y="-5.906" width="62.5" height="20.833" style="fill:none;"/>
    <clipPath id="_clip1">
        <rect x="-0" y="-5.906" width="62.5" height="20.833"/>
    </clipPath>
    <g clip-path="url(#_clip1)">
        <path d="M7.883,6.468C7.883,7.259 7.598,7.883 7.029,8.338C6.459,8.794 5.667,9.022 4.652,9.022C3.717,9.022 2.889,8.846 2.17,8.494L2.17,6.768C2.762,7.032 3.262,7.217 3.672,7.325C4.081,7.433 4.456,7.487 4.796,7.487C5.203,7.487 5.516,7.409 5.734,7.253C5.952,7.098 6.061,6.866 6.061,6.558C6.061,6.386 6.013,6.233 5.917,6.099C5.821,5.966 5.68,5.837 5.494,5.713C5.308,5.589 4.93,5.391 4.358,5.119C3.823,4.868 3.421,4.626 3.153,4.394C2.885,4.162 2.672,3.892 2.512,3.585C2.352,3.277 2.272,2.917 2.272,2.506C2.272,1.73 2.535,1.121 3.06,0.677C3.586,0.234 4.312,0.012 5.239,0.012C5.695,0.012 6.129,0.066 6.543,0.174C6.957,0.282 7.389,0.434 7.841,0.629L7.241,2.074C6.774,1.882 6.387,1.748 6.082,1.672C5.776,1.597 5.475,1.559 5.179,1.559C4.828,1.559 4.558,1.641 4.37,1.804C4.182,1.968 4.088,2.182 4.088,2.446C4.088,2.61 4.126,2.753 4.202,2.874C4.278,2.996 4.399,3.114 4.565,3.228C4.731,3.342 5.123,3.547 5.743,3.843C6.562,4.234 7.124,4.627 7.427,5.02C7.731,5.414 7.883,5.897 7.883,6.468Z" style="fill-rule:nonzero;"/>
        <path d="M17.426,4.508C17.426,5.959 17.067,7.074 16.347,7.853C15.628,8.632 14.597,9.022 13.254,9.022C11.911,9.022 10.88,8.632 10.161,7.853C9.441,7.074 9.082,5.955 9.082,4.496C9.082,3.037 9.442,1.923 10.164,1.154C10.885,0.385 11.919,-0 13.266,-0C14.613,-0 15.643,0.388 16.356,1.163C17.07,1.938 17.426,3.053 17.426,4.508ZM11.03,4.508C11.03,5.487 11.216,6.224 11.588,6.72C11.959,7.215 12.515,7.463 13.254,7.463C14.737,7.463 15.478,6.478 15.478,4.508C15.478,2.534 14.741,1.547 13.266,1.547C12.527,1.547 11.969,1.795 11.594,2.293C11.218,2.79 11.03,3.529 11.03,4.508Z" style="fill-rule:nonzero;"/>
        <path d="M19.243,0.138L21.97,0.138C23.213,0.138 24.115,0.315 24.677,0.668C25.238,1.022 25.519,1.585 25.519,2.356C25.519,2.879 25.396,3.309 25.15,3.645C24.905,3.98 24.578,4.182 24.17,4.25L24.17,4.31C24.726,4.434 25.126,4.666 25.372,5.005C25.618,5.345 25.741,5.797 25.741,6.36C25.741,7.16 25.452,7.783 24.875,8.231C24.297,8.678 23.513,8.902 22.522,8.902L19.243,8.902L19.243,0.138ZM21.101,3.609L22.18,3.609C22.684,3.609 23.048,3.531 23.274,3.375C23.5,3.219 23.613,2.961 23.613,2.602C23.613,2.266 23.49,2.025 23.244,1.879C22.998,1.733 22.61,1.661 22.078,1.661L21.101,1.661L21.101,3.609ZM21.101,5.083L21.101,7.367L22.312,7.367C22.823,7.367 23.201,7.269 23.445,7.074C23.689,6.878 23.811,6.578 23.811,6.174C23.811,5.447 23.291,5.083 22.252,5.083L21.101,5.083Z" style="fill-rule:nonzero;"/>
        <path d="M29.35,4.028L29.949,4.028C30.536,4.028 30.97,3.93 31.25,3.735C31.53,3.539 31.669,3.231 31.669,2.811C31.669,2.396 31.527,2.1 31.241,1.924C30.955,1.748 30.512,1.661 29.913,1.661L29.35,1.661L29.35,4.028ZM29.35,5.539L29.35,8.902L27.491,8.902L27.491,0.138L30.045,0.138C31.236,0.138 32.117,0.355 32.688,0.788C33.26,1.222 33.546,1.88 33.546,2.764C33.546,3.279 33.404,3.738 33.12,4.139C32.836,4.541 32.435,4.856 31.915,5.083C33.234,7.054 34.093,8.326 34.493,8.902L32.431,8.902L30.339,5.539L29.35,5.539Z" style="fill-rule:nonzero;"/>
        <path d="M40.643,8.902L35.596,8.902L35.596,0.138L40.643,0.138L40.643,1.661L37.454,1.661L37.454,3.585L40.422,3.585L40.422,5.107L37.454,5.107L37.454,7.367L40.643,7.367L40.643,8.902Z" style="fill-rule:nonzero;"/>
        <rect x="0" y="3.561" width="42.813" height="1.779"/>
    </g>
</svg>
