<?xml version="1.0" encoding="UTF-8" standalone="no"?>
<!DOCTYPE svg PUBLIC "-//W3C//DTD SVG 1.1//EN" "http://www.w3.org/Graphics/SVG/1.1/DTD/svg11.dtd">
<svg width="100%" height="100%" viewBox="0 0 1762 1510" version="1.1" xmlns="http://www.w3.org/2000/svg" xmlns:xlink="http://www.w3.org/1999/xlink" xml:space="preserve" xmlns:serif="http://www.serif.com/" style="fill-rule:evenodd;clip-rule:evenodd;stroke-linejoin:round;stroke-miterlimit:2;">
    <rect id="template_todos" x="0" y="0" width="1761.85" height="1509.99" style="fill:white;"/>
    <path d="M1152.39,256.706L1152.39,1149.93C1152.39,1177.8 1129.76,1200.43 1101.88,1200.43L697.86,1200.43C669.987,1200.43 647.357,1177.8 647.357,1149.93L647.357,256.706C647.357,228.832 669.987,206.203 697.86,206.203L1101.88,206.203C1129.76,206.203 1152.39,228.832 1152.39,256.706Z" style="fill:rgb(236,164,2);"/>
    <path d="M744.523,628.173L744.523,1225.53C744.523,1245.35 728.438,1261.43 708.625,1261.43L421.438,1261.43C401.625,1261.43 385.54,1245.35 385.54,1225.53L385.54,628.173C385.54,608.36 401.625,592.274 421.438,592.274L708.625,592.274C728.438,592.274 744.523,608.36 744.523,628.173Z" style="fill:rgb(150,105,205);"/>
    <path d="M237.622,1274.2L237.622,732.901C237.622,716.573 250.878,703.317 267.206,703.317L503.874,703.317C520.202,703.317 533.458,716.573 533.458,732.901L533.458,1274.2C533.458,1290.53 520.202,1303.79 503.874,1303.79L267.206,1303.79C250.878,1303.79 237.622,1290.53 237.622,1274.2Z" style="fill:rgb(230,104,100);"/>
    <path d="M1421.91,701.234L1421.91,1221.16C1421.91,1243.39 1403.86,1261.43 1381.64,1261.43L1059.47,1261.43C1037.24,1261.43 1019.2,1243.39 1019.2,1221.16L1019.2,701.234C1019.2,679.008 1037.24,660.963 1059.47,660.963L1381.64,660.963C1403.86,660.963 1421.91,679.008 1421.91,701.234Z" style="fill:rgb(137,103,95);"/>
    <path d="M1372.19,959.407L1372.19,1270.43C1372.19,1281.72 1363.02,1290.89 1351.73,1290.89L1188.01,1290.89C1176.72,1290.89 1167.55,1281.72 1167.55,1270.43L1167.55,959.407C1167.55,948.112 1176.72,938.943 1188.01,938.943L1351.73,938.943C1363.02,938.943 1372.19,948.112 1372.19,959.407Z"/>
    <path d="M1524.23,1024.02L1524.23,1283.32C1524.23,1294.62 1515.06,1303.79 1503.77,1303.79L1340.05,1303.79C1328.76,1303.79 1319.59,1294.62 1319.59,1283.32L1319.59,1024.02C1319.59,1012.72 1328.76,1003.55 1340.05,1003.55L1503.77,1003.55C1515.06,1003.55 1524.23,1012.72 1524.23,1024.02Z" style="fill:rgb(88,167,111);"/>
    <g id="ILUSTRAÇÃO">
    </g>
    <g id="LOGO">
    </g>
</svg>
