<?xml version="1.0" encoding="UTF-8" standalone="no"?>
<!DOCTYPE svg PUBLIC "-//W3C//DTD SVG 1.1//EN" "http://www.w3.org/Graphics/SVG/1.1/DTD/svg11.dtd">
<svg width="100%" height="100%" viewBox="0 0 4725 3544" version="1.1" xmlns="http://www.w3.org/2000/svg" xmlns:xlink="http://www.w3.org/1999/xlink" xml:space="preserve" xmlns:serif="http://www.serif.com/" style="fill-rule:evenodd;clip-rule:evenodd;stroke-linejoin:round;stroke-miterlimit:2;">
    <g transform="matrix(1,0,0,1,-9.09495e-13,-3758.13)">
        <g id="template_mobile" transform="matrix(1.90476,0,0,1.0101,-5121.23,3758.13)">
            <rect x="2688.65" y="0" width="2480.32" height="3507.87"/>
            <g id="iPhone3" transform="matrix(0.960124,0,0,1.75683,2727.54,-83.4713)">
                <g id="base">
                    <g id="corpo" transform="matrix(1,0,0,1.03056,0,0)">
                        <path d="M1673.02,1589L1673.02,441C1673.37,416.409 1674.08,367.228 1700,337C1716.22,318.09 1769.12,298.736 1803,306L2077.38,384.903C2117.91,393.872 2145.23,421.686 2154.8,447.684C2167.34,481.727 2167.64,500.471 2170.18,511.028C2170.19,511.086 2170,511.028 2170,511.028L2170.18,1588L2170,1588C2170.11,1594.06 2170.24,1601.47 2170,1609.68C2169.16,1638.41 2163.8,1676.96 2137.02,1702C2118.6,1719.22 2095.7,1723.94 2077.32,1725C2069.02,1725.48 2061.64,1725.21 2056.02,1725L1787,1725C1782.86,1724.81 1777.72,1725.57 1771.99,1725C1753.8,1723.18 1729.58,1717.96 1712,1700C1675.79,1663.02 1673.94,1613.67 1673.02,1589Z"/>
                    </g>
                    <g transform="matrix(1,0,0,1.03056,0,0)">
                        <path d="M1787,1725C1782.86,1724.81 1777.72,1725.57 1771.99,1725C1753.8,1723.18 1729.58,1717.96 1712,1700C1675.79,1663.02 1673.94,1613.67 1673.02,1589L1673.02,1598.84L1673.02,441C1673.37,416.409 1674.08,367.228 1700,337C1716.22,318.09 1769.12,298.736 1803,306L2077.38,384.903C2117.91,393.872 2145.23,421.686 2154.8,447.684C2167.34,481.727 2167.64,500.471 2170.18,511.028C2170.19,511.086 2170,511.028 2170,511.028L2170.18,1588L2170,1588C2170.11,1594.06 2170.24,1601.47 2170,1609.68C2169.16,1638.41 2163.8,1676.96 2137.02,1702C2118.6,1719.22 2095.7,1723.94 2077.32,1725C2069.02,1725.48 2061.64,1725.21 2056.02,1725L1787,1725Z" style="fill:rgb(164,164,163);"/>
                    </g>
                    <g transform="matrix(0.882703,0,0,1.0133,254.24,18.064)">
                        <path d="M1787,1725C1782.86,1724.81 1777.72,1725.57 1771.99,1725C1753.8,1723.18 1729.58,1717.96 1712,1700C1675.79,1663.02 1673.94,1613.67 1673.02,1589L1673.02,1598.84L1673.02,441C1673.37,416.409 1670.08,353.998 1690.8,328.864C1701.02,316.455 1714.3,301.308 1744.55,300.457C1760.48,300.008 1780.31,305.731 1808.65,313.119C2010.85,365.835 1934.46,344.952 2075.08,380.835C2134.6,396.022 2151.16,431.058 2158.26,448.701C2170.33,478.739 2168.25,492.504 2170.18,511.028C2170.18,511.087 2170,511.028 2170,511.028L2170.18,1588L2170,1588C2170.11,1594.06 2170.24,1601.47 2170,1609.68C2169.16,1638.41 2163.8,1676.96 2137.02,1702C2118.6,1719.22 2111.57,1723.03 2077.32,1725C2069.02,1725.48 2061.64,1725.21 2056.02,1725L1787,1725Z" style="fill:rgb(137,137,137);"/>
                    </g>
                    <g transform="matrix(0.870634,0,0,1.00607,277.431,26.4203)">
                        <path d="M1673.02,1589L1673.02,441C1673.37,416.409 1670.08,353.998 1690.8,328.864C1701.02,316.455 1714.3,301.308 1744.55,300.457C1760.48,300.008 1780.31,305.731 1808.65,313.119C1816.83,315.252 1824.55,317.264 1831.85,319.164L1840.56,324.687C1841.28,325.143 1842.09,325.486 1842.94,325.701L2021.05,370.647C2022.01,370.889 2023.01,370.963 2024,370.865L2031.36,370.142L1979.31,356.808C1997.72,361.311 2019.36,366.617 2075.08,380.835C2134.6,396.022 2151.16,431.058 2158.26,448.701C2170.33,478.739 2168.25,492.504 2170.18,511.028C2170.18,511.087 2170,511.028 2170,511.028L2170.18,1588L2170,1588C2170.11,1594.06 2170.24,1601.47 2170,1609.68C2169.16,1638.41 2164.37,1681.58 2138.16,1704.05C2120.09,1719.54 2111.57,1723.03 2077.32,1725C2069.02,1725.48 2061.64,1725.21 2056.02,1725L1787,1725C1782.86,1724.81 1777.72,1725.57 1771.99,1725C1753.8,1723.18 1726.8,1719.35 1709.7,1701.02C1672.35,1660.97 1673.94,1613.67 1673.02,1589Z" style="fill:rgb(39,39,39);"/>
                    </g>
                    <g id="fundo" transform="matrix(0.840458,0,0,0.993788,336.92,38.3571)">
                        <path d="M1787,1725C1731.69,1722.74 1727.2,1720.11 1707.24,1704.15C1667.46,1672.35 1673.94,1613.67 1673.02,1589L1673.02,1598.84L1673.02,441C1673.37,416.409 1667.68,351.931 1688.4,326.797C1698.63,314.388 1709.51,302.341 1739.76,301.49C1755.69,301.042 1780.31,305.731 1808.65,313.119C2010.85,365.835 1934.46,344.952 2075.08,380.835C2093.95,385.649 2109.92,390.183 2121.55,397.515C2146.6,413.316 2155.48,436.411 2159.45,446.635C2170.92,476.197 2168.25,492.504 2170.18,511.028C2170.18,511.087 2170,511.028 2170,511.028L2170.18,1588L2170,1588C2170.11,1594.06 2170.24,1601.47 2170,1609.68C2169.16,1638.41 2169.74,1680.07 2142.97,1705.11C2124.55,1722.33 2106.81,1725.11 2078.51,1725C2070.2,1724.97 2061.64,1725.21 2056.02,1725L1787,1725Z" style="fill:white;"/>
                    </g>
                    <g transform="matrix(1,0,0,1.03056,-4.54747e-13,0)">
                        <g>
                            <path d="M1872,331C1874.59,332.913 1877.17,334.827 1879.76,336.74C1879.8,336.772 1880.02,336.938 1880.34,337.03C1933.06,351.962 1985.78,366.894 2038.5,381.826C2038.88,381.935 2039.21,381.888 2039.27,381.88C2041.5,381.561 2043.72,381.242 2045.94,380.923C1987.96,364.282 1929.98,347.641 1872,331" style="fill:rgb(39,39,39);"/>
                        </g>
                    </g>
                </g>
                <g id="cametra">
                    <g>
                        <g transform="matrix(1,0,0,1.03056,-4.54747e-13,0)">
                            <path d="M2000.82,456.902L2000.56,456.825L1914.88,433.281C1914.88,433.281 1913.6,432.918 1913.14,432.729C1909.51,431.221 1891.89,422.723 1896,395C1898.81,376.011 1912.69,378.869 1916.13,379.791C1916.58,379.912 1917.66,380.241 1917.66,380.241L1999,403L2008,406C2008.41,406.137 2008.84,406.308 2009.29,406.514C2010.2,406.956 2011.09,407.478 2011.94,408.074C2014.58,409.949 2017.39,412.93 2019.63,417.187C2022.4,422.511 2024.01,429.286 2024,437L2024,437.008C2023.96,461.826 2006.19,458.395 2002.05,457.259C2001.68,457.159 2001.13,456.997 2000.82,456.902ZM1958.1,393.718L1917.1,382.247L1917.06,382.234C1917.06,382.234 1916.02,381.919 1915.59,381.803C1913.8,381.323 1908.73,380.155 1904.44,382.927C1901.51,384.821 1899.06,388.541 1898.06,395.305C1896.5,405.82 1898.19,413.425 1901.06,418.849C1905.25,426.791 1911.92,429.967 1913.94,430.805C1914.31,430.957 1915.3,431.235 1915.43,431.273L1955.36,442.244C1956.12,442.506 1956.91,442.725 1957.72,442.893L2001.11,454.817L2001.16,454.831L2001.26,454.862C2005.95,456.498 2012.05,456.751 2016.17,453.571C2019.52,450.996 2021.91,446.015 2021.92,437.006L2021.92,436.997C2021.93,430.65 2020.86,425.448 2019.22,421.28C2016.31,413.721 2011.23,408.564 2005,407.196L1998.39,404.993L1960.77,394.467C1959.91,394.135 1959.01,393.884 1958.1,393.718Z" style="fill-opacity:0.8;"/>
                        </g>
                        <g transform="matrix(1,0,0,1.03056,-4.54747e-13,0)">
                            <path d="M1958.1,393.718C1959.01,393.884 1959.91,394.135 1960.77,394.467L1998.39,404.993L2005,407.196C2011.23,408.564 2016.31,413.721 2019.22,421.28C2020.86,425.448 2021.93,430.65 2021.92,436.997L2021.92,437.006C2021.91,446.015 2019.52,450.996 2016.17,453.571C2012.05,456.751 2005.95,456.498 2001.26,454.862L2001.16,454.831L2001.11,454.817L1957.72,442.893C1956.91,442.725 1956.12,442.506 1955.36,442.244L1915.43,431.273C1915.3,431.235 1914.31,430.957 1913.94,430.805C1911.92,429.967 1905.25,426.791 1901.06,418.849C1898.19,413.425 1896.5,405.82 1898.06,395.305C1899.06,388.541 1901.51,384.821 1904.44,382.927C1908.73,380.155 1913.8,381.323 1915.59,381.803C1916.02,381.919 1917.06,382.234 1917.06,382.234L1917.1,382.247L1958.1,393.718Z"/>
                        </g>
                        <g transform="matrix(1,0,0,1.03056,-4.54747e-13,0)">
                            <path d="M1957.72,442.893C1956.91,442.725 1956.12,442.506 1955.36,442.244L1915.43,431.273C1915.3,431.235 1914.31,430.957 1913.94,430.805C1911.92,429.967 1905.25,426.791 1901.06,418.849C1898.19,413.425 1896.5,405.82 1898.06,395.305C1899.06,388.541 1901.51,384.821 1904.44,382.927C1908.73,380.155 1913.8,381.323 1915.59,381.803C1916.02,381.919 1917.06,382.234 1917.06,382.234L1917.1,382.247L1958.1,393.718C1959.01,393.884 1959.91,394.135 1960.77,394.467L1967.63,396.384C1967.73,396.482 1967.84,396.581 1967.94,396.681C1973.75,402.269 1977.53,412.086 1977.52,423.94C1977.52,433.939 1974.63,439.332 1971,442.256C1969.3,443.627 1967.31,444.496 1965.2,444.949L1957.72,442.893Z" style="fill:rgb(41,41,41);"/>
                        </g>
                        <g transform="matrix(1,0,0,0.995066,-4.54747e-13,15.4393)">
                            <path d="M1916.93,390.974C1924.75,392.983 1957.19,403.078 1957.19,403.078C1959.61,403.72 1962.77,405.589 1964.7,408.572C1967.19,412.41 1968.08,416.976 1968.08,422.866C1968.08,428.291 1964.99,432.463 1963.82,433.404C1963.01,434.049 1961.67,434.9 1957.63,433.889C1957.63,433.889 1926.12,426.099 1917.83,422.92C1913.82,421.381 1910.6,420.364 1907.92,414.814C1905.83,410.493 1904.3,404.577 1906.3,396.525C1907.14,393.16 1908.66,391.874 1910.22,391.024C1912.03,390.039 1914.76,390.418 1916.93,390.974Z"/>
                        </g>
                        <g transform="matrix(0.962195,0,0,1.03056,76.4376,0)">
                            <path d="M2021.92,436.997L2021.92,437.006C2021.9,445.995 2019.51,450.96 2016.17,453.534C2011.31,457.29 2004.79,455.85 2002.6,455.25C2002.18,455.135 2001.52,454.938 2001.26,454.862C2000.43,454.572 1999.65,454.239 1998.92,453.874C1992.75,450.758 1988.92,443.122 1987,436.007C1985.73,431.3 1985.65,424.624 1987.21,418.56C1988.6,413.163 1993.89,407.599 1999.77,406.939C2001.58,406.735 2003.33,406.83 2005,407.196L2007.34,407.976C2011,409.195 2016.13,413.379 2019.22,421.28C2020.95,425.769 2021.92,431.105 2021.92,436.997Z" style="fill:rgb(38,38,38);"/>
                        </g>
                        <g transform="matrix(0.568691,0,0,0.650932,865.263,163.632)">
                            <path d="M2021.92,436.997L2021.92,437.006C2021.9,445.995 2019.51,450.96 2016.17,453.534C2011.31,457.29 2005.13,456.749 2001,454.721C1996.65,452.583 1990.82,447.96 1987,436.007C1985.41,431.05 1985.65,424.624 1987.21,418.56C1988.6,413.163 1993.89,407.599 1999.77,406.939C2001.58,406.735 2003.33,406.83 2005,407.196L2007.34,407.976C2011,409.195 2016.13,413.379 2019.22,421.28C2020.95,425.769 2021.92,431.105 2021.92,436.997Z" style="fill:rgb(39,55,64);"/>
                        </g>
                        <g transform="matrix(0.286229,0,0,0.325868,1430.14,305.104)">
                            <path d="M2019.22,421.28C2025.2,437.905 2021.39,448.998 2016.17,453.534C2011.58,457.532 2006.37,456.546 2002.6,455.25C1996,452.986 1989.26,442.492 1987.65,436.058C1985.97,429.331 1985.89,424.067 1987.21,418.56C1988.51,413.14 1993.86,407.349 1999.77,406.939C2007.36,406.412 2015.87,411.953 2019.22,421.28Z" style="fill:rgb(28,76,101);"/>
                        </g>
                    </g>
                </g>
                <g id="antena">
                    <g id="antena1" transform="matrix(1,0,0,1.03056,-4.54747e-13,0)">
                        <path d="M1673.03,439.894C1673.03,439.894 1703.43,431.378 1713,429C1721.89,426.792 1731.01,429 1731.01,429L1731.01,443C1731.01,443 1722.31,441.776 1716,443C1710.35,444.096 1673.02,454.807 1673.02,454.807L1673.03,439.894Z" style="fill:rgb(180,180,180);"/>
                    </g>
                    <g id="antena2" transform="matrix(1,0,0,1.03056,-4.54747e-13,0)">
                        <path d="M1673.02,1562C1673.02,1562 1706.33,1561.05 1716,1561C1724.01,1560.96 1731.02,1561.07 1731.02,1561.07L1731.02,1575.38L1673.02,1576L1673.02,1562Z" style="fill:rgb(180,180,180);"/>
                    </g>
                </g>
                <g id="botao">
                    <g id="botao4" transform="matrix(0.809524,0,0,2.18571,323.762,39.647)">
                        <g>
                            <g transform="matrix(1,0,0,1.16353,-4.54747e-13,-75.8291)">
                                <path d="M1694.5,578C1700.3,578 1705,579.542 1705,581.444C1705,592.297 1705,625.703 1705,636.556C1705,638.458 1700.3,640 1694.5,640C1694.5,640 1694.5,640 1694.5,640C1688.7,640 1684,638.458 1684,636.556C1684,625.703 1684,592.297 1684,581.444C1684,579.542 1688.7,578 1694.5,578C1694.5,578 1694.5,578 1694.5,578Z" style="fill:rgb(188,188,186);"/>
                            </g>
                            <g transform="matrix(0.842675,0,0,1.11367,266.256,-44.9456)">
                                <path d="M1694.5,578C1697.29,578 1699.96,578.319 1701.92,578.888C1703.89,579.457 1705,580.228 1705,581.032L1705,636.968C1705,637.772 1703.89,638.543 1701.92,639.112C1699.96,639.681 1697.29,640 1694.5,640L1694.5,640C1691.71,640 1689.04,639.681 1687.08,639.112C1685.11,638.543 1684,637.772 1684,636.968L1684,581.032C1684,580.228 1685.11,579.457 1687.08,578.888C1689.04,578.319 1691.71,578 1694.5,578L1694.5,578Z" style="fill:rgb(197,197,196);"/>
                            </g>
                            <g id="furo" transform="matrix(1.23529,0,0,0.457516,-399.941,-18.1392)">
                                <g transform="matrix(1.29937,0,0,1.20232,-507.849,-225.005)">
                                    <ellipse cx="1695.5" cy="1316" rx="3.5" ry="6" style="fill:rgb(210,210,208);"/>
                                </g>
                                <g transform="matrix(1.00246,0,0,0.944678,-4.11083,113.533)">
                                    <ellipse cx="1695.5" cy="1316" rx="3.5" ry="6" style="fill:rgb(70,70,67);"/>
                                </g>
                            </g>
                        </g>
                    </g>
                    <g id="botao2" transform="matrix(1,0,0,1.6,3.18323e-12,-239.502)">
                        <g transform="matrix(1,0,0,1.16353,-4.54747e-13,-75.8291)">
                            <path d="M1694.5,578C1700.3,578 1705,580.602 1705,583.812C1705,595.635 1705,622.365 1705,634.188C1705,637.398 1700.3,640 1694.5,640L1694.5,640C1688.7,640 1684,637.398 1684,634.188L1684,583.812C1684,580.602 1688.7,578 1694.5,578L1694.5,578Z" style="fill:rgb(79,79,74);"/>
                        </g>
                        <g transform="matrix(0.857893,0,0,1.11367,240.309,-44.9456)">
                            <path d="M1694.5,578C1697.29,578 1699.96,578.549 1701.92,579.526C1703.89,580.503 1705,581.828 1705,583.209L1705,634.791C1705,636.172 1703.89,637.497 1701.92,638.474C1699.96,639.451 1697.29,640 1694.5,640L1694.5,640C1691.71,640 1689.04,639.451 1687.08,638.474C1685.11,637.497 1684,636.172 1684,634.791L1684,583.209C1684,581.828 1685.11,580.503 1687.08,579.526C1689.04,578.549 1691.71,578 1694.5,578L1694.5,578Z" style="fill:rgb(182,182,180);"/>
                        </g>
                    </g>
                    <g id="botao3" transform="matrix(1,0,0,1.6,3.18323e-12,-99.3458)">
                        <g transform="matrix(1,0,0,1.16353,-4.54747e-13,-75.8291)">
                            <path d="M1694.5,578C1700.3,578 1705,580.602 1705,583.812L1705,634.188C1705,637.398 1700.3,640 1694.5,640L1694.5,640C1688.7,640 1684,637.398 1684,634.188L1684,583.812C1684,580.602 1688.7,578 1694.5,578L1694.5,578Z" style="fill:rgb(79,79,74);"/>
                        </g>
                        <g transform="matrix(0.857893,0,0,1.11367,240.309,-44.9456)">
                            <path d="M1694.5,578C1697.29,578 1699.96,578.549 1701.92,579.526C1703.89,580.503 1705,581.828 1705,583.209L1705,634.791C1705,636.172 1703.89,637.497 1701.92,638.474C1699.96,639.451 1697.29,640 1694.5,640L1694.5,640C1691.71,640 1689.04,639.451 1687.08,638.474C1685.11,637.497 1684,636.172 1684,634.791L1684,583.209C1684,581.828 1685.11,580.503 1687.08,579.526C1689.04,578.549 1691.71,578 1694.5,578L1694.5,578Z" style="fill:rgb(182,182,180);"/>
                        </g>
                    </g>
                    <g id="botao1" transform="matrix(1,0,0,1.04286,3.18323e-12,-25.5726)">
                        <g transform="matrix(1,0,0,1.16353,-4.54747e-13,-75.8291)">
                            <path d="M1694.5,578C1697.29,578 1699.96,578.94 1701.92,580.612C1703.89,582.284 1705,584.552 1705,586.918L1705,631.082C1705,633.448 1703.89,635.716 1701.92,637.388C1699.96,639.06 1697.29,640 1694.5,640L1694.5,640C1691.72,640 1689.04,639.06 1687.08,637.388C1685.11,635.716 1684,633.448 1684,631.082L1684,586.918C1684,584.552 1685.11,582.284 1687.08,580.612C1689.04,578.94 1691.72,578 1694.5,578L1694.5,578Z" style="fill:rgb(79,79,74);"/>
                        </g>
                        <g transform="matrix(0.857893,0,0,1.11367,240.309,-44.9456)">
                            <path d="M1694.5,578C1700.3,578 1705,581.578 1705,585.992L1705,632.008C1705,636.422 1700.3,640 1694.5,640L1694.5,640C1688.7,640 1684,636.422 1684,632.008L1684,585.992C1684,581.578 1688.7,578 1694.5,578L1694.5,578Z" style="fill:rgb(182,182,180);"/>
                        </g>
                    </g>
                </g>
            </g>
            <g id="iPhone2" transform="matrix(0.960124,0,0,1.81052,2726.96,-1494.74)">
                <g id="base1" serif:id="base">
                    <g id="fundo1" serif:id="fundo" transform="matrix(1.01936,0,0,1.0403,-29.3706,-39.2117)">
                        <path d="M1472.63,1082.27C1503.91,1082.27 1533.9,1094.45 1556.02,1116.12C1578.14,1137.79 1590.57,1167.18 1590.57,1197.83L1590.57,2327.2C1590.57,2357.85 1578.14,2387.24 1556.02,2408.91C1533.9,2430.59 1503.91,2442.76 1472.63,2442.76L1042.35,2442.76C1011.08,2442.76 981.078,2430.59 958.961,2408.91C936.843,2387.24 924.418,2357.85 924.418,2327.2L924.418,1197.83C924.418,1167.18 936.843,1137.79 958.961,1116.12C981.078,1094.45 1011.08,1082.27 1042.35,1082.27L1472.63,1082.27Z" style="fill:white;"/>
                    </g>
                    <g transform="matrix(1.01936,0,0,1.0403,-29.3706,-39.2117)">
                        <path d="M1391.1,1095.58L1472.63,1095.58C1500.31,1095.58 1526.85,1106.35 1546.42,1125.53C1565.99,1144.71 1576.98,1170.71 1576.98,1197.83L1576.98,2327.2C1576.98,2354.32 1565.99,2380.33 1546.42,2399.5C1526.85,2418.68 1500.31,2429.45 1472.63,2429.45L1042.35,2429.45C1014.68,2429.45 988.136,2418.68 968.566,2399.5C948.996,2380.33 938.002,2354.32 938.002,2327.2L938.002,1197.83C938.002,1170.71 948.996,1144.71 968.566,1125.53C988.136,1106.36 1014.68,1095.58 1042.35,1095.58L1124.26,1095.58L1133.51,1100L1380.69,1101.42L1391.1,1095.58ZM1472.63,1104.39L1042.35,1104.39C1017.06,1104.39 992.808,1114.24 974.925,1131.76C957.041,1149.29 946.994,1173.05 946.994,1197.83L946.994,2327.2C946.994,2351.98 957.041,2375.75 974.925,2393.27C992.808,2410.8 1017.06,2420.64 1042.35,2420.64L1472.63,2420.64C1497.92,2420.64 1522.17,2410.8 1540.06,2393.27C1557.94,2375.75 1567.99,2351.98 1567.99,2327.2L1567.99,1197.83C1567.99,1173.05 1557.94,1149.29 1540.06,1131.76C1522.17,1114.24 1497.92,1104.39 1472.63,1104.39Z"/>
                    </g>
                    <g transform="matrix(1.01936,0,0,1.0403,-29.3706,-39.2117)">
                        <path d="M1472.63,1082.27C1503.91,1082.27 1533.9,1094.45 1556.02,1116.12C1578.14,1137.79 1590.57,1167.18 1590.57,1197.83L1590.57,2327.2C1590.57,2357.85 1578.14,2387.24 1556.02,2408.91C1533.9,2430.59 1503.91,2442.76 1472.63,2442.76L1042.35,2442.76C1011.08,2442.76 981.078,2430.59 958.961,2408.91C936.843,2387.24 924.418,2357.85 924.418,2327.2L924.418,1197.83C924.418,1167.18 936.843,1137.79 958.961,1116.12C981.078,1094.45 1011.08,1082.27 1042.35,1082.27L1472.63,1082.27ZM1472.63,1091.59L1042.35,1091.59C1013.6,1091.59 986.017,1102.78 965.682,1122.7C945.348,1142.63 933.924,1169.65 933.924,1197.83L933.924,2327.2C933.924,2355.38 945.348,2382.4 965.682,2402.33C986.017,2422.25 1013.6,2433.45 1042.35,2433.45L1472.63,2433.45C1501.39,2433.45 1528.97,2422.25 1549.3,2402.33C1569.63,2382.4 1581.06,2355.38 1581.06,2327.2L1581.06,1197.83C1581.06,1169.65 1569.63,1142.63 1549.3,1122.7C1528.97,1102.78 1501.39,1091.59 1472.63,1091.59Z" style="fill:rgb(164,164,163);"/>
                    </g>
                    <g transform="matrix(1,0,0,1,0.599715,779.481)">
                        <path d="M1471.17,316.36C1500.62,316.36 1528.87,328.06 1549.7,348.886C1570.52,369.712 1582.22,397.959 1582.22,427.412L1582.22,1602.29C1582.22,1631.74 1570.52,1659.99 1549.7,1680.82C1528.87,1701.64 1500.62,1713.34 1471.17,1713.34L1032.56,1713.34C1003.11,1713.34 974.864,1701.64 954.038,1680.82C933.212,1659.99 921.512,1631.74 921.512,1602.29L921.512,427.412C921.512,397.959 933.212,369.712 954.038,348.886C974.864,328.06 1003.11,316.36 1032.56,316.36L1471.17,316.36ZM1371,321L1381.13,316.883L1122.98,316.883L1132,320L1371,321ZM1388.06,321.04C1388.06,321.04 1380.68,325.267 1378.23,326.67C1377.72,326.963 1377.14,327.115 1376.55,327.112C1360.72,327.019 1140.83,325.722 1126.25,325.636C1125.75,325.633 1125.26,325.518 1124.81,325.299C1122.64,324.244 1116.06,321.04 1116.06,321.04L1032.56,321.04C1004.35,321.04 977.296,332.247 957.348,352.196C937.399,372.144 926.192,399.2 926.192,427.412L926.192,1602.29C926.192,1630.5 937.399,1657.56 957.348,1677.51C977.296,1697.45 1004.35,1708.66 1032.56,1708.66L1471.17,1708.66C1499.38,1708.66 1526.44,1697.45 1546.39,1677.51C1566.34,1657.56 1577.54,1630.5 1577.54,1602.29L1577.54,427.412C1577.54,399.2 1566.34,372.144 1546.39,352.196C1526.44,332.247 1499.38,321.04 1471.17,321.04L1388.06,321.04Z" style="fill:rgb(105,105,105);"/>
                    </g>
                    <g transform="matrix(1,0,0,1,0.599715,779.481)">
                        <path d="M1122.98,316.883L1132,320L1371,321L1381.13,316.883L1122.98,316.883Z"/>
                    </g>
                </g>
                <g id="botao5" serif:id="botao">
                    <g id="bota1" transform="matrix(0.841799,0,0,0.95006,144.429,72.0526)">
                        <rect x="905.34" y="1373.9" width="7.605" height="68.869" style="fill:rgb(180,180,180);"/>
                    </g>
                    <g id="botao21" serif:id="botao2" transform="matrix(0.841799,0,0,1.53359,144.429,-615.963)">
                        <rect x="905.34" y="1373.9" width="7.605" height="68.869" style="fill:rgb(180,180,180);"/>
                    </g>
                    <g id="botao31" serif:id="botao3" transform="matrix(0.841799,0,0,1.53056,144.429,-478.21)">
                        <rect x="905.34" y="1373.9" width="7.605" height="68.869" style="fill:rgb(180,180,180);"/>
                    </g>
                    <g id="botao41" serif:id="botao4" transform="matrix(0.655211,0,0,2.43761,998.8,-1822.17)">
                        <rect x="905.34" y="1373.9" width="7.605" height="68.869" style="fill:rgb(180,180,180);"/>
                    </g>
                </g>
                <g id="camera">
                    <g transform="matrix(1.28265,0,0,1.0386,-356.437,-45.8722)">
                        <path d="M1307.71,1134.02C1319.88,1134.02 1329.74,1146.19 1329.74,1161.21L1329.74,1161.22C1329.74,1176.24 1319.88,1188.41 1307.71,1188.41L1199.65,1188.41C1187.49,1188.41 1177.63,1176.24 1177.63,1161.22L1177.63,1161.21C1177.63,1146.19 1187.49,1134.02 1199.65,1134.02L1307.71,1134.02Z"/>
                    </g>
                    <g transform="matrix(0.81926,0,-1.96452e-18,1.0386,189.27,-45.8722)">
                        <path d="M1295.26,1134.02C1314.3,1134.02 1329.74,1146.19 1329.74,1161.21C1329.74,1161.22 1329.74,1161.22 1329.74,1161.22C1329.74,1176.24 1314.3,1188.41 1295.26,1188.41C1270.4,1188.41 1236.97,1188.41 1212.11,1188.41C1193.07,1188.41 1177.63,1176.24 1177.63,1161.22C1177.63,1161.22 1177.63,1161.22 1177.63,1161.21C1177.63,1146.19 1193.07,1134.02 1212.11,1134.02C1236.97,1134.02 1270.4,1134.02 1295.26,1134.02Z" style="fill:rgb(49,49,49);"/>
                    </g>
                    <g transform="matrix(0.659938,0,-1.58248e-18,0.683326,389.347,366.627)">
                        <path d="M1301.58,1134.02C1317.13,1134.02 1329.74,1146.19 1329.74,1161.21C1329.74,1161.22 1329.74,1161.22 1329.74,1161.22C1329.74,1176.24 1317.13,1188.41 1301.58,1188.41C1274.28,1188.41 1233.09,1188.41 1205.79,1188.41C1190.24,1188.41 1177.63,1176.24 1177.63,1161.22C1177.63,1161.22 1177.63,1161.22 1177.63,1161.21C1177.63,1146.19 1190.24,1134.02 1205.79,1134.02C1233.09,1134.02 1274.28,1134.02 1301.58,1134.02Z"/>
                    </g>
                    <g transform="matrix(1.23767,0,0,1.3026,-315.185,-353.887)">
                        <ellipse cx="1322.24" cy="1162.33" rx="22.502" ry="21.685" style="fill:rgb(34,34,34);"/>
                    </g>
                    <g transform="matrix(0.78477,0,0,0.823166,283.649,203.374)">
                        <ellipse cx="1322.24" cy="1162.33" rx="22.502" ry="21.685" style="fill:rgb(12,25,41);"/>
                    </g>
                    <g transform="matrix(0.674276,0,0,0.707266,429.748,338.088)">
                        <ellipse cx="1322.24" cy="1162.33" rx="22.502" ry="21.685" style="fill:rgb(41,46,60);"/>
                    </g>
                    <g transform="matrix(0.415003,0,0,0.435308,772.568,654.194)">
                        <ellipse cx="1322.24" cy="1162.33" rx="22.502" ry="21.685" style="fill:rgb(24,35,52);"/>
                    </g>
                    <g transform="matrix(0.255958,0,0,0.268481,982.863,848.103)">
                        <ellipse cx="1322.24" cy="1162.33" rx="22.502" ry="21.685" style="fill:rgb(46,26,66);"/>
                    </g>
                </g>
                <g id="antena3" serif:id="antena">
                    <g id="antena31" serif:id="antena3" transform="matrix(1,0,0,1,0.599715,779.481)">
                        <path d="M1591.39,449C1591.39,449 1589.29,450.751 1588,451C1586.38,451.312 1581.7,450.872 1581.7,450.872L1581.7,464.604C1581.7,464.604 1585.38,465.434 1587,465C1588.62,464.566 1591.39,462 1591.39,462L1591.39,449Z" style="fill:rgb(180,180,180);"/>
                    </g>
                    <g id="antena4" transform="matrix(1,0,0,1,0.599715,779.481)">
                        <path d="M1591.39,1563.35C1591.39,1563.35 1588.22,1564.86 1587.18,1565.35C1584.2,1566.75 1581.7,1565.53 1581.7,1565.53L1581.7,1579C1581.7,1579 1586.06,1579.73 1587.67,1579.11C1589.23,1578.52 1591.39,1575.31 1591.39,1575.31L1591.39,1563.35Z" style="fill:rgb(180,180,180);"/>
                    </g>
                    <g id="antena21" serif:id="antena2" transform="matrix(1,0,0,1,0.599715,779.481)">
                        <path d="M912.345,1565C912.345,1565 916.607,1565.83 918.136,1565.79C919.751,1565.76 922.035,1564.79 922.035,1564.79L922.035,1579.36C922.035,1579.36 918.763,1579.62 917.148,1579.62C915.545,1579.62 912.345,1579.1 912.345,1579.1L912.345,1565Z" style="fill:rgb(180,180,180);"/>
                    </g>
                    <g id="antena11" serif:id="antena1" transform="matrix(1,0,0,1,0.599715,779.481)">
                        <path d="M912.345,450C912.345,450 915.575,450.943 917.19,451C918.805,451.057 922.035,450.344 922.035,450.344L922.035,463.852C922.035,463.852 917.615,464.434 916,464.126C914.616,463.861 912.345,462 912.345,462L912.345,450Z" style="fill:rgb(180,180,180);"/>
                    </g>
                </g>
            </g>
            <g id="iPhone1" transform="matrix(-0.960124,0,0,1.75683,5130.07,-83.4713)">
                <g id="base2" serif:id="base">
                    <g id="corpo1" serif:id="corpo" transform="matrix(1,0,0,1.03056,0,0)">
                        <path d="M1673.02,1589L1673.02,441C1673.37,416.409 1674.08,367.228 1700,337C1716.22,318.09 1769.12,298.736 1803,306L2077.38,384.903C2117.91,393.872 2145.23,421.686 2154.8,447.684C2167.34,481.727 2167.64,500.471 2170.18,511.028C2170.19,511.086 2170,511.028 2170,511.028L2170.18,1588L2170,1588C2170.11,1594.06 2170.24,1601.47 2170,1609.68C2169.16,1638.41 2163.8,1676.96 2137.02,1702C2118.6,1719.22 2095.7,1723.94 2077.32,1725C2069.02,1725.48 2061.64,1725.21 2056.02,1725L1787,1725C1782.86,1724.81 1777.72,1725.57 1771.99,1725C1753.8,1723.18 1729.58,1717.96 1712,1700C1675.79,1663.02 1673.94,1613.67 1673.02,1589Z"/>
                    </g>
                    <g transform="matrix(1,0,0,1.03056,0,0)">
                        <path d="M1787,1725C1782.86,1724.81 1777.72,1725.57 1771.99,1725C1753.8,1723.18 1729.58,1717.96 1712,1700C1675.79,1663.02 1673.94,1613.67 1673.02,1589L1673.02,1598.84L1673.02,441C1673.37,416.409 1674.08,367.228 1700,337C1716.22,318.09 1769.12,298.736 1803,306L2077.38,384.903C2117.91,393.872 2145.23,421.686 2154.8,447.684C2167.34,481.727 2167.64,500.471 2170.18,511.028C2170.19,511.086 2170,511.028 2170,511.028L2170.18,1588L2170,1588C2170.11,1594.06 2170.24,1601.47 2170,1609.68C2169.16,1638.41 2163.8,1676.96 2137.02,1702C2118.6,1719.22 2095.7,1723.94 2077.32,1725C2069.02,1725.48 2061.64,1725.21 2056.02,1725L1787,1725Z" style="fill:rgb(164,164,163);"/>
                    </g>
                    <g transform="matrix(0.882703,0,0,1.0133,254.24,18.064)">
                        <path d="M1787,1725C1782.86,1724.81 1777.72,1725.57 1771.99,1725C1753.8,1723.18 1729.58,1717.96 1712,1700C1675.79,1663.02 1673.94,1613.67 1673.02,1589L1673.02,1598.84L1673.02,441C1673.37,416.409 1670.08,353.998 1690.8,328.864C1701.02,316.455 1714.3,301.308 1744.55,300.457C1760.48,300.008 1780.31,305.731 1808.65,313.119C2010.85,365.835 1934.46,344.952 2075.08,380.835C2134.6,396.022 2151.16,431.058 2158.26,448.701C2170.33,478.739 2168.25,492.504 2170.18,511.028C2170.18,511.087 2170,511.028 2170,511.028L2170.18,1588L2170,1588C2170.11,1594.06 2170.24,1601.47 2170,1609.68C2169.16,1638.41 2163.8,1676.96 2137.02,1702C2118.6,1719.22 2111.57,1723.03 2077.32,1725C2069.02,1725.48 2061.64,1725.21 2056.02,1725L1787,1725Z" style="fill:rgb(137,137,137);"/>
                    </g>
                    <g transform="matrix(0.870634,0,0,1.00607,277.431,26.4203)">
                        <path d="M1673.02,1589L1673.02,441C1673.37,416.409 1670.08,353.998 1690.8,328.864C1701.02,316.455 1714.3,301.308 1744.55,300.457C1760.48,300.008 1780.31,305.731 1808.65,313.119C1816.83,315.252 1824.55,317.264 1831.85,319.164L1840.56,324.687C1841.28,325.143 1842.09,325.486 1842.94,325.701L2021.05,370.647C2022.01,370.889 2023.01,370.963 2024,370.865L2031.36,370.142L1979.31,356.808C1997.72,361.311 2019.36,366.617 2075.08,380.835C2134.6,396.022 2151.16,431.058 2158.26,448.701C2170.33,478.739 2168.25,492.504 2170.18,511.028C2170.18,511.087 2170,511.028 2170,511.028L2170.18,1588L2170,1588C2170.11,1594.06 2170.24,1601.47 2170,1609.68C2169.16,1638.41 2164.37,1681.58 2138.16,1704.05C2120.09,1719.54 2111.57,1723.03 2077.32,1725C2069.02,1725.48 2061.64,1725.21 2056.02,1725L1787,1725C1782.86,1724.81 1777.72,1725.57 1771.99,1725C1753.8,1723.18 1726.8,1719.35 1709.7,1701.02C1672.35,1660.97 1673.94,1613.67 1673.02,1589Z" style="fill:rgb(39,39,39);"/>
                    </g>
                    <g id="fundo2" serif:id="fundo" transform="matrix(0.840458,0,0,0.993788,336.92,38.3571)">
                        <path d="M1787,1725C1731.69,1722.74 1727.2,1720.11 1707.24,1704.15C1667.46,1672.35 1673.94,1613.67 1673.02,1589L1673.02,1598.84L1673.02,441C1673.37,416.409 1667.68,351.931 1688.4,326.797C1698.63,314.388 1709.51,302.341 1739.76,301.49C1755.69,301.042 1780.31,305.731 1808.65,313.119C2010.85,365.835 1934.46,344.952 2075.08,380.835C2093.95,385.649 2109.92,390.183 2121.55,397.515C2146.6,413.316 2155.48,436.411 2159.45,446.635C2170.92,476.197 2168.25,492.504 2170.18,511.028C2170.18,511.087 2170,511.028 2170,511.028L2170.18,1588L2170,1588C2170.11,1594.06 2170.24,1601.47 2170,1609.68C2169.16,1638.41 2169.74,1680.07 2142.97,1705.11C2124.55,1722.33 2106.81,1725.11 2078.51,1725C2070.2,1724.97 2061.64,1725.21 2056.02,1725L1787,1725Z" style="fill:white;"/>
                    </g>
                    <g transform="matrix(1,0,0,1.03056,-4.54747e-13,0)">
                        <g>
                            <path d="M1872,331C1874.59,332.913 1877.17,334.827 1879.76,336.74C1879.8,336.772 1880.02,336.938 1880.34,337.03C1933.06,351.962 1985.78,366.894 2038.5,381.826C2038.88,381.935 2039.21,381.888 2039.27,381.88C2041.5,381.561 2043.72,381.242 2045.94,380.923C1987.96,364.282 1929.98,347.641 1872,331" style="fill:rgb(39,39,39);"/>
                        </g>
                    </g>
                </g>
                <g id="cametra1" serif:id="cametra">
                    <g>
                        <g transform="matrix(1,0,0,1.03056,-4.54747e-13,0)">
                            <path d="M2000.82,456.902L2000.56,456.825L1914.88,433.281C1914.88,433.281 1913.6,432.918 1913.14,432.729C1909.51,431.221 1891.89,422.723 1896,395C1898.81,376.011 1912.69,378.869 1916.13,379.791C1916.58,379.912 1917.66,380.241 1917.66,380.241L1999,403L2008,406C2008.41,406.137 2008.84,406.308 2009.29,406.514C2010.2,406.956 2011.09,407.478 2011.94,408.074C2014.58,409.949 2017.39,412.93 2019.63,417.187C2022.4,422.511 2024.01,429.286 2024,437L2024,437.008C2023.96,461.826 2006.19,458.395 2002.05,457.259C2001.68,457.159 2001.13,456.997 2000.82,456.902ZM1958.1,393.718L1917.1,382.247L1917.06,382.234C1917.06,382.234 1916.02,381.919 1915.59,381.803C1913.8,381.323 1908.73,380.155 1904.44,382.927C1901.51,384.821 1899.06,388.541 1898.06,395.305C1896.5,405.82 1898.19,413.425 1901.06,418.849C1905.25,426.791 1911.92,429.967 1913.94,430.805C1914.31,430.957 1915.3,431.235 1915.43,431.273L1955.36,442.244C1956.12,442.506 1956.91,442.725 1957.72,442.893L2001.11,454.817L2001.16,454.831L2001.26,454.862C2005.95,456.498 2012.05,456.751 2016.17,453.571C2019.52,450.996 2021.91,446.015 2021.92,437.006L2021.92,436.997C2021.93,430.65 2020.86,425.448 2019.22,421.28C2016.31,413.721 2011.23,408.564 2005,407.196L1998.39,404.993L1960.77,394.467C1959.91,394.135 1959.01,393.884 1958.1,393.718Z" style="fill-opacity:0.8;"/>
                        </g>
                        <g transform="matrix(1,0,0,1.03056,-4.54747e-13,0)">
                            <path d="M1958.1,393.718C1959.01,393.884 1959.91,394.135 1960.77,394.467L1998.39,404.993L2005,407.196C2011.23,408.564 2016.31,413.721 2019.22,421.28C2020.86,425.448 2021.93,430.65 2021.92,436.997L2021.92,437.006C2021.91,446.015 2019.52,450.996 2016.17,453.571C2012.05,456.751 2005.95,456.498 2001.26,454.862L2001.16,454.831L2001.11,454.817L1957.72,442.893C1956.91,442.725 1956.12,442.506 1955.36,442.244L1915.43,431.273C1915.3,431.235 1914.31,430.957 1913.94,430.805C1911.92,429.967 1905.25,426.791 1901.06,418.849C1898.19,413.425 1896.5,405.82 1898.06,395.305C1899.06,388.541 1901.51,384.821 1904.44,382.927C1908.73,380.155 1913.8,381.323 1915.59,381.803C1916.02,381.919 1917.06,382.234 1917.06,382.234L1917.1,382.247L1958.1,393.718Z"/>
                        </g>
                        <g transform="matrix(1,0,0,1.03056,-4.54747e-13,0)">
                            <path d="M1957.72,442.893C1956.91,442.725 1956.12,442.506 1955.36,442.244L1915.43,431.273C1915.3,431.235 1914.31,430.957 1913.94,430.805C1911.92,429.967 1905.25,426.791 1901.06,418.849C1898.19,413.425 1896.5,405.82 1898.06,395.305C1899.06,388.541 1901.51,384.821 1904.44,382.927C1908.73,380.155 1913.8,381.323 1915.59,381.803C1916.02,381.919 1917.06,382.234 1917.06,382.234L1917.1,382.247L1958.1,393.718C1959.01,393.884 1959.91,394.135 1960.77,394.467L1967.63,396.384C1967.73,396.482 1967.84,396.581 1967.94,396.681C1973.75,402.269 1977.53,412.086 1977.52,423.94C1977.52,433.939 1974.63,439.332 1971,442.256C1969.3,443.627 1967.31,444.496 1965.2,444.949L1957.72,442.893Z" style="fill:rgb(41,41,41);"/>
                        </g>
                        <g transform="matrix(1,0,0,0.995066,-4.54747e-13,15.4393)">
                            <path d="M1916.93,390.974C1924.75,392.983 1957.19,403.078 1957.19,403.078C1959.61,403.72 1962.77,405.589 1964.7,408.572C1967.19,412.41 1968.08,416.976 1968.08,422.866C1968.08,428.291 1964.99,432.463 1963.82,433.404C1963.01,434.049 1961.67,434.9 1957.63,433.889C1957.63,433.889 1926.12,426.099 1917.83,422.92C1913.82,421.381 1910.6,420.364 1907.92,414.814C1905.83,410.493 1904.3,404.577 1906.3,396.525C1907.14,393.16 1908.66,391.874 1910.22,391.024C1912.03,390.039 1914.76,390.418 1916.93,390.974Z"/>
                        </g>
                        <g transform="matrix(0.962195,0,0,1.03056,76.4376,0)">
                            <path d="M2021.92,436.997L2021.92,437.006C2021.9,445.995 2019.51,450.96 2016.17,453.534C2011.31,457.29 2004.79,455.85 2002.6,455.25C2002.18,455.135 2001.52,454.938 2001.26,454.862C2000.43,454.572 1999.65,454.239 1998.92,453.874C1992.75,450.758 1988.92,443.122 1987,436.007C1985.73,431.3 1985.65,424.624 1987.21,418.56C1988.6,413.163 1993.89,407.599 1999.77,406.939C2001.58,406.735 2003.33,406.83 2005,407.196L2007.34,407.976C2011,409.195 2016.13,413.379 2019.22,421.28C2020.95,425.769 2021.92,431.105 2021.92,436.997Z" style="fill:rgb(38,38,38);"/>
                        </g>
                        <g transform="matrix(0.568691,0,0,0.650932,865.263,163.632)">
                            <path d="M2021.92,436.997L2021.92,437.006C2021.9,445.995 2019.51,450.96 2016.17,453.534C2011.31,457.29 2005.13,456.749 2001,454.721C1996.65,452.583 1990.82,447.96 1987,436.007C1985.41,431.05 1985.65,424.624 1987.21,418.56C1988.6,413.163 1993.89,407.599 1999.77,406.939C2001.58,406.735 2003.33,406.83 2005,407.196L2007.34,407.976C2011,409.195 2016.13,413.379 2019.22,421.28C2020.95,425.769 2021.92,431.105 2021.92,436.997Z" style="fill:rgb(39,55,64);"/>
                        </g>
                        <g transform="matrix(0.286229,0,0,0.325868,1430.14,305.104)">
                            <path d="M2019.22,421.28C2025.2,437.905 2021.39,448.998 2016.17,453.534C2011.58,457.532 2006.37,456.546 2002.6,455.25C1996,452.986 1989.26,442.492 1987.65,436.058C1985.97,429.331 1985.89,424.067 1987.21,418.56C1988.51,413.14 1993.86,407.349 1999.77,406.939C2007.36,406.412 2015.87,411.953 2019.22,421.28Z" style="fill:rgb(28,76,101);"/>
                        </g>
                    </g>
                </g>
                <g id="antena5" serif:id="antena">
                    <g id="antena12" serif:id="antena1" transform="matrix(1,0,0,1.03056,-4.54747e-13,0)">
                        <path d="M1673.03,439.894C1673.03,439.894 1703.43,431.378 1713,429C1721.89,426.792 1731.01,429 1731.01,429L1731.01,443C1731.01,443 1722.31,441.776 1716,443C1710.35,444.096 1673.02,454.807 1673.02,454.807L1673.03,439.894Z" style="fill:rgb(180,180,180);"/>
                    </g>
                    <g id="antena22" serif:id="antena2" transform="matrix(1,0,0,1.03056,-4.54747e-13,0)">
                        <path d="M1673.02,1562C1673.02,1562 1706.33,1561.05 1716,1561C1724.01,1560.96 1731.02,1561.07 1731.02,1561.07L1731.02,1575.38L1673.02,1576L1673.02,1562Z" style="fill:rgb(180,180,180);"/>
                    </g>
                </g>
                <g id="botao6" serif:id="botao">
                    <g id="botao22" serif:id="botao2" transform="matrix(1,0,0,2.47143,3,-297.512)">
                        <g transform="matrix(1.33333,0,0,1.17698,-566.333,-83.604)">
                            <path d="M1696.39,578C1701.14,578 1705,579.821 1705,582.068L1705,635.932C1705,638.179 1701.14,640 1696.39,640L1692.61,640C1687.86,640 1684,638.179 1684,635.932L1684,582.068C1684,579.821 1687.86,578 1692.61,578L1696.39,578Z" style="fill:rgb(115,115,111);"/>
                        </g>
                        <g transform="matrix(0.857893,0,0,1.10022,240.309,-37.1708)">
                            <path d="M1694.5,578C1697.29,578 1699.96,578.36 1701.92,579C1703.89,579.64 1705,580.508 1705,581.414L1705,636.586C1705,637.492 1703.89,638.36 1701.92,639C1699.96,639.64 1697.29,640 1694.5,640L1694.5,640C1691.71,640 1689.04,639.64 1687.08,639C1685.11,638.36 1684,637.492 1684,636.586L1684,581.414C1684,580.508 1685.11,579.64 1687.08,579C1689.04,578.36 1691.71,578 1694.5,578L1694.5,578Z" style="fill:rgb(192,192,191);"/>
                        </g>
                    </g>
                    <g id="botao11" serif:id="botao1" transform="matrix(1,0,0,2.47143,3.18323e-12,-720.316)">
                        <g transform="matrix(1,0,0,1.16353,-4.54747e-13,-75.8291)">
                            <path d="M1694.5,578C1697.29,578 1699.96,578.396 1701.92,579.102C1703.89,579.808 1705,580.765 1705,581.763L1705,636.237C1705,637.235 1703.89,638.192 1701.92,638.898C1699.96,639.604 1697.29,640 1694.5,640L1694.5,640C1691.72,640 1689.04,639.604 1687.08,638.898C1685.11,638.192 1684,637.235 1684,636.237L1684,581.763C1684,580.765 1685.11,579.808 1687.08,579.102C1689.04,578.396 1691.72,578 1694.5,578L1694.5,578Z" style="fill:rgb(79,79,74);"/>
                        </g>
                        <g transform="matrix(0.857893,0,0,1.11367,240.309,-44.9456)">
                            <path d="M1694.5,578C1697.29,578 1699.96,578.355 1701.92,578.988C1703.89,579.62 1705,580.478 1705,581.372L1705,636.628C1705,637.522 1703.89,638.38 1701.92,639.012C1699.96,639.645 1697.29,640 1694.5,640L1694.5,640C1691.71,640 1689.04,639.645 1687.08,639.012C1685.11,638.38 1684,637.522 1684,636.628L1684,581.372C1684,580.478 1685.11,579.62 1687.08,578.988C1689.04,578.355 1691.71,578 1694.5,578L1694.5,578Z" style="fill:rgb(182,182,180);"/>
                        </g>
                    </g>
                </g>
            </g>
        </g>
    </g>
</svg>
