<?xml version="1.0" encoding="UTF-8" standalone="no"?>
<!DOCTYPE svg PUBLIC "-//W3C//DTD SVG 1.1//EN" "http://www.w3.org/Graphics/SVG/1.1/DTD/svg11.dtd">
<svg width="100%" height="100%" viewBox="0 0 1773 1773" version="1.1" xmlns="http://www.w3.org/2000/svg" xmlns:xlink="http://www.w3.org/1999/xlink" xml:space="preserve" xmlns:serif="http://www.serif.com/" style="fill-rule:evenodd;clip-rule:evenodd;stroke-linejoin:round;stroke-miterlimit:2;">
    <rect id="template_buldogue" x="0.541" y="0.716" width="1771.65" height="1771.65" style="fill:rgb(171,211,183);"/>
    <path d="M545.659,1153.94L579.84,1281.5C582.199,1290.3 576.968,1299.36 568.167,1301.72L170.344,1408.32C161.544,1410.67 152.484,1405.44 150.126,1396.64L115.945,1269.08C113.587,1260.28 118.818,1251.22 127.618,1248.86L525.441,1142.26C534.242,1139.9 543.301,1145.14 545.659,1153.94Z" style="fill:white;"/>
    <path d="M1591.34,949.696L1682.82,1291.12C1689.13,1314.68 1675.13,1338.93 1651.58,1345.24L1189.68,1469C1166.13,1475.32 1141.88,1461.32 1135.57,1437.76L1044.08,1096.33C1037.77,1072.78 1051.77,1048.53 1075.33,1042.22L1537.22,918.453C1560.78,912.141 1585.03,926.141 1591.34,949.696Z" style="fill:white;"/>
    <path d="M994.596,364.005L994.596,855.502C994.596,889.41 967.067,916.939 933.159,916.939L409.33,916.939C375.422,916.939 347.893,889.41 347.893,855.502L347.893,364.005C347.893,330.097 375.422,302.568 409.33,302.568L933.159,302.568C967.067,302.568 994.596,330.097 994.596,364.005Z" style="fill:white;"/>
</svg>
