<?xml version="1.0" encoding="UTF-8" standalone="no"?>
<!DOCTYPE svg PUBLIC "-//W3C//DTD SVG 1.1//EN" "http://www.w3.org/Graphics/SVG/1.1/DTD/svg11.dtd">
<svg width="100%" height="100%" viewBox="0 0 1773 1773" version="1.1" xmlns="http://www.w3.org/2000/svg" xmlns:xlink="http://www.w3.org/1999/xlink" xml:space="preserve" xmlns:serif="http://www.serif.com/" style="fill-rule:evenodd;clip-rule:evenodd;stroke-linejoin:round;stroke-miterlimit:2;">
    <rect id="template_tecnico4" x="0.431" y="0.421" width="1771.65" height="1771.65" style="fill:white;"/>
    <g>
        <path d="M477.578,290.109L477.578,771.3C477.578,783.739 466.819,793.839 453.568,793.839L261.493,793.839C248.242,793.839 237.484,783.739 237.484,771.3L237.484,290.109C237.484,277.67 248.242,267.57 261.493,267.57L453.568,267.57C466.819,267.57 477.578,277.67 477.578,290.109Z" style="fill:none;stroke:black;stroke-width:3.76px;"/>
    </g>
    <g>
        <path d="M477.578,1001.19L477.578,1482.39C477.578,1494.83 466.819,1504.92 453.568,1504.92L261.493,1504.92C248.242,1504.92 237.484,1494.83 237.484,1482.39L237.484,1001.19C237.484,988.755 248.242,978.656 261.493,978.656L453.568,978.656C466.819,978.656 477.578,988.755 477.578,1001.19Z" style="fill:none;stroke:black;stroke-width:3.76px;"/>
    </g>
    <g>
        <path d="M1225.47,290.109L1225.47,771.3C1225.47,783.739 1214.71,793.839 1201.46,793.839L1009.39,793.839C996.138,793.839 985.38,783.739 985.38,771.3L985.38,290.109C985.38,277.67 996.138,267.57 1009.39,267.57L1201.46,267.57C1214.71,267.57 1225.47,277.67 1225.47,290.109Z" style="fill:none;stroke:black;stroke-width:3.76px;"/>
    </g>
    <g>
        <path d="M1225.47,1001.19L1225.47,1482.39C1225.47,1494.83 1214.71,1504.92 1201.46,1504.92L1009.39,1504.92C996.138,1504.92 985.38,1494.83 985.38,1482.39L985.38,1001.19C985.38,988.755 996.138,978.656 1009.39,978.656L1201.46,978.656C1214.71,978.656 1225.47,988.755 1225.47,1001.19Z" style="fill:none;stroke:black;stroke-width:3.76px;"/>
    </g>
    <g>
        <path d="M783.837,290.109L783.837,771.3C783.837,783.739 773.079,793.839 759.828,793.839L567.753,793.839C554.501,793.839 543.743,783.739 543.743,771.3L543.743,290.109C543.743,277.67 554.501,267.57 567.753,267.57L759.828,267.57C773.079,267.57 783.837,277.67 783.837,290.109Z" style="fill:none;stroke:black;stroke-width:3.76px;"/>
    </g>
    <g>
        <path d="M783.837,1001.19L783.837,1482.39C783.837,1494.83 773.079,1504.92 759.828,1504.92L567.753,1504.92C554.501,1504.92 543.743,1494.83 543.743,1482.39L543.743,1001.19C543.743,988.755 554.501,978.656 567.753,978.656L759.828,978.656C773.079,978.656 783.837,988.755 783.837,1001.19Z" style="fill:none;stroke:black;stroke-width:3.76px;"/>
    </g>
    <g>
        <path d="M1535.03,290.109L1535.03,771.3C1535.03,783.739 1524.27,793.839 1511.02,793.839L1318.95,793.839C1305.69,793.839 1294.94,783.739 1294.94,771.3L1294.94,290.109C1294.94,277.67 1305.69,267.57 1318.95,267.57L1511.02,267.57C1524.27,267.57 1535.03,277.67 1535.03,290.109Z" style="fill:none;stroke:black;stroke-width:3.76px;"/>
    </g>
    <g>
        <path d="M1535.03,1001.19L1535.03,1482.39C1535.03,1494.83 1524.27,1504.92 1511.02,1504.92L1318.95,1504.92C1305.69,1504.92 1294.94,1494.83 1294.94,1482.39L1294.94,1001.19C1294.94,988.755 1305.69,978.656 1318.95,978.656L1511.02,978.656C1524.27,978.656 1535.03,988.755 1535.03,1001.19Z" style="fill:none;stroke:black;stroke-width:3.76px;"/>
    </g>
</svg>
