<?xml version="1.0" encoding="UTF-8" standalone="no"?>
<!DOCTYPE svg PUBLIC "-//W3C//DTD SVG 1.1//EN" "http://www.w3.org/Graphics/SVG/1.1/DTD/svg11.dtd">
<svg width="100%" height="100%" viewBox="0 0 1033 1511" version="1.1" xmlns="http://www.w3.org/2000/svg" xmlns:xlink="http://www.w3.org/1999/xlink" xml:space="preserve" xmlns:serif="http://www.serif.com/" style="fill-rule:evenodd;clip-rule:evenodd;stroke-linejoin:round;stroke-miterlimit:2;">
    <g transform="matrix(1,0,0,1,-8182,-3403)">
        <g id="template_golden" transform="matrix(1,0,0,1,3026.43,-1576.28)">
            <rect x="5155.9" y="4980" width="1032" height="1509.99" style="fill:rgb(251,237,204);"/>
            <g transform="matrix(0.892592,0,0,0.553143,5501.06,2245.36)">
                <path d="M666.962,5325.32L666.962,6156.55C666.962,6201.53 644.332,6238.05 616.459,6238.05L212.434,6238.05C184.56,6238.05 161.931,6201.53 161.931,6156.55L161.931,5325.32C161.931,5280.34 184.56,5243.82 212.434,5243.82L616.459,5243.82C644.332,5243.82 666.962,5280.34 666.962,5325.32Z" style="fill:rgb(236,164,2);"/>
            </g>
            <g transform="matrix(0.613376,0,0,0.289399,5148.1,3834.94)">
                <path d="M666.962,5343.24L666.962,6138.63C666.962,6193.5 645.943,6238.05 620.053,6238.05L208.84,6238.05C182.95,6238.05 161.931,6193.5 161.931,6138.63L161.931,5343.24C161.931,5288.37 182.95,5243.82 208.84,5243.82L620.053,5243.82C645.943,5243.82 666.962,5288.37 666.962,5343.24Z" style="fill:rgb(236,164,2);"/>
            </g>
            <g transform="matrix(0.788692,0,0,0.289399,5133.29,4518.76)">
                <path d="M666.962,5343.24L666.962,6138.63C666.962,6193.5 650.615,6238.05 630.48,6238.05L198.413,6238.05C178.278,6238.05 161.931,6193.5 161.931,6138.63L161.931,5343.24C161.931,5288.37 178.278,5243.82 198.413,5243.82L630.48,5243.82C650.615,5243.82 666.962,5288.37 666.962,5343.24Z" style="fill:rgb(236,164,2);"/>
            </g>
            <g transform="matrix(0.444578,0,0,0.502854,5733.68,3187.22)">
                <path d="M666.962,5288.47L666.962,6193.4C666.962,6218.04 644.332,6238.05 616.459,6238.05L212.434,6238.05C184.56,6238.05 161.931,6218.04 161.931,6193.4L161.931,5288.47C161.931,5263.83 184.56,5243.82 212.434,5243.82L616.459,5243.82C644.332,5243.82 666.962,5263.83 666.962,5288.47Z" style="fill:rgb(236,164,2);"/>
            </g>
        </g>
    </g>
</svg>
