<?xml version="1.0" encoding="UTF-8" standalone="no"?>
<!DOCTYPE svg PUBLIC "-//W3C//DTD SVG 1.1//EN" "http://www.w3.org/Graphics/SVG/1.1/DTD/svg11.dtd">
<svg width="100%" height="100%" viewBox="0 0 3544 3071" version="1.1" xmlns="http://www.w3.org/2000/svg" xmlns:xlink="http://www.w3.org/1999/xlink" xml:space="preserve" xmlns:serif="http://www.serif.com/" style="fill-rule:evenodd;clip-rule:evenodd;stroke-linejoin:round;stroke-miterlimit:2;">
    <rect id="template_dalmata3" x="0" y="0" width="3543.31" height="3070.87"/>
    <g>
        <path d="M1191.39,381.819L1615.55,1876.77C1626.51,1915.41 1604.04,1955.69 1565.4,1966.66L1005.23,2125.59C966.588,2136.56 926.312,2114.08 915.347,2075.44L491.189,580.486C480.224,541.84 502.696,501.562 541.342,490.597L1101.5,331.664C1140.15,320.699 1180.43,343.174 1191.39,381.819Z" style="fill:rgb(13,13,13);"/>
    </g>
    <g>
        <path d="M3050.51,1182.49L2520.13,2643.13C2506.42,2680.89 2464.63,2700.42 2426.88,2686.71L1879.57,2487.97C1841.81,2474.26 1822.29,2432.47 1836,2394.72L2366.38,934.07C2380.09,896.311 2421.88,876.785 2459.63,890.496L3006.94,1089.23C3044.7,1102.94 3064.22,1144.73 3050.51,1182.49Z" style="fill:rgb(13,13,13);"/>
    </g>
    <g id="ILUSTRAÇÃO">
    </g>
    <g id="LOGO">
    </g>
</svg>
