<?xml version="1.0" encoding="UTF-8" standalone="no"?>
<!DOCTYPE svg PUBLIC "-//W3C//DTD SVG 1.1//EN" "http://www.w3.org/Graphics/SVG/1.1/DTD/svg11.dtd">
<svg width="100%" height="100%" viewBox="0 0 1773 4725" version="1.1" xmlns="http://www.w3.org/2000/svg" xmlns:xlink="http://www.w3.org/1999/xlink" xml:space="preserve" xmlns:serif="http://www.serif.com/" style="fill-rule:evenodd;clip-rule:evenodd;stroke-linejoin:round;stroke-miterlimit:2;">
    <rect id="template_tecnico" x="0.669" y="0.336" width="1771.65" height="4724.41" style="fill:#fff;"/>
    <g>
        <path d="M500.375,344.232L500.374,825.423C500.374,837.862 489.616,847.962 476.365,847.962L284.29,847.962C271.039,847.962 260.281,837.862 260.281,825.423L260.281,344.232C260.281,331.793 271.039,321.693 284.29,321.693L476.365,321.693C489.616,321.693 500.375,331.793 500.375,344.232Z" style="fill:none;stroke:#000;stroke-width:3.76px;"/>
    </g>
    <g>
        <path d="M500.375,1055.32L500.374,1536.51C500.374,1548.95 489.616,1559.05 476.365,1559.05L284.29,1559.05C271.039,1559.05 260.281,1548.95 260.281,1536.51L260.281,1055.32C260.281,1042.88 271.039,1032.78 284.29,1032.78L476.365,1032.78C489.616,1032.78 500.375,1042.88 500.375,1055.32Z" style="fill:none;stroke:#000;stroke-width:3.76px;"/>
    </g>
    <g>
        <path d="M500.375,1766.4L500.374,2247.59C500.374,2260.03 489.616,2270.13 476.365,2270.13L284.29,2270.13C271.039,2270.13 260.281,2260.03 260.281,2247.59L260.281,1766.4C260.281,1753.96 271.039,1743.86 284.29,1743.86L476.365,1743.86C489.616,1743.86 500.375,1753.96 500.375,1766.4Z" style="fill:none;stroke:#000;stroke-width:3.76px;"/>
    </g>
    <g>
        <path d="M500.375,2477.49L500.374,2958.68C500.374,2971.12 489.616,2981.22 476.365,2981.22L284.29,2981.22C271.039,2981.22 260.281,2971.12 260.281,2958.68L260.281,2477.49C260.281,2465.05 271.039,2454.95 284.29,2454.95L476.365,2454.95C489.616,2454.95 500.375,2465.05 500.375,2477.49Z" style="fill:none;stroke:#000;stroke-width:3.76px;"/>
    </g>
    <g>
        <path d="M500.375,3188.57L500.374,3669.76C500.374,3682.2 489.616,3692.3 476.365,3692.3L284.29,3692.3C271.039,3692.3 260.281,3682.2 260.281,3669.76L260.281,3188.57C260.281,3176.14 271.039,3166.03 284.29,3166.03L476.365,3166.03C489.616,3166.03 500.375,3176.14 500.375,3188.57Z" style="fill:none;stroke:#000;stroke-width:3.76px;"/>
    </g>
    <g>
        <path d="M500.375,3899.66L500.374,4380.85C500.374,4393.29 489.616,4403.39 476.365,4403.39L284.29,4403.39C271.039,4403.39 260.281,4393.29 260.281,4380.85L260.281,3899.66C260.281,3887.22 271.039,3877.12 284.29,3877.12L476.365,3877.12C489.616,3877.12 500.375,3887.22 500.375,3899.66Z" style="fill:none;stroke:#000;stroke-width:3.76px;"/>
    </g>
    <g>
        <path d="M1175.27,344.232L1175.27,825.423C1175.27,837.862 1164.51,847.962 1151.26,847.962L959.181,847.962C945.93,847.962 935.172,837.862 935.172,825.423L935.172,344.232C935.172,331.793 945.93,321.693 959.181,321.693L1151.26,321.693C1164.51,321.693 1175.27,331.793 1175.27,344.232Z" style="fill:none;stroke:#000;stroke-width:3.76px;"/>
    </g>
    <g>
        <path d="M1175.27,1055.32L1175.27,1536.51C1175.27,1548.95 1164.51,1559.05 1151.26,1559.05L959.181,1559.05C945.93,1559.05 935.172,1548.95 935.172,1536.51L935.172,1055.32C935.172,1042.88 945.93,1032.78 959.181,1032.78L1151.26,1032.78C1164.51,1032.78 1175.27,1042.88 1175.27,1055.32Z" style="fill:none;stroke:#000;stroke-width:3.76px;"/>
    </g>
    <g>
        <path d="M1175.27,1766.4L1175.27,2247.59C1175.27,2260.03 1164.51,2270.13 1151.26,2270.13L959.181,2270.13C945.93,2270.13 935.172,2260.03 935.172,2247.59L935.172,1766.4C935.172,1753.96 945.93,1743.86 959.181,1743.86L1151.26,1743.86C1164.51,1743.86 1175.27,1753.96 1175.27,1766.4Z" style="fill:none;stroke:#000;stroke-width:3.76px;"/>
    </g>
    <g>
        <path d="M1175.27,2477.49L1175.27,2958.68C1175.27,2971.12 1164.51,2981.22 1151.26,2981.22L959.181,2981.22C945.93,2981.22 935.172,2971.12 935.172,2958.68L935.172,2477.49C935.172,2465.05 945.93,2454.95 959.181,2454.95L1151.26,2454.95C1164.51,2454.95 1175.27,2465.05 1175.27,2477.49Z" style="fill:none;stroke:#000;stroke-width:3.76px;"/>
    </g>
    <g>
        <path d="M1175.27,3188.57L1175.27,3669.76C1175.27,3682.2 1164.51,3692.3 1151.26,3692.3L959.181,3692.3C945.93,3692.3 935.172,3682.2 935.172,3669.76L935.172,3188.57C935.172,3176.14 945.93,3166.03 959.181,3166.03L1151.26,3166.03C1164.51,3166.03 1175.27,3176.14 1175.27,3188.57Z" style="fill:none;stroke:#000;stroke-width:3.76px;"/>
    </g>
    <g>
        <path d="M1175.27,3899.66L1175.27,4380.85C1175.27,4393.29 1164.51,4403.39 1151.26,4403.39L959.181,4403.39C945.93,4403.39 935.172,4393.29 935.172,4380.85L935.172,3899.66C935.172,3887.22 945.93,3877.12 959.181,3877.12L1151.26,3877.12C1164.51,3877.12 1175.27,3887.22 1175.27,3899.66Z" style="fill:none;stroke:#000;stroke-width:3.76px;"/>
    </g>
    <g>
        <path d="M837.82,344.232L837.82,825.423C837.82,837.862 827.062,847.962 813.811,847.962L621.736,847.962C608.484,847.962 597.726,837.862 597.726,825.423L597.726,344.232C597.726,331.793 608.484,321.693 621.736,321.693L813.811,321.693C827.062,321.693 837.82,331.793 837.82,344.232Z" style="fill:none;stroke:#000;stroke-width:3.76px;"/>
    </g>
    <g>
        <path d="M837.82,1055.32L837.82,1536.51C837.82,1548.95 827.062,1559.05 813.811,1559.05L621.736,1559.05C608.484,1559.05 597.726,1548.95 597.726,1536.51L597.726,1055.32C597.726,1042.88 608.484,1032.78 621.736,1032.78L813.811,1032.78C827.062,1032.78 837.82,1042.88 837.82,1055.32Z" style="fill:none;stroke:#000;stroke-width:3.76px;"/>
    </g>
    <g>
        <path d="M837.82,1766.4L837.82,2247.59C837.82,2260.03 827.062,2270.13 813.811,2270.13L621.736,2270.13C608.484,2270.13 597.726,2260.03 597.726,2247.59L597.726,1766.4C597.726,1753.96 608.484,1743.86 621.736,1743.86L813.811,1743.86C827.062,1743.86 837.82,1753.96 837.82,1766.4Z" style="fill:none;stroke:#000;stroke-width:3.76px;"/>
    </g>
    <g>
        <path d="M837.82,2477.49L837.82,2958.68C837.82,2971.12 827.062,2981.22 813.811,2981.22L621.736,2981.22C608.484,2981.22 597.726,2971.12 597.726,2958.68L597.726,2477.49C597.726,2465.05 608.484,2454.95 621.736,2454.95L813.811,2454.95C827.062,2454.95 837.82,2465.05 837.82,2477.49Z" style="fill:none;stroke:#000;stroke-width:3.76px;"/>
    </g>
    <g>
        <path d="M837.82,3188.57L837.82,3669.76C837.82,3682.2 827.062,3692.3 813.811,3692.3L621.736,3692.3C608.484,3692.3 597.726,3682.2 597.726,3669.76L597.726,3188.57C597.726,3176.14 608.484,3166.03 621.736,3166.03L813.811,3166.03C827.062,3166.03 837.82,3176.14 837.82,3188.57Z" style="fill:none;stroke:#000;stroke-width:3.76px;"/>
    </g>
    <g>
        <path d="M837.82,3899.66L837.82,4380.85C837.82,4393.29 827.062,4403.39 813.811,4403.39L621.736,4403.39C608.484,4403.39 597.726,4393.29 597.726,4380.85L597.726,3899.66C597.726,3887.22 608.484,3877.12 621.736,3877.12L813.811,3877.12C827.062,3877.12 837.82,3887.22 837.82,3899.66Z" style="fill:none;stroke:#000;stroke-width:3.76px;"/>
    </g>
    <g>
        <path d="M1512.71,344.232L1512.71,825.423C1512.71,837.862 1501.95,847.962 1488.7,847.962L1296.63,847.962C1283.38,847.962 1272.62,837.862 1272.62,825.423L1272.62,344.232C1272.62,331.793 1283.38,321.693 1296.63,321.693L1488.7,321.693C1501.95,321.693 1512.71,331.793 1512.71,344.232Z" style="fill:none;stroke:#000;stroke-width:3.76px;"/>
    </g>
    <g>
        <path d="M1512.71,1055.32L1512.71,1536.51C1512.71,1548.95 1501.95,1559.05 1488.7,1559.05L1296.63,1559.05C1283.38,1559.05 1272.62,1548.95 1272.62,1536.51L1272.62,1055.32C1272.62,1042.88 1283.38,1032.78 1296.63,1032.78L1488.7,1032.78C1501.95,1032.78 1512.71,1042.88 1512.71,1055.32Z" style="fill:none;stroke:#000;stroke-width:3.76px;"/>
    </g>
    <g>
        <path d="M1512.71,1766.4L1512.71,2247.59C1512.71,2260.03 1501.95,2270.13 1488.7,2270.13L1296.63,2270.13C1283.38,2270.13 1272.62,2260.03 1272.62,2247.59L1272.62,1766.4C1272.62,1753.96 1283.38,1743.86 1296.63,1743.86L1488.7,1743.86C1501.95,1743.86 1512.71,1753.96 1512.71,1766.4Z" style="fill:none;stroke:#000;stroke-width:3.76px;"/>
    </g>
    <g>
        <path d="M1512.71,2477.49L1512.71,2958.68C1512.71,2971.12 1501.95,2981.22 1488.7,2981.22L1296.63,2981.22C1283.38,2981.22 1272.62,2971.12 1272.62,2958.68L1272.62,2477.49C1272.62,2465.05 1283.38,2454.95 1296.63,2454.95L1488.7,2454.95C1501.95,2454.95 1512.71,2465.05 1512.71,2477.49Z" style="fill:none;stroke:#000;stroke-width:3.76px;"/>
    </g>
    <g>
        <path d="M1512.71,3188.57L1512.71,3669.76C1512.71,3682.2 1501.95,3692.3 1488.7,3692.3L1296.63,3692.3C1283.38,3692.3 1272.62,3682.2 1272.62,3669.76L1272.62,3188.57C1272.62,3176.14 1283.38,3166.03 1296.63,3166.03L1488.7,3166.03C1501.95,3166.03 1512.71,3176.14 1512.71,3188.57Z" style="fill:none;stroke:#000;stroke-width:3.76px;"/>
    </g>
    <g>
        <path d="M1512.71,3899.66L1512.71,4380.85C1512.71,4393.29 1501.95,4403.39 1488.7,4403.39L1296.63,4403.39C1283.38,4403.39 1272.62,4393.29 1272.62,4380.85L1272.62,3899.66C1272.62,3887.22 1283.38,3877.12 1296.63,3877.12L1488.7,3877.12C1501.95,3877.12 1512.71,3887.22 1512.71,3899.66Z" style="fill:none;stroke:#000;stroke-width:3.76px;"/>
    </g>
</svg>
