<?xml version="1.0" encoding="UTF-8" standalone="no"?>
<!DOCTYPE svg PUBLIC "-//W3C//DTD SVG 1.1//EN" "http://www.w3.org/Graphics/SVG/1.1/DTD/svg11.dtd">
<svg width="100%" height="100%" viewBox="0 0 1772 1773" version="1.1" xmlns="http://www.w3.org/2000/svg" xmlns:xlink="http://www.w3.org/1999/xlink" xml:space="preserve" xmlns:serif="http://www.serif.com/" style="fill-rule:evenodd;clip-rule:evenodd;stroke-linejoin:round;stroke-miterlimit:2;">
    <rect id="template_tecnico2" x="0.112" y="0.421" width="1771.65" height="1771.65" style="fill:white;"/>
    <g>
        <path d="M477.259,290.109L477.259,771.3C477.259,783.739 466.501,793.839 453.25,793.839L261.175,793.839C247.923,793.839 237.165,783.739 237.165,771.3L237.165,290.109C237.165,277.67 247.923,267.57 261.175,267.57L453.25,267.57C466.501,267.57 477.259,277.67 477.259,290.109Z" style="fill:none;stroke:black;stroke-width:3.76px;"/>
    </g>
    <g>
        <path d="M477.259,1001.19L477.259,1482.39C477.259,1494.83 466.501,1504.92 453.25,1504.92L261.175,1504.92C247.923,1504.92 237.165,1494.83 237.165,1482.39L237.165,1001.19C237.165,988.755 247.923,978.656 261.175,978.656L453.25,978.656C466.501,978.656 477.259,988.755 477.259,1001.19Z" style="fill:none;stroke:black;stroke-width:3.76px;"/>
    </g>
    <g>
        <path d="M1225.15,290.109L1225.15,771.3C1225.15,783.739 1214.4,793.839 1201.15,793.839L1009.07,793.839C995.819,793.839 985.061,783.739 985.061,771.3L985.061,290.109C985.061,277.67 995.819,267.57 1009.07,267.57L1201.15,267.57C1214.4,267.57 1225.15,277.67 1225.15,290.109Z" style="fill:none;stroke:black;stroke-width:3.76px;"/>
    </g>
    <g>
        <path d="M1225.15,1001.19L1225.15,1482.39C1225.15,1494.83 1214.4,1504.92 1201.15,1504.92L1009.07,1504.92C995.819,1504.92 985.061,1494.83 985.061,1482.39L985.061,1001.19C985.061,988.755 995.819,978.656 1009.07,978.656L1201.15,978.656C1214.4,978.656 1225.15,988.755 1225.15,1001.19Z" style="fill:none;stroke:black;stroke-width:3.76px;"/>
    </g>
    <g>
        <path d="M783.518,290.109L783.518,771.3C783.518,783.739 772.76,793.839 759.509,793.839L567.434,793.839C554.183,793.839 543.425,783.739 543.425,771.3L543.425,290.109C543.425,277.67 554.183,267.57 567.434,267.57L759.509,267.57C772.76,267.57 783.518,277.67 783.518,290.109Z" style="fill:none;stroke:black;stroke-width:3.76px;"/>
    </g>
    <g>
        <path d="M783.518,1001.19L783.518,1482.39C783.518,1494.83 772.76,1504.92 759.509,1504.92L567.434,1504.92C554.183,1504.92 543.425,1494.83 543.425,1482.39L543.425,1001.19C543.425,988.755 554.183,978.656 567.434,978.656L759.509,978.656C772.76,978.656 783.518,988.755 783.518,1001.19Z" style="fill:none;stroke:black;stroke-width:3.76px;"/>
    </g>
    <g>
        <path d="M1534.71,290.109L1534.71,771.3C1534.71,783.739 1523.95,793.839 1510.7,793.839L1318.63,793.839C1305.38,793.839 1294.62,783.739 1294.62,771.3L1294.62,290.109C1294.62,277.67 1305.38,267.57 1318.63,267.57L1510.7,267.57C1523.95,267.57 1534.71,277.67 1534.71,290.109Z" style="fill:none;stroke:black;stroke-width:3.76px;"/>
    </g>
    <g>
        <path d="M1534.71,1001.19L1534.71,1482.39C1534.71,1494.83 1523.95,1504.92 1510.7,1504.92L1318.63,1504.92C1305.38,1504.92 1294.62,1494.83 1294.62,1482.39L1294.62,1001.19C1294.62,988.755 1305.38,978.656 1318.63,978.656L1510.7,978.656C1523.95,978.656 1534.71,988.755 1534.71,1001.19Z" style="fill:none;stroke:black;stroke-width:3.76px;"/>
    </g>
</svg>
