<?xml version="1.0" encoding="UTF-8" standalone="no"?>
<!DOCTYPE svg PUBLIC "-//W3C//DTD SVG 1.1//EN" "http://www.w3.org/Graphics/SVG/1.1/DTD/svg11.dtd">
<svg width="100%" height="100%" viewBox="0 0 1182 1772" version="1.1" xmlns="http://www.w3.org/2000/svg" xmlns:xlink="http://www.w3.org/1999/xlink" xml:space="preserve" xmlns:serif="http://www.serif.com/" style="fill-rule:evenodd;clip-rule:evenodd;stroke-linejoin:round;stroke-miterlimit:2;">
    <rect id="template_poddle" x="0" y="0" width="1181.1" height="1771.65" style="fill:rgb(172,148,143);"/>
    <path d="M533.931,238.523C634.946,192.351 742.329,210.372 773.578,278.741C804.828,347.109 748.187,440.101 647.171,486.273C546.156,532.444 438.774,514.424 407.524,446.055C376.275,377.687 432.916,284.695 533.931,238.523Z" style="fill:white;"/>
    <path d="M671.7,605.503C764.972,665.803 804.336,771.003 759.549,840.28C714.762,909.556 602.675,916.843 509.402,856.542C416.13,796.241 376.766,691.041 421.554,621.765C466.341,552.488 578.428,545.202 671.7,605.503Z" style="fill:white;"/>
    <path d="M563.053,954.801C672.225,934.368 773.179,983.609 788.356,1064.69C803.532,1145.78 727.22,1228.2 618.049,1248.63C508.878,1269.07 407.923,1219.82 392.746,1138.74C377.57,1057.65 453.882,975.234 563.053,954.801Z" style="fill:white;"/>
    <ellipse cx="590.551" cy="1432.38" rx="201.24" ry="126.346" style="fill:white;"/>
</svg>
