<?xml version="1.0" encoding="UTF-8" standalone="no"?>
<!DOCTYPE svg PUBLIC "-//W3C//DTD SVG 1.1//EN" "http://www.w3.org/Graphics/SVG/1.1/DTD/svg11.dtd">
<svg width="100%" height="100%" viewBox="0 0 1772 2954" version="1.1" xmlns="http://www.w3.org/2000/svg" xmlns:xlink="http://www.w3.org/1999/xlink" xml:space="preserve" xmlns:serif="http://www.serif.com/" style="fill-rule:evenodd;clip-rule:evenodd;stroke-linejoin:round;stroke-miterlimit:2;">
    <rect id="template_tecnico3" x="0.271" y="0.421" width="1771.65" height="2952.76" style="fill:white;"/>
    <g>
        <path d="M477.418,211.763L477.418,692.955C477.418,705.394 466.66,715.493 453.409,715.493L261.334,715.493C248.083,715.493 237.325,705.394 237.325,692.955L237.325,211.763C237.325,199.324 248.083,189.225 261.334,189.225L453.409,189.225C466.66,189.225 477.418,199.324 477.418,211.763Z" style="fill:none;stroke:black;stroke-width:3.76px;"/>
    </g>
    <g>
        <path d="M477.418,1577.68L477.418,2058.87C477.418,2071.31 466.66,2081.41 453.409,2081.41L261.334,2081.41C248.083,2081.41 237.325,2071.31 237.325,2058.87L237.325,1577.68C237.325,1565.24 248.083,1555.14 261.334,1555.14L453.409,1555.14C466.66,1555.14 477.418,1565.24 477.418,1577.68Z" style="fill:none;stroke:black;stroke-width:3.76px;"/>
    </g>
    <g>
        <path d="M477.418,894.723L477.418,1375.91C477.418,1388.35 466.66,1398.45 453.409,1398.45L261.334,1398.45C248.083,1398.45 237.325,1388.35 237.325,1375.91L237.325,894.723C237.325,882.284 248.083,872.185 261.334,872.185L453.409,872.185C466.66,872.185 477.418,882.284 477.418,894.723Z" style="fill:none;stroke:black;stroke-width:3.76px;"/>
    </g>
    <g>
        <path d="M477.418,2260.64L477.418,2741.83C477.418,2754.27 466.66,2764.37 453.409,2764.37L261.334,2764.37C248.083,2764.37 237.325,2754.27 237.325,2741.83L237.325,2260.64C237.325,2248.2 248.083,2238.1 261.334,2238.1L453.409,2238.1C466.66,2238.1 477.418,2248.2 477.418,2260.64Z" style="fill:none;stroke:black;stroke-width:3.76px;"/>
    </g>
    <g>
        <path d="M1225.31,211.763L1225.31,692.955C1225.31,705.394 1214.56,715.493 1201.31,715.493L1009.23,715.493C995.978,715.493 985.22,705.394 985.22,692.955L985.22,211.763C985.22,199.324 995.978,189.225 1009.23,189.225L1201.31,189.225C1214.56,189.225 1225.31,199.324 1225.31,211.763Z" style="fill:none;stroke:black;stroke-width:3.76px;"/>
    </g>
    <g>
        <path d="M1225.31,1577.68L1225.31,2058.87C1225.31,2071.31 1214.56,2081.41 1201.31,2081.41L1009.23,2081.41C995.978,2081.41 985.22,2071.31 985.22,2058.87L985.22,1577.68C985.22,1565.24 995.978,1555.14 1009.23,1555.14L1201.31,1555.14C1214.56,1555.14 1225.31,1565.24 1225.31,1577.68Z" style="fill:none;stroke:black;stroke-width:3.76px;"/>
    </g>
    <g>
        <path d="M1225.31,894.723L1225.31,1375.91C1225.31,1388.35 1214.56,1398.45 1201.31,1398.45L1009.23,1398.45C995.978,1398.45 985.22,1388.35 985.22,1375.91L985.22,894.723C985.22,882.284 995.978,872.185 1009.23,872.185L1201.31,872.185C1214.56,872.185 1225.31,882.284 1225.31,894.723Z" style="fill:none;stroke:black;stroke-width:3.76px;"/>
    </g>
    <g>
        <path d="M1225.31,2260.64L1225.31,2741.83C1225.31,2754.27 1214.56,2764.37 1201.31,2764.37L1009.23,2764.37C995.978,2764.37 985.22,2754.27 985.22,2741.83L985.22,2260.64C985.22,2248.2 995.978,2238.1 1009.23,2238.1L1201.31,2238.1C1214.56,2238.1 1225.31,2248.2 1225.31,2260.64Z" style="fill:none;stroke:black;stroke-width:3.76px;"/>
    </g>
    <g>
        <path d="M783.678,211.763L783.678,692.955C783.678,705.394 772.919,715.493 759.668,715.493L567.593,715.493C554.342,715.493 543.584,705.394 543.584,692.955L543.584,211.763C543.584,199.324 554.342,189.225 567.593,189.225L759.668,189.225C772.919,189.225 783.678,199.324 783.678,211.763Z" style="fill:none;stroke:black;stroke-width:3.76px;"/>
    </g>
    <g>
        <path d="M783.678,1577.68L783.678,2058.87C783.678,2071.31 772.919,2081.41 759.668,2081.41L567.593,2081.41C554.342,2081.41 543.584,2071.31 543.584,2058.87L543.584,1577.68C543.584,1565.24 554.342,1555.14 567.593,1555.14L759.668,1555.14C772.919,1555.14 783.678,1565.24 783.678,1577.68Z" style="fill:none;stroke:black;stroke-width:3.76px;"/>
    </g>
    <g>
        <path d="M783.678,894.723L783.678,1375.91C783.678,1388.35 772.919,1398.45 759.668,1398.45L567.593,1398.45C554.342,1398.45 543.584,1388.35 543.584,1375.91L543.584,894.723C543.584,882.284 554.342,872.185 567.593,872.185L759.668,872.185C772.919,872.185 783.678,882.284 783.678,894.723Z" style="fill:none;stroke:black;stroke-width:3.76px;"/>
    </g>
    <g>
        <path d="M783.678,2260.64L783.678,2741.83C783.678,2754.27 772.919,2764.37 759.668,2764.37L567.593,2764.37C554.342,2764.37 543.584,2754.27 543.584,2741.83L543.584,2260.64C543.584,2248.2 554.342,2238.1 567.593,2238.1L759.668,2238.1C772.919,2238.1 783.678,2248.2 783.678,2260.64Z" style="fill:none;stroke:black;stroke-width:3.76px;"/>
    </g>
    <g>
        <path d="M1534.87,211.763L1534.87,692.955C1534.87,705.394 1524.11,715.493 1510.86,715.493L1318.79,715.493C1305.54,715.493 1294.78,705.394 1294.78,692.955L1294.78,211.763C1294.78,199.324 1305.54,189.225 1318.79,189.225L1510.86,189.225C1524.11,189.225 1534.87,199.324 1534.87,211.763Z" style="fill:none;stroke:black;stroke-width:3.76px;"/>
    </g>
    <g>
        <path d="M1534.87,1577.68L1534.87,2058.87C1534.87,2071.31 1524.11,2081.41 1510.86,2081.41L1318.79,2081.41C1305.54,2081.41 1294.78,2071.31 1294.78,2058.87L1294.78,1577.68C1294.78,1565.24 1305.54,1555.14 1318.79,1555.14L1510.86,1555.14C1524.11,1555.14 1534.87,1565.24 1534.87,1577.68Z" style="fill:none;stroke:black;stroke-width:3.76px;"/>
    </g>
    <g>
        <path d="M1534.87,894.723L1534.87,1375.91C1534.87,1388.35 1524.11,1398.45 1510.86,1398.45L1318.79,1398.45C1305.54,1398.45 1294.78,1388.35 1294.78,1375.91L1294.78,894.723C1294.78,882.284 1305.54,872.185 1318.79,872.185L1510.86,872.185C1524.11,872.185 1534.87,882.284 1534.87,894.723Z" style="fill:none;stroke:black;stroke-width:3.76px;"/>
    </g>
    <g>
        <path d="M1534.87,2260.64L1534.87,2741.83C1534.87,2754.27 1524.11,2764.37 1510.86,2764.37L1318.79,2764.37C1305.54,2764.37 1294.78,2754.27 1294.78,2741.83L1294.78,2260.64C1294.78,2248.2 1305.54,2238.1 1318.79,2238.1L1510.86,2238.1C1524.11,2238.1 1534.87,2248.2 1534.87,2260.64Z" style="fill:none;stroke:black;stroke-width:3.76px;"/>
    </g>
</svg>
