<?xml version="1.0" encoding="UTF-8" standalone="no"?>
<!DOCTYPE svg PUBLIC "-//W3C//DTD SVG 1.1//EN" "http://www.w3.org/Graphics/SVG/1.1/DTD/svg11.dtd">
<svg width="100%" height="100%" viewBox="0 0 4725 3544" version="1.1" xmlns="http://www.w3.org/2000/svg" xmlns:xlink="http://www.w3.org/1999/xlink" xml:space="preserve" xmlns:serif="http://www.serif.com/" style="fill-rule:evenodd;clip-rule:evenodd;stroke-linejoin:round;stroke-miterlimit:2;">
    <g transform="matrix(1,0,0,1,-4932,0)">
        <g id="template_mobile" transform="matrix(1,0,0,1,-0.742782,0)">
            <rect x="4932.74" y="0" width="4724.41" height="3543.31"/>
            <g transform="matrix(1.82881,0,0,1.82881,-4013.37,-84.3144)">
                <g id="iPhone3" transform="matrix(1,0,0,0.970348,4932.74,0)">
                    <g>
                        <g id="base">
                            <g>
                                <g transform="matrix(1,0,0,1.03056,-2665,-1.17161e-13)">
                                    <path d="M4834.86,1571.52L4835,1588C4835.11,1594.06 4835.24,1601.47 4835,1609.68C4834.16,1638.41 4828.8,1676.96 4802.02,1702C4783.6,1719.22 4760.7,1723.94 4742.32,1725C4734.02,1725.48 4726.64,1725.21 4721.02,1725L4452,1725C4447.86,1724.81 4442.72,1725.57 4436.99,1725C4418.8,1723.18 4394.58,1717.96 4377,1700C4340.79,1663.02 4338.94,1613.67 4338.02,1589L4338.02,441C4338.37,416.409 4339.07,367.228 4365,337C4381.22,318.09 4434.11,298.736 4468,306L4742.38,384.903C4782.91,393.872 4809,419 4821.63,451.703C4813.96,433.287 4797.07,405.104 4750.92,391.985C4734.78,387.398 4721.88,383.755 4711.26,380.773C4643.58,361.776 4668.3,369.637 4536.83,331.523C4530.2,329.603 4523.19,327.566 4515.74,325.404C4490.72,318.139 4473.23,312.512 4459.16,312.953C4432.46,313.79 4420.74,328.683 4411.71,340.884C4393.43,365.598 4396.33,426.964 4396.02,451.143L4396.02,1581.82C4396.45,1606.16 4396.34,1620.06 4399.59,1638.18C4415,1724.11 4484,1714.1 4496.63,1715.74L4734.09,1715.74C4773,1716 4789.34,1710.04 4805.59,1693.09C4829.23,1668.43 4833.97,1630.47 4834.7,1602.18C4834.92,1594.1 4834.86,1580.83 4834.86,1580.83L4834.86,1571.52Z" style="fill:rgb(164,164,163);"/>
                                </g>
                                <g transform="matrix(1,0,0,1.03056,-2665,-1.17161e-13)">
                                    <path d="M4828.06,1014.85L4828.07,1014.85L4828.06,921L4828.06,1014.85ZM4821.63,451.703C4822.69,454.249 4823.58,456.608 4824.34,458.715C4835,488.25 4834.7,519.998 4834.7,519.998L4834.76,921L4834.78,1562L4834.86,1571.52L4834.86,1580.83C4834.86,1580.83 4834.92,1594.1 4834.7,1602.18C4833.97,1630.47 4829.23,1668.43 4805.59,1693.09C4789.34,1710.04 4773,1716 4734.09,1715.74L4496.63,1715.74C4484,1714.1 4415,1724.11 4399.59,1638.18C4396.34,1620.06 4396.45,1606.16 4396.02,1581.82L4396.02,451.143C4396.33,426.964 4393.43,365.598 4411.71,340.884C4420.74,328.683 4432.46,313.79 4459.16,312.953C4473.23,312.512 4490.72,318.139 4515.74,325.404C4523.19,327.566 4530.2,329.603 4536.83,331.523C4536.83,331.523 4543.07,335.646 4544.53,336.576C4544.87,336.791 4545.61,337.106 4545.61,337.106L4703.18,381.736C4703.18,381.736 4704.12,381.889 4704.6,381.833C4705.94,381.673 4711.26,380.773 4711.26,380.773C4721.88,383.755 4734.78,387.398 4750.92,391.985C4797.07,405.104 4813.96,433.287 4821.63,451.703Z" style="fill:rgb(105,105,105);"/>
                                </g>
                                <g transform="matrix(1,0,0,1.03056,-2665,-1.17161e-13)">
                                    <path d="M4825.77,1014.85L4825.78,1014.85L4825.77,921L4825.77,1014.85ZM4828.07,1562L4828.15,1562L4828.15,1568.56C4828.15,1568.83 4828.2,1581.94 4828,1589.53C4827.65,1603.48 4826.91,1620.46 4824.79,1637.19C4820,1675 4796.82,1707.99 4751.77,1707.77C4744.59,1707.73 4738.24,1707.97 4733.38,1707.77L4501.33,1707.77C4489,1706 4398,1724 4403,1575.18L4403,455.972C4403.14,445.608 4402.43,407.608 4403.98,390.656C4405.12,378.189 4407.21,365.322 4412.31,354.255C4421.85,333.51 4439.47,318.332 4464.71,318.953C4478.46,319.291 4530.7,335.147 4537,337C4537,337 4540.9,339.906 4543,341C4545.1,342.094 4548.85,343.355 4549.58,343.564L4703.01,388.092C4705.11,388.535 4707.34,388.272 4708.05,388.11C4709.62,387.751 4712.6,386.816 4712.7,386.843C4715.91,387.651 4725.2,390.212 4749.83,397.315C4775.86,404.822 4794.82,420.938 4805.72,438.913C4813.22,450.053 4816.92,460.998 4819.01,467.185C4828.61,495.567 4828.03,528.923 4828,530.038L4828.06,921L4828.07,1562Z"/>
                                </g>
                                <g transform="matrix(1,0,0,1.03056,-2665,-1.17161e-13)">
                                    <path d="M4408.02,462.485C4408.21,447.308 4407.35,408.073 4409.5,389.719C4411.04,376.636 4414.68,361.082 4420.95,352.357C4429.54,340.391 4438.69,328.774 4464.11,327.953C4477.5,327.52 4498.19,332.042 4522.01,339.167C4691.96,390.002 4627.75,369.864 4745.94,404.467C4761.79,409.109 4775.22,413.481 4784.99,420.552C4806.05,435.789 4813.51,458.06 4816.84,467.919C4826.48,496.426 4825.71,530.015 4825.71,530.015L4825.77,921L4825.78,1562L4825.71,1562L4825.71,1568.56C4825.8,1574.41 4825.91,1581.55 4825.71,1589.47C4825.01,1617.17 4825.5,1657.35 4802.99,1681.49C4787.52,1698.1 4772.6,1700.77 4748.82,1700.67C4741.83,1700.64 4734.64,1700.87 4729.91,1700.67L4503.82,1700.67C4497.9,1700.68 4488.69,1700.83 4483.03,1700.66C4458.57,1699.94 4443.23,1689.91 4432.15,1677.26C4406.15,1647.58 4408.63,1597.77 4408.02,1579.02C4407.86,1574.29 4408.02,1562.05 4408.02,1562.05L4408.02,462.485Z" style="fill:white;"/>
                                </g>
                                <g transform="matrix(1,0,0,1.03056,-2665,-1.17161e-13)">
                                    <path d="M4711.26,380.773C4711.26,380.773 4705.94,381.673 4704.6,381.833C4704.12,381.889 4703.18,381.736 4703.18,381.736L4545.61,337.106C4545.61,337.106 4544.87,336.791 4544.53,336.576C4543.07,335.646 4536.83,331.523 4536.83,331.523C4668.3,369.637 4643.58,361.776 4711.26,380.773Z"/>
                                </g>
                                <g id="icon" transform="matrix(1,0,0,1.03056,806.992,-801.943)">
                                    <g id="icon1" serif:id="icon" transform="matrix(1.90476,0,0,1.0101,0.599715,779.194)">
                                        <g transform="matrix(0.525,0,0,0.99,-4.81081,-42.2657)">
                                            <path d="M1265.19,480.499C1265.19,479.218 1266.06,478.755 1266.53,478.885C1267.86,479.252 1267.86,481.016 1267.86,481.232L1267.86,496.382C1267.86,497.662 1267,498.129 1266.53,498.001C1265.19,497.639 1265.19,495.873 1265.19,495.658L1265.19,480.499ZM1260.01,482.818C1260.01,481.536 1260.88,481.072 1261.35,481.201C1262.68,481.568 1262.68,483.334 1262.68,483.55L1262.68,494.974C1262.68,496.255 1261.82,496.722 1261.35,496.594C1260.01,496.232 1260.01,494.464 1260.01,494.248L1260.01,482.818ZM1254.82,485.24C1254.82,483.957 1255.69,483.491 1256.16,483.62C1257.49,483.987 1257.49,485.755 1257.49,485.971L1257.49,493.564C1257.49,494.845 1256.63,495.314 1256.16,495.186C1254.82,494.823 1254.82,493.053 1254.82,492.837L1254.82,485.24ZM1249.62,487.675C1249.62,486.391 1250.49,485.923 1250.96,486.052C1252.3,486.418 1252.3,488.189 1252.3,488.405L1252.3,492.151C1252.3,493.434 1251.43,493.903 1250.96,493.775C1249.62,493.411 1249.62,491.639 1249.62,491.423L1249.62,487.675Z"/>
                                        </g>
                                        <g transform="matrix(0.525,0,0,0.99,0,1.33669)">
                                            <path d="M1278,454.193C1277.77,453.731 1275.05,448.356 1271.76,452.49L1271.23,452.761L1270.66,452.305L1269.8,450.86C1269.73,450.753 1269.29,449.997 1269.74,449.316C1270.54,448.167 1271.19,447.741 1271.35,447.64C1271.84,447.323 1275.02,445.27 1278.4,449.57L1280.01,452.124C1280.07,452.233 1280.46,453.049 1279.96,453.633L1279.09,454.603L1278.53,454.751L1278,454.193ZM1274.88,458.484C1274.75,458.448 1274.82,458.483 1273.44,456.355L1273.17,455.446L1273.42,454.667C1274.88,452.994 1276.21,455.253 1276.34,455.461L1276.59,456.375L1276.32,457.14C1274.96,458.499 1275.01,458.52 1274.88,458.484ZM1278.67,446.419C1275.1,442.718 1271.77,444.069 1271.19,444.303L1271.09,444.339C1270.84,444.462 1271.02,444.597 1268.78,446.975L1268.49,447.098L1267.9,446.77L1267.18,445.852L1266.83,445.249L1266.59,444.435L1266.7,443.952L1268.07,441.859C1268.92,440.918 1269.83,440.471 1270,440.384L1271.35,439.97C1274.45,439.038 1277.93,441.569 1278.4,441.913L1279.75,443.068L1281.67,445.596L1283.04,448.433L1283.14,448.972L1282.91,449.656L1282.56,450.063L1281.84,450.584L1281.26,450.591L1280.97,450.312C1280.48,449.515 1280.18,448.605 1279.71,447.798C1279.41,447.302 1279.07,446.833 1278.67,446.419Z"/>
                                            <path d="M1274.88,458.484C1274.75,458.448 1274.82,458.483 1273.44,456.355L1273.17,455.446L1273.42,454.667C1274.88,452.994 1276.21,455.253 1276.34,455.461L1276.59,456.375L1276.32,457.14C1274.96,458.499 1275.01,458.52 1274.88,458.484ZM1275.45,456.051C1275.18,455.987 1274.95,455.981 1274.71,456.002C1274.63,456.009 1274.43,456.087 1274.2,456.183L1274.19,456.48C1274.33,456.521 1274.51,456.559 1274.63,456.551C1274.82,456.539 1275.09,456.557 1275.31,456.309L1275.45,456.051ZM1278.67,446.419C1275.1,442.718 1271.77,444.069 1271.19,444.303L1271.09,444.339C1270.84,444.462 1271.02,444.597 1268.78,446.975L1268.49,447.098L1267.9,446.77L1267.18,445.852L1266.83,445.249L1266.59,444.435L1266.7,443.952L1268.07,441.859C1268.92,440.918 1269.83,440.471 1270,440.384L1271.35,439.97C1274.45,439.038 1277.93,441.569 1278.4,441.913L1279.75,443.068L1281.67,445.596L1283.04,448.433L1283.14,448.972L1282.91,449.656L1282.56,450.063L1281.84,450.584L1281.26,450.591L1280.97,450.312C1280.48,449.515 1280.18,448.605 1279.71,447.798C1279.41,447.302 1279.07,446.833 1278.67,446.419ZM1269.22,442.677L1269.47,442.489C1269.6,442.364 1269.75,442.252 1269.91,442.156L1269.99,442.093C1269.69,442.239 1269.43,442.439 1269.22,442.677ZM1269.28,446.069L1269.36,446.004C1269.07,445.692 1268.86,445.303 1268.75,444.866L1268.64,444.86L1268.65,444.902C1268.76,445.353 1268.98,445.752 1269.28,446.069ZM1278,454.193C1277.77,453.731 1275.05,448.356 1271.76,452.49L1271.23,452.761L1270.66,452.305L1269.8,450.86C1269.73,450.753 1269.29,449.997 1269.74,449.316C1270.54,448.167 1271.19,447.741 1271.35,447.64C1271.84,447.323 1275.02,445.27 1278.4,449.57L1280.01,452.124C1280.07,452.233 1280.46,453.049 1279.96,453.633L1279.09,454.603L1278.53,454.751L1278,454.193Z"/>
                                        </g>
                                        <g transform="matrix(2.24274,0,0,4.22917,771.31,367.224)">
                                            <path d="M-36.318,18.935L-36.095,19.134L-36.003,19.491L-36.003,22.964L-36.095,23.271L-36.318,23.348L-41.392,21.971L-41.616,21.772L-41.709,21.412L-41.709,17.921L-41.616,17.612L-41.392,17.536L-36.318,18.935ZM-36.318,19.216L-41.392,17.819L-41.482,17.85L-41.519,17.973L-41.519,21.464L-41.482,21.608L-41.392,21.688L-36.318,23.067L-36.229,23.036L-36.192,22.913L-36.192,19.439L-36.229,19.296L-36.318,19.216ZM-37.382,22.167L-37.419,22.29L-37.508,22.321L-41.108,21.341L-41.198,21.261L-41.235,21.117L-41.235,18.462L-41.198,18.339L-41.108,18.308L-37.508,19.298L-37.419,19.378L-37.382,19.521L-37.382,22.167ZM-35.772,20.352L-35.718,20.367L-35.327,20.716L-35.165,21.344L-35.165,21.345L-35.327,21.884L-35.718,22.019L-35.772,22.004L-35.772,20.352Z"/>
                                        </g>
                                    </g>
                                    <g transform="matrix(0.543213,0,0,0.543213,456.465,928.53)">
                                        <path d="M979.462,427.721L983.808,428.902L983.808,393.451L979.479,392.258L973.123,397.001L973.123,403.101L979.175,398.565L979.462,398.644L979.462,427.721Z"/>
                                        <path d="M1001.95,433.829L1006.1,434.956L1006.1,428.364L1009.37,429.255L1009.37,423.914L1006.1,423.021L1006.1,399.594L999.988,397.909C993.07,411.21 990.799,416.682 990.103,418.361L990.103,424.007L1001.95,427.234L1001.95,433.829ZM994.122,419.532C997.85,410.963 1001.12,404.805 1001.78,403.553L1002.02,403.618L1002.02,422.055L994.122,419.9L994.122,419.532Z"/>
                                        <path d="M1014.27,429.633C1014.27,430.081 1014.27,433.698 1017.09,434.463C1019.88,435.224 1019.88,431.509 1019.88,431.163C1019.88,430.718 1019.88,427.125 1017.09,426.362C1014.27,425.594 1014.27,429.288 1014.27,429.633ZM1014.27,411.173C1014.27,411.619 1014.27,415.213 1017.09,415.984C1019.88,416.751 1019.88,413.058 1019.88,412.714C1019.88,412.267 1019.88,408.652 1017.09,407.883C1014.27,407.108 1014.27,410.826 1014.27,411.173Z"/>
                                        <path d="M1031.2,441.771L1035.51,442.943L1035.51,407.697L1031.21,406.513L1024.91,411.231L1024.91,417.296L1030.91,412.784L1031.2,412.862L1031.2,441.771Z"/>
                                        <path d="M1051.57,448.157C1056.12,449.392 1060.5,446.08 1060.5,438.233C1060.5,431.166 1056.74,425.51 1052.58,424.372C1052.03,424.22 1048.13,423.152 1046.35,427.931L1046.06,427.853C1046.06,426.843 1046.06,414.997 1051.67,416.538C1055,417.455 1055.76,421.465 1055.87,422.007L1060.16,423.186C1059.41,416.909 1055.67,412.375 1051.7,411.281C1041.94,408.591 1041.94,425.946 1041.94,427.458C1041.94,434.203 1043.33,438.166 1043.64,439.051C1043.94,439.97 1046.11,446.676 1051.57,448.157ZM1051.52,442.901C1049.18,442.266 1046.78,438.571 1046.78,434.587C1046.78,430.261 1049.3,428.471 1051.55,429.086C1053.96,429.747 1056.28,433.186 1056.28,437.278C1056.28,441.534 1053.77,443.515 1051.52,442.901Z"/>
                                    </g>
                                </g>
                            </g>
                        </g>
                        <g id="cametra">
                            <g>
                                <g transform="matrix(1,0,0,1.03056,-4.54747e-13,0)">
                                    <path d="M2000.82,456.902L2000.56,456.825L1914.88,433.281C1914.88,433.281 1913.6,432.918 1913.14,432.729C1909.51,431.221 1891.89,422.723 1896,395C1898.81,376.011 1912.69,378.869 1916.13,379.791C1916.58,379.912 1917.66,380.241 1917.66,380.241L1999,403L2008,406C2008.41,406.137 2008.84,406.308 2009.29,406.514C2010.2,406.956 2011.09,407.478 2011.94,408.074C2014.58,409.949 2017.39,412.93 2019.63,417.187C2022.4,422.511 2024.01,429.286 2024,437L2024,437.008C2023.96,461.826 2006.19,458.395 2002.05,457.259C2001.68,457.159 2001.13,456.997 2000.82,456.902ZM1958.1,393.718L1917.1,382.247L1917.06,382.234C1917.06,382.234 1916.02,381.919 1915.59,381.803C1913.8,381.323 1908.73,380.155 1904.44,382.927C1901.51,384.821 1899.06,388.541 1898.06,395.305C1896.5,405.82 1898.19,413.425 1901.06,418.849C1905.25,426.791 1911.92,429.967 1913.94,430.805C1914.31,430.957 1915.3,431.235 1915.43,431.273L1955.36,442.244C1956.12,442.506 1956.91,442.725 1957.72,442.893L2001.11,454.817L2001.16,454.831L2001.26,454.862C2005.95,456.498 2012.05,456.751 2016.17,453.571C2019.52,450.996 2021.91,446.015 2021.92,437.006L2021.92,436.997C2021.93,430.65 2020.86,425.448 2019.22,421.28C2016.31,413.721 2011.23,408.564 2005,407.196L1998.39,404.993L1960.77,394.467C1959.91,394.135 1959.01,393.884 1958.1,393.718Z"/>
                                </g>
                                <g transform="matrix(1,0,0,1.03056,-4.54747e-13,0)">
                                    <path d="M1958.1,393.718C1959.01,393.884 1959.91,394.135 1960.77,394.467L1998.39,404.993L2005,407.196C2011.23,408.564 2016.31,413.721 2019.22,421.28C2020.86,425.448 2021.93,430.65 2021.92,436.997L2021.92,437.006C2021.91,446.015 2019.52,450.996 2016.17,453.571C2012.05,456.751 2005.95,456.498 2001.26,454.862L2001.16,454.831L2001.11,454.817L1957.72,442.893C1956.91,442.725 1956.12,442.506 1955.36,442.244L1915.43,431.273C1915.3,431.235 1914.31,430.957 1913.94,430.805C1911.92,429.967 1905.25,426.791 1901.06,418.849C1898.19,413.425 1896.5,405.82 1898.06,395.305C1899.06,388.541 1901.51,384.821 1904.44,382.927C1908.73,380.155 1913.8,381.323 1915.59,381.803C1916.02,381.919 1917.06,382.234 1917.06,382.234L1917.1,382.247L1958.1,393.718Z"/>
                                </g>
                                <g transform="matrix(1,0,0,1.03056,-4.54747e-13,0)">
                                    <path d="M1957.72,442.893C1956.91,442.725 1956.12,442.506 1955.36,442.244L1915.43,431.273C1915.3,431.235 1914.31,430.957 1913.94,430.805C1911.92,429.967 1905.25,426.791 1901.06,418.849C1898.19,413.425 1896.5,405.82 1898.06,395.305C1899.06,388.541 1901.51,384.821 1904.44,382.927C1908.73,380.155 1913.8,381.323 1915.59,381.803C1916.02,381.919 1917.06,382.234 1917.06,382.234L1917.1,382.247L1958.1,393.718C1959.01,393.884 1959.91,394.135 1960.77,394.467L1967.63,396.384C1967.73,396.482 1967.84,396.581 1967.94,396.681C1973.75,402.269 1977.53,412.086 1977.52,423.94C1977.52,433.939 1974.63,439.332 1971,442.256C1969.3,443.627 1967.31,444.496 1965.2,444.949L1957.72,442.893Z" style="fill:rgb(41,41,41);"/>
                                </g>
                                <g transform="matrix(1,0,0,0.995066,-4.54747e-13,15.4393)">
                                    <path d="M1916.93,390.974C1924.75,392.983 1957.19,403.078 1957.19,403.078C1959.61,403.72 1962.77,405.589 1964.7,408.572C1967.19,412.41 1968.08,416.976 1968.08,422.866C1968.08,428.291 1964.99,432.463 1963.82,433.404C1963.01,434.049 1961.67,434.9 1957.63,433.889C1957.63,433.889 1926.12,426.099 1917.83,422.92C1913.82,421.381 1910.6,420.364 1907.92,414.814C1905.83,410.493 1904.3,404.577 1906.3,396.525C1907.14,393.16 1908.66,391.874 1910.22,391.024C1912.03,390.039 1914.76,390.418 1916.93,390.974Z"/>
                                </g>
                                <g transform="matrix(0.962195,0,0,1.03056,76.4376,0)">
                                    <path d="M2021.92,436.997L2021.92,437.006C2021.9,445.995 2019.51,450.96 2016.17,453.534C2011.31,457.29 2004.79,455.85 2002.6,455.25C2002.18,455.135 2001.52,454.938 2001.26,454.862C2000.43,454.572 1999.65,454.239 1998.92,453.874C1992.75,450.758 1988.92,443.122 1987,436.007C1985.73,431.3 1985.65,424.624 1987.21,418.56C1988.6,413.163 1993.89,407.599 1999.77,406.939C2001.58,406.735 2003.33,406.83 2005,407.196L2007.34,407.976C2011,409.195 2016.13,413.379 2019.22,421.28C2020.95,425.769 2021.92,431.105 2021.92,436.997Z" style="fill:rgb(38,38,38);"/>
                                </g>
                                <g transform="matrix(0.568691,0,0,0.650932,865.263,163.632)">
                                    <path d="M2021.92,436.997L2021.92,437.006C2021.9,445.995 2019.51,450.96 2016.17,453.534C2011.31,457.29 2005.13,456.749 2001,454.721C1996.65,452.583 1990.82,447.96 1987,436.007C1985.41,431.05 1985.65,424.624 1987.21,418.56C1988.6,413.163 1993.89,407.599 1999.77,406.939C2001.58,406.735 2003.33,406.83 2005,407.196L2007.34,407.976C2011,409.195 2016.13,413.379 2019.22,421.28C2020.95,425.769 2021.92,431.105 2021.92,436.997Z" style="fill:rgb(39,55,64);"/>
                                </g>
                                <g transform="matrix(0.286229,0,0,0.325868,1430.14,305.104)">
                                    <path d="M2019.22,421.28C2025.2,437.905 2021.39,448.998 2016.17,453.534C2011.58,457.532 2006.37,456.546 2002.6,455.25C1996,452.986 1989.26,442.492 1987.65,436.058C1985.97,429.331 1985.89,424.067 1987.21,418.56C1988.51,413.14 1993.86,407.349 1999.77,406.939C2007.36,406.412 2015.87,411.953 2019.22,421.28Z" style="fill:rgb(28,76,101);"/>
                                </g>
                            </g>
                        </g>
                        <g id="antena">
                            <g id="antena2" transform="matrix(1,0,0,1.03056,-4.54747e-13,0)">
                                <path d="M1673.02,1562C1673.02,1562 1706.33,1561.05 1716,1561C1724.01,1560.96 1731.02,1561.07 1731.02,1561.07L1731.02,1575.38L1673.02,1576L1673.02,1562Z" style="fill:rgb(180,180,180);"/>
                            </g>
                            <g id="antena1" transform="matrix(1,0,0,1.03056,-4.54747e-13,0)">
                                <path d="M1673.03,439.894C1673.03,439.894 1703.43,431.378 1713,429C1721.89,426.792 1731.01,429 1731.01,429L1731.01,443C1731.01,443 1722.31,441.776 1716,443C1710.35,444.096 1673.02,454.807 1673.02,454.807L1673.03,439.894Z" style="fill:rgb(180,180,180);"/>
                            </g>
                        </g>
                        <g id="botao">
                            <g id="botao4" transform="matrix(0.809524,0,0,2.18571,323.762,39.647)">
                                <g>
                                    <g transform="matrix(1,0,0,1.16353,-4.54747e-13,-75.8291)">
                                        <path d="M1694.5,578C1700.3,578 1705,579.542 1705,581.444C1705,592.297 1705,625.703 1705,636.556C1705,638.458 1700.3,640 1694.5,640C1694.5,640 1694.5,640 1694.5,640C1688.7,640 1684,638.458 1684,636.556C1684,625.703 1684,592.297 1684,581.444C1684,579.542 1688.7,578 1694.5,578C1694.5,578 1694.5,578 1694.5,578Z" style="fill:rgb(141,141,140);"/>
                                    </g>
                                    <g transform="matrix(0.842675,0,0,1.15104,266.256,-68.2403)">
                                        <path d="M1694.5,578C1697.29,578 1699.96,578.309 1701.92,578.859C1703.89,579.409 1705,580.156 1705,580.934C1705,591.37 1705,626.63 1705,637.066C1705,637.844 1703.89,638.591 1701.92,639.141C1699.96,639.691 1697.29,640 1694.5,640C1694.5,640 1694.5,640 1694.5,640C1691.71,640 1689.04,639.691 1687.08,639.141C1685.11,638.591 1684,637.844 1684,637.066C1684,626.63 1684,591.37 1684,580.934C1684,580.156 1685.11,579.409 1687.08,578.859C1689.04,578.309 1691.71,578 1694.5,578C1694.5,578 1694.5,578 1694.5,578Z" style="fill:rgb(197,197,196);"/>
                                    </g>
                                    <g id="furo" transform="matrix(1.23529,0,0,0.457516,-399.941,-18.1392)">
                                        <g transform="matrix(1.29937,0,0,1.20232,-507.849,-225.005)">
                                            <ellipse cx="1695.5" cy="1316" rx="3.5" ry="6" style="fill:white;"/>
                                        </g>
                                        <g transform="matrix(1.00246,0,0,0.944678,-4.11083,113.533)">
                                            <ellipse cx="1695.5" cy="1316" rx="3.5" ry="6" style="fill:rgb(70,70,67);"/>
                                            <clipPath id="_clip1">
                                                <ellipse cx="1695.5" cy="1316" rx="3.5" ry="6"/>
                                            </clipPath>
                                            <g clip-path="url(#_clip1)">
                                                <g transform="matrix(0.5,0,0,0.683687,849.5,416.813)">
                                                    <ellipse cx="1695.5" cy="1316" rx="3.5" ry="6" style="fill:white;"/>
                                                </g>
                                            </g>
                                        </g>
                                    </g>
                                </g>
                            </g>
                            <g id="botao3" transform="matrix(1,0,0,1.6815,2.72848e-12,-147.948)">
                                <g transform="matrix(1.09788,0,0,1.13383,-165.806,-58.6773)">
                                    <path d="M1694.5,578C1700.3,578 1705,582.184 1705,587.345C1705,599.042 1705,615.968 1705,627.665C1705,632.826 1700.3,640 1694.5,640C1694.5,640 1694.5,640 1694.5,640C1688.7,640 1684,635.816 1684,630.655C1684,618.958 1684,599.042 1684,587.345C1684,582.184 1688.7,578 1694.5,578C1694.5,578 1694.5,578 1694.5,578Z" style="fill:rgb(145,145,144);"/>
                                </g>
                                <g transform="matrix(0.952381,0,0,1.13313,81.1905,-58.2568)">
                                    <path d="M1694.5,578C1700.3,578 1705,581.998 1705,586.929C1705,598.702 1705,615.45 1705,627.224C1705,633.426 1700.55,639.661 1693.46,640C1688.7,640.228 1684,637.259 1684,631.071L1684,586.929C1684,581.998 1688.7,578 1694.5,578L1694.5,578Z" style="fill:rgb(79,79,74);"/>
                                </g>
                                <g transform="matrix(0.857893,0,0,1.06086,240.309,-14.4225)">
                                    <path d="M1694.5,578C1697.29,578 1699.96,578.548 1701.92,579.524C1703.89,580.5 1705,581.823 1705,583.204C1705,594.89 1705,623.11 1705,634.796C1705,636.177 1703.89,637.5 1701.92,638.476C1699.96,639.452 1697.29,640 1694.5,640C1694.5,640 1694.5,640 1694.5,640C1691.71,640 1689.04,639.452 1687.08,638.476C1685.11,637.5 1684,636.177 1684,634.796L1684,583.204C1684,581.823 1685.11,580.5 1687.08,579.524C1689.04,578.548 1691.71,578 1694.5,578L1694.5,578Z" style="fill:rgb(214,214,212);"/>
                                </g>
                                <g transform="matrix(0.670971,0,0,0.986029,555.085,30.3811)">
                                    <path d="M1694.5,578C1700.3,578 1705,579.961 1705,582.379L1705,635.621C1705,638.039 1700.3,640 1694.5,640L1694.5,640C1688.7,640 1684,638.039 1684,635.621L1684,582.379C1684,579.961 1688.7,578 1694.5,578L1694.5,578Z" style="fill:rgb(181,181,179);"/>
                                </g>
                            </g>
                            <g id="botao2" transform="matrix(1,0,0,1.66592,2.72848e-12,-278.811)">
                                <g transform="matrix(1.09788,0,0,1.14015,-165.806,-62.3284)">
                                    <path d="M1694.5,578C1700.3,578 1705,582.184 1705,587.345C1705,599.042 1705,615.968 1705,627.665C1705,632.826 1700.3,640 1694.5,640C1694.5,640 1694.5,640 1694.5,640C1688.7,640 1684,635.816 1684,630.655C1684,618.958 1684,599.042 1684,587.345C1684,582.184 1688.7,578 1694.5,578C1694.5,578 1694.5,578 1694.5,578Z" style="fill:rgb(145,145,144);"/>
                                </g>
                                <g transform="matrix(0.952381,0,0,1.1238,81.1905,-52.8638)">
                                    <path d="M1694.5,578C1700.3,578 1705,581.998 1705,586.929C1705,598.702 1705,615.45 1705,627.224C1705,633.426 1700.55,639.661 1693.46,640C1688.7,640.228 1684,637.259 1684,631.071L1684,586.929C1684,581.998 1688.7,578 1694.5,578L1694.5,578Z" style="fill:rgb(79,79,74);"/>
                                </g>
                                <g transform="matrix(0.857893,0,0,1.06086,240.309,-14.4225)">
                                    <path d="M1694.5,578C1700.3,578 1705,580.351 1705,583.252C1705,594.952 1705,623.048 1705,634.748C1705,637.649 1700.3,640 1694.5,640L1694.5,640C1688.7,640 1684,637.649 1684,634.748C1684,623.048 1684,594.952 1684,583.252C1684,580.351 1688.7,578 1694.5,578L1694.5,578Z" style="fill:rgb(214,214,212);"/>
                                </g>
                                <g transform="matrix(0.670971,0,0,0.986029,555.085,30.3811)">
                                    <path d="M1694.5,578C1700.3,578 1705,579.979 1705,582.42C1705,593.829 1705,624.171 1705,635.58C1705,638.021 1700.3,640 1694.5,640C1694.5,640 1694.5,640 1694.5,640C1688.7,640 1684,638.021 1684,635.58C1684,624.171 1684,593.829 1684,582.42C1684,579.979 1688.7,578 1694.5,578C1694.5,578 1694.5,578 1694.5,578Z" style="fill:rgb(181,181,179);"/>
                                </g>
                            </g>
                            <g id="botao1" transform="matrix(1,0,0,1.04286,3.18323e-12,-25.5726)">
                                <g transform="matrix(1.09788,0,0,1.16233,-165.806,-75.1509)">
                                    <path d="M1694.5,578C1700.3,578 1705,582.184 1705,587.345C1705,599.042 1705,615.968 1705,627.665C1705,632.826 1700.3,640 1694.5,640C1694.5,640 1694.5,640 1694.5,640C1688.7,640 1684,635.816 1684,630.655C1684,618.958 1684,599.042 1684,587.345C1684,582.184 1688.7,578 1694.5,578C1694.5,578 1694.5,578 1694.5,578Z" style="fill:rgb(145,145,144);"/>
                                </g>
                                <g transform="matrix(0.952381,0,0,1.1621,81.1905,-75.0034)">
                                    <path d="M1694.5,578C1700.3,578 1705,581.998 1705,586.929C1705,598.702 1705,615.45 1705,627.224C1705,633.426 1700.55,639.661 1693.46,640C1688.7,640.228 1684,637.259 1684,631.071L1684,586.929C1684,581.998 1688.7,578 1694.5,578L1694.5,578Z" style="fill:rgb(79,79,74);"/>
                                </g>
                                <g transform="matrix(0.857893,0,0,1.06086,240.309,-14.4225)">
                                    <path d="M1694.5,578C1697.29,578 1699.96,578.884 1701.92,580.457C1703.89,582.031 1705,584.165 1705,586.39L1705,631.61C1705,633.835 1703.89,635.969 1701.92,637.543C1699.96,639.116 1697.29,640 1694.5,640C1694.5,640 1694.5,640 1694.5,640C1691.71,640 1689.04,639.116 1687.08,637.543C1685.11,635.969 1684,633.835 1684,631.61L1684,586.39C1684,584.165 1685.11,582.031 1687.08,580.457C1689.04,578.884 1691.71,578 1694.5,578L1694.5,578Z" style="fill:rgb(214,214,212);"/>
                                </g>
                                <g transform="matrix(0.670971,0,0,0.986029,555.085,30.3811)">
                                    <path d="M1694.5,578C1697.29,578 1699.96,578.744 1701.92,580.068C1703.89,581.392 1705,583.188 1705,585.061L1705,632.939C1705,634.812 1703.89,636.608 1701.92,637.932C1699.96,639.256 1697.29,640 1694.5,640L1694.5,640C1691.72,640 1689.04,639.256 1687.08,637.932C1685.11,636.608 1684,634.812 1684,632.939L1684,585.061C1684,583.188 1685.11,581.392 1687.08,580.068C1689.04,578.744 1691.72,578 1694.5,578L1694.5,578Z" style="fill:rgb(181,181,179);"/>
                                </g>
                            </g>
                        </g>
                    </g>
                </g>
                <g id="iPhone2" transform="matrix(1,0,0,1,4932.14,-779.481)">
                    <g>
                        <g id="base1" serif:id="base">
                            <g transform="matrix(1,0,0,1,-2664.4,779.481)">
                                <path d="M3600.36,1602.29L3600.36,427.412C3600.36,401.632 3610.6,376.907 3628.83,358.677C3647.06,340.448 3671.78,330.206 3697.56,330.206L4136.17,330.206C4161.95,330.206 4186.68,340.448 4204.9,358.677C4223.13,376.907 4233.38,401.632 4233.38,427.412L4233.38,1602.29C4233.38,1628.07 4223.13,1652.8 4204.9,1671.03C4186.68,1689.25 4161.95,1699.5 4136.17,1699.5L3697.56,1699.5C3671.78,1699.5 3647.06,1689.25 3628.83,1671.03C3610.6,1652.8 3600.36,1628.07 3600.36,1602.29Z" style="fill:white;"/>
                            </g>
                            <g transform="matrix(1,0,0,1,-2664.4,779.481)">
                                <path d="M3591.19,1602.29L3591.19,427.412C3591.19,399.2 3602.4,372.144 3622.35,352.196C3642.3,332.247 3669.35,321.04 3697.56,321.04L3780.67,321.04L3789.86,326.3C3790.79,326.835 3791.85,327.114 3792.93,327.108L3916.87,326.377L4040.81,327.108C4041.88,327.114 4042.94,326.835 4043.88,326.3L4053.06,321.04L4136.17,321.04C4164.38,321.04 4191.44,332.247 4211.39,352.196C4231.34,372.144 4242.54,399.2 4242.54,427.412L4242.54,1602.29C4242.54,1630.5 4231.34,1657.56 4211.39,1677.51C4191.44,1697.45 4164.38,1708.66 4136.17,1708.66L4053.06,1708.66L4036.05,1708.72L4036,1708.7L4006.16,1708.83L3916.87,1709.14L3827.58,1708.83L3797.73,1708.7L3797.68,1708.72L3780.67,1708.66L3697.56,1708.66C3669.35,1708.66 3642.3,1697.45 3622.35,1677.51C3602.4,1657.56 3591.19,1630.5 3591.19,1602.29ZM4233.38,1602.29L4233.38,427.412C4233.38,401.632 4223.13,376.907 4204.9,358.677C4186.68,340.448 4161.95,330.206 4136.17,330.206L3697.56,330.206C3671.78,330.206 3647.06,340.448 3628.83,358.677C3610.6,376.907 3600.36,401.632 3600.36,427.412L3600.36,1602.29C3600.36,1628.07 3610.6,1652.8 3628.83,1671.03C3647.06,1689.25 3671.78,1699.5 3697.56,1699.5L4136.17,1699.5C4161.95,1699.5 4186.68,1689.25 4204.9,1671.03C4223.13,1652.8 4233.38,1628.07 4233.38,1602.29Z"/>
                            </g>
                            <g transform="matrix(1,0,0,1,-2664.4,779.481)">
                                <path d="M4046.13,316.883L4136.17,316.883C4165.48,316.883 4193.6,328.528 4214.33,349.256C4235.05,369.984 4246.7,398.098 4246.7,427.412L4246.7,1602.29C4246.7,1631.6 4235.05,1659.72 4214.33,1680.45C4193.6,1701.17 4165.48,1712.82 4136.17,1712.82L3697.56,1712.82C3668.25,1712.82 3640.14,1701.17 3619.41,1680.45C3598.68,1659.72 3587.03,1631.6 3587.03,1602.29L3587.03,427.412C3587.03,398.098 3598.68,369.984 3619.41,349.256C3640.14,328.528 3668.25,316.883 3697.56,316.883L3787.6,316.883L3797.73,321L3916.87,320.502L4036,321L4046.13,316.883ZM4242.54,1602.29L4242.54,427.412C4242.54,399.2 4231.34,372.144 4211.39,352.196C4191.44,332.247 4164.38,321.04 4136.17,321.04L4053.06,321.04L4043.88,326.3C4042.94,326.835 4041.88,327.114 4040.81,327.108L3916.87,326.377L3792.93,327.108C3791.85,327.114 3790.79,326.835 3789.86,326.3L3780.67,321.04L3697.56,321.04C3669.35,321.04 3642.3,332.247 3622.35,352.196C3602.4,372.144 3591.19,399.2 3591.19,427.412L3591.19,1602.29C3591.19,1630.5 3602.4,1657.56 3622.35,1677.51C3642.3,1697.45 3669.35,1708.66 3697.56,1708.66L3780.67,1708.66L3827.58,1708.83L3916.87,1709.2L4006.16,1708.83L4053.06,1708.66L4136.17,1708.66C4164.38,1708.66 4191.44,1697.45 4211.39,1677.51C4231.34,1657.56 4242.54,1630.5 4242.54,1602.29Z" style="fill:rgb(105,105,105);"/>
                            </g>
                            <g transform="matrix(1,0,0,1,-2664.4,779.481)">
                                <path d="M3577.35,1602.29L3577.35,427.412C3577.35,395.528 3590.01,364.95 3612.56,342.404C3635.1,319.859 3665.68,307.193 3697.56,307.193L4136.17,307.193C4168.05,307.193 4198.63,319.859 4221.18,342.404C4243.72,364.95 4256.39,395.528 4256.39,427.412L4256.39,1602.29C4256.39,1634.17 4243.72,1664.75 4221.18,1687.3C4198.63,1709.84 4168.05,1722.51 4136.17,1722.51L3697.56,1722.51C3665.68,1722.51 3635.1,1709.84 3612.56,1687.3C3590.01,1664.75 3577.35,1634.17 3577.35,1602.29ZM3586.51,1602.29C3586.51,1631.74 3598.21,1659.99 3619.04,1680.82C3639.86,1701.64 3668.11,1713.34 3697.56,1713.34L4136.17,1713.34C4165.62,1713.34 4193.87,1701.64 4214.7,1680.82C4235.52,1659.99 4247.22,1631.74 4247.22,1602.29L4247.22,427.412C4247.22,397.959 4235.52,369.712 4214.7,348.886C4193.87,328.06 4165.62,316.36 4136.17,316.36L3697.56,316.36C3668.11,316.36 3639.86,328.06 3619.04,348.886C3598.21,369.712 3586.51,397.959 3586.51,427.412L3586.51,1602.29Z" style="fill:rgb(164,164,163);"/>
                            </g>
                            <g transform="matrix(1,0,0,1,-2664.4,779.481)">
                                <path d="M3586.51,1602.29L3586.51,427.412C3586.51,397.959 3598.21,369.712 3619.04,348.886C3639.86,328.06 3668.11,316.36 3697.56,316.36L4136.17,316.36C4165.62,316.36 4193.87,328.06 4214.7,348.886C4235.52,369.712 4247.22,397.959 4247.22,427.412L4247.22,1602.29C4247.22,1631.74 4235.52,1659.99 4214.7,1680.82C4193.87,1701.64 4165.62,1713.34 4136.17,1713.34L3697.56,1713.34C3668.11,1713.34 3639.86,1701.64 3619.04,1680.82C3598.21,1659.99 3586.51,1631.74 3586.51,1602.29ZM4246.7,1602.29L4246.7,427.412C4246.7,398.098 4235.05,369.984 4214.33,349.256C4193.6,328.528 4165.48,316.883 4136.17,316.883L3697.56,316.883C3668.25,316.883 3640.14,328.528 3619.41,349.256C3598.68,369.984 3587.03,398.098 3587.03,427.412L3587.03,1602.29C3587.03,1631.6 3598.68,1659.72 3619.41,1680.45C3640.14,1701.17 3668.25,1712.82 3697.56,1712.82L4136.17,1712.82C4165.48,1712.82 4193.6,1701.17 4214.33,1680.45C4235.05,1659.72 4246.7,1631.6 4246.7,1602.29Z" style="fill:rgb(105,105,105);"/>
                            </g>
                            <g transform="matrix(1,0,0,1,-2664.4,779.481)">
                                <path d="M4046.13,316.883L3787.6,316.883L3797.73,321L3916.87,320.502L4036,321L4046.13,316.883Z"/>
                            </g>
                            <g id="icon2" serif:id="icon">
                                <g id="icon3" serif:id="icon" transform="matrix(1.90476,0,0,1.0101,0.599715,779.194)">
                                    <g transform="matrix(0.525,0,0,0.99,-4.81081,-42.2657)">
                                        <path d="M1423.42,415.696C1423.42,414.547 1424.36,413.613 1425.51,413.613C1426.66,413.613 1427.59,414.547 1427.59,415.696L1427.59,431.634C1427.59,432.784 1426.66,433.718 1425.51,433.718C1424.36,433.718 1423.42,432.784 1423.42,431.634L1423.42,415.696ZM1415.33,419.63C1415.33,418.48 1416.27,417.547 1417.41,417.547C1418.57,417.547 1419.5,418.48 1419.5,419.63L1419.5,431.634C1419.5,432.784 1418.57,433.718 1417.41,433.718C1416.27,433.718 1415.33,432.784 1415.33,431.634L1415.33,419.63ZM1407.24,423.665C1407.24,422.516 1408.17,421.582 1409.32,421.582C1410.47,421.582 1411.4,422.516 1411.4,423.665L1411.4,431.634C1411.4,432.784 1410.47,433.718 1409.32,433.718C1408.17,433.718 1407.24,432.784 1407.24,431.634L1407.24,423.665ZM1399.14,427.707C1399.14,426.557 1400.08,425.624 1401.23,425.624C1402.38,425.624 1403.31,426.557 1403.31,427.707L1403.31,431.634C1403.31,432.784 1402.38,433.718 1401.23,433.718C1400.08,433.718 1399.14,432.784 1399.14,431.634L1399.14,427.707Z"/>
                                    </g>
                                    <g id="wifi" transform="matrix(0.525,0,0,0.99,0,1.33669)">
                                        <path d="M1448.7,384.004C1447.77,382.938 1443.82,378.938 1438.89,384.004C1438.66,384.238 1438.38,384.419 1438.06,384.442C1437.73,384.465 1437.41,384.349 1437.17,384.123C1436.73,383.723 1436.22,383.239 1435.81,382.849C1435.36,382.419 1435.32,381.715 1435.72,381.237C1436.37,380.488 1437.18,379.671 1438.26,379.004C1443.69,375.643 1447.94,378.069 1449.34,379.004C1450.39,379.709 1451.22,380.488 1451.87,381.237C1452.27,381.715 1452.23,382.419 1451.78,382.849C1451.37,383.239 1450.86,383.723 1450.42,384.123C1450.18,384.349 1449.86,384.465 1449.53,384.442C1449.21,384.419 1448.91,384.26 1448.7,384.004ZM1443.8,389.433C1443.04,389.433 1442.47,388.402 1441.53,387.6C1441.27,387.379 1441.12,387.057 1441.11,386.717C1441.11,386.376 1441.26,386.058 1441.51,385.823C1443.03,384.363 1444.56,384.363 1446.09,385.823C1446.33,386.058 1446.48,386.376 1446.48,386.717C1446.47,387.057 1446.32,387.379 1446.06,387.6C1445.12,388.402 1444.55,389.433 1443.8,389.433ZM1449.75,375.598C1448.35,374.881 1443.85,372.858 1438,375.53C1437.94,375.557 1437.89,375.575 1437.84,375.598C1435.73,376.679 1434.89,378.436 1434.21,379.046C1434.09,379.156 1433.93,379.22 1433.77,379.258C1433.45,379.332 1433.11,379.268 1432.84,379.082C1432.48,378.847 1432.08,378.576 1431.71,378.322L1431.16,377.789C1430.93,377.576 1430.81,377.291 1430.79,376.999C1430.8,376.814 1430.86,376.629 1430.96,376.459C1431.48,375.617 1432.18,374.718 1433.11,373.856C1433.92,373.106 1434.91,372.376 1436.13,371.743C1436.77,371.431 1437.5,371.206 1438.25,370.914C1444,368.689 1447.79,370.443 1449.34,370.914C1450.11,371.149 1450.82,371.431 1451.46,371.743C1452.68,372.376 1453.67,373.106 1454.48,373.856C1455.41,374.718 1456.11,375.617 1456.63,376.459C1456.73,376.629 1456.79,376.814 1456.8,376.999C1456.78,377.291 1456.66,377.576 1456.43,377.789L1455.88,378.322C1455.51,378.576 1455.11,378.847 1454.75,379.082C1454.48,379.268 1454.14,379.332 1453.82,379.258C1453.66,379.22 1453.5,379.156 1453.38,379.046C1452.69,378.436 1451.86,376.679 1449.75,375.598Z"/>
                                        <path d="M1448.7,384.004C1447.77,382.938 1443.82,378.938 1438.89,384.004C1438.66,384.238 1438.38,384.419 1438.06,384.442C1437.73,384.465 1437.41,384.349 1437.17,384.123C1436.73,383.723 1436.22,383.239 1435.81,382.849C1435.36,382.419 1435.32,381.715 1435.72,381.237C1436.37,380.488 1437.18,379.671 1438.26,379.004C1443.69,375.643 1447.94,378.069 1449.34,379.004C1450.39,379.709 1451.22,380.488 1451.87,381.237C1452.27,381.715 1452.23,382.419 1451.78,382.849C1451.37,383.239 1450.86,383.723 1450.42,384.123C1450.18,384.349 1449.86,384.465 1449.53,384.442C1449.21,384.419 1448.91,384.26 1448.7,384.004ZM1449.75,375.598C1448.35,374.881 1443.85,372.858 1438,375.53C1437.94,375.557 1437.89,375.575 1437.84,375.598C1435.73,376.679 1434.89,378.436 1434.21,379.046C1434.09,379.156 1433.93,379.22 1433.77,379.258C1433.45,379.332 1433.11,379.268 1432.84,379.082C1432.48,378.847 1432.08,378.576 1431.71,378.322L1431.16,377.789C1430.93,377.576 1430.81,377.291 1430.79,376.999C1430.8,376.814 1430.86,376.629 1430.96,376.459C1431.48,375.617 1432.18,374.718 1433.11,373.856C1433.92,373.106 1434.91,372.376 1436.13,371.743C1436.77,371.431 1437.5,371.206 1438.25,370.914C1444,368.689 1447.79,370.443 1449.34,370.914C1450.11,371.149 1450.82,371.431 1451.46,371.743C1452.68,372.376 1453.67,373.106 1454.48,373.856C1455.41,374.718 1456.11,375.617 1456.63,376.459C1456.73,376.629 1456.79,376.814 1456.8,376.999C1456.78,377.291 1456.66,377.576 1456.43,377.789L1455.88,378.322C1455.51,378.576 1455.11,378.847 1454.75,379.082C1454.48,379.268 1454.14,379.332 1453.82,379.258C1453.66,379.22 1453.5,379.156 1453.38,379.046C1452.69,378.436 1451.86,376.679 1449.75,375.598ZM1443.8,389.433C1443.04,389.433 1442.47,388.402 1441.53,387.6C1441.27,387.379 1441.12,387.057 1441.11,386.717C1441.11,386.376 1441.26,386.058 1441.51,385.823C1443.03,384.363 1444.56,384.363 1446.09,385.823C1446.33,386.058 1446.48,386.376 1446.48,386.717C1446.47,387.057 1446.32,387.379 1446.06,387.6C1445.12,388.402 1444.55,389.433 1443.8,389.433Z"/>
                                    </g>
                                    <g transform="matrix(2.24274,0,0,4.22917,771.31,367.224)">
                                        <path d="M8.542,-0C8.675,-0 8.802,0.053 8.896,0.147C8.99,0.241 9.043,0.368 9.043,0.501L9.043,4.2C9.043,4.332 8.99,4.46 8.896,4.554C8.802,4.647 8.675,4.7 8.542,4.7L0.501,4.7C0.368,4.7 0.241,4.647 0.147,4.554C0.053,4.46 0,4.332 0,4.2L0,0.501C0,0.368 0.053,0.241 0.147,0.147C0.241,0.053 0.368,-0 0.501,-0L8.542,-0ZM8.542,0.3L0.501,0.3C0.447,0.3 0.396,0.321 0.359,0.359C0.321,0.396 0.3,0.447 0.3,0.501L0.3,4.2C0.3,4.253 0.321,4.304 0.359,4.341C0.396,4.379 0.447,4.4 0.501,4.4L8.542,4.4C8.595,4.4 8.646,4.379 8.684,4.341C8.721,4.304 8.743,4.253 8.743,4.2L8.743,0.501C8.743,0.447 8.721,0.396 8.684,0.359C8.646,0.321 8.595,0.3 8.542,0.3ZM6.852,3.75C6.852,3.803 6.831,3.854 6.793,3.892C6.756,3.93 6.705,3.951 6.651,3.951L0.95,3.951C0.897,3.951 0.846,3.93 0.808,3.892C0.771,3.854 0.75,3.803 0.75,3.75L0.75,0.936C0.75,0.883 0.771,0.832 0.808,0.794C0.846,0.756 0.897,0.735 0.95,0.735L6.651,0.735C6.705,0.735 6.756,0.756 6.793,0.794C6.831,0.832 6.852,0.883 6.852,0.936L6.852,3.75ZM9.41,1.35L9.496,1.35C9.73,1.35 9.954,1.443 10.119,1.608C10.284,1.773 10.376,1.996 10.376,2.23L10.376,2.23C10.376,2.464 10.284,2.687 10.119,2.852C9.954,3.017 9.73,3.11 9.496,3.11L9.41,3.11L9.41,1.35Z"/>
                                    </g>
                                </g>
                                <g transform="matrix(0.543213,0,0,0.543213,456.465,928.53)">
                                    <g transform="matrix(50,0,0,50,1068.16,444.045)">
                                        <path d="M0.086,-0.15C0.086,-0.103 0.119,-0.069 0.168,-0.069C0.218,-0.069 0.25,-0.103 0.25,-0.15C0.25,-0.198 0.218,-0.231 0.168,-0.231C0.119,-0.231 0.086,-0.198 0.086,-0.15ZM0.086,-0.519C0.086,-0.471 0.119,-0.438 0.168,-0.438C0.218,-0.438 0.25,-0.471 0.25,-0.519C0.25,-0.566 0.218,-0.6 0.168,-0.6C0.119,-0.6 0.086,-0.566 0.086,-0.519Z" style="fill-rule:nonzero;"/>
                                    </g>
                                    <g transform="matrix(50,0,0,50,1068.16,444.045)">
                                    </g>
                                    <g transform="matrix(50,0,0,50,1143.14,444.045)">
                                    </g>
                                    <text x="1009.74px" y="444.045px" style="font-family:'SFUIText-Semibold', 'SF UI  Text';font-weight:600;font-size:50px;">14<tspan x="1084.98px " y="444.045px ">1</tspan>6</text>
                                </g>
                            </g>
                        </g>
                        <g id="botao5" serif:id="botao">
                            <g id="botao41" serif:id="botao4" transform="matrix(-0.920479,0,0,2.43199,2431.33,-1814.45)">
                                <path d="M912.945,1376.2L912.945,1440.62C912.945,1440.62 910.648,1442.41 909.381,1442.77C908.113,1443.13 905.34,1442.77 905.34,1442.77L905.34,1373.9C905.34,1373.9 908.113,1374.05 909.381,1374.05C910.554,1374.05 912.945,1376.2 912.945,1376.2Z" style="fill:rgb(180,180,180);"/>
                            </g>
                            <g id="botao31" serif:id="botao3" transform="matrix(0.920479,0,0,1.51303,74.2537,-453.157)">
                                <path d="M912.945,1376.2L912.945,1440.62C912.945,1440.62 910.648,1442.41 909.381,1442.77C908.113,1443.13 905.34,1442.77 905.34,1442.77L905.34,1373.9C905.34,1373.9 908.113,1374.05 909.381,1374.05C910.554,1374.05 912.945,1376.2 912.945,1376.2Z" style="fill:rgb(180,180,180);"/>
                            </g>
                            <g id="botao21" serif:id="botao2" transform="matrix(0.920479,0,0,1.51303,74.2537,-587.72)">
                                <path d="M912.945,1376.2L912.945,1440.62C912.945,1440.62 910.648,1442.41 909.381,1442.77C908.113,1443.13 905.34,1442.77 905.34,1442.77L905.34,1373.9C905.34,1373.9 908.113,1374.05 909.381,1374.05C910.554,1374.05 912.945,1376.2 912.945,1376.2Z" style="fill:rgb(180,180,180);"/>
                            </g>
                            <g id="botao11" serif:id="botao1" transform="matrix(0.920479,0,0,0.931304,74.2537,97.8213)">
                                <path d="M912.945,1376.2L912.945,1440.62C912.945,1440.62 910.648,1442.41 909.381,1442.77C908.113,1443.13 905.34,1442.77 905.34,1442.77L905.34,1373.9C905.34,1373.9 908.113,1374.05 909.381,1374.05C910.554,1374.05 912.945,1376.2 912.945,1376.2Z" style="fill:rgb(180,180,180);"/>
                            </g>
                        </g>
                        <g id="camera">
                            <g transform="matrix(1.28265,0,0,1.0386,-356.437,-45.8722)">
                                <path d="M1307.71,1134.02C1319.88,1134.02 1329.74,1146.19 1329.74,1161.21L1329.74,1161.22C1329.74,1176.24 1319.88,1188.41 1307.71,1188.41L1199.65,1188.41C1187.49,1188.41 1177.63,1176.24 1177.63,1161.22L1177.63,1161.21C1177.63,1146.19 1187.49,1134.02 1199.65,1134.02L1307.71,1134.02Z"/>
                            </g>
                            <g transform="matrix(0.81926,0,-1.96452e-18,1.0386,189.27,-45.8722)">
                                <path d="M1295.26,1134.02C1314.3,1134.02 1329.74,1146.19 1329.74,1161.21C1329.74,1161.22 1329.74,1161.22 1329.74,1161.22C1329.74,1176.24 1314.3,1188.41 1295.26,1188.41C1270.4,1188.41 1236.97,1188.41 1212.11,1188.41C1193.07,1188.41 1177.63,1176.24 1177.63,1161.22C1177.63,1161.22 1177.63,1161.22 1177.63,1161.21C1177.63,1146.19 1193.07,1134.02 1212.11,1134.02C1236.97,1134.02 1270.4,1134.02 1295.26,1134.02Z" style="fill:rgb(49,49,49);"/>
                            </g>
                            <g transform="matrix(0.659938,0,-1.58248e-18,0.683326,389.347,366.627)">
                                <path d="M1301.58,1134.02C1317.13,1134.02 1329.74,1146.19 1329.74,1161.21C1329.74,1161.22 1329.74,1161.22 1329.74,1161.22C1329.74,1176.24 1317.13,1188.41 1301.58,1188.41C1274.28,1188.41 1233.09,1188.41 1205.79,1188.41C1190.24,1188.41 1177.63,1176.24 1177.63,1161.22C1177.63,1161.22 1177.63,1161.22 1177.63,1161.21C1177.63,1146.19 1190.24,1134.02 1205.79,1134.02C1233.09,1134.02 1274.28,1134.02 1301.58,1134.02Z"/>
                            </g>
                            <g transform="matrix(1.23767,0,0,1.3026,-315.185,-353.887)">
                                <ellipse cx="1322.24" cy="1162.33" rx="22.502" ry="21.685" style="fill:rgb(34,34,34);"/>
                            </g>
                            <g transform="matrix(0.78477,0,0,0.823166,283.649,203.374)">
                                <ellipse cx="1322.24" cy="1162.33" rx="22.502" ry="21.685" style="fill:rgb(12,25,41);"/>
                            </g>
                            <g transform="matrix(0.674276,0,0,0.707266,429.748,338.088)">
                                <ellipse cx="1322.24" cy="1162.33" rx="22.502" ry="21.685" style="fill:rgb(41,46,60);"/>
                            </g>
                            <g transform="matrix(0.415003,0,0,0.435308,772.568,654.194)">
                                <ellipse cx="1322.24" cy="1162.33" rx="22.502" ry="21.685" style="fill:rgb(24,35,52);"/>
                            </g>
                            <g transform="matrix(0.255958,0,0,0.268481,982.863,848.103)">
                                <ellipse cx="1322.24" cy="1162.33" rx="22.502" ry="21.685" style="fill:rgb(46,26,66);"/>
                            </g>
                        </g>
                        <g id="antena3" serif:id="antena">
                            <g id="antena4" transform="matrix(0.946,0,0,1,86.5347,779.481)">
                                <path d="M1591.39,1563.35C1591.39,1563.35 1588.22,1564.86 1587.18,1565.35C1584.2,1566.75 1581.7,1565.53 1581.7,1565.53L1581.7,1579C1581.7,1579 1586.06,1579.73 1587.67,1579.11C1589.23,1578.52 1591.39,1575.31 1591.39,1575.31L1591.39,1563.35Z" style="fill:rgb(180,180,180);"/>
                            </g>
                            <g id="antena31" serif:id="antena3" transform="matrix(-0.946,0,0,1,2418.4,779.481)">
                                <path d="M1591.39,1563.35C1591.39,1563.35 1588.22,1564.86 1587.18,1565.35C1584.2,1566.75 1581.7,1565.53 1581.7,1565.53L1581.7,1579C1581.7,1579 1586.06,1579.73 1587.67,1579.11C1589.23,1578.52 1591.39,1575.31 1591.39,1575.31L1591.39,1563.35Z" style="fill:rgb(180,180,180);"/>
                            </g>
                            <g id="antena21" serif:id="antena2" transform="matrix(0.946,0,0,1,86.5347,779.481)">
                                <path d="M1591.39,449C1591.39,449 1589.29,450.751 1588,451C1586.38,451.312 1581.7,450.872 1581.7,450.872L1581.7,464.604C1581.7,464.604 1585.38,465.434 1587,465C1588.62,464.566 1591.39,462 1591.39,462L1591.39,449Z" style="fill:rgb(180,180,180);"/>
                            </g>
                            <g id="antena11" serif:id="antena1" transform="matrix(-0.946,0,0,1,2418.4,779.481)">
                                <path d="M1591.39,449C1591.39,449 1589.29,450.751 1588,451C1586.38,451.312 1581.7,450.872 1581.7,450.872L1581.7,464.604C1581.7,464.604 1585.38,465.434 1587,465C1588.62,464.566 1591.39,462 1591.39,462L1591.39,449Z" style="fill:rgb(180,180,180);"/>
                            </g>
                        </g>
                    </g>
                </g>
                <g id="iPhone1" transform="matrix(-1,0,0,0.970348,7434.12,0)">
                    <g>
                        <g id="base2" serif:id="base">
                            <g>
                                <g transform="matrix(1,0,0,1.03056,-2665,-1.17161e-13)">
                                    <path d="M4834.86,1571.52L4835,1588C4835.11,1594.06 4835.24,1601.47 4835,1609.68C4834.16,1638.41 4828.8,1676.96 4802.02,1702C4783.6,1719.22 4760.7,1723.94 4742.32,1725C4734.02,1725.48 4726.64,1725.21 4721.02,1725L4452,1725C4447.86,1724.81 4442.72,1725.57 4436.99,1725C4418.8,1723.18 4394.58,1717.96 4377,1700C4340.79,1663.02 4338.94,1613.67 4338.02,1589L4338.02,441C4338.37,416.409 4339.07,367.228 4365,337C4381.22,318.09 4434.11,298.736 4468,306L4742.38,384.903C4782.91,393.872 4809,419 4821.63,451.703C4813.96,433.287 4797.07,405.104 4750.92,391.985C4734.78,387.398 4721.88,383.755 4711.26,380.773C4643.58,361.776 4668.3,369.637 4536.83,331.523C4530.2,329.603 4523.19,327.566 4515.74,325.404C4490.72,318.139 4473.23,312.512 4459.16,312.953C4432.46,313.79 4420.74,328.683 4411.71,340.884C4393.43,365.598 4396.33,426.964 4396.02,451.143L4396.02,1581.82C4396.45,1606.16 4396.34,1620.06 4399.59,1638.18C4415,1724.11 4484,1714.1 4496.63,1715.74L4734.09,1715.74C4773,1716 4789.34,1710.04 4805.59,1693.09C4829.23,1668.43 4833.97,1630.47 4834.7,1602.18C4834.92,1594.1 4834.86,1580.83 4834.86,1580.83L4834.86,1571.52Z" style="fill:rgb(164,164,163);"/>
                                </g>
                                <g transform="matrix(1,0,0,1.03056,-2665,-1.17161e-13)">
                                    <path d="M4828.06,1014.85L4828.07,1014.85L4828.06,921L4828.06,1014.85ZM4821.63,451.703C4822.69,454.249 4823.58,456.608 4824.34,458.715C4835,488.25 4834.7,519.998 4834.7,519.998L4834.76,921L4834.78,1562L4834.86,1571.52L4834.86,1580.83C4834.86,1580.83 4834.92,1594.1 4834.7,1602.18C4833.97,1630.47 4829.23,1668.43 4805.59,1693.09C4789.34,1710.04 4773,1716 4734.09,1715.74L4496.63,1715.74C4484,1714.1 4415,1724.11 4399.59,1638.18C4396.34,1620.06 4396.45,1606.16 4396.02,1581.82L4396.02,451.143C4396.33,426.964 4393.43,365.598 4411.71,340.884C4420.74,328.683 4432.46,313.79 4459.16,312.953C4473.23,312.512 4490.72,318.139 4515.74,325.404C4523.19,327.566 4530.2,329.603 4536.83,331.523C4536.83,331.523 4543.07,335.646 4544.53,336.576C4544.87,336.791 4545.61,337.106 4545.61,337.106L4703.18,381.736C4703.18,381.736 4704.12,381.889 4704.6,381.833C4705.94,381.673 4711.26,380.773 4711.26,380.773C4721.88,383.755 4734.78,387.398 4750.92,391.985C4797.07,405.104 4813.96,433.287 4821.63,451.703Z" style="fill:rgb(105,105,105);"/>
                                </g>
                                <g transform="matrix(1,0,0,1.03056,-2665,-1.17161e-13)">
                                    <path d="M4825.77,1014.85L4825.78,1014.85L4825.77,921L4825.77,1014.85ZM4828.07,1562L4828.15,1562L4828.15,1568.56C4828.15,1568.83 4828.2,1581.94 4828,1589.53C4827.65,1603.48 4826.91,1620.46 4824.79,1637.19C4820,1675 4796.82,1707.99 4751.77,1707.77C4744.59,1707.73 4738.24,1707.97 4733.38,1707.77L4501.33,1707.77C4489,1706 4398,1724 4403,1575.18L4403,455.972C4403.14,445.608 4402.43,407.608 4403.98,390.656C4405.12,378.189 4407.21,365.322 4412.31,354.255C4421.85,333.51 4439.47,318.332 4464.71,318.953C4478.46,319.291 4530.7,335.147 4537,337C4537,337 4540.9,339.906 4543,341C4545.1,342.094 4548.85,343.355 4549.58,343.564L4703.01,388.092C4705.11,388.535 4707.34,388.272 4708.05,388.11C4709.62,387.751 4712.6,386.816 4712.7,386.843C4715.91,387.651 4725.2,390.212 4749.83,397.315C4775.86,404.822 4794.82,420.938 4805.72,438.913C4813.22,450.053 4816.92,460.998 4819.01,467.185C4828.61,495.567 4828.03,528.923 4828,530.038L4828.06,921L4828.07,1562Z"/>
                                </g>
                                <g transform="matrix(1,0,0,1.03056,-2665,-1.17161e-13)">
                                    <path d="M4408.02,462.485C4408.21,447.308 4407.35,408.073 4409.5,389.719C4411.04,376.636 4414.68,361.082 4420.95,352.357C4429.54,340.391 4438.69,328.774 4464.11,327.953C4477.5,327.52 4498.19,332.042 4522.01,339.167C4691.96,390.002 4627.75,369.864 4745.94,404.467C4761.79,409.109 4775.22,413.481 4784.99,420.552C4806.05,435.789 4813.51,458.06 4816.84,467.919C4826.48,496.426 4825.71,530.015 4825.71,530.015L4825.77,921L4825.78,1562L4825.71,1562L4825.71,1568.56C4825.8,1574.41 4825.91,1581.55 4825.71,1589.47C4825.01,1617.17 4825.5,1657.35 4802.99,1681.49C4787.52,1698.1 4772.6,1700.77 4748.82,1700.67C4741.83,1700.64 4734.64,1700.87 4729.91,1700.67L4503.82,1700.67C4497.9,1700.68 4488.69,1700.83 4483.03,1700.66C4458.57,1699.94 4443.23,1689.91 4432.15,1677.26C4406.15,1647.58 4408.63,1597.77 4408.02,1579.02C4407.86,1574.29 4408.02,1562.05 4408.02,1562.05L4408.02,462.485Z" style="fill:white;"/>
                                </g>
                                <g transform="matrix(1,0,0,1.03056,-2665,-1.17161e-13)">
                                    <path d="M4711.26,380.773C4711.26,380.773 4705.94,381.673 4704.6,381.833C4704.12,381.889 4703.18,381.736 4703.18,381.736L4545.61,337.106C4545.61,337.106 4544.87,336.791 4544.53,336.576C4543.07,335.646 4536.83,331.523 4536.83,331.523C4668.3,369.637 4643.58,361.776 4711.26,380.773Z"/>
                                </g>
                                <g id="icon4" serif:id="icon" transform="matrix(-1,0,0,1.03056,3311.93,-801.943)">
                                    <g transform="matrix(1.90476,0,0,1.0101,0.599715,779.194)">
                                        <g transform="matrix(0.525,0,0,0.99,-4.81081,-42.2657)">
                                            <path d="M1471,420.031C1471,418.814 1471.82,417.719 1472.42,417.547C1472.93,417.4 1473.84,417.883 1473.84,419.216L1473.84,435.112C1473.84,436.33 1473.02,437.422 1472.42,437.592C1471.91,437.736 1471,437.249 1471,435.917L1471,420.031ZM1465.5,425.528C1465.5,424.313 1466.32,423.219 1466.91,423.048C1467.42,422.903 1468.33,423.385 1468.33,424.717L1468.33,436.675C1468.33,437.892 1467.51,438.982 1466.91,439.152C1466.41,439.295 1465.5,438.809 1465.5,437.479L1465.5,425.528ZM1460,431.114C1460,429.9 1460.82,428.809 1461.41,428.638C1461.92,428.494 1462.83,428.977 1462.83,430.307L1462.83,438.236C1462.83,439.451 1462.01,440.54 1461.41,440.709C1460.91,440.853 1460,440.368 1460,439.038L1460,431.114ZM1454.51,436.695C1454.51,435.481 1455.33,434.393 1455.92,434.223C1456.43,434.079 1457.33,434.562 1457.33,435.891L1457.33,439.794C1457.33,441.008 1456.52,442.096 1455.92,442.264C1455.42,442.407 1454.51,441.923 1454.51,440.595L1454.51,436.695Z"/>
                                        </g>
                                        <g transform="matrix(0.525,0,0,0.99,0,1.33669)">
                                            <path d="M1485.37,381.606C1482.19,377.193 1478.92,383.03 1478.65,383.518L1478.08,384.118C1478.04,384.135 1477.73,384.253 1477.48,383.97L1476.55,382.961C1476,382.354 1476.43,381.482 1476.49,381.367L1478.22,378.639C1478.62,378.156 1482.16,373.948 1485.81,376.473C1485.97,376.585 1486.78,377.146 1487.55,378.215C1488.03,378.927 1487.55,379.736 1487.48,379.848L1486.55,381.391L1485.94,381.883C1485.89,381.892 1485.59,381.947 1485.37,381.606ZM1482.01,387.998C1481.87,388.038 1481.92,388.015 1480.46,386.602L1480.17,385.799L1480.44,384.828C1480.58,384.604 1482.01,382.195 1483.58,383.937L1483.85,384.756L1483.57,385.721C1482.08,387.996 1482.15,387.957 1482.01,387.998ZM1486.09,372.98C1485.49,372.699 1482.25,371.201 1478.05,375.214L1477.94,375.314C1477.67,375.592 1477.85,375.645 1475.46,379.47L1475.15,379.769C1474.81,379.982 1474.56,379.803 1474.52,379.773L1473.75,379.235L1473.37,378.811L1473.12,378.093L1473.23,377.521L1474.7,374.498L1476.77,371.792L1478.22,370.547C1482.07,367.257 1485.3,368.286 1485.81,368.366L1487.26,368.78C1487.45,368.868 1488.42,369.324 1489.34,370.304L1490.82,372.491L1490.93,373L1490.68,373.864L1490.3,374.508L1489.52,375.491L1488.89,375.849L1488.58,375.724C1488.03,375.164 1487.74,374.395 1487.21,373.816C1486.9,373.47 1486.52,373.176 1486.09,372.98Z"/>
                                            <path d="M1482.01,387.998C1481.87,388.038 1481.92,388.015 1480.46,386.602L1480.17,385.799L1480.44,384.828C1480.58,384.604 1482.01,382.195 1483.58,383.937L1483.85,384.756L1483.57,385.721C1482.08,387.996 1482.15,387.957 1482.01,387.998ZM1481.67,385.521L1481.72,385.61C1481.92,385.827 1482.16,385.8 1482.34,385.807C1482.4,385.81 1482.48,385.799 1482.56,385.782L1482.56,385.623C1482.42,385.57 1482.3,385.53 1482.23,385.522C1482.04,385.501 1481.86,385.497 1481.67,385.521ZM1486.09,372.98C1485.49,372.699 1482.25,371.201 1478.05,375.214L1477.94,375.314C1477.67,375.592 1477.85,375.645 1475.46,379.47L1475.15,379.769C1474.81,379.982 1474.56,379.803 1474.52,379.773L1473.75,379.235L1473.37,378.811L1473.12,378.093L1473.23,377.521L1474.7,374.498L1476.77,371.792L1478.22,370.547C1482.07,367.257 1485.3,368.286 1485.81,368.366L1487.26,368.78C1487.45,368.868 1488.42,369.324 1489.34,370.304L1490.82,372.491L1490.93,373L1490.68,373.864L1490.3,374.508L1489.52,375.491L1488.89,375.849L1488.58,375.724C1488.03,375.164 1487.74,374.395 1487.21,373.816C1486.9,373.47 1486.52,373.176 1486.09,372.98ZM1476.21,377.118L1476.22,377.134C1476.25,377.099 1476.28,377.064 1476.31,377.031L1476.32,377.019L1476.27,376.978L1476.21,377.118ZM1476.14,373.577C1475.9,373.823 1475.72,374.109 1475.6,374.415C1475.95,373.817 1475.99,373.734 1476.14,373.577ZM1485.37,381.606C1482.19,377.193 1478.92,383.03 1478.65,383.518L1478.08,384.118C1478.04,384.135 1477.73,384.253 1477.48,383.97L1476.55,382.961C1476,382.354 1476.43,381.482 1476.49,381.367L1478.22,378.639C1478.62,378.156 1482.16,373.948 1485.81,376.473C1485.97,376.585 1486.78,377.146 1487.55,378.215C1488.03,378.927 1487.55,379.736 1487.48,379.848L1486.55,381.391L1485.94,381.883C1485.89,381.892 1485.59,381.947 1485.37,381.606Z"/>
                                        </g>
                                        <g transform="matrix(2.24274,0,0,4.22917,771.31,367.224)">
                                            <path d="M12.985,-3.21L13.231,-3.132L13.332,-2.803L13.332,0.935L13.231,1.321L12.985,1.539L7.43,3.112L7.186,3.034L7.085,2.707L7.085,-1.01L7.186,-1.395L7.43,-1.612L12.985,-3.21ZM12.985,-2.907L7.43,-1.311L7.332,-1.224L7.292,-1.07L7.292,2.648L7.332,2.779L7.43,2.811L12.985,1.236L13.084,1.149L13.124,0.994L13.124,-2.744L13.084,-2.875L12.985,-2.907ZM11.815,0.911L11.774,1.066L11.676,1.153L7.739,2.271L7.642,2.239L7.601,2.108L7.601,-0.721L7.642,-0.875L7.739,-0.962L11.676,-2.091L11.774,-2.06L11.815,-1.929L11.815,0.911ZM13.588,-2.018L13.647,-2.035L14.079,-1.898L14.258,-1.32L14.258,-1.32L14.079,-0.639L13.647,-0.256L13.588,-0.239L13.588,-2.018Z"/>
                                        </g>
                                    </g>
                                    <g transform="matrix(0.543213,0,0,0.543213,456.465,928.53)">
                                        <path d="M1365.71,589.635L1369.68,588.512L1369.68,555.394L1365.73,556.529L1359.94,564.244L1359.94,569.929L1365.45,562.572L1365.71,562.498L1365.71,589.635Z"/>
                                        <path d="M1386.29,583.806L1390.1,582.727L1390.1,576.538L1393.11,575.683L1393.11,570.665L1390.1,571.522L1390.1,549.525L1384.48,551.138C1378.13,567.233 1376.08,573.453 1375.43,575.422L1375.43,580.704L1386.29,577.62L1386.29,583.806ZM1379.11,574.443C1382.52,564.488 1385.53,556.994 1386.13,555.493L1386.35,555.432L1386.35,572.726L1379.11,574.788L1379.11,574.443Z"/>
                                        <path d="M1397.62,573.504C1397.62,573.827 1397.62,577.327 1400.21,576.591C1402.79,575.859 1402.79,572.452 1402.79,572.033C1402.79,571.712 1402.79,568.231 1400.21,568.965C1397.62,569.704 1397.62,573.086 1397.62,573.504ZM1397.62,556.139C1397.62,556.46 1397.62,559.939 1400.21,559.197C1402.79,558.459 1402.79,555.075 1402.79,554.657C1402.79,554.335 1402.79,550.831 1400.21,551.571C1397.62,552.316 1397.62,555.719 1397.62,556.139Z"/>
                                        <path d="M1413.25,576.168L1417.25,575.036L1417.25,541.721L1413.27,542.866L1407.43,550.63L1407.43,556.349L1412.99,548.945L1413.25,548.87L1413.25,576.168Z"/>
                                        <path d="M1432.18,571.617C1436.63,570.356 1440.51,564.701 1440.51,557.518C1440.51,550.483 1436.77,547.474 1433.13,548.517C1428.98,549.702 1427.52,554.495 1427.32,555.171L1427.05,555.246C1427.05,554.075 1427.05,543.065 1432.27,541.567C1435.38,540.676 1436.11,544.155 1436.19,544.54L1440.2,543.391C1439.48,537.71 1435.91,535.525 1432.3,536.562C1423.22,539.174 1423.22,555.242 1423.22,557.033C1423.22,557.85 1423.22,563.418 1424.8,567.119C1426.64,571.874 1430.01,572.23 1432.18,571.617ZM1432.13,566.657C1430.12,567.227 1427.72,565.472 1427.72,561.251C1427.72,557.525 1429.94,554.167 1432.16,553.534C1434.12,552.974 1436.58,554.445 1436.58,558.823C1436.58,562.515 1434.34,566.031 1432.13,566.657Z"/>
                                    </g>
                                </g>
                            </g>
                        </g>
                        <g id="cametra1" serif:id="cametra" transform="matrix(-1,0,0,-1,3919.38,862.745)">
                            <g>
                                <g transform="matrix(1,0,0,1.03056,-4.54747e-13,0)">
                                    <path d="M2000.82,456.902L2000.56,456.825L1914.88,433.281C1914.88,433.281 1913.6,432.918 1913.14,432.729C1909.51,431.221 1891.89,422.723 1896,395C1898.81,376.011 1912.69,378.869 1916.13,379.791C1916.58,379.912 1917.66,380.241 1917.66,380.241L1999,403L2008,406C2008.41,406.137 2008.84,406.308 2009.29,406.514C2010.2,406.956 2011.09,407.478 2011.94,408.074C2014.58,409.949 2017.39,412.93 2019.63,417.187C2022.4,422.511 2024.01,429.286 2024,437L2024,437.008C2023.96,461.826 2006.19,458.395 2002.05,457.259C2001.68,457.159 2001.13,456.997 2000.82,456.902ZM1958.1,393.718L1917.1,382.247L1917.06,382.234C1917.06,382.234 1916.02,381.919 1915.59,381.803C1913.8,381.323 1908.73,380.155 1904.44,382.927C1901.51,384.821 1899.06,388.541 1898.06,395.305C1896.5,405.82 1898.19,413.425 1901.06,418.849C1905.25,426.791 1911.92,429.967 1913.94,430.805C1914.31,430.957 1915.3,431.235 1915.43,431.273L1955.36,442.244C1956.12,442.506 1956.91,442.725 1957.72,442.893L2001.11,454.817L2001.16,454.831L2001.26,454.862C2005.95,456.498 2012.05,456.751 2016.17,453.571C2019.52,450.996 2021.91,446.015 2021.92,437.006L2021.92,436.997C2021.93,430.65 2020.86,425.448 2019.22,421.28C2016.31,413.721 2011.23,408.564 2005,407.196L1998.39,404.993L1960.77,394.467C1959.91,394.135 1959.01,393.884 1958.1,393.718Z"/>
                                </g>
                                <g transform="matrix(1,0,0,1.03056,-4.54747e-13,0)">
                                    <path d="M1958.1,393.718C1959.01,393.884 1959.91,394.135 1960.77,394.467L1998.39,404.993L2005,407.196C2011.23,408.564 2016.31,413.721 2019.22,421.28C2020.86,425.448 2021.93,430.65 2021.92,436.997L2021.92,437.006C2021.91,446.015 2019.52,450.996 2016.17,453.571C2012.05,456.751 2005.95,456.498 2001.26,454.862L2001.16,454.831L2001.11,454.817L1957.72,442.893C1956.91,442.725 1956.12,442.506 1955.36,442.244L1915.43,431.273C1915.3,431.235 1914.31,430.957 1913.94,430.805C1911.92,429.967 1905.25,426.791 1901.06,418.849C1898.19,413.425 1896.5,405.82 1898.06,395.305C1899.06,388.541 1901.51,384.821 1904.44,382.927C1908.73,380.155 1913.8,381.323 1915.59,381.803C1916.02,381.919 1917.06,382.234 1917.06,382.234L1917.1,382.247L1958.1,393.718Z"/>
                                </g>
                                <g transform="matrix(1,0,0,1.03056,-4.54747e-13,0)">
                                    <path d="M1957.72,442.893C1956.91,442.725 1956.12,442.506 1955.36,442.244L1915.43,431.273C1915.3,431.235 1914.31,430.957 1913.94,430.805C1911.92,429.967 1905.25,426.791 1901.06,418.849C1898.19,413.425 1896.5,405.82 1898.06,395.305C1899.06,388.541 1901.51,384.821 1904.44,382.927C1908.73,380.155 1913.8,381.323 1915.59,381.803C1916.02,381.919 1917.06,382.234 1917.06,382.234L1917.1,382.247L1958.1,393.718C1959.01,393.884 1959.91,394.135 1960.77,394.467L1967.63,396.384C1967.73,396.482 1967.84,396.581 1967.94,396.681C1973.75,402.269 1977.53,412.086 1977.52,423.94C1977.52,433.939 1974.63,439.332 1971,442.256C1969.3,443.627 1967.31,444.496 1965.2,444.949L1957.72,442.893Z" style="fill:rgb(41,41,41);"/>
                                </g>
                                <g transform="matrix(1,0,0,0.995066,-4.54747e-13,15.4393)">
                                    <path d="M1916.93,390.974C1924.75,392.983 1957.19,403.078 1957.19,403.078C1959.61,403.72 1962.77,405.589 1964.7,408.572C1967.19,412.41 1968.08,416.976 1968.08,422.866C1968.08,428.291 1964.99,432.463 1963.82,433.404C1963.01,434.049 1961.67,434.9 1957.63,433.889C1957.63,433.889 1926.12,426.099 1917.83,422.92C1913.82,421.381 1910.6,420.364 1907.92,414.814C1905.83,410.493 1904.3,404.577 1906.3,396.525C1907.14,393.16 1908.66,391.874 1910.22,391.024C1912.03,390.039 1914.76,390.418 1916.93,390.974Z"/>
                                </g>
                                <g transform="matrix(0.962195,0,0,1.03056,76.4376,0)">
                                    <path d="M2021.92,436.997L2021.92,437.006C2021.9,445.995 2019.51,450.96 2016.17,453.534C2011.31,457.29 2004.79,455.85 2002.6,455.25C2002.18,455.135 2001.52,454.938 2001.26,454.862C2000.43,454.572 1999.65,454.239 1998.92,453.874C1992.75,450.758 1988.92,443.122 1987,436.007C1985.73,431.3 1985.65,424.624 1987.21,418.56C1988.6,413.163 1993.89,407.599 1999.77,406.939C2001.58,406.735 2003.33,406.83 2005,407.196L2007.34,407.976C2011,409.195 2016.13,413.379 2019.22,421.28C2020.95,425.769 2021.92,431.105 2021.92,436.997Z" style="fill:rgb(38,38,38);"/>
                                </g>
                                <g transform="matrix(-0.568691,0,0,-0.650932,3144.48,725.476)">
                                    <path d="M2021.92,436.997L2021.92,437.006C2021.9,445.995 2019.51,450.96 2016.17,453.534C2011.31,457.29 2005.13,456.749 2001,454.721C1996.65,452.583 1990.82,447.96 1987,436.007C1985.41,431.05 1985.65,424.624 1987.21,418.56C1988.6,413.163 1993.89,407.599 1999.77,406.939C2001.58,406.735 2003.33,406.83 2005,407.196L2007.34,407.976C2011,409.195 2016.13,413.379 2019.22,421.28C2020.95,425.769 2021.92,431.105 2021.92,436.997Z" style="fill:rgb(39,55,64);"/>
                                </g>
                                <g transform="matrix(-0.286229,0,0,-0.325868,2579.61,584.004)">
                                    <path d="M2019.22,421.28C2025.2,437.905 2021.39,448.998 2016.17,453.534C2011.58,457.532 2006.37,456.546 2002.6,455.25C1996,452.986 1989.26,442.492 1987.65,436.058C1985.97,429.331 1985.89,424.067 1987.21,418.56C1988.51,413.14 1993.86,407.349 1999.77,406.939C2007.36,406.412 2015.87,411.953 2019.22,421.28Z" style="fill:rgb(28,76,101);"/>
                                </g>
                            </g>
                        </g>
                        <g id="antena5" serif:id="antena">
                            <g id="antena22" serif:id="antena2" transform="matrix(1,0,0,1.03056,-4.54747e-13,0)">
                                <path d="M1673.02,1562C1673.02,1562 1706.33,1561.05 1716,1561C1724.01,1560.96 1731.02,1561.07 1731.02,1561.07L1731.02,1575.38L1673.02,1576L1673.02,1562Z" style="fill:rgb(180,180,180);"/>
                            </g>
                            <g id="antena12" serif:id="antena1" transform="matrix(1,0,0,1.03056,-4.54747e-13,0)">
                                <path d="M1673.03,439.894C1673.03,439.894 1703.43,431.378 1713,429C1721.89,426.792 1731.01,429 1731.01,429L1731.01,443C1731.01,443 1722.31,441.776 1716,443C1710.35,444.096 1673.02,454.807 1673.02,454.807L1673.03,439.894Z" style="fill:rgb(180,180,180);"/>
                            </g>
                        </g>
                        <g id="botao6" serif:id="botao">
                            <g id="botao22" serif:id="botao2" transform="matrix(0.809524,0,0,2.34331,323.762,-216.331)">
                                <g>
                                    <g transform="matrix(1.65534,0,0,1.24003,-1111.05,-122.105)">
                                        <path d="M1696.43,578C1701.16,578 1705,579.823 1705,582.073L1705,635.927C1705,638.177 1701.16,640 1696.43,640L1692.57,640C1687.84,640 1684,638.177 1684,635.927L1684,582.073C1684,579.823 1687.84,578 1692.57,578L1696.43,578Z" style="fill:rgb(181,181,179);"/>
                                    </g>
                                    <g transform="matrix(1.24525,0,0,1.18152,-414.157,-86.8692)">
                                        <path d="M1694.5,578C1700.3,578.382 1703.84,579.933 1703.84,581.847C1703.84,592.714 1704.98,624.522 1704.98,635.389C1704.98,637.303 1700.3,640 1694.5,640L1694.5,640C1688.7,640 1684,637.704 1684,635.791C1684,624.924 1684,593.449 1684,582.581C1684,580.668 1688.7,578 1694.5,578C1694.5,578 1694.5,578 1694.5,578Z" style="fill:rgb(115,115,111);"/>
                                    </g>
                                    <g transform="matrix(1.06692,0,0,1.15104,-111.373,-68.2403)">
                                        <path d="M1694.5,578C1700.3,578.382 1703.84,579.933 1703.84,581.847C1703.84,592.714 1704.98,624.522 1704.98,635.389C1704.98,637.303 1700.3,640 1694.5,640L1694.5,640C1688.7,640 1684,638.449 1684,636.535C1684,625.668 1684,593.096 1684,582.229C1684,580.315 1688.7,578 1694.5,578C1694.5,578 1694.5,578 1694.5,578Z" style="fill:rgb(197,197,196);"/>
                                    </g>
                                    <g transform="matrix(0.876055,0,0,1.12101,210.043,-49.9533)">
                                        <path d="M1694.5,578C1700.3,578 1705,579.308 1705,580.921C1705,591.346 1705,626.654 1705,637.079C1705,638.692 1700.3,640 1694.5,640C1694.5,640 1694.5,640 1694.5,640C1688.7,640 1684,638.886 1684,637.273C1684,626.848 1684,592.523 1684,582.098C1684,580.485 1688.7,578 1694.5,578C1694.5,578 1694.5,578 1694.5,578Z" style="fill:rgb(214,214,212);"/>
                                    </g>
                                </g>
                            </g>
                            <g id="botao12" serif:id="botao1" transform="matrix(1,0,0,2.58945,-1.85068e-05,-792.061)">
                                <g transform="matrix(1.04952,0,0,1.13652,-84.3715,-60.2326)">
                                    <path d="M1694.5,578C1700.3,578 1705,582.184 1705,587.345C1705,599.042 1704.99,615.968 1705,627.665C1705.01,638.186 1700.3,640 1694.5,640C1694.5,640 1694.5,640 1694.5,640C1688.7,640 1684,635.816 1684,630.655C1684,618.958 1684,599.042 1684,587.345C1684,582.184 1688.7,578 1694.5,578C1694.5,578 1694.5,578 1694.5,578Z" style="fill:rgb(145,145,144);"/>
                                </g>
                                <g transform="matrix(0.952381,0,0,1.14449,81.1905,-64.8215)">
                                    <path d="M1694.5,578C1700.3,578 1705.68,581.196 1705,586.929C1703.6,598.693 1705,615.45 1705,627.224C1705,633.426 1702.92,638.232 1695.84,638.571C1691.08,638.799 1684,637.259 1684,631.071L1684,586.929C1684,581.998 1682.09,578.802 1694.5,578C1694.5,578 1694.5,578 1694.5,578Z" style="fill:rgb(79,79,74);"/>
                                </g>
                                <g transform="matrix(0.857893,0,0,1.06086,240.309,-14.4225)">
                                    <path d="M1694.5,578C1700.3,578 1705,579.513 1705,581.379C1705,592.184 1705,625.816 1705,636.621C1705,638.487 1700.3,640 1694.5,640L1694.5,640C1688.7,640 1684,638.487 1684,636.621L1684,581.379C1684,579.513 1688.7,578 1694.5,578L1694.5,578Z" style="fill:rgb(214,214,212);"/>
                                </g>
                                <g transform="matrix(0.670971,0,0,1.05947,555.085,-13.621)">
                                    <path d="M1694.5,578C1700.3,578 1705,579.185 1705,580.646C1705,590.8 1705,627.2 1705,637.354C1705,638.815 1700.3,640 1694.5,640L1694.5,640C1688.7,640 1684,638.815 1684,637.354C1684,627.2 1684,590.8 1684,580.646C1684,579.185 1688.7,578 1694.5,578L1694.5,578Z" style="fill:rgb(181,181,179);"/>
                                </g>
                            </g>
                        </g>
                    </g>
                </g>
            </g>
        </g>
    </g>
</svg>
