<?xml version="1.0" encoding="UTF-8" standalone="no"?>
<!DOCTYPE svg PUBLIC "-//W3C//DTD SVG 1.1//EN" "http://www.w3.org/Graphics/SVG/1.1/DTD/svg11.dtd">
<svg width="100%" height="100%" viewBox="0 0 3544 3544" version="1.1" xmlns="http://www.w3.org/2000/svg" xmlns:xlink="http://www.w3.org/1999/xlink" xml:space="preserve" xmlns:serif="http://www.serif.com/" style="fill-rule:evenodd;clip-rule:evenodd;stroke-linejoin:round;stroke-miterlimit:2;">
    <g transform="matrix(1,0,0,1,-10643.1,-3403.72)">
        <g id="EMBALAGEM">
        </g>
        <g id="template_husky" transform="matrix(3.43343,0,0,2.34658,-7059.36,-8282.25)">
            <g id="TEMPLATE">
                <rect id="template_husky1" serif:id="template_husky" x="5155.9" y="4980" width="1032" height="1509.99" style="fill:rgb(150,105,205);"/>
                <g id="template_husky2" serif:id="template_husky">
                    <g transform="matrix(0.177637,-0.0316323,0.0256426,0.308283,5049.11,3531.72)">
                        <path d="M666.962,5286.4L666.962,6195.47C666.962,6218.97 644.332,6238.05 616.459,6238.05L212.434,6238.05C184.56,6238.05 161.931,6218.97 161.931,6195.47L161.931,5286.4C161.931,5262.9 184.56,5243.82 212.434,5243.82L616.459,5243.82C644.332,5243.82 666.962,5262.9 666.962,5286.4Z" style="fill:rgb(99,66,140);"/>
                    </g>
                    <g transform="matrix(0.175831,-0.0486481,0.0394364,0.30515,4989.03,4489.27)">
                        <path d="M666.962,5286.4L666.962,6195.47C666.962,6218.97 644.332,6238.05 616.459,6238.05L212.434,6238.05C184.56,6238.05 161.931,6218.97 161.931,6195.47L161.931,5286.4C161.931,5262.9 184.56,5243.82 212.434,5243.82L616.459,5243.82C644.332,5243.82 666.962,5262.9 666.962,5286.4Z" style="fill:rgb(99,66,140);"/>
                    </g>
                    <g transform="matrix(0.177828,0.0292382,-0.0237018,0.308615,5479.23,3791.73)">
                        <path d="M666.962,5286.4L666.962,6195.47C666.962,6218.97 644.332,6238.05 616.459,6238.05L212.434,6238.05C184.56,6238.05 161.931,6218.97 161.931,6195.47L161.931,5286.4C161.931,5262.9 184.56,5243.82 212.434,5243.82L616.459,5243.82C644.332,5243.82 666.962,5262.9 666.962,5286.4Z" style="fill:rgb(99,66,140);"/>
                    </g>
                    <g transform="matrix(0.16572,-0.098795,0.0800878,0.287602,4825.07,4316.28)">
                        <path d="M666.962,5286.4L666.962,6195.47C666.962,6218.97 644.332,6238.05 616.459,6238.05L212.434,6238.05C184.56,6238.05 161.931,6218.97 161.931,6195.47L161.931,5286.4C161.931,5262.9 184.56,5243.82 212.434,5243.82L616.459,5243.82C644.332,5243.82 666.962,5262.9 666.962,5286.4Z" style="fill:rgb(99,66,140);"/>
                    </g>
                    <g transform="matrix(0.178945,0.00132906,-0.00107739,0.310554,5450.3,3455.92)">
                        <path d="M666.962,5286.4L666.962,6195.47C666.962,6218.97 644.332,6238.05 616.459,6238.05L212.434,6238.05C184.56,6238.05 161.931,6218.97 161.931,6195.47L161.931,5286.4C161.931,5262.9 184.56,5243.82 212.434,5243.82L616.459,5243.82C644.332,5243.82 666.962,5262.9 666.962,5286.4Z" style="fill:rgb(99,66,140);"/>
                    </g>
                    <g transform="matrix(0.178422,-0.0200406,0.0162458,0.309647,5344.27,4455.34)">
                        <path d="M666.962,5286.4L666.962,6195.47C666.962,6218.97 644.332,6238.05 616.459,6238.05L212.434,6238.05C184.56,6238.05 161.931,6218.97 161.931,6195.47L161.931,5286.4C161.931,5262.9 184.56,5243.82 212.434,5243.82L616.459,5243.82C644.332,5243.82 666.962,5262.9 666.962,5286.4Z" style="fill:rgb(99,66,140);"/>
                    </g>
                    <g transform="matrix(0.177615,-0.0318951,0.0258556,0.308245,5411.56,3797.37)">
                        <path d="M666.962,5286.4L666.962,6195.47C666.962,6218.97 644.332,6238.05 616.459,6238.05L212.434,6238.05C184.56,6238.05 161.931,6218.97 161.931,6195.47L161.931,5286.4C161.931,5262.9 184.56,5243.82 212.434,5243.82L616.459,5243.82C644.332,5243.82 666.962,5262.9 666.962,5286.4Z" style="fill:rgb(99,66,140);"/>
                    </g>
                    <g transform="matrix(0.177989,0.0270573,-0.0219339,0.308895,5684.05,4168.57)">
                        <path d="M666.962,5286.4L666.962,6195.47C666.962,6218.97 644.332,6238.05 616.459,6238.05L212.434,6238.05C184.56,6238.05 161.931,6218.97 161.931,6195.47L161.931,5286.4C161.931,5262.9 184.56,5243.82 212.434,5243.82L616.459,5243.82C644.332,5243.82 666.962,5262.9 666.962,5286.4Z" style="fill:rgb(99,66,140);"/>
                    </g>
                    <g transform="matrix(0.178517,-0.0181392,0.0147045,0.309812,5599.97,3516.08)">
                        <path d="M666.962,5286.4L666.962,6195.47C666.962,6218.97 644.332,6238.05 616.459,6238.05L212.434,6238.05C184.56,6238.05 161.931,6218.97 161.931,6195.47L161.931,5286.4C161.931,5262.9 184.56,5243.82 212.434,5243.82L616.459,5243.82C644.332,5243.82 666.962,5262.9 666.962,5286.4Z" style="fill:rgb(99,66,140);"/>
                    </g>
                    <g transform="matrix(0.178171,0.0243545,-0.0197429,0.309211,5765.41,4440.11)">
                        <path d="M666.962,5286.4L666.962,6195.47C666.962,6218.97 644.332,6238.05 616.459,6238.05L212.434,6238.05C184.56,6238.05 161.931,6218.97 161.931,6195.47L161.931,5286.4C161.931,5262.9 184.56,5243.82 212.434,5243.82L616.459,5243.82C644.332,5243.82 666.962,5262.9 666.962,5286.4Z" style="fill:rgb(99,66,140);"/>
                    </g>
                    <g transform="matrix(0.174964,0.0549393,-0.0445363,0.303644,6040.24,3766.3)">
                        <path d="M666.962,5286.4L666.962,6195.47C666.962,6218.97 644.332,6238.05 616.459,6238.05L212.434,6238.05C184.56,6238.05 161.931,6218.97 161.931,6195.47L161.931,5286.4C161.931,5262.9 184.56,5243.82 212.434,5243.82L616.459,5243.82C644.332,5243.82 666.962,5262.9 666.962,5286.4Z" style="fill:rgb(99,66,140);"/>
                    </g>
                    <g transform="matrix(0.173649,-0.0632428,0.0512675,0.301362,5490.78,4227.08)">
                        <path d="M666.962,5286.4L666.962,6195.47C666.962,6218.97 644.332,6238.05 616.459,6238.05L212.434,6238.05C184.56,6238.05 161.931,6218.97 161.931,6195.47L161.931,5286.4C161.931,5262.9 184.56,5243.82 212.434,5243.82L616.459,5243.82C644.332,5243.82 666.962,5262.9 666.962,5286.4Z" style="fill:rgb(99,66,140);"/>
                    </g>
                    <g transform="matrix(0.176217,0.0455606,-0.0369335,0.30582,6139.48,3457.98)">
                        <path d="M666.962,5286.4L666.962,6195.47C666.962,6218.97 644.332,6238.05 616.459,6238.05L212.434,6238.05C184.56,6238.05 161.931,6218.97 161.931,6195.47L161.931,5286.4C161.931,5262.9 184.56,5243.82 212.434,5243.82L616.459,5243.82C644.332,5243.82 666.962,5262.9 666.962,5286.4Z" style="fill:rgb(99,66,140);"/>
                    </g>
                    <g transform="matrix(0.178157,-0.0245763,0.0199227,0.309187,5758.19,4506.11)">
                        <path d="M666.962,5286.4L666.962,6195.47C666.962,6218.97 644.332,6238.05 616.459,6238.05L212.434,6238.05C184.56,6238.05 161.931,6218.97 161.931,6195.47L161.931,5286.4C161.931,5262.9 184.56,5243.82 212.434,5243.82L616.459,5243.82C644.332,5243.82 666.962,5262.9 666.962,5286.4Z" style="fill:rgb(99,66,140);"/>
                    </g>
                    <g transform="matrix(0.167039,0.0939171,-0.0761335,0.289892,6429.4,3832.91)">
                        <path d="M666.962,5286.4L666.962,6195.47C666.962,6218.97 644.332,6238.05 616.459,6238.05L212.434,6238.05C184.56,6238.05 161.931,6218.97 161.931,6195.47L161.931,5286.4C161.931,5262.9 184.56,5243.82 212.434,5243.82L616.459,5243.82C644.332,5243.82 666.962,5262.9 666.962,5286.4Z" style="fill:rgb(99,66,140);"/>
                    </g>
                    <g transform="matrix(0.177858,0.0288516,-0.0233884,0.308667,6143.9,4208.28)">
                        <path d="M666.962,5286.4L666.962,6195.47C666.962,6218.97 644.332,6238.05 616.459,6238.05L212.434,6238.05C184.56,6238.05 161.931,6218.97 161.931,6195.47L161.931,5286.4C161.931,5262.9 184.56,5243.82 212.434,5243.82L616.459,5243.82C644.332,5243.82 666.962,5262.9 666.962,5286.4Z" style="fill:rgb(99,66,140);"/>
                    </g>
                </g>
            </g>
        </g>
        <g id="ILUSTRAÇÃO">
        </g>
        <g id="LOGO">
        </g>
    </g>
</svg>
