<?xml version="1.0" encoding="UTF-8" standalone="no"?>
<!DOCTYPE svg PUBLIC "-//W3C//DTD SVG 1.1//EN" "http://www.w3.org/Graphics/SVG/1.1/DTD/svg11.dtd">
<svg width="100%" height="100%" viewBox="0 0 1773 1773" version="1.1" xmlns="http://www.w3.org/2000/svg" xmlns:xlink="http://www.w3.org/1999/xlink" xml:space="preserve" xmlns:serif="http://www.serif.com/" style="fill-rule:evenodd;clip-rule:evenodd;stroke-linejoin:round;stroke-miterlimit:2;">
    <rect id="template_dalmata3" x="0.475" y="0.421" width="1771.65" height="1771.65" style="fill:rgb(195,214,235);"/>
    <g>
        <path d="M596.17,322.163L808.249,1069.64C813.732,1088.96 802.495,1109.1 783.173,1114.58L503.092,1194.05C483.769,1199.53 463.631,1188.29 458.148,1168.97L246.069,421.496C240.587,402.173 251.823,382.034 271.146,376.552L551.227,297.085C570.549,291.603 590.688,302.84 596.17,322.163Z" style="fill:rgb(150,183,220);"/>
    </g>
    <g>
        <path d="M1525.73,722.497L1260.54,1452.82C1253.68,1471.7 1232.79,1481.46 1213.91,1474.61L940.259,1375.24C921.379,1368.38 911.618,1347.49 918.474,1328.61L1183.66,598.288C1190.52,579.409 1211.41,569.646 1230.29,576.501L1503.95,675.869C1522.83,682.724 1532.59,703.618 1525.73,722.497Z" style="fill:rgb(150,183,220);"/>
    </g>
</svg>
