<?xml version="1.0" encoding="UTF-8" standalone="no"?>
<!DOCTYPE svg PUBLIC "-//W3C//DTD SVG 1.1//EN" "http://www.w3.org/Graphics/SVG/1.1/DTD/svg11.dtd">
<svg width="100%" height="100%" viewBox="0 0 2363 1511" version="1.1" xmlns="http://www.w3.org/2000/svg" xmlns:xlink="http://www.w3.org/1999/xlink" xml:space="preserve" xmlns:serif="http://www.serif.com/" style="fill-rule:evenodd;clip-rule:evenodd;stroke-linejoin:round;stroke-miterlimit:2;">
    <g transform="matrix(1,0,0,1,0,-3403)">
        <g id="desktop" transform="matrix(0.78469,0,0,1.04556,-3.56836e-13,-1803.76)">
            <rect x="0" y="4980.53" width="3010.37" height="1444.18" style="fill:white;"/>
            <g transform="matrix(6.81862,0,0,5.11733,197.719,5037)">
                <path d="M27.027,233.466C27.009,232.435 27.084,144.137 27.084,130.115C27.084,97.329 27.08,19.663 27.084,19.08C27.117,14.361 30.454,12.82 33.241,12.8C135.808,12.8 238.375,12.799 340.942,12.799C352.245,12.799 352.509,12.659 354.015,13.63C356.509,15.239 356.905,17.243 356.913,19.672C356.918,71.252 356.923,122.831 356.927,174.41C356.938,222.159 356.894,222.156 357.026,231.104C357.065,233.754 356.836,233.928 356.817,234.044C356.126,234.333 356.171,234.539 354.526,234.544C296.381,234.693 296.384,234.482 291.328,234.526C285.639,234.574 230.473,234.539 225.181,234.536C214.913,234.556 179.356,234.484 158.453,234.51C148.096,234.5 95.122,234.534 91.112,234.493C88.477,234.467 30.362,234.616 28.002,234.424C27.323,234.11 27.311,234.134 27.269,234.085C27.122,233.919 27.173,233.632 27.027,233.466Z" style="fill:rgb(32,32,31);"/>
            </g>
            <g transform="matrix(6.81862,0,0,5.11733,197.719,5027.53)">
                <path d="M193.292,24.25C207.494,24.254 207.511,24.27 208.122,24.053C210.461,23.223 209.598,19.493 210.957,19.027C211.38,18.882 211.399,18.937 349.21,18.93C350.989,18.93 352.252,18.594 352.298,20.336C352.308,20.694 352.297,100.419 352.299,104.208C352.304,114.226 352.366,228.909 352.297,229.434C352.165,230.432 351.988,230.497 350.979,230.53C350.58,230.543 100.312,230.526 97.025,230.555C90.899,230.61 38.343,230.548 33.24,230.542C31.656,230.541 31.278,230.437 31.267,228.829C31.19,216.782 31.252,37.564 31.258,20.933C31.258,19.461 31.162,18.997 32.634,18.932C32.737,18.927 58.754,18.928 169.077,18.928C171.824,18.928 172.955,18.727 173.285,19.719C173.736,21.072 173.44,24.211 176.762,24.251C177.122,24.255 191.97,24.251 193.292,24.25Z" style="fill:rgb(254,254,254);"/>
            </g>
            <g transform="matrix(6.81862,0,0,5.11733,197.719,6205.4)">
                <path d="M158.453,6.189C179.356,6.163 214.913,6.235 225.181,6.215C225.321,6.556 225.178,6.585 225.316,6.921C225.455,7.259 225.604,7.165 225.713,7.511C225.804,7.8 225.447,8.669 225.408,8.765C225.314,8.994 224.662,10.585 223.487,11.198C221.536,12.214 215.666,11.554 211.601,11.631C208.654,11.688 208.665,11.816 203.332,11.818C191.405,11.822 177.471,11.85 174.398,11.709C164.75,11.265 161.089,12.868 159.045,9.868C157.936,8.241 158.026,8.112 158.453,6.189Z" style="fill:rgb(220,220,219);"/>
            </g>
            <g transform="matrix(1.27439,0,0,0.956421,4.54747e-13,1725.15)">
                <path d="M155.148,4749.84C155.313,4724.86 154.778,4721.27 156.938,4719.15C158.332,4717.78 159.227,4716.9 181.328,4718.22C185.728,4718.48 185.603,4719.78 190.33,4719.28C191.586,4719.15 192.807,4718.67 194.07,4718.68C195.319,4718.68 196.511,4719.37 197.759,4719.32C198.672,4719.29 199.459,4718.64 200.348,4718.43C202.697,4717.88 213.913,4717.97 228.635,4717.58C232.436,4717.56 255.324,4717.46 276.138,4717.53C293.076,4717.59 293.046,4716.87 294.504,4717.05C296.015,4717.24 297.366,4718.19 298.877,4718.38C299.783,4719.03 295.884,4720.35 296.791,4721.01C297.968,4721.86 301.059,4720.36 301.396,4720.2C303.598,4719.13 302.769,4718.11 304.973,4717.05C317.602,4718.07 628.544,4717.28 642.641,4717.42C664.096,4717.63 947.537,4717.45 1002.95,4717.51C1000.67,4727.8 1000.19,4728.48 1006.12,4737.19C1017.06,4753.24 1036.64,4744.66 1088.27,4747.04C1104.71,4747.8 1179.26,4747.65 1243.08,4747.62C1271.61,4747.61 1271.55,4746.93 1287.32,4746.62C1309.07,4746.21 1340.48,4749.74 1350.92,4744.3C1357.2,4741.03 1360.69,4732.52 1361.19,4731.29C1361.4,4730.78 1363.31,4726.12 1362.83,4724.58C1362.24,4722.73 1361.45,4723.23 1360.7,4721.42C1359.96,4719.63 1360.73,4719.47 1359.98,4717.65C1388.3,4717.66 1683.46,4717.85 1713.9,4717.59C1740.95,4717.36 1740.94,4718.48 2052.04,4717.69C2060.84,4717.66 2060.6,4716.56 2064.3,4715.01C2065.93,4715.56 2067.03,4717.21 2068.66,4717.75C2069.08,4717.89 2069.08,4717.38 2074.18,4717.5C2091.36,4717.87 2135.55,4717.16 2165.89,4717.74C2165.66,4718.95 2165.87,4720.21 2165.65,4721.42C2165.57,4721.87 2164.53,4723.67 2164.4,4727.72C2164.18,4734.65 2165.19,4734.54 2165.36,4746.7C2165.38,4747.8 2165.5,4757.64 2168.35,4760.09C2169.07,4760.72 2170.3,4759.96 2171.21,4760.25C2173.45,4760.97 2172.91,4762.01 2175.24,4762.55C2176.22,4762.78 2177.26,4762.57 2178.23,4762.79C2178.89,4767.59 2178.66,4767.65 2178.94,4767.95C2179.58,4768.64 2181.01,4768.04 2181.65,4768.73C2187.31,4769.51 2187.27,4769.55 2187.76,4769.57C2195.98,4769.95 2195.71,4767.65 2197.95,4759.7C2200.03,4752.37 2198.83,4752.33 2198.38,4749.95C2197.73,4746.47 2197.91,4721.5 2198.55,4719.78C2199.08,4718.36 2203.8,4716.93 2205.67,4719.29C2208.22,4722.5 2206.48,4762.24 2206.46,4762.52C2205.26,4782.48 2193.19,4777.91 2165.78,4777.84C2052.77,4777.56 2052.73,4777.35 2043.01,4778.8C2038.49,4782.86 2038.7,4783.06 2038.3,4783.4C2034.57,4786.57 2033.98,4785.95 1979.36,4785.96C1950.89,4785.96 1949.91,4786.9 1944.64,4781.43C1940.3,4776.93 1934.71,4777.75 1925.64,4777.77L1287.32,4778.07L538.395,4777.72C430.99,4777.88 430.955,4777.18 422.313,4778.92C420.176,4778.06 420.424,4777.71 418.316,4776.86C418.057,4776.75 416.712,4776.21 414.95,4775.94C414.525,4775.88 362.811,4775.97 358.277,4775.98C329.126,4776.03 329.006,4775.38 326.676,4776.36C325.147,4777.01 324.014,4778.41 322.485,4779.05C314.868,4777.19 314.792,4777.64 279.275,4777.64C229.806,4777.63 229.868,4777.68 225.571,4777.66C202.724,4777.83 202.777,4778.31 171.809,4777.85C153.17,4777.58 155.435,4765.49 155.148,4749.84Z" style="fill:rgb(188,188,188);"/>
            </g>
            <g transform="matrix(6.81862,0,0,5.11733,197.719,6292.45)">
                <path d="M31.275,0.681C31.561,0.561 31.772,0.3 32.058,0.179C32.494,-0.004 32.516,0.117 37.965,0.107C38.812,0.105 48.477,0.088 48.557,0.1C48.886,0.15 49.137,0.252 49.186,0.271C49.58,0.431 49.533,0.496 49.933,0.657C49.13,1.521 49.009,1.833 48.034,1.948C47.416,2.02 45.834,2.021 45.642,2.021C35.307,2.023 35.321,1.966 34.424,1.984C32.41,2.025 32.37,1.848 31.275,0.681Z" style="fill:rgb(68,68,68);"/>
            </g>
            <g transform="matrix(6.81862,0,0,5.11733,197.719,6170.17)">
                <path d="M27.027,12.029C27.173,12.196 27.122,12.483 27.269,12.649C27.311,12.697 27.323,12.674 28.002,12.987C27.59,13.187 27.745,13.377 27.334,13.576C27.27,13.606 26.693,13.886 26.473,13.728C26.303,13.606 27.032,13.359 26.863,13.237C26.917,12.834 26.972,12.432 27.027,12.029Z" style="fill:rgb(131,131,131);"/>
            </g>
            <g transform="matrix(6.81862,0,0,5.11733,197.719,6263.65)">
                <path d="M378.111,3.269C378.295,3.311 378.49,3.269 378.674,3.311C378.843,3.35 379.065,3.359 379.156,3.507C379.197,3.572 379.13,3.563 378.75,4.379C378.631,4.249 378.362,4.363 378.243,4.234C378.19,4.176 378.234,4.166 378.111,3.269Z" style="fill:rgb(187,187,187);"/>
            </g>
        </g>
    </g>
</svg>
