<?xml version="1.0" encoding="UTF-8" standalone="no"?>
<!DOCTYPE svg PUBLIC "-//W3C//DTD SVG 1.1//EN" "http://www.w3.org/Graphics/SVG/1.1/DTD/svg11.dtd">
<svg width="100%" height="100%" viewBox="0 0 3544 3071" version="1.1" xmlns="http://www.w3.org/2000/svg" xmlns:xlink="http://www.w3.org/1999/xlink" xml:space="preserve" xmlns:serif="http://www.serif.com/" style="fill-rule:evenodd;clip-rule:evenodd;stroke-linejoin:round;stroke-miterlimit:2;">
    <rect id="template_husky" x="0" y="0" width="3543.31" height="3070.87" style="fill:white;"/>
    <g>
        <path d="M1270.69,418.906L1460.12,1975.36C1465.01,2015.6 1436.32,2052.24 1396.09,2057.14L812.878,2128.12C772.642,2133.01 736.002,2104.32 731.105,2064.09L541.678,507.629C536.781,467.394 565.47,430.751 605.706,425.854L1188.91,354.875C1229.15,349.978 1265.79,378.67 1270.69,418.906Z" style="fill:rgb(150,105,205);"/>
    </g>
    <g>
        <path d="M2998.43,1177.82L2505.25,2666.18C2492.5,2704.66 2450.91,2725.54 2412.44,2712.79L1854.75,2528C1816.27,2515.25 1795.38,2473.66 1808.13,2435.18L2301.32,946.828C2314.07,908.353 2355.65,887.465 2394.13,900.214L2951.82,1085.01C2990.3,1097.76 3011.18,1139.35 2998.43,1177.82Z" style="fill:rgb(150,105,205);"/>
    </g>
    <g id="ILUSTRAÇÃO">
    </g>
    <g id="LOGO">
    </g>
</svg>
