<?xml version="1.0" encoding="UTF-8" standalone="no"?>
<!DOCTYPE svg PUBLIC "-//W3C//DTD SVG 1.1//EN" "http://www.w3.org/Graphics/SVG/1.1/DTD/svg11.dtd">
<svg width="100%" height="100%" viewBox="0 0 2045 1773" version="1.1" xmlns="http://www.w3.org/2000/svg" xmlns:xlink="http://www.w3.org/1999/xlink" xml:space="preserve" xmlns:serif="http://www.serif.com/" style="fill-rule:evenodd;clip-rule:evenodd;stroke-linejoin:round;stroke-miterlimit:2;">
    <rect id="template_dalmata2" x="0.754" y="0.421" width="2044.22" height="1771.65" style="fill:rgb(181,150,220);"/>
    <g>
        <path d="M902.77,368.727L818.089,1161.25C815.9,1181.74 797.49,1196.59 777.003,1194.4L480.042,1162.67C459.555,1160.49 444.699,1142.08 446.889,1121.59L531.569,329.065C533.758,308.578 552.168,293.721 572.655,295.91L869.616,327.64C890.103,329.829 904.959,348.24 902.77,368.727Z" style="fill:white;"/>
    </g>
    <g>
        <path d="M1598.97,646.337L1549.03,1441.8C1547.74,1462.37 1530,1478.02 1509.43,1476.72L1211.37,1458.01C1190.81,1456.72 1175.16,1438.98 1176.45,1418.41L1226.39,622.944C1227.68,602.38 1245.43,586.733 1265.99,588.024L1564.06,606.738C1584.62,608.029 1600.27,625.773 1598.97,646.337Z" style="fill:white;"/>
    </g>
</svg>
