<?xml version="1.0" encoding="UTF-8" standalone="no"?>
<!DOCTYPE svg PUBLIC "-//W3C//DTD SVG 1.1//EN" "http://www.w3.org/Graphics/SVG/1.1/DTD/svg11.dtd">
<svg width="100%" height="100%" viewBox="0 0 1772 1772" version="1.1" xmlns="http://www.w3.org/2000/svg" xmlns:xlink="http://www.w3.org/1999/xlink" xml:space="preserve" xmlns:serif="http://www.serif.com/" style="fill-rule:evenodd;clip-rule:evenodd;stroke-linejoin:round;stroke-miterlimit:2;">
    <rect id="template_tecnico" x="0" y="0" width="1771.65" height="1771.65" style="fill:white;"/>
    <g>
        <path d="M506.245,247.767L506.245,570.363C506.245,578.703 499.032,585.473 490.148,585.473L361.379,585.473C352.495,585.473 345.283,578.703 345.283,570.363L345.283,247.767C345.283,239.427 352.495,232.656 361.379,232.656L490.148,232.656C499.032,232.656 506.245,239.427 506.245,247.767Z" style="fill:none;stroke:black;stroke-width:2.52px;"/>
    </g>
    <g>
        <path d="M506.245,724.528L506.245,1047.12C506.245,1055.46 499.032,1062.24 490.148,1062.24L361.379,1062.24C352.495,1062.24 345.283,1055.46 345.283,1047.12L345.283,724.528C345.283,716.189 352.495,709.418 361.379,709.418L490.148,709.418C499.032,709.418 506.245,716.189 506.245,724.528Z" style="fill:none;stroke:black;stroke-width:2.52px;"/>
    </g>
    <g>
        <path d="M506.245,1201.29L506.245,1523.89C506.245,1532.23 499.032,1539 490.148,1539L361.379,1539C352.495,1539 345.283,1532.23 345.283,1523.89L345.283,1201.29C345.283,1192.95 352.495,1186.18 361.379,1186.18L490.148,1186.18C499.032,1186.18 506.245,1192.95 506.245,1201.29Z" style="fill:none;stroke:black;stroke-width:2.52px;"/>
    </g>
    <g>
        <path d="M1119.66,247.767L1119.66,570.363C1119.66,578.703 1112.45,585.473 1103.57,585.473L974.796,585.473C965.912,585.473 958.7,578.703 958.7,570.363L958.7,247.767C958.7,239.427 965.912,232.656 974.796,232.656L1103.57,232.656C1112.45,232.656 1119.66,239.427 1119.66,247.767Z" style="fill:none;stroke:black;stroke-width:2.52px;"/>
    </g>
    <g>
        <path d="M1119.66,724.528L1119.66,1047.12C1119.66,1055.46 1112.45,1062.24 1103.57,1062.24L974.796,1062.24C965.912,1062.24 958.7,1055.46 958.7,1047.12L958.7,724.528C958.7,716.189 965.912,709.418 974.796,709.418L1103.57,709.418C1112.45,709.418 1119.66,716.189 1119.66,724.528Z" style="fill:none;stroke:black;stroke-width:2.52px;"/>
    </g>
    <g>
        <path d="M1119.66,1201.29L1119.66,1523.89C1119.66,1532.23 1112.45,1539 1103.57,1539L974.796,1539C965.912,1539 958.7,1532.23 958.7,1523.89L958.7,1201.29C958.7,1192.95 965.912,1186.18 974.796,1186.18L1103.57,1186.18C1112.45,1186.18 1119.66,1192.95 1119.66,1201.29Z" style="fill:none;stroke:black;stroke-width:2.52px;"/>
    </g>
    <g>
        <path d="M812.953,247.767L812.953,570.363C812.953,578.703 805.741,585.473 796.857,585.473L668.088,585.473C659.204,585.473 651.991,578.703 651.991,570.363L651.991,247.767C651.991,239.427 659.204,232.656 668.088,232.656L796.857,232.656C805.741,232.656 812.953,239.427 812.953,247.767Z" style="fill:none;stroke:black;stroke-width:2.52px;"/>
    </g>
    <g>
        <path d="M812.953,724.528L812.953,1047.12C812.953,1055.46 805.741,1062.24 796.857,1062.24L668.088,1062.24C659.204,1062.24 651.991,1055.46 651.991,1047.12L651.991,724.528C651.991,716.189 659.204,709.418 668.088,709.418L796.857,709.418C805.741,709.418 812.953,716.189 812.953,724.528Z" style="fill:none;stroke:black;stroke-width:2.52px;"/>
    </g>
    <g>
        <path d="M812.953,1201.29L812.953,1523.89C812.953,1532.23 805.741,1539 796.857,1539L668.088,1539C659.204,1539 651.991,1532.23 651.991,1523.89L651.991,1201.29C651.991,1192.95 659.204,1186.18 668.088,1186.18L796.857,1186.18C805.741,1186.18 812.953,1192.95 812.953,1201.29Z" style="fill:none;stroke:black;stroke-width:2.52px;"/>
    </g>
    <g>
        <path d="M1426.37,247.767L1426.37,570.363C1426.37,578.703 1419.16,585.473 1410.28,585.473L1281.51,585.473C1272.62,585.473 1265.41,578.703 1265.41,570.363L1265.41,247.767C1265.41,239.427 1272.62,232.656 1281.51,232.656L1410.28,232.656C1419.16,232.656 1426.37,239.427 1426.37,247.767Z" style="fill:none;stroke:black;stroke-width:2.52px;"/>
    </g>
    <g>
        <path d="M1426.37,724.528L1426.37,1047.12C1426.37,1055.46 1419.16,1062.24 1410.28,1062.24L1281.51,1062.24C1272.62,1062.24 1265.41,1055.46 1265.41,1047.12L1265.41,724.528C1265.41,716.189 1272.62,709.418 1281.51,709.418L1410.28,709.418C1419.16,709.418 1426.37,716.189 1426.37,724.528Z" style="fill:none;stroke:black;stroke-width:2.52px;"/>
    </g>
    <g>
        <path d="M1426.37,1201.29L1426.37,1523.89C1426.37,1532.23 1419.16,1539 1410.28,1539L1281.51,1539C1272.62,1539 1265.41,1532.23 1265.41,1523.89L1265.41,1201.29C1265.41,1192.95 1272.62,1186.18 1281.51,1186.18L1410.28,1186.18C1419.16,1186.18 1426.37,1192.95 1426.37,1201.29Z" style="fill:none;stroke:black;stroke-width:2.52px;"/>
    </g>
</svg>
