<?xml version="1.0" encoding="UTF-8" standalone="no"?>
<!DOCTYPE svg PUBLIC "-//W3C//DTD SVG 1.1//EN" "http://www.w3.org/Graphics/SVG/1.1/DTD/svg11.dtd">
<svg width="100%" height="100%" viewBox="0 0 3544 3071" version="1.1" xmlns="http://www.w3.org/2000/svg" xmlns:xlink="http://www.w3.org/1999/xlink" xml:space="preserve" xmlns:serif="http://www.serif.com/" style="fill-rule:evenodd;clip-rule:evenodd;stroke-linejoin:round;stroke-miterlimit:2;">
    <g transform="matrix(1,0,0,1,-27847.4,-3403.72)">
        <g id="template_dalmata5" transform="matrix(3.43343,0,0,2.0337,10145,-6724.12)">
            <rect x="5155.9" y="4980" width="1032" height="1509.99" style="fill:white;"/>
            <g transform="matrix(0.415839,-0.123104,0.0864875,0.832704,4788.32,864.112)">
                <path d="M666.962,5286.4L666.962,6195.47C666.962,6218.97 644.332,6238.05 616.459,6238.05L212.434,6238.05C184.56,6238.05 161.931,6218.97 161.931,6195.47L161.931,5286.4C161.931,5262.9 184.56,5243.82 212.434,5243.82L616.459,5243.82C644.332,5243.82 666.962,5262.9 666.962,5286.4Z" style="fill:rgb(248,248,248);"/>
            </g>
            <g transform="matrix(0.405291,0.199604,-0.140234,0.811581,6501.44,1128.58)">
                <path d="M666.962,5286.4L666.962,6195.47C666.962,6218.97 644.332,6238.05 616.459,6238.05L212.434,6238.05C184.56,6238.05 161.931,6218.97 161.931,6195.47L161.931,5286.4C161.931,5262.9 184.56,5243.82 212.434,5243.82L616.459,5243.82C644.332,5243.82 666.962,5262.9 666.962,5286.4Z" style="fill:rgb(248,248,248);"/>
            </g>
        </g>
        <g id="ILUSTRAÇÃO">
        </g>
        <g id="LOGO">
        </g>
    </g>
</svg>
