<?xml version="1.0" encoding="UTF-8" standalone="no"?>
<!DOCTYPE svg PUBLIC "-//W3C//DTD SVG 1.1//EN" "http://www.w3.org/Graphics/SVG/1.1/DTD/svg11.dtd">
<svg width="100%" height="100%" viewBox="0 0 1772 4725" version="1.1" xmlns="http://www.w3.org/2000/svg" xmlns:xlink="http://www.w3.org/1999/xlink" xml:space="preserve" xmlns:serif="http://www.serif.com/" style="fill-rule:evenodd;clip-rule:evenodd;stroke-linejoin:round;stroke-miterlimit:2;">
    <g transform="matrix(1,0,0,1,-18710,-8317.42)">
        <g id="template_tecnico" transform="matrix(0.980171,0,0,3.29964,15514,-8114.96)">
            <rect x="3260.61" y="4980.06" width="1807.49" height="1431.8" style="fill:white;"/>
            <g transform="matrix(0.485021,0,-2.53833e-08,0.160419,3391.08,4236.25)">
                <path d="M666.962,5286.4L666.962,6195.47C666.962,6218.97 644.332,6238.05 616.459,6238.05L212.434,6238.05C184.56,6238.05 161.931,6218.97 161.931,6195.47L161.931,5286.4C161.931,5262.9 184.56,5243.82 212.434,5243.82L616.459,5243.82C644.332,5243.82 666.962,5262.9 666.962,5286.4Z" style="fill:none;stroke:black;stroke-width:7.48px;"/>
            </g>
            <g transform="matrix(0.485021,0,-2.53833e-08,0.160419,3423.92,4451.75)">
                <path d="M666.962,5286.4L666.962,6195.47C666.962,6218.97 644.332,6238.05 616.459,6238.05L212.434,6238.05C184.56,6238.05 161.931,6218.97 161.931,6195.47L161.931,5286.4C161.931,5262.9 184.56,5243.82 212.434,5243.82L616.459,5243.82C644.332,5243.82 666.962,5262.9 666.962,5286.4Z" style="fill:none;stroke:black;stroke-width:7.48px;"/>
            </g>
            <g transform="matrix(0.485021,0,-2.53833e-08,0.160419,3423.92,4882.76)">
                <path d="M666.962,5286.4L666.962,6195.47C666.962,6218.97 644.332,6238.05 616.459,6238.05L212.434,6238.05C184.56,6238.05 161.931,6218.97 161.931,6195.47L161.931,5286.4C161.931,5262.9 184.56,5243.82 212.434,5243.82L616.459,5243.82C644.332,5243.82 666.962,5262.9 666.962,5286.4Z" style="fill:none;stroke:black;stroke-width:7.48px;"/>
            </g>
            <g transform="matrix(0.485021,0,-2.53833e-08,0.160419,3423.92,5313.77)">
                <path d="M666.962,5286.4L666.962,6195.47C666.962,6218.97 644.332,6238.05 616.459,6238.05L212.434,6238.05C184.56,6238.05 161.931,6218.97 161.931,6195.47L161.931,5286.4C161.931,5262.9 184.56,5243.82 212.434,5243.82L616.459,5243.82C644.332,5243.82 666.962,5262.9 666.962,5286.4Z" style="fill:none;stroke:black;stroke-width:7.48px;"/>
            </g>
            <g transform="matrix(0.485021,0,-2.53833e-08,0.160419,3423.92,4667.25)">
                <path d="M666.962,5286.4L666.962,6195.47C666.962,6218.97 644.332,6238.05 616.459,6238.05L212.434,6238.05C184.56,6238.05 161.931,6218.97 161.931,6195.47L161.931,5286.4C161.931,5262.9 184.56,5243.82 212.434,5243.82L616.459,5243.82C644.332,5243.82 666.962,5262.9 666.962,5286.4Z" style="fill:none;stroke:black;stroke-width:7.48px;"/>
            </g>
            <g transform="matrix(0.485021,0,-2.53833e-08,0.160419,3423.92,5098.26)">
                <path d="M666.962,5286.4L666.962,6195.47C666.962,6218.97 644.332,6238.05 616.459,6238.05L212.434,6238.05C184.56,6238.05 161.931,6218.97 161.931,6195.47L161.931,5286.4C161.931,5262.9 184.56,5243.82 212.434,5243.82L616.459,5243.82C644.332,5243.82 666.962,5262.9 666.962,5286.4Z" style="fill:none;stroke:black;stroke-width:7.48px;"/>
            </g>
            <g transform="matrix(0.485021,0,-2.53833e-08,0.160419,4154.1,4236.25)">
                <path d="M666.962,5286.4L666.962,6195.47C666.962,6218.97 644.332,6238.05 616.459,6238.05L212.434,6238.05C184.56,6238.05 161.931,6218.97 161.931,6195.47L161.931,5286.4C161.931,5262.9 184.56,5243.82 212.434,5243.82L616.459,5243.82C644.332,5243.82 666.962,5262.9 666.962,5286.4Z" style="fill:none;stroke:black;stroke-width:7.48px;"/>
            </g>
            <g transform="matrix(0.485021,0,-2.53833e-08,0.160419,4186.95,4451.75)">
                <path d="M666.962,5286.4L666.962,6195.47C666.962,6218.97 644.332,6238.05 616.459,6238.05L212.434,6238.05C184.56,6238.05 161.931,6218.97 161.931,6195.47L161.931,5286.4C161.931,5262.9 184.56,5243.82 212.434,5243.82L616.459,5243.82C644.332,5243.82 666.962,5262.9 666.962,5286.4Z" style="fill:none;stroke:black;stroke-width:7.48px;"/>
            </g>
            <g transform="matrix(0.485021,0,-2.53833e-08,0.160419,4186.95,4882.76)">
                <path d="M666.962,5286.4L666.962,6195.47C666.962,6218.97 644.332,6238.05 616.459,6238.05L212.434,6238.05C184.56,6238.05 161.931,6218.97 161.931,6195.47L161.931,5286.4C161.931,5262.9 184.56,5243.82 212.434,5243.82L616.459,5243.82C644.332,5243.82 666.962,5262.9 666.962,5286.4Z" style="fill:none;stroke:black;stroke-width:7.48px;"/>
            </g>
            <g transform="matrix(0.485021,0,-2.53833e-08,0.160419,4186.95,5313.77)">
                <path d="M666.962,5286.4L666.962,6195.47C666.962,6218.97 644.332,6238.05 616.459,6238.05L212.434,6238.05C184.56,6238.05 161.931,6218.97 161.931,6195.47L161.931,5286.4C161.931,5262.9 184.56,5243.82 212.434,5243.82L616.459,5243.82C644.332,5243.82 666.962,5262.9 666.962,5286.4Z" style="fill:none;stroke:black;stroke-width:7.48px;"/>
            </g>
            <g transform="matrix(0.485021,0,-2.53833e-08,0.160419,4186.95,4667.25)">
                <path d="M666.962,5286.4L666.962,6195.47C666.962,6218.97 644.332,6238.05 616.459,6238.05L212.434,6238.05C184.56,6238.05 161.931,6218.97 161.931,6195.47L161.931,5286.4C161.931,5262.9 184.56,5243.82 212.434,5243.82L616.459,5243.82C644.332,5243.82 666.962,5262.9 666.962,5286.4Z" style="fill:none;stroke:black;stroke-width:7.48px;"/>
            </g>
            <g transform="matrix(0.485021,0,-2.53833e-08,0.160419,4186.95,5098.26)">
                <path d="M666.962,5286.4L666.962,6195.47C666.962,6218.97 644.332,6238.05 616.459,6238.05L212.434,6238.05C184.56,6238.05 161.931,6218.97 161.931,6195.47L161.931,5286.4C161.931,5262.9 184.56,5243.82 212.434,5243.82L616.459,5243.82C644.332,5243.82 666.962,5262.9 666.962,5286.4Z" style="fill:none;stroke:black;stroke-width:7.48px;"/>
            </g>
            <g transform="matrix(0.485021,0,-2.53833e-08,0.160419,3772.59,4236.25)">
                <path d="M666.962,5286.4L666.962,6195.47C666.962,6218.97 644.332,6238.05 616.459,6238.05L212.434,6238.05C184.56,6238.05 161.931,6218.97 161.931,6195.47L161.931,5286.4C161.931,5262.9 184.56,5243.82 212.434,5243.82L616.459,5243.82C644.332,5243.82 666.962,5262.9 666.962,5286.4Z" style="fill:none;stroke:black;stroke-width:7.48px;"/>
            </g>
            <g transform="matrix(0.485021,0,-2.53833e-08,0.160419,3736.38,4451.75)">
                <path d="M666.962,5286.4L666.962,6195.47C666.962,6218.97 644.332,6238.05 616.459,6238.05L212.434,6238.05C184.56,6238.05 161.931,6218.97 161.931,6195.47L161.931,5286.4C161.931,5262.9 184.56,5243.82 212.434,5243.82L616.459,5243.82C644.332,5243.82 666.962,5262.9 666.962,5286.4Z" style="fill:none;stroke:black;stroke-width:7.48px;"/>
            </g>
            <g transform="matrix(0.485021,0,-2.53833e-08,0.160419,3736.38,4882.76)">
                <path d="M666.962,5286.4L666.962,6195.47C666.962,6218.97 644.332,6238.05 616.459,6238.05L212.434,6238.05C184.56,6238.05 161.931,6218.97 161.931,6195.47L161.931,5286.4C161.931,5262.9 184.56,5243.82 212.434,5243.82L616.459,5243.82C644.332,5243.82 666.962,5262.9 666.962,5286.4Z" style="fill:none;stroke:black;stroke-width:7.48px;"/>
            </g>
            <g transform="matrix(0.485021,0,-2.53833e-08,0.160419,3736.38,5313.77)">
                <path d="M666.962,5286.4L666.962,6195.47C666.962,6218.97 644.332,6238.05 616.459,6238.05L212.434,6238.05C184.56,6238.05 161.931,6218.97 161.931,6195.47L161.931,5286.4C161.931,5262.9 184.56,5243.82 212.434,5243.82L616.459,5243.82C644.332,5243.82 666.962,5262.9 666.962,5286.4Z" style="fill:none;stroke:black;stroke-width:7.48px;"/>
            </g>
            <g transform="matrix(0.485021,0,-2.53833e-08,0.160419,3736.38,4667.25)">
                <path d="M666.962,5286.4L666.962,6195.47C666.962,6218.97 644.332,6238.05 616.459,6238.05L212.434,6238.05C184.56,6238.05 161.931,6218.97 161.931,6195.47L161.931,5286.4C161.931,5262.9 184.56,5243.82 212.434,5243.82L616.459,5243.82C644.332,5243.82 666.962,5262.9 666.962,5286.4Z" style="fill:none;stroke:black;stroke-width:7.48px;"/>
            </g>
            <g transform="matrix(0.485021,0,-2.53833e-08,0.160419,3736.38,5098.26)">
                <path d="M666.962,5286.4L666.962,6195.47C666.962,6218.97 644.332,6238.05 616.459,6238.05L212.434,6238.05C184.56,6238.05 161.931,6218.97 161.931,6195.47L161.931,5286.4C161.931,5262.9 184.56,5243.82 212.434,5243.82L616.459,5243.82C644.332,5243.82 666.962,5262.9 666.962,5286.4Z" style="fill:none;stroke:black;stroke-width:7.48px;"/>
            </g>
            <g transform="matrix(0.485021,0,-2.53833e-08,0.160419,4535.62,4236.25)">
                <path d="M666.962,5286.4L666.962,6195.47C666.962,6218.97 644.332,6238.05 616.459,6238.05L212.434,6238.05C184.56,6238.05 161.931,6218.97 161.931,6195.47L161.931,5286.4C161.931,5262.9 184.56,5243.82 212.434,5243.82L616.459,5243.82C644.332,5243.82 666.962,5262.9 666.962,5286.4Z" style="fill:none;stroke:black;stroke-width:7.48px;"/>
            </g>
            <g transform="matrix(0.485021,0,-2.53833e-08,0.160419,4502.77,4451.75)">
                <path d="M666.962,5286.4L666.962,6195.47C666.962,6218.97 644.332,6238.05 616.459,6238.05L212.434,6238.05C184.56,6238.05 161.931,6218.97 161.931,6195.47L161.931,5286.4C161.931,5262.9 184.56,5243.82 212.434,5243.82L616.459,5243.82C644.332,5243.82 666.962,5262.9 666.962,5286.4Z" style="fill:none;stroke:black;stroke-width:7.48px;"/>
            </g>
            <g transform="matrix(0.485021,0,-2.53833e-08,0.160419,4502.77,4882.76)">
                <path d="M666.962,5286.4L666.962,6195.47C666.962,6218.97 644.332,6238.05 616.459,6238.05L212.434,6238.05C184.56,6238.05 161.931,6218.97 161.931,6195.47L161.931,5286.4C161.931,5262.9 184.56,5243.82 212.434,5243.82L616.459,5243.82C644.332,5243.82 666.962,5262.9 666.962,5286.4Z" style="fill:none;stroke:black;stroke-width:7.48px;"/>
            </g>
            <g transform="matrix(0.485021,0,-2.53833e-08,0.160419,4502.77,5313.77)">
                <path d="M666.962,5286.4L666.962,6195.47C666.962,6218.97 644.332,6238.05 616.459,6238.05L212.434,6238.05C184.56,6238.05 161.931,6218.97 161.931,6195.47L161.931,5286.4C161.931,5262.9 184.56,5243.82 212.434,5243.82L616.459,5243.82C644.332,5243.82 666.962,5262.9 666.962,5286.4Z" style="fill:none;stroke:black;stroke-width:7.48px;"/>
            </g>
            <g transform="matrix(0.485021,0,-2.53833e-08,0.160419,4502.77,4667.25)">
                <path d="M666.962,5286.4L666.962,6195.47C666.962,6218.97 644.332,6238.05 616.459,6238.05L212.434,6238.05C184.56,6238.05 161.931,6218.97 161.931,6195.47L161.931,5286.4C161.931,5262.9 184.56,5243.82 212.434,5243.82L616.459,5243.82C644.332,5243.82 666.962,5262.9 666.962,5286.4Z" style="fill:none;stroke:black;stroke-width:7.48px;"/>
            </g>
            <g transform="matrix(0.485021,0,-2.53833e-08,0.160419,4502.77,5098.26)">
                <path d="M666.962,5286.4L666.962,6195.47C666.962,6218.97 644.332,6238.05 616.459,6238.05L212.434,6238.05C184.56,6238.05 161.931,6218.97 161.931,6195.47L161.931,5286.4C161.931,5262.9 184.56,5243.82 212.434,5243.82L616.459,5243.82C644.332,5243.82 666.962,5262.9 666.962,5286.4Z" style="fill:none;stroke:black;stroke-width:7.48px;"/>
            </g>
        </g>
    </g>
</svg>
