<?xml version="1.0" encoding="UTF-8" standalone="no"?>
<!DOCTYPE svg PUBLIC "-//W3C//DTD SVG 1.1//EN" "http://www.w3.org/Graphics/SVG/1.1/DTD/svg11.dtd">
<svg width="100%" height="100%" viewBox="0 0 3544 3071" version="1.1" xmlns="http://www.w3.org/2000/svg" xmlns:xlink="http://www.w3.org/1999/xlink" xml:space="preserve" xmlns:serif="http://www.serif.com/" style="fill-rule:evenodd;clip-rule:evenodd;stroke-linejoin:round;stroke-miterlimit:2;">
    <rect id="template_dalmata4" x="0" y="0" width="3543.31" height="3070.87"/>
    <g>
        <path d="M1592.6,619.001L1137.87,2109.01C1126.11,2147.53 1085.3,2169.26 1046.78,2157.5L488.469,1987.11C449.95,1975.36 428.224,1934.54 439.979,1896.03L894.711,406.015C906.466,367.497 947.281,345.767 985.799,357.523L1544.11,527.912C1582.63,539.667 1604.36,580.484 1592.6,619.001Z" style="fill:rgb(13,13,13);"/>
    </g>
    <g>
        <path d="M3097.94,1303.07L2365.27,2677.88C2346.33,2713.42 2302.1,2726.9 2266.56,2707.96L1751.41,2433.42C1715.87,2414.48 1702.4,2370.25 1721.34,2334.71L2454.01,959.903C2472.95,924.363 2517.18,910.884 2552.72,929.825L3067.87,1204.36C3103.41,1223.3 3116.88,1267.53 3097.94,1303.07Z" style="fill:rgb(13,13,13);"/>
    </g>
    <g id="ILUSTRAÇÃO">
    </g>
    <g id="LOGO">
    </g>
</svg>
