<?xml version="1.0" encoding="UTF-8" standalone="no"?>
<!DOCTYPE svg PUBLIC "-//W3C//DTD SVG 1.1//EN" "http://www.w3.org/Graphics/SVG/1.1/DTD/svg11.dtd">
<svg width="100%" height="100%" viewBox="0 0 1772 1772" version="1.1" xmlns="http://www.w3.org/2000/svg" xmlns:xlink="http://www.w3.org/1999/xlink" xml:space="preserve" xmlns:serif="http://www.serif.com/" style="fill-rule:evenodd;clip-rule:evenodd;stroke-linejoin:round;stroke-miterlimit:2;">
    <g transform="matrix(1,0,0,1,-4.54747e-13,-3403.72)">
        <g id="template_todos" transform="matrix(0.980171,0,0,1.23736,-3195.96,-2758.43)">
            <rect x="3260.61" y="4980.06" width="1807.49" height="1431.8" style="fill:rgb(105,152,205);"/>
            <g transform="matrix(1.02023,0,0,0.80817,3764.99,1014.54)">
                <path d="M666.962,5294.32L666.962,6187.55C666.962,6215.42 644.332,6238.05 616.459,6238.05L212.434,6238.05C184.56,6238.05 161.931,6215.42 161.931,6187.55L161.931,5294.32C161.931,5266.45 184.56,5243.82 212.434,5243.82L616.459,5243.82C644.332,5243.82 666.962,5266.45 666.962,5294.32Z" style="fill:rgb(245,209,128);"/>
            </g>
            <g transform="matrix(0.725194,0,0,0.543931,3545.66,2712.18)">
                <path d="M666.962,5297.16L666.962,6184.71C666.962,6214.15 644.332,6238.05 616.459,6238.05L212.434,6238.05C184.56,6238.05 161.931,6214.15 161.931,6184.71L161.931,5297.16C161.931,5267.72 184.56,5243.82 212.434,5243.82L616.459,5243.82C644.332,5243.82 666.962,5267.72 666.962,5297.16Z" style="fill:rgb(202,180,230);"/>
            </g>
            <g transform="matrix(-0.357898,-3.47196e-17,7.4213e-17,-0.480036,4593.78,8622.47)">
                <path d="M666.962,5273.65L666.962,6208.22C666.962,6224.68 644.332,6238.05 616.459,6238.05L212.434,6238.05C184.56,6238.05 161.931,6224.68 161.931,6208.22L161.931,5273.65C161.931,5257.19 184.56,5243.82 212.434,5243.82L616.459,5243.82C644.332,5243.82 666.962,5257.19 666.962,5273.65Z" style="fill:rgb(242,179,177);"/>
            </g>
            <g transform="matrix(0.509747,0,0,0.488097,3447.12,3084.28)">
                <path d="M666.962,5285.6L666.962,6196.27C666.962,6219.33 644.332,6238.05 616.459,6238.05L212.434,6238.05C184.56,6238.05 161.931,6219.33 161.931,6196.27L161.931,5285.6C161.931,5262.54 184.56,5243.82 212.434,5243.82L616.459,5243.82C644.332,5243.82 666.962,5262.54 666.962,5285.6Z" style="fill:rgb(196,179,175);"/>
            </g>
            <g transform="matrix(0.4134,0,0,0.286087,4402.84,4337.74)">
                <path d="M666.962,5301.63L666.962,6180.24C666.962,6212.15 644.332,6238.05 616.459,6238.05L212.434,6238.05C184.56,6238.05 161.931,6212.15 161.931,6180.24L161.931,5301.63C161.931,5269.72 184.56,5243.82 212.434,5243.82L616.459,5243.82C644.332,5243.82 666.962,5269.72 666.962,5301.63Z" style="fill:rgb(171,211,183);"/>
            </g>
            <g transform="matrix(1.13359,0,0,0.897967,3035.41,1933.51)">
                <path d="M1449.51,4471.28C1477.7,4471.28 1504.74,4482.48 1524.68,4502.41C1544.61,4522.35 1555.81,4549.39 1555.81,4577.58L1555.81,4577.58C1555.81,4605.77 1544.61,4632.81 1524.68,4652.74C1504.74,4672.68 1477.7,4683.88 1449.51,4683.88L1449.51,4683.88C1421.32,4683.88 1394.28,4672.68 1374.35,4652.74C1354.41,4632.81 1343.21,4605.77 1343.21,4577.58L1343.21,4577.58C1343.21,4549.39 1354.41,4522.35 1374.35,4502.41C1394.28,4482.48 1421.32,4471.28 1449.51,4471.28L1449.51,4471.28Z" style="fill:rgb(248,248,248);"/>
            </g>
        </g>
        <g id="ILUSTRAÇÃO">
        </g>
    </g>
</svg>
