<?xml version="1.0" encoding="UTF-8" standalone="no"?>
<!DOCTYPE svg PUBLIC "-//W3C//DTD SVG 1.1//EN" "http://www.w3.org/Graphics/SVG/1.1/DTD/svg11.dtd">
<svg width="100%" height="100%" viewBox="0 0 1772 1773" version="1.1" xmlns="http://www.w3.org/2000/svg" xmlns:xlink="http://www.w3.org/1999/xlink" xml:space="preserve" xmlns:serif="http://www.serif.com/" style="fill-rule:evenodd;clip-rule:evenodd;stroke-linejoin:round;stroke-miterlimit:2;">
    <rect id="template_todos" x="0" y="0.716" width="1771.65" height="1771.65" style="fill:white;"/>
    <path d="M1161.34,388.255L1161.34,1281.48C1161.34,1309.35 1138.71,1331.98 1110.84,1331.98L706.814,1331.98C678.94,1331.98 656.31,1309.35 656.31,1281.48L656.31,388.255C656.31,360.381 678.94,337.752 706.814,337.752L1110.84,337.752C1138.71,337.752 1161.34,360.381 1161.34,388.255Z" style="fill:rgb(245,209,128);"/>
    <path d="M753.476,759.721L753.476,1357.08C753.476,1376.89 737.391,1392.98 717.578,1392.98L430.391,1392.98C410.578,1392.98 394.493,1376.89 394.493,1357.08L394.493,759.721C394.493,739.909 410.578,723.823 430.391,723.823L717.578,723.823C737.391,723.823 753.476,739.909 753.476,759.721Z" style="fill:rgb(202,180,230);"/>
    <path d="M1072.76,1375.26L1072.76,820.145C1072.76,810.367 1080.7,802.429 1090.47,802.429L1232.21,802.429C1241.99,802.429 1249.92,810.367 1249.92,820.145L1249.92,1375.26C1249.92,1385.04 1241.99,1392.98 1232.21,1392.98L1090.47,1392.98C1080.7,1392.98 1072.76,1385.04 1072.76,1375.26Z" style="fill:rgb(242,179,177);"/>
    <path d="M516.049,847.208L516.049,1397.21C516.049,1411.14 504.742,1422.44 490.815,1422.44L288.948,1422.44C275.022,1422.44 263.715,1411.14 263.715,1397.21L263.715,847.208C263.715,833.281 275.022,821.974 288.948,821.974L490.815,821.974C504.742,821.974 516.049,833.281 516.049,847.208Z" style="fill:rgb(196,179,175);"/>
    <path d="M1389.83,1082.67L1389.83,1393.69C1389.83,1404.99 1380.66,1414.16 1369.36,1414.16L1205.65,1414.16C1194.36,1414.16 1185.19,1404.99 1185.19,1393.69L1185.19,1082.67C1185.19,1071.38 1194.36,1062.21 1205.65,1062.21L1369.36,1062.21C1380.66,1062.21 1389.83,1071.38 1389.83,1082.67Z" style="fill:rgb(171,211,183);"/>
    <path d="M1389.83,1199.11C1421.15,1199.11 1451.19,1211.56 1473.35,1233.71C1495.5,1255.86 1507.94,1285.9 1507.94,1317.22C1507.94,1317.22 1507.94,1317.22 1507.94,1317.22C1507.94,1348.55 1495.5,1378.59 1473.35,1400.74C1451.19,1422.89 1421.15,1435.33 1389.83,1435.33L1389.83,1435.33C1358.5,1435.33 1328.46,1422.89 1306.31,1400.74C1284.16,1378.59 1271.72,1348.55 1271.72,1317.22L1271.72,1317.22C1271.72,1285.9 1284.16,1255.86 1306.31,1233.71C1328.46,1211.56 1358.5,1199.11 1389.83,1199.11L1389.83,1199.11Z" style="fill:rgb(248,248,248);"/>
</svg>
