<?xml version="1.0" encoding="UTF-8" standalone="no"?><!DOCTYPE svg PUBLIC "-//W3C//DTD SVG 1.1//EN" "http://www.w3.org/Graphics/SVG/1.1/DTD/svg11.dtd"><svg width="100%" height="100%" viewBox="0 0 2481 4066" version="1.1" xmlns="http://www.w3.org/2000/svg" xmlns:xlink="http://www.w3.org/1999/xlink" xml:space="preserve" xmlns:serif="http://www.serif.com/" style="fill-rule:evenodd;clip-rule:evenodd;stroke-linejoin:round;stroke-miterlimit:2;"><rect id="template_mobile" x="0.064" y="0" width="2480.32" height="4065.74"/><g><path d="M1691.87,580.18c65.453,0 128.224,26.001 174.506,72.283c46.282,46.282 72.282,109.053 72.282,174.505l0,2411.81c0,65.452 -26,128.223 -72.282,174.505c-46.282,46.282 -109.053,72.283 -174.506,72.283l-900.376,-0c-65.453,-0 -128.224,-26.001 -174.506,-72.283c-46.282,-46.282 -72.282,-109.053 -72.282,-174.505l-0,-2411.81c-0,-65.452 26,-128.223 72.282,-174.505c46.282,-46.282 109.053,-72.283 174.506,-72.283l900.376,0Z" style="fill:#fff;"/><path d="M1691.87,580.18c65.453,0 128.224,26.001 174.506,72.283c46.282,46.282 72.282,109.053 72.282,174.505l0,2411.81c0,65.452 -26,128.223 -72.282,174.505c-46.282,46.282 -109.053,72.283 -174.506,72.283l-900.376,-0c-65.453,-0 -128.224,-26.001 -174.506,-72.283c-46.282,-46.282 -72.282,-109.053 -72.282,-174.505l-0,-2411.81c-0,-65.452 26,-128.223 72.282,-174.505c46.282,-46.282 109.053,-72.283 174.506,-72.283l900.376,0Zm0,47.243l-900.377,-0c-52.922,-0 -103.677,21.023 -141.099,58.445c-37.422,37.422 -58.446,88.178 -58.446,141.1l0,2411.81c0,52.922 21.024,103.678 58.446,141.1c37.422,37.422 88.177,58.445 141.1,58.445l900.377,0c52.922,0 103.677,-21.023 141.099,-58.445c37.422,-37.422 58.446,-88.178 58.446,-141.1l-0,-2411.81c-0,-52.922 -21.024,-103.678 -58.446,-141.1c-37.422,-37.422 -88.177,-58.445 -141.1,-58.445Z"/><path d="M1691.87,580.18c65.453,0 128.224,26.001 174.506,72.283c46.282,46.282 72.282,109.053 72.282,174.505l0,2411.81c0,65.452 -26,128.223 -72.282,174.505c-46.282,46.282 -109.053,72.283 -174.506,72.283l-900.376,-0c-65.453,-0 -128.224,-26.001 -174.506,-72.283c-46.282,-46.282 -72.282,-109.053 -72.282,-174.505l-0,-2411.81c-0,-65.452 26,-128.223 72.282,-174.505c46.282,-46.282 109.053,-72.283 174.506,-72.283l900.376,0Zm0,19.892l-900.376,-0c-60.177,-0 -117.889,23.905 -160.44,66.456c-42.552,42.552 -66.457,100.264 -66.457,160.44l0,2411.81c0,60.176 23.905,117.888 66.457,160.44c42.551,42.551 100.263,66.456 160.44,66.456l900.376,0c60.177,0 117.889,-23.905 160.44,-66.456c42.552,-42.552 66.457,-100.264 66.457,-160.44l-0,-2411.81c-0,-60.176 -23.905,-117.888 -66.457,-160.44c-42.551,-42.551 -100.263,-66.456 -160.44,-66.456Z" style="fill:#b4b4b4;"/><rect x="531.56" y="1176.87" width="13.141" height="134.314" style="fill:#b4b4b4;"/><rect x="1938.65" y="1483.82" width="10.229" height="344.616" style="fill:#b4b4b4;"/><rect x="531.56" y="1410.27" width="13.141" height="216.81" style="fill:#b4b4b4;"/><rect x="531.56" y="1684.52" width="13.141" height="216.383" style="fill:#b4b4b4;"/><g><path d="M1382.17,673.061c32.024,-0 57.984,25.96 57.984,57.984c0,0.002 0,0.004 0,0.006c0,32.023 -25.96,57.984 -57.984,57.984c-75.998,-0 -208.531,-0 -284.529,-0c-32.024,-0 -57.984,-25.961 -57.984,-57.984c0,-0.002 0,-0.004 0,-0.006c0,-32.024 25.96,-57.984 57.984,-57.984c75.998,-0 208.531,-0 284.529,-0Z"/><path d="M1237.49,673.061c32.024,-0 57.984,25.96 57.984,57.984c-0,0.002 -0,0.004 -0,0.006c-0,32.023 -25.96,57.984 -57.984,57.984c-41.815,-0 -98.024,-0 -139.839,-0c-32.024,-0 -57.984,-25.961 -57.984,-57.984c0,-0.002 0,-0.004 0,-0.006c0,-32.024 25.96,-57.984 57.984,-57.984c41.815,-0 98.024,-0 139.839,-0Z" style="fill:#313131;"/><path d="M1233.14,692.794c21.07,-0 38.15,17.08 38.15,38.149l-0,0.004c-0,21.069 -17.08,38.149 -38.15,38.149l-129.76,0c-21.07,0 -38.15,-17.08 -38.15,-38.149c0,-0.002 0,-0.003 0,-0.004c0,-21.069 17.08,-38.149 38.15,-38.149c36.984,-0 92.776,-0 129.76,-0Z"/><ellipse cx="1382.98" cy="731.048" rx="57.172" ry="57.987" style="fill:#2f2f2f;"/><ellipse cx="1382.98" cy="731.048" rx="36.251" ry="36.644"/><ellipse cx="1382.98" cy="731.048" rx="31.147" ry="31.485" style="fill:#212121;"/><ellipse cx="1382.98" cy="731.048" rx="19.17" ry="19.378"/><ellipse cx="1382.98" cy="731.048" rx="11.824" ry="11.952" style="fill:#2f2f2f;"/></g></g></svg>