<?xml version="1.0" encoding="UTF-8" standalone="no"?>
<!DOCTYPE svg PUBLIC "-//W3C//DTD SVG 1.1//EN" "http://www.w3.org/Graphics/SVG/1.1/DTD/svg11.dtd">
<svg width="100%" height="100%" viewBox="0 0 3544 3071" version="1.1" xmlns="http://www.w3.org/2000/svg" xmlns:xlink="http://www.w3.org/1999/xlink" xml:space="preserve" xmlns:serif="http://www.serif.com/" style="fill-rule:evenodd;clip-rule:evenodd;stroke-linejoin:round;stroke-miterlimit:2;">
    <rect id="template_dalmata5" x="0" y="0" width="3543.31" height="3070.87"/>
    <g>
        <path d="M1259.96,414.905L1529.91,1954.39C1536.89,1994.19 1510.24,2032.16 1470.45,2039.14L893.598,2140.29C853.8,2147.27 815.826,2120.62 808.848,2080.83L538.9,541.343C531.922,501.546 558.565,463.569 598.362,456.591L1175.21,355.441C1215.01,348.463 1252.98,375.109 1259.96,414.905Z" style="fill:rgb(13,13,13);"/>
    </g>
    <path d="M3002.57,1163.38L2564.87,2663.81C2553.56,2702.6 2512.88,2724.91 2474.09,2713.59L1911.88,2549.58C1873.09,2538.27 1850.79,2497.59 1862.1,2458.8L2299.8,958.371C2311.12,919.584 2351.79,897.278 2390.58,908.593L2952.8,1072.6C2991.59,1083.92 3013.89,1124.59 3002.57,1163.38Z" style="fill:rgb(13,13,13);"/>
    <g id="ILUSTRAÇÃO">
    </g>
    <g id="LOGO">
    </g>
</svg>
