<?xml version="1.0" encoding="UTF-8" standalone="no"?>
<!DOCTYPE svg PUBLIC "-//W3C//DTD SVG 1.1//EN" "http://www.w3.org/Graphics/SVG/1.1/DTD/svg11.dtd">
<svg width="100%" height="100%" viewBox="0 0 1773 1773" version="1.1" xmlns="http://www.w3.org/2000/svg" xmlns:xlink="http://www.w3.org/1999/xlink" xml:space="preserve" xmlns:serif="http://www.serif.com/" style="fill-rule:evenodd;clip-rule:evenodd;stroke-linejoin:round;stroke-miterlimit:2;">
    <rect id="template_buldogue" x="0.541" y="0.716" width="1771.65" height="1771.65" style="fill:rgb(213,233,219);"/>
    <clipPath id="_clip1">
        <rect x="0.541" y="0.716" width="1771.65" height="1771.65"/>
    </clipPath>
    <g clip-path="url(#_clip1)">
        <path d="M911.639,79.303L542.342,718.944C530.065,740.208 502.835,747.504 481.571,735.228L173.354,557.279C152.09,545.002 144.794,517.771 157.071,496.508L526.368,-143.133C538.644,-164.397 565.875,-171.693 587.138,-159.417L895.355,18.532C916.619,30.809 923.915,58.039 911.639,79.303Z" style="fill:rgb(138,193,154);"/>
        <path d="M850.705,976.168L850.705,1539.88C850.705,1564.43 830.771,1584.37 806.217,1584.37L450.319,1584.37C425.766,1584.37 405.832,1564.43 405.832,1539.88L405.832,976.168C405.832,951.615 425.766,931.681 450.319,931.681L806.217,931.681C830.771,931.681 850.705,951.615 850.705,976.168Z" style="fill:rgb(138,193,154);"/>
        <path d="M1666.68,448.457L1860.03,1170.03C1869.27,1204.5 1848.78,1240 1814.3,1249.23L1314.57,1383.14C1280.09,1392.37 1244.6,1371.88 1235.36,1337.41L1042.02,615.836C1032.78,581.36 1053.27,545.869 1087.75,536.632L1587.48,402.728C1621.95,393.49 1657.45,413.981 1666.68,448.457Z" style="fill:rgb(138,193,154);"/>
    </g>
</svg>
