<?xml version="1.0" encoding="UTF-8" standalone="no"?>
<!DOCTYPE svg PUBLIC "-//W3C//DTD SVG 1.1//EN" "http://www.w3.org/Graphics/SVG/1.1/DTD/svg11.dtd">
<svg width="100%" height="100%" viewBox="0 0 1773 1773" version="1.1" xmlns="http://www.w3.org/2000/svg" xmlns:xlink="http://www.w3.org/1999/xlink" xml:space="preserve" xmlns:serif="http://www.serif.com/" style="fill-rule:evenodd;clip-rule:evenodd;stroke-linejoin:round;stroke-miterlimit:2;">
    <rect id="template_todos" x="0.594" y="0.716" width="1771.65" height="1771.65" style="fill:white;"/>
    <path d="M1161.94,388.255L1161.94,1281.48C1161.94,1309.35 1139.31,1331.98 1111.43,1331.98L707.408,1331.98C679.534,1331.98 656.905,1309.35 656.905,1281.48L656.905,388.255C656.905,360.381 679.534,337.752 707.408,337.752L1111.43,337.752C1139.31,337.752 1161.94,360.381 1161.94,388.255Z" style="fill:rgb(244,200,103);"/>
    <path d="M754.07,759.721L754.07,1357.08C754.07,1376.89 737.985,1392.98 718.172,1392.98L430.986,1392.98C411.173,1392.98 395.087,1376.89 395.087,1357.08L395.087,759.721C395.087,739.909 411.173,723.823 430.986,723.823L718.172,723.823C737.985,723.823 754.07,739.909 754.07,759.721Z" style="fill:rgb(181,150,220);"/>
    <path d="M1073.35,1375.26L1073.35,820.145C1073.35,810.367 1081.29,802.429 1091.07,802.429L1232.8,802.429C1242.58,802.429 1250.52,810.367 1250.52,820.145L1250.52,1375.26C1250.52,1385.04 1242.58,1392.98 1232.8,1392.98L1091.07,1392.98C1081.29,1392.98 1073.35,1385.04 1073.35,1375.26Z" style="fill:rgb(237,149,146);"/>
    <path d="M516.643,847.208L516.643,1397.21C516.643,1411.14 505.336,1422.44 491.409,1422.44L289.543,1422.44C275.616,1422.44 264.309,1411.14 264.309,1397.21L264.309,847.208C264.309,833.281 275.616,821.974 289.543,821.974L491.409,821.974C505.336,821.974 516.643,833.281 516.643,847.208Z" style="fill:rgb(172,148,143);"/>
    <path d="M1390.42,1082.67L1390.42,1393.69C1390.42,1404.99 1381.25,1414.16 1369.96,1414.16L1206.25,1414.16C1194.95,1414.16 1185.78,1404.99 1185.78,1393.69L1185.78,1082.67C1185.78,1071.38 1194.95,1062.21 1206.25,1062.21L1369.96,1062.21C1381.25,1062.21 1390.42,1071.38 1390.42,1082.67Z" style="fill:rgb(138,193,154);"/>
    <path d="M1390.42,1199.11C1421.75,1199.11 1451.79,1211.56 1473.94,1233.71C1496.09,1255.86 1508.53,1285.9 1508.53,1317.22L1508.53,1317.22C1508.53,1348.55 1496.09,1378.59 1473.94,1400.74C1451.79,1422.89 1421.75,1435.33 1390.42,1435.33L1390.42,1435.33C1359.1,1435.33 1329.06,1422.89 1306.91,1400.74C1284.76,1378.59 1272.31,1348.55 1272.31,1317.22L1272.31,1317.22C1272.31,1285.9 1284.76,1255.86 1306.91,1233.71C1329.06,1211.56 1359.1,1199.11 1390.42,1199.11L1390.42,1199.11Z" style="fill:rgb(150,183,220);"/>
</svg>
