<?xml version="1.0" encoding="UTF-8" standalone="no"?>
<!DOCTYPE svg PUBLIC "-//W3C//DTD SVG 1.1//EN" "http://www.w3.org/Graphics/SVG/1.1/DTD/svg11.dtd">
<svg width="100%" height="100%" viewBox="0 0 1763 1511" version="1.1" xmlns="http://www.w3.org/2000/svg" xmlns:xlink="http://www.w3.org/1999/xlink" xml:space="preserve" xmlns:serif="http://www.serif.com/" style="fill-rule:evenodd;clip-rule:evenodd;stroke-linejoin:round;stroke-miterlimit:2;">
    <g transform="matrix(1,0,0,1,-17578,-6423)">
        <g id="template_husky3" transform="matrix(0.974748,0,0,1.05461,14400.5,1171.67)">
            <rect x="3260.61" y="4980.06" width="1807.49" height="1431.8" style="fill:rgb(150,105,205);"/>
            <g transform="matrix(0.716293,-0.187842,0.241055,0.785264,2088.96,1126.55)">
                <path d="M666.962,5286.4L666.962,6195.47C666.962,6218.97 644.332,6238.05 616.459,6238.05L212.434,6238.05C184.56,6238.05 161.931,6218.97 161.931,6195.47L161.931,5286.4C161.931,5262.9 184.56,5243.82 212.434,5243.82L616.459,5243.82C644.332,5243.82 666.962,5262.9 666.962,5286.4Z" style="fill:rgb(99,66,140);"/>
            </g>
            <g transform="matrix(0.699856,0.234883,-0.301423,0.767244,5928.17,1322.2)">
                <path d="M666.962,5286.4L666.962,6195.47C666.962,6218.97 644.332,6238.05 616.459,6238.05L212.434,6238.05C184.56,6238.05 161.931,6218.97 161.931,6195.47L161.931,5286.4C161.931,5262.9 184.56,5243.82 212.434,5243.82L616.459,5243.82C644.332,5243.82 666.962,5262.9 666.962,5286.4Z" style="fill:rgb(99,66,140);"/>
            </g>
        </g>
    </g>
</svg>
