<?xml version="1.0" encoding="UTF-8" standalone="no"?>
<!DOCTYPE svg PUBLIC "-//W3C//DTD SVG 1.1//EN" "http://www.w3.org/Graphics/SVG/1.1/DTD/svg11.dtd">
<svg width="100%" height="100%" viewBox="0 0 1773 1773" version="1.1" xmlns="http://www.w3.org/2000/svg" xmlns:xlink="http://www.w3.org/1999/xlink" xml:space="preserve" xmlns:serif="http://www.serif.com/" style="fill-rule:evenodd;clip-rule:evenodd;stroke-linejoin:round;stroke-miterlimit:2;">
    <rect id="template_tecnico1" x="0.953" y="0.421" width="1771.65" height="1771.65" style="fill:white;"/>
    <g>
        <path d="M478.1,290.109L478.1,771.3C478.1,783.739 467.341,793.839 454.09,793.839L262.015,793.839C248.764,793.839 238.006,783.739 238.006,771.3L238.006,290.109C238.006,277.67 248.764,267.57 262.015,267.57L454.09,267.57C467.341,267.57 478.1,277.67 478.1,290.109Z" style="fill:none;stroke:black;stroke-width:3.76px;"/>
    </g>
    <g>
        <path d="M478.1,1001.19L478.1,1482.39C478.1,1494.83 467.341,1504.92 454.09,1504.92L262.015,1504.92C248.764,1504.92 238.006,1494.83 238.006,1482.39L238.006,1001.19C238.006,988.755 248.764,978.656 262.015,978.656L454.09,978.656C467.341,978.656 478.1,988.755 478.1,1001.19Z" style="fill:none;stroke:black;stroke-width:3.76px;"/>
    </g>
    <g>
        <path d="M1226,290.109L1226,771.3C1226,783.739 1215.24,793.839 1201.99,793.839L1009.91,793.839C996.66,793.839 985.902,783.739 985.902,771.3L985.902,290.109C985.902,277.67 996.66,267.57 1009.91,267.57L1201.99,267.57C1215.24,267.57 1226,277.67 1226,290.109Z" style="fill:none;stroke:black;stroke-width:3.76px;"/>
    </g>
    <g>
        <path d="M1226,1001.19L1226,1482.39C1226,1494.83 1215.24,1504.92 1201.99,1504.92L1009.91,1504.92C996.66,1504.92 985.902,1494.83 985.902,1482.39L985.902,1001.19C985.902,988.755 996.66,978.656 1009.91,978.656L1201.99,978.656C1215.24,978.656 1226,988.755 1226,1001.19Z" style="fill:none;stroke:black;stroke-width:3.76px;"/>
    </g>
    <g>
        <path d="M784.359,290.109L784.359,771.3C784.359,783.739 773.601,793.839 760.35,793.839L568.275,793.839C555.023,793.839 544.265,783.739 544.265,771.3L544.265,290.109C544.265,277.67 555.023,267.57 568.275,267.57L760.35,267.57C773.601,267.57 784.359,277.67 784.359,290.109Z" style="fill:none;stroke:black;stroke-width:3.76px;"/>
    </g>
    <g>
        <path d="M784.359,1001.19L784.359,1482.39C784.359,1494.83 773.601,1504.92 760.35,1504.92L568.275,1504.92C555.023,1504.92 544.265,1494.83 544.265,1482.39L544.265,1001.19C544.265,988.755 555.023,978.656 568.275,978.656L760.35,978.656C773.601,978.656 784.359,988.755 784.359,1001.19Z" style="fill:none;stroke:black;stroke-width:3.76px;"/>
    </g>
    <g>
        <path d="M1535.55,290.109L1535.55,771.3C1535.55,783.739 1524.8,793.839 1511.54,793.839L1319.47,793.839C1306.22,793.839 1295.46,783.739 1295.46,771.3L1295.46,290.109C1295.46,277.67 1306.22,267.57 1319.47,267.57L1511.54,267.57C1524.8,267.57 1535.55,277.67 1535.55,290.109Z" style="fill:none;stroke:black;stroke-width:3.76px;"/>
    </g>
    <g>
        <path d="M1535.55,1001.19L1535.55,1482.39C1535.55,1494.83 1524.8,1504.92 1511.54,1504.92L1319.47,1504.92C1306.22,1504.92 1295.46,1494.83 1295.46,1482.39L1295.46,1001.19C1295.46,988.755 1306.22,978.656 1319.47,978.656L1511.54,978.656C1524.8,978.656 1535.55,988.755 1535.55,1001.19Z" style="fill:none;stroke:black;stroke-width:3.76px;"/>
    </g>
</svg>
