<?xml version="1.0" encoding="UTF-8" standalone="no"?>
<!DOCTYPE svg PUBLIC "-//W3C//DTD SVG 1.1//EN" "http://www.w3.org/Graphics/SVG/1.1/DTD/svg11.dtd">
<svg width="100%" height="100%" viewBox="0 0 1182 1773" version="1.1" xmlns="http://www.w3.org/2000/svg" xmlns:xlink="http://www.w3.org/1999/xlink" xml:space="preserve" xmlns:serif="http://www.serif.com/" style="fill-rule:evenodd;clip-rule:evenodd;stroke-linejoin:round;stroke-miterlimit:2;">
    <rect id="template_poddle" x="0.332" y="0.716" width="1181.1" height="1771.65" style="fill:rgb(225,217,215);"/>
    <path d="M889.185,520.936L889.185,1252.15C889.185,1270.66 874.153,1285.7 855.637,1285.7L587.26,1285.7C568.745,1285.7 553.713,1270.66 553.713,1252.15L553.713,520.936C553.713,502.421 568.745,487.389 587.26,487.389L855.637,487.389C874.153,487.389 889.185,502.421 889.185,520.936Z" style="fill:rgb(137,103,95);fill-opacity:0.6;"/>
    <path d="M628.052,520.936L628.052,1252.15C628.052,1270.66 613.02,1285.7 594.505,1285.7L326.128,1285.7C307.613,1285.7 292.581,1270.66 292.581,1252.15L292.581,520.936C292.581,502.421 307.613,487.389 326.128,487.389L594.505,487.389C613.02,487.389 628.052,502.421 628.052,520.936Z" style="fill:rgb(196,179,175);"/>
</svg>
