<?xml version="1.0" encoding="UTF-8" standalone="no"?>
<!DOCTYPE svg PUBLIC "-//W3C//DTD SVG 1.1//EN" "http://www.w3.org/Graphics/SVG/1.1/DTD/svg11.dtd">
<svg width="100%" height="100%" viewBox="0 0 1773 1773" version="1.1" xmlns="http://www.w3.org/2000/svg" xmlns:xlink="http://www.w3.org/1999/xlink" xml:space="preserve" xmlns:serif="http://www.serif.com/" style="fill-rule:evenodd;clip-rule:evenodd;stroke-linejoin:round;stroke-miterlimit:2;">
    <rect id="template_tecnico5" x="0.59" y="0.421" width="1771.65" height="1771.65" style="fill:white;"/>
    <g>
        <path d="M477.737,290.109L477.737,771.3C477.737,783.739 466.979,793.839 453.728,793.839L261.653,793.839C248.401,793.839 237.643,783.739 237.643,771.3L237.643,290.109C237.643,277.67 248.401,267.57 261.653,267.57L453.728,267.57C466.979,267.57 477.737,277.67 477.737,290.109Z" style="fill:none;stroke:black;stroke-width:3.76px;"/>
    </g>
    <g>
        <path d="M477.737,1001.19L477.737,1482.39C477.737,1494.83 466.979,1504.92 453.728,1504.92L261.653,1504.92C248.401,1504.92 237.643,1494.83 237.643,1482.39L237.643,1001.19C237.643,988.755 248.401,978.656 261.653,978.656L453.728,978.656C466.979,978.656 477.737,988.755 477.737,1001.19Z" style="fill:none;stroke:black;stroke-width:3.76px;"/>
    </g>
    <g>
        <path d="M1225.63,290.109L1225.63,771.3C1225.63,783.739 1214.87,793.839 1201.62,793.839L1009.55,793.839C996.297,793.839 985.539,783.739 985.539,771.3L985.539,290.109C985.539,277.67 996.297,267.57 1009.55,267.57L1201.62,267.57C1214.87,267.57 1225.63,277.67 1225.63,290.109Z" style="fill:none;stroke:black;stroke-width:3.76px;"/>
    </g>
    <g>
        <path d="M1225.63,1001.19L1225.63,1482.39C1225.63,1494.83 1214.87,1504.92 1201.62,1504.92L1009.55,1504.92C996.297,1504.92 985.539,1494.83 985.539,1482.39L985.539,1001.19C985.539,988.755 996.297,978.656 1009.55,978.656L1201.62,978.656C1214.87,978.656 1225.63,988.755 1225.63,1001.19Z" style="fill:none;stroke:black;stroke-width:3.76px;"/>
    </g>
    <g>
        <path d="M783.996,290.109L783.996,771.3C783.996,783.739 773.238,793.839 759.987,793.839L567.912,793.839C554.66,793.839 543.903,783.739 543.903,771.3L543.903,290.109C543.903,277.67 554.66,267.57 567.912,267.57L759.987,267.57C773.238,267.57 783.996,277.67 783.996,290.109Z" style="fill:none;stroke:black;stroke-width:3.76px;"/>
    </g>
    <g>
        <path d="M783.996,1001.19L783.996,1482.39C783.996,1494.83 773.238,1504.92 759.987,1504.92L567.912,1504.92C554.66,1504.92 543.903,1494.83 543.903,1482.39L543.903,1001.19C543.903,988.755 554.66,978.656 567.912,978.656L759.987,978.656C773.238,978.656 783.996,988.755 783.996,1001.19Z" style="fill:none;stroke:black;stroke-width:3.76px;"/>
    </g>
    <g>
        <path d="M1535.19,290.109L1535.19,771.3C1535.19,783.739 1524.43,793.839 1511.18,793.839L1319.11,793.839C1305.86,793.839 1295.1,783.739 1295.1,771.3L1295.1,290.109C1295.1,277.67 1305.86,267.57 1319.11,267.57L1511.18,267.57C1524.43,267.57 1535.19,277.67 1535.19,290.109Z" style="fill:none;stroke:black;stroke-width:3.76px;"/>
    </g>
    <g>
        <path d="M1535.19,1001.19L1535.19,1482.39C1535.19,1494.83 1524.43,1504.92 1511.18,1504.92L1319.11,1504.92C1305.86,1504.92 1295.1,1494.83 1295.1,1482.39L1295.1,1001.19C1295.1,988.755 1305.86,978.656 1319.11,978.656L1511.18,978.656C1524.43,978.656 1535.19,988.755 1535.19,1001.19Z" style="fill:none;stroke:black;stroke-width:3.76px;"/>
    </g>
</svg>
