<?xml version="1.0" encoding="UTF-8" standalone="no"?>
<!DOCTYPE svg PUBLIC "-//W3C//DTD SVG 1.1//EN" "http://www.w3.org/Graphics/SVG/1.1/DTD/svg11.dtd">
<svg width="100%" height="100%" viewBox="0 0 1773 1773" version="1.1" xmlns="http://www.w3.org/2000/svg" xmlns:xlink="http://www.w3.org/1999/xlink" xml:space="preserve" xmlns:serif="http://www.serif.com/" style="fill-rule:evenodd;clip-rule:evenodd;stroke-linejoin:round;stroke-miterlimit:2;">
    <rect id="template_tecnico6" x="0.749" y="0.421" width="1771.65" height="1771.65" style="fill:white;"/>
    <g>
        <path d="M477.896,290.109L477.896,771.3C477.896,783.739 467.138,793.839 453.887,793.839L261.812,793.839C248.56,793.839 237.803,783.739 237.803,771.3L237.803,290.109C237.803,277.67 248.561,267.57 261.812,267.57L453.887,267.57C467.138,267.57 477.896,277.67 477.896,290.109Z" style="fill:none;stroke:black;stroke-width:3.76px;"/>
    </g>
    <g>
        <path d="M477.896,1001.19L477.896,1482.39C477.896,1494.83 467.138,1504.92 453.887,1504.92L261.812,1504.92C248.56,1504.92 237.803,1494.83 237.803,1482.39L237.803,1001.19C237.803,988.755 248.561,978.656 261.812,978.656L453.887,978.656C467.138,978.656 477.896,988.755 477.896,1001.19Z" style="fill:none;stroke:black;stroke-width:3.76px;"/>
    </g>
    <g>
        <path d="M1225.79,290.109L1225.79,771.3C1225.79,783.739 1215.03,793.839 1201.78,793.839L1009.71,793.839C996.456,793.839 985.698,783.739 985.698,771.3L985.698,290.109C985.698,277.67 996.456,267.57 1009.71,267.57L1201.78,267.57C1215.03,267.57 1225.79,277.67 1225.79,290.109Z" style="fill:none;stroke:black;stroke-width:3.76px;"/>
    </g>
    <g>
        <path d="M1225.79,1001.19L1225.79,1482.39C1225.79,1494.83 1215.03,1504.92 1201.78,1504.92L1009.71,1504.92C996.456,1504.92 985.698,1494.83 985.698,1482.39L985.698,1001.19C985.698,988.755 996.456,978.656 1009.71,978.656L1201.78,978.656C1215.03,978.656 1225.79,988.755 1225.79,1001.19Z" style="fill:none;stroke:black;stroke-width:3.76px;"/>
    </g>
    <g>
        <path d="M784.156,290.109L784.156,771.3C784.156,783.739 773.397,793.839 760.146,793.839L568.071,793.839C554.82,793.839 544.062,783.739 544.062,771.3L544.062,290.109C544.062,277.67 554.82,267.57 568.071,267.57L760.146,267.57C773.397,267.57 784.156,277.67 784.156,290.109Z" style="fill:none;stroke:black;stroke-width:3.76px;"/>
    </g>
    <g>
        <path d="M784.156,1001.19L784.156,1482.39C784.156,1494.83 773.397,1504.92 760.146,1504.92L568.071,1504.92C554.82,1504.92 544.062,1494.83 544.062,1482.39L544.062,1001.19C544.062,988.755 554.82,978.656 568.071,978.656L760.146,978.656C773.397,978.656 784.156,988.755 784.156,1001.19Z" style="fill:none;stroke:black;stroke-width:3.76px;"/>
    </g>
    <g>
        <path d="M1535.35,290.109L1535.35,771.3C1535.35,783.739 1524.59,793.839 1511.34,793.839L1319.27,793.839C1306.01,793.839 1295.26,783.739 1295.26,771.3L1295.26,290.109C1295.26,277.67 1306.01,267.57 1319.27,267.57L1511.34,267.57C1524.59,267.57 1535.35,277.67 1535.35,290.109Z" style="fill:none;stroke:black;stroke-width:3.76px;"/>
    </g>
    <g>
        <path d="M1535.35,1001.19L1535.35,1482.39C1535.35,1494.83 1524.59,1504.92 1511.34,1504.92L1319.27,1504.92C1306.01,1504.92 1295.26,1494.83 1295.26,1482.39L1295.26,1001.19C1295.26,988.755 1306.01,978.656 1319.27,978.656L1511.34,978.656C1524.59,978.656 1535.35,988.755 1535.35,1001.19Z" style="fill:none;stroke:black;stroke-width:3.76px;"/>
    </g>
</svg>
