<?xml version="1.0" encoding="UTF-8" standalone="no"?>
<!DOCTYPE svg PUBLIC "-//W3C//DTD SVG 1.1//EN" "http://www.w3.org/Graphics/SVG/1.1/DTD/svg11.dtd">
<svg width="100%" height="100%" viewBox="0 0 4725 3544" version="1.1" xmlns="http://www.w3.org/2000/svg" xmlns:xlink="http://www.w3.org/1999/xlink" xml:space="preserve" xmlns:serif="http://www.serif.com/" style="fill-rule:evenodd;clip-rule:evenodd;stroke-linejoin:round;stroke-miterlimit:2;">
    <rect id="Prancheta1" x="0" y="0" width="4724.41" height="3543.31"/>
    <g id="iPhone3">
        <g>
            <g id="base">
                <g>
                    <path d="M4043.19,2789.7L4043.45,2819.83C4043.64,2830.92 4043.88,2844.47 4043.45,2859.49C4041.92,2912.03 4032.1,2982.52 3983.12,3028.32C3949.45,3059.8 3907.57,3068.45 3873.96,3070.38C3858.78,3071.25 3845.28,3070.76 3834.99,3070.38L3343.01,3070.38C3335.44,3070.03 3326.05,3071.43 3315.57,3070.38C3282.29,3067.05 3238,3057.5 3205.85,3024.66C3139.64,2957.02 3136.25,2866.78 3134.56,2821.66L3134.56,722.19C3135.2,677.218 3136.49,587.275 3183.91,531.994C3213.57,497.411 3310.31,462.017 3372.27,475.301L3874.07,619.6C3948.18,636.002 3995.9,681.956 4019,741.763C4004.97,708.084 3974.09,656.543 3889.68,632.552C3860.17,624.163 3836.58,617.499 3817.15,612.046C3693.38,577.305 3738.58,591.681 3498.15,521.978C3486.03,518.467 3473.2,514.742 3459.58,510.786C3413.83,497.5 3381.83,487.211 3356.11,488.017C3307.28,489.548 3285.84,516.784 3269.33,539.098C3235.89,584.294 3241.2,696.521 3240.63,740.739L3240.63,2808.52C3241.42,2853.04 3241.22,2878.47 3247.16,2911.6C3275.35,3068.76 3401.53,3050.44 3424.63,3053.44L3858.9,3053.44C3930.06,3053.92 3959.94,3043.03 3989.66,3012.02C4032.89,2966.93 4041.56,2897.51 4042.91,2845.78C4043.29,2830.98 4043.19,2806.72 4043.19,2806.72L4043.19,2789.7Z" style="fill:rgb(164,164,163);"/>
                    <path d="M4019,741.763C4020.94,746.419 4022.56,750.734 4023.95,754.588C4043.45,808.601 4042.91,866.663 4042.91,866.663L4043.01,1600.02L4043.04,2772.28L4043.19,2789.7L4043.19,2806.72C4043.19,2806.72 4043.29,2830.98 4042.91,2845.78C4041.56,2897.51 4032.89,2966.93 3989.66,3012.02C3959.94,3043.03 3930.06,3053.92 3858.9,3053.44L3424.63,3053.44C3401.53,3050.44 3275.35,3068.76 3247.16,2911.6C3241.22,2878.47 3241.42,2853.04 3240.63,2808.52L3240.63,740.739C3241.2,696.521 3235.89,584.294 3269.33,539.098C3285.84,516.784 3307.28,489.548 3356.11,488.017C3381.83,487.211 3413.83,497.5 3459.58,510.786C3473.2,514.742 3486.03,518.467 3498.15,521.978C3498.15,521.978 3509.56,529.518 3512.24,531.219C3512.86,531.611 3514.21,532.187 3514.21,532.187L3802.37,613.808C3802.37,613.808 3804.1,614.088 3804.96,613.985C3807.42,613.692 3817.15,612.046 3817.15,612.046C3836.58,617.499 3860.17,624.163 3889.68,632.552C3974.09,656.543 4004.97,708.084 4019,741.763ZM4030.76,1771.65L4030.78,1771.65L4030.65,885.024C4030.69,882.984 4031.77,821.983 4014.21,770.077C4010.38,758.762 4003.62,738.747 3989.89,718.374C3969.96,685.5 3935.29,656.028 3887.69,642.299C3842.64,629.308 3825.65,624.625 3819.79,623.147C3819.6,623.098 3814.15,624.808 3811.28,625.465C3809.98,625.761 3805.89,626.242 3802.07,625.431L3521.47,543.998C3520.12,543.616 3513.27,541.31 3509.43,539.309C3505.6,537.308 3498.46,531.994 3498.46,531.994C3486.94,528.606 3391.4,499.608 3366.26,498.989C3320.09,497.853 3287.88,525.611 3270.42,563.55C3261.1,583.79 3257.27,607.321 3255.19,630.12C3252.35,661.123 3253.65,730.618 3253.41,749.57L3253.41,2796.39C3244.26,3068.55 3410.68,3035.63 3433.22,3038.87L3857.61,3038.87C3866.49,3039.24 3878.1,3038.8 3891.22,3038.87C3973.62,3039.28 4016.01,2978.94 4024.77,2909.8C4028.65,2879.19 4030,2848.14 4030.65,2822.63C4031,2808.75 4030.92,2784.77 4030.92,2784.28L4030.92,2772.28L4030.78,2772.28L4030.76,1771.65Z" style="fill:rgb(105,105,105);"/>
                    <g>
                        <g>
                            <g>
                                <path d="M3262.45,2845.14L3262.45,653.959C3262.45,605.458 3275.83,563.043 3298.99,536.048C3321.61,509.67 3353.02,499.045 3386.37,508.842C3563.36,560.928 3740.34,613.014 3917.32,665.1C3946.46,673.681 3975.16,699.124 3996.41,737.1C4017.1,774.063 4028.81,819.52 4028.76,863.533C4028.12,1529.39 4027.48,2195.24 4026.84,2861.1C4026.8,2905.15 4014.95,2946.94 3994.34,2977.55C3973.12,3009.09 3944.45,3026.07 3915.37,3026.07L3385.98,3026.07C3353.96,3026.07 3322.39,3007.62 3298.88,2973.3C3275.68,2939.46 3262.45,2893.22 3262.45,2845.14Z" style="fill:rgb(105,152,205);"/>
                                <g id="icon">
                                    <g id="icon1" serif:id="icon">
                                        <path id="sinal" d="M3850.92,719.614C3850.92,717.453 3852.24,716.361 3853.37,716.683C3854.54,717.019 3855.8,718.922 3855.8,721.007C3855.8,730.255 3855.79,739.502 3855.78,748.75C3855.78,750.909 3854.47,752.006 3853.34,751.689C3852.16,751.358 3850.9,749.46 3850.9,747.374C3850.91,738.121 3850.91,728.867 3850.92,719.614ZM3841.42,723.765C3841.42,721.602 3842.74,720.508 3843.87,720.829C3845.05,721.165 3846.31,723.069 3846.31,725.156C3846.31,732.129 3846.3,739.103 3846.3,746.076C3846.29,748.238 3844.98,749.336 3843.85,749.019C3842.67,748.687 3841.4,746.787 3841.41,744.698C3841.41,737.72 3841.42,730.743 3841.42,723.765ZM3831.91,728.106C3831.91,725.94 3833.23,724.843 3834.36,725.164C3835.54,725.499 3836.81,727.405 3836.8,729.494C3836.8,734.129 3836.8,738.763 3836.79,743.398C3836.79,745.562 3835.47,746.662 3834.34,746.344C3833.16,746.012 3831.89,744.109 3831.9,742.018C3831.9,737.38 3831.9,732.743 3831.91,728.106ZM3822.38,732.469C3822.38,730.301 3823.7,729.201 3824.83,729.522C3826.01,729.856 3827.28,731.764 3827.28,733.856C3827.28,736.142 3827.28,738.429 3827.28,740.716C3827.28,742.882 3825.96,743.984 3824.82,743.665C3823.64,743.333 3822.37,741.427 3822.37,739.333C3822.37,737.045 3822.38,734.757 3822.38,732.469Z"/>
                                        <path id="wifi" d="M3873.7,727.692L3874.77,727.017C3877.02,725.811 3879.08,725.488 3879.47,725.427C3885.56,724.472 3890.78,728.387 3891.59,728.997L3893.39,730.444L3894.37,731.343L3894.98,731.953L3896.03,733.076L3896.25,733.327L3897.21,734.49L3897.41,734.746L3898.89,736.807L3899.72,738.142L3900.89,740.345C3901.14,740.843 3901.45,741.387 3901.17,741.949L3900.35,742.982L3899.57,743.945C3899.28,744.303 3899,744.84 3898.52,744.478L3898.24,744.05L3897.67,743.026L3896.78,741.541C3895.58,739.668 3894.4,738.3 3894.17,738.035L3893.48,737.283L3891.92,735.778C3891.64,735.529 3890.04,734.11 3888.04,733.161C3887.46,732.885 3883.83,731.163 3880.13,731.812L3878.51,732.245C3877.02,732.804 3875.98,733.512 3875.77,733.651L3874.72,734.481L3873.78,735.388L3873.12,736.137L3872.4,737C3872.16,737.136 3872.03,737.065 3871.83,736.905L3871.59,736.56L3871.42,736.261L3871.05,735.574L3870.1,733.855L3869.68,733.076C3869.47,732.631 3869.48,732.215 3869.75,731.797L3870.3,730.991L3870.82,730.335L3871.26,729.828L3871.84,729.229L3872.69,728.461L3873.7,727.692ZM3877.67,739.309L3879.28,738.405L3880.12,738.1C3881.01,737.848 3881.34,737.788 3882.26,737.707L3883.72,737.745C3885.27,737.999 3885.22,737.925 3886.71,738.528C3888.96,739.441 3890.76,741.13 3891.06,741.417L3892.04,742.386C3893.31,743.723 3894.12,745.022 3894.28,745.27L3894.64,745.838L3895.02,746.506L3895.45,747.337C3895.65,747.729 3895.87,748.128 3895.78,748.585C3895.72,748.898 3895.44,749.151 3895.26,749.376L3893.76,751.204C3893.57,751.443 3893.34,751.88 3892.94,751.704C3892.49,751.504 3892.32,750.779 3892.12,750.448C3891.24,748.978 3890.51,748.136 3890.35,747.952L3890.02,747.57C3887.98,745.284 3886.11,744.632 3885.71,744.493C3884.96,744.232 3883.89,744.086 3883.1,744.185C3882.53,744.258 3882.07,744.366 3881.53,744.602L3880.97,744.869L3880.65,745.032L3879.94,745.494L3879.78,745.622L3878.84,746.518L3878.43,747.011C3878.2,747.304 3878.09,747.568 3877.7,747.393L3877.52,747.259L3877.15,746.665L3875.95,744.482L3875.11,742.936C3874.91,742.451 3875.04,742.149 3875.31,741.749L3875.72,741.182C3876.44,740.287 3876.77,740.015 3877.67,739.309ZM3881.97,751.097L3882.47,750.751C3883.27,750.316 3884.01,750.101 3884.9,750.225L3885.99,750.54C3886.83,750.942 3887.26,751.249 3887.92,751.914L3889.07,753.342L3889.45,753.949L3889.71,754.417C3889.94,754.859 3890.15,755.209 3890.04,755.707C3889.95,756.102 3889.43,756.566 3889.22,756.816L3888.96,757.13L3888.09,758.149L3887.63,758.687L3886.15,760.406C3885.87,760.663 3885.65,760.801 3885.27,760.641C3884.93,760.398 3884.82,760.214 3884.6,759.868L3883.99,758.822L3883.44,757.857L3881.34,754.196C3881.1,753.76 3880.66,753.236 3880.76,752.661C3880.82,752.344 3881.23,751.86 3881.38,751.675L3881.97,751.097Z"/>
                                        <path id="battery" d="M3957.09,746.343C3957.86,746.563 3958.46,747.256 3958.83,747.917C3959.3,748.753 3959.55,749.765 3959.55,750.721C3959.54,759.772 3959.54,768.822 3959.53,777.872C3959.53,778.68 3959.34,779.62 3958.8,780.268C3958.36,780.8 3957.75,781.047 3957.06,780.854C3943.84,777.132 3930.61,773.41 3917.38,769.688C3916.61,769.47 3916,768.776 3915.63,768.113C3915.16,767.273 3914.91,766.256 3914.91,765.295C3914.91,756.194 3914.92,747.093 3914.93,737.992C3914.93,737.18 3915.12,736.235 3915.66,735.586C3916.1,735.051 3916.72,734.809 3917.41,735.005C3930.64,738.784 3943.87,742.563 3957.09,746.343ZM3957.09,748.546C3943.86,744.77 3930.64,740.994 3917.41,737.219C3917.13,737.14 3916.88,737.237 3916.71,737.452C3916.49,737.712 3916.41,738.091 3916.41,738.416C3916.41,747.515 3916.4,756.614 3916.39,765.714L3916.68,766.843C3916.83,767.109 3917.07,767.387 3917.38,767.474C3930.61,771.2 3943.84,774.926 3957.06,778.651C3957.34,778.729 3957.59,778.63 3957.76,778.416C3957.98,778.157 3958.05,777.78 3958.05,777.456C3958.06,768.404 3958.07,759.352 3958.08,750.301L3957.79,749.176C3957.64,748.912 3957.4,748.634 3957.09,748.546ZM3948.75,771.53C3948.75,771.855 3948.68,772.232 3948.46,772.491C3948.29,772.705 3948.04,772.804 3947.76,772.726C3938.38,770.079 3928.99,767.432 3919.61,764.785C3919.3,764.698 3919.06,764.419 3918.91,764.154L3918.62,763.025C3918.63,756.104 3918.63,749.183 3918.64,742.262C3918.64,741.937 3918.71,741.558 3918.93,741.298C3919.11,741.084 3919.36,740.986 3919.63,741.065C3929.01,743.74 3938.4,746.414 3947.78,749.089C3948.09,749.177 3948.33,749.455 3948.48,749.72L3948.77,750.846C3948.76,757.741 3948.76,764.635 3948.75,771.53ZM3961.35,757.47L3961.78,757.59C3963.57,758.1 3964.67,760.063 3964.83,760.35C3966.1,762.6 3966.09,764.866 3966.09,765.273L3966.09,765.277C3966.09,765.628 3966.09,767.95 3964.82,769.481C3964.08,770.379 3962.91,770.83 3961.76,770.507L3961.34,770.388L3961.35,757.47Z"/>
                                    </g>
                                    <path d="M3369.19,614.582L3373.52,615.8L3373.53,580.497L3369.21,579.265L3362.88,583.923L3362.88,589.998L3368.91,585.543L3369.2,585.625L3369.19,614.582Z" style="fill-rule:nonzero;"/>
                                    <path d="M3391.6,620.889L3395.73,622.052L3395.74,615.488L3398.99,616.409L3399,611.091L3395.74,610.169L3395.74,586.841L3389.65,585.101L3379.8,605.367L3379.8,610.99L3391.6,614.322L3391.6,620.889ZM3383.8,606.573L3391.44,590.74L3391.67,590.807L3391.67,609.166L3383.8,606.94L3383.8,606.573Z" style="fill-rule:nonzero;"/>
                                    <path d="M3403.87,616.835C3403.87,618.621 3404.61,621.088 3406.68,621.672C3408.83,622.28 3409.47,620.036 3409.47,618.414C3409.47,616.636 3408.74,614.188 3406.68,613.606C3404.54,613.001 3403.87,615.19 3403.87,616.835ZM3403.88,598.453C3403.88,600.238 3404.62,602.687 3406.68,603.273C3408.82,603.881 3409.47,601.675 3409.47,600.045C3409.47,598.262 3408.75,595.796 3406.68,595.206C3404.53,594.593 3403.88,596.815 3403.88,598.453Z" style="fill-rule:nonzero;"/>
                                    <path d="M3420.74,629.09L3425.03,630.299L3425.04,595.208L3420.76,593.986L3414.47,598.62L3414.47,604.658L3420.46,600.227L3420.74,600.307L3420.74,629.09Z" style="fill-rule:nonzero;"/>
                                    <path d="M3441.03,635.651C3447.13,637.368 3449.92,630.814 3449.93,625.861C3449.93,620.583 3447.76,613.605 3442.05,611.982C3438.99,611.115 3436.87,612.712 3435.83,615.463L3435.55,615.382C3435.55,614.009 3435.53,602.576 3441.13,604.174C3443.57,604.868 3444.89,607.432 3445.32,609.661L3449.6,610.879C3449.01,605.986 3446.29,600.404 3441.17,598.941C3432.33,596.415 3431.44,609.745 3431.44,614.947L3433.14,626.506C3434.39,630.383 3436.84,634.473 3441.03,635.651ZM3440.98,630.418C3437.62,629.47 3436.26,624.918 3436.26,622.094C3436.26,619.465 3437.69,615.723 3441.01,616.665C3444.38,617.618 3445.73,621.83 3445.73,624.868C3445.73,627.317 3444.41,631.385 3440.98,630.418Z" style="fill-rule:nonzero;"/>
                                </g>
                            </g>
                        </g>
                    </g>
                    <path d="M4030.78,2772.28L4030.92,2772.28L4030.92,2784.28C4030.92,2784.77 4031,2808.75 4030.65,2822.63C4030,2848.14 4028.65,2879.19 4024.77,2909.8C4016.01,2978.94 3973.62,3039.28 3891.22,3038.87C3878.1,3038.8 3866.49,3039.24 3857.61,3038.87L3433.22,3038.87C3410.68,3035.63 3244.26,3068.55 3253.41,2796.39L3253.41,749.57C3253.65,730.618 3252.35,661.123 3255.19,630.12C3257.27,607.321 3261.1,583.79 3270.42,563.55C3287.88,525.611 3320.09,497.853 3366.26,498.989C3391.4,499.608 3486.94,528.606 3498.46,531.994C3498.46,531.994 3505.6,537.308 3509.43,539.309C3513.27,541.31 3520.12,543.616 3521.47,543.998L3802.07,625.431C3805.89,626.242 3809.98,625.761 3811.28,625.465C3814.15,624.808 3819.6,623.098 3819.79,623.147C3825.65,624.625 3842.64,629.308 3887.69,642.299C3935.29,656.028 3969.96,685.5 3989.89,718.374C4003.62,738.747 4010.38,758.762 4014.21,770.077C4031.77,821.983 4030.69,882.984 4030.65,885.024L4030.75,1600.02L4030.78,2772.28ZM4026.57,1771.65L4026.59,1771.65L4026.46,884.981C4026.46,884.981 4027.88,823.554 4010.24,771.42C4004.14,753.389 3990.5,712.66 3951.99,684.794C3934.12,671.863 3909.56,663.867 3880.57,655.378C3664.43,592.096 3781.85,628.924 3471.05,535.957C3427.49,522.927 3389.65,514.657 3365.16,515.448C3318.67,516.95 3301.94,538.195 3286.22,560.079C3274.76,576.036 3268.1,604.48 3265.29,628.406C3261.35,661.973 3262.93,733.727 3262.58,761.482L3262.58,2772.37C3262.58,2772.37 3262.3,2794.76 3262.58,2803.4C3263.69,2837.7 3259.16,2928.79 3306.71,2983.07C3326.97,3006.21 3355.02,3024.55 3399.76,3025.87C3410.11,3026.18 3426.95,3025.91 3437.78,3025.89L3851.26,3025.89C3859.91,3026.25 3873.06,3025.84 3885.84,3025.89C3929.33,3026.08 3956.61,3021.18 3984.91,2990.82C4026.07,2946.65 4025.18,2873.19 4026.46,2822.53C4026.83,2808.04 4026.63,2794.97 4026.46,2784.28L4026.46,2772.28L4026.59,2772.28L4026.57,1771.65Z"/>
                    <path d="M3817.15,612.046C3817.15,612.046 3807.42,613.692 3804.96,613.985C3804.1,614.088 3802.37,613.808 3802.37,613.808L3514.21,532.187C3514.21,532.187 3512.86,531.611 3512.24,531.219C3509.56,529.518 3498.15,521.978 3498.15,521.978C3738.58,591.681 3693.38,577.305 3817.15,612.046Z"/>
                </g>
            </g>
            <g id="cametra">
                <g>
                    <path d="M3734.04,751.272L3733.57,751.132L3576.88,708.074C3576.88,708.074 3574.54,707.41 3573.7,707.064C3567.06,704.306 3534.84,688.764 3542.35,638.065C3547.49,603.337 3572.88,608.565 3579.16,610.25C3579.99,610.472 3581.97,611.073 3581.97,611.073L3730.72,652.695L3747.18,658.182C3747.93,658.432 3748.72,658.745 3749.53,659.122C3751.2,659.93 3752.83,660.884 3754.38,661.975C3759.21,665.404 3764.34,670.856 3768.45,678.641C3773.51,688.377 3776.45,700.768 3776.44,714.875L3776.44,714.89C3776.36,760.276 3743.86,754.002 3736.29,751.925C3735.62,751.741 3734.62,751.446 3734.04,751.272ZM3655.92,635.72L3580.94,614.742L3580.86,614.718C3580.86,614.718 3578.97,614.143 3578.18,613.93C3574.9,613.051 3565.63,610.916 3557.79,615.986C3552.43,619.45 3547.95,626.252 3546.12,638.623C3543.27,657.852 3546.35,671.76 3551.6,681.68C3559.28,696.205 3571.47,702.013 3575.16,703.545C3575.84,703.824 3577.65,704.333 3577.89,704.4L3650.91,724.464C3652.3,724.944 3653.75,725.344 3655.23,725.652L3734.58,747.458L3734.67,747.484L3734.86,747.54C3743.44,750.532 3754.59,750.996 3762.13,745.18C3768.24,740.47 3772.61,731.362 3772.63,714.886L3772.63,714.869C3772.65,703.262 3770.69,693.749 3767.7,686.127C3762.37,672.303 3753.09,662.871 3741.69,660.369L3729.6,656.339L3660.81,637.091C3659.23,636.483 3657.59,636.023 3655.92,635.72Z"/>
                    <path d="M3655.92,635.72C3657.59,636.023 3659.23,636.483 3660.81,637.091L3729.6,656.339L3741.69,660.369C3753.09,662.871 3762.37,672.303 3767.7,686.127C3770.69,693.749 3772.65,703.262 3772.63,714.869L3772.63,714.886C3772.61,731.362 3768.24,740.47 3762.13,745.18C3754.59,750.996 3743.44,750.532 3734.86,747.54L3734.67,747.484L3734.58,747.458L3655.23,725.652C3653.75,725.344 3652.3,724.944 3650.91,724.464L3577.89,704.4C3577.65,704.333 3575.84,703.824 3575.16,703.545C3571.47,702.013 3559.28,696.205 3551.6,681.68C3546.35,671.76 3543.27,657.852 3546.12,638.623C3547.95,626.252 3552.43,619.45 3557.79,615.986C3565.63,610.916 3574.9,613.051 3578.18,613.93C3578.97,614.143 3580.86,614.718 3580.86,614.718L3580.94,614.742L3655.92,635.72Z"/>
                    <path d="M3655.23,725.847C3653.75,725.539 3652.3,725.139 3650.91,724.66L3577.89,704.596C3577.65,704.528 3575.84,704.019 3575.16,703.74C3571.47,702.208 3559.28,696.4 3551.6,681.875C3546.35,671.956 3543.27,658.048 3546.12,638.818C3547.95,626.447 3552.43,619.645 3557.79,616.182C3565.63,611.112 3574.9,613.247 3578.18,614.126C3578.97,614.338 3580.86,614.914 3580.86,614.914L3580.94,614.938C3580.94,614.938 3664.88,638.421 3667.59,639.182C3672.97,640.694 3676.2,643.663 3677.26,644.962C3685.97,655.528 3691.45,671.88 3691.44,691.186C3691.43,709.472 3686.15,719.335 3679.52,724.683C3676.92,726.776 3673.8,728.844 3670.81,729.133C3668.24,729.381 3667.23,729.034 3665.49,728.667C3662.89,728.119 3655.23,725.847 3655.23,725.847Z" style="fill:rgb(41,41,41);"/>
                    <path d="M3580.62,633.475C3594.94,637.022 3654.25,654.849 3654.25,654.849C3658.68,655.982 3664.45,659.284 3667.99,664.551C3672.55,671.328 3674.18,679.39 3674.17,689.791C3674.17,699.371 3668.52,706.738 3666.37,708.399C3664.9,709.538 3662.45,711.041 3655.06,709.256C3655.06,709.256 3597.43,695.5 3582.28,689.886C3574.94,687.168 3569.06,685.373 3564.15,675.573C3560.32,667.943 3557.53,657.495 3561.19,643.278C3562.72,637.336 3565.5,635.065 3568.36,633.563C3571.67,631.824 3576.66,632.494 3580.62,633.475Z"/>
                    <path d="M3772.63,714.869L3772.63,714.886C3772.6,731.324 3768.4,740.405 3762.53,745.113C3753.97,751.982 3742.49,749.349 3738.64,748.251C3737.9,748.041 3736.73,747.679 3736.29,747.54C3734.83,747.011 3733.44,746.402 3732.17,745.735C3721.3,740.035 3714.56,726.072 3711.19,713.06C3708.96,704.45 3708.81,692.242 3711.56,681.152C3714,671.281 3723.31,661.106 3733.65,659.899C3736.85,659.526 3739.93,659.699 3742.86,660.369L3746.98,661.796C3753.42,664.025 3762.44,671.677 3767.89,686.127C3770.94,694.336 3772.64,704.094 3772.63,714.869Z" style="fill:rgb(38,38,38);"/>
                    <path d="M3760.18,710.853L3760.18,710.863C3760.16,721.247 3757.68,726.982 3754.21,729.956C3749.15,734.295 3742.72,733.669 3738.43,731.327C3733.9,728.857 3727.84,723.517 3723.86,709.71C3722.22,703.984 3722.46,696.561 3724.08,689.556C3725.52,683.321 3731.03,676.895 3737.14,676.132C3739.03,675.897 3740.85,676.006 3742.58,676.429L3745.02,677.33C3748.82,678.738 3754.16,683.572 3757.38,692.698C3759.18,697.883 3760.18,704.047 3760.18,710.853Z" style="fill:rgb(39,55,64);"/>
                    <path d="M3747.36,700.736C3750.48,710.349 3748.49,716.764 3745.76,719.388C3743.35,721.7 3740.63,721.129 3738.65,720.38C3735.2,719.071 3731.67,713.002 3730.83,709.281C3729.95,705.391 3729.91,702.347 3730.6,699.163C3731.28,696.029 3734.08,692.68 3737.17,692.443C3741.15,692.138 3745.6,695.342 3747.36,700.736Z" style="fill:rgb(28,76,101);"/>
                </g>
            </g>
            <g id="antena">
                <path id="antena2" d="M3134.56,2772.28C3134.56,2772.28 3195.48,2770.55 3213.17,2770.45C3227.81,2770.38 3240.63,2770.59 3240.63,2770.59L3240.63,2796.75L3134.56,2797.89L3134.56,2772.28Z" style="fill:rgb(180,180,180);"/>
                <path id="antena1" d="M3134.59,720.167C3134.59,720.167 3190.17,704.593 3207.68,700.244C3223.94,696.206 3240.62,700.244 3240.62,700.244L3240.62,725.848C3240.62,725.848 3224.71,723.61 3213.17,725.848C3202.83,727.852 3134.56,747.441 3134.56,747.441L3134.59,720.167Z" style="fill:rgb(180,180,180);"/>
            </g>
            <g id="botao">
                <g id="botao4">
                    <g>
                        <path d="M3175.68,2300.45C3184.26,2300.45 3191.22,2307.41 3191.22,2316C3191.22,2364.97 3191.22,2515.74 3191.22,2564.72C3191.22,2573.3 3184.26,2580.26 3175.68,2580.26C3175.68,2580.26 3175.68,2580.26 3175.68,2580.26C3167.09,2580.26 3160.13,2573.3 3160.13,2564.72C3160.13,2515.74 3160.13,2364.97 3160.13,2316C3160.13,2307.41 3167.09,2300.45 3175.68,2300.45C3175.68,2300.45 3175.68,2300.45 3175.68,2300.45Z" style="fill:rgb(141,141,140);"/>
                        <path d="M3175.19,2301.88C3178.66,2301.88 3181.99,2303.26 3184.45,2305.72C3186.9,2308.17 3188.28,2311.51 3188.28,2314.98C3188.28,2361.57 3188.28,2518.99 3188.28,2565.59C3188.28,2569.06 3186.9,2572.39 3184.45,2574.85C3181.99,2577.3 3178.66,2578.68 3175.19,2578.68C3175.18,2578.68 3175.18,2578.68 3175.18,2578.68C3171.71,2578.68 3168.38,2577.3 3165.92,2574.85C3163.47,2572.39 3162.09,2569.06 3162.09,2565.59C3162.09,2518.99 3162.09,2361.57 3162.09,2314.98C3162.09,2311.51 3163.47,2308.17 3165.92,2305.72C3168.38,2303.26 3171.71,2301.88 3175.18,2301.88C3175.18,2301.88 3175.18,2301.88 3175.19,2301.88Z" style="fill:rgb(197,197,196);"/>
                        <g id="furo">
                            <ellipse cx="3175.18" cy="2324.23" rx="8.317" ry="12.802" style="fill:white;"/>
                            <ellipse cx="3175.78" cy="2323.31" rx="6.417" ry="10.058" style="fill:rgb(70,70,67);"/>
                            <clipPath id="_clip1">
                                <ellipse cx="3175.78" cy="2323.31" rx="6.417" ry="10.058"/>
                            </clipPath>
                            <g clip-path="url(#_clip1)">
                                <ellipse cx="3178.99" cy="2324.23" rx="3.208" ry="6.877" style="fill:white;"/>
                            </g>
                        </g>
                    </g>
                </g>
                <g id="botao3">
                    <path d="M3173.93,1433.6C3185.57,1433.6 3195.01,1447.75 3195.01,1465.21C3195.01,1504.79 3195.01,1562.05 3195.01,1601.63C3195.01,1619.09 3185.57,1643.36 3173.93,1643.36C3173.93,1643.36 3173.93,1643.36 3173.93,1643.36C3162.28,1643.36 3152.85,1629.2 3152.85,1611.74C3152.85,1572.17 3152.85,1504.79 3152.85,1465.21C3152.85,1447.75 3162.28,1433.6 3173.93,1433.6C3173.93,1433.6 3173.93,1433.6 3173.93,1433.6Z" style="fill:rgb(145,145,144);"/>
                    <path d="M3174.76,1433.64C3184.86,1433.64 3193.05,1447.16 3193.05,1463.83C3193.05,1503.64 3193.05,1560.27 3193.05,1600.08C3193.05,1621.05 3185.29,1642.13 3172.95,1643.28C3164.66,1644.05 3156.47,1634.01 3156.47,1613.09C3156.47,1573.28 3156.47,1503.64 3156.47,1463.83C3156.47,1447.16 3164.66,1433.64 3174.76,1433.64C3174.76,1433.64 3174.76,1433.64 3174.76,1433.64Z" style="fill:rgb(79,79,74);"/>
                    <path d="M3172.95,1439.79C3177.32,1439.79 3181.51,1441.53 3184.6,1444.62C3187.69,1447.71 3189.42,1451.9 3189.42,1456.27C3189.42,1493.26 3189.42,1582.59 3189.42,1619.59C3189.42,1623.95 3187.69,1628.14 3184.6,1631.23C3181.51,1634.32 3177.32,1636.06 3172.95,1636.06C3172.95,1636.06 3172.95,1636.06 3172.95,1636.06C3168.58,1636.06 3164.39,1634.32 3161.3,1631.23C3158.21,1628.14 3156.47,1623.95 3156.47,1619.59C3156.47,1582.59 3156.47,1493.26 3156.47,1456.27C3156.47,1451.9 3158.21,1447.71 3161.3,1444.62C3164.39,1441.53 3168.58,1439.79 3172.95,1439.79L3172.95,1439.79Z" style="fill:rgb(214,214,212);"/>
                    <path d="M3169.36,1444.42C3176.47,1444.42 3182.24,1450.19 3182.24,1457.31C3182.24,1490.82 3182.24,1580.44 3182.24,1613.96C3182.24,1621.08 3176.47,1626.84 3169.36,1626.84L3169.36,1626.84C3162.24,1626.84 3156.47,1621.08 3156.47,1613.96C3156.47,1580.44 3156.47,1490.82 3156.47,1457.31C3156.47,1450.19 3162.24,1444.42 3169.36,1444.42C3169.36,1444.42 3169.36,1444.42 3169.36,1444.42Z" style="fill:rgb(181,181,179);"/>
                </g>
                <g id="botao2">
                    <path d="M3173.93,1184.88C3185.57,1184.88 3195.01,1198.98 3195.01,1216.38C3195.01,1255.8 3195.01,1312.85 3195.01,1352.28C3195.01,1369.68 3185.57,1393.86 3173.93,1393.86C3173.93,1393.86 3173.93,1393.86 3173.93,1393.86C3162.28,1393.86 3152.85,1379.76 3152.85,1362.36C3152.85,1322.93 3152.85,1255.8 3152.85,1216.38C3152.85,1198.98 3162.28,1184.88 3173.93,1184.88C3173.93,1184.88 3173.93,1184.88 3173.93,1184.88Z" style="fill:rgb(145,145,144);"/>
                    <path d="M3174.76,1184.92C3184.86,1184.92 3193.05,1198.21 3193.05,1214.59C3193.05,1253.7 3193.05,1309.35 3193.05,1348.46C3193.05,1369.07 3185.29,1389.78 3172.95,1390.91C3164.66,1391.66 3156.47,1381.8 3156.47,1361.24C3156.47,1322.13 3156.47,1253.7 3156.47,1214.59C3156.47,1198.21 3164.66,1184.92 3174.76,1184.92C3174.76,1184.92 3174.76,1184.92 3174.76,1184.92Z" style="fill:rgb(79,79,74);"/>
                    <path d="M3172.95,1191.02C3182.05,1191.02 3189.42,1198.39 3189.42,1207.49C3189.42,1244.18 3189.42,1332.3 3189.42,1368.99C3189.42,1378.09 3182.05,1385.46 3172.95,1385.46C3172.95,1385.46 3172.95,1385.46 3172.95,1385.46C3163.85,1385.46 3156.47,1378.09 3156.47,1368.99C3156.47,1332.3 3156.47,1244.18 3156.47,1207.49C3156.47,1198.39 3163.85,1191.02 3172.95,1191.02C3172.95,1191.02 3172.95,1191.02 3172.95,1191.02Z" style="fill:rgb(214,214,212);"/>
                    <path d="M3169.36,1195.61C3176.47,1195.61 3182.24,1201.37 3182.24,1208.49C3182.24,1241.75 3182.24,1330.19 3182.24,1363.45C3182.24,1370.57 3176.47,1376.34 3169.36,1376.34C3169.36,1376.34 3169.36,1376.34 3169.36,1376.34C3162.24,1376.34 3156.47,1370.57 3156.47,1363.45C3156.47,1330.19 3156.47,1241.75 3156.47,1208.49C3156.47,1201.37 3162.24,1195.61 3169.36,1195.61C3169.36,1195.61 3169.36,1195.61 3169.36,1195.61Z" style="fill:rgb(181,181,179);"/>
                </g>
                <g id="botao1">
                    <path d="M3173.93,974.536C3185.57,974.536 3195.01,983.537 3195.01,994.639C3195.01,1019.8 3195.01,1056.21 3195.01,1081.37C3195.01,1092.47 3185.57,1107.9 3173.93,1107.9C3173.93,1107.9 3173.93,1107.9 3173.93,1107.9C3162.28,1107.9 3152.85,1098.9 3152.85,1087.8C3152.85,1062.64 3152.85,1019.8 3152.85,994.639C3152.85,983.537 3162.28,974.536 3173.93,974.536C3173.93,974.536 3173.93,974.536 3173.93,974.536Z" style="fill:rgb(145,145,144);"/>
                    <path d="M3174.76,974.566C3184.86,974.566 3193.05,983.163 3193.05,993.768C3193.05,1019.09 3193.05,1055.11 3193.05,1080.43C3193.05,1093.77 3185.29,1107.18 3172.95,1107.9C3164.66,1108.39 3156.47,1102.01 3156.47,1088.7C3156.47,1063.38 3156.47,1019.09 3156.47,993.768C3156.47,983.163 3164.66,974.566 3174.76,974.566C3174.76,974.566 3174.76,974.566 3174.76,974.566Z" style="fill:rgb(79,79,74);"/>
                    <path d="M3172.95,978.38C3177.32,978.38 3181.51,980.115 3184.6,983.204C3187.69,986.294 3189.42,990.483 3189.42,994.852C3189.42,1018.12 3189.42,1060.36 3189.42,1083.63C3189.42,1088 3187.69,1092.19 3184.6,1095.28C3181.51,1098.37 3177.32,1100.1 3172.95,1100.1C3172.95,1100.1 3172.95,1100.1 3172.95,1100.1C3168.58,1100.1 3164.39,1098.37 3161.3,1095.28C3158.21,1092.19 3156.47,1088 3156.47,1083.63L3156.47,994.852C3156.47,990.483 3158.21,986.294 3161.3,983.204C3164.39,980.115 3168.58,978.38 3172.95,978.38L3172.95,978.38Z" style="fill:rgb(214,214,212);"/>
                    <path d="M3169.36,981.251C3172.78,981.251 3176.05,982.608 3178.47,985.025C3180.89,987.441 3182.24,990.718 3182.24,994.135L3182.24,1081.5C3182.24,1084.92 3180.89,1088.2 3178.47,1090.61C3176.05,1093.03 3172.78,1094.39 3169.36,1094.39L3169.36,1094.39C3165.94,1094.39 3162.66,1093.03 3160.25,1090.61C3157.83,1088.2 3156.47,1084.92 3156.47,1081.5L3156.47,994.135C3156.47,990.718 3157.83,987.441 3160.25,985.025C3162.66,982.608 3165.94,981.251 3169.36,981.251L3169.36,981.251Z" style="fill:rgb(181,181,179);"/>
                </g>
            </g>
        </g>
    </g>
    <g id="iPhone2">
        <g>
            <g id="base1" serif:id="base">
                <g>
                    <g>
                        <path d="M1785.52,2845.97L1785.52,697.34C1785.52,650.221 1804.27,604.96 1837.59,571.638C1870.91,538.319 1916.17,519.57 1963.29,519.57L2765.42,519.57C2812.54,519.57 2857.8,538.315 2891.12,571.638C2924.44,604.956 2943.19,650.215 2943.19,697.34L2943.19,2845.97C2943.19,2893.09 2924.45,2938.35 2891.12,2971.67C2857.8,3004.99 2812.55,3023.74 2765.42,3023.74L1963.29,3023.74C1916.17,3023.74 1870.91,3004.99 1837.59,2971.67C1804.27,2938.35 1785.52,2893.09 1785.52,2845.97Z" style="fill:rgb(105,152,205);"/>
                        <g id="icon2" serif:id="icon">
                            <g id="icon3" serif:id="icon">
                                <path id="sinal1" serif:id="sinal" d="M2661.35,597.313C2661.35,595.237 2663.08,593.503 2665.16,593.503C2667.23,593.503 2668.97,595.237 2668.97,597.313L2668.97,626.461C2668.97,628.537 2667.23,630.271 2665.16,630.271C2663.08,630.271 2661.35,628.537 2661.35,626.461L2661.35,597.313ZM2646.54,604.507C2646.54,602.431 2648.28,600.697 2650.35,600.697C2652.43,600.697 2654.16,602.431 2654.16,604.507L2654.16,626.461C2654.16,628.537 2652.43,630.271 2650.35,630.271C2648.28,630.271 2646.54,628.537 2646.54,626.461L2646.54,604.507ZM2631.74,611.887C2631.74,609.811 2633.48,608.077 2635.55,608.077C2637.63,608.077 2639.36,609.811 2639.36,611.887L2639.36,626.461C2639.36,628.537 2637.63,630.271 2635.55,630.271C2633.48,630.271 2631.74,628.537 2631.74,626.461L2631.74,611.887ZM2616.94,619.278C2616.94,617.202 2618.68,615.468 2620.75,615.468C2622.83,615.468 2624.56,617.202 2624.56,619.278L2624.56,626.461C2624.56,628.537 2622.83,630.271 2620.75,630.271C2618.68,630.271 2616.94,628.537 2616.94,626.461L2616.94,619.278Z"/>
                                <path id="wifi1" serif:id="wifi" d="M2696.95,598.976L2698.63,597.944C2702.16,595.996 2705.38,595.038 2705.99,594.856C2707.45,594.421 2715.53,592.018 2725.01,594.971L2727.84,595.957L2729.38,596.61L2730.34,597.069L2731.99,597.939L2732.34,598.137L2733.85,599.076L2734.16,599.288L2736.49,601.019L2737.8,602.179L2739.65,604.153C2740.09,604.682 2740.5,605.134 2740.09,605.763L2738.8,607.1L2737.58,608.351C2737.03,608.906 2736.68,609.469 2735.93,609.228L2735.47,608.864L2734.58,607.951L2733.18,606.65C2732.88,606.388 2731.29,605.033 2729.08,603.733L2727.99,603.146L2725.53,602.028C2722.58,600.834 2719.94,600.497 2719.44,600.433C2718.45,600.307 2712.84,599.59 2707.04,601.384L2704.5,602.327C2702.16,603.363 2700.53,604.417 2700.21,604.629L2698.56,605.819L2697.09,607.053L2696.05,608.04L2694.93,609.164C2694.6,609.353 2694.4,609.363 2694.04,609.234L2693.66,608.943L2693.4,608.678L2692.81,608.068L2691.33,606.539L2690.68,605.846C2690.3,605.392 2690.44,604.898 2690.78,604.479L2691.64,603.467L2692.45,602.621L2693.13,601.957L2694.05,601.151L2695.38,600.088L2696.95,598.976ZM2703.19,610.02C2704.39,609.181 2704.32,609.306 2705.71,608.586L2707.03,608.013C2708.7,607.374 2708.62,607.399 2710.37,606.96L2712.67,606.561C2715.12,606.363 2715,606.3 2717.36,606.492C2720.89,606.78 2723.68,608.007 2724.2,608.234L2725.73,608.964C2726.03,609.119 2727.73,609.993 2729.26,611.336L2729.82,611.83L2730.43,612.418L2731.11,613.166C2731.4,613.519 2731.76,613.886 2731.62,614.387C2731.51,614.759 2730.99,615.19 2730.8,615.376L2728.45,617.753C2728.07,618.143 2727.76,618.589 2727.16,618.526C2726.66,618.473 2726.04,617.611 2725.87,617.446C2724.49,616.158 2723.33,615.481 2723.09,615.34L2722.57,615.036C2719.29,613.191 2716.32,613.103 2715.8,613.08C2713.69,612.988 2712.02,613.448 2711.71,613.535C2710.8,613.782 2710.08,614.035 2709.25,614.441L2708.36,614.892L2707.86,615.16L2706.76,615.856L2706.5,616.04L2705.03,617.264L2704.39,617.904C2704,618.315 2703.83,618.592 2703.25,618.524L2702.96,618.438L2702.38,617.923L2700.49,615.982L2699.17,614.605C2698.85,614.121 2699.17,613.68 2699.5,613.293L2700.13,612.575C2701.55,611.122 2701.51,611.23 2703.19,610.02ZM2709.95,621.154L2710.73,620.642C2711.01,620.486 2712.71,619.54 2714.53,619.365L2716.24,619.372C2717.92,619.59 2719.04,620.136 2719.27,620.246L2721.08,621.408L2721.68,621.935L2722.09,622.352C2722.46,622.749 2722.77,623.077 2722.6,623.616C2722.45,624.097 2721.37,624.994 2721.33,625.027L2720.92,625.436L2719.55,626.77L2718.83,627.474L2716.51,629.725C2716.03,630.105 2715.71,630.288 2715.12,630.236C2714.64,630.09 2714.47,629.959 2714.08,629.619L2713.12,628.697L2712.25,627.846L2708.96,624.608C2708.61,624.25 2707.9,623.804 2708.05,623.164C2708.14,622.791 2708.87,622.087 2709.02,621.94L2709.95,621.154Z"/>
                                <path id="battery1" serif:id="battery" d="M2828.48,593.527C2829.52,593.527 2830.51,593.939 2831.25,594.672C2831.98,595.406 2832.39,596.401 2832.39,597.438L2832.39,626.335C2832.39,627.373 2831.98,628.368 2831.25,629.101C2830.51,629.835 2829.52,630.247 2828.48,630.247L2765.66,630.247C2764.62,630.247 2763.63,629.835 2762.89,629.101C2762.16,628.368 2761.75,627.373 2761.75,626.335L2761.75,597.438C2761.75,596.401 2762.16,595.406 2762.89,594.672C2763.63,593.939 2764.62,593.527 2765.66,593.527L2828.48,593.527ZM2828.48,595.871L2765.66,595.871C2765.24,595.871 2764.84,596.036 2764.55,596.33C2764.26,596.624 2764.09,597.023 2764.09,597.438L2764.09,626.336C2764.09,626.751 2764.26,627.15 2764.55,627.444C2764.84,627.738 2765.24,627.903 2765.66,627.903L2828.48,627.903C2828.9,627.903 2829.3,627.738 2829.59,627.444C2829.88,627.15 2830.05,626.751 2830.05,626.335L2830.05,597.438C2830.05,597.023 2829.88,596.624 2829.59,596.33C2829.3,596.036 2828.9,595.871 2828.48,595.871ZM2815.28,622.824C2815.28,623.24 2815.11,623.638 2814.82,623.932C2814.53,624.226 2814.13,624.391 2813.71,624.391L2769.17,624.391C2768.76,624.391 2768.36,624.226 2768.06,623.932C2767.77,623.638 2767.6,623.24 2767.6,622.824L2767.6,600.839C2767.6,600.423 2767.77,600.024 2768.06,599.73C2768.36,599.436 2768.76,599.271 2769.17,599.271L2813.71,599.271C2814.13,599.271 2814.53,599.436 2814.82,599.73C2815.11,600.024 2815.28,600.423 2815.28,600.839L2815.28,622.824ZM2835.27,604.074L2835.94,604.074C2836.36,604.074 2838.78,604.074 2840.8,606.087C2841.1,606.385 2842.81,608.1 2842.81,610.947L2842.81,610.951C2842.81,613.799 2841.1,615.514 2840.8,615.812C2838.78,617.825 2836.36,617.825 2835.94,617.825L2835.27,617.825L2835.27,604.074Z"/>
                            </g>
                            <path d="M1938.46,629.398L1944.72,629.398L1944.72,594.4L1938.49,594.4L1929.34,600.803L1929.34,606.818L1938.05,600.706L1938.46,600.706L1938.46,629.398Z" style="fill-rule:nonzero;"/>
                            <path d="M1970.89,629.398L1976.88,629.398L1976.88,622.874L1981.61,622.874L1981.61,617.587L1976.88,617.587L1976.88,594.4L1968.05,594.4L1953.79,617.295L1953.79,622.874L1970.89,622.874L1970.89,629.398ZM1959.59,617.368L1970.65,599.493L1970.99,599.493L1970.99,617.732L1959.59,617.732L1959.59,617.368Z" style="fill-rule:nonzero;"/>
                            <path d="M1988.69,621.928C1988.69,624.36 1990.35,625.954 1992.77,625.954C1995.19,625.954 1996.82,624.353 1996.82,621.928C1996.82,619.51 1995.17,617.926 1992.77,617.926C1990.37,617.926 1988.69,619.504 1988.69,621.928ZM1988.69,603.641C1988.69,606.065 1990.37,607.642 1992.77,607.642C1995.17,607.642 1996.82,606.059 1996.82,603.641C1996.82,601.215 1995.19,599.614 1992.77,599.614C1990.35,599.614 1988.69,601.209 1988.69,603.641Z" style="fill-rule:nonzero;"/>
                            <path d="M2013.21,629.398L2019.47,629.398L2019.47,594.4L2013.24,594.4L2004.09,600.803L2004.09,606.818L2012.8,600.706L2013.21,600.706L2013.21,629.398Z" style="fill-rule:nonzero;"/>
                            <path d="M2042.8,630.247C2049.89,630.247 2055.8,625.27 2055.8,617.95C2055.8,611.444 2050.83,606.309 2044.28,606.309C2040.44,606.309 2036.97,608.002 2035.21,611.547L2034.8,611.547C2034.8,606.452 2036.35,598.766 2042.95,598.766C2045.77,598.766 2048.24,600.254 2049.06,603.059L2055.32,603.059C2054.23,597.085 2048.84,593.527 2043,593.527C2032.61,593.527 2028.81,603.405 2028.81,612.275C2028.81,616 2029.4,620.027 2031.28,623.335C2033.64,627.871 2037.72,630.247 2042.8,630.247ZM2042.73,625.032C2038.85,625.032 2035.84,621.896 2035.84,618.047C2035.84,614.158 2038.95,611.281 2042.78,611.281C2046.67,611.281 2049.67,614.24 2049.67,618.144C2049.67,621.996 2046.57,625.032 2042.73,625.032Z" style="fill-rule:nonzero;"/>
                        </g>
                    </g>
                </g>
                <path d="M1768.76,2845.97L1768.76,697.34C1768.76,645.747 1789.26,596.266 1825.74,559.784C1862.22,523.301 1911.7,502.806 1963.29,502.806L2115.28,502.806L2132.08,512.426C2133.79,513.405 2135.73,513.914 2137.7,513.902L2364.36,512.566L2591.02,513.902C2592.99,513.914 2594.93,513.405 2596.63,512.426L2613.43,502.806L2765.42,502.806C2817.01,502.806 2866.49,523.301 2902.98,559.784C2939.46,596.266 2959.95,645.747 2959.95,697.34L2959.95,2845.97C2959.95,2897.56 2939.46,2947.04 2902.98,2983.52C2866.49,3020.01 2817.01,3040.5 2765.42,3040.5L2613.43,3040.5L2582.32,3040.61L2582.23,3040.57L2527.65,3040.8L2364.36,3041.38L2201.06,3040.8L2146.49,3040.57L2146.4,3040.61L2115.28,3040.5L1963.29,3040.5C1911.7,3040.5 1862.22,3020.01 1825.74,2983.52C1789.26,2947.04 1768.76,2897.56 1768.76,2845.97ZM2943.19,2845.97L2943.19,697.34C2943.19,650.193 2924.46,604.976 2891.12,571.638C2857.78,538.299 2812.57,519.57 2765.42,519.57L1963.29,519.57C1916.15,519.57 1870.93,538.299 1837.59,571.638C1804.25,604.976 1785.52,650.193 1785.52,697.34L1785.52,2845.97C1785.52,2893.11 1804.25,2938.33 1837.59,2971.67C1870.93,3005.01 1916.15,3023.74 1963.29,3023.74L2765.42,3023.74C2812.57,3023.74 2857.78,3005.01 2891.12,2971.67C2924.46,2938.33 2943.19,2893.11 2943.19,2845.97Z"/>
                <path d="M2600.76,495.203L2765.42,495.203C2819.03,495.203 2870.44,516.5 2908.35,554.408C2946.26,592.316 2967.56,643.73 2967.56,697.34L2967.56,2845.97C2967.56,2899.58 2946.26,2950.99 2908.35,2988.9C2870.44,3026.81 2819.03,3048.1 2765.42,3048.1L1963.29,3048.1C1909.68,3048.1 1858.27,3026.81 1820.36,2988.9C1782.45,2950.99 1761.16,2899.58 1761.16,2845.97L1761.16,697.34C1761.16,643.73 1782.45,592.316 1820.36,554.408C1858.27,516.5 1909.68,495.203 1963.29,495.203L2127.96,495.203L2146.49,502.733L2364.36,501.821L2582.23,502.733L2600.76,495.203ZM2959.95,2845.97L2959.95,697.34C2959.95,645.747 2939.46,596.266 2902.98,559.784C2866.49,523.301 2817.01,502.806 2765.42,502.806L2613.43,502.806L2596.63,512.426C2594.93,513.405 2592.99,513.914 2591.02,513.902L2364.36,512.566L2137.7,513.902C2135.73,513.914 2133.79,513.405 2132.08,512.426L2115.28,502.806L1963.29,502.806C1911.7,502.806 1862.22,523.301 1825.74,559.784C1789.26,596.266 1768.76,645.747 1768.76,697.34L1768.76,2845.97C1768.76,2897.56 1789.26,2947.04 1825.74,2983.52C1862.22,3020.01 1911.7,3040.5 1963.29,3040.5L2115.28,3040.5L2201.06,3040.8L2364.36,3041.49L2527.65,3040.8L2613.43,3040.5L2765.42,3040.5C2817.01,3040.5 2866.49,3020.01 2902.98,2983.52C2939.46,2947.04 2959.95,2897.56 2959.95,2845.97Z" style="fill:rgb(105,105,105);"/>
                <path d="M1743.44,2845.97L1743.44,697.34C1743.44,639.03 1766.6,583.109 1807.83,541.877C1849.06,500.646 1904.98,477.482 1963.29,477.482L2765.42,477.482C2823.73,477.482 2879.65,500.646 2920.88,541.877C2962.11,583.109 2985.28,639.03 2985.28,697.34L2985.28,2845.97C2985.28,2904.28 2962.11,2960.2 2920.88,3001.43C2879.65,3042.66 2823.73,3065.83 2765.42,3065.83L1963.29,3065.83C1904.98,3065.83 1849.06,3042.66 1807.83,3001.43C1766.6,2960.2 1743.44,2904.28 1743.44,2845.97ZM1760.2,2845.97C1760.2,2899.83 1781.6,2951.49 1819.68,2989.58C1857.77,3027.66 1909.43,3049.06 1963.29,3049.06L2765.42,3049.06C2819.28,3049.06 2870.94,3027.66 2909.03,2989.58C2947.12,2951.49 2968.51,2899.83 2968.51,2845.97L2968.51,697.34C2968.51,643.477 2947.12,591.819 2909.03,553.731C2870.94,515.644 2819.28,494.247 2765.42,494.247L1963.29,494.247C1909.43,494.247 1857.77,515.644 1819.68,553.731C1781.6,591.819 1760.2,643.477 1760.2,697.34L1760.2,2845.97Z" style="fill:rgb(164,164,163);"/>
                <path d="M1760.2,2845.97L1760.2,697.34C1760.2,643.477 1781.6,591.819 1819.68,553.731C1857.77,515.644 1909.43,494.247 1963.29,494.247L2765.42,494.247C2819.28,494.247 2870.94,515.644 2909.03,553.731C2947.12,591.819 2968.51,643.477 2968.51,697.34L2968.51,2845.97C2968.51,2899.83 2947.12,2951.49 2909.03,2989.58C2870.94,3027.66 2819.28,3049.06 2765.42,3049.06L1963.29,3049.06C1909.43,3049.06 1857.77,3027.66 1819.68,2989.58C1781.6,2951.49 1760.2,2899.83 1760.2,2845.97ZM2967.56,2845.97L2967.56,697.34C2967.56,643.73 2946.26,592.316 2908.35,554.408C2870.44,516.5 2819.03,495.203 2765.42,495.203L1963.29,495.203C1909.68,495.203 1858.27,516.5 1820.36,554.408C1782.45,592.316 1761.16,643.73 1761.16,697.34L1761.16,2845.97C1761.16,2899.58 1782.45,2950.99 1820.36,2988.9C1858.27,3026.81 1909.68,3048.1 1963.29,3048.1L2765.42,3048.1C2819.03,3048.1 2870.44,3026.81 2908.35,2988.9C2946.26,2950.99 2967.56,2899.58 2967.56,2845.97Z" style="fill:rgb(105,105,105);"/>
                <path d="M2600.76,495.203L2127.96,495.203L2146.49,502.733L2364.36,501.821L2582.23,502.733L2600.76,495.203Z"/>
            </g>
            <g id="botao5" serif:id="botao">
                <path id="botao41" serif:id="botao4" d="M2983.43,1292.72L2983.43,1579.26C2983.43,1579.26 2987.3,1587.22 2989.43,1588.81C2991.57,1590.41 2996.24,1588.81 2996.24,1588.81L2996.24,1282.51C2996.24,1282.51 2991.57,1283.17 2989.43,1283.17C2987.46,1283.17 2983.43,1292.72 2983.43,1292.72Z" style="fill:rgb(180,180,180);"/>
                <path id="botao31" serif:id="botao3" d="M1746.46,1469.43L1746.46,1647.7C1746.46,1647.7 1742.6,1652.65 1740.46,1653.64C1738.33,1654.63 1733.66,1653.64 1733.66,1653.64L1733.66,1463.08C1733.66,1463.08 1738.33,1463.49 1740.46,1463.49C1742.44,1463.49 1746.46,1469.43 1746.46,1469.43Z" style="fill:rgb(180,180,180);"/>
                <path id="botao21" serif:id="botao2" d="M1746.46,1223.34L1746.46,1401.61C1746.46,1401.61 1742.6,1406.56 1740.46,1407.55C1738.33,1408.54 1733.66,1407.55 1733.66,1407.55L1733.66,1216.99C1733.66,1216.99 1738.33,1217.4 1740.46,1217.4C1742.44,1217.4 1746.46,1223.34 1746.46,1223.34Z" style="fill:rgb(180,180,180);"/>
                <path id="botao11" serif:id="botao1" d="M1746.46,1012.97L1746.46,1122.7C1746.46,1122.7 1742.6,1125.75 1740.46,1126.36C1738.33,1126.97 1733.66,1126.36 1733.66,1126.36L1733.66,1009.06C1733.66,1009.06 1738.33,1009.31 1740.46,1009.31C1742.44,1009.31 1746.46,1012.97 1746.46,1012.97Z" style="fill:rgb(180,180,180);"/>
            </g>
            <g id="camera">
                <path d="M2489.52,560.228C2518.05,560.228 2541.18,583.355 2541.18,611.884L2541.18,611.89C2541.18,640.419 2518.05,663.546 2489.52,663.546L2236.04,663.546C2207.51,663.546 2184.39,640.419 2184.39,611.89L2184.39,611.884C2184.39,583.355 2207.51,560.228 2236.04,560.228L2489.52,560.228Z"/>
                <path d="M2360.62,560.228C2389.15,560.228 2412.28,583.355 2412.28,611.884C2412.28,611.886 2412.28,611.888 2412.28,611.89C2412.28,640.419 2389.15,663.546 2360.62,663.546C2323.37,663.546 2273.29,663.546 2236.04,663.546C2207.51,663.546 2184.39,640.419 2184.39,611.89C2184.39,611.888 2184.39,611.886 2184.39,611.884C2184.39,583.355 2207.51,560.228 2236.04,560.228C2273.29,560.228 2323.37,560.228 2360.62,560.228Z" style="fill:rgb(49,49,49);"/>
                <path d="M2356.75,577.807C2375.52,577.807 2390.74,593.023 2390.74,611.794C2390.74,611.795 2390.74,611.796 2390.74,611.797C2390.74,630.567 2375.52,645.783 2356.75,645.783C2323.8,645.783 2274.1,645.783 2241.15,645.783C2222.38,645.783 2207.16,630.567 2207.16,611.797C2207.16,611.796 2207.16,611.795 2207.16,611.794C2207.16,593.023 2222.38,577.807 2241.15,577.807C2274.1,577.807 2323.8,577.807 2356.75,577.807Z"/>
                <ellipse cx="2490.24" cy="611.887" rx="50.933" ry="51.659" style="fill:rgb(34,34,34);"/>
                <ellipse cx="2490.24" cy="611.887" rx="32.295" ry="32.646" style="fill:rgb(12,25,41);"/>
                <ellipse cx="2490.24" cy="611.887" rx="27.748" ry="28.049" style="fill:rgb(41,46,60);"/>
                <ellipse cx="2490.24" cy="611.887" rx="17.078" ry="17.264" style="fill:rgb(24,35,52);"/>
                <ellipse cx="2490.24" cy="611.887" rx="10.533" ry="10.648" style="fill:rgb(46,26,66);"/>
            </g>
            <g id="antena3" serif:id="antena">
                <path id="antena4" d="M2985.28,2774.75C2985.28,2774.75 2979.79,2777.51 2977.99,2778.41C2972.85,2780.98 2968.51,2778.74 2968.51,2778.74L2968.51,2803.37C2968.51,2803.37 2976.05,2804.7 2978.85,2803.58C2981.55,2802.49 2985.28,2796.63 2985.28,2796.63L2985.28,2774.75Z" style="fill:rgb(180,180,180);"/>
                <path id="antena31" serif:id="antena3" d="M1743.44,2774.75C1743.44,2774.75 1748.92,2777.51 1750.72,2778.41C1755.87,2780.98 1760.2,2778.74 1760.2,2778.74L1760.2,2803.37C1760.2,2803.37 1752.66,2804.7 1749.87,2803.58C1747.17,2802.49 1743.44,2796.63 1743.44,2796.63L1743.44,2774.75Z" style="fill:rgb(180,180,180);"/>
                <path id="antena21" serif:id="antena2" d="M2985.28,736.821C2985.28,736.821 2981.64,740.023 2979.41,740.478C2976.62,741.049 2968.51,740.244 2968.51,740.244L2968.51,765.357C2968.51,765.357 2974.89,766.875 2977.68,766.081C2980.48,765.288 2985.28,760.595 2985.28,760.595L2985.28,736.821Z" style="fill:rgb(180,180,180);"/>
                <path id="antena11" serif:id="antena1" d="M1743.44,736.821C1743.44,736.821 1747.07,740.023 1749.3,740.478C1752.09,741.049 1760.2,740.244 1760.2,740.244L1760.2,765.357C1760.2,765.357 1753.82,766.875 1751.03,766.081C1748.24,765.288 1743.44,760.595 1743.44,760.595L1743.44,736.821Z" style="fill:rgb(180,180,180);"/>
            </g>
        </g>
    </g>
    <g id="iPhone1">
        <g>
            <g id="base2" serif:id="base">
                <g>
                    <path d="M681.221,2789.7L680.963,2819.83C680.767,2830.92 680.526,2844.47 680.963,2859.49C682.492,2912.03 692.311,2982.52 741.285,3028.32C774.956,3059.8 816.835,3068.45 850.45,3070.38C865.631,3071.25 879.126,3070.76 889.419,3070.38L1381.4,3070.38C1388.97,3070.03 1398.36,3071.43 1408.84,3070.38C1442.12,3067.05 1486.4,3057.5 1518.56,3024.66C1584.77,2957.02 1588.16,2866.78 1589.85,2821.66L1589.85,722.19C1589.21,677.218 1587.92,587.275 1540.5,531.994C1510.84,497.411 1414.1,462.017 1352.14,475.301L850.344,619.6C776.227,636.002 728.512,681.956 705.41,741.763C719.435,708.084 750.325,656.543 834.729,632.552C864.242,624.163 887.834,617.499 907.262,612.046C1031.03,577.305 985.835,591.681 1226.26,521.978C1238.38,518.467 1251.21,514.742 1264.83,510.786C1310.58,497.5 1342.58,487.211 1368.3,488.017C1417.13,489.548 1438.57,516.784 1455.08,539.098C1488.52,584.294 1483.21,696.521 1483.78,740.739L1483.78,2808.52C1482.99,2853.04 1483.19,2878.47 1477.24,2911.6C1449.06,3068.76 1322.88,3050.44 1299.78,3053.44L865.507,3053.44C794.349,3053.92 764.471,3043.03 734.749,3012.02C691.519,2966.93 682.852,2897.51 681.503,2845.78C681.117,2830.98 681.218,2806.72 681.218,2806.72L681.221,2789.7Z" style="fill:rgb(164,164,163);"/>
                    <path d="M705.41,741.763C719.435,708.084 750.325,656.543 834.729,632.552C864.242,624.163 887.834,617.499 907.262,612.046C907.262,612.046 916.986,613.692 919.45,613.985C920.31,614.088 922.044,613.808 922.044,613.808L1210.2,532.187C1210.2,532.187 1211.55,531.611 1212.17,531.219C1214.85,529.518 1226.26,521.978 1226.26,521.978C1238.38,518.467 1251.21,514.742 1264.83,510.786C1310.58,497.5 1342.58,487.211 1368.3,488.017C1417.13,489.548 1438.57,516.784 1455.08,539.098C1488.52,584.294 1483.21,696.521 1483.78,740.739L1483.78,2808.52C1482.99,2853.04 1483.19,2878.47 1477.24,2911.6C1449.06,3068.76 1322.88,3050.44 1299.78,3053.44L865.507,3053.44C794.349,3053.92 764.471,3043.03 734.749,3012.02C691.519,2966.93 682.852,2897.51 681.503,2845.78C681.117,2830.98 681.218,2806.72 681.218,2806.72L681.221,2789.7L681.37,2772.28L681.395,1600.02L681.503,866.663C681.503,866.663 680.964,808.601 700.463,754.588C701.854,750.734 703.471,746.419 705.41,741.763ZM693.652,1771.65L693.631,2772.28L693.488,2772.28L693.487,2784.28C693.487,2784.77 693.406,2808.75 693.759,2822.63C694.406,2848.14 695.762,2879.19 699.639,2909.8C708.395,2978.94 750.794,3039.28 833.184,3038.87C846.306,3038.8 857.92,3039.24 866.799,3038.87L1291.19,3038.87C1313.73,3035.63 1480.15,3068.55 1471,2796.39L1471,749.57C1470.76,730.618 1472.06,661.123 1469.22,630.12C1467.14,607.321 1463.31,583.79 1453.99,563.55C1436.53,525.611 1404.32,497.853 1358.15,498.989C1333.01,499.608 1237.47,528.606 1225.95,531.994C1225.95,531.994 1218.81,537.308 1214.98,539.309C1211.14,541.31 1204.29,543.616 1202.94,543.998L922.342,625.431C918.515,626.242 914.428,625.761 913.133,625.465C910.26,624.808 904.815,623.098 904.62,623.147C898.758,624.625 881.766,629.308 836.722,642.299C789.12,656.028 754.45,685.5 734.519,718.374C720.789,738.747 714.03,758.762 710.202,770.077C692.642,821.983 693.716,882.984 693.757,885.024L693.631,1771.65L693.652,1771.65Z" style="fill:rgb(105,105,105);"/>
                    <g>
                        <g>
                            <path d="M697.742,2864.99L697.742,860.43C697.742,816.349 709.457,770.899 730.194,733.915C751.276,696.315 779.835,670.717 809.266,662.162C985.729,610.868 1162.19,559.575 1338.65,508.281C1371.09,498.853 1402.45,508.687 1425.61,535.886C1448.77,563.079 1461.96,605.525 1461.96,653.721L1461.96,2844.76C1461.96,2892.83 1448.84,2939.22 1425.61,2973.39C1402.3,3007.68 1370.9,3026.61 1338.65,3026.82C1162.19,3027.92 985.729,3029.03 809.266,3030.14C779.842,3030.33 751.268,3013.2 730.194,2981.87C709.511,2951.12 697.742,2909.18 697.742,2864.99Z" style="fill:rgb(105,152,205);"/>
                            <g id="icon4" serif:id="icon">
                                <g id="icon5" serif:id="icon">
                                    <path id="sinal2" serif:id="sinal" d="M1267.49,606.527C1267.49,604.371 1268.76,602.37 1270.09,601.995C1271.44,601.613 1272.68,602.925 1272.68,605.066L1272.68,634.162C1272.68,636.32 1271.42,638.317 1270.09,638.687C1268.73,639.063 1267.49,637.747 1267.49,635.607L1267.49,606.527ZM1257.43,616.532C1257.43,614.378 1258.69,612.38 1260.02,612.006C1261.37,611.626 1262.61,612.938 1262.61,615.077L1262.61,636.966C1262.61,639.121 1261.35,641.116 1260.02,641.485C1258.67,641.861 1257.43,640.546 1257.43,638.408L1257.43,616.532ZM1247.39,626.7C1247.39,624.548 1248.65,622.554 1249.97,622.182C1251.32,621.804 1252.56,623.115 1252.56,625.251L1252.56,639.766C1252.56,641.919 1251.3,643.911 1249.97,644.28C1248.63,644.655 1247.39,643.342 1247.39,641.206L1247.39,626.7ZM1237.36,636.858C1237.36,634.709 1238.62,632.719 1239.94,632.348C1241.29,631.972 1242.52,633.282 1242.52,635.417L1242.52,642.562C1242.52,644.712 1241.27,646.702 1239.94,647.07C1238.6,647.444 1237.36,646.133 1237.36,644L1237.36,636.858Z"/>
                                    <path id="wifi2" serif:id="wifi" d="M1291.76,601.353L1292.9,599.997C1295.31,597.369 1297.49,595.803 1297.93,595.489C1298.81,594.857 1304.45,590.806 1310.94,591.935L1312.87,592.378L1313.93,592.736L1314.59,593.01L1315.72,593.563L1315.95,593.695L1316.99,594.345L1317.2,594.498L1318.8,595.786L1319.69,596.698L1320.96,598.322C1321.35,598.878 1321.51,599.243 1321.27,599.853L1320.38,601.444L1319.54,602.935C1319.35,603.279 1319.04,604.246 1318.41,604.133L1318.1,603.854L1317.49,603.109L1316.53,602.072C1315.24,600.815 1313.96,600.078 1313.72,599.937L1312.98,599.557L1311.29,598.91C1309.27,598.282 1307.46,598.454 1307.12,598.485C1306.4,598.553 1302.61,598.911 1298.64,601.824L1296.91,603.255C1295.31,604.742 1294.19,606.117 1293.98,606.384L1292.85,607.891L1291.85,609.407L1291.14,610.593L1290.37,611.932C1290.18,612.143 1290.05,612.242 1289.77,612.173L1289.51,611.955L1289.33,611.74L1288.93,611.242L1287.92,609.996L1287.47,609.429C1287.18,608.989 1287.34,608.467 1287.55,608.042L1288.13,606.864L1288.68,605.864L1289.15,605.068L1289.77,604.086L1290.68,602.767L1291.76,601.353ZM1296.01,611.208L1297.74,609.289L1298.64,608.463L1300.92,606.766L1302.5,605.925C1302.74,605.826 1304.39,605.167 1305.7,604.956C1306.07,604.896 1308.12,604.566 1310.38,605.389L1311.43,605.826C1311.64,605.926 1312.8,606.473 1313.84,607.528L1314.23,607.916L1314.64,608.389L1315.11,609.009C1315.37,609.391 1315.55,609.639 1315.46,610.135L1314.9,611.284L1313.29,614.117C1313.14,614.382 1312.86,615.083 1312.41,615.14C1312.01,615.19 1311.8,614.603 1311.52,614.304C1310.96,613.689 1310.35,613.144 1309.62,612.724L1309.27,612.52C1306.98,611.279 1304.91,611.797 1304.63,611.857C1303.19,612.168 1302.04,612.957 1301.83,613.096L1300.16,614.473L1299.55,615.096L1299.2,615.459L1298.45,616.367L1298.28,616.599L1297.27,618.107L1296.84,618.868C1296.65,619.2 1296.5,619.659 1296.06,619.707L1295.86,619.677L1295.46,619.273L1294.17,617.69L1293.27,616.563C1293.03,616.103 1293.3,615.58 1293.49,615.19L1293.93,614.35C1294.87,612.663 1294.85,612.76 1296.01,611.208ZM1300.63,621.062L1301.17,620.4C1301.34,620.206 1302.52,618.919 1303.77,618.395L1304.94,618.076C1305.78,618 1306.25,618.045 1307.01,618.372L1308.25,619.191L1308.66,619.605L1308.94,619.944C1309.26,620.358 1309.4,620.582 1309.29,621.114C1309.19,621.61 1308.5,622.622 1308.42,622.771L1308.13,623.26L1307.2,624.857L1306.71,625.7L1305.12,628.397C1304.86,628.767 1304.63,629.106 1304.17,629.173C1303.83,629.116 1303.71,629.004 1303.45,628.754L1302.8,628.012L1302.2,627.325L1299.96,624.709C1299.59,624.258 1299.24,624.05 1299.34,623.437L1300,622.026L1300.63,621.062Z"/>
                                    <path id="battery2" serif:id="battery" d="M1382.14,570.388C1382.88,570.179 1383.56,570.428 1384.05,571.006C1384.64,571.698 1384.85,572.707 1384.85,573.578L1384.85,602.793C1384.85,603.825 1384.57,604.913 1384.05,605.81C1383.64,606.527 1382.98,607.266 1382.14,607.5C1367.7,611.516 1353.26,615.532 1338.82,619.548C1338.08,619.753 1337.4,619.5 1336.92,618.924C1336.34,618.234 1336.13,617.23 1336.13,616.363L1336.13,587.308C1336.13,586.281 1336.41,585.198 1336.92,584.305C1337.33,583.59 1337.98,582.852 1338.82,582.616C1353.26,578.54 1367.7,574.464 1382.14,570.388ZM1382.14,572.757C1367.7,576.829 1353.26,580.901 1338.82,584.974C1338.49,585.068 1338.22,585.364 1338.06,585.65C1337.85,586.008 1337.74,586.442 1337.74,586.854L1337.74,615.914C1337.74,616.262 1337.82,616.664 1338.06,616.941C1338.25,617.172 1338.52,617.273 1338.82,617.191C1353.26,613.171 1367.7,609.151 1382.14,605.131C1382.48,605.038 1382.74,604.741 1382.91,604.454C1383.11,604.094 1383.23,603.658 1383.23,603.245L1383.23,574.035C1383.23,573.686 1383.14,573.282 1382.91,573.005C1382.71,572.773 1382.44,572.673 1382.14,572.757ZM1373.01,602.543C1373.01,602.957 1372.9,603.392 1372.7,603.751C1372.53,604.038 1372.27,604.334 1371.93,604.428C1361.7,607.281 1351.47,610.133 1341.23,612.986C1340.94,613.068 1340.67,612.967 1340.47,612.736C1340.24,612.46 1340.16,612.057 1340.16,611.709L1340.16,589.594C1340.16,589.182 1340.27,588.748 1340.47,588.39C1340.64,588.104 1340.9,587.808 1341.23,587.714C1351.47,584.832 1361.7,581.95 1371.93,579.069C1372.23,578.985 1372.5,579.085 1372.7,579.316C1372.93,579.594 1373.01,579.998 1373.01,580.346L1373.01,602.543ZM1386.84,579.727L1387.3,579.597C1388.57,579.24 1389.83,579.696 1390.67,580.687C1392.06,582.333 1392.06,584.835 1392.06,585.213L1392.06,585.218C1392.06,585.657 1392.06,588.098 1390.67,590.526C1389.27,592.952 1387.65,593.406 1387.3,593.503L1386.84,593.633L1386.84,579.727Z"/>
                                </g>
                                <path d="M793.565,770.385L797.518,769.286L797.518,736.238L793.58,737.349L787.809,745.017L787.809,750.69L793.305,743.378L793.565,743.305L793.565,770.385Z" style="fill-rule:nonzero;"/>
                                <path d="M814.078,764.679L817.875,763.622L817.875,757.446L820.875,756.61L820.875,751.603L817.875,752.442L817.875,730.493L812.28,732.072L803.253,756.254L803.253,761.525L814.078,758.506L814.078,764.679ZM806.921,755.297L813.924,736.427L814.14,736.367L814.14,753.624L806.921,755.641L806.921,755.297Z" style="fill-rule:nonzero;"/>
                                <path d="M825.369,754.46C825.369,755.801 825.872,758.134 827.956,757.554C829.884,757.016 830.529,754.667 830.529,753.02C830.529,751.686 830.031,749.365 827.956,749.945C826.038,750.481 825.369,752.81 825.369,754.46ZM825.369,737.134C825.369,738.479 825.883,740.781 827.956,740.199C829.874,739.661 830.529,737.329 830.529,735.683C830.529,734.354 830.042,732.003 827.956,732.591C826.029,733.133 825.369,735.479 825.369,737.134Z" style="fill-rule:nonzero;"/>
                                <path d="M840.954,757.202L844.938,756.093L844.938,722.857L840.97,723.976L835.153,731.691L835.153,737.397L840.692,730.04L840.954,729.967L840.954,757.202Z" style="fill-rule:nonzero;"/>
                                <path d="M859.815,752.762C865.677,751.132 868.119,744.177 868.119,738.743C868.119,734.719 866.225,728.188 860.759,729.723C857.691,730.585 855.831,733.504 854.971,736.33L854.708,736.403C854.708,733.51 854.975,724.175 859.908,722.786C862.155,722.153 863.408,723.841 863.811,725.773L867.809,724.648C867.296,720.577 864.608,716.475 859.939,717.793C851.953,720.047 850.888,731.576 850.888,738.165L852.465,748.236C853.721,751.495 856.064,753.805 859.815,752.762ZM859.768,747.814C856.587,748.701 855.373,744.781 855.373,742.397C855.373,739.687 856.634,735.61 859.799,734.723C862.99,733.828 864.198,737.499 864.198,740.023C864.198,742.665 862.916,746.937 859.768,747.814Z" style="fill-rule:nonzero;"/>
                            </g>
                        </g>
                    </g>
                    <path d="M693.631,2772.28L693.655,1600.02L693.757,885.024C693.716,882.984 692.642,821.983 710.202,770.077C714.03,758.762 720.789,738.747 734.519,718.374C754.45,685.5 789.12,656.028 836.722,642.299C881.766,629.308 898.758,624.625 904.62,623.147C904.815,623.098 910.26,624.808 913.133,625.465C914.428,625.761 918.515,626.242 922.342,625.431L1202.94,543.998C1204.29,543.616 1211.14,541.31 1214.98,539.309C1218.81,537.308 1225.95,531.994 1225.95,531.994C1237.47,528.606 1333.01,499.608 1358.15,498.989C1404.32,497.853 1436.53,525.611 1453.99,563.55C1463.31,583.79 1467.14,607.321 1469.22,630.12C1472.06,661.123 1470.76,730.618 1471,749.57L1471,2796.39C1480.15,3068.55 1313.73,3035.63 1291.19,3038.87L866.799,3038.87C857.92,3039.24 846.306,3038.8 833.184,3038.87C750.794,3039.28 708.395,2978.94 699.639,2909.8C695.762,2879.19 694.406,2848.14 693.759,2822.63C693.406,2808.75 693.487,2784.77 693.487,2784.28L693.488,2772.28L693.631,2772.28ZM697.843,1771.65L697.822,2772.28L697.948,2772.28L697.948,2784.28C697.783,2794.97 697.581,2808.04 697.948,2822.53C699.233,2873.19 698.342,2946.65 739.502,2990.82C767.802,3021.18 795.08,3026.08 838.566,3025.89C851.352,3025.84 864.495,3026.25 873.146,3025.89L1286.63,3025.89C1297.45,3025.91 1314.3,3026.18 1324.65,3025.87C1369.38,3024.55 1397.43,3006.21 1417.7,2983.07C1465.25,2928.79 1460.72,2837.7 1461.83,2803.4C1462.11,2794.76 1461.83,2772.37 1461.83,2772.37L1461.83,761.482C1461.48,733.727 1463.06,661.973 1459.12,628.406C1456.31,604.48 1449.65,576.036 1438.18,560.079C1422.47,538.195 1405.74,516.95 1359.25,515.448C1334.76,514.657 1296.92,522.927 1253.36,535.957C942.564,628.924 1059.98,592.096 843.842,655.378C814.847,663.867 790.288,671.863 772.418,684.794C733.908,712.66 720.273,753.389 714.172,771.42C696.535,823.554 697.948,884.981 697.948,884.981L697.822,1771.65L697.843,1771.65Z"/>
                    <path d="M907.262,612.046C907.262,612.046 916.986,613.692 919.45,613.985C920.31,614.088 922.044,613.808 922.044,613.808L1210.2,532.187C1210.2,532.187 1211.55,531.611 1212.17,531.219C1214.85,529.518 1226.26,521.978 1226.26,521.978C985.835,591.681 1031.03,577.305 907.262,612.046Z"/>
                </g>
            </g>
            <g id="cametra1" serif:id="cametra">
                <g>
                    <path d="M1140.79,611.109L1140.32,611.25L983.63,654.308C983.63,654.308 981.286,654.972 980.452,655.318C973.802,658.076 941.59,673.618 949.095,724.317C954.236,759.044 979.625,753.817 985.911,752.131C986.738,751.909 988.716,751.309 988.716,751.309L1137.47,709.686L1153.93,704.2C1154.68,703.949 1155.46,703.637 1156.28,703.26C1157.95,702.451 1159.57,701.498 1161.13,700.407C1165.95,696.978 1171.09,691.526 1175.19,683.741C1180.25,674.005 1183.2,661.614 1183.19,647.507L1183.19,647.492C1183.11,602.105 1150.61,608.379 1143.04,610.456C1142.37,610.64 1141.37,610.935 1140.79,611.109ZM1062.66,726.661L987.689,747.64L987.608,747.663C987.608,747.663 985.716,748.239 984.924,748.451C981.646,749.33 972.377,751.465 964.533,746.396C959.174,742.932 954.696,736.13 952.864,723.759C950.017,704.529 953.1,690.621 958.344,680.702C966.021,666.177 978.218,660.369 981.912,658.837C982.585,658.558 984.399,658.049 984.641,657.981L1057.65,637.917C1059.05,637.438 1060.49,637.038 1061.97,636.73L1141.33,614.924L1141.42,614.898L1141.61,614.841C1150.18,611.849 1161.34,611.386 1168.88,617.202C1174.98,621.912 1179.36,631.02 1179.38,647.496L1179.38,647.513C1179.39,659.119 1177.44,668.633 1174.45,676.255C1169.12,690.079 1159.83,699.511 1148.44,702.013L1136.35,706.042L1067.56,725.291C1065.97,725.899 1064.34,726.358 1062.66,726.661Z"/>
                    <path d="M1062.66,726.661C1064.34,726.358 1065.97,725.899 1067.56,725.291L1136.35,706.042L1148.44,702.013C1159.83,699.511 1169.12,690.079 1174.45,676.255C1177.44,668.633 1179.39,659.119 1179.38,647.513L1179.38,647.496C1179.36,631.02 1174.98,621.912 1168.88,617.202C1161.34,611.386 1150.18,611.849 1141.61,614.841L1141.42,614.898L1141.33,614.924L1061.97,636.73C1060.49,637.038 1059.05,637.438 1057.65,637.917L984.641,657.981C984.399,658.049 982.585,658.558 981.912,658.837C978.218,660.369 966.021,666.177 958.344,680.702C953.1,690.621 950.017,704.529 952.864,723.759C954.696,736.13 959.174,742.932 964.533,746.396C972.377,751.465 981.646,749.33 984.924,748.451C985.716,748.239 987.608,747.663 987.608,747.663L987.689,747.64L1062.66,726.661Z"/>
                    <path d="M1061.97,636.73C1060.49,637.038 1059.05,637.438 1057.65,637.917L984.641,657.981C984.399,658.049 982.585,658.558 981.912,658.837C978.218,660.369 966.021,666.177 958.344,680.702C953.1,690.621 950.017,704.529 952.864,723.759C954.696,736.13 959.174,742.932 964.533,746.396C972.377,751.465 981.646,749.33 984.924,748.451C985.716,748.239 987.608,747.663 987.608,747.663L987.689,747.64C987.689,747.64 1071.62,724.156 1074.34,723.395C1079.72,721.883 1082.94,718.914 1084.01,717.615C1092.71,707.049 1098.19,690.697 1098.18,671.391C1098.18,653.105 1092.9,643.242 1086.27,637.894C1083.67,635.801 1080.54,633.733 1077.55,633.444C1074.98,633.196 1073.97,633.543 1072.23,633.91C1069.64,634.458 1061.97,636.73 1061.97,636.73Z" style="fill:rgb(41,41,41);"/>
                    <path d="M987.368,728.907C1001.68,725.359 1061,707.532 1061,707.532C1065.43,706.4 1071.2,703.098 1074.74,697.831C1079.3,691.054 1080.92,682.992 1080.92,672.591C1080.91,663.011 1075.27,655.643 1073.12,653.982C1071.65,652.844 1069.19,651.34 1061.81,653.126C1061.81,653.126 1004.17,666.882 989.022,672.495C981.685,675.214 975.803,677.009 970.893,686.808C967.069,694.439 964.274,704.886 967.94,719.104C969.472,725.046 972.251,727.317 975.108,728.819C978.416,730.558 983.41,729.888 987.368,728.907Z"/>
                    <path d="M1179.38,647.513L1179.38,647.496C1179.35,631.057 1175.14,621.977 1169.27,617.269C1160.71,610.4 1149.23,613.033 1145.38,614.13C1144.65,614.341 1143.48,614.702 1143.03,614.841C1141.57,615.371 1140.19,615.98 1138.92,616.647C1128.05,622.347 1121.31,636.31 1117.93,649.322C1115.7,657.931 1115.56,670.14 1118.3,681.23C1120.74,691.101 1130.06,701.275 1140.4,702.483C1143.59,702.855 1146.67,702.683 1149.61,702.013L1153.73,700.585C1160.16,698.356 1169.19,690.704 1174.64,676.255C1177.68,668.046 1179.39,658.288 1179.38,647.513Z" style="fill:rgb(38,38,38);"/>
                    <path d="M1129.49,664.07L1129.49,664.08C1129.5,674.463 1131.99,680.199 1135.46,683.173C1140.52,687.511 1146.95,686.886 1151.24,684.544C1155.76,682.074 1161.83,676.734 1165.8,662.927C1167.45,657.2 1167.2,649.777 1165.59,642.773C1164.14,636.538 1158.64,630.112 1152.53,629.349C1150.64,629.113 1148.82,629.223 1147.08,629.646L1144.65,630.547C1140.84,631.955 1135.51,636.788 1132.29,645.915C1130.49,651.1 1129.48,657.263 1129.49,664.07Z" style="fill:rgb(39,55,64);"/>
                    <path d="M1142.31,653.953C1139.18,663.566 1141.17,669.981 1143.9,672.604C1146.31,674.916 1149.04,674.346 1151.01,673.597C1154.46,672.288 1158,666.219 1158.84,662.498C1159.71,658.608 1159.76,655.564 1159.07,652.38C1158.39,649.245 1155.59,645.896 1152.49,645.659C1148.52,645.355 1144.06,648.559 1142.31,653.953Z" style="fill:rgb(28,76,101);"/>
                </g>
            </g>
            <g id="antena5" serif:id="antena">
                <path id="antena22" serif:id="antena2" d="M1589.85,2772.28C1589.85,2772.28 1528.93,2770.55 1511.24,2770.45C1496.6,2770.38 1483.78,2770.59 1483.78,2770.59L1483.78,2796.75L1589.85,2797.89L1589.85,2772.28Z" style="fill:rgb(180,180,180);"/>
                <path id="antena12" serif:id="antena1" d="M1589.82,720.167C1589.82,720.167 1534.24,704.593 1516.73,700.244C1500.47,696.206 1483.79,700.244 1483.79,700.244L1483.79,725.848C1483.79,725.848 1499.7,723.61 1511.24,725.848C1521.58,727.852 1589.85,747.441 1589.85,747.441L1589.82,720.167Z" style="fill:rgb(180,180,180);"/>
            </g>
            <g id="botao6" serif:id="botao">
                <g id="botao22" serif:id="botao2">
                    <g>
                        <path d="M1544.86,2004.51C1533.26,2004.51 1523.86,2013.91 1523.86,2025.51L1523.86,2303.21C1523.86,2314.81 1533.26,2324.21 1544.86,2324.21L1554.32,2324.21C1565.92,2324.21 1575.32,2314.81 1575.32,2303.21L1575.32,2025.51C1575.32,2013.91 1565.92,2004.51 1554.32,2004.51L1544.86,2004.51Z" style="fill:rgb(181,181,179);"/>
                        <path d="M1546.62,2010.4C1535.93,2012.28 1529.4,2019.9 1529.4,2029.3C1529.4,2082.69 1527.31,2238.97 1527.31,2292.37C1527.31,2301.77 1535.93,2315.02 1546.62,2315.02C1546.62,2315.02 1546.62,2315.02 1546.63,2315.02C1557.32,2315.02 1565.98,2303.74 1565.98,2294.34C1565.98,2240.95 1565.98,2086.3 1565.98,2032.91C1565.98,2023.51 1557.32,2010.4 1546.63,2010.4C1546.62,2010.4 1546.62,2010.4 1546.62,2010.4Z" style="fill:rgb(115,115,111);"/>
                        <path d="M1545.74,2014.6C1536.58,2016.43 1530.98,2023.86 1530.98,2033.01C1530.98,2085.03 1529.19,2237.28 1529.19,2289.29C1529.19,2298.45 1536.58,2311.36 1545.74,2311.36C1545.74,2311.36 1545.74,2311.36 1545.74,2311.36C1554.9,2311.36 1562.32,2303.94 1562.32,2294.78C1562.32,2242.76 1562.32,2086.86 1562.32,2034.84C1562.32,2025.68 1554.9,2014.6 1545.74,2014.6C1545.74,2014.6 1545.74,2014.6 1545.74,2014.6Z" style="fill:rgb(197,197,196);"/>
                        <path d="M1548.7,2018.47C1541.18,2018.47 1535.09,2024.57 1535.09,2032.09C1535.09,2080.69 1535.09,2245.28 1535.09,2293.88C1535.09,2301.39 1541.18,2307.49 1548.7,2307.49C1548.71,2307.49 1548.71,2307.49 1548.71,2307.49C1556.23,2307.49 1562.32,2302.3 1562.32,2294.78C1562.32,2246.18 1562.32,2086.17 1562.32,2037.58C1562.32,2030.06 1556.23,2018.47 1548.71,2018.47C1548.71,2018.47 1548.71,2018.47 1548.7,2018.47Z" style="fill:rgb(214,214,212);"/>
                    </g>
                </g>
                <g id="botao12" serif:id="botao1">
                    <path d="M1551.41,1251.96C1540.28,1251.96 1531.26,1273.81 1531.26,1300.77C1531.26,1361.85 1531.28,1450.25 1531.26,1511.34C1531.24,1566.29 1540.28,1575.76 1551.41,1575.76C1551.41,1575.76 1551.41,1575.76 1551.41,1575.76C1562.54,1575.76 1571.56,1553.9 1571.56,1526.95C1571.56,1465.86 1571.56,1361.85 1571.56,1300.77C1571.56,1273.81 1562.54,1251.96 1551.41,1251.96C1551.41,1251.96 1551.41,1251.96 1551.41,1251.96Z" style="fill:rgb(145,145,144);"/>
                    <path d="M1549.65,1252.03C1539.55,1252.03 1530.17,1268.84 1531.36,1298.99C1533.79,1360.86 1531.36,1448.99 1531.36,1510.91C1531.36,1543.53 1534.98,1568.8 1547.32,1570.58C1555.61,1571.78 1567.93,1563.68 1567.93,1531.14C1567.93,1469.22 1567.93,1360.91 1567.93,1298.99C1567.93,1273.06 1571.27,1256.25 1549.65,1252.03C1549.65,1252.03 1549.65,1252.03 1549.65,1252.03Z" style="fill:rgb(79,79,74);"/>
                    <path d="M1551.46,1261.5C1542.36,1261.5 1534.99,1268.88 1534.99,1277.97C1534.99,1330.65 1534.99,1494.6 1534.99,1547.27C1534.99,1556.37 1542.36,1563.74 1551.46,1563.74C1551.46,1563.74 1551.46,1563.74 1551.46,1563.74C1560.56,1563.74 1567.93,1556.37 1567.93,1547.27C1567.93,1494.6 1567.93,1330.65 1567.93,1277.97C1567.93,1268.88 1560.56,1261.5 1551.46,1261.5C1551.46,1261.5 1551.46,1261.5 1551.46,1261.5Z" style="fill:rgb(214,214,212);"/>
                    <path d="M1555.05,1261.5C1547.93,1261.5 1542.17,1267.27 1542.17,1274.39L1542.17,1550.46C1542.17,1557.58 1547.93,1563.35 1555.05,1563.35L1555.05,1563.35C1562.17,1563.35 1567.93,1557.58 1567.93,1550.46C1567.93,1501.03 1567.93,1323.82 1567.93,1274.39C1567.93,1267.27 1562.17,1261.5 1555.05,1261.5C1555.05,1261.5 1555.05,1261.5 1555.05,1261.5Z" style="fill:rgb(181,181,179);"/>
                </g>
            </g>
        </g>
    </g>
</svg>
