<?xml version="1.0" encoding="UTF-8" standalone="no"?>
<!DOCTYPE svg PUBLIC "-//W3C//DTD SVG 1.1//EN" "http://www.w3.org/Graphics/SVG/1.1/DTD/svg11.dtd">
<svg width="100%" height="100%" viewBox="0 0 1033 1511" version="1.1" xmlns="http://www.w3.org/2000/svg" xmlns:xlink="http://www.w3.org/1999/xlink" xml:space="preserve" xmlns:serif="http://www.serif.com/" style="fill-rule:evenodd;clip-rule:evenodd;stroke-linejoin:round;stroke-miterlimit:2;">
    <g transform="matrix(1,0,0,1,-5942,-3403)">
        <g id="template_chihuahua" transform="matrix(1,0,0,1,786.507,-1576.28)">
            <rect x="5155.9" y="4980" width="1032" height="1509.99" style="fill:rgb(250,225,224);"/>
            <g transform="matrix(-0.585777,-7.1737e-17,7.3963e-17,-0.603953,5914.68,9202.25)">
                <path d="M666.962,5292.8L666.962,6189.07C666.962,6216.1 644.332,6238.05 616.459,6238.05L212.434,6238.05C184.56,6238.05 161.931,6216.1 161.931,6189.07L161.931,5292.8C161.931,5265.77 184.56,5243.82 212.434,5243.82L616.459,5243.82C644.332,5243.82 666.962,5265.77 666.962,5292.8Z" style="fill:rgb(230,104,100);"/>
            </g>
        </g>
    </g>
</svg>
