<?xml version="1.0" encoding="UTF-8" standalone="no"?>
<!DOCTYPE svg PUBLIC "-//W3C//DTD SVG 1.1//EN" "http://www.w3.org/Graphics/SVG/1.1/DTD/svg11.dtd">
<svg width="100%" height="100%" viewBox="0 0 3544 3071" version="1.1" xmlns="http://www.w3.org/2000/svg" xmlns:xlink="http://www.w3.org/1999/xlink" xml:space="preserve" xmlns:serif="http://www.serif.com/" style="fill-rule:evenodd;clip-rule:evenodd;stroke-linejoin:round;stroke-miterlimit:2;">
    <rect id="template_dalmata2" x="0" y="0" width="3543.31" height="3070.87"/>
    <g>
        <path d="M1531.47,500.393L1362.11,2085.44C1357.73,2126.41 1320.91,2156.13 1279.94,2151.75L686.015,2088.29C645.04,2083.91 615.33,2047.09 619.708,2006.11L789.068,421.068C793.447,380.094 830.266,350.381 871.241,354.759L1465.16,418.218C1506.14,422.596 1535.85,459.419 1531.47,500.393Z" style="fill:rgb(13,13,13);"/>
    </g>
    <g>
        <path d="M2923.88,1055.61L2823.99,2646.55C2821.41,2687.67 2785.92,2718.97 2744.8,2716.39L2148.67,2678.96C2107.54,2676.38 2076.25,2640.89 2078.83,2599.76L2178.72,1008.83C2181.3,967.699 2216.79,936.404 2257.91,938.986L2854.04,976.415C2895.17,978.997 2926.46,1014.49 2923.88,1055.61Z" style="fill:rgb(13,13,13);"/>
    </g>
    <g id="ILUSTRAÇÃO">
    </g>
    <g id="LOGO">
    </g>
</svg>
