<?xml version="1.0" encoding="UTF-8" standalone="no"?>
<!DOCTYPE svg PUBLIC "-//W3C//DTD SVG 1.1//EN" "http://www.w3.org/Graphics/SVG/1.1/DTD/svg11.dtd">
<svg width="100%" height="100%" viewBox="0 0 3310 1511" version="1.1" xmlns="http://www.w3.org/2000/svg" xmlns:xlink="http://www.w3.org/1999/xlink" xml:space="preserve" xmlns:serif="http://www.serif.com/" style="fill-rule:evenodd;clip-rule:evenodd;stroke-linejoin:round;stroke-miterlimit:2;">
    <g transform="matrix(1,0,0,1,-9635,-3403)">
        <g id="template_husky" transform="matrix(3.20649,0,0,1,-6896.64,-1576.28)">
            <rect x="5155.9" y="4980" width="1032" height="1509.99" style="fill:white;"/>
            <clipPath id="_clip1">
                <rect x="5155.9" y="4980" width="1032" height="1509.99"/>
            </clipPath>
            <g clip-path="url(#_clip1)">
                <g transform="matrix(0.501066,0,0,1.38703,5464.24,-2090.68)">
                    <path d="M666.962,5305.34L666.962,6176.53C666.962,6210.48 644.332,6238.05 616.459,6238.05L212.434,6238.05C184.56,6238.05 161.931,6210.48 161.931,6176.53L161.931,5305.34C161.931,5271.39 184.56,5243.82 212.434,5243.82L616.459,5243.82C644.332,5243.82 666.962,5271.39 666.962,5305.34ZM664.369,5305.34C664.369,5273.09 642.938,5246.82 616.459,5246.82L212.434,5246.82C185.955,5246.82 164.524,5273.09 164.524,5305.34L164.524,6176.53C164.524,6208.78 185.955,6235.05 212.434,6235.05L616.459,6235.05C642.938,6235.05 664.369,6208.78 664.369,6176.53L664.369,5305.34Z"/>
                </g>
                <g transform="matrix(0.35655,0,0,0.728749,5126.49,1688.48)">
                    <path d="M666.962,5323.05L666.962,6158.82C666.962,6202.55 644.332,6238.05 616.459,6238.05L212.434,6238.05C184.56,6238.05 161.931,6202.55 161.931,6158.82L161.931,5323.05C161.931,5279.32 184.56,5243.82 212.434,5243.82L616.459,5243.82C644.332,5243.82 666.962,5279.32 666.962,5323.05Z" style="fill:rgb(150,105,205);"/>
                </g>
                <g transform="matrix(0.35655,0,0,0.728749,5325.31,1688.48)">
                    <path d="M666.962,5323.05L666.962,6158.82C666.962,6202.55 644.332,6238.05 616.459,6238.05L212.434,6238.05C184.56,6238.05 161.931,6202.55 161.931,6158.82L161.931,5323.05C161.931,5279.32 184.56,5243.82 212.434,5243.82L616.459,5243.82C644.332,5243.82 666.962,5279.32 666.962,5323.05Z" style="fill:rgb(150,105,205);"/>
                </g>
                <g transform="matrix(0.35655,0,0,0.728749,5921.77,1688.48)">
                    <path d="M666.962,5323.05L666.962,6158.82C666.962,6202.55 644.332,6238.05 616.459,6238.05L212.434,6238.05C184.56,6238.05 161.931,6202.55 161.931,6158.82L161.931,5323.05C161.931,5279.32 184.56,5243.82 212.434,5243.82L616.459,5243.82C644.332,5243.82 666.962,5279.32 666.962,5323.05Z" style="fill:rgb(150,105,205);"/>
                </g>
                <g transform="matrix(0.35655,0,0,0.728749,5524.13,1688.48)">
                    <path d="M666.962,5323.05L666.962,6158.82C666.962,6202.55 644.332,6238.05 616.459,6238.05L212.434,6238.05C184.56,6238.05 161.931,6202.55 161.931,6158.82L161.931,5323.05C161.931,5279.32 184.56,5243.82 212.434,5243.82L616.459,5243.82C644.332,5243.82 666.962,5279.32 666.962,5323.05Z" style="fill:rgb(150,105,205);"/>
                </g>
                <g transform="matrix(0.35655,0,0,0.728749,5722.95,1688.48)">
                    <path d="M666.962,5323.05L666.962,6158.82C666.962,6202.55 644.332,6238.05 616.459,6238.05L212.434,6238.05C184.56,6238.05 161.931,6202.55 161.931,6158.82L161.931,5323.05C161.931,5279.32 184.56,5243.82 212.434,5243.82L616.459,5243.82C644.332,5243.82 666.962,5279.32 666.962,5323.05Z" style="fill:rgb(150,105,205);"/>
                </g>
            </g>
        </g>
    </g>
</svg>
