<?xml version="1.0" encoding="UTF-8" standalone="no"?>
<!DOCTYPE svg PUBLIC "-//W3C//DTD SVG 1.1//EN" "http://www.w3.org/Graphics/SVG/1.1/DTD/svg11.dtd">
<svg width="100%" height="100%" viewBox="0 0 1772 4725" version="1.1" xmlns="http://www.w3.org/2000/svg" xmlns:xlink="http://www.w3.org/1999/xlink" xml:space="preserve" xmlns:serif="http://www.serif.com/" style="fill-rule:evenodd;clip-rule:evenodd;stroke-linejoin:round;stroke-miterlimit:2;">
    <rect id="template_tecnico" x="0.112" y="0.421" width="1771.65" height="4724.41" style="fill:white;"/>
    <g>
        <path d="M477.259,344.316L477.259,825.507C477.259,837.946 466.501,848.046 453.25,848.046L261.175,848.046C247.923,848.046 237.165,837.946 237.165,825.507L237.165,344.316C237.165,331.877 247.923,321.777 261.175,321.777L453.25,321.777C466.501,321.777 477.259,331.877 477.259,344.316Z" style="fill:none;stroke:black;stroke-width:3.76px;"/>
    </g>
    <g>
        <path d="M477.259,1055.4L477.259,1536.59C477.259,1549.03 466.501,1559.13 453.25,1559.13L261.175,1559.13C247.923,1559.13 237.165,1549.03 237.165,1536.59L237.165,1055.4C237.165,1042.96 247.923,1032.86 261.175,1032.86L453.25,1032.86C466.501,1032.86 477.259,1042.96 477.259,1055.4Z" style="fill:none;stroke:black;stroke-width:3.76px;"/>
    </g>
    <g>
        <path d="M477.259,2477.57L477.259,2958.76C477.259,2971.2 466.501,2981.3 453.25,2981.3L261.175,2981.3C247.923,2981.3 237.165,2971.2 237.165,2958.76L237.165,2477.57C237.165,2465.13 247.923,2455.03 261.175,2455.03L453.25,2455.03C466.501,2455.03 477.259,2465.13 477.259,2477.57Z" style="fill:none;stroke:black;stroke-width:3.76px;"/>
    </g>
    <g>
        <path d="M477.259,3899.74L477.259,4380.94C477.259,4393.37 466.501,4403.47 453.25,4403.47L261.175,4403.47C247.923,4403.47 237.165,4393.37 237.165,4380.94L237.165,3899.74C237.165,3887.3 247.923,3877.2 261.175,3877.2L453.25,3877.2C466.501,3877.2 477.259,3887.3 477.259,3899.74Z" style="fill:none;stroke:black;stroke-width:3.76px;"/>
    </g>
    <g>
        <path d="M477.259,1766.49L477.259,2247.68C477.259,2260.12 466.501,2270.22 453.25,2270.22L261.175,2270.22C247.923,2270.22 237.165,2260.12 237.165,2247.68L237.165,1766.49C237.165,1754.05 247.923,1743.95 261.175,1743.95L453.25,1743.95C466.501,1743.95 477.259,1754.05 477.259,1766.49Z" style="fill:none;stroke:black;stroke-width:3.76px;"/>
    </g>
    <g>
        <path d="M477.259,3188.66L477.259,3669.85C477.259,3682.29 466.501,3692.39 453.25,3692.39L261.175,3692.39C247.923,3692.39 237.165,3682.29 237.165,3669.85L237.165,3188.66C237.165,3176.22 247.923,3166.12 261.175,3166.12L453.25,3166.12C466.501,3166.12 477.259,3176.22 477.259,3188.66Z" style="fill:none;stroke:black;stroke-width:3.76px;"/>
    </g>
    <g>
        <path d="M1225.15,344.316L1225.15,825.507C1225.15,837.946 1214.4,848.046 1201.15,848.046L1009.07,848.046C995.819,848.046 985.061,837.946 985.061,825.507L985.061,344.316C985.061,331.877 995.819,321.777 1009.07,321.777L1201.15,321.777C1214.4,321.777 1225.15,331.877 1225.15,344.316Z" style="fill:none;stroke:black;stroke-width:3.76px;"/>
    </g>
    <g>
        <path d="M1225.15,1055.4L1225.15,1536.59C1225.15,1549.03 1214.4,1559.13 1201.15,1559.13L1009.07,1559.13C995.819,1559.13 985.061,1549.03 985.061,1536.59L985.061,1055.4C985.061,1042.96 995.819,1032.86 1009.07,1032.86L1201.15,1032.86C1214.4,1032.86 1225.15,1042.96 1225.15,1055.4Z" style="fill:none;stroke:black;stroke-width:3.76px;"/>
    </g>
    <g>
        <path d="M1225.15,2477.57L1225.15,2958.76C1225.15,2971.2 1214.4,2981.3 1201.15,2981.3L1009.07,2981.3C995.819,2981.3 985.061,2971.2 985.061,2958.76L985.061,2477.57C985.061,2465.13 995.819,2455.03 1009.07,2455.03L1201.15,2455.03C1214.4,2455.03 1225.15,2465.13 1225.15,2477.57Z" style="fill:none;stroke:black;stroke-width:3.76px;"/>
    </g>
    <g>
        <path d="M1225.15,3899.74L1225.15,4380.94C1225.15,4393.37 1214.4,4403.47 1201.15,4403.47L1009.07,4403.47C995.819,4403.47 985.061,4393.37 985.061,4380.94L985.061,3899.74C985.061,3887.3 995.819,3877.2 1009.07,3877.2L1201.15,3877.2C1214.4,3877.2 1225.15,3887.3 1225.15,3899.74Z" style="fill:none;stroke:black;stroke-width:3.76px;"/>
    </g>
    <g>
        <path d="M1225.15,1766.49L1225.15,2247.68C1225.15,2260.12 1214.4,2270.22 1201.15,2270.22L1009.07,2270.22C995.819,2270.22 985.061,2260.12 985.061,2247.68L985.061,1766.49C985.061,1754.05 995.819,1743.95 1009.07,1743.95L1201.15,1743.95C1214.4,1743.95 1225.15,1754.05 1225.15,1766.49Z" style="fill:none;stroke:black;stroke-width:3.76px;"/>
    </g>
    <g>
        <path d="M1225.15,3188.66L1225.15,3669.85C1225.15,3682.29 1214.4,3692.39 1201.15,3692.39L1009.07,3692.39C995.819,3692.39 985.061,3682.29 985.061,3669.85L985.061,3188.66C985.061,3176.22 995.819,3166.12 1009.07,3166.12L1201.15,3166.12C1214.4,3166.12 1225.15,3176.22 1225.15,3188.66Z" style="fill:none;stroke:black;stroke-width:3.76px;"/>
    </g>
    <g>
        <path d="M783.518,344.316L783.518,825.507C783.518,837.946 772.76,848.046 759.509,848.046L567.434,848.046C554.183,848.046 543.425,837.946 543.425,825.507L543.425,344.316C543.425,331.877 554.183,321.777 567.434,321.777L759.509,321.777C772.76,321.777 783.518,331.877 783.518,344.316Z" style="fill:none;stroke:black;stroke-width:3.76px;"/>
    </g>
    <g>
        <path d="M783.518,1055.4L783.518,1536.59C783.518,1549.03 772.76,1559.13 759.509,1559.13L567.434,1559.13C554.183,1559.13 543.425,1549.03 543.425,1536.59L543.425,1055.4C543.425,1042.96 554.183,1032.86 567.434,1032.86L759.509,1032.86C772.76,1032.86 783.518,1042.96 783.518,1055.4Z" style="fill:none;stroke:black;stroke-width:3.76px;"/>
    </g>
    <g>
        <path d="M783.518,2477.57L783.518,2958.76C783.518,2971.2 772.76,2981.3 759.509,2981.3L567.434,2981.3C554.183,2981.3 543.425,2971.2 543.425,2958.76L543.425,2477.57C543.425,2465.13 554.183,2455.03 567.434,2455.03L759.509,2455.03C772.76,2455.03 783.518,2465.13 783.518,2477.57Z" style="fill:none;stroke:black;stroke-width:3.76px;"/>
    </g>
    <g>
        <path d="M783.518,3899.74L783.518,4380.94C783.518,4393.37 772.76,4403.47 759.509,4403.47L567.434,4403.47C554.183,4403.47 543.425,4393.37 543.425,4380.94L543.425,3899.74C543.425,3887.3 554.183,3877.2 567.434,3877.2L759.509,3877.2C772.76,3877.2 783.518,3887.3 783.518,3899.74Z" style="fill:none;stroke:black;stroke-width:3.76px;"/>
    </g>
    <g>
        <path d="M783.518,1766.49L783.518,2247.68C783.518,2260.12 772.76,2270.22 759.509,2270.22L567.434,2270.22C554.183,2270.22 543.425,2260.12 543.425,2247.68L543.425,1766.49C543.425,1754.05 554.183,1743.95 567.434,1743.95L759.509,1743.95C772.76,1743.95 783.518,1754.05 783.518,1766.49Z" style="fill:none;stroke:black;stroke-width:3.76px;"/>
    </g>
    <g>
        <path d="M783.518,3188.66L783.518,3669.85C783.518,3682.29 772.76,3692.39 759.509,3692.39L567.434,3692.39C554.183,3692.39 543.425,3682.29 543.425,3669.85L543.425,3188.66C543.425,3176.22 554.183,3166.12 567.434,3166.12L759.509,3166.12C772.76,3166.12 783.518,3176.22 783.518,3188.66Z" style="fill:none;stroke:black;stroke-width:3.76px;"/>
    </g>
    <g>
        <path d="M1531.41,344.316L1531.41,825.507C1531.41,837.946 1520.66,848.046 1507.4,848.046L1315.33,848.046C1302.08,848.046 1291.32,837.946 1291.32,825.507L1291.32,344.316C1291.32,331.877 1302.08,321.777 1315.33,321.777L1507.4,321.777C1520.66,321.777 1531.41,331.877 1531.41,344.316Z" style="fill:none;stroke:black;stroke-width:3.76px;"/>
    </g>
    <g>
        <path d="M1534.71,1055.4L1534.71,1536.59C1534.71,1549.03 1523.95,1559.13 1510.7,1559.13L1318.63,1559.13C1305.38,1559.13 1294.62,1549.03 1294.62,1536.59L1294.62,1055.4C1294.62,1042.96 1305.38,1032.86 1318.63,1032.86L1510.7,1032.86C1523.95,1032.86 1534.71,1042.96 1534.71,1055.4Z" style="fill:none;stroke:black;stroke-width:3.76px;"/>
    </g>
    <g>
        <path d="M1534.71,2477.57L1534.71,2958.76C1534.71,2971.2 1523.95,2981.3 1510.7,2981.3L1318.63,2981.3C1305.38,2981.3 1294.62,2971.2 1294.62,2958.76L1294.62,2477.57C1294.62,2465.13 1305.38,2455.03 1318.63,2455.03L1510.7,2455.03C1523.95,2455.03 1534.71,2465.13 1534.71,2477.57Z" style="fill:none;stroke:black;stroke-width:3.76px;"/>
    </g>
    <g>
        <path d="M1534.71,3899.74L1534.71,4380.94C1534.71,4393.37 1523.95,4403.47 1510.7,4403.47L1318.63,4403.47C1305.38,4403.47 1294.62,4393.37 1294.62,4380.94L1294.62,3899.74C1294.62,3887.3 1305.38,3877.2 1318.63,3877.2L1510.7,3877.2C1523.95,3877.2 1534.71,3887.3 1534.71,3899.74Z" style="fill:none;stroke:black;stroke-width:3.76px;"/>
    </g>
    <g>
        <path d="M1534.71,1766.49L1534.71,2247.68C1534.71,2260.12 1523.95,2270.22 1510.7,2270.22L1318.63,2270.22C1305.38,2270.22 1294.62,2260.12 1294.62,2247.68L1294.62,1766.49C1294.62,1754.05 1305.38,1743.95 1318.63,1743.95L1510.7,1743.95C1523.95,1743.95 1534.71,1754.05 1534.71,1766.49Z" style="fill:none;stroke:black;stroke-width:3.76px;"/>
    </g>
    <g>
        <path d="M1534.71,3188.66L1534.71,3669.85C1534.71,3682.29 1523.95,3692.39 1510.7,3692.39L1318.63,3692.39C1305.38,3692.39 1294.62,3682.29 1294.62,3669.85L1294.62,3188.66C1294.62,3176.22 1305.38,3166.12 1318.63,3166.12L1510.7,3166.12C1523.95,3166.12 1534.71,3176.22 1534.71,3188.66Z" style="fill:none;stroke:black;stroke-width:3.76px;"/>
    </g>
</svg>
