<?xml version="1.0" encoding="UTF-8" standalone="no"?>
<!DOCTYPE svg PUBLIC "-//W3C//DTD SVG 1.1//EN" "http://www.w3.org/Graphics/SVG/1.1/DTD/svg11.dtd">
<svg width="100%" height="100%" viewBox="0 0 1033 1511" version="1.1" xmlns="http://www.w3.org/2000/svg" xmlns:xlink="http://www.w3.org/1999/xlink" xml:space="preserve" xmlns:serif="http://www.serif.com/" style="fill-rule:evenodd;clip-rule:evenodd;stroke-linejoin:round;stroke-miterlimit:2;">
    <g transform="matrix(1,0,0,1,-7061,-3403)">
        <g id="template_buldogue" transform="matrix(1,0,0,1,1906.01,-1576.28)">
            <rect x="5155.9" y="4980" width="1032" height="1509.99" style="fill:rgb(222,237,226);"/>
            <g transform="matrix(0.405203,0,0,0.301977,5503.97,3748.93)">
                <path d="M666.962,5311.59L666.962,6170.28C666.962,6207.68 644.332,6238.05 616.459,6238.05L212.434,6238.05C184.56,6238.05 161.931,6207.68 161.931,6170.28L161.931,5311.59C161.931,5274.19 184.56,5243.82 212.434,5243.82L616.459,5243.82C644.332,5243.82 666.962,5274.19 666.962,5311.59Z" style="fill:rgb(88,167,111);"/>
            </g>
            <g transform="matrix(0.405203,0,0,0.301977,5503.97,4253.8)">
                <path d="M666.962,5311.59L666.962,6170.28C666.962,6207.68 644.332,6238.05 616.459,6238.05L212.434,6238.05C184.56,6238.05 161.931,6207.68 161.931,6170.28L161.931,5311.59C161.931,5274.19 184.56,5243.82 212.434,5243.82L616.459,5243.82C644.332,5243.82 666.962,5274.19 666.962,5311.59Z" style="fill:rgb(88,167,111);"/>
            </g>
            <g transform="matrix(2.48115e-17,0.405203,-0.301977,1.84907e-17,7657.97,5567.06)">
                <path d="M666.962,5311.59L666.962,6170.28C666.962,6207.68 644.332,6238.05 616.459,6238.05L212.434,6238.05C184.56,6238.05 161.931,6207.68 161.931,6170.28L161.931,5311.59C161.931,5274.19 184.56,5243.82 212.434,5243.82L616.459,5243.82C644.332,5243.82 666.962,5274.19 666.962,5311.59Z" style="fill:rgb(88,167,111);"/>
            </g>
            <g transform="matrix(2.48115e-17,0.405203,-0.301977,1.84907e-17,7153.1,5567.06)">
                <path d="M666.962,5311.59L666.962,6170.28C666.962,6207.68 644.332,6238.05 616.459,6238.05L212.434,6238.05C184.56,6238.05 161.931,6207.68 161.931,6170.28L161.931,5311.59C161.931,5274.19 184.56,5243.82 212.434,5243.82L616.459,5243.82C644.332,5243.82 666.962,5274.19 666.962,5311.59Z" style="fill:rgb(88,167,111);"/>
            </g>
        </g>
    </g>
</svg>
