<?xml version="1.0" encoding="UTF-8" standalone="no"?>
<!DOCTYPE svg PUBLIC "-//W3C//DTD SVG 1.1//EN" "http://www.w3.org/Graphics/SVG/1.1/DTD/svg11.dtd">
<svg width="100%" height="100%" viewBox="0 0 1773 1773" version="1.1" xmlns="http://www.w3.org/2000/svg" xmlns:xlink="http://www.w3.org/1999/xlink" xml:space="preserve" xmlns:serif="http://www.serif.com/" style="fill-rule:evenodd;clip-rule:evenodd;stroke-linejoin:round;stroke-miterlimit:2;">
    <rect id="template_dalmata1" x="0.594" y="0.421" width="1771.65" height="1771.65" style="fill:rgb(181,150,220);"/>
    <g>
        <path d="M635.938,327.984L730.652,1106.21C733.1,1126.33 718.755,1144.65 698.637,1147.1L407.033,1182.59C386.915,1185.04 368.595,1170.69 366.147,1150.57L271.433,372.345C268.985,352.228 283.329,333.906 303.447,331.458L595.051,295.968C615.169,293.52 633.49,307.866 635.938,327.984Z" style="fill:white;stroke:white;stroke-width:1px;"/>
    </g>
    <g>
        <path d="M1499.81,707.443L1253.22,1451.62C1246.84,1470.86 1226.05,1481.3 1206.81,1474.93L927.967,1382.53C908.729,1376.15 898.287,1355.36 904.661,1336.12L1151.25,591.945C1157.63,572.707 1178.42,562.263 1197.66,568.638L1476.51,661.036C1495.74,667.411 1506.18,688.205 1499.81,707.443Z" style="fill:white;"/>
    </g>
</svg>
