<?xml version="1.0" encoding="UTF-8" standalone="no"?>
<!DOCTYPE svg PUBLIC "-//W3C//DTD SVG 1.1//EN" "http://www.w3.org/Graphics/SVG/1.1/DTD/svg11.dtd">
<svg width="100%" height="100%" viewBox="0 0 768 1511" version="1.1" xmlns="http://www.w3.org/2000/svg" xmlns:xlink="http://www.w3.org/1999/xlink" xml:space="preserve" xmlns:serif="http://www.serif.com/" style="fill-rule:evenodd;clip-rule:evenodd;stroke-linejoin:round;stroke-miterlimit:2;">
    <g transform="matrix(1,0,0,1,-2450,-3403)">
        <g id="mobile" transform="matrix(0.254659,0,0,1.04556,2450.61,-1803.76)">
            <rect x="0" y="4980.53" width="3010.37" height="1444.18" style="fill:white;"/>
            <g transform="matrix(11.2057,0,0,2.72928,349.552,5149.33)">
                <path d="M26.027,-0.187C28.587,-0.481 29.501,-0.797 31.339,-0.715C39.92,-0.335 39.917,-0.46 40.662,-0.411C44.008,-0.193 51.187,-0.336 56.987,-0.209C61.464,-0.112 63.017,-0.078 112.963,0.032C157.713,0.13 157.699,0.098 163.69,0.176C164.402,0.225 178.699,0.597 187.661,8.177C192.357,12.147 193.87,15.266 195.66,19.386C195.823,19.89 197.319,24.527 197.447,25.749C197.617,27.371 198.513,27.243 198.799,27.499C198.757,29.121 198.776,29.119 198.776,60.733C198.776,83.541 198.724,83.572 199.183,85.241C199.994,88.187 199.378,88.242 199.359,93.968C199.283,117.394 199.438,120.262 199.561,122.545C199.594,125.358 199.656,125.365 199.044,127.724C198.997,127.952 198.896,128.167 198.849,128.395C198.672,129.258 198.843,365.451 198.758,375.006C198.727,378.504 200.395,391.391 187.457,401.048C183.603,403.553 182.993,403.88 178.821,405.224C172.675,406.815 171.073,406.333 165.444,406.128C164.091,406.114 149.805,405.963 148.53,405.963C116.467,405.959 116.451,405.611 112.423,406.095C111.14,406.249 90.989,406.195 90.184,406.093C88.33,405.858 88.334,405.909 78.563,405.909C58.148,405.909 58.159,406.017 37.748,406.056C32.671,406.066 22.874,407.251 14.57,400.468C12.188,398.461 10.039,396.515 7.582,392.409C6.722,390.813 5.794,389.222 5.06,386.676C4.941,386.263 4.24,383.832 4.029,381.408C3.905,379.984 3.918,379.98 3.918,170.932C3.918,150.954 3.973,150.846 3.52,150.385C1.816,148.653 2.557,148.318 2.58,144.107C2.673,126.276 2.589,125.31 2.446,123.682C2.242,121.351 3.86,121.744 3.908,119.621C4.029,114.23 3.827,114.015 3.499,113.668C2.494,112.606 2.405,112.558 2.473,110.858C2.648,106.486 2.523,104.239 2.601,93.968C2.66,86.114 2.13,85.934 3.022,84.85C4.295,83.302 3.919,83.13 3.919,81.14C3.92,66.486 3.936,66.464 3.756,66.06C3.356,65.166 2.363,65.57 2.492,63.629C2.63,61.54 2.522,58.281 2.6,54.902C2.646,52.885 2.511,52.904 2.473,51.382C2.441,50.105 3.471,49.863 3.819,49.04C3.924,48.792 3.91,48.794 3.91,35.661C3.91,24.503 2.67,15.222 14.299,5.172C14.85,5.374 14.452,5.814 15.009,6.017C15.061,6.036 15.063,6.017 15.592,5.645C16.155,5.248 16.176,5.316 16.758,4.958C16.856,4.898 17.068,4.597 17.91,4.148C18.061,4.068 18.232,4.025 18.379,3.937C21.508,2.058 21.447,1.952 22.502,1.606C22.707,1.539 22.719,1.749 23.755,1.472C23.897,1.434 25.395,1.033 25.504,0.91C25.773,0.607 25.758,0.116 26.027,-0.187Z" style="fill:rgb(11,11,11);"/>
            </g>
            <g transform="matrix(11.2057,0,0,2.72928,349.552,5146.94)">
                <path d="M11.291,390.003C8.016,384.398 8.143,379.116 8.136,377.63C8.136,266.07 8.136,154.511 8.136,42.952C8.136,27.575 7.723,23.955 10.668,18.334C16.945,6.352 27.184,4.958 30.747,4.426C31.814,4.266 31.823,4.271 157.859,4.271C169.785,4.271 175.86,3.626 183.075,8.332C196.2,16.891 194.587,31.214 194.587,32.457C194.582,371.424 194.62,371.422 194.587,377.63C194.581,378.733 194.546,385.357 190.89,390.911C184.257,400.988 175.609,402.208 171.859,402.762C170.911,402.902 170.903,402.898 41.83,402.898C30.859,402.898 23.521,403.705 14.775,394.757C14.879,394.541 16.055,394.17 15.009,392.505C14.934,392.386 14.755,392.34 14.71,392.206C14.647,392.022 14.71,391.818 14.71,391.623C14.71,390.73 14.683,390.746 14.604,389.867C14.528,389.026 14.679,388.808 13.872,388.58C12.951,388.319 13.011,388.691 12.677,388.858C12.497,388.948 12.248,388.881 12.094,389.009C11.765,389.28 11.62,389.731 11.291,390.003Z" style="fill:rgb(254,254,254);"/>
            </g>
            <g transform="matrix(11.2057,0,0,2.72928,349.552,4121.17)">
                <path d="M125.581,392.521C124.685,396.056 123.511,397.098 120.502,398.231C117.921,398.689 117.898,398.456 84.977,398.496C84.171,398.497 79.937,398.985 77.541,395.371C74.497,390.778 77.67,384.36 83.219,384.205C83.964,384.184 118,384.184 118.801,384.206C122.114,384.297 125.909,387.047 125.63,391.958C125.619,392.146 125.592,392.333 125.581,392.521Z"/>
            </g>
            <g transform="matrix(11.2057,0,0,2.72928,349.552,4112.32)">
                <path d="M170.689,378.955C171.738,378.981 177.868,379.137 183.466,381.898C190.781,385.506 194.286,391.107 195.199,392.864C197.462,397.223 198.968,400.415 198.799,407.456C198.513,407.2 197.617,407.328 197.447,405.706C197.319,404.484 195.823,399.847 195.66,399.343C195.74,399.017 196.364,399.034 196.444,398.707C196.478,398.566 195.838,397.091 195.778,396.953C194.347,393.656 191.094,386.551 181.153,382.452C176.343,380.468 171.629,380.036 171.27,379.756C171.009,379.554 170.95,379.157 170.689,378.955Z" style="fill:rgb(35,35,35);"/>
            </g>
            <g transform="matrix(11.2057,0,0,2.72928,349.552,4090.18)">
                <path d="M170.689,387.068C170.95,387.27 171.009,387.667 171.27,387.869C171.629,388.149 176.343,388.581 181.153,390.565C191.094,394.664 194.347,401.769 195.778,405.066C195.838,405.204 196.478,406.679 196.444,406.82C196.364,407.147 195.74,407.13 195.66,407.456C193.87,403.336 192.357,400.217 187.661,396.247C178.699,388.667 164.402,388.295 163.69,388.246C163.944,388.092 164.019,387.726 164.273,387.572C164.44,387.47 164.669,387.589 164.857,387.537C165.147,387.457 165.083,387.231 166.022,387.25C168.36,387.297 168.336,387.124 170.689,387.068Z" style="fill:rgb(165,165,164);"/>
            </g>
            <g transform="matrix(11.2057,0,0,2.72928,349.552,6199.99)">
                <path d="M195.528,1.553C195.691,1.755 196.113,1.558 196.276,1.759C196.306,1.797 194.508,8.393 188.711,13.31C187.16,14.625 182.759,18.258 174.782,19.818C174.274,19.917 174.269,19.941 174.232,19.916C173.729,19.567 174.045,19.308 173.543,18.961C174.112,18.81 177.445,18.018 179.525,17.072C186.775,13.775 191.37,10.639 195.528,1.553Z" style="fill:rgb(125,125,125);"/>
            </g>
            <g transform="matrix(11.2057,0,0,2.72928,349.552,4125.56)">
                <path d="M114.8,387.576C115.696,386.912 115.667,386.862 115.763,386.862C116.029,386.861 116.2,387.2 116.462,387.247C116.664,387.282 116.853,387.079 117.059,387.09C117.282,387.102 118.877,387.186 119.42,388.588C121.054,392.8 114.685,394.699 113.634,390.922C113.259,389.577 113.892,388.718 114.196,388.08C114.475,387.493 114.684,387.672 114.8,387.576Z" style="fill:rgb(44,48,52);"/>
            </g>
            <g transform="matrix(11.2057,0,0,2.72928,349.552,4606.03)">
                <path d="M206.231,312.855C206.231,312.924 206.442,315.361 205.67,315.361C205.019,315.361 205.109,314.966 205.109,303.526C205.109,290.967 205.09,290.957 205.226,290.77C205.268,290.713 205.67,290.156 206.115,290.77C206.247,290.954 206.231,290.984 206.231,312.855Z" style="fill:rgb(254,254,254);"/>
            </g>
            <g transform="matrix(11.2057,0,0,2.72928,349.552,6206.23)">
                <path d="M7.582,5.165C10.039,9.27 12.188,11.216 14.57,13.223C14.171,13.368 13.957,13.851 13.558,13.996C13.426,14.044 13.368,13.788 13.26,13.698C12.979,13.465 12.02,12.829 11.994,12.83C11.766,12.84 11.722,13.228 11.511,13.314C11.33,13.388 11.104,13.348 10.927,13.264C10.152,12.896 10.594,11.256 10.344,11.007C10.259,10.921 9.272,10.795 9.178,10.783C7.519,10.571 7.523,10.709 7.381,10.685C6.522,10.54 6.772,10.226 6.697,9.348C6.656,8.86 6.561,8.878 6.561,8.166C6.561,6.061 6.396,6.018 6.561,5.834C6.832,5.53 7.311,5.468 7.582,5.165Z" style="fill:rgb(250,250,250);"/>
            </g>
            <g transform="matrix(11.2057,0,0,2.72928,349.552,6244.08)">
                <path d="M187.457,-0.064C187.477,0.201 187.613,0.448 187.632,0.713C187.647,0.908 187.625,1.112 187.558,1.296C187.479,1.509 187.27,1.662 187.205,1.879C187.148,2.065 187.282,2.284 187.205,2.462C187.113,2.673 186.793,2.742 186.732,2.963C186.674,3.175 186.906,3.384 186.894,3.603C186.889,3.692 186.723,3.693 186.689,3.776C186.601,3.985 186.793,4.708 185.843,4.742C183.153,4.84 183.164,4.743 182.931,4.751C182.737,4.759 182.524,4.67 182.348,4.751C182.107,4.863 182.018,5.213 181.765,5.292C181.393,5.406 180.987,5.292 180.599,5.292C179.043,5.292 179.017,4.305 178.821,4.112C182.993,2.768 183.603,2.442 187.457,-0.064Z" style="fill:rgb(251,251,251);"/>
            </g>
            <g transform="matrix(11.2057,0,0,2.72928,349.552,4145.48)">
                <path d="M125.581,383.613C125.763,383.892 126.185,383.949 126.367,384.227C126.383,384.251 126.297,385.66 126.374,385.697C126.441,385.729 128.134,385.473 128.325,386.515C128.545,387.719 128.217,387.839 127.004,387.929C126.793,387.945 126.57,387.931 126.374,388.011C126.244,388.064 126.202,388.246 126.076,388.309C125.804,388.445 125.493,388.487 125.208,388.594C124.975,388.682 124.701,388.716 124.525,388.892C124.38,389.037 124.441,389.304 124.327,389.475C123.541,390.648 121.933,390.511 121.709,390.492C121.238,390.452 121.161,390.377 121.126,390.343C120.687,389.918 120.942,389.749 120.502,389.323C123.511,388.19 124.685,387.148 125.581,383.613Z" style="fill:rgb(247,247,247);"/>
            </g>
            <g transform="matrix(11.2057,0,0,2.72928,349.552,4726.85)">
                <path d="M199.561,277.34C199.677,277.314 201.006,277.011 201.006,277.011C202.381,277.264 202.162,277.68 202.184,279.081C202.217,281.238 201.867,282.151 201.835,282.58C201.824,282.728 201.712,284.238 201.006,284.238C200.774,284.238 200.663,283.924 200.514,283.746C200.089,283.239 200.149,283.2 200.105,283.163C199.619,282.757 199.524,282.919 199.044,282.519C199.656,280.16 199.594,280.153 199.561,277.34Z" style="fill:rgb(248,248,248);"/>
            </g>
            <g transform="matrix(11.2057,0,0,2.72928,349.552,4055.97)">
                <path d="M26.027,400.418C25.758,400.721 25.773,401.212 25.504,401.515C25.395,401.638 23.897,402.039 23.755,402.077C22.719,402.354 22.707,402.144 22.502,402.211C21.447,402.557 21.508,402.663 18.379,404.542C18.232,404.63 18.061,404.673 17.91,404.753C17.068,405.202 16.856,405.503 16.758,405.563C16.176,405.921 16.155,405.853 15.592,406.25C15.063,406.622 15.061,406.641 15.009,406.622C14.452,406.419 14.85,405.979 14.299,405.777C19.035,401.863 21.798,401.338 26.027,400.418Z" style="fill:rgb(101,101,101);"/>
            </g>
            <g transform="matrix(11.2057,0,0,2.72928,349.552,6172.45)">
                <path d="M11.291,14.257C11.62,13.986 11.765,13.534 12.094,13.263C12.248,13.135 12.497,13.202 12.677,13.113C13.011,12.945 12.951,12.573 13.872,12.834C14.679,13.063 14.528,13.28 14.604,14.121C14.683,15 14.71,14.984 14.71,15.878C14.71,16.072 14.647,16.277 14.71,16.461C14.755,16.594 14.934,16.64 15.009,16.759C16.055,18.425 14.879,18.796 14.775,19.012C12.834,16.864 12.696,16.532 11.291,14.257Z" style="fill:rgb(252,252,252);"/>
            </g>
            <g transform="matrix(11.2057,0,0,2.72928,349.552,4584.7)">
                <path d="M0.647,315.421C0.518,315.168 0.076,315.371 0.054,314.255C0.053,314.248 0.026,313.722 0.024,313.089C-0.045,298.526 0.058,298.526 0.064,298.512C0.291,297.947 0.656,297.91 0.801,298.512C0.892,298.89 0.801,299.29 0.801,299.678C0.801,313.634 0.908,313.63 0.801,314.838C0.783,315.038 0.664,315.221 0.647,315.421Z" style="fill:rgb(254,254,254);"/>
            </g>
            <g transform="matrix(11.2057,0,0,2.72928,349.552,4118.28)">
                <path d="M117.38,391.449C117.294,391.636 117.437,391.652 117.351,391.841C117.328,391.89 117.202,392.166 116.952,392.384C116.844,392.479 116.644,392.43 116.552,392.54C116.452,392.659 116.52,392.859 116.441,392.993C116.29,393.248 116.028,393.425 115.878,393.679C115.629,393.522 115.582,393.683 115.339,393.53C115.129,393.397 115.239,393.312 115.043,393.151C114.955,393.079 114.725,393.141 114.726,393.027C114.726,392.791 114.942,392.606 115.044,392.392C115.118,392.237 115.659,391.108 116.477,390.791C117.114,390.544 117.091,390.837 117.38,391.449Z" style="fill:rgb(19,59,102);"/>
            </g>
            <g transform="matrix(11.2057,0,0,2.72928,349.552,4121.4)">
                <path d="M117.38,390.306C117.564,390.528 117.965,390.481 118.149,390.704C118.272,390.852 118.262,391.103 118.186,391.279C118.135,391.399 117.919,391.348 117.831,391.444C117.721,391.563 117.732,391.761 117.629,391.885C117.492,392.05 117.429,391.937 117.284,392.104C117.134,392.277 117.251,392.322 117.092,392.505C116.851,392.596 116.611,392.687 116.37,392.778L115.878,392.536C116.028,392.282 116.29,392.105 116.441,391.85C116.52,391.716 116.452,391.516 116.552,391.397C116.644,391.287 116.844,391.336 116.952,391.241C117.202,391.023 117.328,390.747 117.351,390.698C117.437,390.509 117.294,390.493 117.38,390.306Z" style="fill:rgb(13,37,63);"/>
            </g>
            <g transform="matrix(11.2057,0,0,2.72928,349.552,4812.91)">
                <path d="M0.801,263.878C0.801,264.253 1.598,264.299 1.598,264.675C1.598,265.841 0.851,265.093 0.801,265.044C0.33,264.573 1.265,264.341 0.801,263.878Z" style="fill:rgb(254,254,254);"/>
            </g>
        </g>
    </g>
</svg>
