<?xml version="1.0" encoding="UTF-8" standalone="no"?>
<!DOCTYPE svg PUBLIC "-//W3C//DTD SVG 1.1//EN" "http://www.w3.org/Graphics/SVG/1.1/DTD/svg11.dtd">
<svg width="100%" height="100%" viewBox="0 0 4631 3508" version="1.1" xmlns="http://www.w3.org/2000/svg" xmlns:xlink="http://www.w3.org/1999/xlink" xml:space="preserve" xmlns:serif="http://www.serif.com/" style="fill-rule:evenodd;clip-rule:evenodd;stroke-linejoin:round;stroke-miterlimit:2;">
    <g id="original" transform="matrix(1,0,0,1,-4866.535433,0)">
        <rect x="4866.535" y="0" width="4630.315" height="3507.874" style="fill:none;"/>
        <g id="vetor" transform="matrix(1.866825,0,0,1,4868.045133,-56.914066)">
            <g id="tela" transform="matrix(1,0,0,1,1.607006,-5)">
                <g id="tela1" serif:id="tela" transform="matrix(0.533797,0,0,3.931126,4.325248,-1782.59334)">
                    <rect x="593.648" y="608.16" width="3434" height="545.84" style="fill:rgb(168,168,168);"/>
                </g>
                <g id="barra_desktop" transform="matrix(0.533797,0,0,0.820363,3.257654,109.247904)">
                    <path d="M3982.238,521.358C3994.812,521.358 4006.871,527.426 4015.762,538.226C4024.653,549.026 4029.648,563.674 4029.648,578.947C4029.648,595.01 4029.648,608.16 4029.648,608.16L595.648,608.16L595.648,578.947C595.648,563.674 600.643,549.026 609.534,538.226C618.425,527.426 630.484,521.358 643.058,521.358C1025.328,521.358 3599.968,521.358 3982.238,521.358Z" style="fill:rgb(191,191,191);"/>
                </g>
                <g id="apple_logo" transform="matrix(0.035351,0,0,0.065994,347.794097,554.326595)">
                    <path d="M274.403,53.888C314.399,1.173 370.003,0.915 370.003,0.915C370.003,0.915 378.273,50.477 338.541,98.221C296.115,149.202 247.891,140.859 247.891,140.859C247.891,140.859 238.836,100.765 274.403,53.888Z" style="fill:rgb(3,1,4);"/>
                    <path d="M252.978,175.578C273.555,175.578 311.742,147.293 361.449,147.293C447.011,147.293 480.67,208.176 480.67,208.176C480.67,208.176 414.837,241.835 414.837,323.506C414.837,415.64 496.846,447.391 496.846,447.391C496.846,447.391 439.518,608.749 362.085,608.749C326.519,608.749 298.871,584.782 261.397,584.782C223.21,584.782 185.313,609.644 160.632,609.644C89.923,609.644 0.593,456.581 0.593,333.544C0.593,212.492 76.206,148.99 147.127,148.99C193.231,148.99 229.009,175.578 252.978,175.578Z" style="fill:rgb(3,1,4);"/>
                </g>
                <g id="texto_convertido" transform="matrix(0.535669,0,0,1,-2609.266588,61.914066)">
                    <path d="M5729.292,525.586L5726.399,525.586L5726.399,502.396L5740.477,502.396L5740.477,504.999L5729.292,504.999L5729.292,512.97L5739.561,512.97L5739.561,515.542L5729.292,515.542L5729.292,525.586ZM5744.945,525.586L5744.945,508.262L5747.709,508.262L5747.709,525.586L5744.945,525.586ZM5746.327,504.742C5745.266,504.742 5744.399,503.874 5744.399,502.813C5744.399,501.753 5745.266,500.885 5746.327,500.885C5747.388,500.885 5748.256,501.753 5748.256,502.813C5748.256,503.874 5747.388,504.742 5746.327,504.742ZM5753.141,525.586L5753.141,501.383L5755.905,501.383L5755.905,525.586L5753.141,525.586ZM5772.748,521.102L5775.512,521.102C5774.676,524.075 5772.009,525.891 5768.216,525.891C5763.411,525.891 5760.405,522.42 5760.405,516.94C5760.405,511.492 5763.459,507.956 5768.216,507.956C5772.892,507.956 5775.737,511.283 5775.737,516.667L5775.737,517.727L5763.282,517.727L5763.282,517.856C5763.427,521.279 5765.339,523.449 5768.28,523.449C5770.514,523.449 5772.025,522.629 5772.748,521.102ZM5768.184,510.399C5765.419,510.399 5763.491,512.424 5763.282,515.494L5772.828,515.494C5772.764,512.424 5770.932,510.399 5768.184,510.399ZM5594.449,526.795L5590.303,526.795L5590.303,503.605L5605.088,503.605L5605.088,507.188L5594.449,507.188L5594.449,513.938L5604.172,513.938L5604.172,517.394L5594.449,517.394L5594.449,526.795ZM5609.299,526.795L5609.299,509.213L5613.268,509.213L5613.268,526.795L5609.299,526.795ZM5611.275,506.353C5609.829,506.353 5608.816,505.421 5608.816,504.151C5608.816,502.881 5609.829,501.949 5611.275,501.949C5612.738,501.949 5613.734,502.881 5613.734,504.151C5613.734,505.421 5612.738,506.353 5611.275,506.353ZM5618.202,526.795L5618.202,509.213L5622.043,509.213L5622.043,512.026L5622.316,512.026C5623.152,510.065 5625.209,508.86 5627.844,508.86C5631.766,508.86 5633.968,511.222 5633.968,515.417L5633.968,526.795L5629.998,526.795L5629.998,516.365C5629.998,513.681 5628.777,512.331 5626.366,512.331C5623.795,512.331 5622.187,513.97 5622.187,516.558L5622.187,526.795L5618.202,526.795ZM5645.057,527.084C5640.605,527.084 5637.825,523.581 5637.825,517.988C5637.825,512.428 5640.621,508.924 5645.057,508.924C5647.467,508.924 5649.46,510.081 5650.392,512.01L5650.665,512.01L5650.665,502.415L5654.651,502.415L5654.651,526.795L5650.794,526.795L5650.794,524.015L5650.521,524.015C5649.524,525.943 5647.499,527.084 5645.057,527.084ZM5646.294,512.315C5643.578,512.315 5641.907,514.469 5641.907,518.004C5641.907,521.556 5643.562,523.693 5646.294,523.693C5649.042,523.693 5650.714,521.54 5650.714,518.004C5650.714,514.501 5649.026,512.315 5646.294,512.315ZM5671.14,521.958L5674.916,521.958C5674.161,525.156 5671.252,527.149 5667.106,527.149C5661.931,527.149 5658.813,523.726 5658.813,518.069C5658.813,512.412 5661.979,508.86 5667.074,508.86C5672.088,508.86 5675.093,512.187 5675.093,517.731L5675.093,519.017L5662.815,519.017L5662.815,519.226C5662.911,522.151 5664.599,523.983 5667.218,523.983C5669.195,523.983 5670.561,523.26 5671.14,521.958ZM5667.058,512.026C5664.679,512.026 5663.008,513.729 5662.831,516.301L5671.108,516.301C5671.027,513.697 5669.452,512.026 5667.058,512.026ZM5679.095,526.795L5679.095,509.213L5682.936,509.213L5682.936,511.946L5683.209,511.946C5683.691,510.21 5685.572,508.924 5687.822,508.924C5688.384,508.924 5689.075,508.988 5689.461,509.101L5689.461,512.797C5689.155,512.685 5688.063,512.572 5687.436,512.572C5684.881,512.572 5683.081,514.179 5683.081,516.638L5683.081,526.795L5679.095,526.795ZM5830.767,522.983L5830.767,525.586L5816.399,525.586L5816.399,502.396L5830.767,502.396L5830.767,504.999L5819.292,504.999L5819.292,512.44L5830.172,512.44L5830.172,515.011L5819.292,515.011L5819.292,522.983L5830.767,522.983ZM5842.064,525.891C5837.629,525.891 5834.784,522.372 5834.784,516.924C5834.784,511.492 5837.661,507.956 5842.064,507.956C5844.475,507.956 5846.516,509.097 5847.496,510.994L5847.737,510.994L5847.737,501.383L5850.502,501.383L5850.502,525.586L5847.866,525.586L5847.866,522.822L5847.609,522.822C5846.516,524.75 5844.459,525.891 5842.064,525.891ZM5842.707,510.447C5839.557,510.447 5837.645,512.89 5837.645,516.924C5837.645,520.974 5839.541,523.4 5842.707,523.4C5845.857,523.4 5847.802,520.926 5847.802,516.924C5847.802,512.954 5845.841,510.447 5842.707,510.447ZM5855.934,525.586L5855.934,508.262L5858.698,508.262L5858.698,525.586L5855.934,525.586ZM5857.316,504.742C5856.255,504.742 5855.387,503.874 5855.387,502.813C5855.387,501.753 5856.255,500.885 5857.316,500.885C5858.377,500.885 5859.244,501.753 5859.244,502.813C5859.244,503.874 5858.377,504.742 5857.316,504.742ZM5865.126,503.938L5867.891,503.938L5867.891,508.262L5871.908,508.262L5871.908,510.576L5867.891,510.576L5867.891,520.379C5867.891,522.42 5868.662,523.288 5870.462,523.288C5870.96,523.288 5871.201,523.272 5871.715,523.224L5871.715,525.554C5871.169,525.65 5870.671,525.715 5870.124,525.715C5866.557,525.715 5865.126,524.397 5865.126,521.086L5865.126,510.576L5862.217,510.576L5862.217,508.262L5865.126,508.262L5865.126,503.938ZM5920.48,525.586L5917.619,525.586L5909.069,502.396L5912.107,502.396L5918.921,521.842L5919.178,521.842L5925.992,502.396L5929.029,502.396L5920.48,525.586ZM5932.806,525.586L5932.806,508.262L5935.57,508.262L5935.57,525.586L5932.806,525.586ZM5934.188,504.742C5933.128,504.742 5932.26,503.874 5932.26,502.813C5932.26,501.753 5933.128,500.885 5934.188,500.885C5935.249,500.885 5936.117,501.753 5936.117,502.813C5936.117,503.874 5935.249,504.742 5934.188,504.742ZM5952.316,521.102L5955.081,521.102C5954.245,524.075 5951.577,525.891 5947.784,525.891C5942.979,525.891 5939.974,522.42 5939.974,516.94C5939.974,511.492 5943.027,507.956 5947.784,507.956C5952.461,507.956 5955.306,511.283 5955.306,516.667L5955.306,517.727L5942.851,517.727L5942.851,517.856C5942.995,521.279 5944.908,523.449 5947.849,523.449C5950.082,523.449 5951.593,522.629 5952.316,521.102ZM5947.752,510.399C5944.988,510.399 5943.059,512.424 5942.851,515.494L5952.397,515.494C5952.332,512.424 5950.5,510.399 5947.752,510.399ZM5981.437,508.262L5976.584,525.586L5973.771,525.586L5969.898,512.183L5969.641,512.183L5965.784,525.586L5962.987,525.586L5958.134,508.262L5960.93,508.262L5964.337,522.115L5964.595,522.115L5968.468,508.262L5971.119,508.262L5974.993,522.115L5975.25,522.115L5978.657,508.262L5981.437,508.262ZM6042.412,516.618C6042.412,522.34 6038.49,526.133 6032.56,526.133C6026.148,526.133 6022.05,521.408 6022.05,513.983C6022.05,506.654 6026.212,501.849 6032.56,501.849C6037.703,501.849 6041.431,504.71 6042.267,509.306L6039.326,509.306C6038.33,506.172 6035.999,504.517 6032.56,504.517C6027.964,504.517 6025.023,508.213 6025.023,513.983C6025.023,519.833 6027.916,523.465 6032.576,523.465C6036.723,523.465 6039.535,520.813 6039.535,516.892L6039.535,516.329L6033.01,516.329L6033.01,513.79L6042.412,513.79L6042.412,516.618ZM6054.288,525.891C6049.354,525.891 6046.301,522.484 6046.301,516.924C6046.301,511.347 6049.354,507.956 6054.288,507.956C6059.222,507.956 6062.276,511.347 6062.276,516.924C6062.276,522.484 6059.222,525.891 6054.288,525.891ZM6054.288,523.4C6057.567,523.4 6059.415,521.022 6059.415,516.924C6059.415,512.81 6057.567,510.447 6054.288,510.447C6051.01,510.447 6049.162,512.81 6049.162,516.924C6049.162,521.022 6051.01,523.4 6054.288,523.4ZM6115.721,507.281L6110.386,525.586L6107.653,525.586L6101.338,502.396L6104.359,502.396L6108.971,521.247L6109.164,521.247L6114.355,502.396L6117.28,502.396L6122.471,521.247L6122.664,521.247L6127.276,502.396L6130.298,502.396L6123.982,525.586L6121.25,525.586L6115.914,507.281L6115.721,507.281ZM6134.412,525.586L6134.412,508.262L6137.176,508.262L6137.176,525.586L6134.412,525.586ZM6135.794,504.742C6134.733,504.742 6133.865,503.874 6133.865,502.813C6133.865,501.753 6134.733,500.885 6135.794,500.885C6136.855,500.885 6137.722,501.753 6137.722,502.813C6137.722,503.874 6136.855,504.742 6135.794,504.742ZM6142.447,525.586L6142.447,508.262L6145.083,508.262L6145.083,510.994L6145.34,510.994C6146.208,509.081 6148.217,507.956 6150.868,507.956C6154.758,507.956 6156.927,510.254 6156.927,514.369L6156.927,525.586L6154.163,525.586L6154.163,515.044C6154.163,511.926 6152.845,510.447 6150.081,510.447C6147.044,510.447 6145.211,512.295 6145.211,515.333L6145.211,525.586L6142.447,525.586ZM6168.386,525.891C6163.95,525.891 6161.106,522.372 6161.106,516.924C6161.106,511.492 6163.982,507.956 6168.386,507.956C6170.797,507.956 6172.838,509.097 6173.818,510.994L6174.059,510.994L6174.059,501.383L6176.823,501.383L6176.823,525.586L6174.187,525.586L6174.187,522.822L6173.93,522.822C6172.838,524.75 6170.78,525.891 6168.386,525.891ZM6169.029,510.447C6165.879,510.447 6163.966,512.89 6163.966,516.924C6163.966,520.974 6165.863,523.4 6169.029,523.4C6172.179,523.4 6174.123,520.926 6174.123,516.924C6174.123,512.954 6172.163,510.447 6169.029,510.447ZM6189.31,525.891C6184.377,525.891 6181.323,522.484 6181.323,516.924C6181.323,511.347 6184.377,507.956 6189.31,507.956C6194.244,507.956 6197.298,511.347 6197.298,516.924C6197.298,522.484 6194.244,525.891 6189.31,525.891ZM6189.31,523.4C6192.589,523.4 6194.437,521.022 6194.437,516.924C6194.437,512.81 6192.589,510.447 6189.31,510.447C6186.032,510.447 6184.184,512.81 6184.184,516.924C6184.184,521.022 6186.032,523.4 6189.31,523.4ZM6222.786,508.262L6217.933,525.586L6215.12,525.586L6211.247,512.183L6210.99,512.183L6207.133,525.586L6204.337,525.586L6199.483,508.262L6202.28,508.262L6205.687,522.115L6205.944,522.115L6209.817,508.262L6212.469,508.262L6216.342,522.115L6216.599,522.115L6220.006,508.262L6222.786,508.262ZM6280.362,525.586L6277.469,525.586L6277.469,515.027L6264.741,515.027L6264.741,525.586L6261.848,525.586L6261.848,502.396L6264.741,502.396L6264.741,512.424L6277.469,512.424L6277.469,502.396L6280.362,502.396L6280.362,525.586ZM6297.397,521.102L6300.162,521.102C6299.326,524.075 6296.658,525.891 6292.865,525.891C6288.06,525.891 6285.055,522.42 6285.055,516.94C6285.055,511.492 6288.108,507.956 6292.865,507.956C6297.542,507.956 6300.387,511.283 6300.387,516.667L6300.387,517.727L6287.932,517.727L6287.932,517.856C6288.076,521.279 6289.989,523.449 6292.93,523.449C6295.163,523.449 6296.674,522.629 6297.397,521.102ZM6292.833,510.399C6290.069,510.399 6288.14,512.424 6287.932,515.494L6297.478,515.494C6297.413,512.424 6295.581,510.399 6292.833,510.399ZM6304.886,525.586L6304.886,501.383L6307.651,501.383L6307.651,525.586L6304.886,525.586ZM6321.456,507.956C6325.875,507.956 6328.736,511.476 6328.736,516.924C6328.736,522.34 6325.859,525.891 6321.456,525.891C6318.981,525.891 6316.988,524.815 6316.04,522.983L6315.783,522.983L6315.783,531.372L6313.018,531.372L6313.018,508.262L6315.654,508.262L6315.654,511.154L6315.911,511.154C6317.02,509.162 6319.093,507.956 6321.456,507.956ZM6320.797,523.4C6323.979,523.4 6325.875,520.974 6325.875,516.924C6325.875,512.874 6323.979,510.447 6320.813,510.447C6317.679,510.447 6315.702,512.938 6315.702,516.924C6315.702,520.893 6317.679,523.4 6320.797,523.4ZM8566.181,521.465L8564.01,521.465L8564.01,506.017L8558.402,506.017L8558.402,504.063L8571.788,504.063L8571.788,506.017L8566.181,506.017L8566.181,521.465ZM8574.996,521.465L8574.996,503.303L8577.071,503.303L8577.071,510.515L8577.264,510.515C8577.915,509.08 8579.398,508.236 8581.388,508.236C8584.343,508.236 8585.995,509.996 8585.995,513.048L8585.995,521.465L8583.921,521.465L8583.921,513.554C8583.921,511.251 8582.908,510.105 8580.797,510.105C8578.47,510.105 8577.071,511.576 8577.071,513.771L8577.071,521.465L8574.996,521.465ZM8600.54,508.465L8600.54,521.465L8598.562,521.465L8598.562,519.427L8598.369,519.427C8597.718,520.874 8596.21,521.695 8594.22,521.695C8591.302,521.695 8589.661,519.958 8589.661,516.883L8589.661,508.465L8591.736,508.465L8591.736,516.376C8591.736,518.716 8592.725,519.801 8594.799,519.801C8597.09,519.801 8598.465,518.438 8598.465,516.159L8598.465,508.465L8600.54,508.465ZM8604.447,521.465L8604.447,508.465L8606.425,508.465L8606.425,510.394L8606.618,510.394C8607.004,509.128 8608.499,508.236 8610.224,508.236C8610.561,508.236 8610.996,508.26 8611.261,508.296L8611.261,510.37C8611.092,510.322 8610.344,510.25 8609.934,510.25C8607.957,510.25 8606.521,511.576 8606.521,513.409L8606.521,521.465L8604.447,521.465ZM8613.13,512.022C8613.13,509.864 8615.217,508.236 8617.978,508.236C8620.704,508.236 8622.597,509.586 8622.875,511.721L8620.825,511.721C8620.547,510.684 8619.534,509.996 8617.966,509.996C8616.423,509.996 8615.217,510.78 8615.217,511.938C8615.217,512.83 8615.94,513.385 8617.472,513.759L8619.474,514.241C8621.922,514.832 8623.104,515.894 8623.104,517.763C8623.104,520.091 8620.849,521.695 8617.894,521.695C8615,521.695 8613.01,520.308 8612.781,518.149L8614.915,518.149C8615.265,519.246 8616.302,519.946 8617.966,519.946C8619.715,519.946 8620.969,519.114 8620.969,517.92C8620.969,517.027 8620.294,516.424 8618.907,516.087L8616.676,515.544C8614.24,514.953 8613.13,513.904 8613.13,512.022ZM8644.908,521.465L8643.16,516.485L8636.237,516.485L8634.489,521.465L8632.209,521.465L8638.625,504.063L8640.772,504.063L8647.188,521.465L8644.908,521.465ZM8639.602,506.873L8636.876,514.639L8642.521,514.639L8639.795,506.873L8639.602,506.873ZM8656.305,508.236C8659.622,508.236 8661.768,510.877 8661.768,514.965C8661.768,519.029 8659.61,521.695 8656.305,521.695C8654.448,521.695 8652.952,520.887 8652.241,519.512L8652.048,519.512L8652.048,525.807L8649.974,525.807L8649.974,508.465L8651.951,508.465L8651.951,510.636L8652.144,510.636C8652.977,509.14 8654.532,508.236 8656.305,508.236ZM8655.811,519.825C8658.199,519.825 8659.622,518.004 8659.622,514.965C8659.622,511.926 8658.199,510.105 8655.823,510.105C8653.471,510.105 8651.988,511.974 8651.988,514.965C8651.988,517.944 8653.471,519.825 8655.811,519.825ZM8665.025,521.465L8665.025,508.465L8667.002,508.465L8667.002,510.394L8667.195,510.394C8667.581,509.128 8669.077,508.236 8670.801,508.236C8671.139,508.236 8671.573,508.26 8671.838,508.296L8671.838,510.37C8671.67,510.322 8670.922,510.25 8670.512,510.25C8668.534,510.25 8667.099,511.576 8667.099,513.409L8667.099,521.465L8665.025,521.465ZM8673.865,525.891L8672.056,525.891L8673.213,519.029L8675.649,519.029L8673.865,525.891ZM8687.106,508.959C8687.106,505.872 8689.446,503.653 8692.678,503.653C8695.802,503.653 8698.19,505.775 8698.19,508.537C8698.19,510.346 8697.37,511.757 8694.511,514.82L8690.327,519.319L8690.327,519.512L8698.479,519.512L8698.479,521.465L8687.215,521.465L8687.215,519.97L8693.233,513.397C8695.476,510.961 8696.019,510.02 8696.019,508.621C8696.019,506.885 8694.535,505.546 8692.618,505.546C8690.58,505.546 8689.205,506.909 8689.205,508.959L8689.205,508.971L8687.106,508.971L8687.106,508.959ZM8708.079,521.875C8704.388,521.875 8701.808,519.789 8701.808,516.81C8701.808,514.543 8703.243,512.782 8705.426,512.372L8705.426,512.179C8703.653,511.697 8702.519,510.189 8702.519,508.296C8702.519,505.582 8704.823,503.653 8708.079,503.653C8711.335,503.653 8713.639,505.582 8713.639,508.296C8713.639,510.201 8712.529,511.685 8710.732,512.179L8710.732,512.372C8712.915,512.782 8714.35,514.543 8714.35,516.81C8714.35,519.789 8711.769,521.875 8708.079,521.875ZM8708.079,520.018C8710.491,520.018 8712.155,518.643 8712.155,516.653C8712.155,514.664 8710.491,513.289 8708.079,513.289C8705.667,513.289 8704.003,514.664 8704.003,516.653C8704.003,518.643 8705.667,520.018 8708.079,520.018ZM8708.079,511.456C8710.129,511.456 8711.504,510.274 8711.504,508.501C8711.504,506.704 8710.141,505.51 8708.079,505.51C8706.017,505.51 8704.654,506.704 8704.654,508.501C8704.654,510.274 8706.029,511.456 8708.079,511.456ZM8729.039,521.465L8729.039,506.475L8728.846,506.475L8724.42,509.683L8724.42,507.391L8729.051,504.063L8731.21,504.063L8731.21,521.465L8729.039,521.465ZM8740.557,521.465L8740.557,506.475L8740.364,506.475L8735.938,509.683L8735.938,507.391L8740.569,504.063L8742.727,504.063L8742.727,521.465L8740.557,521.465ZM8748.07,517.968C8748.07,516.979 8748.781,516.255 8749.782,516.255C8750.771,516.255 8751.471,516.979 8751.471,517.968C8751.471,518.969 8750.771,519.681 8749.782,519.681C8748.781,519.681 8748.07,518.969 8748.07,517.968ZM8748.07,508.597C8748.07,507.596 8748.781,506.873 8749.782,506.873C8750.771,506.873 8751.471,507.596 8751.471,508.597C8751.471,509.586 8750.771,510.31 8749.782,510.31C8748.781,510.31 8748.07,509.586 8748.07,508.597ZM8759.672,521.465L8759.672,506.475L8759.479,506.475L8755.053,509.683L8755.053,507.391L8759.684,504.063L8761.842,504.063L8761.842,521.465L8759.672,521.465ZM8772.769,521.875C8769.476,521.875 8767.113,519.837 8766.92,516.834L8769.054,516.834C8769.247,518.716 8770.743,519.97 8772.793,519.97C8775.121,519.97 8776.676,518.378 8776.676,515.99C8776.676,513.602 8775.108,511.974 8772.829,511.974C8771.249,511.974 8769.947,512.686 8769.235,513.928L8767.197,513.928L8768.15,504.063L8777.858,504.063L8777.858,506.004L8769.85,506.004L8769.356,511.588L8769.549,511.588C8770.393,510.599 8771.623,510.105 8773.227,510.105C8776.532,510.105 8778.847,512.505 8778.847,515.93C8778.847,519.463 8776.375,521.875 8772.769,521.875ZM8792.909,521.695C8790.389,521.695 8788.519,520.199 8788.519,517.823C8788.519,515.496 8790.232,514.157 8793.259,513.976L8797.01,513.747L8797.01,512.565C8797.01,510.961 8796.009,510.081 8794.067,510.081C8792.511,510.081 8791.426,510.672 8791.136,511.697L8789.038,511.697C8789.315,509.61 8791.365,508.236 8794.139,508.236C8797.311,508.236 8799.084,509.864 8799.084,512.565L8799.084,521.465L8797.106,521.465L8797.106,519.548L8796.913,519.548C8796.069,520.935 8794.646,521.695 8792.909,521.695ZM8793.295,519.873C8795.43,519.873 8797.01,518.475 8797.01,516.617L8797.01,515.423L8793.512,515.652C8791.534,515.785 8790.666,516.473 8790.666,517.775C8790.666,519.102 8791.788,519.873 8793.295,519.873ZM8804.631,521.586C8803.775,521.586 8803.064,520.874 8803.064,520.018C8803.064,519.15 8803.775,518.45 8804.631,518.45C8805.5,518.45 8806.199,519.15 8806.199,520.018C8806.199,520.874 8805.5,521.586 8804.631,521.586ZM8810.251,521.465L8810.251,508.465L8812.229,508.465L8812.229,510.515L8812.422,510.515C8813.013,509.068 8814.316,508.236 8816.052,508.236C8817.813,508.236 8819.043,509.164 8819.646,510.515L8819.839,510.515C8820.539,509.14 8822.022,508.236 8823.819,508.236C8826.472,508.236 8827.956,509.755 8827.956,512.481L8827.956,521.465L8825.881,521.465L8825.881,512.963C8825.881,511.046 8824.977,510.105 8823.144,510.105C8821.335,510.105 8820.129,511.456 8820.129,513.108L8820.129,521.465L8818.054,521.465L8818.054,512.637C8818.054,511.094 8816.981,510.105 8815.341,510.105C8813.64,510.105 8812.326,511.576 8812.326,513.409L8812.326,521.465L8810.251,521.465ZM8833.455,521.586C8832.599,521.586 8831.887,520.874 8831.887,520.018C8831.887,519.15 8832.599,518.45 8833.455,518.45C8834.323,518.45 8835.023,519.15 8835.023,520.018C8835.023,520.874 8834.323,521.586 8833.455,521.586Z"/>
                </g>
            </g>
            <g id="navegador" transform="matrix(1,0,0,1,0.882664,0)">
                <g id="barra_navegador" transform="matrix(0.537652,0,0,1.008161,-7.004802,-5.362423)">
                    <path d="M3778.874,657.086C3785.007,657.086 3790.889,659.512 3795.226,663.829C3799.563,668.147 3802,674.003 3802,680.11C3802,715.6 3802,779.621 3802,779.621L831,779.621L831,680.11C831,674.003 833.437,668.147 837.774,663.829C842.111,659.512 847.993,657.086 854.126,657.086C1115.916,657.086 3517.084,657.086 3778.874,657.086Z" style="fill:rgb(46,46,46);"/>
                </g>
                <g id="navegador1" serif:id="navegador" transform="matrix(0.535669,0,0,1.034621,0,-27.026225)">
                    <path d="M3803,780.621L3803,2404.168C3803,2416.778 3792.424,2427 3779.378,2427C3514.669,2427 1109.331,2427 844.622,2427C831.576,2427 821,2416.778 821,2404.168C821,2205.724 821,780.621 821,780.621L3803,780.621Z" style="fill:white;"/>
                </g>
                <g id="fechar" transform="matrix(0.510225,0,0,1,22.620405,-1.146486)">
                    <ellipse cx="883.5" cy="718" rx="15.5" ry="15" style="fill:rgb(238,106,95);"/>
                </g>
                <g id="minimizar" transform="matrix(0.510225,0,0,1,47.796836,-1.146486)">
                    <ellipse cx="883.5" cy="718" rx="15.5" ry="15" style="fill:rgb(245,189,79);"/>
                </g>
                <g id="maximizar" transform="matrix(0.518389,0,0,1,65.634183,-1.146486)">
                    <ellipse cx="883.5" cy="718" rx="15.5" ry="15" style="fill:rgb(97,196,84);"/>
                </g>
            </g>
            <g id="ferramenta" transform="matrix(1,0,0,1,4.096677,0)">
                <g id="barra_icone" transform="matrix(0.652896,0,0,1.112313,-210.586489,-297.480062)">
                    <path d="M2999.703,2532.926C3013.838,2532.926 3027.395,2539.079 3037.39,2550.031C3047.385,2560.984 3053,2575.838 3053,2591.327L3053,2652.599C3053,2668.088 3047.385,2682.942 3037.39,2693.895C3027.395,2704.847 3013.838,2711 2999.703,2711L1429.297,2711C1415.162,2711 1401.605,2704.847 1391.61,2693.895C1381.615,2682.942 1376,2668.088 1376,2652.599L1376,2591.327C1376,2575.838 1381.615,2560.984 1391.61,2550.031C1401.605,2539.079 1415.162,2532.926 1429.297,2532.926L2999.703,2532.926Z" style="fill:rgb(197,197,197);"/>
                </g>
                <g id="icone1" transform="matrix(0.80681,0,0,1.008,-384.517567,-21.416)">
                    <path d="M1410.358,2552C1421.206,2552 1430,2565.141 1430,2581.35L1430,2647.65C1430,2663.859 1421.206,2677 1410.358,2677L1368.642,2677C1357.794,2677 1349,2663.859 1349,2647.65L1349,2581.35C1349,2565.141 1357.794,2552 1368.642,2552L1410.358,2552Z" style="fill:white;"/>
                </g>
                <g id="icone2" transform="matrix(0.80681,0,0,1.008,-296.667895,-21.416)">
                    <path d="M1410.358,2552C1421.206,2552 1430,2565.141 1430,2581.35L1430,2647.65C1430,2663.859 1421.206,2677 1410.358,2677L1368.642,2677C1357.794,2677 1349,2663.859 1349,2647.65L1349,2581.35C1349,2565.141 1357.794,2552 1368.642,2552L1410.358,2552Z" style="fill:white;"/>
                </g>
                <g id="bolinha1" transform="matrix(0.579956,0,0,1.082677,-60.629687,-224.228346)">
                    <circle cx="1375" cy="2706" r="6" style="fill:rgb(103,103,103);"/>
                </g>
                <g id="bolinha2" transform="matrix(0.579956,0,0,1.082677,27.219986,-224.228346)">
                    <circle cx="1375" cy="2706" r="6" style="fill:rgb(103,103,103);"/>
                </g>
            </g>
            <g id="desktop">
                <g transform="matrix(0.535669,0,0,1,-0.808699,56.914066)">
                    <path d="M521.315,2818.775L521.315,507.573C521.315,477.883 533.109,449.41 554.103,428.416C575.096,407.422 603.57,395.628 633.259,395.628L3997.056,395.628C4026.745,395.628 4055.219,407.422 4076.212,428.416C4097.206,449.41 4109,477.883 4109,507.573L4109,2818.775C4109,2848.464 4097.206,2876.938 4076.212,2897.931C4055.219,2918.925 4026.745,2930.719 3997.056,2930.719L633.259,2930.719C603.57,2930.719 575.096,2918.925 554.103,2897.931C533.109,2876.938 521.315,2848.464 521.315,2818.775ZM637.07,407.158L633.129,407.158C606.532,407.158 581.024,417.724 562.218,436.531C543.411,455.338 532.845,480.846 532.845,507.443L532.845,2806.984C532.845,2868.953 583.081,2919.189 645.05,2919.189L3985.265,2919.189C4047.234,2919.189 4097.47,2868.953 4097.47,2806.984L4097.47,507.443C4097.47,480.846 4086.904,455.338 4068.097,436.531C4049.291,417.724 4023.783,407.158 3997.186,407.158L3993.245,407.158C3990.684,406.981 3988.109,406.892 3985.526,406.892L644.789,406.892C642.206,406.892 639.631,406.981 637.07,407.158Z" style="fill:rgb(219,215,206);"/>
                </g>
                <g transform="matrix(0.535669,0,0,1,-0.808699,56.914066)">
                    <path d="M4097.47,2755.124L4097.47,2806.984C4097.47,2868.953 4047.234,2919.189 3985.265,2919.189L2373.103,2919.189L2373.103,2918.908L2331.103,2918.908L2331.103,2919.189L645.05,2919.189C583.081,2919.189 532.845,2868.953 532.845,2806.984L532.845,2755.124C532.845,2810.57 577.793,2855.517 633.239,2855.517L3997.076,2855.517C4052.522,2855.517 4097.47,2810.57 4097.47,2755.124Z" style="fill:rgb(199,196,185);"/>
                </g>
                <g transform="matrix(0.535669,0,0,1,-0.808699,56.914066)">
                    <path d="M636.067,415.892L3994.248,415.892C4019.308,415.892 4043.341,425.847 4061.061,443.567C4078.781,461.287 4088.736,485.321 4088.736,510.38L4088.736,2750.719L541.579,2750.719L541.579,510.38C541.579,485.321 551.534,461.287 569.254,443.567C586.974,425.847 611.007,415.892 636.067,415.892ZM604.157,2692.012L4026.157,2692.012L4026.157,522.281C4026.157,509.751 4021.18,497.734 4012.32,488.874C4003.46,480.014 3991.443,475.037 3978.913,475.037L2521.157,475.037L2521.157,522.894C2521.157,529.087 2518.697,535.027 2514.318,539.406C2509.938,543.786 2503.999,546.246 2497.805,546.246L2126.51,546.246C2120.316,546.246 2114.377,543.786 2109.997,539.406C2105.618,535.027 2103.157,529.087 2103.157,522.894L2103.157,475.037L651.402,475.037C638.872,475.037 626.855,480.014 617.995,488.874C609.135,497.734 604.157,509.751 604.157,522.281L604.157,2692.012Z"/>
                </g>
                <g id="vermelho" transform="matrix(0.535669,0,0,1,-0.808699,56.914066)">
                    <path d="M532.845,2796.462L532.845,507.552L532.845,507.443C532.853,500.084 533.652,492.911 535.163,486.004C535.548,484.246 535.979,482.503 536.455,480.776C545.819,446.854 572.54,420.133 606.462,410.769C608.189,410.292 609.933,409.861 611.691,409.476C618.598,407.966 625.771,407.166 633.129,407.158L633.239,407.158L3997.076,407.158L3997.186,407.158C4004.544,407.166 4011.717,407.966 4018.624,409.476C4020.382,409.861 4022.126,410.292 4023.853,410.769C4057.775,420.133 4084.496,446.854 4093.86,480.776C4094.336,482.503 4094.767,484.246 4095.152,486.004C4096.663,492.911 4097.462,500.084 4097.47,507.443L4097.47,507.552L4097.47,2796.462C4097.47,2829.077 4071.03,2855.517 4038.415,2855.517L591.9,2855.517C559.285,2855.517 532.845,2829.077 532.845,2796.462ZM590.249,2845.873C593.621,2846.471 597.091,2846.784 600.634,2846.784L4029.681,2846.784C4033.224,2846.784 4036.694,2846.471 4040.066,2845.873C4064.357,2841.564 4083.517,2822.405 4087.826,2798.113C4088.424,2794.742 4088.736,2791.271 4088.736,2787.728L4088.736,510.38C4088.736,484.288 4078.16,460.666 4061.061,443.567C4043.962,426.468 4020.34,415.892 3994.248,415.892L636.067,415.892C609.975,415.892 586.353,426.468 569.254,443.567C552.155,460.666 541.579,484.288 541.579,510.38L541.579,2787.728C541.579,2791.271 541.891,2794.742 542.489,2798.113C546.798,2822.405 565.958,2841.564 590.249,2845.873Z" style="fill:rgb(105,105,105);"/>
                </g>
                <g transform="matrix(0.535669,0,0,1,-0.808699,56.914066)">
                    <path d="M4012,3001.859C3952.47,3001.734 3894.931,3001.496 3890.29,3001.047C3890.285,3000.499 3883.432,2994.416 3883.005,2994.037L4140.995,2994.037C4140.568,2994.416 4133.715,3000.499 4133.71,3001.047C4129.069,3001.496 4071.53,3001.734 4012,3001.859Z" style="fill:rgb(34,35,35);"/>
                </g>
                <g transform="matrix(0.535669,0,0,1,-0.808699,56.914066)">
                    <path d="M4012,2994.009L3882.984,2994.018L3876,2986.037L4148,2986.037L4141.016,2994.018L4012,2994.009Z" style="fill:rgb(72,69,63);"/>
                </g>
                <g transform="matrix(0.535669,0,0,1,-1818.868388,56.914066)">
                    <path d="M4012,3001.859C3952.47,3001.734 3894.931,3001.496 3890.29,3001.047C3890.285,3000.499 3883.432,2994.416 3883.005,2994.037L4140.995,2994.037C4140.568,2994.416 4133.715,3000.499 4133.71,3001.047C4129.069,3001.496 4071.53,3001.734 4012,3001.859Z" style="fill:rgb(34,35,35);"/>
                </g>
                <g transform="matrix(0.535669,0,0,1,-1818.868388,56.914066)">
                    <path d="M4012,2994.009L3882.984,2994.018L3876,2986.037L4148,2986.037L4141.016,2994.018L4012,2994.009Z" style="fill:rgb(72,69,63);"/>
                </g>
                <g transform="matrix(0.535669,0,0,1,-0.808699,56.914066)">
                    <path d="M541.579,2750.719L4088.736,2750.719L4088.736,2787.728C4088.736,2791.271 4088.424,2794.742 4087.826,2798.113C4083.517,2822.405 4064.357,2841.564 4040.066,2845.873C4036.694,2846.471 4033.224,2846.784 4029.681,2846.784L600.634,2846.784C597.091,2846.784 593.621,2846.471 590.249,2845.873C565.958,2841.564 546.798,2822.405 542.489,2798.113C541.891,2794.742 541.579,2791.271 541.579,2787.728L541.579,2750.719Z" style="fill:rgb(10,10,10);"/>
                </g>
                <g transform="matrix(0.534482,0,0,0.858453,1.669878,463.266996)">
                    <path d="M4347.157,2892L4347.157,2938.996C4347.157,2975.469 4321.719,3005.037 4290.339,3005.037L339.976,3005.037C308.596,3005.037 283.157,2975.469 283.157,2938.996L283.157,2892L4347.157,2892Z" style="fill:rgb(224,221,216);"/>
                </g>
                <g transform="matrix(-0.535669,0,0,1,2478.970593,56.914066)">
                    <path d="M4091.053,2889L4342.157,2889C4342.157,2889 4141.701,2877.877 4091.052,2877.997L538.263,2877.997C538.036,2877.997 537.808,2877.997 537.579,2877.996C485.836,2877.976 287.157,2889 287.157,2889L537.579,2889L537.579,2889.018L4091.053,2889.018L4091.053,2889Z" style="fill:rgb(197,192,182);"/>
                </g>
                <g id="teclado" transform="matrix(0.535669,0,0,1,-0.808699,56.914066)">
                    <path d="M2315.157,2883.507L551,2883.507L672.136,2877.997L3958.179,2877.996L4079.315,2883.506L2315.157,2883.507Z"/>
                </g>
                <g transform="matrix(0.535669,0,0,1,-0.808699,56.914066)">
                    <path d="M2315.157,2937.5L2315.157,2937.518L1996.5,2937.518C1969.714,2937.518 1948,2915.804 1948,2889.018L2315.157,2889.018L2315.157,2889L2682.315,2889C2682.315,2915.786 2660.601,2937.5 2633.815,2937.5L2315.157,2937.5Z" style="fill:rgb(200,194,185);fill-opacity:0.28;"/>
                </g>
                <g transform="matrix(0.535669,0,0,1.300092,-0.808699,-806.750544)">
                    <rect x="907.933" y="2868" width="193.067" height="9.997" style="fill:rgb(166,159,148);"/>
                </g>
                <g transform="matrix(0.535669,0,0,1,-0.808699,56.914066)">
                    <path d="M907.933,2865L906,2877.997L907.933,2877.997L907.933,2865Z" style="fill:rgb(140,130,118);"/>
                </g>
                <g transform="matrix(-0.535669,0,0,1,1075.313987,56.914066)">
                    <path d="M907.933,2865L906,2877.997L907.933,2877.997L907.933,2865Z" style="fill:rgb(140,130,118);"/>
                </g>
                <g transform="matrix(0.535669,0,0,1.300092,1400.500713,-806.750544)">
                    <rect x="907.933" y="2868" width="193.067" height="9.997" style="fill:rgb(166,159,148);"/>
                </g>
                <g transform="matrix(0.535669,0,0,1,1400.500713,56.914066)">
                    <path d="M907.933,2865L906,2877.997L907.933,2877.997L907.933,2865Z" style="fill:rgb(140,130,118);"/>
                </g>
                <g transform="matrix(-0.535669,0,0,1,2476.6234,56.914066)">
                    <path d="M907.933,2865L906,2877.997L907.933,2877.997L907.933,2865Z" style="fill:rgb(140,130,118);"/>
                </g>
                <g transform="matrix(0.908024,0,0,1,-111.025846,56.914066)">
                    <path d="M2649.497,2986.037L324.228,2986.037C316.155,2986.037 308.75,2981.188 302.971,2973.115L2670.754,2973.115C2664.975,2981.188 2657.57,2986.037 2649.497,2986.037Z" style="fill:rgb(73,70,64);"/>
                </g>
            </g>
        </g>
    </g>
</svg>
