<?xml version="1.0" encoding="UTF-8" standalone="no"?>
<!DOCTYPE svg PUBLIC "-//W3C//DTD SVG 1.1//EN" "http://www.w3.org/Graphics/SVG/1.1/DTD/svg11.dtd">
<svg width="100%" height="100%" viewBox="0 0 1773 1773" version="1.1" xmlns="http://www.w3.org/2000/svg" xmlns:xlink="http://www.w3.org/1999/xlink" xml:space="preserve" xmlns:serif="http://www.serif.com/" style="fill-rule:evenodd;clip-rule:evenodd;stroke-linejoin:round;stroke-miterlimit:2;">
    <rect id="template_buldogue" x="0.946" y="0.716" width="1771.65" height="1771.65" style="fill:rgb(213,233,219);"/>
    <clipPath id="_clip1">
        <rect x="0.946" y="0.716" width="1771.65" height="1771.65"/>
    </clipPath>
    <g clip-path="url(#_clip1)">
        <path d="M912.044,79.303L542.747,718.944C530.471,740.208 503.24,747.504 481.977,735.228L173.76,557.279C152.496,545.002 145.2,517.771 157.476,496.508L526.773,-143.133C539.05,-164.397 566.28,-171.693 587.544,-159.417L895.761,18.532C917.025,30.809 924.321,58.039 912.044,79.303Z" style="fill:rgb(171,211,183);"/>
        <path d="M851.11,976.168L851.11,1539.88C851.11,1564.43 831.176,1584.37 806.623,1584.37L450.725,1584.37C426.172,1584.37 406.238,1564.43 406.238,1539.88L406.238,976.168C406.238,951.615 426.172,931.681 450.725,931.681L806.623,931.681C831.176,931.681 851.11,951.615 851.11,976.168Z" style="fill:rgb(171,211,183);"/>
        <path d="M1667.09,448.457L1860.43,1170.03C1869.67,1204.5 1849.18,1240 1814.7,1249.23L1314.97,1383.14C1280.5,1392.37 1245,1371.88 1235.77,1337.41L1042.42,615.836C1033.18,581.36 1053.67,545.869 1088.15,536.632L1587.88,402.728C1622.36,393.49 1657.85,413.981 1667.09,448.457Z" style="fill:rgb(171,211,183);"/>
    </g>
</svg>
