<?xml version="1.0" encoding="UTF-8" standalone="no"?>
<!DOCTYPE svg PUBLIC "-//W3C//DTD SVG 1.1//EN" "http://www.w3.org/Graphics/SVG/1.1/DTD/svg11.dtd">
<svg width="100%" height="100%" viewBox="0 0 1763 1511" version="1.1" xmlns="http://www.w3.org/2000/svg" xmlns:xlink="http://www.w3.org/1999/xlink" xml:space="preserve" xmlns:serif="http://www.serif.com/" style="fill-rule:evenodd;clip-rule:evenodd;stroke-linejoin:round;stroke-miterlimit:2;">
    <g transform="matrix(1,0,0,1,-4312,-3403)">
        <g id="template_todos" transform="matrix(0.974748,0,0,1.05461,1134.71,-1848.31)">
            <rect x="3260.61" y="4980.06" width="1807.49" height="1431.8" style="fill:white;"/>
            <g transform="matrix(1.02591,0,0,0.948218,3758.62,203.303)">
                <path d="M666.962,5294.32L666.962,6187.55C666.962,6215.42 644.332,6238.05 616.459,6238.05L212.434,6238.05C184.56,6238.05 161.931,6215.42 161.931,6187.55L161.931,5294.32C161.931,5266.45 184.56,5243.82 212.434,5243.82L616.459,5243.82C644.332,5243.82 666.962,5266.45 666.962,5294.32Z" style="fill:rgb(236,164,2);"/>
            </g>
            <g transform="matrix(0.729228,0,0,0.638189,3538.06,2195.12)">
                <path d="M666.962,5297.16L666.962,6184.71C666.962,6214.15 644.332,6238.05 616.459,6238.05L212.434,6238.05C184.56,6238.05 161.931,6214.15 161.931,6184.71L161.931,5297.16C161.931,5267.72 184.56,5243.82 212.434,5243.82L616.459,5243.82C644.332,5243.82 666.962,5267.72 666.962,5297.16Z" style="fill:rgb(150,105,205);"/>
            </g>
            <g transform="matrix(-0.600952,-6.80222e-17,7.58791e-17,-0.572679,3905.2,9219.36)">
                <path d="M666.962,5292.8L666.962,6189.07C666.962,6216.1 644.332,6238.05 616.459,6238.05L212.434,6238.05C184.56,6238.05 161.931,6216.1 161.931,6189.07L161.931,5292.8C161.931,5265.77 184.56,5243.82 212.434,5243.82L616.459,5243.82C644.332,5243.82 666.962,5265.77 666.962,5292.8Z" style="fill:rgb(230,104,100);"/>
            </g>
            <g transform="matrix(0.818056,0,0,0.572679,4173.75,2603.77)">
                <path d="M666.962,5310.5L666.962,6171.37C666.962,6208.17 644.332,6238.05 616.459,6238.05L212.434,6238.05C184.56,6238.05 161.931,6208.17 161.931,6171.37L161.931,5310.5C161.931,5273.7 184.56,5243.82 212.434,5243.82L616.459,5243.82C644.332,5243.82 666.962,5273.7 666.962,5310.5Z" style="fill:rgb(137,103,95);"/>
            </g>
            <g transform="matrix(0.4157,0,0,0.28634,4547.07,4430.13)">
                <path d="M666.962,5311.59L666.962,6170.28C666.962,6207.68 644.332,6238.05 616.459,6238.05L212.434,6238.05C184.56,6238.05 161.931,6207.68 161.931,6170.28L161.931,5311.59C161.931,5274.19 184.56,5243.82 212.434,5243.82L616.459,5243.82C644.332,5243.82 666.962,5274.19 666.962,5311.59Z" style="fill:rgb(88,167,111);"/>
            </g>
        </g>
    </g>
</svg>
