<?xml version="1.0" encoding="UTF-8" standalone="no"?>
<!DOCTYPE svg PUBLIC "-//W3C//DTD SVG 1.1//EN" "http://www.w3.org/Graphics/SVG/1.1/DTD/svg11.dtd">
<svg width="100%" height="100%" viewBox="0 0 1773 5316" version="1.1" xmlns="http://www.w3.org/2000/svg" xmlns:xlink="http://www.w3.org/1999/xlink" xml:space="preserve" xmlns:serif="http://www.serif.com/" style="fill-rule:evenodd;clip-rule:evenodd;stroke-linejoin:round;stroke-miterlimit:2;">
    <rect id="template_layout_tecnico" x="0.359" y="0.421" width="1771.65" height="5314.96" style="fill:white;"/>
    <g>
        <path d="M821.725,318.235L821.725,799.426C821.725,811.865 810.967,821.965 797.716,821.965L605.641,821.965C592.39,821.965 581.632,811.865 581.632,799.426L581.632,318.235C581.632,305.796 592.39,295.696 605.641,295.696L797.716,295.696C810.967,295.696 821.725,305.796 821.725,318.235Z" style="fill:none;stroke:black;stroke-width:3.76px;"/>
    </g>
    <g>
        <path d="M477.506,1651.17L477.506,2132.36C477.506,2144.8 466.747,2154.9 453.496,2154.9L261.421,2154.9C248.17,2154.9 237.412,2144.8 237.412,2132.36L237.412,1651.17C237.412,1638.73 248.17,1628.63 261.421,1628.63L453.496,1628.63C466.747,1628.63 477.506,1638.73 477.506,1651.17Z" style="fill:none;stroke:black;stroke-width:3.76px;"/>
    </g>
    <g>
        <path d="M477.506,2332.59L477.506,2813.78C477.506,2826.22 466.747,2836.32 453.496,2836.32L261.421,2836.32C248.17,2836.32 237.412,2826.22 237.412,2813.78L237.412,2332.59C237.412,2320.15 248.17,2310.05 261.421,2310.05L453.496,2310.05C466.747,2310.05 477.506,2320.15 477.506,2332.59Z" style="fill:none;stroke:black;stroke-width:3.76px;"/>
    </g>
    <g>
        <path d="M477.506,3060.52L477.506,3541.71C477.506,3554.15 466.747,3564.25 453.496,3564.25L261.421,3564.25C248.17,3564.25 237.412,3554.15 237.412,3541.71L237.412,3060.52C237.412,3048.08 248.17,3037.98 261.421,3037.98L453.496,3037.98C466.747,3037.98 477.506,3048.08 477.506,3060.52Z" style="fill:none;stroke:black;stroke-width:3.76px;"/>
    </g>
    <g>
        <path d="M1228.7,3063.82L1228.7,3545.01C1228.7,3557.45 1217.94,3567.55 1204.69,3567.55L1012.62,3567.55C999.364,3567.55 988.606,3557.45 988.606,3545.01L988.606,3063.82C988.606,3051.38 999.364,3041.28 1012.62,3041.28L1204.69,3041.28C1217.94,3041.28 1228.7,3051.38 1228.7,3063.82Z" style="fill:none;stroke:black;stroke-width:3.76px;"/>
    </g>
    <g>
        <path d="M1228.7,3788.45L1228.7,4269.64C1228.7,4282.08 1217.94,4292.18 1204.69,4292.18L1012.62,4292.18C999.364,4292.18 988.606,4282.08 988.606,4269.64L988.606,3788.45C988.606,3776.01 999.364,3765.91 1012.62,3765.91L1204.69,3765.91C1217.94,3765.91 1228.7,3776.01 1228.7,3788.45Z" style="fill:none;stroke:black;stroke-width:3.76px;"/>
    </g>
    <g>
        <path d="M851.453,4516.38L851.453,4997.57C851.453,5010.01 840.695,5020.11 827.444,5020.11L635.369,5020.11C622.118,5020.11 611.36,5010.01 611.36,4997.57L611.36,4516.38C611.36,4503.94 622.118,4493.84 635.369,4493.84L827.444,4493.84C840.695,4493.84 851.453,4503.94 851.453,4516.38Z" style="fill:none;stroke:black;stroke-width:3.76px;"/>
    </g>
    <g>
        <path d="M477.506,3788.45L477.506,4269.64C477.506,4282.08 466.747,4292.18 453.496,4292.18L261.421,4292.18C248.17,4292.18 237.412,4282.08 237.412,4269.64L237.412,3788.45C237.412,3776.01 248.17,3765.91 261.421,3765.91L453.496,3765.91C466.747,3765.91 477.506,3776.01 477.506,3788.45Z" style="fill:none;stroke:black;stroke-width:3.76px;"/>
    </g>
    <g>
        <path d="M1225.4,1651.17L1225.4,2132.36C1225.4,2144.8 1214.64,2154.9 1201.39,2154.9L1009.32,2154.9C996.066,2154.9 985.308,2144.8 985.308,2132.36L985.308,1651.17C985.308,1638.73 996.066,1628.63 1009.32,1628.63L1201.39,1628.63C1214.64,1628.63 1225.4,1638.73 1225.4,1651.17Z" style="fill:none;stroke:black;stroke-width:3.76px;"/>
    </g>
    <g>
        <path d="M1225.4,2332.59L1225.4,2813.78C1225.4,2826.22 1214.64,2836.32 1201.39,2836.32L1009.32,2836.32C996.066,2836.32 985.308,2826.22 985.308,2813.78L985.308,2332.59C985.308,2320.15 996.066,2310.05 1009.32,2310.05L1201.39,2310.05C1214.64,2310.05 1225.4,2320.15 1225.4,2332.59Z" style="fill:none;stroke:black;stroke-width:3.76px;"/>
    </g>
    <g>
        <path d="M1187.44,318.235L1187.44,799.426C1187.44,811.865 1176.68,821.965 1163.43,821.965L971.356,821.965C958.105,821.965 947.347,811.865 947.347,799.426L947.347,318.235C947.347,305.796 958.105,295.696 971.356,295.696L1163.43,295.696C1176.68,295.696 1187.44,305.796 1187.44,318.235Z" style="fill:none;stroke:black;stroke-width:3.76px;"/>
    </g>
    <g>
        <path d="M783.765,1651.17L783.765,2132.36C783.765,2144.8 773.006,2154.9 759.755,2154.9L567.68,2154.9C554.429,2154.9 543.671,2144.8 543.671,2132.36L543.671,1651.17C543.671,1638.73 554.429,1628.63 567.68,1628.63L759.756,1628.63C773.006,1628.63 783.765,1638.73 783.765,1651.17Z" style="fill:none;stroke:black;stroke-width:3.76px;"/>
    </g>
    <g>
        <path d="M783.765,2332.59L783.765,2813.78C783.765,2826.22 773.006,2836.32 759.755,2836.32L567.68,2836.32C554.429,2836.32 543.671,2826.22 543.671,2813.78L543.671,2332.59C543.671,2320.15 554.429,2310.05 567.68,2310.05L759.756,2310.05C773.006,2310.05 783.765,2320.15 783.765,2332.59Z" style="fill:none;stroke:black;stroke-width:3.76px;"/>
    </g>
    <g>
        <path d="M783.765,3060.52L783.765,3541.71C783.765,3554.15 773.006,3564.25 759.755,3564.25L567.68,3564.25C554.429,3564.25 543.671,3554.15 543.671,3541.71L543.671,3060.52C543.671,3048.08 554.429,3037.98 567.68,3037.98L759.756,3037.98C773.006,3037.98 783.765,3048.08 783.765,3060.52Z" style="fill:none;stroke:black;stroke-width:3.76px;"/>
    </g>
    <g>
        <path d="M1534.96,3063.82L1534.96,3545.01C1534.96,3557.45 1524.2,3567.55 1510.95,3567.55L1318.88,3567.55C1305.62,3567.55 1294.87,3557.45 1294.87,3545.01L1294.87,3063.82C1294.87,3051.38 1305.62,3041.28 1318.88,3041.28L1510.95,3041.28C1524.2,3041.28 1534.96,3051.38 1534.96,3063.82Z" style="fill:none;stroke:black;stroke-width:3.76px;"/>
    </g>
    <g>
        <path d="M1534.96,3788.45L1534.96,4269.64C1534.96,4282.08 1524.2,4292.18 1510.95,4292.18L1318.88,4292.18C1305.62,4292.18 1294.87,4282.08 1294.87,4269.64L1294.87,3788.45C1294.87,3776.01 1305.62,3765.91 1318.88,3765.91L1510.95,3765.91C1524.2,3765.91 1534.96,3776.01 1534.96,3788.45Z" style="fill:none;stroke:black;stroke-width:3.76px;"/>
    </g>
    <g>
        <path d="M1157.71,4516.38L1157.71,4997.57C1157.71,5010.01 1146.95,5020.11 1133.7,5020.11L941.628,5020.11C928.377,5020.11 917.619,5010.01 917.619,4997.57L917.619,4516.38C917.619,4503.94 928.377,4493.84 941.628,4493.84L1133.7,4493.84C1146.95,4493.84 1157.71,4503.94 1157.71,4516.38Z" style="fill:none;stroke:black;stroke-width:3.76px;"/>
    </g>
    <g>
        <path d="M783.765,3788.45L783.765,4269.64C783.765,4282.08 773.006,4292.18 759.755,4292.18L567.68,4292.18C554.429,4292.18 543.671,4282.08 543.671,4269.64L543.671,3788.45C543.671,3776.01 554.429,3765.91 567.68,3765.91L759.756,3765.91C773.006,3765.91 783.765,3776.01 783.765,3788.45Z" style="fill:none;stroke:black;stroke-width:3.76px;"/>
    </g>
    <g>
        <path d="M1534.96,1651.17L1534.96,2132.36C1534.96,2144.8 1524.2,2154.9 1510.95,2154.9L1318.88,2154.9C1305.62,2154.9 1294.87,2144.8 1294.87,2132.36L1294.87,1651.17C1294.87,1638.73 1305.62,1628.63 1318.88,1628.63L1510.95,1628.63C1524.2,1628.63 1534.96,1638.73 1534.96,1651.17Z" style="fill:none;stroke:black;stroke-width:3.76px;"/>
    </g>
    <g>
        <path d="M1534.96,2332.59L1534.96,2813.78C1534.96,2826.22 1524.2,2836.32 1510.95,2836.32L1318.88,2836.32C1305.62,2836.32 1294.87,2826.22 1294.87,2813.78L1294.87,2332.59C1294.87,2320.15 1305.62,2310.05 1318.88,2310.05L1510.95,2310.05C1524.2,2310.05 1534.96,2320.15 1534.96,2332.59Z" style="fill:none;stroke:black;stroke-width:3.76px;"/>
    </g>
    <g>
        <path d="M821.725,969.744L821.725,1450.94C821.725,1463.38 810.967,1473.47 797.716,1473.47L605.641,1473.47C592.39,1473.47 581.632,1463.38 581.632,1450.94L581.632,969.744C581.632,957.305 592.39,947.206 605.641,947.206L797.716,947.206C810.967,947.206 821.725,957.305 821.725,969.744Z" style="fill:none;stroke:black;stroke-width:3.76px;"/>
    </g>
    <g>
        <path d="M1187.44,969.744L1187.44,1450.94C1187.44,1463.38 1176.68,1473.47 1163.43,1473.47L971.356,1473.47C958.105,1473.47 947.347,1463.38 947.347,1450.94L947.347,969.744C947.347,957.305 958.105,947.206 971.356,947.206L1163.43,947.206C1176.68,947.206 1187.44,957.305 1187.44,969.744Z" style="fill:none;stroke:black;stroke-width:3.76px;"/>
    </g>
</svg>
