<?xml version="1.0" encoding="UTF-8" standalone="no"?>
<!DOCTYPE svg PUBLIC "-//W3C//DTD SVG 1.1//EN" "http://www.w3.org/Graphics/SVG/1.1/DTD/svg11.dtd">
<svg width="100%" height="100%" viewBox="0 0 60 20" version="1.1" xmlns="http://www.w3.org/2000/svg" xmlns:xlink="http://www.w3.org/1999/xlink" xml:space="preserve" xmlns:serif="http://www.serif.com/" style="fill-rule:evenodd;clip-rule:evenodd;stroke-linejoin:round;stroke-miterlimit:2;">
    <g id="logo" transform="matrix(0.250001,0,0,0.138171,5.68434e-14,0.111667)">
        <rect x="0" y="0" width="236.22" height="141.732"/>
        <g transform="matrix(3.99998,0,0,7.23738,-0.445831,-0.392025)">
            <path d="M10.419,11.227L10.419,5.626L11.826,5.626L11.826,11.227C11.826,15.026 5.738,14.997 5.738,11.227L5.738,5.626L7.145,5.626L7.145,11.227C7.145,13.153 10.419,13.194 10.419,11.227ZM18.155,11.842L20.228,5.626L22.375,5.626L22.375,14.066L20.969,14.066L20.969,7.85L18.897,14.066L17.415,14.066L15.343,7.85L15.343,14.066L13.937,14.066L13.937,5.626L16.084,5.626L18.155,11.842ZM24.486,5.626L25.892,5.626L25.892,14.066L24.486,14.066L24.486,5.626ZM28.002,14.066L28.002,8.458L31.276,14.066L28.002,14.066ZM31.276,5.626L31.276,11.234L28.002,5.626L31.276,5.626ZM33.387,5.626L34.794,5.626L34.794,14.066L33.387,14.066L33.387,5.626ZM41.123,11.842L43.195,5.626L45.343,5.626L45.343,14.066L43.937,14.066L43.937,7.85L41.864,14.066L40.381,14.066L38.31,7.85L38.31,14.066L36.903,14.066L36.903,5.626L39.052,5.626L41.123,11.842ZM53.54,11.227C53.54,15.026 47.453,14.997 47.453,11.227L47.453,8.465C47.453,4.665 53.54,4.695 53.54,8.465L53.54,11.227ZM52.133,11.227L52.135,8.465L52.133,8.442C52.108,6.539 48.859,6.506 48.859,8.465L48.859,11.25C48.887,13.153 52.133,13.186 52.133,11.227Z" style="fill:white;"/>
        </g>
    </g>
</svg>
