<?xml version="1.0" encoding="UTF-8" standalone="no"?>
<!DOCTYPE svg PUBLIC "-//W3C//DTD SVG 1.1//EN" "http://www.w3.org/Graphics/SVG/1.1/DTD/svg11.dtd">
<svg width="100%" height="100%" viewBox="0 0 60 20" version="1.1" xmlns="http://www.w3.org/2000/svg" xmlns:xlink="http://www.w3.org/1999/xlink" xml:space="preserve" xmlns:serif="http://www.serif.com/" style="fill-rule:evenodd;clip-rule:evenodd;stroke-linejoin:round;stroke-miterlimit:2;">
    <g id="logo" transform="matrix(0.250472,0,0,0.138171,0,0)">
        <rect x="0" y="0" width="236.22" height="141.732" style="fill:none;"/>
        <clipPath id="_clip1">
            <rect x="0" y="0" width="236.22" height="141.732"/>
        </clipPath>
        <g clip-path="url(#_clip1)">
            <g id="Camada-1" serif:id="Camada 1" transform="matrix(16.6352,0,0,30.1558,0,0)">
                <g transform="matrix(1,0,0,1,0,-28.8181)">
                    <path d="M-0,33.544L14.173,33.544L14.173,28.818L-0,28.818L-0,33.544ZM5.85,30.168L6.187,30.168L6.187,32.194L5.85,32.194L5.85,30.168ZM12.823,31.513L12.823,30.85C12.823,29.945 11.362,29.938 11.362,30.85L11.362,31.513C11.362,32.417 12.823,32.424 12.823,31.513ZM12.485,31.513C12.485,31.983 11.706,31.975 11.699,31.518L11.699,30.85C11.699,30.38 12.479,30.387 12.485,30.844C12.485,30.846 12.485,30.848 12.485,30.85L12.485,31.513ZM2.474,31.513C2.474,31.985 1.688,31.975 1.688,31.513L1.688,30.168L1.35,30.168L1.35,31.513C1.35,32.417 2.811,32.424 2.811,31.513L2.811,30.168L2.474,30.168L2.474,31.513ZM7.479,30.168L6.693,30.168L7.479,31.514L7.479,30.168ZM6.693,32.194L6.693,30.848L7.479,32.194L6.693,32.194ZM9.843,31.66L9.345,30.168L8.83,30.168L8.83,32.194L9.167,32.194L9.167,30.702L9.664,32.194L10.02,32.194L10.518,30.702L10.518,32.194L10.855,32.194L10.855,30.168L10.34,30.168L9.843,31.66ZM4.33,31.66L3.833,30.168L3.318,30.168L3.318,32.194L3.655,32.194L3.655,30.702L4.152,32.194L4.508,32.194L5.005,30.702L5.005,32.194L5.343,32.194L5.343,30.168L4.828,30.168L4.33,31.66ZM7.986,30.168L8.323,30.168L8.323,32.194L7.986,32.194L7.986,30.168Z"/>
                </g>
                <g transform="matrix(1,0,0,1,0,-28.8181)">
                    <path d="M1.35,31.513C1.35,32.417 2.811,32.424 2.811,31.513L2.811,30.168L2.474,30.168L2.474,31.513C2.474,31.985 1.688,31.975 1.688,31.513L1.688,30.168L1.35,30.168L1.35,31.513ZM11.362,31.513C11.362,32.417 12.823,32.424 12.823,31.513L12.823,30.85C12.823,29.945 11.362,29.938 11.362,30.85L11.362,31.513ZM12.485,31.513C12.485,31.985 11.699,31.975 11.699,31.513L11.699,30.85C11.699,30.377 12.485,30.388 12.485,30.85L12.485,31.513ZM8.83,30.168L8.83,32.194L9.167,32.194L9.167,30.702L9.664,32.194L10.02,32.194L10.518,30.702L10.518,32.194L10.855,32.194L10.855,30.168L10.34,30.168L9.843,31.66L9.345,30.168L8.83,30.168ZM7.986,30.168L7.986,32.194L8.323,32.194L8.323,30.168L7.986,30.168ZM6.693,30.168L7.479,31.514L7.479,30.168L6.693,30.168ZM6.693,30.848L6.693,32.194L7.479,32.194L6.693,30.848ZM5.85,30.168L5.85,32.194L6.187,32.194L6.187,30.168L5.85,30.168ZM3.318,30.168L3.318,32.194L3.655,32.194L3.655,30.702L4.152,32.194L4.508,32.194L5.005,30.702L5.005,32.194L5.343,32.194L5.343,30.168L4.828,30.168L4.33,31.66L3.833,30.168L3.318,30.168Z" style="fill:white;"/>
                </g>
            </g>
        </g>
    </g>
</svg>
