<svg id="Camada_1" data-name="Camada 1" xmlns="http://www.w3.org/2000/svg" viewBox="0 0 42.506 14.174">
  <defs>
    <style>
      .cls-1, .cls-2 {
        fill-rule: evenodd;
      }

      .cls-2 {
        fill: #fff;
      }
    </style>
  </defs>
  <title>uminimo</title>
  <g>
    <path class="cls-1" d="M255.125,413.859h42.506V399.685H255.125v14.174Zm17.544-10.124h1.012v6.075h-1.012v-6.075Zm20.913,4.031c0,2.735-4.382,2.714-4.382,0v-1.988c0-2.735,4.382-2.714,4.382,0v1.988Zm-1.013,0h0c0,1.41-2.337,1.386-2.357.017v-2.005c0-1.41,2.338-1.386,2.357-.017v2.005Zm-30.025,0v-4.031h1.013v4.031c0,2.735-4.382,2.714-4.382,0v-4.031h1.012v4.031c0,1.386,2.357,1.416,2.357,0Zm15.012-4.031v4.036l-2.357-4.036Zm-2.357,6.075h0v-4.036l2.357,4.036Zm9.444-1.6,1.492-4.474h1.546v6.075h-1.012v-4.474l-1.491,4.474H284.11l-1.491-4.474v4.474h-1.012v-6.075h1.546l1.491,4.474Zm-16.53,0,1.491-4.474h1.546v6.075h-1.013v-4.474l-1.491,4.474h-1.067l-1.491-4.474v4.474h-1.012v-6.075h1.546l1.492,4.474Zm10.962-4.474h1.012v6.075h-1.012Z" transform="translate(-255.125 -399.685)"/>
    <path class="cls-2" d="M259.174,407.766c0,2.714,4.381,2.735,4.381,0v-4.031h-1.012v4.031c0,1.416-2.357,1.386-2.357,0v-4.031h-1.012v4.031Zm30.025,0c0,2.714,4.382,2.735,4.382,0v-1.988c0-2.714-4.382-2.735-4.382,0v1.988Zm3.369,0c0,1.416-2.357,1.386-2.357,0v-1.988c0-1.418,2.358-1.384,2.358,0v1.988Zm-10.962-4.031v6.075h1.012v-4.474l1.491,4.474h1.067l1.492-4.474v4.474h1.012v-6.075h-1.546l-1.491,4.474-1.491-4.474Zm-2.531,0v6.075h1.013v-6.075Zm-3.876,0,2.357,4.037v-4.037Zm0,2.039,2.357,4.037H275.2v-4.037Zm-2.531-2.039v6.075h1.012v-6.075Zm-7.593,0v6.075h1.013v-4.474l1.491,4.474h1.067l1.491-4.474v4.474h1.013v-6.075H269.6l-1.492,4.474-1.491-4.474Z" transform="translate(-255.125 -399.685)"/>
  </g>
</svg>
